<svg xmlns="http://www.w3.org/2000/svg" xml:space="preserve" shape-rendering="geometricPrecision" text-rendering="geometricPrecision" image-rendering="optimizeQuality" fill-rule="evenodd" clip-rule="evenodd" xmlns:xlink="http://www.w3.org/1999/xlink" viewBox="0 0 457.85 113.42">  <g id="Layer_1">   <metadata id="FutureCorpID_Layer"/>    <path fill="#000000" d="M86.54,91.42 C118.94,104.38 135.8,108.27 151.91,106.51 C157.32,105.92 160.81,105.27 164.61,104.16 C174.93,101.13 183.83,98.26 192.73,95.07 C199.24,92.74 206.06,90.5 213.51,88.24 C220.49,86.12 225.29,84.88 231.19,83.69 C238.7,82.18 243,81.54 247.29,81.31 C253.32,80.98 258.44,81.32 263.06,82.36 C265.46,82.89 267.87,83.63 271.03,84.81 C273.65,85.78 276.31,86.67 279.52,87.66 C282.37,88.54 284.1,89.07 285.76,89.59 C288.88,90.55 292.34,90.9 298.48,90.87 C301.5,90.86 304.37,90.67 307.15,90.32 C311.41,89.78 314.29,89.29 317.04,88.65 C320.83,87.77 323.91,87.15 326.87,86.68 C331.64,85.92 335.03,85.7 338.24,85.92 C341.02,86.12 343.9,86.71 347.81,87.88 C350.01,88.54 352.28,89.35 355.38,90.61 C358.8,92 362.43,93.28 366.37,94.48 C369.96,95.58 373.15,96.45 376.37,97.23 C380.45,98.21 383.21,98.78 385.87,99.19 C389.19,99.71 392.49,100.05 396.47,100.28 C398.23,100.38 400.04,100.43 403.29,100.47 C406.82,100.5 410.4,100.42 414.02,100.23 C417.68,100.04 421.51,99.65 425.82,99.03 C430.08,98.42 433.41,97.82 436.61,97.08 C440.01,96.28 443.25,95.55 447.06,94.72 C450.44,93.99 453.87,93.29 457.85,92.52 L450.86,95.94 C447.79,97.45 444.39,98.82 440.3,100.19 C438.35,100.84 436.27,101.45 433.14,102.28 C426.2,104.13 419.73,105.32 413.46,105.89 C409.84,106.22 406.66,106.45 402.29,106.67 C399.29,106.83 396.87,106.8 390.89,106.53 C388.93,106.44 387.12,106.32 385.36,106.16 C380.53,105.72 375.81,104.86 371.27,103.59 C369.39,103.06 367.39,102.46 364.88,101.65 C360.6,100.29 357.5,99.24 354.65,98.18 C351.23,96.91 348.21,96.05 345.19,95.47 C341.17,94.71 336.86,94.49 332.24,94.82 C327.97,95.12 323.93,95.81 316.51,97.51 C314.29,98.02 311.97,98.46 309.52,98.84 C302.59,99.92 296.85,100.2 291.45,99.73 C286.01,99.25 280.02,97.93 272.66,95.59 C269.14,94.47 265.99,93.51 263.17,92.7 C257.78,91.16 252.02,90.51 245.8,90.76 C242.85,90.88 239.85,91.18 236.46,91.7 C228.03,92.98 219.75,95.04 211.62,97.88 C208.73,98.9 205.65,99.88 200.92,101.31 C193,103.7 191.65,104.1 188.13,105.16 C179.88,107.63 173.76,109.3 167.82,110.7 C161.21,112.25 154.42,113.15 147.56,113.37 C137.17,113.7 127.73,112.23 119.67,109.03 C113.78,106.69 108.55,103.91 86.54,91.42 L86.54,91.42 zM384.94,70.92 C384.94,79.93 376.52,87.24 366.13,87.24 C355.75,87.24 347.33,79.93 347.33,70.92 C347.33,61.9 355.75,54.6 366.13,54.6 C376.52,54.6 384.94,61.9 384.94,70.92 L384.94,70.92 z"/>   <path fill="#000000" d="M83.89,90.49 C83.88,90.33 83.87,90.15 83.87,89.96 C83.87,86.15 86.49,77.29 90.48,67.62 C94.86,56.98 99.35,49.09 102.11,47.16 C102.79,46.53 103.17,45.66 103.17,44.78 C103.17,43.15 102.02,41.86 100.56,41.86 C100.07,41.86 99.59,42.01 99.15,42.3 C95.71,44.78 90.62,53.48 85.82,65.06 C81.45,75.62 78.63,85.46 78.63,90.16 C78.63,91.42 78.86,92.16 79.46,92.8 C79.95,93.32 80.59,93.6 81.27,93.6 C82.73,93.6 83.9,92.29 83.9,90.65 C83.9,90.6 83.9,90.54 83.89,90.49 L83.89,90.49 zM41.32,56.41 C41.32,58.06 42.46,59.34 43.94,59.34 C45.42,59.34 46.57,58.06 46.57,56.41 C46.57,56.4 46.57,56.39 46.57,56.39 C46.57,52.26 51.68,47.93 61.13,44.03 C74.09,38.69 93.07,35.09 108.24,35.09 C123.71,35.09 132.76,38.71 133.61,45.23 C133.67,45.7 133.7,46.16 133.7,46.64 C133.7,52.31 129.26,58.86 121.45,64.69 C114.79,69.67 106.88,73.12 102.15,73.12 C100.28,73.12 99,72.58 98.41,71.53 C98.13,70.48 97.1,69.69 96.04,69.69 C94.56,69.69 93.4,70.95 93.4,72.57 C93.4,73.12 93.55,73.65 93.82,74.09 C95.1,76.78 97.84,78.19 101.78,78.19 C107.23,78.19 114.62,75.46 121.54,70.89 C132.38,63.72 138.98,54.37 138.98,46.16 C138.98,42.68 137.78,39.8 135.34,37.38 C130.41,32.5 120.49,29.86 107.07,29.86 C90.49,29.86 70.88,33.97 57.41,40.26 C46.68,45.28 41.31,50.65 41.32,56.38 C41.32,56.39 41.32,56.4 41.32,56.41 L41.32,56.41 z"/>   <path fill="#000000" d="M165.28,68.04 C163.36,70.06 161.47,71.85 159.85,73.17 C158.52,74.27 157.47,74.96 157.07,75.01 C157.07,74.76 157.48,72.12 158.01,68.88 C158.44,66.33 158.56,65.28 158.56,64.26 C158.56,61.44 157.21,59.56 155.18,59.56 C154.76,59.56 154.32,59.64 153.87,59.8 C153.72,59.02 153.18,58.36 152.4,57.97 C151.56,57.61 150.69,57.43 149.77,57.43 C147.1,57.43 144.17,58.98 141.23,61.94 C138.11,65.09 135.2,69.71 133.94,73.54 C133.55,74.8 133.36,75.98 133.36,77.06 C133.36,79.22 134.15,80.86 135.58,81.69 C136.2,82.07 136.88,82.26 137.61,82.26 C139.25,82.26 141.13,81.29 143.13,79.4 C144.78,77.84 146.45,75.93 149.86,71.72 L151,70.3 C151.97,69.11 152.36,68.63 152.81,68.14 C152.29,71.12 152.11,72.76 152.11,74.3 C152.11,77.2 152.89,79.08 154.53,80.14 C155.12,80.5 155.79,80.68 156.54,80.68 C159.49,80.68 163.61,77.88 168.8,72.35 C169.45,71.74 169.79,70.98 169.79,70.16 C169.79,68.58 168.52,67.14 167.12,67.14 C166.45,67.14 165.8,67.46 165.28,68.04 L165.28,68.04 zM138.78,75.83 C138.84,75.76 138.86,75.7 138.86,75.56 C139.77,72.89 141.57,69.75 143.61,67.32 C145.79,64.72 147.91,63.27 149.57,63.27 C149.64,63.27 149.7,63.28 149.77,63.28 C149.15,63.97 148.61,64.61 147.35,66.13 L144.99,68.98 C141.9,72.71 140.58,74.19 139.52,75.13 C139.08,75.52 138.93,75.66 138.78,75.83 L138.78,75.83 z"/>   <path fill="#000000" d="M200.31,68.04 C196.94,71.42 193.9,73.48 192.28,73.48 C191.64,73.48 191.42,73.15 191.42,72.18 C191.42,71.42 191.58,70.27 191.94,68.59 L192.84,65.66 C193.5,63.82 193.82,62.29 193.82,61.08 C193.82,58.9 192.76,57.72 190.63,57.51 C190.54,57.5 190.46,57.5 190.38,57.5 C187.64,57.5 183.16,60.96 176.27,68.41 L177.83,62.91 C178.04,62.24 178.15,61.58 178.15,60.96 C178.15,59.11 177.16,57.82 175.74,57.82 C174.74,57.82 173.64,58.46 172.66,59.62 C172.17,60.17 171.82,60.58 170.45,62.28 C168.59,64.57 166.79,66.61 165.36,68.04 C164.81,68.56 164.46,69.41 164.46,70.24 C164.46,71.85 165.66,73.16 167.13,73.16 C167.75,73.16 168.34,72.91 168.8,72.44 C169.24,72.08 169.6,71.74 169.87,71.43 L168.72,75.28 C168.46,76.1 168.32,76.92 168.32,77.68 C168.32,79.68 169.26,81.01 170.66,81.01 C171.69,81.01 172.91,80.29 174.14,78.96 L176.83,76.05 C182.77,69.6 185.24,67.06 187.35,65.2 C186.65,67.92 186.37,69.75 186.37,71.56 C186.37,75.73 187.94,78.41 190.79,79.13 C191.18,79.22 191.58,79.26 192.01,79.26 C195.15,79.26 199.52,76.72 203.75,72.44 C204.4,71.83 204.74,71.07 204.74,70.26 C204.74,68.68 203.45,67.22 202.05,67.22 C201.41,67.22 200.8,67.51 200.31,68.04 L200.31,68.04 z"/>   <path fill="#000000" d="M228.94,68.04 C227.02,70.06 225.13,71.85 223.51,73.17 C222.18,74.27 221.13,74.96 220.73,75.01 C220.73,74.76 221.14,72.12 221.68,68.88 C222.1,66.33 222.22,65.28 222.22,64.26 C222.22,61.44 220.87,59.56 218.84,59.56 C218.42,59.56 217.98,59.64 217.53,59.8 C217.38,59.02 216.85,58.36 216.06,57.97 C215.23,57.61 214.35,57.43 213.44,57.43 C210.76,57.43 207.83,58.98 204.89,61.94 C201.77,65.09 198.86,69.71 197.6,73.54 C197.22,74.8 197.02,75.98 197.02,77.06 C197.02,79.22 197.81,80.86 199.24,81.69 C199.86,82.07 200.54,82.26 201.27,82.26 C202.91,82.26 204.79,81.29 206.79,79.4 C208.44,77.84 210.11,75.93 213.52,71.72 L214.66,70.3 C215.63,69.11 216.02,68.63 216.47,68.14 C215.95,71.12 215.77,72.76 215.77,74.3 C215.77,77.2 216.55,79.08 218.19,80.14 C218.78,80.5 219.46,80.68 220.2,80.68 C223.15,80.68 227.27,77.88 232.47,72.35 C233.11,71.74 233.45,70.98 233.45,70.16 C233.45,68.58 232.18,67.14 230.78,67.14 C230.11,67.14 229.46,67.46 228.94,68.04 L228.94,68.04 zM202.44,75.83 C202.5,75.76 202.52,75.7 202.52,75.56 C203.43,72.89 205.24,69.75 207.27,67.32 C209.45,64.72 211.57,63.27 213.23,63.27 C213.3,63.27 213.37,63.28 213.43,63.28 C212.81,63.97 212.28,64.61 211.01,66.13 L208.65,68.98 C205.56,72.71 204.25,74.19 203.18,75.13 C202.75,75.52 202.6,75.66 202.44,75.83 L202.44,75.83 z"/>   <path fill="#000000" d="M232.55,72.35 C234.4,70.53 236.25,68.58 238.29,66.3 C237.14,70.07 236.28,73.27 235.74,75.83 C235.62,76.38 235.56,76.91 235.56,77.41 C235.56,79.5 236.67,80.97 238.26,80.97 C239.3,80.97 240.41,80.3 241.33,79.13 L241.76,78.61 C245.09,74.58 246.88,72.47 248.87,70.24 C248.98,71.27 249.18,72.14 249.53,72.99 C251.37,77.1 254.34,79.3 258.05,79.3 C258.46,79.3 258.87,79.27 259.29,79.21 C262.84,78.71 267.98,75.79 271.35,72.35 C271.99,71.74 272.34,70.96 272.34,70.14 C272.34,68.59 271.04,67.13 269.65,67.13 C269.01,67.13 268.4,67.42 267.91,67.95 C265.01,70.85 261.22,73.06 258.64,73.36 C258.32,73.4 258.03,73.42 257.76,73.42 C256.12,73.42 255.17,72.62 254.45,70.61 C254.27,70.21 254.24,70.12 254.24,70.07 C254.24,70.03 254.25,70.01 254.29,69.97 C259.68,66.74 263.21,64.19 265.64,61.77 C267.91,59.51 269.05,57.47 269.05,55.68 C269.05,54.51 268.56,53.44 267.57,52.48 C266.77,51.71 265.79,51.32 264.63,51.32 C260.17,51.32 253.27,56.77 243.21,68.23 C245.15,61.85 246.86,56.78 248.46,52.65 C250.09,49.98 251.52,47.14 252.57,44.5 C253.33,42.44 253.54,41.65 253.54,40.83 C253.54,39.9 253.18,39.18 252.4,38.55 C251.85,38.15 251.32,37.95 250.82,37.95 C249.61,37.95 248.5,39.1 247.4,41.48 C246.37,43.6 245.15,46.48 243.87,49.81 C240.17,55.91 235.1,62.11 229.1,67.86 C228.46,68.47 228.11,69.27 228.11,70.11 C228.11,71.69 229.4,73.16 230.8,73.16 C231.43,73.16 232.05,72.88 232.55,72.35 L232.55,72.35 zM256.5,62 C260.13,58.49 262.47,56.76 263.61,56.76 C263.83,56.76 264,56.83 264.13,56.96 C264.13,57.06 259.38,60.2 256.5,62 L256.5,62 z"/>   <path fill="#000000" d="M267.01,70.61 C267.01,71.05 267.08,71.42 267.25,71.8 C268.07,77.9 271.74,81.56 277.06,81.56 C282.09,81.56 287.99,78.29 293.67,72.35 C294.31,71.74 294.65,70.98 294.65,70.16 C294.65,68.58 293.38,67.14 291.99,67.14 C291.32,67.14 290.67,67.46 290.14,68.04 C285.03,73.37 280.51,76.23 277.2,76.23 C274.91,76.23 273.33,74.84 272.67,72.26 C277.11,69.65 280.88,66.56 283.19,63.62 C284.98,61.34 285.9,59.19 285.9,57.23 C285.9,56.09 285.59,55.02 284.98,54.02 C283.98,52.38 282.45,51.51 280.56,51.51 C276.36,51.51 271.35,55.66 268.85,61.22 C267.69,63.8 267.09,66.59 267.09,69.33 L267.09,69.88 C267.03,70.08 267.01,70.27 267.01,70.61 L267.01,70.61 zM272.83,65.48 C273.43,62.97 274.66,60.66 276.3,58.97 C277.52,57.7 278.89,56.9 279.82,56.9 C280.42,56.9 280.82,57.24 280.82,57.76 C280.82,59.27 277.61,62.37 272.83,65.48 L272.83,65.48 z"/>   <path fill="#000000" d="M308.6,67.95 C305.06,71.51 302.21,73.59 300.87,73.59 C300.76,73.59 300.65,73.57 300.56,73.54 C300.3,73.43 300.17,73.04 300.17,72.37 C300.17,71.19 300.47,69.61 301.44,65.55 L301.79,64.11 C301.94,63.6 302.02,63.09 302.02,62.59 C302.02,61.26 301.47,60.23 300.48,59.71 C300.12,59.51 299.74,59.41 299.36,59.41 C298.45,59.41 297.54,59.97 296.79,60.99 C294.79,63.35 292.36,65.92 290.22,67.95 C289.67,68.46 289.32,69.32 289.32,70.15 C289.32,71.8 290.5,73.13 291.95,73.13 C292.59,73.13 293.19,72.85 293.67,72.35 L295.23,70.79 C295.21,71.14 295.2,71.47 295.2,71.8 C295.2,75.72 296.37,78.1 298.75,79.04 C299.31,79.26 299.92,79.37 300.56,79.37 C303.56,79.37 307.45,76.99 312.04,72.35 C312.69,71.74 313.03,70.98 313.03,70.17 C313.03,68.59 311.74,67.13 310.34,67.13 C309.7,67.13 309.09,67.42 308.6,67.95 L308.6,67.95 zM299.9,49.54 C298.78,50.42 298.11,51.69 298.11,52.97 C298.11,54.71 299.27,56.03 301.13,56.41 C301.54,56.5 301.95,56.55 302.36,56.55 C304.92,56.55 306.96,54.62 306.96,52.2 C306.96,49.91 305.27,48.31 302.88,48.31 C302.35,48.31 301.79,48.38 301.22,48.53 C300.71,48.72 300.22,49.09 299.9,49.54 L299.9,49.54 zM303.1,54.3 L303.18,54.3 L303.1,54.3 L303.1,54.3 z"/>   <path fill="#000000" d="M337.15,68.04 C335.23,70.06 333.34,71.85 331.72,73.17 C330.39,74.27 329.34,74.96 328.94,75.01 C328.94,74.76 329.35,72.12 329.89,68.88 C330.31,66.33 330.43,65.28 330.43,64.26 C330.43,61.44 329.08,59.56 327.05,59.56 C326.63,59.56 326.19,59.64 325.74,59.8 C325.59,59.02 325.05,58.36 324.27,57.97 C323.44,57.61 322.56,57.43 321.65,57.43 C318.97,57.43 316.04,58.98 313.1,61.94 C309.98,65.09 307.07,69.71 305.81,73.54 C305.43,74.8 305.23,75.98 305.23,77.06 C305.23,79.22 306.02,80.86 307.45,81.69 C308.07,82.07 308.75,82.26 309.48,82.26 C311.12,82.26 313,81.29 315,79.4 C316.65,77.84 318.32,75.93 321.73,71.72 L322.87,70.3 C323.84,69.11 324.23,68.63 324.68,68.14 C324.16,71.12 323.98,72.76 323.98,74.3 C323.98,77.2 324.76,79.08 326.4,80.14 C326.99,80.5 327.66,80.68 328.41,80.68 C331.36,80.68 335.48,77.88 340.68,72.35 C341.32,71.74 341.66,70.98 341.66,70.16 C341.66,68.58 340.39,67.14 338.99,67.14 C338.32,67.14 337.67,67.46 337.15,68.04 L337.15,68.04 zM310.65,75.83 C310.71,75.76 310.73,75.7 310.73,75.56 C311.64,72.89 313.45,69.75 315.48,67.32 C317.66,64.72 319.78,63.27 321.44,63.27 C321.51,63.27 321.58,63.28 321.64,63.28 C321.02,63.97 320.49,64.61 319.22,66.13 L316.86,68.98 C313.77,72.71 312.46,74.19 311.39,75.13 C310.96,75.52 310.8,75.66 310.65,75.83 L310.65,75.83 z"/>   <path fill="#000000" d="M0,24.61 L0,1.63 L5.85,1.63 L13.69,17.35 L21.25,1.63 L26.71,1.63 L26.71,24.61 L21.66,24.61 L21.66,6.13 L12.25,25.45 L2.39,6.13 L2.39,24.61 L0,24.61 L0,24.61 z"/>   <path fill="#000000" d="M34.52,19.97 L32.89,24.61 L31.1,24.61 L35.56,11.41 C36.07,9.91 37.22,9.09 38.83,9.09 C39.68,9.09 40.42,9.31 41.04,9.76 C41.66,10.19 42.12,10.81 42.41,11.62 L47.1,24.61 L42.95,24.61 L41.29,19.97 L34.52,19.97 L34.52,19.97 zM34.93,18.66 L40.87,18.66 L38.7,12.27 C38.44,11.6 38.24,11.41 37.83,11.41 C37.56,11.41 37.35,11.68 37.14,12.29 L34.93,18.66 L34.93,18.66 z"/>   <path fill="#000000" d="M50.22,24.33 L50.22,23.09 C50.79,23.21 51.41,23.32 52.14,23.42 C52.77,23.49 53.39,23.52 54.02,23.52 C56.82,23.52 58.16,22.78 58.16,21.22 C58.16,20.21 57.19,19.28 55.25,18.42 L53.84,17.79 C52.39,17.14 51.32,16.48 50.69,15.85 C50.09,15.24 49.79,14.53 49.79,13.71 C49.79,12.28 50.4,11.18 51.64,10.38 C52.89,9.58 54.61,9.19 56.95,9.19 C57.79,9.19 58.65,9.26 60.54,9.47 L60.54,10.74 C58.54,10.54 57.58,10.46 57.14,10.46 C55.37,10.46 54.18,10.86 53.7,11.6 C53.53,11.85 53.45,12.13 53.45,12.46 C53.45,13.27 54.31,14.07 56.04,14.88 L58.13,15.9 C59.76,16.69 60.83,17.38 61.36,17.99 C61.87,18.57 62.12,19.29 62.12,20.17 C62.12,21.61 61.47,22.74 60.18,23.54 C58.9,24.34 57.07,24.74 54.7,24.74 C53.42,24.74 51.94,24.61 50.22,24.33 L50.22,24.33 z"/>   <path fill="#000000" d="M67.93,19.97 L66.31,24.61 L64.51,24.61 L68.98,11.41 C69.48,9.91 70.64,9.09 72.24,9.09 C73.09,9.09 73.83,9.31 74.45,9.76 C75.08,10.19 75.53,10.81 75.83,11.62 L80.51,24.61 L76.37,24.61 L74.7,19.97 L67.93,19.97 L67.93,19.97 zM68.35,18.66 L74.28,18.66 L72.12,12.27 C71.85,11.6 71.65,11.41 71.24,11.41 C70.97,11.41 70.76,11.68 70.55,12.29 L68.35,18.66 L68.35,18.66 z"/>   <path fill="#000000" d="M87.26,23.3 L95.7,23.3 L95.7,24.61 L82.18,24.61 L89.66,10.84 L83.32,10.84 L83.32,9.54 L91.09,9.54 C92.2,9.54 92.92,9.63 93.26,9.81 C93.61,9.98 93.78,10.29 93.78,10.73 C93.78,11.06 93.71,11.33 93.53,11.62 L87.26,23.3 L87.26,23.3 zM83.14,1.17 L85.05,1.17 L88.89,5.7 L92.72,1.17 L94.64,1.17 L90.47,7.18 L87.3,7.18 L83.14,1.17 L83.14,1.17 z"/>   <path fill="#000000" d="M101.11,24.61 L99.36,24.61 L99.36,12.11 C99.36,11.03 99.58,10.27 100.01,9.81 C100.43,9.33 101.09,9.09 102.01,9.09 C103.47,9.09 104.77,9.93 105.93,11.62 C108.68,15.63 108,14.63 110.73,18.64 C110.78,18.69 110.88,18.73 110.97,18.73 C111.07,18.73 111.15,18.7 111.22,18.64 C111.26,18.59 111.28,18.47 111.28,18.3 L111.28,9.54 L113.03,9.54 L113.03,23.33 C113.03,24.02 112.93,24.49 112.74,24.74 C112.53,24.98 112.18,25.1 111.7,25.1 C111.01,25.1 110.58,24.86 110.1,24.18 L101.72,12.28 C101.62,12.14 101.53,12.08 101.43,12.08 C101.42,12.08 101.41,12.08 101.41,12.08 C101.17,12.08 101.11,12.15 101.11,12.49 L101.11,24.61 L101.11,24.61 z"/>   <path fill="#000000" d="M118.78,9.54 L122.84,9.54 L122.84,24.61 L118.78,24.61 L118.78,9.54 L118.78,9.54 zM120.15,7.18 L118.24,7.18 L122.59,1.17 L125.76,1.17 L120.15,7.18 L120.15,7.18 z"/>   <path fill="#000000" d="M140.67,24.33 L140.67,23.09 C141.24,23.21 141.85,23.32 142.59,23.42 C143.21,23.49 143.84,23.52 144.46,23.52 C147.27,23.52 148.61,22.78 148.61,21.22 C148.61,20.21 147.64,19.28 145.7,18.42 L144.29,17.79 C142.83,17.14 141.76,16.48 141.14,15.85 C140.54,15.24 140.24,14.53 140.24,13.71 C140.24,12.28 140.85,11.18 142.09,10.38 C143.34,9.58 145.06,9.19 147.4,9.19 C148.24,9.19 149.1,9.26 150.98,9.47 L150.98,10.74 C148.99,10.54 148.03,10.46 147.59,10.46 C145.82,10.46 144.63,10.86 144.14,11.6 C143.98,11.85 143.9,12.13 143.9,12.46 C143.9,13.27 144.76,14.07 146.48,14.88 L148.58,15.9 C150.21,16.69 151.28,17.38 151.8,17.99 C152.32,18.57 152.57,19.29 152.57,20.17 C152.57,21.61 151.92,22.74 150.63,23.54 C149.35,24.34 147.52,24.74 145.15,24.74 C143.87,24.74 142.38,24.61 140.67,24.33 L140.67,24.33 z"/>   <path fill="#000000" d="M159.28,24.61 L159.28,10.84 L155.38,10.84 L155.38,9.54 L167.21,9.54 L167.21,10.84 L163.32,10.84 L163.32,24.61 L159.28,24.61 L159.28,24.61 z"/>   <path fill="#000000" d="M175.31,9.54 L175.31,19.3 C175.31,21.07 176.09,22.31 177.53,22.82 C178.04,23 178.64,23.09 179.31,23.09 C180.67,23.09 181.63,22.75 182.2,22.06 C182.77,21.37 183.06,20.21 183.06,18.63 L183.06,9.54 L184.86,9.54 L184.86,19.67 C184.86,21.36 184.29,22.68 183.14,23.65 C182,24.62 180.44,25.1 178.46,25.1 C173.72,25.1 171.25,23.1 171.25,19.26 L171.25,9.54 L175.31,9.54 L175.31,9.54 z"/>   <path fill="#000000" d="M201.1,10.84 C200.08,10.74 200.03,10.73 199.77,10.72 C199.4,10.69 199.06,10.67 198.77,10.67 C196.76,10.67 195.26,11.22 194.28,12.33 C193.29,13.45 192.79,15.12 192.79,17.35 C192.79,21.36 194.92,23.3 199.31,23.3 L201.12,23.3 L201.1,10.84 L201.1,10.84 zM201.1,9.54 L201.12,0 L205.17,0 L205.17,24.61 L198.81,24.61 C195.75,24.61 193.3,23.9 191.45,22.48 C189.58,21.06 188.65,19.2 188.65,16.89 C188.65,14.56 189.5,12.72 191.22,11.38 C192.93,10.03 195.26,9.36 198.25,9.36 C198.75,9.36 199.37,9.4 201.1,9.54 L201.1,9.54 z"/>   <path fill="#000000" d="M210.54,5.24 C210.54,5.24 210.54,5.23 210.54,5.23 C210.54,4.7 210.78,4.24 211.25,3.85 C211.71,3.47 212.27,3.28 212.94,3.28 C213.58,3.28 214.13,3.47 214.58,3.85 C215.04,4.23 215.27,4.69 215.27,5.24 C215.27,6.34 214.25,7.18 212.94,7.18 C212.27,7.18 211.71,6.99 211.25,6.62 C210.78,6.24 210.54,5.78 210.54,5.24 L210.54,5.24 zM210.87,9.54 L214.94,9.54 L214.94,24.61 L210.87,24.61 L210.87,9.54 L210.87,9.54 z"/>   <path fill="#000000" d="M228.25,23.97 C229.71,23.97 230.9,23.34 231.79,22.1 C232.69,20.84 233.14,19.17 233.14,17.11 C233.14,15.03 232.69,13.37 231.8,12.11 C230.89,10.84 229.71,10.21 228.25,10.21 C226.79,10.21 225.6,10.84 224.7,12.11 C223.79,13.38 223.33,15.05 223.33,17.11 C223.33,19.16 223.79,20.83 224.69,22.09 C225.6,23.34 226.79,23.97 228.25,23.97 L228.25,23.97 zM228.79,25.1 C226.03,25.1 223.74,24.33 221.89,22.77 C220.04,21.2 219.11,19.24 219.11,16.89 C219.1,14.59 219.89,12.71 221.47,11.27 C223.05,9.81 225.12,9.09 227.68,9.09 C230.47,9.09 232.8,9.87 234.64,11.43 C236.5,12.99 237.41,14.93 237.41,17.29 C237.41,19.6 236.62,21.47 235.02,22.93 C233.43,24.38 231.35,25.1 228.79,25.1 L228.79,25.1 z"/>  </g> </svg>