<svg xmlns="http://www.w3.org/2000/svg" xml:space="preserve" shape-rendering="geometricPrecision" text-rendering="geometricPrecision" image-rendering="optimizeQuality" fill-rule="evenodd" clip-rule="evenodd" xmlns:xlink="http://www.w3.org/1999/xlink" viewBox="0 0 413.02 314.13">  <g id="Layer_1">   <metadata id="FutureCorpID_Layer"/>    <path fill="#00007D" d="M327.71,217.62 L333.04,217.62 L333.04,212.28 L327.71,212.28 L327.71,217.62 L327.71,217.62 z"/>   <path fill="#00007D" d="M182.27,78.92 C182.17,78.58 182.13,78.24 182.07,77.34 C181.88,74.39 181.2,73.19 179.3,72.45 C179.22,72.43 179.15,72.32 178.95,71.92 L178.35,70.94 L186.2,66.64 L191.52,64.21 L191.75,64.1 C193.15,63.41 193.64,63.52 193.83,64.53 C193.99,65.42 193.67,66.66 192.98,67.86 C192.74,68.27 192.41,68.56 191.52,69.15 L189.83,70.35 C188.7,71.1 188.33,71.46 188.19,71.96 C187.55,74.13 187.45,75.93 187.89,77.22 C188.33,78.48 189.79,78.5 191.33,77.27 C192.27,76.53 193.11,75.7 193.86,74.77 L206.17,59.67 C211.04,53.71 215.94,47.79 220.88,41.89 C226.16,35.6 231.49,29.36 236.86,23.16 L241.51,17.8 C244.6,14.23 245.94,12.67 247.46,10.86 C248.7,9.37 249.75,8.06 252.14,4.99 L255.03,1.27 C255.54,0.6 256.23,0.19 257.1,0 L256.05,1.77 C254.85,3.8 254.31,4.66 253.63,5.62 L249.71,11.21 C246.97,15.11 245.8,16.81 244.48,18.79 C243.69,19.97 243.05,21.02 241.62,23.47 L239.33,27.4 L228.99,43.38 C224.13,50.88 219.24,58.36 214.32,65.83 L211.3,70.42 C208.16,75.19 206.84,77.29 205.44,79.77 C202.32,85.28 199.99,90.11 198.22,94.72 C195.74,101.21 194.17,106.54 193.28,111.51 C192.16,117.8 191.45,124.7 191.05,133.41 C190.97,135.1 191.83,137.18 193.73,139.9 C198.02,146.01 199.7,153.13 199.22,163.04 C198.62,175.21 196.91,186.81 194.08,197.94 L188.39,220.35 C188.24,220.93 188.33,221.66 188.69,222.75 L192.22,233.41 C194.39,240.38 194.48,247.78 192.52,256.25 C191.89,258.96 191.49,261.34 190.73,266.87 L190,272.22 C189.17,277.54 188.3,282.85 187.4,288.15 C186.38,294.11 185.31,300.07 184.19,306.01 C183.76,308.3 183.19,310.56 182.48,312.77 C182.39,313.08 182.14,313.29 181.4,313.73 L180.76,314.13 L180.37,313.56 C179.91,312.93 179.77,312.65 179.77,312.33 L179.67,245.1 C179.65,230.84 179.53,224.64 179.13,217.54 C178.7,210.09 178.27,203.62 177.21,188.75 L174.46,150.32 C173.33,134.48 171.42,122.6 168.26,111.79 C167.48,109.12 166.14,106.31 164.06,102.93 C162.93,101.1 163.08,98.92 164.48,97.02 C166.48,94.3 166.39,92.05 164.1,87.46 L163.76,86.78 C160.67,80.59 157.91,75.25 151.49,63 L146.17,52.85 C141.68,44.29 137.22,35.72 132.78,27.14 C130.01,21.78 127.24,16.42 124.5,11.05 C124.42,10.9 124.4,10.75 124.42,10.37 L124.42,10.03 C124.59,9.95 124.77,9.86 124.94,9.78 C126.02,11.49 127.12,13.19 128.23,14.89 L135.04,25.3 C139.55,32.21 144.15,39.06 148.83,45.85 L159.43,61.21 L164.62,69.05 C167.66,73.44 170.76,77.8 173.92,82.11 C175.14,83.77 175.75,83.78 178.11,82.13 L178.24,82.04 L182.27,78.92 L182.27,78.92 z"/>   <path fill="#00007D" d="M66.91,252.38 C66.91,252.38 67.21,252.38 68.24,252.38 C69.27,252.37 69.57,252.37 69.57,252.38 C71.22,252.39 70.81,252.39 72.46,252.41 C74.92,252.44 76.03,252.44 77.6,252.38 C78.25,252.35 79.57,251.52 79.6,251.11 C79.7,249.98 79.73,249.2 79.74,247.23 L79.74,246.84 C79.75,245.42 78.94,244.55 77.64,244.55 C73.07,244.57 74.21,244.57 69.64,244.57 L62.99,244.58 C60.57,244.58 59.54,244.73 59,245.15 C58.53,245.51 58.44,245.93 58.46,247.59 L58.48,248.73 C58.5,249.85 58.49,250.34 58.46,250.5 C58.26,251.67 59.18,252.39 60.86,252.38 C62.05,252.38 63.24,252.37 64.44,252.37 L66.91,252.38 L66.91,252.38 zM79.74,238.87 L79.74,230.73 L58.43,230.8 L58.46,225.36 L68.04,225.38 C70.67,225.39 73.29,225.39 75.92,225.38 L81.98,225.37 C84.58,225.36 85.75,226.99 85.74,230.57 C85.71,237.25 85.71,235.58 85.72,242.27 C85.73,248.88 85.73,247.22 85.73,253.83 C85.74,256.06 83.96,257.74 81.6,257.74 C68.38,257.76 71.68,257.76 58.46,257.75 L57.77,257.73 C55.95,257.7 55.44,257.56 54.19,256.7 C52.81,255.77 52.15,254.36 52.15,252.38 C52.15,247.35 52.17,245.89 52.29,242.95 C52.46,240.38 54.07,238.88 56.67,238.88 L79.74,238.87 L79.74,238.87 z"/>   <path fill="#00007D" d="M27.22,230.73 L15.45,230.73 C11.79,230.72 12.7,230.73 9.04,230.69 C7.14,230.67 6.58,231.18 6.62,232.89 C6.72,236.61 6.73,239.55 6.67,246.36 L6.63,250.7 C6.62,251.94 7.13,252.38 8.6,252.38 L14.19,252.41 C19.98,252.43 22.49,252.42 25.37,252.38 C26.73,252.35 27.23,251.87 27.23,250.57 L27.23,244.77 C27.23,241.53 27.22,238.29 27.21,235.06 C27.21,234.58 27.22,234.15 27.25,233.22 C27.29,231.8 27.28,231.26 27.22,230.73 L27.22,230.73 zM0,264.21 L0,227.71 C0,226.03 0.79,225.31 2.58,225.36 L26.96,225.36 C31.88,225.36 33.38,226.61 33.39,230.73 L33.42,252.38 C33.43,256.1 31.86,257.73 28.27,257.73 C22.02,257.74 15.78,257.73 9.54,257.71 C7.7,257.71 7.29,257.76 6.99,258.06 C6.68,258.36 6.63,258.74 6.64,260.53 L6.65,262.34 C6.67,264.05 6.35,264.38 4.9,264.21 L0,264.21 L0,264.21 z"/>   <path fill="#00007D" d="M159.32,238.87 C159.29,238.23 159.29,237.73 159.32,236.43 C159.36,234.7 159.36,233.73 159.32,232.4 C159.32,231.65 159.29,231.4 159.16,231.17 C158.99,230.87 158.63,230.73 158.02,230.73 C156.01,230.69 154.35,230.69 150.55,230.71 C147.84,230.73 148.52,230.72 145.81,230.73 C145.53,230.69 145.17,230.69 143.91,230.71 C142.6,230.74 141.9,230.74 141.07,230.72 L140.17,230.7 C138.58,230.67 138.39,230.81 138.05,232.19 C137.98,232.45 137.98,232.79 138.02,233.93 C138.06,235.08 138.06,235.67 138.05,236.36 C138.05,237.61 138.15,238.18 138.45,238.49 C138.72,238.78 139.11,238.86 140.18,238.87 C145.66,238.87 151.13,238.87 156.61,238.87 L157.31,238.89 C158.27,238.95 158.77,238.94 159.32,238.87 L159.32,238.87 zM164.63,243.28 C160.79,243.26 161.75,243.26 157.9,243.25 C155.07,243.24 152.24,243.23 149.41,243.23 L140.44,243.22 C139.34,243.22 138.68,243.51 138.35,244.12 C138.11,244.56 138.05,245.02 138.05,246.27 C138.05,248.55 138.03,249.33 137.98,250.38 C137.87,251.81 138.58,252.39 140.39,252.39 C144.59,252.38 148.79,252.37 152.98,252.37 L160.37,252.37 C162.69,252.37 163.54,252.58 164.02,253.23 C164.45,253.83 164.54,254.54 164.54,257.55 L164.54,257.75 C164.28,257.79 163.05,257.8 160.2,257.8 L147.5,257.77 C144.35,257.77 141.2,257.76 138.05,257.74 C134.26,257.72 131.84,255.63 131.84,252.38 C131.85,245.26 131.85,238.14 131.84,231.02 C131.83,226.79 133.39,225.36 138.05,225.36 L159.32,225.35 C161.62,225.34 162.52,225.8 163.93,227.68 C164.32,228.19 164.53,229.23 164.54,230.7 L164.57,234.07 C164.59,237.14 164.61,240.21 164.63,243.28 L164.63,243.28 z"/>   <path fill="#00007D" d="M272.6,244.61 C272.63,244.91 272.63,245.14 272.6,245.6 C272.58,245.96 272.58,246.12 272.6,246.32 C272.62,246.6 272.62,247.06 272.6,248.3 C272.59,249.26 272.58,249.59 272.6,249.82 C272.55,251.12 272.72,251.8 273.17,252.12 C273.53,252.38 273.94,252.44 275.33,252.4 L276.39,252.38 C276.64,252.35 277.06,252.35 278.12,252.36 L278.96,252.37 C281.85,252.4 281.13,252.39 284.02,252.43 C288.15,252.48 289.89,252.47 292.25,252.38 C293.23,252.38 293.97,251.92 293.97,251.31 L293.97,244.61 C293.97,243.78 293.46,243.22 292.72,243.22 C285.88,243.22 287.59,243.22 280.75,243.22 L274.69,243.23 C273.89,243.23 273.56,243.27 273.26,243.4 C272.81,243.6 272.6,243.99 272.6,244.61 L272.6,244.61 zM293.97,230.73 L280.56,230.76 C277.88,230.76 276.71,230.75 275.46,230.73 C273.07,230.69 272.49,229.65 272.49,225.36 L279.42,225.36 C287.68,225.36 285.61,225.36 293.87,225.37 C297.19,225.37 300.19,228.22 300.14,231.32 C300.03,238.46 299.9,245.59 299.76,252.73 C299.71,255.21 297.32,257.74 295.03,257.73 L272.79,257.67 C268.9,257.66 267.13,256.09 266.86,252.38 L266.87,251.51 C266.92,247.31 266.91,245.17 266.86,243.22 C266.94,240.07 268.77,238.82 273.32,238.84 L290.83,238.9 C292.85,238.9 293.27,238.84 293.61,238.49 C293.94,238.13 294,237.67 293.98,235.52 L293.97,234.23 C293.99,233.7 293.99,233.26 293.98,232.14 L293.97,230.73 L293.97,230.73 z"/>   <path fill="#00007D" d="M366.18,253.24 C366.66,253.24 367.04,252.85 367.04,252.37 L367.04,231.25 C367.04,230.36 366.75,230.11 365.73,230.11 C363.43,230.05 361.31,230.04 356.31,230.08 C351.36,230.12 349.25,230.11 346.94,230.05 C346.32,230.03 345.94,230.23 345.77,230.66 C345.66,230.95 345.64,231.27 345.69,232.08 L345.71,232.76 L345.65,251.52 C345.65,252.91 345.93,253.24 347.12,253.24 L366.18,253.24 L366.18,253.24 zM340.03,230.73 C340.1,227.69 342.38,225.53 345.71,225.36 L347.72,225.36 C349,225.36 350.29,225.36 351.58,225.36 L358.31,225.36 C363.3,225.36 362.05,225.36 367.04,225.36 L367.17,225.36 C369.69,225.36 369.99,225.45 371.42,226.59 C372.53,227.47 372.88,228.47 372.88,230.73 L372.88,238.19 C372.88,246.3 372.88,244.27 372.88,252.38 C372.88,255.58 370.52,257.75 367.04,257.75 C362.02,257.75 357,257.76 351.98,257.77 L345.71,257.78 C342.62,257.78 340.09,255.35 340.08,252.38 L340.03,230.73 L340.03,230.73 z"/>   <path fill="#00007D" d="M234.26,230.73 L222.48,230.74 C221.62,230.74 220.92,230.73 219.38,230.7 C216.98,230.66 215.91,230.66 214.55,230.73 C214.06,230.76 213.38,231.41 213.35,231.88 L213.35,231.96 C213.19,234.72 213.19,235.64 213.35,237.41 C213.37,237.58 213.52,237.96 213.68,238.23 C213.93,238.65 214.21,238.87 214.5,238.87 L215.43,238.88 C225.37,238.97 230.1,238.97 234.26,238.87 C235.94,238.83 236.7,238.87 237.41,239.05 C238.3,239.27 238.98,239.71 239.64,240.49 C239.9,240.82 240.02,241.54 240.06,243.01 L240.06,243.22 C240.09,244.32 240.09,245.22 240.1,247.2 C240.11,249.72 240.13,250.85 240.19,252.26 C240.33,255.36 238.22,257.64 235.16,257.69 C229.97,257.78 225.44,257.76 215.05,257.61 L213.97,257.6 C212.25,257.57 211.42,256.72 211.42,254.98 C211.42,254.54 211.57,253.91 211.78,253.48 C212.13,252.75 212.66,252.38 213.35,252.38 C215.58,252.34 217.51,252.34 221.92,252.38 C226.61,252.43 228.65,252.43 231.03,252.38 L231.17,252.37 C232.56,252.34 233.02,252.26 233.44,251.96 C234.01,251.56 234.26,250.77 234.26,249.4 C234.2,249.2 234.2,248.18 234.25,245.99 L234.26,245.54 C234.26,244.48 233.96,243.83 233.3,243.52 C232.83,243.29 232.29,243.24 230.96,243.27 L230.49,243.27 C221.17,243.24 217.12,243.19 212.46,243.06 C209.11,242.96 206.84,240.56 206.82,237.1 C206.81,235.14 206.87,233.24 207.02,230.56 C206.88,226.99 209.04,225.36 213.97,225.31 C215.9,225.47 217.59,225.51 221.49,225.47 L226.23,225.42 C228.21,225.41 229.1,225.39 230.25,225.36 C231.92,225.36 232.53,225.4 233.1,225.56 C233.89,225.77 234.26,226.21 234.26,226.92 L234.26,230.73 L234.26,230.73 z"/>   <path fill="#00007D" d="M111.5,230.74 C109.21,230.74 109.78,230.74 107.5,230.76 C104.12,230.79 102.66,230.78 101.02,230.73 C99.41,230.68 98.69,231.78 98.69,234.28 L98.72,257.75 L92.26,257.75 L92.26,253.97 C92.25,249.69 92.25,250.76 92.26,246.48 C92.26,237.22 92.26,239.54 92.26,230.28 L92.25,227.5 C92.25,225.99 92.83,225.36 94.29,225.28 C102.63,225.3 110.98,225.33 119.33,225.37 C121.68,225.39 123.08,225.67 124.06,226.32 C125.29,227.14 125.81,228.57 125.69,230.73 C125.61,232.05 125.59,233.45 125.62,236.72 L125.64,239.21 C125.68,243.19 125.69,247.16 125.69,251.14 L125.69,257.75 L119.53,257.75 L119.58,245.53 C119.61,239.61 119.59,236.86 119.53,233.65 C119.51,232.67 119.44,232.16 119.25,231.72 C118.98,231.06 118.47,230.73 117.7,230.73 L111.5,230.74 L111.5,230.74 z"/>   <path fill="#00007D" d="M412.99,257.8 C412.85,257.83 412.36,257.83 411.47,257.81 L411.37,257.81 C409.08,257.75 408.2,257.57 407.73,257.06 C407.31,256.59 407.24,256.05 407.31,253.82 C407.34,252.77 407.35,252.23 407.35,251.58 L407.36,231.9 C407.36,230.44 406.95,230.08 405.26,230.09 L399.67,230.09 C393.48,230.1 395.03,230.11 388.84,230.08 L387.73,230.08 C385.54,230.07 385.5,230.12 385.45,232.79 C385.39,236.44 385.38,239.63 385.41,246.99 C385.43,251.46 385.42,250.34 385.44,254.81 L385.45,255.4 C385.47,255.72 385.47,255.86 385.45,256.1 L385.46,256.71 C385.47,257.83 385.47,257.83 384.76,257.81 L384.31,257.8 L382.69,257.83 C380.79,257.87 380.39,257.81 380.08,257.43 C379.77,257.05 379.72,256.55 379.77,254.23 L379.79,253.03 L379.79,243.09 C379.79,235.67 379.79,237.53 379.79,230.11 C379.81,229.71 379.81,229.33 379.8,228.23 C379.78,226.9 379.77,226.2 379.79,225.36 L397.94,225.45 C401.83,225.47 403.53,225.45 405.63,225.36 C409.15,225.36 410.39,225.5 411.35,226.02 C412.49,226.63 412.96,227.81 412.96,230.11 L413.02,255.24 C413.02,256.91 413.01,257.66 412.99,257.8 L412.99,257.8 z"/>   <path fill="#00007D" d="M261.45,257.61 C258.57,257.65 259.29,257.64 256.41,257.68 C254.54,257.7 252.67,257.72 250.79,257.73 C249.08,257.74 248.46,257.6 247.86,257.06 C247.03,256.3 246.63,254.77 246.58,252.24 C246.63,242.71 246.62,245.09 246.64,235.56 L246.66,218.11 C246.67,216.71 246.64,215.87 246.57,215.34 C248.37,215.34 249.32,215.36 250.36,215.4 L250.45,215.4 C251.34,215.44 251.75,215.52 252.11,215.71 C252.68,216.01 252.87,216.56 252.7,217.38 C252.7,218.1 252.68,218.7 252.64,220.01 C252.56,222.27 252.57,223.21 252.67,224.35 C252.91,225.09 253.84,225.36 256.25,225.36 C260.35,225.36 260.78,225.93 260.29,230.73 L256.39,230.73 C254.28,230.74 254.81,230.74 252.7,230.73 C252.71,232.47 252.72,234.2 252.73,235.93 L252.76,242.61 C252.79,247.35 252.78,246.17 252.81,250.91 L252.89,251.26 C253.17,252.38 253.17,252.38 255.9,252.38 C256.15,252.38 256.38,252.37 256.91,252.35 C258.67,252.27 259.38,252.35 260.03,252.69 C260.74,253.06 261.14,253.58 261.33,254.34 C261.47,254.89 261.5,255.43 261.46,256.95 L261.45,257.61 L261.45,257.61 z"/>   <path fill="#00007D" d="M39.64,257.75 L45.58,257.75 L45.58,212.38 L39.64,212.38 L39.64,257.75 L39.64,257.75 z"/>   <path fill="#00007D" d="M327.82,257.75 L333.42,257.75 L333.42,225.36 L327.82,225.36 L327.82,257.75 L327.82,257.75 z"/>   <path fill="#00007D" d="M321.03,257.67 C318.15,257.71 318.87,257.7 316,257.73 L310.38,257.78 C308.67,257.8 308.04,257.65 307.45,257.11 C306.62,256.35 306.21,254.82 306.17,252.29 L306.25,218.16 C306.25,216.77 306.22,215.92 306.15,215.4 C307.93,215.4 308.9,215.41 309.94,215.46 L310.03,215.46 C310.92,215.5 311.34,215.57 311.7,215.76 C312.26,216.06 312.45,216.61 312.28,217.44 C312.28,218.15 312.27,218.76 312.22,220.07 C312.14,222.32 312.15,223.26 312.26,224.41 C312.49,225.15 313.42,225.41 315.83,225.41 C319.94,225.41 320.37,225.98 319.87,230.79 C318.58,230.79 317.3,230.79 316.02,230.79 C314.77,230.79 313.53,230.79 312.28,230.79 C312.3,233.73 312.29,233 312.31,235.94 L312.39,250.96 L312.48,251.31 C312.75,252.43 312.75,252.43 315.49,252.43 C315.74,252.43 315.96,252.42 316.49,252.4 C318.25,252.32 318.97,252.4 319.61,252.74 C320.32,253.12 320.72,253.63 320.91,254.39 C321.05,254.95 321.08,255.48 321.05,257 L321.03,257.67 L321.03,257.67 z"/>  </g> </svg>