<svg xmlns="http://www.w3.org/2000/svg" xml:space="preserve" shape-rendering="geometricPrecision" text-rendering="geometricPrecision" image-rendering="optimizeQuality" fill-rule="evenodd" clip-rule="evenodd" xmlns:xlink="http://www.w3.org/1999/xlink" viewBox="0 0 1062.99 1143.99">  <g id="Layer_1">   <metadata id="FutureCorpID_Layer"/>    <path fill="#000000" d="M1008.28,872.55 C1006.46,870.46 1004.79,869.5 1003.02,869.5 C1001.14,869.5 1000.01,870.14 995.77,873.62 L983.88,883.37 C982.58,884.49 981.5,885.39 979.33,887.17 C976.7,889.31 975.82,890.08 974.98,890.96 C973.85,892.13 973.25,893.13 973.06,894.19 C973.53,895.57 974.66,896.89 979.72,901.95 L996.91,920.25 L997.05,920.39 C998.55,921.9 999.07,922.38 999.66,922.81 C1000.45,923.38 1001.13,923.63 1001.91,923.63 C1003.33,923.63 1004.23,922.99 1006.62,920.25 L1024.62,902.47 C1028.94,898.2 1029.92,896.77 1029.92,894.74 C1029.92,892.88 1028.72,891.29 1024.65,887.81 L1008.28,872.55 L1008.28,872.55 zM916.62,901.37 C905.98,902.01 896.31,900.78 886.27,897.51 C879.15,895.18 873.36,892.6 859.4,885.51 C853.05,882.29 850.16,880.85 846.73,879.21 C808.78,862.01 788.69,837.07 788.21,806.54 C788.81,788.03 795.03,769.11 807.06,749.13 C810.46,743.06 824.09,739.42 843.4,739.42 C845.65,739.42 847.54,739.49 851.57,739.72 C855.03,739.92 856.46,739.97 858.1,739.97 C859.23,740.1 860.74,740.18 865.89,740.37 C887.22,741.17 900.08,742.43 912.01,744.88 C932.17,749.01 943.11,755.92 944.64,765.49 L944.64,767.44 C944.64,769.17 944.35,770.7 943.36,774.15 C942.41,777.47 942.14,778.88 942.14,780.47 C944.95,780.2 953.16,772.57 960.97,762.96 C969.98,751.88 975.06,742.45 974.56,737.76 C973.52,727.96 916.61,716.12 870.59,716.12 C863.16,716.12 855.4,716.48 846.73,717.23 C845.5,717.23 843.1,718.68 834.68,724.51 C822.98,732.61 817.24,736.17 811.51,738.86 C804.8,741.77 796.51,744.33 780.19,748.54 C772.68,750.48 770.91,751 770.74,751.34 C759.18,764.22 748.97,792.17 747.64,814.59 C745.78,845.92 767.18,877.05 807.18,901.21 C831.92,916.16 853.13,923.08 874.19,923.08 C894.65,923.08 914.61,916.76 935.98,903.52 L960.44,888.36 L961.01,883.92 L956.08,886.75 C946.53,892.24 942.48,894.36 937.54,896.42 C930.48,899.35 923.79,900.94 916.62,901.37 L916.62,901.37 zM704.79,872.55 C702.96,870.46 701.3,869.5 699.52,869.5 C697.66,869.5 696.55,870.13 692.34,873.58 L680.39,883.37 C679.09,884.49 678,885.4 675.83,887.17 C673.21,889.31 672.33,890.08 671.48,890.96 C670.35,892.13 669.76,893.13 669.56,894.19 C670.03,895.57 671.19,896.92 676.23,901.95 L693.42,920.25 L693.64,920.47 C695.11,921.94 695.61,922.4 696.2,922.83 C696.97,923.39 697.64,923.63 698.41,923.63 C699.84,923.63 700.74,922.99 703.13,920.25 L721.12,902.47 C725.45,898.19 726.42,896.77 726.42,894.74 C726.42,892.88 725.22,891.3 721.16,887.81 L704.79,872.55 L704.79,872.55 zM399.06,923.08 L434.84,906.12 L434.84,814.03 C434.84,808.68 435.1,807.65 436.5,807.65 C437.99,807.65 439.24,808.53 443.74,812.73 L444.54,813.48 L513.82,883.09 C527.7,897.04 533.58,902.45 540.54,907.68 C550.5,915.17 559.66,919.03 569.08,919.71 C569.93,919.71 570.31,919.83 570.74,920.25 C580.75,920.02 595.78,915.15 613.18,906.5 C625.01,900.61 637.64,892.86 637.3,891.69 C637.3,891.23 636.8,891.13 634.53,891.13 C632.48,891.13 629.95,891.57 622.57,893.22 C610.62,895.88 605.27,896.63 600.42,896.34 C588.38,895.6 568.54,882.77 545.23,860.62 L468.95,784.35 C509.88,757.29 537.36,735.2 562.14,709.47 C545.73,710.7 530.2,715.02 521.36,720.82 C511.48,727.3 504.77,733.59 491.33,749.01 C481.86,759.87 477.37,764.53 471.45,769.66 C459.38,780.88 454,784.67 442.85,789.84 C438.38,791.91 436.1,793.04 433.17,794.61 L433.17,714.45 L382.14,713.96 C378.11,713.92 374.25,714.93 369.65,717.23 L344.7,732.76 L395.17,732.21 L399.06,923.08 L399.06,923.08 zM326.66,872.55 C324.84,870.46 323.17,869.5 321.39,869.5 C319.51,869.5 318.39,870.13 314.15,873.62 L302.26,883.37 C300.96,884.49 299.87,885.41 297.69,887.18 C295.07,889.32 294.19,890.08 293.34,890.96 C292.22,892.14 291.63,893.13 291.44,894.19 C291.89,895.57 293.01,896.87 298.1,901.95 L315.29,920.25 L315.41,920.37 C316.92,921.89 317.43,922.37 318.03,922.81 C318.82,923.38 319.5,923.63 320.28,923.63 C321.71,923.63 322.61,922.99 324.99,920.25 L342.99,902.48 C347.32,898.2 348.3,896.78 348.3,894.74 C348.3,892.88 347.09,891.29 343.02,887.81 L326.66,872.55 L326.66,872.55 zM104.77,737.76 C110.25,736.19 115.18,735.53 121.42,735.53 C136.79,735.53 151.45,738.57 162.92,744.13 C177.16,751.04 186.25,761.6 189.65,775.2 C192.65,788.72 167.76,812.15 137.78,824.01 C136.64,824.41 135.5,824.73 132.65,825.45 C124.26,827.58 121.48,829 120.86,831.5 C120.5,833.97 137.7,855.19 154.14,872.55 C158.12,877.17 161.21,880.54 167.87,887.53 C174.54,894.51 177.63,897.88 181.61,902.5 C195.24,917.53 204.93,923.63 215.16,923.63 C223.06,923.63 229.45,921.36 247.97,911.97 L259.54,906.12 L278.12,897.52 L275.91,893.63 C266.87,899.11 259.08,901.94 251.5,902.5 C241.91,901.95 232.77,896.54 222.93,885.59 C192.16,854.43 177.29,837.98 162.74,819.02 L172.76,814.34 C194.44,804.21 203.28,799.23 211.34,792.59 C223.24,782.79 228.19,772.01 226.6,759.38 C224.52,742.98 213.39,729.82 194.19,721.08 C181.1,715.12 163.55,711.3 150.81,711.65 C141.79,711.89 135.04,712.39 120.74,713.9 C106.43,715.4 99.66,715.9 90.62,716.12 L62.9,716.12 C51.75,720.24 40.27,727 27.12,737.2 L66.22,736.64 L67.89,923.63 L104.21,910.55 L104.77,737.76 L104.77,737.76 zM990.13,1004.28 L990.42,1001.78 C990.7,998.51 991.06,997.64 992.73,996.18 C995.94,995.43 999.1,995.79 1004.83,997.58 C1009.35,999.08 1011.94,1000.99 1013.94,1004.28 L990.13,1004.28 L990.13,1004.28 zM982.72,1006.38 L982.44,1009.66 L982.32,1011.39 C981.87,1016.41 981.87,1020.05 982.32,1022.8 C983.74,1032.8 988.45,1036.96 1001.03,1039.31 C1002.33,1039.52 1003.63,1039.69 1004.93,1039.82 C1009.38,1037.35 1013.9,1034.4 1015.84,1032.7 L1004.73,1032.81 C1004.03,1032.74 1003.34,1032.67 1002.63,1032.61 C994.26,1031.37 990.58,1026.98 989.41,1016.8 C989.04,1013.59 989.18,1010.03 989.82,1006.38 C995.34,1006.17 1000.61,1006.1 1005.64,1006.18 L1019.25,1006.72 C1021.2,1006.8 1021.76,1006.55 1022.25,1005.38 L1021.94,1004.48 L1021.54,1002.98 C1019.17,995.95 1014.8,993.01 1003.94,991.18 C1002.95,990.99 1001.91,990.85 1000.83,990.77 C998.76,991.69 996.79,992.65 994.92,993.65 C989.73,996.41 987.43,998.09 983.01,1002.28 C980.95,1004.25 980.33,1004.96 979.32,1006.58 L982.72,1006.38 L982.72,1006.38 zM1004.53,986.07 L1022.05,975.66 L1008.44,975.66 L1000.23,986.07 L1004.53,986.07 L1004.53,986.07 zM918.15,969.16 C922.59,969.16 924.96,969.51 926.17,970.36 C927.61,971.3 928.48,972.77 928.48,974.25 L928.48,975.73 L928.58,978.92 C928.68,981.63 928.77,984.29 928.85,986.89 C929.37,1002.04 929.46,1015.03 929.14,1029.1 C929.06,1032.67 928.97,1036.24 928.87,1039.82 L948.29,1039.82 L948.69,1038.21 L947.99,1038.31 L943.89,1038.31 C935.51,1038.31 933.55,1035.83 936.04,1028.39 L937.18,1025 L937.28,1024.6 L940.89,1018 C942.98,1014.66 944.42,1012.67 945.79,1011.19 L946.29,1010.59 L947.29,1009.68 L945.58,1014.39 C945.55,1014.44 945.52,1014.54 945.49,1014.69 L945.35,1015.06 C943.26,1020.55 943.26,1020.67 945.69,1025.9 C946.12,1026.9 946.86,1028.11 947.89,1029.51 C948.34,1030.04 948.84,1030.57 949.39,1031.1 L951.59,1033.3 L954.3,1036.21 L959.1,1041.63 L965.51,1043.53 C965.56,1043.53 965.86,1043.63 966.4,1043.83 C969.79,1044.93 973.22,1046.43 976.72,1048.33 L974.41,1046.44 L965.6,1038.71 L956.1,1029 C955.28,1028.1 954.51,1027.2 953.79,1026.31 C946.32,1016.53 946.52,1008.57 954.38,1002.36 L962.71,995.78 C963.29,995.28 963.62,994.78 963.7,994.28 C963.91,993.25 963.08,992.27 962,992.27 L947.58,992.27 L946.89,993.47 L947.89,993.47 C950.97,993.38 952.31,993.45 953.49,993.77 C954.98,994.17 955.7,995.57 955.19,997.08 C954.99,997.78 954.59,998.38 953.99,998.88 L953.49,999.37 L952.14,1000.59 L950.89,1001.68 C948.26,1004.21 945.41,1007.81 942.18,1012.69 C940.35,1015.66 938.77,1018.64 936.97,1022.5 L936.08,1024.4 L935.48,1025.8 L935.18,1000.28 L935.35,972.14 C935.37,968.24 934.87,967.76 930.77,967.78 L917.35,967.85 L916.44,969.25 C917.01,969.17 917.58,969.14 918.15,969.16 L918.15,969.16 zM874.83,1013.69 C875.53,1014.17 876.23,1014.6 876.94,1014.99 C879.39,1016.39 881.89,1017.3 884.43,1017.72 L892.63,1019.07 C901.36,1020.51 905.7,1024.58 903.95,1029.7 C902.56,1033.79 900.98,1034.51 894.04,1034.2 C892.39,1034.19 890.6,1034.01 888.65,1033.67 C877.75,1031.75 874.74,1027.89 874.74,1015.89 C874.72,1015.16 874.75,1014.43 874.83,1013.69 L874.83,1013.69 zM873.82,1011.69 C873.81,1014.93 873.84,1017.86 873.92,1020.49 L874.03,1023.89 L874.53,1033.8 L874.74,1035.8 C877.44,1037.69 880.2,1038.74 884.44,1039.51 C887.82,1040.13 891.26,1040.23 894.75,1039.82 C900.49,1035.41 906.38,1030.48 908.96,1027.91 C910.24,1022.59 907.01,1017.24 900.85,1014.5 C899.97,1014.17 899.03,1013.91 898.04,1013.71 L884.34,1010.89 C882.62,1010.6 880.95,1009.67 879.33,1008.09 C875.78,1004.63 875.99,1000.43 879.85,997.71 C881.64,996.45 884.56,996.14 888.64,996.76 C902,998.81 905.17,1001.13 904.65,1008.49 C904.67,1008.87 904.64,1009.21 904.55,1009.49 L906.25,1009.59 C905.84,1004.25 905.66,998.81 905.73,993.27 C905.76,990.85 905.84,988.39 905.96,985.87 L903.65,985.97 L903.96,993.58 C901.52,992.86 898.99,992.29 896.35,991.86 C892.69,991.27 888.99,991.07 885.24,991.27 C884.31,992.01 883.37,992.74 882.43,993.47 C879,996.36 875.77,999.39 872.73,1002.58 C872.46,1003.5 872.42,1004.75 872.61,1006.32 C872.8,1007.9 873.3,1010.13 873.82,1011.69 L873.82,1011.69 zM825.4,1004.28 L825.69,1001.78 C825.97,998.5 826.33,997.63 827.99,996.18 C831.21,995.43 834.36,995.79 840.1,997.58 C844.62,999.08 847.21,1000.99 849.2,1004.28 L825.4,1004.28 L825.4,1004.28 zM817.98,1006.38 L817.89,1007.79 L817.57,1011.39 C817.13,1016.44 817.13,1020.07 817.58,1022.8 C819.01,1032.8 823.72,1036.96 836.3,1039.31 C837.6,1039.52 838.9,1039.69 840.2,1039.82 C844.66,1037.35 849.18,1034.4 851.11,1032.7 L840,1032.81 C839.3,1032.74 838.6,1032.67 837.9,1032.61 C829.52,1031.37 825.86,1026.97 824.72,1016.79 C824.33,1013.32 824.45,1009.85 825.09,1006.38 C830.61,1006.17 835.88,1006.1 840.9,1006.18 L854.52,1006.72 C856.47,1006.8 857.03,1006.55 857.52,1005.38 L857.21,1004.48 L856.81,1002.98 C854.44,995.95 850.06,993.01 839.2,991.18 C838.21,990.99 837.18,990.85 836.1,990.77 C834.03,991.69 832.06,992.65 830.19,993.65 C825,996.41 822.69,998.09 818.28,1002.28 C816.21,1004.25 815.6,1004.96 814.58,1006.58 L817.98,1006.38 L817.98,1006.38 zM758.29,971.9 L756.83,972.86 L756.23,973.16 L753.83,974.96 L752.73,975.66 C751.9,976.35 751.06,977.07 750.22,977.84 C740.9,986.37 739.96,990.19 741.79,1012.29 C743.12,1028.28 746.61,1033.01 761.33,1038.74 C772.8,1043.2 780.26,1041.69 795.55,1031.78 L797.37,1030.6 L796.97,1029.8 C791.42,1033.4 785.56,1034.8 777.65,1034.43 C771.75,1034.15 767.15,1033.17 763.84,1031.51 C751.46,1025.67 748.71,1021.38 747.85,1006.48 C747.72,1004.22 747.75,1001.75 747.94,999.08 C748.64,989.23 749.46,984.04 750.73,981.36 C753.14,975.95 754.75,974.86 761.74,973.86 C762.58,973.74 763.31,973.68 763.94,973.66 C792.88,974.37 795.2,975.77 797.27,993.67 C797.39,994.66 797.45,995.7 797.47,996.78 L798.17,996.78 C798.29,994.18 798.35,991.57 798.38,988.97 C798.46,981.14 798.25,972.79 797.77,963.96 L797.57,962.45 L797.47,960.55 L794.57,962.55 L795.97,971.16 L791.66,970.26 L789.66,970.06 L785.56,969.76 L778.15,968.96 L763.34,969.06 C762.41,969.21 761.42,969.72 759.64,970.96 L758.29,971.9 L758.29,971.9 zM766.54,963.45 L778.45,963.45 L786.56,953.85 L782.16,953.85 L773.95,959.75 L766.95,953.35 L762.34,953.64 L766.54,963.45 L766.54,963.45 zM658.16,996.08 C658.86,993.79 659.44,993.57 664.06,993.88 L675.77,993.95 C678.74,993.97 680.14,994.69 680.87,996.58 L681.04,1006.97 C681.15,1013.96 681.15,1013.96 679.74,1017.87 L678.83,1020.41 C675.98,1028.3 674.97,1030.2 671.97,1033.3 C671.19,1033.29 670.45,1033.22 669.77,1033.11 C668.33,1032.81 667,1032.4 665.76,1031.9 C660.76,1029.71 659.17,1027.51 657.92,1021.09 C657.07,1016.73 656.93,1009.14 657.56,1001.28 C657.76,999.55 657.96,997.81 658.16,996.08 L658.16,996.08 zM640.43,993.58 L643.74,993.58 C647.25,993.47 648.25,993.87 649.26,995.78 C650.1,997.3 650.36,997.95 650.26,998.37 C650.05,1001.28 649.96,1004.18 649.97,1007.09 C650.05,1031.48 652.71,1036.23 668.46,1040.13 C669.26,1040.3 670.06,1040.46 670.87,1040.62 C671.87,1039.33 672.66,1038.09 673.26,1036.91 L673.77,1036.01 L675.08,1033.51 C677.97,1027.25 679.76,1023.13 681.18,1019.4 L681.48,1058.74 C684.35,1057.34 687.5,1056.26 689.08,1056.14 L687.77,1035.42 C685.46,998.84 686.09,993.88 693.08,993.77 C693.57,993.79 694,993.86 694.39,993.98 L694.88,992.27 L686.87,992.48 L640.82,992.27 L640.13,993.67 L640.43,993.58 L640.43,993.58 zM581.28,993.68 C589.16,993.78 589.81,994.18 590.14,999.08 L590.5,1004.38 C590.82,1012.8 590.78,1021.6 590.39,1030.2 C590.25,1033.41 590.05,1036.61 589.81,1039.82 L605.81,1039.82 L606.71,1038.11 C605.9,1038.33 605.03,1038.4 604.11,1038.31 C597.46,1037.91 596.7,1036.21 597.02,1022.4 L597.11,1018.8 L597.11,1018 L597.91,1012.29 C599.89,1005.02 601.91,1000.89 605.11,997.58 C607.59,996.34 609.57,996.76 614.52,999.58 C618.19,1001.82 619.54,1004.2 620.72,1010.48 L621.23,1017.49 C621.21,1019.17 621.14,1020.81 621.01,1022.4 L620.03,1035.31 L619.93,1037.11 L619.52,1041.93 L622.01,1038.39 L622.13,1038.21 L624.03,1034.91 L624.23,1034.51 C625.22,1033.22 626.43,1031.85 627.13,1031.21 L627.33,1027.8 C629.35,1002.62 625.99,994.74 611.82,991.4 L608.33,990.58 C607.71,990.56 606.91,990.6 605.91,990.67 C604.25,991.85 604.06,992.17 602.21,996.78 C602.01,997.24 601.91,997.51 601.91,997.58 L597.5,1007.99 L597.91,995.87 C597.86,995.48 597.76,995.08 597.61,994.68 C597.07,993.47 596.14,992.67 594.81,992.27 L581.17,992.27 L580.57,993.67 L581.28,993.68 L581.28,993.68 zM536.36,1013.09 C535.16,998.81 535.59,994.89 538.45,993.67 L554.87,993.58 L555.67,993.67 C560.62,993.98 560.97,994.87 560.63,1006.08 L560.38,1014.29 C560.23,1015.68 559.82,1017.41 559.18,1019.5 L556.15,1026.49 C552.81,1034.22 550.17,1035.26 543.16,1031.62 C539.56,1029.74 537.82,1027.16 536.85,1022.2 L536.36,1013.09 L536.36,1013.09 zM519.73,993.77 L521.63,993.66 C524.64,993.47 525.94,993.87 527.55,995.48 C529.93,997.86 529.96,998.12 529.5,1010.81 L529.46,1011.99 C529.35,1013.29 529.35,1014.59 529.46,1015.89 C530.03,1032.3 534.32,1038.26 547.06,1040.33 C548.1,1040.53 549.13,1040.63 550.17,1040.62 C553.44,1036.1 556.12,1031.05 559.58,1022.9 C560.01,1021.73 560.44,1020.56 560.87,1019.4 L560.98,1021.3 L560.98,1022.5 L561.07,1024.1 L560.78,1039.82 L577.29,1039.82 L577.29,1038.51 L576.28,1038.51 C567.46,1038.21 567.28,1037.76 567.28,1015.89 C567.28,994.4 567.48,993.47 572.19,993.37 C572.6,993.31 573.07,993.34 573.59,993.47 L573.68,992.08 L560.67,992.24 C544.72,992.45 533.7,992.33 519.63,991.78 L518.93,993.88 L519.73,993.77 L519.73,993.77 zM483.39,993.37 C491.07,992.36 491.25,992.92 491.14,1017.36 L491.12,1021.79 L490.42,1039.82 L505.33,1039.82 L506.33,1038.41 C505.85,1038.43 505.42,1038.4 505.03,1038.31 C500.22,1037.95 497.52,1036.12 497.52,1033.21 L497.23,1018.09 C497.23,1015.92 497.8,1012.71 498.83,1009.09 C499.52,1006.33 500.88,1003.46 503.73,998.78 L504.63,997.38 L504.73,997.28 C506.06,996.08 508.77,996.34 512.94,998.08 C513.52,998.38 514.06,998.68 514.54,998.98 L514.54,998.78 L513.84,994.47 C513.23,990.66 513.12,990.58 508.73,990.87 L507.07,990.9 C504.82,990.83 504.63,991.1 501.44,998.78 L496.83,1009.88 L497.63,995.18 C497.73,994.05 497,992.96 495.83,992.48 C495.46,992.36 495.09,992.29 494.72,992.27 L482.5,992.27 L481.5,993.77 C482.08,993.54 482.72,993.41 483.39,993.37 L483.39,993.37 zM439.78,996.78 C442.58,995.68 444.79,995.58 448.68,996.39 L450.59,996.78 L452.19,997.17 C458.56,998.69 462.1,1002.66 463.2,1009.49 C463.31,1010.22 463.38,1010.96 463.4,1011.69 L463.27,1023.2 C463.2,1030.25 463.01,1030.99 460.89,1032.81 C459.78,1032.97 458.61,1033.05 457.39,1033.03 C442.31,1032.81 436.79,1026.08 437.46,1008.79 C437.76,1001.24 438.18,999.02 439.78,996.78 L439.78,996.78 zM431.07,1006.48 C430.41,1015.91 430.6,1020.85 431.77,1024.7 C434.1,1033.07 437.54,1036.33 446.48,1038.61 C448.94,1039.31 451.54,1039.71 454.29,1039.82 L457.69,1037.51 C461.41,1035 463.1,1033.4 466.89,1028.8 C467.78,1027.78 468.62,1026.72 469.4,1025.6 C469.52,1024.63 469.59,1023.66 469.6,1022.7 C471.27,1001.79 468.73,995.75 456.69,991.96 C452.47,990.64 449.94,990.44 446.48,991.18 C443.66,992.49 441,994.06 438.49,995.88 C435.88,997.78 433.47,999.98 431.27,1002.48 L431.07,1006.48 L431.07,1006.48 zM359.41,969.22 C368.27,969 368.28,969.02 368.2,997.2 L368.16,1009.59 C368.16,1011.79 368.11,1013.99 368.02,1016.19 L367.95,1017.33 L367.92,1018.5 L367.92,1020.59 C367.7,1027.05 367.33,1033.56 366.82,1040.13 C377.67,1039.36 389.14,1039.15 394.54,1039.61 L395.05,1038.31 C394.03,1038.4 392.96,1038.43 391.84,1038.41 C378.2,1037.71 374.03,1033.68 374.03,1021.19 C374.03,1019.18 374.23,1017.11 374.63,1014.99 C375.41,1011.61 376.75,1008.48 378.65,1005.6 C379.84,1003.79 381.23,1002.08 382.83,1000.48 C382.65,1000.95 382.51,1001.42 382.43,1001.88 C380.86,1007.88 381.17,1009.94 384.18,1013.43 L396.65,1027.91 L397.46,1028.79 C398.84,1030.3 400.26,1031.81 401.75,1033.3 C411.81,1043.1 416.69,1046.92 428.97,1054.64 C430.39,1055.62 431.86,1056.56 433.37,1057.44 L434.97,1058.45 L436.47,1059.24 L437.27,1058.45 L435.28,1056.64 L433.88,1055.44 C432.57,1054.26 431.27,1053.02 429.97,1051.74 C418.55,1041.05 411.02,1033.48 406.25,1027.91 L395.72,1015.63 C385.81,1004.08 384.79,1001.68 387.46,996.19 C388.55,993.96 389.04,993.17 389.73,992.57 L412.76,970.36 L412.55,967.76 L399.65,967.76 L399.45,969.25 L401.34,969.56 C401.98,969.66 402.62,969.76 403.25,969.85 C403.48,969.85 403.64,970.3 403.55,970.65 C402.94,972.64 399.7,976.94 393.74,983.67 L383.24,996.78 L380.63,1000.28 C378.98,1002.43 377.58,1004.33 376.43,1005.98 L375.43,1007.69 L374.12,1009.68 L373.92,1004.08 L373.92,1003.38 L375.12,967.76 C374.01,967.82 372.94,967.89 371.92,967.96 C366.31,968.19 360.63,968.12 354.89,967.76 L354.19,969.36 L359.41,969.22 L359.41,969.22 zM301.87,986.27 L308.88,986.07 L309.17,973.56 C307.07,974.58 304.97,975.74 302.86,977.05 C302.15,977.49 301.48,977.93 300.87,978.36 C300.92,981.53 301.34,984.8 301.87,986.27 L301.87,986.27 zM291.84,993.77 L294.15,993.96 C296.54,994.16 297.41,994.35 298.46,994.89 C300.46,995.93 301.94,997.4 302.36,998.78 L302.88,1012.8 C303.21,1021.6 303.1,1030.6 302.56,1039.82 L320.88,1039.71 L321.18,1038.21 L317.78,1038.01 L317.08,1038.01 C310.92,1038.01 310.07,1037.39 309.7,1032.61 L309.37,1028.4 L309.37,1027.71 L309.07,1023.1 L309.07,1009.68 L309.17,1005.79 L309.17,996.48 C309.17,992.48 308.99,992.27 305.47,992.27 L291.75,992.27 L290.94,993.77 L291.84,993.77 L291.84,993.77 zM257.21,993.37 C264.89,992.36 265.07,992.92 264.96,1017.27 L264.94,1021.79 L264.24,1039.82 L279.16,1039.82 L280.15,1038.41 C279.67,1038.43 279.23,1038.4 278.85,1038.31 C274.03,1037.95 271.35,1036.12 271.35,1033.21 L271.04,1018.09 C271.04,1015.96 271.62,1012.74 272.64,1009.09 C273.32,1006.36 274.67,1003.51 277.54,998.78 L278.45,997.38 L278.56,997.28 C279.87,996.08 282.6,996.35 286.75,998.08 C287.34,998.38 287.87,998.68 288.35,998.98 L288.35,998.78 L287.66,994.47 C287.05,990.66 286.94,990.58 282.56,990.87 L280.89,990.9 C278.64,990.83 278.45,991.1 275.25,998.78 L270.64,1009.88 L271.44,995.18 C271.55,994.06 270.82,992.96 269.64,992.48 C269.28,992.36 268.91,992.29 268.55,992.27 L256.31,992.27 L255.31,993.77 C255.9,993.54 256.53,993.41 257.21,993.37 L257.21,993.37 zM270.44,986.17 L282.36,986.17 L290.46,976.57 L286.05,976.57 L277.85,982.47 L270.84,976.06 L266.24,976.37 L270.44,986.17 L270.44,986.17 zM224.19,993.77 L226.49,993.96 C228.88,994.16 229.75,994.35 230.8,994.89 C232.81,995.93 234.29,997.4 234.72,998.78 L235.23,1012.8 C235.55,1021.6 235.45,1030.6 234.92,1039.82 L253.23,1039.71 L253.52,1038.21 L250.13,1038.01 L249.43,1038.01 C243.26,1038.01 242.41,1037.39 242.04,1032.61 L241.72,1028.4 L241.72,1027.71 L241.42,1023.1 L241.42,1009.68 L241.52,1005.79 L241.52,996.48 C241.52,992.48 241.34,992.27 237.81,992.27 L224.09,992.27 L223.29,993.77 L224.19,993.77 L224.19,993.77 zM237.32,986.07 L254.83,975.66 L241.22,975.66 L233.01,986.07 L237.32,986.07 L237.32,986.07 zM188.66,993.98 L192.99,994.07 C198.54,994.07 199.58,994.66 199.58,997.78 L199.16,1017.79 C198.89,1030.39 203.85,1037.65 213.99,1039.51 C214.93,1039.71 215.87,1039.81 216.8,1039.82 L220.7,1034.31 C220.14,1034.19 219.57,1034.02 219,1033.8 C209.9,1030.71 207.5,1028.01 205.8,1018.99 C205.34,1016.56 205.32,1014.06 205.66,1004.99 L206.09,993.77 C207.53,993.66 208.76,993.6 209.79,993.59 L213.7,993.58 L217.6,993.77 L219.8,991.67 L206.09,991.78 L206.89,972.86 L204.79,973.27 L204.79,975.76 C204.59,986.11 203.76,988.18 198.67,991.16 C196.69,992.32 194.02,992.65 190.46,992.17 C189.86,992.09 189.26,991.96 188.66,991.78 L188.66,993.98 L188.66,993.98 zM145.44,996.08 C146.13,993.79 146.7,993.57 151.34,993.88 L163.05,993.95 C166.03,993.97 167.43,994.69 168.16,996.58 L168.32,1006.94 C168.44,1013.95 168.44,1013.95 167.03,1017.86 L166.11,1020.41 C163.26,1028.3 162.26,1030.2 159.25,1033.3 C158.46,1033.29 157.73,1033.22 157.05,1033.11 C155.61,1032.81 154.28,1032.4 153.05,1031.9 C148.05,1029.71 146.44,1027.52 145.13,1021.1 C144.33,1016.68 144.22,1009.07 144.84,1001.28 C145.04,999.55 145.24,997.81 145.44,996.08 L145.44,996.08 zM127.71,993.58 L131.03,993.58 C134.53,993.47 135.53,993.87 136.53,995.78 C137.38,997.29 137.64,997.95 137.54,998.37 C137.33,1001.28 137.23,1004.18 137.24,1007.09 C137.33,1031.48 139.98,1036.23 155.74,1040.13 C156.54,1040.3 157.34,1040.46 158.15,1040.62 C159.15,1039.33 159.95,1038.09 160.55,1036.91 L161.06,1036.01 L162.35,1033.51 C165.25,1027.27 167.04,1023.13 168.46,1019.4 L168.76,1058.74 C171.63,1057.34 174.78,1056.26 176.36,1056.14 L175.05,1035.42 C172.74,998.85 173.37,993.88 180.36,993.77 C180.85,993.79 181.29,993.86 181.67,993.98 L182.17,992.27 L174.16,992.48 L128.11,992.27 L127.4,993.67 L127.71,993.58 L127.71,993.58 zM57.65,969.56 C65.16,968.86 66.75,969.03 67.97,970.65 L67.97,970.76 L68.59,980.56 C69.63,997.1 69.68,998.66 69.56,1010.99 L69.44,1023.7 C69.37,1031.25 68.98,1034.77 67.68,1039.82 C78.94,1039.29 90.87,1039.29 96.5,1039.82 L96.4,1037.91 C94.87,1037.94 93.34,1037.87 91.8,1037.68 C76.01,1035.79 73.59,1031.1 76.17,1007.49 C76.47,1004.75 76.72,1003.53 77.78,999.58 C79.65,992.67 82.26,986.28 85.04,981.83 L85.96,980.37 C91.13,972.07 91.21,972.02 96,972.96 L100.4,974.26 C102.64,975.06 104.87,975.86 107.1,976.66 C111.66,978.49 112.05,984.79 107.94,990 C104.1,994.86 98.75,997.28 83.48,1001.05 C81.59,1001.52 79.68,1001.93 77.78,1002.29 C80.07,1005.17 82.39,1008.01 84.76,1010.81 C88.9,1015.72 93.18,1020.47 97.61,1025.09 C111.93,1040.02 123.86,1049.96 137.03,1057.94 L137.53,1057.14 C129.53,1050.87 123.45,1044.85 106.83,1026.68 C99.53,1018.72 92.92,1011.02 85.79,1002.18 L89.09,1001.28 L98.4,999.18 L99.51,998.98 C108.4,996.59 111.87,994.49 114.8,989.76 C116.19,987.51 116.92,985.6 117.12,983.67 C118.1,974.45 116.71,972.5 106.81,969.16 L100.05,967.01 C93.03,964.78 93.03,964.78 87.9,971.5 L87.01,972.67 C84.39,976.11 82.67,979.69 79.69,987.88 L77.69,994.48 L76.49,999.28 L75.18,1004.08 L75.08,992.27 C75.18,984.1 75.58,975.93 76.28,967.76 L71.78,967.66 L53.25,967.76 L51.05,969.96 L57.65,969.56 L57.65,969.56 zM3.17,954.05 L1059.81,954.05 L1059.81,1055.98 L3.17,1055.98 L3.17,954.05 L3.17,954.05 zM392.01,291.57 C391.24,290.59 390.48,289.55 389.71,288.46 C389.72,287 389.74,285.49 389.75,283.94 C394.17,280.53 398.64,277.06 403.17,273.54 C403.27,272.44 403.43,271.33 403.64,270.23 C402.12,266.14 400.6,262.05 399.08,257.95 C399.1,255.43 399.11,252.86 399.13,250.23 C405.43,234.93 405.43,234.93 411.65,213.55 C412.67,207.46 413.74,201.32 414.86,195.14 C415.85,193.6 416.89,192.06 417.98,190.52 C421.08,177.31 424.22,164.05 427.42,150.74 C428.98,148.78 430.54,146.77 432.1,144.7 C432.89,142.18 433.68,139.61 434.47,136.99 L436.78,137.26 L455.46,194.94 L452.08,198.24 C448.64,201.59 447.9,202.64 445.46,207.6 C444.47,210.12 443.43,212.68 442.33,215.3 C441.31,221.35 440.23,227.45 439.1,233.6 C437.11,236.68 435.06,239.76 432.97,242.84 C427.42,247.2 421.87,251.62 416.31,256.08 C415.72,259.74 415.07,263.45 414.36,267.22 C408.59,274.89 402.76,282.61 396.88,290.38 C395.31,290.73 393.68,291.12 392.01,291.57 L392.01,291.57 zM477.11,209.37 C477.4,210.97 477.44,212.32 477.29,215.28 C477.15,218.14 477.19,219.34 477.49,220.73 L477.49,225.81 C477.11,233.12 478.73,236.1 485.42,240.44 C487.73,241.23 490.05,242.02 492.36,242.8 C492.89,248.02 493.47,253.28 494.12,258.6 C500.24,269.36 500.24,269.36 503.64,272.8 L517.36,277.28 C519.4,277.25 520.83,276.98 523.78,276.08 C526.69,275.19 528.13,274.91 530.16,274.83 C532.54,272 532.8,270.54 531.35,268.15 C531.94,267.49 532.59,266.83 533.29,266.18 C561.11,270.36 569.49,271.09 589.81,271.12 L597.91,271.13 C598.06,274.2 597.97,276.97 597.48,285.11 C596.83,295.84 596.6,301.97 596.55,309.86 L597.83,314.21 C601.08,325.21 601.08,325.23 601.05,329.28 L600.01,330.19 C596.54,333.04 595.27,335.23 595.2,338.44 C595.15,341.34 596.54,343.16 600.89,345.91 L603.46,347.77 C603.53,350.44 603.66,353.17 603.84,355.95 C601.98,357.24 600.06,358.59 598.08,359.99 C596.98,362.65 595.82,365.37 594.6,368.13 C590.49,372.65 586.37,377.23 582.25,381.85 C580.35,383.15 578.39,384.49 576.37,385.89 C570.15,394.15 563.87,402.46 557.54,410.83 L545.73,431.79 C537.42,446.52 534.03,452.92 529.15,463.07 C528.06,463.41 526.92,463.81 525.71,464.25 C522.65,461.91 522.65,461.91 498.2,452.47 L470.25,446.6 L464.7,445 L462.61,444.17 C462.52,441.06 462.43,437.9 462.33,434.68 L455.67,418.96 C452.83,412.62 451.93,410.34 450.93,406.99 C454.6,407.13 458.31,407.27 462.08,407.41 C463.19,404.22 464.36,401.02 465.57,397.83 C465.59,395.86 465.6,393.84 465.61,391.76 C457.28,384.74 457.28,384.74 447.7,379.72 C445.99,374.84 444.22,369.97 442.39,365.1 C441.17,364.32 439.89,363.54 438.54,362.76 C437.46,359.64 436.38,356.47 435.3,353.25 C433.32,350.71 431.27,348.11 429.17,345.47 C428.72,343.7 428.22,341.93 427.66,340.16 L428.84,338.52 L430.68,336.75 L434.66,334.03 C439.2,332.52 439.2,332.52 441.08,330.55 C441.19,328.46 441.36,326.33 441.58,324.15 C440.04,321.62 438.51,319.03 436.99,316.39 C437,314.93 437.01,313.42 437.02,311.86 L445.31,293.73 C448.65,286.42 449.51,284.33 451.04,279.72 C453.59,275.66 456.19,271.59 458.85,267.52 C458.88,263.44 458.91,259.36 458.93,255.27 C464.4,236.38 465.39,233.56 467.23,231.74 L489.41,300.7 L495.27,311.96 L493.22,299.52 L471.37,228.52 L473.36,226.02 C475.85,223.27 476.45,221.86 476.01,219.78 L473.36,210.26 L472.37,206.09 C471.9,203.34 471.59,202.15 470.99,200.86 C469.97,198.67 468.88,197.12 465.76,193.47 L465.09,192.69 L460.42,191.74 L448.26,152.38 L478.42,199.4 C478.66,201.39 478.51,202.81 477.77,205.56 L477.11,209.37 L477.11,209.37 zM596.83,338.86 C596.89,336.45 598.09,334.55 600.82,332.57 L601.29,332.21 C602.54,333.6 602.78,335.19 602.73,341.97 C601.48,342.69 599.67,342.75 598.48,342.13 C597.36,341.54 596.79,340.41 596.83,338.86 L596.83,338.86 zM589.46,553.56 C589.94,551.59 590.47,549.57 591.04,547.5 C592.03,547.5 593.06,547.51 594.13,547.51 C594.15,545.96 594.16,544.42 594.18,542.88 C592.93,543.07 591.64,543.32 590.31,543.63 L587.61,541.24 L585.33,538.37 L582.75,533.64 C582.88,515.3 583.01,496.91 583.13,478.44 C592.46,468.71 601.84,458.91 611.27,449.06 C612.5,449.06 613.79,449.07 615.13,449.07 L615.59,449.99 L617.14,454.4 L637.94,535.57 C637.85,536.66 637.69,537.77 637.47,538.88 C635.36,538.95 633.19,539.08 630.96,539.27 C629.21,537.03 627.46,534.73 625.7,532.39 L625.64,534.89 L625.09,537.23 L623.67,540.32 C621.55,540.4 619.38,540.53 617.15,540.72 C615.18,539.94 613.17,539.15 611.09,538.36 C610.62,540.36 610.1,542.42 609.51,544.53 C611.47,545.32 613.49,546.1 615.57,546.89 C615.14,547.35 614.65,547.86 614.12,548.42 C612.11,548.21 610.05,547.94 607.93,547.61 C607.17,545.85 606.41,544.05 605.66,542.19 C605.87,540.95 606.14,539.67 606.46,538.33 C605.48,538.32 604.45,538.32 603.37,538.31 C602.57,541.4 601.78,544.48 600.99,547.56 C599.32,549.11 597.65,550.72 595.99,552.39 C593.87,552.72 591.69,553.11 589.46,553.56 L589.46,553.56 zM1060.1,571.11 L1059.54,683.91 L897.88,683.91 C903.8,682.26 909.5,679.88 914.96,676.79 L960.45,649.62 C963.72,648.16 966.92,644.96 967.38,642.68 C967.05,642.68 966.82,642.45 966.82,642.13 C966.5,642.13 966.27,641.9 966.27,641.58 L953.79,643.8 L929.94,648.51 C918.69,650.44 911.87,653.01 904.97,657.94 L882.78,672.36 L853.14,657.31 C842.4,651.85 836.46,649.35 827.04,646.29 C815.91,643.66 802.27,642.06 782.1,641.02 L775.17,641.58 C791.44,650.43 801.44,656.31 823.71,670.15 C828.43,673.21 833.15,676.53 842.99,683.68 L843.31,683.91 L2.88,683.91 L2.88,581.99 L21.32,580.34 C22.63,580 24,579.6 25.42,579.15 C25.62,577.1 25.53,575.33 25.06,571.58 C24.68,568.58 24.61,567.4 24.74,566.12 C25.86,566.01 27.04,565.91 28.26,565.81 C30.99,567.38 33.78,568.94 36.63,570.5 C37.98,569.86 39.38,569.21 40.83,568.54 C41.98,566.44 43.17,564.28 44.42,562.07 C44.43,560.3 44.44,558.53 44.45,556.76 L45.8,555.44 L47.18,554.86 L49.31,554.81 C48.22,552.94 47.13,551.02 46.05,549.05 C46.51,548.28 47.03,547.51 47.61,546.74 C48.03,547.2 48.5,547.72 49.03,548.29 L50.32,544.78 L51.37,543.03 L52.51,541.8 C53.62,541.5 54.8,541.14 56.03,540.72 C56.47,545.78 56.94,550.9 57.47,556.08 C58.45,556.09 59.48,556.1 60.56,556.1 C60.22,554.98 59.83,553.8 59.37,552.56 C60.24,552.25 61.16,551.89 62.15,551.47 C62.13,552.46 62.12,553.49 62.12,554.56 C64.67,554.12 67.21,553.63 69.74,553.07 C69.94,554.62 70.19,556.17 70.49,557.71 C72.44,560.27 74.45,562.82 76.52,565.38 C77.49,564.41 78.53,563.38 79.62,562.31 C79.6,564.31 79.59,566.36 79.58,568.48 C80.15,568.79 80.77,569.17 81.46,569.6 C85.33,567.31 85.33,567.31 87.67,563.46 L91.71,563.32 L96.59,563.6 L104.89,564.8 C105.28,564.11 105.48,563.13 105.83,560.36 C106.27,556.79 106.6,555.54 107.27,554.87 C108.24,555.85 109.26,556.89 110.34,557.99 C111.92,553.36 111.92,553.36 112.29,546.74 C113.42,546.42 114.6,546.1 115.83,545.77 C115.64,544.22 115.4,542.67 115.09,541.13 L112.49,537.64 L112.23,536.63 L112.37,536.03 C113.5,535.93 114.67,535.83 115.9,535.73 L119.16,538.13 L121.76,540.75 L124.56,544.62 C125.79,544.63 127.08,544.63 128.42,544.64 C128.78,542.99 129.2,541.34 129.68,539.68 L131.82,540.31 L133.22,541.12 L134.51,542.37 C134.86,543.49 135.25,544.67 135.69,545.91 C137.36,545.83 139.02,545.69 140.66,545.5 C141.01,546.59 141.41,547.73 141.87,548.93 C142.84,548.94 143.87,548.95 144.96,548.95 C144.97,546.98 144.99,544.96 145,542.88 C145.99,542.88 146.99,542.89 147.98,542.9 C148.17,543.88 148.43,544.91 148.74,546 C149.33,545.41 149.85,544.55 151.05,542.18 C152.28,539.78 152.81,538.91 153.41,538.31 C153.87,538.77 154.39,539.28 154.95,539.86 C154.93,541.87 154.92,543.93 154.91,546.04 C155.36,546.46 155.87,546.95 156.45,547.49 C156.91,547.07 157.42,546.59 158,546.07 C158.13,543.4 158.26,540.68 158.39,537.89 C159.59,537.13 160.84,536.36 162.15,535.61 C164.2,527.67 164.2,527.67 164.26,518.51 C165.82,516.97 165.82,516.97 166.61,513.89 C167.58,513.89 168.61,513.9 169.7,513.91 C169.47,517.42 169.19,520.99 168.85,524.61 C169.81,527.36 170.82,530.16 171.9,533.02 C171.4,536.89 170.86,540.74 170.26,544.6 C169.28,545.58 168.24,546.57 167.15,547.56 C166.92,551.11 166.64,554.71 166.31,558.37 C167.27,558.38 168.3,558.39 169.4,558.39 C169.4,557.42 169.4,556.39 169.42,555.3 C170.39,555.31 171.42,555.31 172.5,555.32 C173.12,562.95 173.12,562.95 174.97,566.38 C176.2,566.39 177.49,566.4 178.84,566.41 C179.2,564.33 179.62,562.2 180.1,560.01 C181.07,560.02 182.1,560.03 183.19,560.03 C183.49,561.6 183.85,563.23 184.25,564.9 C185.34,565.25 186.48,565.67 187.67,566.14 C187.88,564.6 188.15,563.05 188.48,561.51 C189.46,560.52 190.5,559.53 191.59,558.54 C192.04,560 192.54,561.51 193.1,563.09 L194.37,561.82 L195.91,560.92 L198.53,560.14 C198.52,561.13 198.51,562.13 198.51,563.13 C199.5,563.13 200.49,563.14 201.49,563.14 L205.54,542.9 L206.53,540.77 L207.05,540.21 L207.64,540.84 L208.78,542.88 L213.46,556.72 L217.37,556.57 L219.3,557.07 L220.74,557.98 C221.82,556.54 222.97,555.11 224.18,553.69 C226.92,553.51 229.72,553.27 232.58,552.98 C233.36,551.75 234.14,550.47 234.93,549.13 C237.14,548.83 239.35,548.48 241.55,548.07 C241.78,547.08 242,546.09 242.23,545.09 C252.78,536.23 263.33,527.36 273.88,518.49 L283.47,505.77 L291.11,496.46 L299.38,487.21 C301.4,483.13 303.49,479.06 305.64,475 C307.65,468.4 309.72,461.75 311.85,455.06 C316.46,445.95 321.12,436.78 325.84,427.55 C325.86,424.55 325.88,421.5 325.9,418.39 C327.45,416.85 327.45,416.85 333.74,401.55 C336.77,397.5 339.85,393.43 342.99,389.36 C343,387.82 343.01,386.28 343.02,384.74 L341.49,382.39 L339.24,377.75 L334,363.26 C321.89,343.19 321.89,343.19 318.82,340.18 C318.36,340.61 317.84,341.09 317.26,341.62 C316.3,340.15 315.28,338.63 314.2,337.07 C308.37,303.25 308.37,303.25 305.34,292.51 L304.72,291.83 L303.83,289.84 L301.91,278.25 L296.07,273.33 L291.65,268.83 L287.12,263.25 C285.69,258.7 284.22,254.09 282.68,249.42 C282.72,245.34 282.74,241.25 282.77,237.17 C283.78,234.65 284.79,232.11 285.8,229.56 C289.02,225.84 292.25,222.11 295.48,218.38 C299.16,216.33 302.89,214.22 306.67,212.05 L315.53,209.65 L319.45,209.08 L322.04,209.06 C329.1,212.11 336.22,215.22 343.39,218.38 C344.92,219.93 346.46,221.49 347.99,223.04 C349.66,222.97 351.31,222.83 352.97,222.64 C353.66,221.41 354.4,220.13 355.2,218.78 C357.52,217.61 359.85,216.38 362.18,215.09 C366.4,207.83 370.68,200.58 375.03,193.32 C376.61,187.25 376.61,187.25 376.65,181.08 L374.31,177.34 L373.65,175.24 L373.62,173.44 C377.73,169.38 381.84,165.33 385.95,161.27 C391.07,153.15 396.24,144.98 401.46,136.76 L405.38,126.93 C408.2,120.43 409.41,117.16 410.8,112.31 C410.96,110.44 411.52,108.6 412.45,106.86 C413.43,105.03 415.69,102.33 415.9,102.74 L357.45,12.11 L354.2,0 L364.08,9.72 L421.74,95.42 L422.99,95 L423.16,94.56 C421.22,92.8 420.11,89.76 420.41,87.06 C421.23,79.85 425.1,76.43 430.87,77.82 C435.34,78.9 437.76,82.33 437.36,86.99 C436.99,91.34 436.61,92.26 433.82,95.58 C436.98,95.38 439.77,97.54 443.6,103.14 L444.04,103.79 L453.22,88.9 L458.24,89.78 L458.87,93.83 L458.95,94.29 C457.74,96.23 456.46,97.95 453.23,101.95 L447.84,109.1 L450.75,112.59 L450.66,117.15 L450.14,120.29 L449.15,123.29 C448.67,123.74 448.15,124.26 447.59,124.82 L446.41,133.41 L486.85,193.84 C491.67,191.55 499.95,192.18 501.52,194.97 C506.31,190.22 516.6,177.34 518.98,173.1 L525.58,179.22 C519.38,183.43 510.6,191.83 506.29,197.67 L515.26,202 C515.26,203 515.26,204 515.24,204.98 C521.32,205.17 525.83,204.79 535.02,203.32 C543.71,201.93 547.67,201.6 552.94,201.82 C553.14,204.43 552.64,206.15 551.03,208.42 L550.21,210.03 C561.12,211.82 566.79,212.3 578.01,212.37 L581.39,210.21 L584.16,208.87 L587.3,207.8 C588.77,206.36 590.3,204.86 591.87,203.31 C593.88,202.86 595.94,202.36 598.06,201.81 C601.96,196.42 601.96,196.42 602.76,193.34 C601.64,192.98 600.46,192.57 599.23,192.1 C598.69,187.9 598.09,183.7 597.44,179.5 C594.47,175.97 591.44,172.38 588.36,168.73 C587.91,166.5 587.41,164.22 586.85,161.88 C587.34,159.57 587.87,157.25 588.45,154.93 C591.46,151.86 591.46,151.86 594.6,144.26 C601.5,138.49 608.46,132.65 615.48,126.75 C618.48,125.79 621.54,124.79 624.65,123.72 C628.73,123.75 632.82,123.78 636.91,123.8 C639.9,124.8 642.95,125.85 646.05,126.96 C648.56,128.98 651.12,131.06 653.73,133.2 C655.81,133.79 657.94,134.42 660.13,135.11 C661.23,136.78 662.39,138.45 663.63,140.11 C663.6,144.65 663.56,149.25 663.53,153.91 C664.49,156.44 665.5,159.02 666.57,161.66 C672.71,169.97 678.91,178.29 685.16,186.62 C691.84,191.87 698.57,197.18 705.36,202.55 C706.58,204.32 707.85,206.09 709.19,207.87 C712.64,217.6 716.14,227.34 719.69,237.08 L720.43,246.3 L720.96,261.39 L720.82,298.47 L719.61,305.02 L718.16,310.05 L716.07,315.32 C713.51,318.82 710.94,322.37 708.38,325.98 C708.36,328.98 708.34,332.03 708.32,335.14 C710.23,341.76 712.21,348.44 714.25,355.17 L720.5,366.99 C722.27,370.56 722.76,371.4 723.4,372.01 C724.35,378.1 725.3,384.25 726.25,390.46 C756.14,507.23 756.14,507.23 759.18,514.87 L762.45,519.37 L764.68,523.05 L766.71,527.18 C767.26,529.81 767.87,532.5 768.54,535.24 C770.73,536.15 772.94,537.05 775.14,537.94 C775.44,539.04 775.8,540.18 776.21,541.36 C777.87,541.47 779.53,541.64 781.19,541.85 C781.65,541.4 782.16,540.88 782.74,540.31 C786.64,540.34 789.27,540.15 793.92,539.5 L801.18,538.9 C803.18,540.45 805.23,542.01 807.34,543.57 L812.42,545.01 L814.08,545.91 L814.92,546.72 L822.64,547.39 C828.43,548.13 831.71,548.38 836.33,548.41 C840.4,547.46 844.53,546.46 848.72,545.41 C849.06,543.52 849.4,541.56 849.74,539.56 L852.49,539.41 L853.81,539.87 L854.81,540.81 C859.44,542.39 859.44,542.39 865.85,541.99 C866.22,538.88 866.65,535.72 867.12,532.51 C868.11,532.52 869.13,532.52 870.21,532.53 C870.4,534.5 870.65,536.52 870.96,538.6 C871.92,539.58 872.94,540.62 874.02,541.72 C874.15,540.06 874.27,538.4 874.38,536.75 C875.47,536.44 876.61,536.08 877.82,535.67 C878.12,536.78 878.48,537.88 878.88,538.99 C879.86,538.99 880.9,539 881.99,539.01 C880.93,534.81 879.82,530.6 878.65,526.4 L875.03,521.33 L873.87,518.93 L873.42,517.2 C874.4,517.21 875.43,517.21 876.5,517.22 C877.14,520.32 877.14,520.32 879,522.21 C880.13,522.57 881.31,522.98 882.54,523.44 C882.53,524.9 882.52,526.41 882.51,527.98 C885.51,528 888.56,528.02 891.66,528.04 C891.67,527.06 891.68,526.03 891.68,524.95 C892.66,524.95 893.69,524.96 894.78,524.96 C894.56,527.49 894.28,530.06 893.95,532.69 L891.31,534.6 L889.43,535.25 L887.43,535.29 C888.08,536.39 888.73,537.54 889.39,538.73 C889.28,540.38 889.12,542.04 888.91,543.69 C890.25,544.05 891.64,544.46 893.09,544.94 C893.42,542.73 893.8,540.52 894.24,538.32 C895.21,538.33 896.24,538.33 897.33,538.34 C896.55,539.57 895.77,540.85 894.99,542.18 C895.95,542.35 896.73,542.31 898.59,542 C901.04,541.6 902.28,541.58 903.92,541.92 C904.58,545.01 904.58,545.01 906.43,546.9 C909.23,547.11 911.1,547.45 913.95,548.27 L917.69,548.97 L918.54,548.11 L920,547.38 L923.78,546.69 C924.09,545.57 924.47,544.4 924.9,543.17 C931.19,543.3 937.48,543.49 943.77,543.74 C944.08,544.83 944.44,545.97 944.85,547.17 C947.81,547.92 950.6,548.87 956.5,551.12 C962.08,553.26 963.86,553.81 965.12,553.82 L966.15,552.86 L967.44,552.19 L969.77,551.65 C970.52,554.63 970.52,554.63 972.39,556.52 C973.47,556.62 974.61,556.78 975.8,556.98 C977.82,555.03 979.9,553.02 982.02,550.95 C988.65,550.54 995.28,550.07 1001.9,549.55 L1002.95,548.58 L1004.22,548.09 L1006.55,548.03 C1007.32,548.5 1008.09,549.02 1008.87,549.6 C1010.15,549.44 1011.08,551.5 1013,558.79 C1014.93,566.11 1015.86,568.17 1017.15,567.96 C1017.54,567.67 1019.33,567.96 1025.18,569.28 C1031.18,570.63 1033.06,570.93 1033.49,570.63 L1060.1,571.11 L1060.1,571.11 zM615.15,1114.51 C615.09,1113.37 615.09,1112.26 615.14,1111.19 C615.55,1102.57 617.07,1101.81 626.14,1105.75 C631.09,1107.9 632.43,1111.89 630.49,1118.66 C630.42,1118.99 630.31,1119.29 630.16,1119.56 L630.16,1119.68 L627.87,1124.16 L627.36,1125.24 L627.24,1125.44 L627.16,1125.63 C626.31,1127.32 625.77,1127.54 623.53,1127.1 C623.25,1127.09 623.02,1127.04 622.82,1126.97 C618.55,1125.82 616.17,1123.07 615.46,1118.47 C615.39,1118.01 615.35,1117.59 615.34,1117.19 L615.22,1115.91 L615.15,1114.51 L615.15,1114.51 zM610.13,1111.25 C608.97,1125.1 612.02,1129.84 623.01,1131.31 C623.82,1131.44 624.63,1131.5 625.44,1131.5 C627.71,1128.64 628.79,1126.7 630.81,1121.85 L631.7,1119.81 L631.77,1124.41 L631.7,1129.4 C631.76,1130.69 632.01,1131.31 632.47,1131.31 L642.69,1131.57 L642.81,1130.61 L642.05,1130.61 L641.9,1130.6 C635.74,1130.12 635.74,1130.12 635.85,1109.83 L635.91,1097.96 C635.9,1097.19 635.92,1096.42 635.98,1095.66 L636,1095.21 C636.51,1085.84 636.46,1085.56 634.33,1085.56 L625.57,1085.56 L624.86,1086.59 C625.12,1086.53 625.37,1086.51 625.64,1086.52 C631.56,1086.14 632.14,1087.51 631.67,1100.84 L631.51,1105.37 C629.93,1102.8 627.98,1101.7 623.07,1100.59 C622.56,1100.47 622,1100.37 621.41,1100.26 C620.77,1100.62 620.14,1100.98 619.5,1101.35 C615.95,1103.4 613.24,1105.31 610.55,1107.67 C610.37,1108.83 610.23,1110.02 610.13,1111.25 L610.13,1111.25 zM569.57,1102.12 C574.6,1102.18 575.02,1102.44 575.23,1105.56 L575.46,1108.95 C575.67,1114.31 575.64,1119.93 575.4,1125.44 C575.3,1127.48 575.18,1129.52 575.02,1131.57 L585.24,1131.57 L585.81,1130.49 C585.29,1130.62 584.74,1130.66 584.15,1130.61 C579.91,1130.36 579.42,1129.27 579.63,1120.45 L579.69,1118.15 L579.69,1117.64 C579.82,1115.78 579.95,1114.84 580.18,1113.99 C581.44,1109.37 582.74,1106.73 584.8,1104.6 C586.37,1103.81 587.63,1104.08 590.8,1105.88 C593.14,1107.31 594,1108.83 594.77,1112.85 L595.08,1117.31 C595.07,1118.4 595.02,1119.44 594.95,1120.45 L594.31,1128.69 L594.25,1129.84 L593.99,1132.92 L595.53,1130.74 L595.65,1130.55 L596.87,1128.44 L596.99,1128.18 C597.63,1127.36 598.4,1126.48 598.85,1126.07 L598.98,1123.9 C600.27,1107.83 598.12,1102.79 589.06,1100.66 L586.83,1100.13 C586.45,1100.12 585.94,1100.14 585.3,1100.19 C584.25,1100.94 584.13,1101.14 582.94,1104.09 C582.81,1104.39 582.75,1104.56 582.75,1104.6 L579.93,1111.25 L580.19,1103.52 C580.16,1103.26 580.09,1103.01 580,1102.75 C579.66,1101.98 579.06,1101.47 578.21,1101.22 L569.5,1101.22 L569.13,1102.11 L569.57,1102.12 L569.57,1102.12 zM541.22,1113.23 L541.73,1106.9 C542.04,1103.75 542.84,1103.2 546.33,1103.7 L549,1104.09 L549.64,1104.16 C551.31,1104.47 552.65,1104.93 553.67,1105.56 C556.76,1107.36 557.95,1109.49 558.08,1113.48 C558.08,1115.65 557.51,1118.13 556.36,1120.9 C553.48,1127.8 552.53,1128.31 546.58,1126.07 C543.28,1124.73 541.45,1120.87 541.15,1114.57 C541.13,1114.12 541.16,1113.68 541.22,1113.23 L541.22,1113.23 zM536.74,1115.21 C536.49,1125.61 539.41,1129.33 549.26,1131.19 C549.99,1131.33 550.71,1131.43 551.44,1131.5 C553.7,1128.98 554.35,1127.86 556.51,1122.73 L558.53,1117.96 L558.21,1122.56 L558.21,1123.01 C557.86,1129.51 558.13,1131.57 559.3,1131.57 L568.5,1131.57 L568.68,1130.49 L566.45,1130.23 C563.6,1129.91 562.81,1129.24 562.75,1127.16 L562.43,1114.44 L562.05,1111.82 L561.92,1111.06 C560.73,1104.15 557.52,1101.45 549.33,1100.47 C548.45,1100.36 547.59,1100.29 546.77,1100.26 L545.09,1101.39 C540.1,1104.75 539.61,1105.13 537.38,1107.35 L536.81,1114.12 C536.82,1114.49 536.8,1114.85 536.74,1115.21 L536.74,1115.21 zM501.2,1086.31 C503.93,1086.13 504.73,1086.41 505.62,1087.8 C505.74,1088 505.82,1088.24 505.87,1088.5 L505.94,1088.63 L506.39,1110.42 C506.54,1117.37 506.52,1124.42 506.33,1131.57 L519.23,1131.57 L519.62,1130.49 L518.34,1130.49 L517.79,1130.46 C510.52,1130.06 510.52,1130.06 510.48,1119.07 L510.41,1096.87 C510.88,1089.52 510.91,1087.82 510.54,1087.03 C510.07,1086.02 509.62,1085.56 509.08,1085.56 L498.96,1085.56 L498.96,1086.46 L501.2,1086.31 L501.2,1086.31 zM471.95,1113.23 L472.46,1106.9 C472.79,1103.75 473.58,1103.2 477.06,1103.7 L479.75,1104.09 L480.39,1104.16 C482.05,1104.47 483.39,1104.93 484.41,1105.56 C487.51,1107.37 488.69,1109.5 488.82,1113.48 C488.82,1115.67 488.25,1118.15 487.1,1120.9 C484.23,1127.8 483.26,1128.31 477.32,1126.07 C474.01,1124.73 472.18,1120.86 471.89,1114.57 C471.88,1114.12 471.9,1113.68 471.95,1113.23 L471.95,1113.23 zM467.47,1115.21 C467.22,1125.61 470.14,1129.33 480,1131.19 C480.73,1131.33 481.45,1131.43 482.17,1131.5 C484.42,1129 485.04,1127.93 487.25,1122.73 L489.27,1117.96 L488.94,1122.56 L488.94,1123.01 C488.6,1129.54 488.86,1131.57 490.03,1131.57 L499.23,1131.57 L499.42,1130.49 L497.19,1130.23 C494.34,1129.91 493.55,1129.25 493.49,1127.16 L493.16,1114.44 L492.69,1111.29 L492.66,1111.06 C491.47,1104.15 488.26,1101.45 480.06,1100.47 C479.17,1100.36 478.32,1100.29 477.51,1100.26 L475.83,1101.39 C470.79,1104.79 470.31,1105.15 468.11,1107.35 L467.54,1114.12 C467.56,1114.49 467.53,1114.85 467.47,1115.21 L467.47,1115.21 zM436.47,1111.51 C436.21,1115.54 436.24,1118.82 436.55,1121.03 C437.39,1125.85 439.33,1128.33 443.57,1129.98 C449.14,1132.14 450.78,1132.22 453.17,1130.44 L454.57,1129.4 L455.14,1128.89 L457.06,1127.28 C456.29,1127.41 455.53,1127.48 454.76,1127.48 C452.96,1127.52 451.39,1127.44 450.03,1127.23 C443.87,1126.27 441.79,1123.94 440.98,1117.13 C440.89,1116.31 440.83,1115.52 440.83,1114.76 L440.82,1114.19 L440.97,1109.52 C441.16,1105.52 441.55,1104.59 443.57,1103.39 L444.54,1103.45 L446.07,1103.65 C452.88,1104.36 456.73,1107.28 456.94,1111.89 L457.83,1111.82 C457.82,1110.81 457.78,1109.83 457.69,1108.89 C457.63,1105.32 457.65,1101.85 457.77,1098.47 L456.23,1099.69 L456.36,1101.41 C456.39,1102.28 456.39,1103.16 456.36,1104.03 C454.92,1101.8 453.05,1100.89 449.01,1100.45 C448.56,1100.43 448.11,1100.41 447.66,1100.38 C444.84,1101.38 442.69,1102.64 440.01,1104.86 C439.42,1105.34 438.85,1105.85 438.28,1106.39 L437.9,1106.74 L437.51,1107.09 L436.87,1107.74 C436.68,1109.02 436.55,1110.28 436.47,1111.51 L436.47,1111.51 zM420.06,1097.38 L424.54,1097.26 L424.73,1089.26 C423.39,1089.92 422.05,1090.67 420.7,1091.51 C420.24,1091.79 419.82,1092.06 419.43,1092.33 C419.47,1094.36 419.73,1096.45 420.06,1097.38 L420.06,1097.38 zM413.67,1102.18 L415.13,1102.3 C416.67,1102.43 417.22,1102.54 417.89,1102.88 C419.16,1103.54 420.11,1104.49 420.39,1105.37 L420.72,1114.32 C420.92,1119.94 420.85,1125.69 420.51,1131.57 L432.21,1131.5 L432.39,1130.55 L430.23,1130.42 L429.78,1130.42 C425.84,1130.42 425.3,1130.02 425.06,1126.97 L424.86,1124.28 L424.86,1123.84 L424.67,1120.9 L424.67,1112.34 L424.73,1109.84 L424.73,1103.9 C424.73,1101.35 424.62,1101.22 422.37,1101.22 L413.6,1101.22 L413.09,1102.18 L413.67,1102.18 L413.67,1102.18 zM393.4,1101.92 C398.31,1101.28 398.43,1101.64 398.35,1117.19 L398.34,1120.07 L397.89,1131.57 L407.41,1131.57 L408.05,1130.67 C407.74,1130.68 407.46,1130.66 407.22,1130.61 C404.15,1130.38 402.43,1129.21 402.43,1127.35 L402.23,1117.7 C402.23,1116.34 402.6,1114.29 403.26,1111.95 C403.71,1110.18 404.59,1108.33 406.38,1105.37 L406.97,1104.47 L407.03,1104.41 C407.88,1103.65 409.61,1103.82 412.27,1104.92 C412.64,1105.12 412.98,1105.31 413.29,1105.5 L413.29,1105.37 L412.85,1102.62 C412.46,1100.19 412.38,1100.13 409.58,1100.32 L408.53,1100.34 C407.08,1100.29 406.96,1100.46 404.93,1105.37 L401.99,1112.46 L402.49,1103.07 C402.55,1102.35 402.09,1101.65 401.34,1101.35 C401.11,1101.27 400.88,1101.23 400.65,1101.22 L392.84,1101.22 L392.19,1102.18 C392.56,1102.02 392.97,1101.94 393.4,1101.92 L393.4,1101.92 zM367.41,1104.09 C369.2,1103.39 370.62,1103.33 373.1,1103.84 L374.32,1104.09 L375.34,1104.34 C379.41,1105.32 381.67,1107.85 382.37,1112.21 C382.44,1112.68 382.48,1113.14 382.49,1113.61 L382.41,1120.96 C382.36,1125.47 382.24,1125.94 380.89,1127.1 C380.18,1127.2 379.44,1127.25 378.65,1127.24 C369.04,1127.1 365.51,1122.8 365.93,1111.76 C366.12,1106.94 366.39,1105.52 367.41,1104.09 L367.41,1104.09 zM361.85,1110.29 C361.44,1116.3 361.56,1119.46 362.29,1121.92 C363.78,1127.26 365.98,1129.35 371.69,1130.8 C373.26,1131.25 374.92,1131.5 376.68,1131.57 L378.85,1130.1 C381.22,1128.5 382.3,1127.48 384.73,1124.54 C385.29,1123.89 385.82,1123.21 386.33,1122.5 C386.4,1121.87 386.44,1121.26 386.45,1120.64 C387.52,1107.29 385.9,1103.44 378.21,1101.02 C375.52,1100.17 373.9,1100.04 371.69,1100.51 C369.89,1101.36 368.19,1102.36 366.59,1103.53 C364.92,1104.74 363.39,1106.14 361.98,1107.74 L361.85,1110.29 L361.85,1110.29 zM335.2,1102.31 L337.96,1102.37 C341.51,1102.37 342.18,1102.74 342.18,1104.74 L341.9,1117.51 C341.73,1125.55 344.9,1130.18 351.37,1131.37 C351.97,1131.5 352.57,1131.57 353.16,1131.57 L355.66,1128.05 C355.29,1127.98 354.93,1127.88 354.57,1127.73 C348.75,1125.75 347.22,1124.03 346.15,1118.27 C345.85,1116.7 345.84,1115.07 346.05,1109.33 L346.33,1102.18 C347.24,1102.1 348.03,1102.06 348.7,1102.06 L351.18,1102.04 L353.67,1102.18 L355.08,1100.84 L346.33,1100.9 L346.84,1088.82 L345.49,1089.08 L345.49,1090.67 C345.37,1097.29 344.84,1098.61 341.59,1100.51 C340.33,1101.26 338.63,1101.46 336.35,1101.15 C335.97,1101.1 335.58,1101.01 335.2,1100.9 L335.2,1102.31 L335.2,1102.31 zM308.18,1114.89 C308.63,1115.2 309.07,1115.48 309.52,1115.72 C311.08,1116.62 312.68,1117.2 314.31,1117.47 L319.54,1118.33 C325.11,1119.24 327.88,1121.85 326.77,1125.12 C325.88,1127.72 324.87,1128.18 320.45,1127.99 C319.4,1127.98 318.25,1127.87 317,1127.65 C310.04,1126.42 308.11,1123.96 308.11,1116.3 C308.1,1115.83 308.12,1115.36 308.18,1114.89 L308.18,1114.89 zM307.54,1113.61 L307.67,1121.41 L307.98,1127.73 L308.11,1129.01 C309.87,1130.22 311.64,1130.89 314.31,1131.38 C316.48,1131.77 318.67,1131.84 320.89,1131.57 C324.57,1128.76 328.32,1125.61 329.96,1123.97 C330.78,1120.57 328.72,1117.15 324.79,1115.4 C324.23,1115.2 323.63,1115.04 323,1114.91 L314.26,1113.1 C313.15,1112.92 312.08,1112.33 311.05,1111.32 C308.78,1109.11 308.92,1106.42 311.39,1104.69 C312.53,1103.89 314.38,1103.69 317,1104.09 C325.52,1105.39 327.55,1106.87 327.22,1111.57 C327.23,1111.81 327.21,1112.02 327.16,1112.21 L328.25,1112.27 C327.97,1108.86 327.86,1105.39 327.9,1101.86 C327.92,1100.32 327.97,1098.74 328.06,1097.13 L326.58,1097.19 L326.77,1102.04 C325.22,1101.59 323.6,1101.23 321.92,1100.96 C319.59,1100.58 317.22,1100.45 314.83,1100.58 C314.23,1101.05 313.64,1101.52 313.03,1101.98 C310.84,1103.83 308.78,1105.77 306.84,1107.8 C306.67,1108.38 306.64,1109.19 306.76,1110.19 C306.88,1111.2 307.21,1112.62 307.54,1113.61 L307.54,1113.61 zM290.54,1097.38 L295.02,1097.26 L295.21,1089.26 C293.87,1089.92 292.52,1090.66 291.17,1091.5 C290.72,1091.78 290.3,1092.06 289.91,1092.33 C289.95,1094.36 290.21,1096.45 290.54,1097.38 L290.54,1097.38 zM284.14,1102.18 L285.61,1102.3 C287.16,1102.43 287.71,1102.55 288.37,1102.88 C289.65,1103.54 290.59,1104.48 290.87,1105.37 L291.19,1114.32 C291.39,1119.94 291.33,1125.69 290.99,1131.57 L302.69,1131.5 L302.87,1130.55 L300.71,1130.42 L300.25,1130.42 C296.32,1130.42 295.78,1130.02 295.54,1126.97 L295.33,1124.28 L295.33,1123.84 L295.14,1120.9 L295.14,1112.34 L295.21,1109.84 L295.21,1103.9 C295.21,1101.36 295.09,1101.22 292.84,1101.22 L284.08,1101.22 L283.56,1102.18 L284.14,1102.18 L284.14,1102.18 zM250.08,1086.39 C256.63,1086.39 256.81,1087.01 256.1,1106.33 L255.97,1127.86 L256.04,1131.57 L265.69,1131.57 L266,1130.49 C265.51,1130.62 264.97,1130.66 264.41,1130.61 C260.3,1130.15 259.56,1128.1 260,1118.34 L260.11,1116.02 L260.2,1114.76 C260.27,1114.09 260.53,1113.18 261.15,1111.44 C262.29,1107.9 263.33,1105.95 265.12,1104.03 C266.33,1103.77 267.48,1103.79 268.56,1104.11 C273.23,1105.46 274.83,1107.83 275.4,1114.25 C275.54,1115.41 275.57,1117.12 275.51,1119.37 C275.49,1120.27 275.43,1121.14 275.34,1121.99 L275.17,1123.57 L274.87,1127.16 C274.74,1128.74 274.64,1130.62 274.57,1132.8 L275.4,1130.93 L276.17,1129.4 C277.01,1127.58 277.88,1126.39 279.24,1125.18 L279.47,1121.85 C279.75,1117.92 279.78,1114.41 279.55,1111.89 C278.59,1103.79 275.04,1100.19 267.67,1099.81 C266.9,1099.79 266.14,1099.84 265.37,1099.94 L262.02,1106.99 L259.99,1111.95 L260.06,1109.2 L259.99,1100.58 C260.66,1089.49 260.3,1085.5 258.66,1085.5 L257.61,1085.54 L249.58,1085.56 L249.12,1086.46 C249.45,1086.44 249.77,1086.41 250.08,1086.39 L250.08,1086.39 zM215.02,1109.52 L216.68,1109.4 L216.68,1113.55 L216.88,1120.58 L216.88,1143.15 L217.44,1143.15 C217.51,1141.93 217.57,1140.72 217.64,1139.5 C218.16,1133.38 219.19,1128.33 220.9,1123.52 L220.58,1109.01 L221.73,1109.07 L222.17,1109.07 L223.84,1109.2 C226.95,1109.32 230.12,1109.34 233.36,1109.27 L234.31,1107.35 C229.78,1107.8 225.24,1107.93 220.7,1107.74 L220.7,1106.52 L220.77,1105.82 L221.25,1097.96 C221.8,1088.87 222.41,1088 227.92,1088.58 C229.16,1088.7 229.96,1089.52 230.62,1091.31 C231.06,1092.5 231.33,1094.7 231.5,1098.54 C231.55,1099.07 231.57,1099.6 231.56,1100.13 L232.52,1100.19 C232.15,1094.32 232.02,1088.1 232.2,1085.18 C231.88,1085.2 231.56,1085.22 231.25,1085.25 L230.63,1085.32 C225.32,1085.97 225.32,1085.97 221.26,1089.67 L220.68,1090.2 C219.16,1091.59 217.7,1093.2 216.3,1095.02 L216.7,1102.55 C216.89,1106.16 216.89,1106.16 215.66,1107.28 L214.7,1108.19 L213.36,1109.52 L215.02,1109.52 L215.02,1109.52 zM185.75,1104.09 C187.55,1103.39 188.96,1103.33 191.44,1103.84 L192.66,1104.09 L193.68,1104.34 C197.75,1105.32 200.01,1107.85 200.7,1112.21 C200.78,1112.68 200.82,1113.14 200.83,1113.61 L200.75,1120.96 C200.71,1125.46 200.59,1125.94 199.24,1127.1 C198.53,1127.2 197.78,1127.25 196.99,1127.24 C187.37,1127.1 183.85,1122.81 184.28,1111.76 C184.46,1106.93 184.74,1105.52 185.75,1104.09 L185.75,1104.09 zM180.19,1110.29 C179.77,1116.31 179.9,1119.46 180.64,1121.92 C182.12,1127.26 184.32,1129.34 190.03,1130.8 C191.6,1131.25 193.26,1131.5 195.01,1131.57 L197.19,1130.1 C199.56,1128.5 200.64,1127.47 203.06,1124.54 C203.63,1123.89 204.17,1123.21 204.67,1122.5 C204.74,1121.87 204.78,1121.26 204.79,1120.64 C205.85,1107.29 204.24,1103.44 196.56,1101.02 C193.87,1100.17 192.24,1100.04 190.03,1100.51 C188.23,1101.36 186.53,1102.36 184.93,1103.52 C183.26,1104.73 181.73,1106.14 180.32,1107.74 L180.19,1110.29 L180.19,1110.29 zM140.64,1103.58 C141.23,1103.6 141.83,1103.69 142.43,1103.84 C148.52,1105.16 151.31,1108.54 151.03,1114.25 C150.41,1126.97 148.77,1129.28 139.62,1130.25 C137.92,1130.44 136.46,1130.35 134.77,1129.97 L134.51,1116.04 L134.51,1115.72 L135.01,1113.29 L135.01,1113.16 L135.78,1111.12 C137.78,1105.76 138.42,1104.77 140.64,1103.58 L140.64,1103.58 zM126.06,1102.11 C128.58,1102.11 129.04,1102.2 129.65,1102.82 C130.68,1103.79 130.69,1103.84 130.72,1111.68 L130.8,1128.56 C129.37,1127.92 127.78,1128.2 126.71,1129.27 C127.42,1129.47 128.1,1129.7 128.76,1129.97 C129.38,1130.29 129.98,1130.67 130.55,1131.12 L130.48,1143.65 L134.7,1142.25 L134.64,1134.13 L134.7,1131.57 C137.89,1132.09 140.05,1131.84 144.09,1130.5 C148.02,1129.19 149.56,1128.21 152.72,1124.99 C153.23,1124.44 153.74,1123.87 154.25,1123.26 C154.66,1120.9 154.93,1118.53 155.04,1116.17 C155.21,1112.88 155.17,1111.25 154.9,1109.9 C153.58,1103.34 150.21,1100.69 142.37,1100.07 C141.58,1100.03 140.79,1100.03 140,1100.07 C138.76,1102.02 138.06,1103.29 137.58,1104.47 L136.81,1106.08 L136.16,1107.35 L135.53,1108.76 L134.64,1110.55 L134.77,1103.39 C134.79,1101.93 134.15,1101.2 132.85,1101.21 L124.08,1101.22 L123.56,1102.11 L126.06,1102.11 L126.06,1102.11 zM98.08,1114.51 C97.32,1105.4 97.6,1102.89 99.42,1102.11 L109.91,1102.04 L110.42,1102.11 C113.57,1102.31 113.79,1102.87 113.58,1110.03 L113.42,1115.28 C113.33,1116.16 113.07,1117.27 112.65,1118.6 L110.72,1123.07 C108.59,1128 106.91,1128.66 102.42,1126.34 C100.13,1125.15 99.02,1123.49 98.41,1120.32 L98.08,1114.51 L98.08,1114.51 zM87.47,1102.18 L88.68,1102.1 C90.6,1101.98 91.44,1102.24 92.46,1103.26 C93.98,1104.78 94,1104.96 93.7,1113.06 L93.67,1113.81 C93.61,1114.64 93.61,1115.47 93.67,1116.3 C94.04,1126.77 96.79,1130.58 104.93,1131.9 C105.58,1132.03 106.24,1132.09 106.9,1132.09 C108.99,1129.19 110.71,1125.97 112.92,1120.77 C113.19,1120.02 113.46,1119.28 113.74,1118.53 L113.8,1119.75 L113.8,1120.52 L113.87,1121.54 L113.67,1131.57 L124.22,1131.57 L124.22,1130.74 L123.57,1130.74 C117.95,1130.55 117.84,1130.26 117.84,1116.3 C117.84,1102.58 117.96,1101.98 120.96,1101.92 C121.22,1101.88 121.52,1101.9 121.86,1101.98 L121.92,1101.09 L113.61,1101.2 C103.26,1101.33 96.21,1101.25 87.41,1100.9 L86.95,1102.24 L87.47,1102.18 L87.47,1102.18 zM62.62,1104.09 C64.42,1103.39 65.82,1103.33 68.3,1103.84 L69.51,1104.09 L70.54,1104.34 C74.62,1105.32 76.88,1107.84 77.58,1112.21 C77.65,1112.68 77.69,1113.14 77.7,1113.61 L77.62,1120.96 C77.57,1125.45 77.45,1125.93 76.1,1127.1 C75.39,1127.2 74.65,1127.25 73.87,1127.24 C64.24,1127.1 60.72,1122.81 61.15,1111.76 C61.33,1106.94 61.6,1105.52 62.62,1104.09 L62.62,1104.09 zM57.07,1110.29 C56.64,1116.29 56.76,1119.45 57.51,1121.92 C58.99,1127.27 61.19,1129.35 66.91,1130.8 C68.47,1131.25 70.13,1131.5 71.89,1131.57 L74.06,1130.1 C76.43,1128.5 77.52,1127.47 79.94,1124.54 C80.5,1123.89 81.03,1123.21 81.54,1122.5 C81.61,1121.87 81.65,1121.26 81.66,1120.64 C82.73,1107.29 81.11,1103.44 73.42,1101.01 C70.73,1100.17 69.11,1100.04 66.91,1100.51 C65.1,1101.36 63.4,1102.36 61.8,1103.52 C60.13,1104.73 58.59,1106.14 57.19,1107.74 L57.07,1110.29 L57.07,1110.29 zM30.98,1101.92 C35.87,1101.28 35.99,1101.64 35.92,1117.12 L35.91,1120.07 L35.46,1131.57 L44.98,1131.57 L45.62,1130.67 C45.32,1130.68 45.04,1130.66 44.79,1130.61 C41.72,1130.38 40,1129.21 40,1127.35 L39.81,1117.7 C39.81,1116.33 40.17,1114.28 40.83,1111.95 C41.28,1110.19 42.15,1108.35 43.96,1105.37 L44.54,1104.47 L44.6,1104.41 C45.45,1103.65 47.18,1103.82 49.84,1104.92 C50.21,1105.12 50.56,1105.31 50.86,1105.5 L50.86,1105.37 L50.42,1102.62 C50.03,1100.18 49.96,1100.13 47.16,1100.32 L46.1,1100.34 C44.66,1100.29 44.54,1100.45 42.5,1105.37 L39.55,1112.46 L40.07,1103.07 C40.13,1102.35 39.66,1101.65 38.91,1101.35 C38.68,1101.27 38.45,1101.23 38.22,1101.22 L30.41,1101.22 L29.76,1102.18 C30.14,1102.02 30.54,1101.94 30.98,1101.92 L30.98,1101.92 zM2.05,1130.1 C4.38,1132.93 8.03,1133.66 18.27,1133.37 C18.65,1133.37 19.16,1133.61 20.44,1134.39 C22.17,1135.5 22.41,1137.48 20.96,1138.67 C20.29,1139.27 19.57,1139.58 18.15,1139.88 C16.69,1140.19 13.68,1139.97 9.19,1139.2 C4.12,1138.34 1.25,1135.26 1.8,1131.25 C1.85,1130.87 1.93,1130.48 2.05,1130.1 L2.05,1130.1 zM5.17,1111.25 L5.17,1109.72 C5.43,1104.2 6.81,1103 11.83,1103.96 C17.84,1105.11 19.88,1107.68 19.23,1113.29 C19.03,1115.05 18.48,1116.45 17.58,1117.51 C14.39,1121.46 9.79,1121.49 6.97,1117.58 C5.69,1115.68 5.24,1114.1 5.17,1111.25 L5.17,1111.25 zM1.86,1141.29 C3.2,1141.93 4.01,1142.24 5.05,1142.52 L6.22,1142.84 C12.64,1144.59 12.64,1144.59 19.16,1141.05 L20.25,1140.45 C22.48,1139.25 24.61,1137.91 26.65,1136.44 C27.21,1134.05 25.68,1131.58 22.69,1130.04 C21.5,1129.47 20.17,1129.2 18.34,1129.14 L9.78,1129.06 C9.42,1129.06 9.05,1129.02 8.69,1128.94 C6.11,1128.47 5.05,1127.08 6.01,1125.44 C6.24,1124.99 6.6,1124.67 7.1,1124.47 L21.28,1117.96 L22.94,1117.38 L23,1117.38 L23.26,1117.26 L23.52,1117 L23.59,1116.1 L23.59,1115.91 L23.44,1114.25 L23.44,1112.85 L23.71,1105.31 L24.22,1098.92 L22.88,1099.17 L22.72,1102 L22.36,1103.9 C20.27,1101.88 17.88,1100.89 13.99,1100.46 C13.42,1100.4 12.84,1100.37 12.26,1100.38 C9.97,1101.3 8.44,1102.13 7.29,1103.07 L6.79,1103.48 L6.26,1103.9 L3.2,1106.2 L3.13,1106.26 L1.93,1107.37 L1.09,1108.19 C1.01,1108.89 0.92,1109.59 0.84,1110.29 C0.42,1116.78 1.83,1120.76 5.11,1122.39 C5.91,1122.79 6.74,1123.04 7.6,1123.13 L4.22,1124.6 C0.72,1126.02 0.63,1126.09 0.7,1127.22 C1.13,1132.08 1.05,1135.01 0.39,1138.54 C0.26,1139.13 0.13,1139.69 -0,1140.21 L0.52,1140.53 L1.86,1141.29 L1.86,1141.29 zM1038.28,1130.1 C1040.61,1132.93 1044.28,1133.67 1054.51,1133.37 C1054.89,1133.37 1055.4,1133.61 1056.68,1134.39 C1058.41,1135.5 1058.65,1137.47 1057.19,1138.67 C1056.53,1139.26 1055.8,1139.57 1054.38,1139.88 C1052.91,1140.19 1049.91,1139.97 1045.42,1139.21 C1040.35,1138.35 1037.49,1135.26 1038.02,1131.25 C1038.07,1130.87 1038.16,1130.48 1038.28,1130.1 L1038.28,1130.1 zM1041.4,1111.25 L1041.4,1109.72 C1041.66,1104.19 1043.04,1103 1048.05,1103.95 C1054.06,1105.1 1056.11,1107.67 1055.48,1113.29 C1055.29,1115 1054.75,1116.38 1053.82,1117.53 C1050.63,1121.46 1046.02,1121.49 1043.2,1117.57 C1041.92,1115.7 1041.48,1114.12 1041.4,1111.25 L1041.4,1111.25 zM1038.09,1141.29 C1039.43,1141.92 1040.24,1142.24 1041.27,1142.52 L1042.43,1142.83 C1048.87,1144.59 1048.87,1144.59 1055.42,1141.03 L1056.48,1140.45 C1058.71,1139.24 1060.84,1137.9 1062.87,1136.43 C1063.44,1134.04 1061.91,1131.57 1058.92,1130.03 C1057.75,1129.48 1056.44,1129.21 1054.57,1129.14 L1046.01,1129.08 C1045.65,1129.06 1045.28,1129.02 1044.92,1128.94 C1042.34,1128.47 1041.27,1127.08 1042.24,1125.43 C1042.48,1124.99 1042.84,1124.66 1043.32,1124.47 C1045,1123.78 1047.28,1122.74 1052.78,1120.14 L1055.72,1118.75 L1057.51,1117.96 L1059.17,1117.38 L1059.24,1117.38 L1059.49,1117.25 L1059.75,1117 L1059.81,1116.1 L1059.81,1115.92 L1059.68,1114.25 L1059.68,1112.84 C1059.62,1111.31 1059.69,1109.39 1059.97,1105.31 L1060.26,1101.02 L1060.45,1098.92 L1059.1,1099.17 L1058.95,1101.99 L1058.6,1103.9 C1056.51,1101.88 1054.11,1100.89 1050.22,1100.45 C1049.65,1100.4 1049.08,1100.38 1048.5,1100.39 C1046.23,1101.28 1044.69,1102.11 1043.52,1103.07 L1043.03,1103.48 L1042.5,1103.9 L1039.42,1106.2 L1039.36,1106.27 L1038.16,1107.37 L1037.32,1108.18 C1037.23,1108.88 1037.15,1109.59 1037.07,1110.29 C1036.66,1116.79 1038.06,1120.76 1041.34,1122.37 C1041.97,1122.74 1042.71,1122.96 1043.84,1123.13 L1040.44,1124.6 C1036.96,1126.02 1036.87,1126.08 1036.94,1127.22 C1037.36,1132.08 1037.28,1135 1036.62,1138.54 C1036.48,1139.13 1036.35,1139.68 1036.23,1140.2 L1036.79,1140.55 L1038.09,1141.29 L1038.09,1141.29 zM996.35,1102.12 C1001.39,1102.18 1001.8,1102.43 1001.98,1105.56 L1002.24,1108.94 C1002.44,1114.37 1002.4,1119.99 1002.11,1125.43 L1001.79,1131.57 L1012.02,1131.57 L1012.59,1130.48 C1012.07,1130.62 1011.52,1130.66 1010.93,1130.61 C1006.68,1130.36 1006.2,1129.28 1006.41,1120.45 L1006.46,1118.15 L1006.46,1117.64 C1006.59,1115.81 1006.72,1114.84 1006.96,1114 C1008.24,1109.34 1009.53,1106.71 1011.57,1104.6 C1013.15,1103.81 1014.41,1104.08 1017.57,1105.88 C1019.92,1107.31 1020.78,1108.82 1021.53,1112.84 L1021.86,1117.31 C1021.85,1118.4 1021.8,1119.44 1021.72,1120.45 L1021.09,1128.69 L1021.03,1129.84 L1020.76,1132.92 C1021.43,1132.08 1021.83,1131.51 1022.36,1130.66 L1022.43,1130.54 L1023.64,1128.44 L1023.78,1128.18 C1024.42,1127.36 1025.18,1126.48 1025.62,1126.07 L1025.75,1123.9 C1027.04,1107.83 1024.9,1102.79 1015.84,1100.66 L1013.87,1100.2 L1013.61,1100.13 C1013.23,1100.12 1012.72,1100.14 1012.09,1100.2 C1011.01,1100.94 1010.89,1101.15 1009.72,1104.1 L1009.61,1104.34 L1009.52,1104.6 L1006.71,1111.25 L1006.96,1103.51 L1006.85,1103.01 L1006.78,1102.75 C1006.44,1101.98 1005.84,1101.47 1004.98,1101.22 L996.29,1101.22 L995.9,1102.12 L996.35,1102.12 L996.35,1102.12 zM984.74,1097.38 L989.2,1097.26 L989.34,1093.23 L989.39,1089.26 C988.05,1089.92 986.71,1090.66 985.36,1091.5 C984.91,1091.78 984.49,1092.06 984.09,1092.34 C984.13,1094.36 984.39,1096.45 984.74,1097.38 L984.74,1097.38 zM978.33,1102.18 L979.8,1102.3 C981.34,1102.43 981.9,1102.54 982.56,1102.88 C983.84,1103.55 984.78,1104.49 985.05,1105.37 L985.38,1114.32 C985.59,1119.94 985.52,1125.69 985.18,1131.57 L996.87,1131.5 L997.06,1130.54 L994.89,1130.42 L994.45,1130.42 C990.51,1130.42 989.96,1130.02 989.73,1126.96 L989.53,1124.28 L989.53,1123.84 L989.34,1120.9 L989.34,1112.33 L989.39,1109.84 L989.39,1103.9 C989.39,1101.34 989.28,1101.22 987.03,1101.22 L978.26,1101.22 L977.76,1102.18 L978.33,1102.18 L978.33,1102.18 zM952.96,1111.51 C952.69,1115.57 952.72,1118.85 953.04,1121.03 C953.87,1125.85 955.81,1128.32 960.07,1129.98 C965.61,1132.14 967.26,1132.22 969.64,1130.42 L971.06,1129.39 L971.63,1128.88 L973.54,1127.29 C972.78,1127.42 972.02,1127.48 971.25,1127.48 C969.45,1127.52 967.87,1127.44 966.52,1127.23 C960.36,1126.27 958.27,1123.94 957.45,1117.13 C957.37,1116.31 957.33,1115.52 957.32,1114.76 L957.32,1114.19 L957.45,1109.52 C957.64,1105.53 958.04,1104.59 960.07,1103.39 L961.03,1103.45 L962.56,1103.65 C969.37,1104.36 973.21,1107.27 973.42,1111.89 L974.31,1111.82 C974.3,1110.81 974.26,1109.83 974.19,1108.88 C974.11,1105.32 974.14,1101.84 974.25,1098.47 L972.72,1099.69 L972.85,1101.41 L972.86,1103.14 L972.85,1104.03 C971.4,1101.79 969.53,1100.88 965.5,1100.45 C965.05,1100.43 964.6,1100.41 964.16,1100.39 C961.35,1101.37 959.2,1102.62 956.49,1104.86 L955.96,1105.32 L954.76,1106.39 L954.39,1106.74 L953.99,1107.09 L953.36,1107.73 C953.17,1109.02 953.04,1110.28 952.96,1111.51 L952.96,1111.51 zM912.45,1102.12 C917.49,1102.18 917.91,1102.43 918.12,1105.56 L918.34,1108.94 C918.55,1114.34 918.51,1119.95 918.22,1125.43 L917.9,1131.57 L928.12,1131.57 L928.69,1130.48 C928.17,1130.62 927.62,1130.66 927.03,1130.61 C922.78,1130.36 922.3,1129.27 922.51,1120.45 L922.57,1118.15 L922.57,1117.64 C922.7,1115.81 922.83,1114.84 923.06,1113.99 C924.33,1109.36 925.63,1106.72 927.67,1104.6 C929.25,1103.81 930.52,1104.08 933.68,1105.88 C936.02,1107.32 936.89,1108.84 937.64,1112.84 L937.95,1117.31 C937.95,1118.4 937.9,1119.44 937.83,1120.45 L937.19,1128.69 L937.12,1129.84 L936.87,1132.92 C937.5,1132.13 937.88,1131.58 938.4,1130.75 L938.53,1130.54 L939.75,1128.44 L939.87,1128.18 C940.51,1127.36 941.28,1126.48 941.73,1126.07 L941.85,1123.9 C943.14,1107.82 941,1102.79 931.95,1100.66 L929.97,1100.2 L929.72,1100.13 C929.33,1100.12 928.82,1100.14 928.18,1100.2 C927.12,1100.94 927,1101.14 925.82,1104.1 L925.72,1104.34 L925.63,1104.6 L922.82,1111.25 L923.07,1103.51 L922.96,1103.01 L922.88,1102.75 C922.54,1101.98 921.95,1101.47 921.09,1101.22 L912.39,1101.22 L912.01,1102.12 L912.45,1102.12 L912.45,1102.12 zM888.76,1108.88 L888.94,1107.29 C889.14,1105.18 889.37,1104.63 890.42,1103.71 C892.48,1103.23 894.5,1103.46 898.15,1104.6 C901.03,1105.56 902.69,1106.78 903.97,1108.88 L888.76,1108.88 L888.76,1108.88 zM884.03,1110.23 L883.96,1111.12 L883.85,1112.31 L883.77,1113.42 C883.49,1116.63 883.49,1118.96 883.77,1120.7 C884.68,1127.09 887.7,1129.75 895.72,1131.25 C896.55,1131.39 897.38,1131.49 898.22,1131.57 C901.06,1129.99 903.94,1128.12 905.18,1127.03 L898.09,1127.09 C897.64,1127.05 897.19,1127.01 896.74,1126.97 C891.4,1126.17 889.06,1123.37 888.3,1116.87 C888.07,1114.85 888.16,1112.58 888.57,1110.23 C892.09,1110.09 895.46,1110.04 898.66,1110.1 C903.5,1110.18 905.51,1110.25 907.35,1110.42 C908.6,1110.49 908.96,1110.33 909.27,1109.59 L909.08,1109.01 L908.82,1108.05 C907.3,1103.56 904.51,1101.69 897.58,1100.5 C896.95,1100.39 896.29,1100.31 895.59,1100.26 C894.28,1100.84 893.02,1101.46 891.81,1102.1 C888.49,1103.87 887.01,1104.94 884.22,1107.6 C882.89,1108.88 882.5,1109.32 881.86,1110.35 L884.03,1110.23 L884.03,1110.23 zM858.67,1109.52 L860.32,1109.39 L860.32,1113.55 L860.45,1118.92 L860.52,1120.58 L860.52,1143.14 L861.09,1143.14 C861.15,1141.93 861.22,1140.71 861.28,1139.5 C861.8,1133.38 862.83,1128.33 864.55,1123.52 L864.22,1109.01 L865.38,1109.08 L865.82,1109.08 L867.49,1109.21 C870.59,1109.32 873.76,1109.34 877,1109.27 L877.96,1107.35 C873.43,1107.8 868.89,1107.92 864.34,1107.73 L864.34,1106.52 L864.42,1105.82 L864.89,1097.96 C865.43,1088.87 866.06,1088 871.57,1088.57 C872.8,1088.7 873.6,1089.51 874.25,1091.31 C874.7,1092.5 874.97,1094.68 875.14,1098.53 C875.2,1099.06 875.22,1099.59 875.21,1100.13 L876.17,1100.2 C875.8,1094.32 875.66,1088.1 875.85,1085.18 C875.53,1085.2 875.21,1085.22 874.89,1085.24 L874.27,1085.32 C868.96,1085.97 868.96,1085.97 864.92,1089.69 L864.34,1090.22 C862.59,1091.84 861.19,1093.36 859.95,1095.02 L860.34,1102.57 C860.54,1106.16 860.54,1106.16 859.3,1107.28 L858.34,1108.18 L857,1109.52 L858.67,1109.52 L858.67,1109.52 zM812.95,1111.51 C812.7,1115.54 812.73,1118.83 813.04,1121.03 C813.88,1125.85 815.82,1128.32 820.06,1129.98 C825.62,1132.14 827.27,1132.22 829.65,1130.42 L831.06,1129.39 L831.64,1128.88 L833.56,1127.29 C832.78,1127.42 832.02,1127.48 831.25,1127.48 C829.45,1127.52 827.87,1127.44 826.52,1127.23 C820.37,1126.27 818.28,1123.94 817.45,1117.13 C817.38,1116.31 817.34,1115.52 817.33,1114.76 L817.33,1114.19 L817.45,1109.52 C817.64,1105.53 818.04,1104.59 820.07,1103.39 L821.03,1103.45 L822.56,1103.65 C829.37,1104.36 833.22,1107.28 833.42,1111.89 L834.32,1111.82 C834.31,1110.81 834.27,1109.83 834.19,1108.88 C834.12,1105.32 834.14,1101.84 834.26,1098.47 L832.72,1099.69 L832.85,1101.41 L832.86,1103.15 L832.85,1104.03 C831.4,1101.79 829.54,1100.88 825.5,1100.45 C825.05,1100.43 824.6,1100.41 824.16,1100.39 C821.36,1101.37 819.21,1102.62 816.5,1104.86 L816,1105.29 L814.77,1106.39 L814.4,1106.74 L814,1107.09 L813.35,1107.73 C813.17,1109.02 813.03,1110.28 812.95,1111.51 L812.95,1111.51 zM796.55,1097.38 L801.03,1097.26 L801.22,1089.26 C799.87,1089.92 798.53,1090.66 797.19,1091.51 C796.74,1091.78 796.31,1092.06 795.92,1092.34 C795.96,1094.36 796.22,1096.45 796.55,1097.38 L796.55,1097.38 zM790.16,1102.18 L791.62,1102.3 C793.17,1102.43 793.72,1102.54 794.37,1102.88 C795.66,1103.55 796.61,1104.49 796.88,1105.37 L797.2,1114.32 C797.41,1119.94 797.34,1125.69 797,1131.57 L808.7,1131.5 L808.89,1130.54 L806.72,1130.42 L806.26,1130.42 C802.33,1130.42 801.79,1130.02 801.55,1126.96 L801.34,1124.28 L801.34,1123.84 L801.16,1120.9 L801.16,1112.33 L801.22,1109.84 L801.22,1103.9 C801.22,1101.35 801.11,1101.22 798.86,1101.22 L790.09,1101.22 L789.57,1102.18 L790.16,1102.18 L790.16,1102.18 zM755.46,1102.12 C760.5,1102.18 760.9,1102.43 761.08,1105.56 L761.35,1108.94 C761.55,1114.33 761.52,1119.95 761.26,1125.43 L761.16,1127.68 L760.9,1131.57 L771.13,1131.57 L771.7,1130.48 C771.18,1130.62 770.62,1130.66 770.03,1130.61 C765.79,1130.36 765.31,1129.28 765.52,1120.45 L765.57,1118.15 L765.57,1117.64 C765.7,1115.8 765.83,1114.84 766.06,1113.99 C767.34,1109.35 768.64,1106.71 770.67,1104.6 C772.26,1103.81 773.52,1104.08 776.68,1105.88 C779.03,1107.31 779.88,1108.82 780.64,1112.84 L780.97,1117.31 C780.95,1118.4 780.91,1119.44 780.83,1120.45 L780.2,1128.69 L780.13,1129.84 L779.87,1132.92 C780.55,1132.07 780.95,1131.49 781.48,1130.64 L781.54,1130.54 L782.75,1128.44 L782.89,1128.18 C783.52,1127.36 784.29,1126.48 784.73,1126.07 L784.85,1123.9 C786.15,1107.83 784,1102.79 774.95,1100.66 L772.98,1100.2 L772.72,1100.13 C772.34,1100.12 771.83,1100.14 771.19,1100.2 C770.12,1100.95 769.99,1101.17 768.82,1104.1 L768.72,1104.34 L768.63,1104.6 L765.82,1111.25 L766.07,1103.51 L765.96,1103.02 L765.88,1102.75 C765.54,1101.98 764.95,1101.47 764.09,1101.22 L755.4,1101.22 L755.01,1102.12 L755.46,1102.12 L755.46,1102.12 zM731.77,1108.88 L731.96,1107.29 C732.14,1105.18 732.37,1104.63 733.42,1103.71 C735.48,1103.23 737.5,1103.46 741.15,1104.6 C744.05,1105.57 745.7,1106.79 746.97,1108.88 L731.77,1108.88 L731.77,1108.88 zM727.03,1110.23 L726.98,1111.12 L726.77,1113.42 C726.49,1116.65 726.49,1118.97 726.78,1120.7 C727.69,1127.09 730.7,1129.75 738.73,1131.25 C739.56,1131.39 740.38,1131.49 741.22,1131.57 C744.06,1129.99 746.95,1128.12 748.18,1127.03 L741.09,1127.09 C740.64,1127.05 740.2,1127.01 739.75,1126.97 C734.4,1126.17 732.06,1123.38 731.31,1116.87 C731.08,1114.82 731.17,1112.54 731.57,1110.23 C735.09,1110.09 738.46,1110.04 741.67,1110.1 C746.5,1110.18 748.52,1110.26 750.35,1110.42 C751.61,1110.49 751.96,1110.33 752.27,1109.59 L752.08,1109.01 L751.83,1108.05 C750.3,1103.56 747.52,1101.69 740.59,1100.5 C739.96,1100.4 739.29,1100.31 738.59,1100.26 C737.28,1100.84 736.02,1101.45 734.82,1102.09 C731.51,1103.86 730.04,1104.93 727.23,1107.61 C725.86,1108.91 725.49,1109.35 724.86,1110.35 L727.03,1110.23 L727.03,1110.23 zM695.45,1111.51 C695.19,1115.55 695.22,1118.83 695.53,1121.03 C696.38,1125.86 698.31,1128.32 702.56,1129.98 C708.12,1132.14 709.75,1132.22 712.16,1130.43 L713.55,1129.39 L714.13,1128.88 L716.05,1127.29 C715.28,1127.42 714.51,1127.48 713.74,1127.48 C711.94,1127.52 710.37,1127.44 709.01,1127.23 C702.86,1126.27 700.77,1123.94 699.94,1117.13 C699.87,1116.31 699.83,1115.52 699.82,1114.76 L699.82,1114.19 L699.94,1109.52 C700.13,1105.53 700.53,1104.59 702.56,1103.39 L703.52,1103.45 L705.05,1103.65 C711.86,1104.36 715.71,1107.28 715.91,1111.89 L716.81,1111.82 C716.8,1110.81 716.75,1109.83 716.68,1108.88 C716.61,1105.32 716.63,1101.84 716.74,1098.47 L715.22,1099.69 L715.34,1101.41 L715.36,1103.15 L715.34,1104.03 C713.89,1101.78 712.03,1100.88 707.99,1100.45 C707.54,1100.43 707.1,1100.41 706.65,1100.39 C703.84,1101.37 701.69,1102.62 698.98,1104.86 L697.25,1106.39 L696.89,1106.74 L696.49,1107.09 L695.85,1107.73 C695.66,1109.02 695.53,1110.28 695.45,1111.51 L695.45,1111.51 zM663.64,1114.89 C664.09,1115.2 664.54,1115.48 664.99,1115.72 C666.47,1116.59 668.12,1117.19 669.78,1117.46 L675.01,1118.33 C680.59,1119.25 683.35,1121.84 682.24,1125.11 C681.35,1127.72 680.34,1128.18 675.92,1127.99 C674.97,1127.99 673.96,1127.9 672.47,1127.67 C665.51,1126.42 663.58,1123.96 663.58,1116.3 C663.57,1115.82 663.59,1115.35 663.64,1114.89 L663.64,1114.89 zM663.01,1113.61 L663.14,1121.41 L663.46,1127.73 L663.58,1129.01 C665.3,1130.21 667.07,1130.88 669.78,1131.38 C671.95,1131.77 674.14,1131.83 676.37,1131.57 C680.04,1128.76 683.79,1125.61 685.43,1123.97 C686.25,1120.57 684.19,1117.16 680.26,1115.41 C679.7,1115.2 679.1,1115.03 678.47,1114.9 L669.71,1113.1 C668.62,1112.92 667.55,1112.32 666.52,1111.32 C664.25,1109.11 664.39,1106.42 666.85,1104.69 C668,1103.88 669.86,1103.68 672.47,1104.08 C681,1105.38 683.02,1106.87 682.69,1111.57 C682.7,1111.81 682.68,1112.02 682.63,1112.2 L683.72,1112.27 C683.44,1108.86 683.33,1105.39 683.38,1101.85 C683.4,1100.31 683.44,1098.74 683.52,1097.13 L682.05,1097.19 L682.24,1102.04 C680.69,1101.59 679.07,1101.22 677.38,1100.95 C675.01,1100.57 672.71,1100.45 670.3,1100.58 L668.5,1101.98 C666.31,1103.83 664.24,1105.76 662.31,1107.8 C662.14,1108.38 662.11,1109.18 662.23,1110.19 C662.36,1111.2 662.68,1112.62 663.01,1113.61 L663.01,1113.61 z"/>  </g> </svg>