<svg xmlns="http://www.w3.org/2000/svg" xml:space="preserve" shape-rendering="geometricPrecision" text-rendering="geometricPrecision" image-rendering="optimizeQuality" fill-rule="evenodd" clip-rule="evenodd" xmlns:xlink="http://www.w3.org/1999/xlink" viewBox="0 0 885.83 679.47">  <g id="Layer_1">   <metadata id="FutureCorpID_Layer"/>    <path fill="#FFF600" d="M353.04,99.88 C351.52,100.31 349.36,102.89 346.57,107.63 C345.47,109.68 345.25,111.05 345.9,111.73 C346.17,112.03 346.74,112.2 347.61,112.24 C348.22,112.27 349.47,112.29 351.37,112.3 C352.52,112.31 354.19,112.31 356.38,112.31 C358.39,112.32 361.21,112.32 364.85,112.32 C368.82,112.32 374.62,112.32 382.25,112.32 L543.62,112.29 C544.51,112.08 545.03,111.72 545.2,111.21 C545.35,110.74 545.23,110.06 544.83,109.17 C544.4,108.21 543.56,106.8 542.31,104.95 C541.92,104.35 541.53,103.75 541.13,103.15 C540.03,101.47 539.23,100.5 538.75,100.25 C538.42,100.07 537.87,99.95 537.12,99.9 C536.66,99.87 536.02,99.84 535.17,99.82 C534.4,99.81 533.33,99.8 531.94,99.79 C530.43,99.78 528.23,99.78 525.34,99.78 C467.9,99.81 410.48,99.85 353.04,99.88 L353.04,99.88 zM326.63,121.91 C326.62,126.88 326.96,131.71 327.64,136.4 C328.93,143.91 333.27,148.54 340.67,150.28 C349.73,152.4 357.51,150.63 364,144.94 L369.47,138.16 C369.89,137.48 370.29,136.78 370.67,136.07 C373.61,139.65 376.47,142.59 379.24,144.88 C384.67,149.39 390.63,151.53 397.12,151.32 C403.61,151.1 409.38,148.59 414.44,143.77 L414.55,143.67 C416.82,141.45 418.81,138.94 420.54,136.14 C422.92,139.1 424.33,140.85 424.78,141.38 C425.09,141.75 425.4,142.08 425.69,142.37 C426.1,142.78 427.31,143.88 429.32,145.7 C434.09,149.81 439.75,151.69 446.3,151.34 C452.86,150.98 458.49,148.48 463.21,143.83 C465.19,141.88 467.02,139.76 468.69,137.49 C471.18,139.61 473.08,141.23 474.38,142.33 C475.58,143.35 476.51,144.14 477.18,144.71 C477.92,145.33 478.49,145.8 478.9,146.14 C479.57,146.69 480.11,147.1 480.49,147.36 C481.04,147.72 482.26,148.36 484.14,149.26 C488.64,151.22 493.52,151.75 498.78,150.87 C504.03,149.98 508.41,147.89 511.91,144.58 L516,138.93 C516.59,137.74 517.11,136.48 517.56,135.17 C520.69,139.03 523.75,142.27 526.74,144.89 C531.34,148.9 536.59,151.06 542.5,151.37 C548.41,151.67 553.34,150.06 557.28,146.52 L557.27,146.47 C561.65,142.36 563.78,136.64 563.67,129.28 L563.55,121.91 C484.58,121.91 405.6,121.91 326.63,121.91 L326.63,121.91 zM408.14,186.65 C405.29,187.2 402.89,188.1 400.94,189.35 C398.83,190.7 396.87,192.71 395.07,195.37 C393.9,197.23 393.08,199.25 392.61,201.41 C392.19,203.31 391.92,205.85 391.8,209.03 C391.65,212.64 391.66,218.27 391.82,225.92 L391.77,240.67 L498.05,240.64 L497.87,201.27 C497.26,197.76 495.17,194.34 491.59,191.03 C489.28,188.89 486.96,187.54 484.63,186.98 C482.79,186.54 479.89,186.25 475.94,186.12 C474.05,186.05 471.67,186.01 468.8,185.98 C466.05,185.96 462.61,185.95 458.48,185.96 C454.16,185.97 448.66,186 442,186.04 C434.86,185.96 427.72,185.89 420.58,185.82 C415.36,185.78 411.21,186.05 408.14,186.65 L408.14,186.65 zM459.09,176.3 C468.24,176.32 474.34,176.38 477.4,176.47 C479.87,176.54 481.81,176.68 483.21,176.87 C484.95,177.1 486.97,177.61 489.28,178.37 C495.55,180.67 500.33,184.58 503.64,190.11 C505.31,192.92 506.41,195.23 506.93,197.04 C507.36,198.52 507.64,200.38 507.76,202.62 C507.92,205.34 507.94,210.36 507.81,217.69 C507.59,231.47 507.65,238.73 507.99,239.47 C508.21,239.94 508.4,240.21 508.55,240.28 C508.66,240.33 508.85,240.37 509.12,240.39 C509.51,240.43 510.98,240.48 513.52,240.56 C515.17,240.66 516.61,241.32 517.84,242.54 C519.07,243.75 519.54,244.98 519.27,246.22 C518.62,249.14 515.27,250.47 509.24,250.19 L375.03,250.05 C373.74,249.73 372.84,248.87 372.32,247.48 C371.8,246.09 371.85,244.66 372.47,243.2 C373.28,241.26 375.59,240.38 379.39,240.53 C381.43,240.62 382.65,239.87 383.03,238.29 L382.97,208.24 C382.96,203.2 383.5,198.92 384.61,195.41 C385.67,192.04 387.3,189.1 389.52,186.6 C391.83,184 394.95,181.66 398.9,179.57 C401.73,178.18 404.51,177.31 407.25,176.95 C409.39,176.68 412.79,176.49 417.44,176.4 C419.7,176.36 422.58,176.33 426.06,176.31 C429.39,176.29 433.58,176.28 438.65,176.28 C443.97,176.28 450.78,176.28 459.09,176.3 L459.09,176.3 zM341.09,160.19 C340.18,160.08 339.35,159.86 338.6,159.53 C336.35,158.52 335.15,159.73 334.97,163.16 L335.31,297.2 C335.68,297.98 336.2,298.49 336.87,298.72 C337.54,298.94 338.22,298.84 338.91,298.42 C339.57,298.02 340.02,297.63 340.28,297.25 C340.49,296.95 340.7,296.5 340.92,295.9 C341.19,295.13 341.71,293.48 342.47,290.95 C345.57,280.58 353.09,273.59 365.04,269.97 C374.11,267.23 382.85,267.98 391.28,272.23 C399.7,276.49 405.31,282.95 408.09,291.63 C408.84,293.98 409.38,296.41 409.7,298.91 L480.26,298.91 C481.33,295.05 481.97,292.78 482.17,292.1 C482.32,291.62 482.47,291.21 482.61,290.86 C482.82,290.36 483.44,289.03 484.49,286.87 C489.04,277.92 496.36,272.15 506.47,269.55 C516.57,266.94 525.98,268.41 534.69,273.94 C542.43,279.11 547.22,285.97 549.04,294.52 C549.76,297.61 551.18,299.05 553.3,298.83 C554.81,298.67 555.56,296.74 555.56,293.02 C555.57,255.65 555.58,218.28 555.57,180.9 L555.57,159.9 L539.68,160.27 C534.37,159.9 529.3,158.24 524.47,155.28 C522.55,154.1 520.69,152.8 518.91,151.39 L509.67,157.25 C498.03,162.7 486.53,162.02 475.17,155.21 C473.32,154.1 471.52,152.89 469.78,151.57 L459.3,157.89 C448.07,162.71 437.1,161.83 426.39,155.24 C424.54,154.1 422.72,152.9 420.92,151.66 L409.95,157.84 C404.81,160.03 399.06,160.83 392.7,160.24 C386.34,159.64 380.84,157.78 376.18,154.65 C374.61,153.6 373.1,152.47 371.64,151.25 L362.16,157.33 C356.89,159.69 349.86,160.64 341.09,160.19 L341.09,160.19 zM541.39,90.18 C542.21,90.29 542.84,90.44 543.29,90.62 L543.27,90.67 C544.31,90.98 545.04,91.36 545.46,91.83 C545.76,92.16 546.21,92.8 546.8,93.75 C547.15,94.29 547.62,95.06 548.22,96.05 C548.77,96.97 549.53,98.23 550.49,99.83 C551.52,101.56 552.98,104.01 554.87,107.18 C556.27,109.73 557.27,111.2 557.88,111.58 C558.3,111.84 558.99,112.01 559.95,112.09 C560.53,112.14 561.35,112.17 562.42,112.18 C563.4,112.19 564.77,112.2 566.52,112.19 C568.44,112.19 571.24,112.17 574.92,112.15 C577.69,112.14 579.61,112.27 580.67,112.55 C581.58,112.79 582.21,113.22 582.56,113.83 C582.97,114.53 583.15,115.81 583.09,117.64 C583.01,120.15 580.74,121.5 576.28,121.68 C575.61,121.74 574.98,121.9 574.41,122.14 C573.84,122.38 573.44,122.66 573.21,122.98 C572.99,123.31 572.86,123.6 572.83,123.87 C572.8,124.06 572.79,124.42 572.78,124.94 C572.76,125.68 572.72,128.47 572.66,133.31 C572.58,139.45 570.53,145.36 566.53,151.05 C566.18,199.53 565.83,248.01 565.48,296.49 C565.94,297.81 567.06,298.62 568.84,298.9 C569.95,299.07 570.93,299.7 571.76,300.78 C572.59,301.87 572.83,302.83 572.5,303.67 C571.86,305.28 571.37,306.3 571.02,306.73 C570.74,307.06 570.38,307.29 569.93,307.42 C569.35,307.57 568.07,307.66 566.09,307.69 C563.17,307.66 560.94,307.64 559.42,307.62 C558.02,307.61 556.94,307.61 556.16,307.61 C555.31,307.61 554.65,307.62 554.19,307.63 C553.44,307.65 552.89,307.71 552.55,307.81 C552.07,307.96 551.29,308.51 550.21,309.47 C549.9,309.74 549.71,309.95 549.64,310.08 C549.6,310.17 549.54,310.33 549.49,310.55 C549.41,310.86 549.16,312.01 548.75,314 C546.99,320.81 542.95,326.57 536.64,331.27 C530.32,335.97 523.41,338.36 515.9,338.45 C500.74,338.23 490.09,331.45 483.95,318.12 C482.51,314.98 481.28,311.46 480.27,307.58 L410.31,307.59 L407.34,317.66 C403.8,325.69 398,331.55 389.95,335.22 C381.9,338.89 373.67,339.4 365.29,336.73 C353.98,333.15 346.46,326.3 342.72,316.19 L341,310.67 C340.26,308.52 338.32,307.49 335.17,307.57 L321.19,307.66 C318.88,307.68 317.25,307.61 316.33,307.46 C315.54,307.33 314.94,307.08 314.53,306.72 C314.05,306.29 313.63,305.51 313.28,304.36 C312.81,302.83 313.05,301.53 313.99,300.48 C314.93,299.43 316.37,298.85 318.3,298.76 C319.03,298.73 320,298.74 321.22,298.8 C322.72,298.88 323.76,298.73 324.34,298.36 C324.84,298.04 325.18,297.46 325.37,296.62 C325.58,295.65 325.67,293.91 325.62,291.39 L325.45,153.67 C325.34,153.09 325.24,152.7 325.15,152.51 C325.09,152.38 324.98,152.18 324.82,151.93 C324.58,151.56 323.71,150.26 322.2,148.02 C320.97,146.01 320.09,144.2 319.55,142.58 C319.08,141.15 318.75,139.49 318.56,137.6 C318.35,135.47 318.25,132.4 318.26,128.38 C318.27,125.3 318.2,123.47 318.05,122.89 C317.95,122.46 317.73,122.17 317.39,122.03 C316.94,121.84 315.52,121.73 313.14,121.7 C310.99,121.58 309.34,120.82 308.2,119.41 C307.06,118 306.85,116.47 307.58,114.83 C308.1,113.68 308.69,112.97 309.36,112.69 C309.88,112.48 310.76,112.34 312.01,112.27 C313.63,112.19 317.68,112.17 324.15,112.23 C328.49,112.26 331.03,112.2 331.78,112.05 C332.31,111.94 332.76,111.7 333.13,111.33 C333.65,110.8 334.97,108.77 337.11,105.24 L345.18,91.88 C345.84,91.25 346.66,90.81 347.65,90.56 C348.53,90.34 349.77,90.19 351.39,90.11 C353.23,90.02 356.2,89.97 360.3,89.98 C420.66,90.07 481.03,90.13 541.39,90.18 L541.39,90.18 zM600.26,38.12 C650.76,64.13 692.18,100.82 724.53,148.18 C756.88,195.55 775.95,247.42 781.73,303.8 C782.92,315.43 783.55,326.79 783.6,337.89 C783.87,341.46 783.18,343.15 781.52,342.96 C780.74,342.87 780.27,342.67 780.13,342.36 C780.02,342.13 779.95,341.69 779.92,341.02 C779.89,340.12 779.9,337.35 779.95,332.71 C780.02,326.97 779.4,318.13 778.1,306.19 C776.79,294.24 775.38,284.45 773.86,276.8 C764.93,231.86 748.2,190.95 723.68,154.07 C699.15,117.19 667.85,85.92 629.77,60.27 C587,31.45 538.83,13.5 485.27,6.42 C462.89,3.46 441.69,2.86 421.66,4.62 C411.88,5.49 405.2,6.11 401.62,6.5 C398.75,6.82 396.09,7.17 393.64,7.55 C390.57,8.03 385.55,8.95 378.57,10.31 C317.28,22.21 263.09,49.97 216,93.58 C168.91,137.2 137.07,189.14 120.5,249.4 C112.07,280.04 107.9,311.5 108,343.79 C108.01,348.78 108.01,351.66 108,352.41 C107.99,352.94 107.96,353.3 107.92,353.48 C107.86,353.73 107.63,353.92 107.23,354.07 C106.61,354.29 106,354.03 105.41,353.28 C104.82,352.54 104.46,351.58 104.33,350.4 C104.17,348.96 104.15,344.31 104.28,336.46 C104.41,328.61 104.59,323.1 104.84,319.91 C107.91,279.7 116.2,243.3 129.71,210.7 C159.13,139.71 206.69,84.98 272.41,46.52 C322.76,17.06 376.97,1.59 435.06,0.12 C493.15,-1.36 548.22,11.31 600.26,38.12 L600.26,38.12 zM359.61,283.01 C354.12,287.22 350.87,292.92 349.87,300.11 C349.05,307.33 350.78,313.69 355.06,319.19 C359.35,324.69 365.13,327.96 372.39,329.01 C378.25,329.67 383.69,328.36 388.72,325.08 C393.74,321.8 397.27,317.23 399.3,311.38 C401.2,305.88 401.23,300.46 399.38,295.09 C397.53,289.72 394.17,285.45 389.3,282.29 C385.59,279.88 382.03,278.47 378.62,278.05 C371.42,277.17 365.09,278.82 359.61,283.01 L359.61,283.01 zM377.51,289.53 C383.83,291.03 387.6,294.97 388.82,301.35 C389.3,304.79 388.72,307.9 387.1,310.68 C385.47,313.46 383.11,315.36 380.02,316.37 C375.17,317.81 370.98,317.32 367.44,314.88 C363.91,312.45 361.99,308.74 361.68,303.74 C361.61,299.74 362.72,296.43 365.03,293.81 C367.33,291.19 370.47,289.67 374.44,289.25 C375.37,289.22 376.4,289.31 377.51,289.53 L377.51,289.53 zM370.85,302.34 C370.52,303.07 370.66,303.99 371.27,305.11 C371.88,306.23 372.69,307.04 373.69,307.54 C374.53,307.97 375.49,307.92 376.57,307.41 C377.64,306.9 378.42,306.12 378.89,305.07 C379.45,303.85 379.44,302.65 378.89,301.49 C378.34,300.33 377.39,299.53 376.06,299.08 C375.09,298.76 374.13,298.9 373.17,299.5 C372.2,300.1 371.43,301.05 370.85,302.34 L370.85,302.34 zM276.07,343.25 C277.13,343.35 277.73,343.46 277.88,343.57 C278.52,344.02 278.98,345.03 279.23,346.57 C279.39,347.4 279.71,348.18 280.19,348.92 C280.68,349.65 281.13,350.05 281.56,350.11 C282.59,350.26 283.52,348.44 284.34,344.65 C284.5,343.91 284.69,343.49 284.91,343.38 C285.06,343.3 285.37,343.24 285.82,343.21 C286.46,343.17 288.9,343.11 293.14,343.03 C296.14,342.89 297.37,343.81 296.81,345.82 L291.45,361.28 C291.1,361.76 290.76,362.03 290.43,362.11 C290.21,362.16 289.78,362.19 289.16,362.2 C288.27,362.23 284.92,362.25 279.12,362.26 C275.76,362.27 273.81,362.22 273.27,362.11 C272.88,362.04 272.59,361.87 272.39,361.61 C272.11,361.25 271.53,359.85 270.66,357.41 C270.06,355.73 269.35,353.72 268.54,351.4 L266.04,344.22 C265.96,343.67 266.11,343.31 266.51,343.15 C266.72,343.06 267.38,343 268.49,342.97 C269.59,342.95 270.87,342.96 272.31,343.01 C273.76,343.07 275.01,343.14 276.07,343.25 L276.07,343.25 zM280.53,462.71 C290.99,457.58 296.97,447.52 298.46,432.51 C300.42,412.7 297.86,397.96 290.79,388.29 C289.98,387.19 289.2,386.23 288.43,385.42 C285.75,382.76 282.45,380.66 278.52,379.12 L271.57,376.39 L272.51,465.25 C275.34,464.71 277.84,463.94 280.01,462.94 L280.53,462.71 L280.53,462.71 zM270.14,367.64 C275.14,368.24 279.27,369 282.54,369.94 C285.6,370.82 288.31,371.97 290.67,373.38 C293.17,374.89 295.63,376.91 298.04,379.44 C304.48,386.49 308.66,396.24 310.58,408.69 C312.49,421.14 311.67,433.41 308.11,445.49 C305.87,453.12 302.69,459.15 298.58,463.58 C294.57,467.92 289.51,470.94 283.41,472.65 C277.17,474.41 269.54,474.87 260.52,474.05 C260,438.68 259.48,403.3 258.96,367.92 C262.32,367.57 264.29,367.37 264.9,367.33 C265.33,367.3 265.71,367.29 266.06,367.3 C266.55,367.32 267.91,367.43 270.14,367.64 L270.14,367.64 zM206.31,368.21 C207.37,368.24 207.95,368.27 208.06,368.31 C208.27,368.38 208.44,368.48 208.57,368.61 C208.74,368.76 208.84,368.96 208.86,369.19 C208.89,369.38 208.9,369.74 208.91,370.29 C208.93,371.07 208.96,374.04 209,379.19 L209.54,399.23 C209.59,414.48 209.65,429.72 209.7,444.96 L210.24,463.63 C210.62,476.58 206.51,484.67 197.92,487.91 C194.44,489.15 190.75,489.6 186.84,489.27 C186.33,489.22 185.94,489.08 185.7,488.83 C185.53,484.6 185.46,482.17 185.48,481.54 C185.5,481.09 185.56,480.8 185.67,480.65 C185.83,480.45 186.46,480.33 187.56,480.28 C193.54,480.02 196.87,478.18 197.56,474.78 C197.77,473.47 197.89,471.97 197.89,470.3 C197.9,469.11 197.87,466.79 197.82,463.34 C197.79,461.26 197.74,458.24 197.68,454.27 C197.62,450.64 197.53,445.55 197.42,438.99 C197.3,431.82 197.12,421.36 196.89,407.61 C196.74,399.32 196.64,393.02 196.57,388.71 C196.5,384.76 196.45,381.69 196.42,379.52 C196.38,377.13 196.36,375.32 196.34,374.08 C196.32,372.02 196.33,370.67 196.37,370.02 C196.42,369.09 196.68,368.54 197.14,368.34 C197.23,368.3 197.8,368.27 198.85,368.23 C199.89,368.2 201.13,368.19 202.57,368.18 C204.01,368.18 205.25,368.19 206.31,368.21 L206.31,368.21 zM145.87,408.27 C147.08,419.36 147.1,429.96 145.92,440.07 C144.73,450.18 142.57,458.02 139.42,463.59 C133.35,474.31 125.23,477.81 115.04,474.08 C107.45,471.09 101.81,462.42 98.13,448.07 C95.75,438.81 94.78,427.93 95.22,415.44 C95.65,402.95 97.35,392.95 100.32,385.46 C104.89,373.92 111.91,368.35 121.38,368.76 L121.24,368.68 C134.86,369.5 143.07,382.7 145.87,408.27 L145.87,408.27 zM113.31,384.49 C112.86,384.95 112.54,385.33 112.34,385.65 C112.05,386.09 111.55,387.22 110.85,389.02 C109.1,393.97 108.08,403.16 107.76,416.58 C107.45,430.01 108.05,440.07 109.56,446.78 C111.06,453.45 113.77,458.67 117.68,462.46 L121.76,466.41 L128.58,459.69 C130.05,457.64 131.15,455.08 131.87,451.99 C132.52,449.19 133,445.4 133.31,440.62 C133.65,435.37 133.84,427.71 133.89,417.66 C133.93,410.68 133.64,404.96 133.03,400.49 C132.46,396.24 131.54,392.66 130.27,389.75 C128.94,386.68 127.05,383.99 124.62,381.7 C123.33,380.48 121.99,379.34 120.59,378.27 L120.7,378.22 L120.24,377.85 C116.25,381.63 113.94,383.84 113.31,384.49 L113.31,384.49 zM20.94,370.54 C21.87,370.64 23.85,371.06 26.86,371.81 C33.12,373.35 38.38,375.96 42.66,379.62 C51.37,387.49 54.34,396.81 51.56,407.58 C48.28,419.27 38.36,427.13 21.79,431.15 L14.05,433.03 C14.35,447.04 14.65,461.04 14.95,475.05 C14.81,475.73 14.56,476.17 14.19,476.37 C13.9,476.53 13.4,476.63 12.67,476.68 C11.78,476.73 9.83,476.73 6.85,476.68 C4.62,476.68 3.34,476.61 3,476.45 C2.77,476.34 2.61,476.12 2.54,475.76 C2.44,475.27 2.4,473.36 2.42,470.04 L-0,370.54 C4.44,370.49 7.82,370.46 10.14,370.44 C12.27,370.42 13.93,370.41 15.12,370.41 C16.43,370.4 17.44,370.4 18.16,370.41 C19.36,370.42 20.29,370.46 20.94,370.54 L20.94,370.54 zM13.82,424.21 L28.87,417.63 C35.62,413.62 39.3,408.56 39.89,402.46 C40.49,396.35 37.83,391.08 31.9,386.66 C28.84,384.47 25.25,382.65 21.13,381.22 L20.95,381.16 C18.08,380.16 15.21,379.16 12.34,378.15 C12.83,393.51 13.33,408.86 13.82,424.21 L13.82,424.21 zM260.57,530.01 C261.29,530.65 262.62,531.94 264.56,533.88 L274.02,542.13 C276.49,544.28 278.37,545.92 279.66,547.04 C280.83,548.06 281.75,548.86 282.42,549.43 C283.14,550.06 283.69,550.54 284.08,550.87 C284.73,551.42 285.2,551.81 285.5,552.05 C285.92,552.38 286.66,552.87 287.71,553.54 C288.46,554.02 289.18,554.63 289.85,555.39 C290.52,556.15 290.83,556.68 290.77,556.99 C290.66,557.59 290.16,557.7 289.28,557.31 L279.55,549.86 C278.51,549.09 277.81,548.54 277.47,548.2 C276.68,547.4 275.87,547.37 275.05,548.1 C274.47,548.61 273.35,549.83 271.71,551.75 C270.72,552.9 269.28,554.61 267.4,556.86 C265.67,558.92 263.25,561.82 260.13,565.56 C256.73,569.65 251.76,575.62 245.22,583.47 C242.4,587.27 240.04,588.69 238.13,587.72 C236.13,586.71 236.49,584.53 239.23,581.18 L268.96,546 C270.01,544.67 270.57,543.86 270.63,543.57 C270.68,543.37 270.62,543.14 270.44,542.89 C270.2,542.53 269.1,541.37 267.14,539.42 C264.4,536.67 262.81,535.09 262.37,534.65 C262.05,534.35 261.81,534.13 261.65,533.99 C261.41,533.8 260.93,533.49 260.21,533.05 C259.55,532.65 258.98,532.08 258.51,531.34 C258.03,530.6 257.84,530 257.94,529.54 C257.96,529.4 258.03,529.29 258.12,529.21 C258.45,528.92 258.81,528.86 259.19,529.02 C259.51,529.15 259.96,529.48 260.57,530.01 L260.57,530.01 zM301.39,575.03 C299.56,576.29 298.31,577.2 297.64,577.79 C297.13,578.23 296.52,578.82 295.82,579.57 C294.89,580.57 292.66,583.08 289.13,587.1 C287.6,588.74 286.62,589.83 286.19,590.38 C285.86,590.81 285.65,591.17 285.58,591.46 C285.49,591.81 285.58,592.29 285.83,592.89 C285.99,593.26 286.22,593.55 286.53,593.77 C286.75,593.93 287.19,594.2 287.85,594.6 C288.25,594.84 288.83,595.18 289.59,595.63 C290.3,596.04 291.28,596.62 292.54,597.36 C293.92,598.17 295.94,599.36 298.58,600.94 C300.55,602.11 301.9,602.86 302.61,603.18 C303.2,603.45 303.66,603.57 304,603.54 C304.42,603.51 304.89,603.22 305.4,602.67 C305.8,602.24 306.53,600.87 307.59,598.55 C308.64,596.24 309.78,593.53 310.99,590.42 C312.2,587.32 313.2,584.55 314,582.12 C314.79,579.69 315.19,578.17 315.19,577.56 C315.14,575.26 314.15,573.57 312.22,572.48 C309.72,571.08 306.11,571.93 301.39,575.03 L301.39,575.03 zM314.29,571.14 C316.84,572.24 318.36,574.27 318.83,577.22 C319.29,580.12 318.77,584.03 317.28,588.95 C315.75,593.97 313.13,600.25 309.43,607.79 C307.64,611.44 305.64,615.44 303.43,619.79 C301.22,624.13 300.06,626.36 299.95,626.46 C299.51,626.86 298.64,626.9 297.33,626.59 C296.02,626.27 295.19,625.82 294.85,625.23 C294.52,624.66 294.41,624.18 294.52,623.79 C294.6,623.51 294.82,623.01 295.18,622.29 C295.4,621.85 295.73,621.22 296.16,620.4 C296.56,619.64 297.11,618.58 297.83,617.23 C298.61,615.74 299.76,613.57 301.26,610.72 C302.5,608.36 303.12,606.94 303.11,606.48 C303.1,606.15 302.9,605.82 302.51,605.49 C301.94,605.02 299.58,603.57 295.42,601.14 C292.16,599.24 290.27,598.13 289.74,597.82 C289.37,597.6 289.08,597.43 288.89,597.3 C288.6,597.12 288.03,596.71 287.15,596.08 C284.81,594.55 282.67,595.3 280.75,598.33 L275.33,606.89 C274.18,608.7 273.38,609.8 272.92,610.19 C272.56,610.49 272.16,610.6 271.74,610.53 C271.19,610.44 270.09,609.9 268.42,608.92 C267.93,608.32 267.77,607.69 267.95,607.05 C268.1,606.52 268.51,605.72 269.19,604.66 C270.03,603.35 271.88,600.7 274.75,596.72 C276.54,594.36 277.61,592.87 277.97,592.24 C278.24,591.76 278.35,591.38 278.29,591.1 C278.21,590.74 277.7,590.21 276.77,589.51 C275.32,588.5 274.66,587.72 274.79,587.19 C274.83,587.02 274.91,586.89 275.03,586.78 C275.52,586.33 276.59,586.76 278.25,588.06 L278.28,588.09 C279,588.61 279.57,588.85 279.98,588.82 C280.32,588.8 280.73,588.6 281.22,588.23 C281.81,587.77 282.9,586.73 284.5,585.09 C289.14,580.37 293.14,576.83 296.51,574.48 C299.72,572.25 302.7,570.85 305.45,570.3 C308.33,569.71 311.28,569.99 314.29,571.14 L314.29,571.14 zM319.99,635.68 C328.18,637.86 335.21,635.27 341.08,627.91 C344.31,623.71 346.58,618.69 347.91,612.86 C349.23,607.03 349.28,601.84 348.04,597.29 C346.53,592.15 344.25,588.72 341.21,587 L340.9,586.82 C340.36,586.54 339.81,586.28 339.26,586.02 C338.1,585.52 336.92,585.09 335.71,584.72 L313.2,632.61 C315.38,633.94 317.45,634.91 319.41,635.51 L319.99,635.68 L319.99,635.68 zM339.35,583.72 C345.38,586.15 349.6,590.52 352.01,596.8 C354.41,603.11 354.58,610.24 352.5,618.2 C348.91,631.01 341.35,637.66 329.82,638.17 C322.15,638.35 316.17,636.74 311.89,633.34 C310.32,631.9 309.4,630.07 309.13,627.84 C308.87,625.68 309.2,623.02 310.13,619.85 C311.08,616.57 312.74,612.54 315.11,607.75 C322.26,593.32 327.71,585.19 331.47,583.36 C333.73,582.46 336.35,582.58 339.35,583.72 L339.35,583.72 zM375.39,593.63 C375.54,594 375.5,594.49 375.28,595.09 C375.03,595.78 374.45,596.82 373.56,598.23 C371.73,601.44 370.22,605 369.03,608.9 C367.83,612.8 367.41,615.57 367.74,617.22 C368.1,618.94 369.01,620.35 370.5,621.47 C371.98,622.59 373.52,623.03 375.12,622.79 C380.71,621.57 386.17,614.44 391.5,601.39 C393.08,597.88 394.78,596.98 396.58,598.68 C397,599.08 397.25,599.49 397.32,599.9 C397.38,600.25 397.36,600.75 397.26,601.42 C397.14,602.24 396.81,603.83 396.28,606.21 C395.26,612.06 394.21,617.92 393.14,623.77 C389.04,646.18 379.88,655.33 365.66,651.21 C362.3,650.12 359.65,648.03 357.72,644.95 C355.78,641.87 354.91,638.36 355.1,634.41 C355.23,633 355.66,631.85 356.38,630.95 C357.11,630.05 357.89,629.7 358.74,629.89 C360.68,630.33 360.95,631.81 359.54,634.34 C358.09,636.94 358.24,639.88 360.01,643.17 C361.78,646.46 364.28,648.46 367.53,649.16 C377.13,651.25 383.91,642.17 387.86,621.92 C388.16,620.4 388.53,618.83 388.99,617.22 C389.14,616.58 389.17,615.98 389.08,615.41 C388.98,614.84 388.78,614.42 388.47,614.16 C387.92,613.69 387.32,613.95 386.66,614.92 C384.36,618.65 382.02,621.25 379.64,622.74 C375.41,625.18 371.14,625.18 366.83,622.72 C362.75,620.18 361.54,615.7 363.2,609.27 C363.84,606.81 364.96,603.74 366.58,600.06 C367.78,597.33 368.75,595.39 369.49,594.25 C370.16,593.22 370.8,592.57 371.42,592.29 C372.11,591.97 372.97,592.04 374,592.5 C374.76,592.84 375.22,593.22 375.39,593.63 L375.39,593.63 zM453.79,614.01 C454.09,614.96 453.9,615.58 453.21,615.87 C451.71,616.52 450.63,615.63 449.97,613.21 C449.67,612.23 448.87,611.07 447.55,609.74 C446.24,608.41 445.07,607.58 444.06,607.24 C441.95,606.54 439.31,608.17 436.13,612.14 L436.11,612.08 C432.09,617.54 429.76,625.46 429.14,635.85 C428.52,646.24 429.95,653.31 433.43,657.07 C437.05,660.72 440.63,661.19 444.17,658.49 C448.48,654.79 451.04,650.7 451.85,646.24 C452.19,644.37 453.08,643.59 454.53,643.89 C456.45,644.29 456.76,645.78 455.44,648.35 C454.13,651.17 453.08,653.18 452.3,654.39 C451.63,655.42 450.9,656.28 450.09,656.99 C449.14,657.83 447.63,658.84 445.57,660.01 C443,661.35 440.17,661.97 437.09,661.88 C434.01,661.8 431.47,661.01 429.48,659.54 C426.01,656.79 423.73,652.4 422.64,646.36 C421.54,640.32 421.86,633.78 423.61,626.73 C426.83,613.75 432.34,606.71 440.14,605.6 C446.97,604.9 451.52,607.7 453.79,614.01 L453.79,614.01 zM739.71,503.51 C740.12,504.25 740.15,505.18 739.8,506.33 C739.49,507.35 738.81,508.78 737.76,510.64 C736.58,512.73 734.56,515.99 731.69,520.43 C708.24,556.75 679.89,587.4 646.63,612.41 C617.66,634.19 585.42,650.88 549.91,662.48 C509.02,675.83 467.34,681.32 424.85,678.93 C382.36,676.54 341.58,666.44 302.49,648.61 C258.84,628.7 220.57,600.09 187.69,562.78 C178.91,552.81 169.71,540.62 160.1,526.22 C158.53,523.99 157.86,521.63 158.08,519.13 C158.13,518.6 158.24,518.18 158.43,517.88 C158.61,517.58 158.81,517.46 159.04,517.54 L164.43,525.6 C187.16,559.62 215.77,589.02 250.28,613.81 C278.91,634.38 310.66,650.02 345.55,660.73 C380.43,671.45 415.81,676.41 451.68,675.64 C456.23,675.54 461.8,675.23 468.42,674.72 C475.04,674.21 480.38,673.67 484.46,673.11 L484.52,673.08 C547.11,665.13 602.39,642.21 650.34,604.3 C684.55,577.24 712.28,545.71 733.5,509.69 L737.34,503.19 C738.28,502.27 739.07,502.38 739.71,503.51 L739.71,503.51 zM489.28,600.82 C489.49,601.02 489.65,601.35 489.77,601.83 C489.92,602.41 490.08,603.6 490.26,605.39 C490.42,606.42 490.74,608.24 491.22,610.87 C491.71,613.5 492.24,616.32 492.82,619.33 C493.4,622.35 493.9,624.86 494.32,626.88 C494.73,628.9 494.97,629.95 495.02,630.05 C495.13,630.22 495.22,630.34 495.29,630.39 C495.33,630.43 495.42,630.48 495.54,630.55 C495.71,630.64 496.36,630.98 497.48,631.56 C498.29,631.97 498.11,632.71 496.93,633.78 C496.38,634.31 496.08,634.96 496.02,635.73 C495.97,636.37 496.05,637.36 496.26,638.72 C496.52,640.37 497.14,643.58 498.15,648.36 C498.64,650.72 498.93,652.44 499,653.5 C499.06,654.43 498.98,655.14 498.76,655.64 C498.5,656.2 497.96,656.67 497.14,657.03 C494.89,658.02 493.4,656.5 492.66,652.48 C492.09,649.4 491.69,647.17 491.48,645.8 C491.29,644.63 491.15,643.64 491.06,642.82 C490.95,641.87 490.86,640.76 490.79,639.5 C490.55,637.33 490.13,635.99 489.55,635.49 C489.09,635.1 488.27,634.93 487.11,634.97 C485.62,635.01 482.19,635.51 476.82,636.47 C476.37,636.53 475.37,636.53 473.81,636.47 C472.4,636.44 471.53,636.74 471.18,637.35 C470.9,637.84 470.77,638.77 470.8,640.13 C470.83,641.83 471.16,645.55 471.78,651.29 L472.48,656.48 C472.49,659.03 471.41,660.39 469.25,660.54 C466.87,660.71 465.67,657.4 465.67,650.62 C465.34,645.14 465.13,641.97 465.04,641.12 C464.98,640.51 464.9,640.09 464.8,639.83 C464.66,639.47 464.16,638.93 463.31,638.21 C462.26,637.32 462.36,636.31 463.62,635.19 C464.15,634.66 464.44,634.07 464.48,633.39 C464.51,632.9 464.48,631.99 464.39,630.64 C464.33,629.87 464.25,628.8 464.13,627.42 C464.03,626.13 463.88,624.38 463.69,622.17 C463.48,619.77 463.19,616.41 462.81,612.06 C462.74,608.76 462.74,606.53 462.83,605.39 C462.91,604.43 463.07,603.77 463.31,603.41 C463.6,602.97 464.17,602.75 465.04,602.76 C465.83,602.77 466.41,603.04 466.8,603.57 C467.14,604.05 467.41,604.84 467.6,605.96 C467.81,607.21 467.98,609.2 468.11,611.93 C468.77,618.67 469.43,625.4 470.09,632.14 C470.61,634.1 471.62,635 473.14,634.86 C473.3,634.84 473.92,634.76 474.99,634.62 C476.07,634.48 477.32,634.32 478.74,634.13 C480.16,633.94 481.38,633.77 482.4,633.63 C483.42,633.49 483.97,633.41 484.06,633.39 C485.63,633.09 486.66,632.92 487.17,632.89 C488.17,632.82 488.83,632.5 489.14,631.92 C489.33,631.57 489.43,631.33 489.44,631.2 C489.44,631.1 489.43,630.95 489.38,630.75 C489.32,630.46 489.06,629.41 488.59,627.6 L485.79,609.23 C485.63,608.46 485.4,607.46 485.09,606.23 C485.03,605.98 484.99,605.75 484.96,605.52 C484.45,601.7 485.38,599.96 487.76,600.29 C488.51,600.4 489.02,600.57 489.28,600.82 L489.28,600.82 zM526.79,594.21 C527,594.64 527.34,595.52 527.81,596.86 C528.1,597.67 528.51,598.85 529.04,600.4 C529.53,601.81 530.21,603.81 531.08,606.38 C532.04,609.19 533.43,613.28 535.26,618.67 C537.18,624.34 538.65,628.65 539.65,631.61 C540.56,634.31 541.26,636.41 541.76,637.9 C542.31,639.54 542.72,640.79 542.99,641.65 C543.44,643.07 543.7,644.02 543.76,644.51 C543.85,645.21 543.49,645.83 542.69,646.37 C541.76,647.01 540.7,647.22 539.53,647.01 C538.36,646.79 537.62,646.26 537.33,645.4 L535.6,639.71 C534.77,638.36 534.06,637.96 533.46,638.5 C533.13,638.8 532.91,639.62 532.81,640.96 C532.7,642.23 532.2,643.74 531.31,645.49 C530.42,647.24 529.52,648.49 528.6,649.26 C525.11,651.96 521.28,652.84 517.13,651.88 C512.97,650.92 509.7,648.41 507.33,644.36 C506.48,642.8 505.93,641.64 505.68,640.88 C505.51,640.33 505.28,639.42 505,638.15 C504.82,637.37 504.58,636.27 504.27,634.83 C503.98,633.51 503.59,631.66 503.08,629.3 C502.53,626.71 501.72,622.93 500.66,617.97 C499.52,612.63 498.86,609.54 498.69,608.71 C498.56,608.12 498.48,607.69 498.43,607.43 C498.36,607.05 498.27,606.44 498.16,605.58 C498.11,605.23 497.91,604.45 497.55,603.24 C497.14,601.67 497.66,600.73 499.09,600.42 C501.84,599.83 503.3,600.56 503.47,602.6 L504.18,606.21 C504.65,608.61 505.23,611.51 505.9,614.92 C506.58,618.33 507.16,621.28 507.65,623.76 C508.15,626.24 508.41,627.55 508.44,627.69 C509.47,632.5 510.39,636.06 511.21,638.37 C511.92,640.39 512.76,642.09 513.73,643.46 C514.84,645.03 516.51,646.71 518.75,648.5 C519.68,649.18 520.84,649.61 522.25,649.79 C523.65,649.97 524.83,649.84 525.78,649.4 C527.6,648.56 529.01,646.39 530.01,642.89 C531.01,639.39 531.38,635.37 531.11,630.82 L531.18,631.07 C530.96,627.19 530.76,624.75 530.59,623.74 C530.47,623.03 530.25,622.12 529.94,621.01 C529.74,620.35 529.47,619.42 529.1,618.25 C528.77,617.17 528.31,615.68 527.71,613.78 C527.05,611.7 526.1,608.68 524.86,604.72 L521.75,594.84 C521.82,594.09 522.21,593.54 522.91,593.19 C523.62,592.84 524.44,592.79 525.39,593.04 C526.03,593.22 526.5,593.61 526.79,594.21 L526.79,594.21 zM569.99,574.01 C569.69,574.46 569.24,574.87 568.65,575.22 C568.54,575.28 567.98,575.57 566.97,576.1 C565.96,576.62 564.78,577.23 563.42,577.93 C562.06,578.63 560.89,579.22 559.92,579.72 C558.95,580.22 558.43,580.48 558.38,580.5 C557.14,581.04 556.3,581.51 555.85,581.93 C555.45,582.29 555.26,582.7 555.27,583.15 C555.27,583.66 555.55,584.37 556.1,585.28 C562.33,598.48 568.56,611.68 574.79,624.87 C575.73,626.74 576.37,628.12 576.72,629 C577.02,629.78 577.19,630.42 577.24,630.94 C577.3,631.54 577.2,632.17 576.95,632.85 C576.77,633.33 576.31,633.66 575.57,633.84 C574.84,634.01 574.13,633.97 573.44,633.69 C573.03,633.53 572.57,632.95 572.05,631.96 C571.68,631.25 570.97,629.78 569.9,627.54 C569.25,626.18 568.32,624.21 567.09,621.62 C565.99,619.28 564.41,615.94 562.36,611.6 C560.14,606.89 556.92,600.02 552.7,590.97 L550.33,585.9 C549.88,585.4 549.49,585.12 549.16,585.05 C548.89,584.99 548.53,585.03 548.1,585.18 C547.58,585.37 546.65,585.82 545.3,586.54 C543.36,587.49 540.74,588.57 537.43,589.77 C535.73,590.48 534.69,590.91 534.32,591.04 C534.04,591.14 533.82,591.19 533.67,591.19 C533.46,591.2 533.13,591.09 532.67,590.88 C532.44,590.77 532.34,590.6 532.36,590.36 C532.38,590.03 532.56,589.76 532.89,589.54 C533.15,589.37 533.64,589.13 534.35,588.83 C535.26,588.44 537.37,587.6 540.68,586.31 L553.7,580.17 C556.87,578.67 560.04,577.17 563.22,575.68 C567.38,573.53 569.67,572.64 570.09,573.01 C570.32,573.22 570.28,573.55 569.99,574.01 L569.99,574.01 zM605.89,559.35 C609.07,563.44 612.84,568.36 617.2,574.09 C621.56,579.82 625.29,584.75 628.36,588.88 C631.44,592.99 633,595.15 633.06,595.34 C633.27,596.08 633.33,596.82 633.22,597.55 C633.12,598.28 632.89,598.82 632.52,599.17 C631.82,599.85 631.01,600.19 630.12,600.19 C629.3,600.18 628.24,599.89 626.94,599.33 C625.5,598.71 623.41,597.59 620.67,595.98 C608.08,588.57 595.49,581.16 582.9,573.75 C590.9,586.76 598.9,599.77 606.89,612.77 C607.93,614.89 607.47,616.37 605.51,617.23 C604.57,617.65 603.8,617.76 603.22,617.56 C602.71,617.4 602.18,616.95 601.63,616.24 C600.99,615.42 600.1,613.94 598.94,611.78 C593.74,602.86 589.78,596.08 587.07,591.43 C584.59,587.17 582.67,583.87 581.31,581.53 C579.81,578.96 578.68,577.01 577.91,575.66 C576.63,573.44 575.8,571.96 575.42,571.22 C574.89,570.17 574.72,569.37 574.91,568.81 C575.13,568.17 575.67,567.71 576.53,567.44 C577.39,567.16 578.23,567.18 579.06,567.48 L614.46,589.65 C616.59,590.78 618.1,591.55 618.98,591.96 C619.73,592.32 620.29,592.55 620.66,592.64 C621.08,592.75 621.38,592.72 621.58,592.54 C622.39,591.82 621.88,590.46 620.06,588.46 L599.55,560.31 C598.7,559.15 597.85,557.99 596.99,556.83 C596.4,555.41 596.5,554.32 597.27,553.56 C598.49,552.35 599.69,552.16 600.85,553.01 C601.09,553.21 602.77,555.32 605.89,559.35 L605.89,559.35 zM654.12,543.29 C659.37,547.92 663.79,551.97 667.37,555.43 C670.96,558.89 672.82,560.92 672.97,561.53 C673.18,562.41 672.86,563.35 672.01,564.35 C671.15,565.34 670.24,565.84 669.27,565.84 C668.8,565.84 668.29,565.64 667.75,565.22 C667.32,564.89 666.64,564.26 665.69,563.34 C664.5,562.18 661.82,559.49 657.67,555.27 C656.15,553.72 655.16,552.82 654.68,552.56 C654.32,552.36 653.97,552.34 653.64,552.5 C653.19,552.71 652.31,553.5 650.99,554.88 C646.36,559.7 642.69,563.15 639.96,565.25 C638.68,566.33 637.89,567.18 637.59,567.79 C637.33,568.31 637.33,568.85 637.58,569.4 C637.87,570.05 638.65,571.01 639.92,572.27 L645.8,578.95 C646.96,580.55 647.86,581.63 648.49,582.19 C649.08,582.75 649.41,583.22 649.46,583.61 C649.5,583.95 649.35,584.33 649.01,584.75 C648.63,585.23 647.85,585.92 646.69,586.84 C645.11,588.07 643.7,587.54 642.44,585.25 C642.39,585.17 642.34,585.1 642.29,585.03 C642.25,584.99 642.18,584.9 642.08,584.79 C641.93,584.62 641.37,583.97 640.4,582.86 C638.78,580.72 637.54,579.09 636.7,577.98 C635.93,576.97 635.32,576.18 634.89,575.61 C634.42,575 634.05,574.54 633.79,574.22 C633.37,573.7 633.05,573.38 632.84,573.24 C632.55,573.05 632,573.08 631.2,573.34 C630.71,573.5 629.93,574.01 628.86,574.87 C628.48,575.15 628.09,575.3 627.71,575.34 C627.33,575.37 627.03,575.27 626.83,575.05 C626.38,574.54 627.34,573.24 629.69,571.14 C630.7,570.24 630.44,568.66 628.91,566.39 C625.92,561.96 623.58,557.08 621.9,551.74 C620.22,546.4 619.69,542.19 620.3,539.11 C621.26,534.34 623.23,531.34 626.22,530.11 C632.11,527.69 641.42,532.08 654.12,543.29 L654.12,543.29 zM623.57,535.08 C619.69,539.62 622.77,549.21 632.83,563.84 C634.14,565.56 635.32,566.18 636.37,565.7 L638.04,564.17 C639.14,563.16 640.48,561.93 642.05,560.49 C643.61,559.04 644.97,557.79 646.12,556.73 C647.26,555.67 647.87,555.1 647.95,555.02 C650.13,552.83 651.31,551.49 651.48,551.02 C651.61,550.68 651.53,550.31 651.25,549.91 C650.86,549.34 649,547.49 645.68,544.37 C642.31,541.2 638.88,538.5 635.38,536.26 L634.98,536.59 C632.84,534.98 631.12,533.91 629.8,533.36 C628.59,532.86 627.52,532.72 626.59,532.94 C625.6,533.18 624.59,533.89 623.57,535.08 L623.57,535.08 zM616.91,528.16 C616.95,530.29 616.94,531.65 616.88,532.25 C616.83,532.72 616.73,533.06 616.58,533.26 C616.39,533.51 615.94,533.72 615.23,533.89 C614.39,534.09 613.8,533.81 613.44,533.06 C613.33,532.83 613.27,532.62 613.25,532.43 C613.24,532.3 613.24,532.05 613.24,531.69 C613.24,531.18 613.25,529.26 613.28,525.92 L612.58,522.86 C612.34,521.81 612.6,520.9 613.36,520.13 C614.01,519.48 614.62,519.28 615.2,519.54 C616.36,520.05 616.93,522.93 616.91,528.16 L616.91,528.16 zM636.87,367.27 L636.86,367.24 L642.72,367.31 C643.73,367.36 644.31,367.5 644.47,367.74 C644.59,367.92 644.66,368.27 644.69,368.8 C644.73,369.55 644.7,372.15 644.61,376.63 C644.13,377.11 642.93,377.08 641.01,376.52 C638.68,375.93 635.95,375.86 632.83,376.29 C629.7,376.73 627.23,377.53 625.42,378.7 C621.98,381.16 619.97,384.13 619.4,387.63 C618.86,390.87 619.45,395.07 621.16,400.24 C623.01,405.82 626.52,413.52 631.68,423.35 C632.89,425.65 633.66,427.11 634.01,427.72 C634.25,428.15 634.58,428.71 635,429.41 C635.25,429.82 635.6,430.4 636.05,431.14 C636.46,431.8 637.03,432.73 637.77,433.95 C638.57,435.26 639.73,437.16 641.25,439.67 C646.37,448.12 646.39,456.21 641.29,463.95 C638.7,467.64 634.64,470.35 629.14,472.08 C623.63,473.8 618.06,474.11 612.41,473 C611.62,472.85 610.66,472.81 609.52,472.87 C608.52,472.93 607.83,472.85 607.45,472.63 C607.12,472.44 606.89,472.09 606.77,471.59 C606.62,471 606.57,469.94 606.6,468.41 C606.61,466 606.63,464.62 606.65,464.25 C606.66,463.99 606.69,463.81 606.74,463.72 C606.8,463.58 607.05,463.44 607.48,463.27 C607.74,463.18 607.93,463.13 608.04,463.13 C608.13,463.13 608.26,463.15 608.44,463.18 C608.7,463.23 609.65,463.43 611.28,463.78 C618.74,465.22 624.61,464.11 628.9,460.43 C633.79,455.68 634.08,449.64 629.75,442.32 L620.41,426.52 C610.76,408.54 606.17,395.56 606.64,387.59 C607.65,375.08 615.39,368.15 629.85,366.81 C631.88,366.69 634.22,366.84 636.87,367.27 L636.87,367.27 zM544.39,367.21 C544.69,367.52 544.97,368.18 545.23,369.19 C545.39,369.8 545.58,370.69 545.82,371.86 C546.03,372.93 546.32,374.44 546.68,376.39 C547.08,378.51 547.64,381.62 548.38,385.7 L550.76,398.82 C555.16,423.13 559.55,447.43 563.94,471.72 C563.91,472.56 563.81,473.08 563.63,473.26 C563.49,473.41 563.23,473.5 562.83,473.55 C562.32,473.6 560.93,473.63 558.67,473.61 C555.31,473.59 553.37,473.57 552.86,473.54 C552.5,473.52 552.25,473.49 552.12,473.43 C551.93,473.36 551.72,473.06 551.49,472.56 C551.37,472.3 551.27,471.48 551.2,470.09 L550.83,468.19 C550.59,466.93 550.29,465.41 549.94,463.62 C549.6,461.84 549.3,460.31 549.05,459.03 L548.67,457.08 C548.28,455.73 547.9,454.85 547.52,454.44 C547.22,454.12 546.77,453.9 546.17,453.79 C545.43,453.65 543.94,453.61 541.7,453.67 C536.45,453.69 533.42,453.71 532.6,453.75 C532.02,453.77 531.61,453.82 531.36,453.89 C531.01,453.99 530.46,454.38 529.73,455.05 C529.25,455.49 528.94,455.88 528.82,456.21 C528.74,456.44 528.63,456.86 528.51,457.47 C528.33,458.34 527.72,461.62 526.67,467.3 C526.03,470.46 525.6,472.28 525.38,472.76 C525.23,473.09 525.01,473.31 524.73,473.41 C524.32,473.55 522.85,473.62 520.31,473.6 C516.94,473.59 514.99,473.57 514.48,473.55 C514.11,473.53 513.86,473.5 513.73,473.44 C513.54,473.37 513.34,473.09 513.13,472.6 L514.44,464.66 L532.34,367.7 C532.55,367.22 532.76,366.94 532.96,366.87 C533.11,366.81 533.38,366.78 533.78,366.76 C534.35,366.73 536.5,366.68 540.23,366.62 C542.57,366.58 543.96,366.78 544.39,367.21 L544.39,367.21 zM537.45,390.03 C535.31,405.53 533.28,420.91 531.37,436.19 C530.91,441.33 531.18,444.18 532.19,444.73 C532.44,444.86 533.13,444.96 534.26,445.03 C535.39,445.1 536.69,445.11 538.16,445.07 C539.63,445.04 540.91,444.96 542.02,444.84 C543.13,444.72 543.79,444.58 544.01,444.44 C544.61,444.02 545.01,443.52 545.19,442.93 C545.34,442.43 545.4,441.69 545.35,440.74 C545.29,439.63 545.07,437.78 544.69,435.18 C543.31,418.36 541.59,401.36 539.53,384.18 L539.14,380.95 C539.1,380.66 539.05,380.48 538.96,380.4 C538.86,380.3 538.77,380.45 538.72,380.84 L537.45,390.03 L537.45,390.03 zM434.01,420.87 L446.17,417.44 C454.63,413.66 459.4,408.3 460.48,401.39 C461.35,394.01 458.66,387.93 452.41,383.15 C449.01,380.54 445.43,378.71 441.68,377.68 L441.56,377.65 C439.09,376.97 436.57,376.47 434,376.16 L434.01,420.87 L434.01,420.87 zM437.51,366.83 C438.44,366.91 440.81,367.26 444.61,367.88 C457.96,370.04 466.66,376.12 470.7,386.11 C475.61,398.89 473.49,409.48 464.35,417.89 L457.17,422.97 C456.16,423.51 455.12,424.01 454.06,424.48 C457.37,426.08 459.33,427.04 459.92,427.36 C460.34,427.58 460.72,427.79 461.06,428.01 C461.53,428.31 462.84,429.25 464.99,430.83 C472.99,436.71 475.26,444.89 471.78,455.37 C468.76,463.74 461.51,469.34 450.02,472.16 C447.43,472.79 445.22,473.21 443.4,473.39 C441.9,473.55 439.96,473.65 437.57,473.69 C434.67,473.73 429.26,473.71 421.35,473.63 L421.35,366.83 C424.68,366.79 427.23,366.77 428.98,366.75 C430.58,366.73 431.84,366.73 432.75,366.72 C433.25,366.72 433.69,366.72 434.08,366.72 L435.1,366.73 C436.05,366.73 436.85,366.77 437.51,366.83 L437.51,366.83 zM434.09,431.22 C434,431.4 433.93,432.99 433.88,436 C433.83,439.01 433.8,442.61 433.8,446.78 C433.81,450.96 433.84,454.56 433.9,457.58 C433.95,460.59 434.03,462.19 434.11,462.38 C434.45,463.15 434.97,463.65 435.67,463.88 C436.31,464.09 437.22,464.12 438.39,463.97 C439.68,463.8 441.58,463.39 444.1,462.71 C453.79,459.94 459.18,455.92 460.3,450.66 C461.13,446.72 460.02,443.27 456.97,440.3 C455.1,438.48 453.64,437.19 452.59,436.43 L452.67,436.43 C451.39,435.55 450.21,434.86 449.11,434.35 C448.18,433.91 446.97,433.45 445.49,432.95 C443.75,432.36 440.82,431.47 436.71,430.26 C435.4,429.94 434.53,430.26 434.09,431.22 L434.09,431.22 zM499.37,283.53 C493.94,288 490.8,293.91 489.95,301.26 C489.3,308.26 491.24,314.43 495.77,319.76 C500.3,325.1 506.23,328.2 513.56,329.06 C519,329.54 524.1,328.26 528.85,325.2 C533.61,322.14 537.02,317.93 539.09,312.58 C541.21,307.1 541.47,301.58 539.86,296.04 C538.26,290.49 535.13,286.05 530.49,282.72 C526.56,280.03 522.47,278.43 518.21,277.92 C511.07,277.2 504.79,279.07 499.37,283.53 L499.37,283.53 zM517.65,289.39 L517.75,289.43 C525.93,291.59 529.72,296.6 529.13,304.46 C528.09,313.39 523.26,317.63 514.65,317.16 C510.31,316.7 506.97,314.99 504.63,312.01 C502.29,309.03 501.43,305.4 502.04,301.12 C503.16,294.72 507.1,290.77 513.87,289.29 C515.05,289.1 516.31,289.13 517.65,289.39 L517.65,289.39 zM512.28,300.63 C510.39,303.18 510.75,305.39 513.36,307.25 C515.34,308.66 517.45,307.9 519.67,304.96 C520.95,303.26 520.14,301.47 517.22,299.58 C515.31,298.43 513.66,298.78 512.28,300.63 L512.28,300.63 zM625.57,342.56 C625.83,342.7 625.99,342.83 626.06,342.95 C626.11,343.04 626.18,343.2 626.26,343.43 C626.38,343.76 626.79,345.02 627.5,347.21 C628.07,348.77 628.72,349.55 629.46,349.57 C629.81,349.58 630.09,349.45 630.31,349.17 C630.49,348.94 630.71,348.52 630.96,347.91 C631.26,347.19 631.76,345.83 632.47,343.83 C632.72,343.12 632.95,342.72 633.16,342.61 C633.31,342.53 633.59,342.48 633.99,342.45 C634.57,342.41 636.75,342.36 640.53,342.3 C642.14,342.24 643.25,342.25 643.86,342.34 C644.39,342.42 644.73,342.57 644.9,342.81 C645.09,343.08 645.11,343.57 644.95,344.3 L644.17,346.46 C643.65,347.9 643.02,349.63 642.28,351.65 C641.55,353.68 640.91,355.41 640.38,356.86 L639.58,359.05 C639.08,360.12 638.64,360.81 638.26,361.1 C637.96,361.33 637.52,361.48 636.96,361.54 C636.25,361.62 634.73,361.6 632.42,361.49 C628.56,361.4 624.7,361.31 620.83,361.22 C620.31,361 619.92,360.65 619.65,360.19 C619.44,359.82 619.17,359.18 618.83,358.26 C618.4,357.08 617.46,354.25 615.99,349.78 C614.83,346.54 614.17,344.66 614.01,344.16 C613.89,343.81 613.84,343.57 613.83,343.43 C613.82,343.23 613.98,342.99 614.29,342.68 C614.52,342.46 614.9,342.32 615.43,342.27 C615.86,342.23 616.59,342.23 617.62,342.25 C618.88,342.28 621.53,342.38 625.57,342.56 L625.57,342.56 zM731.95,367.41 C732.26,367.54 732.48,367.8 732.6,368.18 C732.71,368.51 732.77,369.03 732.81,369.74 C732.84,370.56 732.84,371.92 732.8,373.85 C732.76,374.84 732.55,375.48 732.17,375.77 C731.86,376 731.3,376.14 730.5,376.2 C729.49,376.28 727.29,376.27 723.91,376.18 C722.25,376.14 721.16,376.28 720.63,376.6 C720.19,376.87 719.89,377.37 719.72,378.09 C719.52,378.98 719.41,380.81 719.39,383.57 C719.18,410.87 718.97,438.16 718.77,465.45 C718.74,469.51 718.71,471.85 718.67,472.47 C718.64,472.91 718.58,473.21 718.49,473.37 C718.36,473.6 717.86,473.86 716.99,474.13 C716.25,474.37 715.26,474.29 714.04,473.88 C713.53,473.7 713.12,473.6 712.81,473.56 C712.57,473.53 712.24,473.52 711.83,473.53 C711.3,473.54 710.13,473.59 708.31,473.67 C707.41,473.7 706.85,473.63 706.62,473.46 C706.44,473.33 706.32,473.08 706.26,472.7 C706.18,472.22 706.15,471.03 706.17,469.15 C706.4,438.95 706.63,408.75 706.86,378.55 C706.67,377.65 706.3,377.04 705.75,376.73 C705.28,376.46 704.51,376.29 703.44,376.22 C702.18,376.13 699.89,376.16 696.57,376.29 C695.57,376.3 694.89,376.17 694.53,375.89 C694.23,375.65 694.02,375.23 693.89,374.61 C693.73,373.86 693.63,372.43 693.57,370.29 C693.59,369.12 693.72,368.35 693.95,368 C694.14,367.72 694.47,367.53 694.96,367.44 C695.56,367.32 696.85,367.29 698.81,367.35 C702.99,367.36 707.17,367.36 711.35,367.37 L731.95,367.41 L731.95,367.41 zM791.91,367.57 C792.92,367.63 793.49,367.7 793.62,367.76 C793.78,367.85 793.93,367.95 794.04,368.08 C794.32,368.45 794.47,369.6 794.5,371.55 C794.52,372.97 794.52,375.96 794.49,380.5 C794.47,383.25 794.44,387.25 794.4,392.52 C794.37,397.32 794.31,404.09 794.24,412.84 C794.16,422.38 794.05,436.31 793.91,454.63 C793.86,460.7 793.82,466.77 793.79,472.83 C793.64,473.58 793.43,474.03 793.17,474.18 C792.97,474.29 792.61,474.37 792.08,474.4 C791.35,474.45 789.22,474.48 785.68,474.47 C784.13,474.51 783.12,474.51 782.65,474.48 C782.28,474.46 782,474.4 781.84,474.31 C781.63,474.2 781.46,473.96 781.33,473.58 L781.97,374.15 C781.99,371 782.01,369.19 782.03,368.71 C782.05,368.37 782.08,368.14 782.12,368.02 C782.19,367.86 782.45,367.7 782.89,367.54 C783.06,367.48 783.67,367.44 784.71,367.42 C785.75,367.4 786.96,367.4 788.33,367.43 C789.71,367.46 790.9,367.51 791.91,367.57 L791.91,367.57 zM855.23,367.95 C855.98,368.06 856.59,368.12 857.07,368.14 C857.41,368.15 858.02,368.16 858.88,368.17 C859.41,368.17 860.16,368.18 861.15,368.18 C862.05,368.19 863.31,368.19 864.94,368.2 C866.72,368.21 869.31,368.22 872.72,368.23 C876.96,368.25 879.43,368.25 880.13,368.25 C880.62,368.25 881,368.25 881.28,368.24 C881.68,368.23 882.54,368.2 883.87,368.14 C884.88,368.11 885.47,368.2 885.62,368.4 C885.73,368.54 885.79,368.85 885.82,369.32 C885.85,369.98 885.81,372.44 885.69,376.69 C885.47,376.94 885.25,377.09 885.01,377.12 C884.84,377.14 884.52,377.15 884.05,377.15 C883.37,377.15 880.82,377.11 876.39,377.02 C875.13,377.02 874.25,377.22 873.76,377.62 C873.33,377.96 873.03,378.55 872.87,379.38 C872.69,380.35 872.62,382.04 872.68,384.45 L872.05,465.6 C872.02,468.97 871.98,471.11 871.92,472.01 C871.88,472.71 871.79,473.2 871.65,473.49 C871.48,473.86 871.06,474.16 870.4,474.4 C870.31,474.43 869.77,474.46 868.78,474.48 C867.8,474.51 866.63,474.52 865.29,474.52 C863.94,474.52 862.78,474.51 861.8,474.48 C860.83,474.46 860.3,474.43 860.23,474.4 C859.79,474.21 859.55,473.72 859.49,472.93 C859.45,472.37 859.43,471.21 859.43,469.45 C859.43,468.38 859.44,466.83 859.46,464.79 C859.47,462.93 859.49,460.31 859.52,456.93 C859.55,453.23 859.6,447.84 859.65,440.75 L860.13,379.52 C859.94,378.6 859.56,377.97 858.98,377.63 C858.48,377.34 857.68,377.16 856.57,377.09 C855.28,377 853.02,377.03 849.8,377.19 C848.93,377.2 848.35,377.05 848.08,376.74 C847.85,376.49 847.71,376.01 847.63,375.32 C847.54,374.47 847.53,372.72 847.58,370.06 C847.6,369.13 847.86,368.46 848.34,368.07 C848.79,367.71 849.5,367.51 850.49,367.48 C851.55,367.44 853.13,367.6 855.23,367.95 L855.23,367.95 z"/>  </g> </svg>