<svg xmlns="http://www.w3.org/2000/svg" xml:space="preserve" shape-rendering="geometricPrecision" text-rendering="geometricPrecision" image-rendering="optimizeQuality" fill-rule="evenodd" clip-rule="evenodd" xmlns:xlink="http://www.w3.org/1999/xlink" viewBox="0 0 602.36 209.11">  <g id="Layer_1">   <metadata id="FutureCorpID_Layer"/>    <path fill="#000000" d="M236.68,57.6 C237.58,57.48 238.07,56.61 237.63,55.91 L223.48,32.53 C222.01,30.22 220.2,28.83 218.55,28.73 C217.05,28.63 216.08,28.76 215.41,29.15 C214.43,29.71 214.18,30.81 214.66,32.46 C215.36,34.94 217.44,39.68 220.62,46.09 C222.8,50.49 225.59,55.83 226.94,58.16 C227.2,58.61 227.77,58.86 228.34,58.78 L236.68,57.6 L236.68,57.6 zM231.14,73.91 C230.46,72.57 231.33,73.13 232.44,74.75 C236.57,80.76 240.81,86.04 246.09,91.76 C253.79,100.09 261.03,105.53 267.83,108.1 C274.97,111.13 282.66,112.67 291.7,112.89 C297.95,113.03 303.39,112.69 316.12,111.33 L317.65,111.17 C340.5,108.06 334.79,108.84 357.63,105.71 L362.73,105.01 C364.99,104.7 363.18,105.46 357.66,107.14 C342.75,111.68 329.29,114.59 313.21,116.75 C292.51,119.53 278.86,118.44 267.81,113.14 C262.18,110.44 256.85,106.63 251.78,101.67 C243.17,93.26 236.23,83.93 231.14,73.91 L231.14,73.91 zM500.93,32.52 C492.84,34.15 485.13,37.05 478.21,41.08 C471.11,45.22 464.68,50.26 459.18,56.02 C453.93,61.52 449.13,67.92 444.77,75.25 C442.35,79.32 440.59,82.64 439.17,85.82 C437.11,90.39 436.16,92.79 435.45,95.17 C435.22,95.97 435.56,95.77 436.07,94.82 C436.07,94.82 436.61,93.96 437.84,92.01 L441.52,86.13 C443.64,82.76 445.7,79.52 447.73,76.35 C451.81,70 456.64,64.19 462.12,59.04 C468.19,53.35 474.32,48.81 480.59,45.4 C487.39,41.7 494.61,39.07 501.95,37.6 C508.95,36.21 516.51,35.76 524.69,36.26 L531.41,36.99 C532.36,37.09 532.78,37.15 533.25,37.25 L538.11,38.19 C539.97,38.55 540.81,38.75 541.71,39.05 L547.49,40.98 C559.67,45.05 572.1,50.19 585.42,56.65 C587.59,57.71 586.12,55.91 582.78,53.43 C573.82,46.76 562.47,41.16 548.53,36.53 L542.84,34.64 C542.36,34.47 541.93,34.35 540.92,34.12 L534.06,32.57 C533.57,32.45 533.14,32.37 532.14,32.23 L525.1,31.23 C522.52,31.03 519.94,30.92 517.36,30.92 C511.69,30.92 506.19,31.45 500.93,32.52 L500.93,32.52 zM423.65,29.67 C345.07,43.87 286.01,53.55 251.58,57.87 C162.47,69.03 79.43,85.22 49.82,97.19 C42.05,99.95 32.07,103.75 25.71,106.38 C19.42,108.98 15.22,110.97 13.23,112.3 C11.61,113.38 12.85,114.45 16.43,115.09 C20.37,115.79 24.92,115.59 26.5,114.65 C39.4,107.01 89.89,92.54 126.92,85.88 C167.86,78.51 255.46,64 289.79,58.89 C315.7,55.04 370.29,44.91 441.62,30.74 L451.58,28.75 C504.01,18.33 534.77,13.78 553.51,13.68 C564.61,13.62 583.42,19.89 598.94,28.83 C601.89,29.88 603.11,28.82 601.9,26.26 L600.85,25.42 C587.2,14.54 571.53,9.81 547.41,9.3 C546.64,9.28 545.86,9.27 545.07,9.27 C524.48,9.27 496.11,13.81 443.62,25.5 C432.95,27.88 429.6,28.59 426.89,29.09 L423.65,29.67 L423.65,29.67 zM185.85,27.12 C176.38,30.91 161.47,38.17 141.55,48.7 C118.56,60.86 95.29,73.75 71.07,87.76 C70.79,87.93 70.84,88.03 71.15,87.91 C78.43,85.07 85.4,83.47 141.93,71.63 C146.1,70.76 147.21,70.49 146.37,70.53 C141.84,70.78 136.18,69.94 132.5,68.48 C130.47,67.67 134.74,64.04 145,57.87 C155.92,51.29 174.83,41.26 187.97,35.06 C201.27,28.8 219.44,21.64 235.3,16.42 C259.46,8.46 279.8,4.27 294.99,4.11 C316.99,3.19 341.71,6.28 367.21,13.13 C382.8,17.32 400.2,23.56 408.21,27.84 C408.08,27.75 410.92,27.23 415.06,26.57 C381.49,10.35 335.77,0.39 293.17,0 C292.98,0 292.78,0 292.58,0 C270.54,0 224.25,11.76 185.85,27.12 L185.85,27.12 zM400.38,33.1 C400.38,33.1 400.37,33.1 400.37,33.1 C400.37,33.1 400.38,33.1 400.38,33.1 L400.38,33.1 zM261.92,73.01 C260.19,73.19 257.76,73.55 256.05,73.88 C252.21,74.62 250.28,75.47 250.39,76.35 C250.57,77.79 250.76,78.35 251.18,78.76 C251.72,79.3 252.67,79.43 254.23,79.19 C255.4,79.02 256.56,78.84 257.72,78.65 C264.44,77.55 267.84,77.08 270.98,76.83 C274.41,76.43 276.15,75.78 276.04,74.93 C275.97,74.4 275.14,73.79 273.75,73.26 C272.57,72.82 271.2,72.52 270.43,72.54 C269.45,72.57 268.22,72.62 266.76,72.7 C265.28,72.78 263.28,72.91 261.92,73.01 L261.92,73.01 zM43.1,92.4 C43.35,92.42 43.39,92.65 43.16,92.74 C37.55,94.84 31.53,97.02 25.06,99.27 C12.29,103.72 4.72,105.92 2.88,105.7 C-0.88,105.26 -0.96,103.77 2.64,101.48 C6.51,99.01 14.24,95.97 20.69,94.38 C25.26,93.24 30.65,92.56 36.46,92.38 C39.54,92.28 41.54,92.29 43.1,92.4 L43.1,92.4 zM379.09,35.92 C379.5,35.84 379.82,35.6 379.96,35.25 C380.11,34.91 380.03,34.54 379.77,34.27 C378.12,32.51 375.93,31.04 373.47,30.02 C369.71,28.46 365.34,27.93 360.51,28.46 C356.83,28.96 354.57,30.64 353.84,33.43 C353.39,35.13 353.52,37.28 354.21,39.48 C354.38,40.01 354.99,40.33 355.6,40.22 L379.09,35.92 L379.09,35.92 zM548.73,18.39 C546.6,15.26 546.5,14.83 548.19,16.13 C561.63,26.54 578.22,32.47 595.81,33.17 C596.99,33.22 597.66,33.25 597.8,33.26 C598.38,33.31 598.41,33.62 597.84,33.74 C595.09,34.35 593.12,34.72 588.97,35.43 C573.21,38.13 557.68,31.56 548.73,18.39 L548.73,18.39 zM16.82,133.8 C16.63,133.78 16.59,133.51 16.77,133.42 C22.76,130.22 29.46,127.72 37.52,125.65 C43.07,124.23 47.9,123.28 59.04,121.44 L61.12,121.1 C61.41,121.05 61.44,121.27 61.18,121.5 C58.34,124.02 54.96,126.09 50.71,127.92 C47.8,129.16 45.24,130.02 39.37,131.69 L39.15,131.76 C29.92,133.97 23.01,134.6 16.82,133.8 L16.82,133.8 zM59.29,172.01 C59.01,172.64 58.73,173.1 58.79,172.83 C63.75,150.36 76.72,130.77 95.32,117.66 C114.71,104 141.61,99.45 168.89,105.22 C173.82,106.26 177.82,107.26 180.26,108.06 C184.55,109.22 189.24,110.83 196.78,113.74 C200.35,115.3 202.81,116.39 204.24,117.05 C206.66,118.18 207.03,118.4 206.07,118.13 L193.67,114.71 C187.98,113.34 182.28,112.23 176.59,111.38 L162.79,109.32 C142.58,107.89 124.49,111 109.14,118.52 C87.44,129.16 69.83,148.06 59.29,172.01 L59.29,172.01 zM23.3,121.28 C21.7,121.49 21.62,120.91 23.19,120.45 C28.89,118.74 39.22,116.41 48.16,114.8 C64.01,111.95 73.32,112.21 75.47,115.55 C76.63,117.48 75.92,120.05 73.61,122.31 C70.32,125.76 67.15,128.15 59.52,132.9 L58.15,133.76 C44.36,141.79 31.51,147.98 19.61,152.3 C17.91,152.92 17.72,152.31 19.34,151.41 C20.16,150.96 19.21,151.49 26.04,147.73 C42.02,138.96 48.91,135 56.7,130.08 L57.12,129.82 C64.91,124.91 68.12,122.51 71.44,119.16 L71.67,118.91 C72.23,118.3 72.46,118.02 72.58,117.79 C72.61,117.69 72.51,117.61 72.23,117.47 C71.25,117.01 70.22,116.9 66.07,116.83 L64.72,116.8 C60.85,116.83 57.47,117.08 49.66,117.93 L49.23,117.98 C42.7,118.69 44.33,118.49 37.82,119.35 L23.3,121.28 L23.3,121.28 zM259.72,145.81 C259.71,148.03 259.97,149.88 260.49,151.35 C260.98,152.75 261.63,153.89 262.46,154.8 C263.23,155.65 264.09,156.25 265.05,156.6 C266.09,156.98 267.14,157.17 268.19,157.17 C269.27,157.17 270.32,156.97 271.33,156.57 C272.34,156.16 273.19,155.56 273.88,154.77 C274.76,153.75 275.43,152.6 275.88,151.3 C276.38,149.89 276.62,148.04 276.62,145.78 C276.62,143.59 276.36,141.75 275.85,140.25 C275.35,138.82 274.7,137.66 273.89,136.77 C273.12,135.93 272.26,135.33 271.3,134.97 C270.32,134.6 269.29,134.42 268.19,134.41 C267.04,134.41 266,134.58 265.07,134.92 C264.24,135.22 263.37,135.84 262.48,136.76 C261.71,137.56 261.05,138.71 260.51,140.22 C259.99,141.7 259.72,143.56 259.72,145.81 L259.72,145.81 zM290.74,145.81 C290.74,152.22 288.72,157.26 284.69,160.93 C280.64,164.62 275.14,166.46 268.16,166.46 C261.13,166.46 255.62,164.6 251.62,160.87 C247.61,157.15 245.61,152.13 245.6,145.81 C245.59,139.45 247.6,134.4 251.61,130.68 C255.6,126.98 261.12,125.13 268.16,125.13 C275.16,125.13 280.68,126.97 284.7,130.66 C288.72,134.34 290.74,139.41 290.74,145.81 L290.74,145.81 zM316.82,142.75 C317.32,142.56 317.66,142.39 317.82,142.25 C318.37,141.8 318.72,141.37 318.88,140.97 C319.09,140.43 319.19,139.69 319.19,138.73 C319.19,138 319,137.39 318.63,136.92 C318.24,136.43 317.81,136.11 317.32,135.95 C316.46,135.62 315.62,135.43 314.8,135.38 C314.09,135.33 312.93,135.3 311.33,135.3 L311.33,143.3 L313.05,143.29 C314.04,143.26 314.78,143.21 315.29,143.14 C315.85,143.04 316.36,142.91 316.82,142.75 L316.82,142.75 zM333.3,138.48 C333.3,140.35 332.96,142.1 332.28,143.74 C331.58,145.41 330.59,146.8 329.31,147.9 C328.44,148.64 327.58,149.27 326.7,149.81 C325.65,150.44 324.62,150.92 323.56,151.29 C322.35,151.71 321.11,152.03 319.83,152.24 C318.38,152.48 316.89,152.6 315.32,152.6 L309.19,152.6 L309.19,165.57 L297.5,165.57 L297.5,126.02 L315.57,126.01 C318.21,126.01 320.56,126.22 322.52,126.64 C324.46,127.05 326.24,127.72 327.82,128.61 C329.55,129.6 330.92,130.93 331.87,132.58 C332.83,134.24 333.31,136.23 333.3,138.48 L333.3,138.48 zM502.3,143.88 C501.9,144.01 501.48,144.3 501.05,144.77 C500.63,145.22 500.26,145.94 499.95,146.93 C499.63,147.96 499.47,149.31 499.46,150.97 C499.46,152.6 499.61,153.91 499.92,154.89 C500.19,155.76 500.53,156.45 500.96,156.96 C501.31,157.37 501.73,157.66 502.23,157.84 C502.86,158.07 503.55,158.18 504.31,158.18 C504.9,158.18 505.52,158.06 506.16,157.84 C506.69,157.65 507.1,157.39 507.39,157.07 C507.9,156.43 508.28,155.72 508.53,154.95 C508.82,153.94 508.96,152.62 508.95,150.97 C508.94,149.3 508.79,147.98 508.51,147.03 C508.22,146.06 507.87,145.33 507.46,144.85 C507.06,144.39 506.63,144.07 506.17,143.91 C505.62,143.71 504.97,143.61 504.22,143.61 C503.49,143.61 502.86,143.7 502.3,143.88 L502.3,143.88 zM522.33,151.23 C522.32,156.14 520.75,159.99 517.6,162.79 C514.42,165.61 509.95,167.02 504.22,167.02 C498.49,167.02 494.04,165.61 490.87,162.79 C487.68,159.95 486.09,156.11 486.08,151.23 C486.08,146.29 487.67,142.41 490.85,139.59 C494.01,136.79 498.46,135.4 504.22,135.4 C509.97,135.4 514.43,136.81 517.59,139.63 C520.76,142.44 522.34,146.32 522.33,151.23 L522.33,151.23 zM528.11,165.83 L539.06,165.83 L539.06,124.5 L528.11,124.5 L528.11,165.83 L528.11,165.83 zM566.88,158.13 L566.88,151.84 C565.02,152 563.51,152.14 562.36,152.26 C561.27,152.35 560.17,152.58 558.97,152.94 C558.03,153.21 557.28,153.65 556.72,154.24 C556.2,154.82 555.93,155.59 555.93,156.57 C555.92,157.98 556.37,158.96 557.26,159.49 C558.15,160.01 559.48,160.28 561.2,160.28 C562.15,160.28 563.16,160.09 564.15,159.71 C565.16,159.33 566.08,158.8 566.88,158.13 L566.88,158.13 zM566.88,162.66 C566.46,162.95 566.1,163.21 565.35,163.75 L564.87,164.1 C564.21,164.55 563.41,164.98 562.49,165.37 C561.32,165.85 560.45,166.15 559.63,166.35 C558.68,166.59 557.37,166.71 555.76,166.71 C552.65,166.71 550.1,165.82 548.05,164.04 C546,162.25 544.98,160.02 544.97,157.3 C544.97,155.08 545.48,153.28 546.52,151.89 C547.52,150.54 549.01,149.45 551.02,148.62 C552.96,147.81 555.32,147.25 558.09,146.92 C560.84,146.6 563.78,146.35 566.94,146.17 L566.94,146.01 C566.92,144.29 566.22,143.13 564.81,142.48 C563.4,141.83 561.3,141.51 558.42,141.51 C557.14,141.51 555.65,141.72 553.91,142.14 C552.23,142.55 550.56,143.1 548.87,143.78 L547.94,143.78 L547.94,136.57 C548.91,136.32 550.46,136.04 553.18,135.62 C555.48,135.26 557.91,135.09 560.5,135.09 C566.53,135.08 570.93,135.94 573.69,137.65 C576.44,139.35 577.83,141.99 577.83,145.49 L577.83,165.83 L566.88,165.83 L566.88,162.66 L566.88,162.66 zM218.09,165.57 L218.09,133.45 L204.33,133.45 L204.33,126.02 L243.54,126.02 L243.54,133.45 L229.78,133.45 L229.78,165.57 L218.09,165.57 L218.09,165.57 zM331.7,165.83 L342.8,165.83 L342.8,155.37 L331.7,155.37 L331.7,165.83 L331.7,165.83 zM370.76,158.13 L370.76,151.84 C368.89,152 367.39,152.14 366.24,152.26 C365.15,152.35 364.05,152.58 362.85,152.94 C361.91,153.21 361.15,153.65 360.6,154.24 C360.07,154.82 359.81,155.59 359.8,156.57 C359.8,157.98 360.25,158.96 361.14,159.49 C362.02,160.01 363.36,160.28 365.08,160.28 C366.03,160.28 367.03,160.09 368.02,159.71 C369.04,159.33 369.96,158.8 370.76,158.13 L370.76,158.13 zM370.76,162.66 C370.33,162.95 369.97,163.21 369.22,163.75 L368.74,164.1 C368.09,164.55 367.28,164.98 366.36,165.37 C365.2,165.85 364.32,166.15 363.51,166.35 C362.55,166.59 361.25,166.71 359.63,166.71 C356.53,166.71 353.98,165.82 351.92,164.04 C349.87,162.25 348.85,160.02 348.85,157.3 C348.84,155.08 349.36,153.28 350.39,151.89 C351.4,150.54 352.89,149.45 354.89,148.62 C356.83,147.81 359.2,147.25 361.97,146.92 C364.71,146.6 367.66,146.35 370.82,146.17 L370.82,146.01 C370.8,144.29 370.1,143.13 368.69,142.48 C367.27,141.83 365.17,141.51 362.3,141.51 C361.01,141.51 359.53,141.72 357.78,142.14 C356.11,142.55 354.44,143.1 352.75,143.78 L351.81,143.78 L351.81,136.57 C352.79,136.32 354.33,136.04 357.06,135.62 C359.36,135.26 361.79,135.09 364.37,135.09 C370.41,135.08 374.81,135.94 377.57,137.65 C380.31,139.35 381.7,141.99 381.7,145.49 L381.7,165.83 L370.76,165.83 L370.76,162.66 L370.76,162.66 zM389.78,165.83 L400.73,165.83 L400.73,124.5 L389.78,124.5 L389.78,165.83 L389.78,165.83 zM441.8,165.83 L430.85,165.83 L430.85,162.58 C428.85,163.98 427.13,164.98 425.6,165.65 C423.98,166.36 422.1,166.71 419.92,166.71 C416.42,166.71 413.69,165.77 411.74,163.9 C409.78,162.02 408.8,159.22 408.8,155.44 L408.8,135.97 L419.75,135.97 L419.73,150.85 C419.73,152.21 419.78,153.5 419.88,154.64 C419.96,155.57 420.2,156.42 420.58,157.12 C420.92,157.74 421.46,158.23 422.15,158.54 C422.84,158.86 423.86,159.02 425.11,159.02 C425.89,159.02 426.83,158.86 427.88,158.53 C429,158.19 429.99,157.75 430.85,157.23 L430.85,135.97 L441.8,135.97 L441.8,165.83 L441.8,165.83 zM485.12,165.83 L472.01,165.83 L462.61,152.9 L461,154.75 L461,165.83 L450.05,165.83 L450.05,124.51 L461,124.51 L461,147.57 L471.28,135.97 L484.23,135.97 L471.98,148.84 L485.12,165.83 L485.12,165.83 zM471.97,63.23 L513.08,42.63 L554.18,63.23 L554.18,104.42 L513.08,125.01 L471.97,104.42 L471.97,63.23 L471.97,63.23 zM547.57,101.4 L513.19,118.63 L478.8,101.4 L478.8,66.95 L513.19,49.72 L547.57,66.95 L547.57,101.4 L547.57,101.4 zM545,84.54 C545,99.82 530.73,112.21 513.11,112.21 C495.5,112.21 481.23,99.82 481.23,84.54 C481.23,69.25 495.5,56.86 513.11,56.86 C530.73,56.86 545,69.25 545,84.54 L545,84.54 zM505.23,63.51 C503.09,64.16 500.96,65.06 499.12,66.09 C496.26,67.69 494.05,69.61 492.59,71.79 C492.23,72.31 492.48,73 493.13,73.26 L507.37,79.02 C507.78,79.19 508.24,79.15 508.61,78.91 C508.97,78.68 509.15,78.3 509.08,77.92 L506.83,64.36 C506.72,63.7 505.95,63.3 505.23,63.51 L505.23,63.51 zM534.81,71.27 C533.42,69.73 531.74,68.27 530.01,67.09 C527.34,65.27 524.53,64.08 521.68,63.58 C521,63.46 520.33,63.89 520.25,64.51 L518.6,78.06 C518.56,78.46 518.75,78.82 519.13,79.05 C519.5,79.27 519.97,79.29 520.37,79.11 L534.41,72.86 C535.09,72.56 535.28,71.79 534.81,71.27 L534.81,71.27 zM533.54,98.36 C534.85,96.76 535.99,94.96 536.81,93.19 C538.08,90.45 538.6,87.77 538.36,85.27 C538.3,84.66 537.63,84.22 536.93,84.33 L521.47,86.77 C521.03,86.84 520.68,87.1 520.53,87.48 C520.39,87.85 520.5,88.25 520.81,88.53 L531.67,98.46 C532.2,98.95 533.1,98.89 533.54,98.36 L533.54,98.36 zM505.8,106 C507.96,106.55 510.3,106.9 512.49,107 C515.89,107.15 518.97,106.7 521.63,105.68 C522.27,105.43 522.53,104.75 522.18,104.21 L514.49,92.32 C514.27,91.98 513.86,91.78 513.41,91.78 C512.96,91.79 512.56,92 512.35,92.35 L505.07,104.5 C504.72,105.09 505.07,105.81 505.8,106 L505.8,106 zM487.32,85.68 C487.49,87.64 487.95,89.65 488.63,91.47 C489.68,94.28 491.26,96.62 493.31,98.4 C493.8,98.83 494.63,98.8 495.09,98.32 L505.14,87.84 C505.43,87.54 505.5,87.14 505.33,86.78 C505.17,86.41 504.79,86.16 504.34,86.12 L488.67,84.56 C487.91,84.48 487.26,85.02 487.32,85.68 L487.32,85.68 zM508.73,62.89 C509.78,62.54 510.99,62.3 512.18,62.21 C514.06,62.06 515.92,62.27 517.67,62.81 C517.99,62.91 518.17,63.23 518.07,63.53 L513.81,75.78 C513.73,76.03 513.5,76.19 513.23,76.2 C512.96,76.21 512.72,76.06 512.63,75.82 L508.35,63.63 C508.24,63.33 508.4,63 508.73,62.89 L508.73,62.89 zM531.6,100.53 C531,101.35 530.19,102.17 529.29,102.86 C527.87,103.94 526.24,104.73 524.46,105.2 C524.13,105.28 523.77,105.12 523.64,104.83 L518.78,92.98 C518.68,92.74 518.75,92.49 518.96,92.34 C519.18,92.2 519.46,92.2 519.7,92.35 L531.39,99.74 C531.7,99.92 531.79,100.28 531.6,100.53 L531.6,100.53 zM502.52,105.25 C501.43,105.01 500.28,104.6 499.24,104.08 C497.6,103.26 496.22,102.18 495.15,100.86 C494.95,100.62 495.01,100.27 495.3,100.07 L506.96,91.95 C507.19,91.79 507.49,91.77 507.72,91.9 C507.95,92.03 508.04,92.27 507.95,92.52 L503.32,104.83 C503.21,105.13 502.85,105.32 502.52,105.25 L502.52,105.25 zM487.85,81.65 C487.81,80.68 487.95,79.61 488.24,78.6 C488.7,77.01 489.52,75.55 490.69,74.29 C490.9,74.06 491.31,74.02 491.61,74.2 L503.69,81.73 C503.93,81.87 504.03,82.11 503.95,82.34 C503.87,82.56 503.63,82.71 503.34,82.7 L488.54,82.2 C488.17,82.2 487.86,81.95 487.85,81.65 L487.85,81.65 zM536.52,74.69 C537.19,75.47 537.77,76.42 538.19,77.4 C538.86,78.93 539.13,80.54 538.99,82.15 C538.96,82.44 538.66,82.68 538.3,82.68 L523.66,82.36 C523.36,82.36 523.12,82.21 523.04,81.99 C522.96,81.76 523.07,81.52 523.31,81.38 L535.59,74.58 C535.9,74.4 536.32,74.45 536.52,74.69 L536.52,74.69 zM519.29,85.45 C519.29,88.26 516.72,90.54 513.54,90.54 C510.35,90.54 507.77,88.26 507.77,85.45 C507.77,82.65 510.35,80.37 513.54,80.37 C516.72,80.37 519.29,82.65 519.29,85.45 L519.29,85.45 zM202.23,198.52 L310.65,198.52 L310.65,202.48 L202.23,202.48 L202.23,198.52 L202.23,198.52 zM469.22,198.45 L577.64,198.45 L577.64,202.08 L469.22,202.08 L469.22,198.45 L469.22,198.45 zM314,208.73 L314,185.48 L324.72,185.48 C326.71,185.48 328.23,185.67 329.28,186.05 C330.33,186.43 331.18,187.14 331.82,188.17 C332.47,189.2 332.79,190.46 332.79,191.93 C332.79,193.23 332.54,194.35 332.05,195.28 C331.55,196.22 330.88,196.96 330.01,197.54 C329.44,197.92 328.68,198.24 327.76,198.47 C328.53,198.75 329.09,199.04 329.44,199.32 C329.68,199.53 330.05,199.97 330.46,200.55 C330.91,201.17 331.21,201.65 331.37,201.99 L334.48,208.73 L327.21,208.73 L323.78,201.62 C323.32,200.68 322.94,200.1 322.6,199.83 C322.14,199.47 321.62,199.29 321.04,199.29 L320.46,199.29 L320.46,208.73 L314,208.73 L314,208.73 zM320.46,194.9 L323.17,194.9 C323.47,194.89 324.04,194.79 324.88,194.58 C325.31,194.48 325.67,194.24 325.93,193.85 C326.2,193.46 326.33,193.02 326.33,192.5 C326.33,191.75 326.11,191.17 325.69,190.77 C325.26,190.37 324.45,190.17 323.29,190.17 L320.46,190.17 L320.46,194.9 L320.46,194.9 zM352.17,201.91 L340.59,201.91 C340.68,202.93 340.94,203.72 341.33,204.23 C341.89,204.95 342.63,205.32 343.53,205.32 C344.09,205.32 344.63,205.16 345.14,204.84 C345.47,204.63 345.81,204.27 346.15,203.78 L351.85,204.37 C350.99,206.05 349.94,207.26 348.69,208.01 C347.46,208.74 345.7,209.11 343.4,209.11 C341.41,209.11 339.85,208.8 338.69,208.17 C337.54,207.54 336.6,206.55 335.85,205.18 C335.09,203.79 334.71,202.18 334.71,200.34 C334.71,197.7 335.46,195.58 336.97,193.94 C338.48,192.32 340.56,191.5 343.23,191.5 C345.39,191.5 347.09,191.87 348.34,192.6 C349.59,193.33 350.54,194.39 351.2,195.77 C351.85,197.15 352.17,198.96 352.17,201.18 L352.17,201.91 L352.17,201.91 zM346.29,198.82 C346.18,197.57 345.88,196.67 345.4,196.14 C344.9,195.6 344.26,195.33 343.47,195.33 C342.56,195.33 341.83,195.73 341.26,196.55 C340.92,197.04 340.7,197.79 340.6,198.82 L346.29,198.82 L346.29,198.82 zM354.83,191.88 L360.21,191.88 L360.21,194.63 C361.02,193.5 361.83,192.71 362.65,192.23 C363.47,191.74 364.47,191.5 365.67,191.5 C367.26,191.5 368.51,192.04 369.42,193.11 C370.33,194.18 370.78,195.81 370.78,198.02 L370.78,208.73 L364.97,208.73 L364.97,199.45 C364.97,198.39 364.8,197.65 364.45,197.23 C364.09,196.78 363.6,196.56 362.97,196.57 C362.27,196.57 361.7,196.86 361.26,197.45 C360.83,198.04 360.61,199.09 360.61,200.62 L360.61,208.73 L354.83,208.73 L354.83,191.88 L354.83,191.88 zM373.52,200.36 C373.52,197.8 374.3,195.68 375.85,194.01 C377.4,192.34 379.5,191.5 382.14,191.5 C385.15,191.5 387.43,192.48 388.98,194.44 C390.22,196.01 390.85,197.96 390.85,200.26 C390.85,202.85 390.08,204.97 388.53,206.63 C386.99,208.29 384.87,209.11 382.14,209.11 C379.72,209.11 377.76,208.42 376.28,207.05 C374.44,205.35 373.52,203.11 373.52,200.36 L373.52,200.36 zM379.32,200.34 C379.32,200.35 379.32,200.35 379.32,200.36 C379.32,201.86 379.59,202.96 380.13,203.68 C380.68,204.39 381.36,204.75 382.18,204.75 C383.02,204.75 383.7,204.4 384.23,203.68 C384.77,202.96 385.04,201.83 385.04,200.28 C385.04,198.82 384.77,197.74 384.23,197.02 C383.69,196.31 383.02,195.95 382.23,195.95 C381.39,195.95 380.69,196.31 380.13,197.04 C379.59,197.75 379.32,198.85 379.32,200.34 L379.32,200.34 zM390.93,191.88 L396.94,191.88 L399.88,202.56 L402.9,191.88 L408.74,191.88 L402.34,208.73 L397.21,208.73 L390.93,191.88 L390.93,191.88 zM415.67,197.34 L410.15,196.69 C410.56,194.58 411.27,193.45 412.74,192.53 C413.26,192.2 414,191.95 414.93,191.77 C415.88,191.59 416.89,191.5 417.94,191.5 C419.68,191.5 421.07,191.61 422.12,191.83 C423.16,192.04 424.04,192.49 424.75,193.18 C425.24,193.65 425.62,194.33 425.91,195.22 C426.2,196.09 426.34,196.92 426.34,197.71 L426.34,205.15 C426.34,206.7 426.47,207.36 427.06,208.73 L421.64,208.73 C421.21,207.86 421.16,207.72 421.01,206.67 C420.26,207.48 419.5,208.06 418.75,208.4 C417.72,208.88 416.53,209.11 415.17,209.11 C413.38,209.11 412.02,208.65 411.09,207.72 C410.16,206.78 409.69,205.64 409.69,204.27 C409.69,203 410.03,201.95 410.7,201.12 C411.37,200.29 412.62,199.67 414.42,199.27 C416.59,198.79 418,198.45 418.64,198.26 C419.28,198.06 419.96,197.8 420.69,197.48 C420.69,197.48 420.69,197.47 420.69,197.47 C420.69,196.68 420.54,196.13 420.25,195.82 C419.95,195.5 419.43,195.34 418.7,195.34 C417.75,195.35 417.04,195.52 416.57,195.85 C416.2,196.12 415.9,196.61 415.67,197.34 L415.67,197.34 zM420.69,200.74 C419.83,201.08 419.01,201.35 418.2,201.58 C417.04,201.92 416.29,202.27 415.97,202.61 C415.65,202.95 415.49,203.35 415.49,203.79 C415.49,204.31 415.64,204.72 415.97,205.05 C416.29,205.37 416.75,205.53 417.36,205.53 C418.61,205.53 419.82,204.8 420.34,203.73 C420.57,203.23 420.69,202.57 420.69,201.77 L420.69,200.74 L420.69,200.74 zM441.05,202.13 L446.55,202.83 C445.94,205.43 444.55,207.28 442.41,208.33 C441.34,208.85 439.98,209.11 438.31,209.11 C435.09,209.11 433.1,208.49 431.57,207 C430.8,206.26 430.2,205.39 429.76,204.37 C429.32,203.38 429.11,202.05 429.11,200.39 C429.11,197.45 429.83,195.48 431.5,193.78 C432.15,193.12 432.84,192.62 433.57,192.28 C434.68,191.76 436.12,191.5 437.9,191.5 C440.36,191.5 442.25,192 443.54,192.98 C444.82,193.95 445.72,195.39 446.25,197.29 L440.81,198.1 C440.46,196.65 439.55,195.93 438.07,195.93 C437.11,195.93 436.33,196.31 435.75,197.07 C435.16,197.85 434.86,199.01 434.86,200.56 C434.86,201.94 435.15,202.99 435.74,203.7 C436.32,204.42 437.08,204.78 437.98,204.78 C438.74,204.78 439.37,204.56 439.9,204.13 C440.41,203.7 440.8,203.04 441.05,202.13 L441.05,202.13 zM465.95,201.91 L454.36,201.91 C454.46,202.93 454.71,203.72 455.1,204.23 C455.66,204.95 456.4,205.32 457.3,205.32 C457.87,205.32 458.41,205.16 458.92,204.84 C459.24,204.63 459.58,204.27 459.93,203.78 L465.62,204.37 C464.76,206.05 463.71,207.26 462.46,208.01 C461.23,208.74 459.47,209.11 457.17,209.11 C455.19,209.11 453.62,208.8 452.46,208.17 C451.32,207.54 450.38,206.55 449.62,205.18 C448.86,203.79 448.48,202.18 448.48,200.34 C448.48,197.7 449.23,195.58 450.74,193.94 C452.25,192.32 454.33,191.5 457,191.5 C459.16,191.5 460.86,191.87 462.11,192.6 C463.36,193.33 464.31,194.39 464.97,195.77 C465.62,197.15 465.95,198.96 465.95,201.18 L465.95,201.91 L465.95,201.91 zM460.07,198.82 C459.95,197.57 459.65,196.67 459.17,196.14 C458.68,195.6 458.03,195.33 457.24,195.33 C456.33,195.33 455.6,195.73 455.03,196.55 C454.69,197.04 454.47,197.79 454.37,198.82 L460.07,198.82 L460.07,198.82 z"/>  </g> </svg>