<svg xmlns="http://www.w3.org/2000/svg" xml:space="preserve" shape-rendering="geometricPrecision" text-rendering="geometricPrecision" image-rendering="optimizeQuality" fill-rule="evenodd" clip-rule="evenodd" xmlns:xlink="http://www.w3.org/1999/xlink" viewBox="0 0 1156.56 499.99">  <g id="Layer_1">   <metadata id="FutureCorpID_Layer"/>    <path fill="#000000" d="M176.88,195.18 C176.24,197.89 175.88,200.14 175.79,201.94 C175.72,202.69 175.63,203.16 175.53,203.37 C175.45,203.52 175.31,203.66 175.11,203.79 C174.84,203.96 174.12,204.29 172.96,204.79 C171.92,205.31 170.88,205.83 169.84,206.34 C165.94,208.25 160.9,210.22 154.73,212.24 C148.57,214.26 144.93,215.14 143.81,214.87 C142.58,214.58 141.99,214.08 142.07,213.38 C142.11,212.94 142.33,212.55 142.73,212.2 C143.06,211.92 143.64,211.53 144.47,211.03 C145.5,210.43 147.61,209.25 150.81,207.51 L164.51,200.02 C166.36,198.89 168.35,197.53 170.5,195.94 C172.65,194.35 174.43,192.92 175.86,191.63 L176.12,191.42 C176.87,190.83 177.32,190.77 177.45,191.24 C177.65,191.92 177.45,193.23 176.88,195.18 L176.88,195.18 zM156.82,301.04 C154.91,301.47 153.01,301.9 151.1,302.33 C148.19,302.98 146.51,303.36 146.07,303.48 C145.76,303.56 145.55,303.62 145.45,303.68 C145.3,303.76 145.19,303.97 145.12,304.3 C145.06,304.57 145.12,304.84 145.32,305.12 C145.45,305.31 145.75,305.69 146.2,306.24 C146.48,306.57 146.88,307.05 147.42,307.68 C147.9,308.26 148.59,309.07 149.47,310.11 C150.44,311.25 151.84,312.91 153.69,315.1 C154.39,315.92 154.82,316.41 154.98,316.57 C155.11,316.7 155.21,316.77 155.3,316.78 C155.41,316.8 155.6,316.72 155.89,316.54 C156.17,316.36 156.37,316.17 156.48,315.97 C156.57,315.81 156.66,315.57 156.75,315.24 C156.86,314.82 157.06,313.93 157.33,312.56 C158.27,308.61 159.08,305.58 159.78,303.48 C160.1,302.43 160.02,301.62 159.54,301.05 C159.29,300.76 159.11,300.6 159,300.56 C158.92,300.53 158.81,300.53 158.65,300.56 C158.44,300.59 157.83,300.76 156.82,301.04 L156.82,301.04 zM131.23,305.33 C129.31,305.48 127.39,305.63 125.47,305.78 C124.23,305.88 122.99,305.97 121.76,306.06 C120.83,306.26 120.3,306.39 120.16,306.43 C120.06,306.46 119.99,306.5 119.96,306.53 C119.9,306.58 119.85,306.76 119.78,307.04 C119.73,307.29 119.8,307.57 119.99,307.87 C120.13,308.08 120.43,308.49 120.89,309.1 C121.17,309.47 121.58,310.01 122.12,310.71 C122.61,311.35 123.3,312.25 124.2,313.41 C125.17,314.67 126.6,316.52 128.48,318.95 C129.68,320.36 130.38,321.17 130.57,321.37 C130.7,321.52 130.8,321.61 130.87,321.65 C130.96,321.7 131.11,321.69 131.34,321.62 C131.62,321.52 131.82,321.34 131.95,321.06 C132.04,320.86 132.18,320.46 132.38,319.86 C132.5,319.49 132.67,318.95 132.89,318.25 C133.1,317.61 133.38,316.71 133.75,315.54 C134.15,314.27 134.74,312.42 135.52,309.98 C136.08,308.22 136.41,307.2 136.48,306.92 C136.54,306.73 136.57,306.59 136.57,306.5 C136.57,306.38 136.49,306.18 136.32,305.9 C136.09,305.5 135.83,305.25 135.55,305.14 C135.32,305.06 134.98,305.02 134.52,305.03 C133.96,305.04 132.86,305.14 131.23,305.33 L131.23,305.33 zM89.61,304.94 C89.52,305.19 89.64,305.57 89.95,306.09 C90.21,306.53 90.7,307.23 91.42,308.19 C92.27,309.33 93.89,311.42 96.27,314.47 C97.7,316.3 98.83,317.75 99.67,318.81 C100.45,319.81 101.08,320.61 101.55,321.21 C102.06,321.85 102.46,322.35 102.75,322.72 C103.3,323.4 103.69,323.85 103.91,324.06 C104.2,324.35 104.49,324.45 104.77,324.36 C105.16,324.24 105.43,324.01 105.58,323.69 C105.69,323.47 105.86,323.01 106.08,322.32 C106.22,321.9 106.41,321.29 106.66,320.49 C106.88,319.75 107.2,318.73 107.61,317.4 C108.05,315.95 108.7,313.83 109.54,311.04 C110.08,309.25 110.39,308.21 110.46,307.93 C110.51,307.73 110.54,307.58 110.54,307.5 C110.54,307.38 110.47,307.19 110.32,306.93 C110.12,306.59 109.93,306.37 109.73,306.27 C109.58,306.2 109.35,306.14 109.03,306.12 C108.63,306.08 107.78,306.06 106.47,306.06 C106.25,306.05 105.57,306 104.44,305.89 C103.31,305.79 101.98,305.66 100.48,305.5 C98.97,305.35 97.63,305.21 96.47,305.09 C95.31,304.96 94.59,304.88 94.33,304.84 L94.28,304.85 C91.38,304.24 89.82,304.27 89.61,304.94 L89.61,304.94 zM80.54,325.42 C81.08,325.23 81.52,324.04 81.86,321.86 C82.73,317.38 83.61,312.91 84.49,308.43 C84.8,306.63 84.92,305.42 84.86,304.81 C84.81,304.31 84.63,303.93 84.32,303.68 C83.94,303.36 83.09,303.05 81.78,302.75 L65.14,298.12 L64.99,298.06 L61.92,297.19 L78.35,323.71 C79.42,324.99 80.15,325.56 80.54,325.42 L80.54,325.42 zM84.7,317.84 C84.19,319.94 83.8,321.58 83.53,322.74 C83.22,324.02 83,324.99 82.85,325.67 C82.61,326.78 82.48,327.55 82.47,327.97 C82.45,328.57 82.76,329.28 83.41,330.11 C87.39,334.83 91.37,339.55 95.35,344.27 C95.89,344.91 96.24,345.32 96.42,345.48 C96.56,345.61 96.68,345.68 96.78,345.7 C96.9,345.72 97.1,345.64 97.36,345.48 C97.61,345.32 97.77,345.19 97.84,345.07 C97.89,344.99 97.96,344.84 98.04,344.62 C98.17,344.31 98.61,343.14 99.36,341.13 C100.34,338.53 101.08,336.55 101.6,335.2 C102.06,333.96 102.43,332.99 102.68,332.29 C102.95,331.54 103.16,330.95 103.28,330.54 C103.5,329.86 103.59,329.35 103.55,329.01 C103.51,328.54 102.98,327.67 101.96,326.39 L88.44,309.37 L88.43,309.42 L87.14,307.8 C86.07,312.2 85.26,315.55 84.7,317.84 L84.7,317.84 zM112.68,310.06 L107.08,328.03 L122.91,345.22 L130.44,325.62 C127.41,321.57 125.1,318.48 123.52,316.37 C122.08,314.44 120.95,312.94 120.15,311.88 C119.28,310.71 118.61,309.82 118.15,309.22 C117.39,308.21 116.88,307.55 116.61,307.23 C116.24,306.78 115.88,306.5 115.56,306.41 C114.26,306.04 113.3,307.25 112.68,310.06 L112.68,310.06 zM133.09,325.04 L148.1,341.92 C150.46,334.79 152.82,327.66 155.18,320.53 L140.76,304.18 L140.69,304.23 C140.6,304.12 140.48,303.99 140.35,303.85 C140.22,303.7 140.11,303.57 140.01,303.46 C137.7,310.65 135.4,317.85 133.09,325.04 L133.09,325.04 zM164.26,299.11 C163.21,299.71 162.55,300.33 162.29,300.98 C160.72,307.12 159.15,313.26 157.58,319.4 L172.49,334.69 L180.18,312.67 C177.51,309.64 175.48,307.34 174.09,305.76 C172.81,304.32 171.83,303.19 171.12,302.4 C170.35,301.52 169.76,300.86 169.35,300.41 C168.68,299.66 168.22,299.16 167.98,298.93 C167.63,298.59 167.27,298.4 166.89,298.35 C166.19,298.25 165.31,298.51 164.26,299.11 L164.26,299.11 zM163.16,356.42 C163.91,354.58 164.48,353.17 164.88,352.2 C165.24,351.31 165.53,350.61 165.74,350.09 C165.97,349.53 166.16,349.08 166.3,348.73 C166.54,348.17 166.77,347.64 166.99,347.14 C167.13,346.84 167.31,346.46 167.52,346 C167.71,345.58 167.98,345.02 168.31,344.32 C168.67,343.54 169.18,342.43 169.85,340.98 C170.48,339.62 170.79,338.52 170.77,337.67 C170.75,336.93 170.49,336.18 169.99,335.43 C169.42,334.59 168.35,333.49 166.78,332.13 L157.9,323.65 L157.84,323.96 C157.47,323.71 157.1,323.48 156.71,323.25 L149.54,343.36 C154.08,347.71 158.62,352.07 163.16,356.42 L163.16,356.42 zM124.55,346.74 L139.73,359.52 C140,359.57 140.3,359.42 140.63,359.09 C140.96,358.75 141.25,358.31 141.49,357.75 L145.93,347.36 C146.45,346.13 146.74,345.27 146.77,344.76 C146.81,344.35 146.71,343.95 146.49,343.57 C146.22,343.11 145.57,342.37 144.53,341.37 L132.22,327.94 L132.25,327.85 L124.55,346.74 L124.55,346.74 zM100.21,346.34 C100.02,347.28 100.02,348.14 100.24,348.93 C100.48,349.8 101.03,350.79 101.9,351.89 L107.35,357.27 C107.95,357.86 108.33,358.24 108.49,358.42 C108.61,358.55 108.77,358.73 108.98,358.97 C109.27,359.3 110.29,360.49 112.03,362.53 C113.25,363.87 114.13,364.21 114.67,363.56 C114.79,363.42 115.18,362.63 115.85,361.19 C116.51,359.75 117.28,358.05 118.14,356.08 C118.99,354.11 119.72,352.41 120.31,350.98 C120.9,349.54 121.19,348.76 121.2,348.62 C121.22,347.89 120.55,346.92 119.19,345.71 L106.9,332.66 L106.92,332.54 L106.03,331.58 L101.8,342.18 C100.96,343.91 100.43,345.3 100.21,346.34 L100.21,346.34 zM89.66,345.09 C89.68,345.2 89.75,345.38 89.88,345.65 C90.07,346.03 90.83,347.46 92.17,349.93 C92.7,350.91 93.1,351.58 93.39,351.94 C93.64,352.26 93.87,352.44 94.08,352.47 C94.32,352.51 94.61,352.38 94.96,352.06 C95.97,351.14 95.53,349.59 93.63,347.41 C92.75,346.4 92.23,345.81 92.09,345.65 C91.99,345.54 91.92,345.46 91.86,345.41 C91.79,345.33 91.64,345.21 91.43,345.03 C91.26,344.9 91.1,344.77 90.94,344.63 C90.57,344.33 90.27,344.28 90.04,344.49 C89.77,344.74 89.64,344.94 89.66,345.09 L89.66,345.09 zM105.87,374.06 C106.93,375.83 107.69,376.53 108.15,376.16 L111.18,370.75 C111.97,369.34 112.36,368.46 112.35,368.1 C112.34,367.84 112.2,367.53 111.92,367.16 C111.75,366.94 111.5,366.65 111.17,366.28 C110.86,365.94 110.42,365.47 109.86,364.89 C109.25,364.25 108.37,363.33 107.22,362.15 C105.87,360.75 104.84,359.69 104.13,358.95 C103.48,358.28 102.97,357.76 102.62,357.39 C102.22,356.98 101.92,356.67 101.71,356.45 C101.36,356.09 101.11,355.82 100.96,355.65 C100.75,355.41 100.42,355.01 99.98,354.44 C99.85,354.28 99.72,354.14 99.58,353.99 C98.55,352.99 97.74,352.89 97.13,353.67 C96.05,355.08 96.13,356.9 97.4,359.13 L105.87,374.06 L105.87,374.06 zM122.36,351.74 C122.09,352.15 121.62,353.02 120.94,354.35 C120.27,355.67 119.54,357.15 118.76,358.79 C117.99,360.42 117.34,361.83 116.82,363.02 C116.3,364.21 116.03,364.9 116,365.1 C115.92,365.76 116,366.27 116.25,366.63 C116.42,366.88 116.8,367.3 117.39,367.9 C117.74,368.26 118.26,368.77 118.93,369.43 C119.55,370.04 120.41,370.89 121.53,371.98 C122.74,373.17 124.51,374.9 126.83,377.16 C127.7,378.09 128.39,378.72 128.89,379.05 C129.35,379.34 129.75,379.45 130.09,379.37 C130.47,379.27 130.85,378.93 131.25,378.34 L137.57,365.93 C138.07,364.95 138.19,364.2 137.92,363.69 C137.72,363.32 137.21,362.74 136.4,361.96 C135.95,361.52 135.31,360.93 134.49,360.18 C133.73,359.49 132.69,358.56 131.38,357.39 C129.98,356.13 128.02,354.4 125.52,352.18 C125.12,351.83 124.83,351.55 124.66,351.36 C124.57,351.25 124.49,351.17 124.44,351.12 C123.76,350.5 123.07,350.71 122.36,351.74 L122.36,351.74 zM145.97,351.65 C145.46,352.65 145.07,353.44 144.79,354 C144.48,354.62 144.25,355.1 144.08,355.45 C143.8,356.02 143.6,356.47 143.47,356.8 C143.29,357.28 142.98,358.35 142.53,360.02 C142.22,361.32 142.21,362.39 142.51,363.2 C142.77,363.91 143.32,364.66 144.17,365.45 C145.15,366.35 146.89,367.64 149.4,369.33 C150.58,370.12 151.77,371.02 152.98,372.03 C153.37,372.34 153.78,372.47 154.21,372.41 C154.65,372.35 155.01,372.12 155.3,371.71 C155.74,370.81 156.18,369.9 156.62,369 L161.22,360.1 C161.59,359.3 161.74,358.73 161.67,358.4 C161.62,358.15 161.43,357.85 161.11,357.5 C160.69,357.06 159.57,356.09 157.76,354.6 L149.95,348.15 L149.94,348.16 L148.38,346.87 C147.32,348.96 146.52,350.56 145.97,351.65 L145.97,351.65 zM165.23,358.38 L179.59,370.02 L187.48,350.92 L174.46,339.71 L174.48,339.71 L173.98,339.27 L165.23,358.38 L165.23,358.38 zM185.46,363.53 C184.81,365.04 184.3,366.21 183.94,367.05 C183.55,367.96 183.25,368.66 183.05,369.14 C182.72,369.93 182.52,370.48 182.44,370.76 C182.33,371.17 182.4,371.58 182.65,372.01 C182.8,372.27 184.07,373.28 186.45,375.05 C188.83,376.81 190.7,378.13 192.07,379 C192.14,379.06 192.37,379.25 192.77,379.6 C193.58,380.24 194.17,380.28 194.52,379.72 L196.71,362.71 C196.83,359.83 195.65,357.39 193.18,355.38 L193.14,355.34 C192.13,354.55 191.07,353.83 189.94,353.19 L188.57,356.35 C187.21,359.49 186.17,361.89 185.46,363.53 L185.46,363.53 zM162.72,363.37 L157.93,372.42 C157.04,374.12 157.26,375.44 158.62,376.4 L169.99,384.78 C170.67,385.22 171.21,385.4 171.62,385.3 C171.97,385.22 172.32,384.92 172.69,384.41 C173.1,383.81 173.69,382.69 174.44,381.05 C175.34,379.08 176.02,377.59 176.48,376.56 C176.9,375.62 177.22,374.88 177.44,374.35 C177.68,373.77 177.85,373.32 177.95,373 C178.11,372.47 178.14,372.05 178.02,371.75 C177.85,371.33 176.87,370.42 175.08,369.01 L165.22,361.25 C164.36,360.98 163.52,361.68 162.72,363.37 L162.72,363.37 zM180.87,374.58 C180.72,374.67 180.56,374.82 180.41,375.05 C180.23,375.33 179.95,375.87 179.57,376.68 L176.48,382.06 C174.78,385.01 174.67,387.34 176.15,389.05 C176.96,389.98 177.5,390.56 177.78,390.78 C177.98,390.94 178.27,391.12 178.65,391.34 C178.89,391.47 179.22,391.65 179.64,391.88 C180.03,392.08 180.58,392.37 181.27,392.73 C182.04,393.13 183.14,393.71 184.6,394.46 C185.07,394.71 185.6,395.03 186.2,395.43 C187.01,395.93 187.68,395.93 188.21,395.42 C188.45,395.2 188.62,394.97 188.74,394.74 C188.82,394.59 188.95,394.28 189.14,393.84 C189.25,393.57 189.41,393.17 189.62,392.66 C189.81,392.19 190.08,391.54 190.42,390.69 C190.8,389.77 191.34,388.42 192.06,386.64 C192.63,385.31 192.97,384.46 193.06,384.11 C193.14,383.85 193.16,383.61 193.13,383.4 C193.1,383.12 192.9,382.56 192.55,381.72 C192.21,381.34 189.32,379.33 183.88,375.69 C183.06,375.08 182.58,374.73 182.44,374.64 C182.35,374.57 182.27,374.53 182.22,374.51 C182.14,374.48 181.96,374.46 181.7,374.45 C181.32,374.43 181.05,374.48 180.87,374.58 L180.87,374.58 zM191.87,394.27 C191.67,394.56 191.47,394.91 191.29,395.32 C191.1,395.74 190.95,396.13 190.85,396.51 C190.74,396.89 190.7,397.17 190.73,397.36 C190.77,397.7 190.9,398 191.12,398.24 C191.34,398.48 191.56,398.58 191.79,398.54 C192.21,398.46 192.55,397.99 192.82,397.12 C193.08,396.26 193.15,395.4 193.03,394.53 C192.94,393.92 192.71,393.67 192.36,393.78 C192.23,393.82 192.06,393.99 191.87,394.27 L191.87,394.27 zM171.38,392.66 C170.8,393.49 170.14,394.77 169.41,396.48 C168.86,397.75 168.49,398.57 168.29,398.95 C168.15,399.22 167.96,399.55 167.72,399.92 C167.39,400.44 166.42,401.88 164.8,404.25 C164.17,405.23 163.83,406.08 163.8,406.8 C163.77,407.48 164,408.14 164.49,408.78 C165.01,409.46 165.91,410.23 167.18,411.08 C171.07,413.66 173.45,415.22 174.33,415.77 C174.98,416.17 175.46,416.43 175.75,416.54 C176.14,416.68 176.59,416.65 177.1,416.45 C177.52,416.29 177.9,415.97 178.22,415.5 C178.46,415.15 178.84,414.48 179.38,413.5 C179.66,412.98 180.03,412.29 180.48,411.43 C180.91,410.62 181.48,409.55 182.17,408.24 C182.91,406.84 183.89,404.96 185.12,402.62 C185.95,400.97 186.43,399.94 186.54,399.56 C186.63,399.27 186.64,399.03 186.57,398.84 C186.46,398.59 186.03,398.12 185.27,397.43 C185.15,397.33 185.05,397.27 184.99,397.23 C184.95,397.2 184.88,397.15 184.78,397.1 C184.64,397.01 184.11,396.7 183.21,396.17 C179.93,393.96 177.95,392.63 177.27,392.18 C176.77,391.86 176.42,391.63 176.2,391.5 C175.91,391.34 175.57,391.2 175.18,391.08 C174.35,390.83 173.64,390.85 173.03,391.12 C172.47,391.37 171.92,391.89 171.38,392.66 L171.38,392.66 zM188.22,402.52 C188.08,402.82 187.93,403.12 187.79,403.42 C185.72,407.77 183.64,412.11 181.56,416.44 C181.25,417.7 181.17,418.68 181.32,419.36 C181.46,419.96 181.81,420.53 182.37,421.07 C183.02,421.68 184.19,422.48 185.88,423.46 L190.27,425.99 L192.24,402.65 C192.17,402.27 191.92,401.81 191.48,401.27 C191.03,400.74 190.67,400.45 190.39,400.42 C189.6,400.33 188.88,401.03 188.22,402.52 L188.22,402.52 zM160.52,412.44 C158.82,415.17 157.13,417.91 155.45,420.66 C154.77,421.77 154.35,422.61 154.17,423.19 C154.02,423.7 154.01,424.16 154.14,424.56 C154.29,425.03 154.67,425.58 155.3,426.23 C155.67,426.58 156.35,427.11 157.35,427.83 C158.34,428.55 159.43,429.31 160.62,430.1 C161.82,430.89 162.86,431.55 163.76,432.08 C164.65,432.6 165.21,432.89 165.43,432.93 C166.02,433.05 166.51,433.03 166.89,432.87 C167.23,432.73 167.58,432.45 167.96,432.03 C168.39,431.55 168.99,430.71 169.77,429.51 C171.09,427.48 172.09,425.94 172.77,424.88 C173.4,423.9 173.88,423.14 174.22,422.6 C174.59,422.01 174.86,421.55 175.04,421.23 C175.33,420.69 175.47,420.29 175.46,420.04 C175.45,419.68 174.91,419.04 173.85,418.12 C173.51,417.85 173.23,417.63 173.01,417.47 C172.85,417.36 172.56,417.17 172.16,416.89 C171.91,416.72 171.55,416.48 171.08,416.17 C170.64,415.87 170.04,415.47 169.29,414.96 C168.45,414.4 167.23,413.58 165.62,412.49 C165.09,412.12 164.68,411.82 164.41,411.6 C162.91,410.4 161.62,410.68 160.52,412.44 L160.52,412.44 zM143.09,397.52 C142.93,397.69 142.66,398.05 142.28,398.58 C142.06,398.88 141.75,399.32 141.35,399.89 C140.98,400.41 140.47,401.13 139.83,402.04 C139.13,403.04 138.13,404.45 136.84,406.27 C135.91,407.6 135.33,408.46 135.1,408.85 C134.92,409.16 134.83,409.4 134.82,409.57 C134.81,409.79 134.97,410.07 135.28,410.4 L148.57,421.37 C150.07,422.55 151.17,422.8 151.86,422.11 C151.94,422.03 152.14,421.74 152.46,421.24 C152.73,420.81 153.17,420.08 153.8,419.05 C154.53,417.85 155.85,415.66 157.76,412.5 C158.15,411.88 158.58,411.26 159.05,410.66 C159.58,409.96 159.72,409.3 159.48,408.69 C159.36,408.39 159.16,408.11 158.86,407.85 C158.65,407.66 158.23,407.32 157.6,406.82 C157.21,406.52 156.65,406.08 155.92,405.5 C155.25,404.98 154.3,404.24 153.09,403.29 C151.76,402.26 149.82,400.74 147.27,398.76 C145.63,397.53 144.54,396.97 143.98,397.07 C143.61,397.13 143.32,397.28 143.09,397.52 L143.09,397.52 zM145.32,393.81 L161.29,406.5 L170.9,388.51 L156.35,378.03 C155.99,377.79 155.64,377.55 155.29,377.3 L145.32,393.81 L145.32,393.81 zM139.12,367.75 C138.85,368.08 138.39,368.95 137.74,370.36 C136.59,372.29 135.7,373.8 135.06,374.89 C134.46,375.9 133.99,376.7 133.65,377.3 C133.28,377.94 133,378.45 132.8,378.83 C132.45,379.5 132.25,380.01 132.21,380.36 C132.14,380.83 132.38,381.61 132.92,382.69 C133.3,383.36 133.7,383.93 134.12,384.39 C134.48,384.78 134.99,385.26 135.67,385.83 C136.47,386.51 137.94,387.67 140.07,389.32 L143.5,391.98 L152.76,376.23 C152.81,375.83 152.79,375.57 152.73,375.45 C152.68,375.36 152.57,375.24 152.41,375.1 C152.17,374.89 151.37,374.24 149.99,373.15 L142.07,366.85 C141.2,366.15 140.22,366.46 139.12,367.75 L139.12,367.75 zM112.22,371.99 L112.12,372.14 C112.11,372.18 112.07,372.24 112.03,372.33 C111.97,372.45 111.73,372.93 111.31,373.76 C109.88,376.37 109.11,377.95 109.01,378.5 C108.93,378.89 108.99,379.31 109.19,379.77 C109.31,380.04 109.51,380.41 109.78,380.86 C110.03,381.28 110.39,381.85 110.85,382.57 C111.36,383.36 112.11,384.51 113.11,386 C115.43,389.51 116.95,391.76 117.65,392.75 C118.2,393.54 118.63,394.08 118.92,394.37 C119.29,394.75 119.72,394.98 120.2,395.05 C120.55,395.11 120.87,395.04 121.15,394.85 C121.41,394.68 121.7,394.38 122.02,393.93 C122.38,393.43 122.88,392.62 123.53,391.5 C125.09,388.9 126.65,386.31 128.2,383.71 C128.3,383.24 128.16,382.79 127.79,382.36 C127.5,382.02 126.92,381.49 126.05,380.76 C124.92,379.81 122.12,377.55 117.63,373.97 C117.01,373.48 116.41,372.97 115.82,372.44 C115.09,371.83 114.52,371.42 114.12,371.23 C113.75,371.06 113.44,371.02 113.17,371.11 C112.87,371.21 112.55,371.5 112.22,371.99 L112.22,371.99 zM129.62,385.81 C129.21,386.25 128.45,387.28 127.34,388.89 C125.42,391.67 124.23,393.76 123.76,395.15 C123.35,396.36 123.32,397.45 123.67,398.44 C124.07,399.59 125.18,401.03 126.97,402.76 C129.24,404.95 130.74,406.3 131.48,406.8 C132.06,407.2 132.54,407.35 132.91,407.26 C133.38,407.15 134.01,406.5 134.81,405.31 C136.21,403.24 137.57,401.19 138.9,399.15 C140.23,397.12 140.91,396.06 140.94,395.96 C141.16,395.29 141.24,394.79 141.18,394.47 C141.13,394.21 140.98,393.94 140.73,393.64 C140.41,393.28 139.72,392.66 138.64,391.77 L131.89,385.97 C131.28,385.47 130.82,385.23 130.51,385.25 C130.25,385.27 129.96,385.46 129.62,385.81 L129.62,385.81 zM124.01,405.38 C124.03,405.6 124.16,405.92 124.38,406.35 C124.64,406.84 125.17,407.72 125.95,408.97 C126.73,410.26 127.51,411.55 128.29,412.84 C128.57,413.02 128.77,413.11 128.9,413.1 C128.99,413.08 129.11,413.02 129.26,412.9 C129.45,412.74 129.89,412.3 130.57,411.59 C130.82,411.2 130.9,410.83 130.79,410.49 C130.7,410.18 130.46,409.8 130.06,409.34 C129.6,408.8 128.75,407.96 127.51,406.8 C126.96,406.2 126.64,405.86 126.55,405.76 C126.49,405.69 126.44,405.64 126.4,405.61 C126.35,405.56 126.23,405.47 126.04,405.33 C125.88,405.21 125.72,405.08 125.56,404.94 C125.03,404.5 124.61,404.42 124.29,404.7 C124.07,404.9 123.97,405.12 124.01,405.38 L124.01,405.38 zM130.72,414.2 C130.29,414.59 130.05,414.95 130,415.28 C129.95,415.56 130.01,415.91 130.17,416.34 C130.37,416.85 130.81,417.7 131.5,418.89 L141.08,435.59 C141.46,435.82 141.81,435.83 142.13,435.64 C142.4,435.48 142.76,435.11 143.2,434.54 C143.74,433.86 144.71,432.5 146.11,430.46 C146.64,429.69 147.13,429.01 147.6,428.42 C148.9,426.72 148.61,425.14 146.73,423.69 C146.49,423.5 145.85,422.98 144.8,422.11 C143.76,421.24 142.54,420.23 141.16,419.07 C139.78,417.91 138.55,416.88 137.46,415.96 C136.37,415.04 135.68,414.44 135.38,414.18 C134.23,413.16 133.55,412.59 133.32,412.49 C133.17,412.41 133.01,412.41 132.84,412.49 C132.61,412.6 131.91,413.17 130.72,414.2 L130.72,414.2 zM150.61,427.95 C150.34,428.2 149.79,428.89 148.94,430.02 C147.85,431.48 147.01,432.61 146.42,433.41 C145.86,434.15 145.43,434.74 145.12,435.16 C144.78,435.62 144.52,435.98 144.33,436.24 C144.01,436.69 143.81,437.02 143.72,437.21 C143.59,437.48 143.56,437.86 143.65,438.34 C143.72,438.78 143.87,439.13 144.1,439.37 C144.26,439.55 144.59,439.86 145.09,440.29 C145.39,440.55 145.83,440.93 146.4,441.42 C146.93,441.87 147.67,442.5 148.62,443.3 C149.66,444.19 151.18,445.48 153.18,447.17 C154.07,447.93 154.74,448.43 155.2,448.7 C155.61,448.93 155.96,449.04 156.25,449.02 C156.58,449 156.93,448.81 157.31,448.45 C159.06,445.93 160.81,443.41 162.57,440.89 C163.56,439.57 164.17,438.74 164.37,438.41 C164.53,438.16 164.61,437.95 164.63,437.79 C164.65,437.58 164.54,437.22 164.31,436.72 C164.21,436.52 163.85,436.17 163.23,435.69 C162.67,435.25 161.77,434.6 160.53,433.72 C159.14,432.75 156.92,431.22 153.87,429.13 C153.41,428.82 152.98,428.54 152.57,428.29 C151.9,427.88 151.45,427.67 151.2,427.67 C151.02,427.67 150.82,427.76 150.61,427.95 L150.61,427.95 zM148.81,448.28 C148.53,448.82 149.09,450.07 150.5,452.03 L151.83,454.06 C152.37,454.5 153,454.19 153.73,453.13 C153.98,452.74 154.1,452.45 154.08,452.25 C154.07,452.09 153.98,451.9 153.82,451.66 C153.61,451.35 153.07,450.7 152.19,449.71 L151.03,448.77 C150.73,448.51 150.5,448.32 150.34,448.19 C149.63,447.67 149.12,447.7 148.81,448.28 L148.81,448.28 zM166.61,440.4 C165.87,441.28 163.9,443.86 160.7,448.16 C159.87,449.28 159.4,450.1 159.29,450.64 C159.21,451.09 159.32,451.52 159.63,451.93 C160.01,452.42 160.87,453.13 162.23,454.05 C163.76,455.21 164.96,456.12 165.83,456.78 C166.65,457.39 167.29,457.88 167.78,458.24 C168.3,458.62 168.71,458.92 169.02,459.14 C169.57,459.52 169.98,459.77 170.25,459.88 C170.61,460.03 171.15,460.04 171.86,459.91 C172.57,459.77 173.19,459.48 173.73,459.02 C174.22,458.6 174.74,457.96 175.29,457.11 C175.89,456.18 176.66,454.78 177.59,452.92 C177.95,452.19 178.43,451.3 179.05,450.23 C179.66,449.16 180.14,448.36 180.5,447.81 C180.89,447.21 180.98,446.72 180.76,446.35 C180.59,446.05 180.15,445.67 179.45,445.22 C178.58,444.66 176.69,443.58 173.76,441.99 C171.94,441.01 170.6,440.24 169.72,439.69 C168.9,439.17 168.29,439.01 167.89,439.2 C167.58,439.35 167.16,439.75 166.61,440.4 L166.61,440.4 zM182.04,450.17 C180.24,452.79 178.74,455.09 177.52,457.06 C176.29,459.03 175.64,460.21 175.57,460.61 C175.42,461.33 175.47,461.91 175.71,462.33 C175.91,462.69 176.31,463.08 176.92,463.49 C177.63,463.97 178.95,464.7 180.88,465.67 C181.82,466.23 182.52,466.61 182.96,466.81 C183.35,466.98 183.68,467.07 183.95,467.09 C184.26,467.11 184.6,467.03 184.98,466.85 C185.43,466.64 185.73,466.3 185.86,465.84 C185.97,465.49 186.08,464.85 186.18,463.92 C186.32,462.69 186.62,459.43 187.07,454.13 C187.23,452.3 187.29,451.09 187.26,450.52 C187.23,450.07 187.14,449.72 186.99,449.46 C186.8,449.14 186.33,448.75 185.59,448.29 C184.44,447.63 183.26,448.26 182.04,450.17 L182.04,450.17 zM185.46,444.31 C185.15,445.18 185.4,445.82 186.2,446.23 C186.87,446.57 187.4,446.33 187.76,445.5 C188.62,443.37 188.57,442.16 187.59,441.86 C186.92,441.65 186.2,442.47 185.46,444.31 L185.46,444.31 zM178.03,422.4 C177.97,422.46 177.89,422.55 177.81,422.68 C177.69,422.87 177.28,423.57 176.59,424.77 C175.48,426.62 174.34,428.47 173.18,430.3 C172.02,432.13 171.21,433.37 170.74,434.02 C170.32,434.67 170.13,435.19 170.15,435.58 C170.17,435.92 170.36,436.27 170.72,436.63 C171.13,437.03 171.9,437.58 173.05,438.27 C176.94,440.74 179.35,442.23 180.28,442.76 C180.98,443.16 181.49,443.39 181.8,443.45 C182.2,443.54 182.64,443.35 183.11,442.89 C183.43,442.56 183.93,441.77 184.63,440.53 C185.32,439.28 186.06,437.85 186.83,436.23 C187.6,434.6 188.25,433.13 188.78,431.81 C189.3,430.49 189.59,429.61 189.64,429.15 C189.75,428.3 189.46,427.64 188.78,427.16 L180.82,422.49 C180,421.98 179.31,421.83 178.75,422.06 C178.36,422.21 178.12,422.32 178.03,422.4 L178.03,422.4 zM156.42,453.94 C155.59,454.52 154.92,455.17 154.41,455.91 C153.89,456.64 153.69,457.24 153.79,457.69 C153.84,457.91 153.95,458.16 154.1,458.45 C154.21,458.65 154.44,459.05 154.77,459.65 C154.98,460.01 155.28,460.53 155.67,461.21 C156.03,461.84 156.54,462.72 157.19,463.86 C157.9,465.1 158.93,466.91 160.27,469.3 C161.19,470.93 161.72,471.86 161.88,472.1 C161.98,472.27 162.07,472.38 162.13,472.43 C162.23,472.5 162.45,472.52 162.8,472.48 C163.12,472.44 163.36,472.35 163.52,472.2 C163.63,472.09 163.82,471.87 164.09,471.54 C164.25,471.34 164.48,471.05 164.78,470.67 C165.06,470.32 165.44,469.83 165.93,469.19 C166.48,468.5 167.26,467.48 168.3,466.15 C169.33,464.9 169.96,464.01 170.19,463.5 C170.38,463.08 170.4,462.71 170.25,462.4 C170.08,462.03 169.53,461.54 168.61,460.94 C165.7,459.09 162.78,457.25 159.87,455.41 C158.47,454.45 157.66,453.9 157.44,453.77 C157.28,453.67 157.16,453.62 157.08,453.62 C156.97,453.61 156.75,453.72 156.42,453.94 L156.42,453.94 zM171.58,465.21 C170.94,465.82 170.02,466.97 168.83,468.66 C167.82,470.12 166.86,471.35 165.95,472.36 C164.72,473.81 165.29,475.18 167.67,476.47 C169.41,477.41 171.14,478.35 172.88,479.29 C174.33,479.89 175.47,480.09 176.28,479.89 C176.96,479.72 177.71,479.23 178.55,478.4 C179.54,477.42 181.21,475.38 183.55,472.29 C184.05,471.67 184.35,471.29 184.44,471.16 C184.51,471.06 184.56,470.99 184.58,470.93 C184.61,470.86 184.61,470.74 184.59,470.57 C184.55,470.3 184.44,470.06 184.25,469.86 C184.09,469.69 183.81,469.48 183.43,469.25 C182.99,468.97 182.2,468.52 181.07,467.92 L175.71,464.78 C174.65,464.35 173.81,464.19 173.2,464.3 C172.67,464.39 172.13,464.69 171.58,465.21 L171.58,465.21 zM183.12,476.46 L183.12,476.48 L179.45,480.34 C179.05,481.05 179.13,481.66 179.72,482.16 C180.41,482.75 181.12,483.11 181.87,483.24 C182.63,483.37 183.22,483.25 183.65,482.86 C183.84,482.69 183.99,482.42 184.1,482.06 C184.2,481.73 184.28,481.25 184.36,480.63 C184.45,479.92 184.54,478.84 184.65,477.36 C184.66,476.88 184.57,476.53 184.38,476.31 C184.08,475.95 183.66,476 183.12,476.46 L183.12,476.46 zM166.56,479.88 C166.59,479.97 166.66,480.13 166.78,480.36 C166.95,480.7 167.62,481.97 168.79,484.16 C169.43,485.43 170.25,485.98 171.24,485.81 C171.69,485.73 172.25,485.34 172.92,484.64 C173.59,483.93 173.98,483.33 174.08,482.84 C174.15,482.5 174.09,482.23 173.91,482.02 C173.75,481.84 173.45,481.63 173,481.39 C172.46,481.11 171.44,480.64 169.92,479.99 L169.64,479.85 C168.23,479.05 167.26,478.92 166.73,479.47 C166.59,479.62 166.53,479.76 166.56,479.88 L166.56,479.88 zM174.81,485.17 C173.54,486.23 172.63,487.26 172.09,488.25 C171.33,489.67 172.93,492.2 176.9,495.84 C177.84,496.67 178.86,496.73 179.97,496.01 C181.07,495.3 181.97,493.99 182.67,492.1 C183.18,490.5 183.47,489.36 183.54,488.69 C183.59,488.14 183.53,487.64 183.34,487.21 C183.12,486.69 182.59,485.98 181.75,485.08 C181.27,484.62 180.65,484.23 179.9,483.93 C179.15,483.62 178.49,483.48 177.9,483.5 L177.81,483.5 C177.09,483.55 176.1,484.1 174.81,485.17 L174.81,485.17 zM121.47,3.39 C126.27,6.55 129.93,11.27 132.46,17.54 C135.26,24.49 135.9,31.77 134.39,39.39 C132.87,47 129.33,54.35 123.76,61.42 L120.17,65.74 C118.76,67.44 117.93,68.82 117.68,69.87 C117.47,70.79 117.61,71.74 118.11,72.73 C118.69,73.85 119.96,75.42 121.93,77.42 C123.91,79.44 125.82,81 127.66,82.12 C129.33,83.14 131.28,83.99 133.5,84.69 C135.93,85.46 139.24,86.2 143.43,86.93 C166.11,90.88 183.14,101.04 194.51,117.42 C195.1,118.26 195.39,118.87 195.39,119.25 C195.39,119.52 195.3,119.96 195.12,120.57 C195.01,120.93 194.85,121.46 194.62,122.14 C194.41,122.77 194.12,123.65 193.74,124.77 C193.32,126 192.72,127.79 191.93,130.15 L190.46,134.56 C190.23,134.86 189.88,134.81 189.42,134.41 C189.21,134.23 189.03,133.85 188.86,133.26 C188.52,132.17 187.6,130.41 186.09,127.97 C184.59,125.54 183.15,123.49 181.78,121.82 C172.76,110.89 159.18,104.05 141.04,101.3 C136.51,100.62 132.65,99.73 129.44,98.64 C126.41,97.6 123.59,96.27 120.98,94.63 C118.21,92.9 115.32,90.6 112.31,87.73 C111.93,87.39 111.52,86.98 111.07,86.49 C110.65,86.05 110.16,86.18 109.6,86.88 C108.94,87.77 108.49,90.96 108.26,96.43 C108.02,102.12 109.41,107.73 112.43,113.28 C115.45,118.84 119.57,123.33 124.79,126.77 C131.38,131.11 138.28,132.1 145.47,129.72 C146.06,129.5 146.57,129.38 147,129.36 C147.42,129.34 147.68,129.43 147.77,129.61 C147.82,129.71 147.8,129.85 147.72,130.04 C147.63,130.23 147.52,130.39 147.39,130.52 C146.95,130.93 145.52,131.44 143.12,132.05 C140.71,132.67 138.56,133.06 136.65,133.23 C128.61,133.96 120.9,131.78 113.55,126.7 C106.19,121.61 101.04,114.89 98.1,106.55 C94.1,95.16 95.96,82.36 103.7,68.14 C104.75,66.21 105.43,65 105.73,64.52 C105.94,64.18 106.22,63.76 106.57,63.26 C106.79,62.95 107.08,62.54 107.47,62.01 C107.81,61.52 108.3,60.85 108.92,59.99 C109.59,59.06 110.57,57.7 111.86,55.92 C114.45,52.31 116.47,48.82 117.9,45.44 C120.59,39.12 121.64,32.96 121.06,26.97 C120.48,20.98 118.4,16.54 114.83,13.66 C113.88,12.89 113.1,12.41 112.47,12.2 C111.91,12.02 111.35,12.02 110.8,12.19 C110.19,12.39 109.42,12.86 108.5,13.61 C107.96,14.04 107.6,14.43 107.42,14.77 C107.26,15.06 107.19,15.41 107.21,15.81 C107.23,16.26 107.38,16.94 107.65,17.84 C109.92,27.04 102.62,35.47 85.74,43.12 C79.51,45.95 74.71,48.22 71.34,49.94 C68.35,51.46 65.67,52.96 63.28,54.44 C60.59,56.11 57.47,58.28 53.93,60.94 C42.43,69.57 34.26,78.68 29.42,88.29 C20.78,105.44 23.17,124.6 36.57,145.76 C39.94,151.08 43.42,155.58 47.03,159.26 C50.53,162.83 54.35,165.86 58.5,168.35 C62.78,170.92 67.68,173.08 73.21,174.84 C74.09,175.15 74.74,175.33 75.16,175.39 C75.58,175.44 75.95,175.55 76.27,175.72 C76.59,175.89 76.78,176.08 76.85,176.28 C76.89,176.41 76.88,176.57 76.81,176.75 C76.74,176.93 76.64,177.05 76.52,177.11 C76.48,177.14 76.44,177.15 76.39,177.14 C76.36,177.14 76.31,177.13 76.22,177.12 C76.11,177.09 75.66,177.01 74.88,176.86 C57.69,174.58 43.4,167.59 31.99,155.87 C30.96,154.81 30.32,154.14 30.07,153.85 C29.89,153.65 29.67,153.38 29.41,153.06 C29.25,152.86 29.04,152.58 28.77,152.23 C28.51,151.9 28.17,151.46 27.73,150.89 C27.25,150.26 26.54,149.35 25.61,148.16 C24.66,146.94 23.62,145.81 22.48,144.77 C21.31,147.42 20.47,149.88 19.95,152.17 C16.13,168.95 18.98,184.59 28.52,199.08 C33.71,206.97 40.35,213.9 48.42,219.87 C67.43,233.92 89.49,241.27 114.59,241.9 C123.06,242.11 131.34,241.66 139.41,240.54 C140.18,240.46 140.87,240.45 141.45,240.49 C142.04,240.53 142.36,240.62 142.41,240.76 C142.44,240.84 142.4,240.96 142.3,241.12 C142.19,241.29 142.07,241.42 141.92,241.52 C141.04,242.13 137.97,242.83 132.72,243.61 C127.46,244.39 122.45,244.9 117.68,245.13 C96,246.17 77.06,243.65 60.85,237.58 C45.34,231.77 32.68,223.42 22.87,212.54 L19.11,208.37 C18.58,210.68 18.18,212.44 17.91,213.65 C17.65,214.76 17.46,215.62 17.32,216.25 C17.17,216.93 17.05,217.47 16.97,217.85 C16.84,218.5 16.74,219.02 16.69,219.42 C16.62,219.98 16.53,221.33 16.43,223.45 C15.9,235 19.54,246.26 27.36,257.22 C35.17,268.19 45.85,277.02 59.39,283.71 C80.75,294.26 102.14,299.02 123.57,297.98 C137.16,297.31 149.75,294.84 161.35,290.54 C163.9,289.59 165.45,289.01 166.01,288.78 C166.41,288.61 166.83,288.42 167.26,288.21 C167.88,287.92 169.7,286.99 172.73,285.44 C173.31,285.17 173.71,285.08 173.93,285.16 C174.1,285.22 174.25,285.43 174.38,285.77 C174.53,286.18 174.74,287.1 175.01,288.5 C175.37,290.41 175.74,292.31 176.11,294.22 C176.01,294.56 175.92,294.76 175.85,294.83 C175.8,294.88 175.7,294.93 175.57,294.99 C175.37,295.07 174.65,295.32 173.4,295.74 C172.81,295.95 172.32,296.26 171.91,296.68 C171.5,297.1 171.33,297.47 171.39,297.79 L179.28,306.93 C179.81,307.57 180.44,308.68 181.17,310.25 C181.9,311.82 182.4,313.15 182.67,314.25 C182.75,314.64 182.78,314.93 182.74,315.11 C182.72,315.24 182.65,315.46 182.55,315.76 C182.4,316.19 181.81,317.78 180.8,320.53 L174.81,336.78 L187.26,348.52 C187.77,348.74 188.15,348.69 188.38,348.39 C188.56,348.16 188.8,347.66 189.1,346.88 C189.5,345.84 190.52,342.97 192.14,338.25 C192.6,337.05 193.05,335.84 193.5,334.64 C193.85,334.32 194.27,334.23 194.76,334.39 C195.25,334.55 195.64,334.89 195.93,335.42 C196.13,335.81 196.2,336.17 196.13,336.48 C196.09,336.71 195.95,337.13 195.73,337.74 C195.59,338.11 195.39,338.64 195.13,339.34 C194.89,339.98 194.55,340.88 194.11,342.03 C193.62,343.3 192.92,345.14 191.99,347.56 C191.63,348.7 191.49,349.62 191.56,350.31 C191.63,350.92 191.89,351.52 192.33,352.09 C192.83,352.74 193.72,353.54 194.99,354.51 C195.94,355.34 196.59,355.62 196.95,355.35 C197.09,355.24 197.17,355.13 197.2,355.02 C197.22,354.94 197.25,354.79 197.27,354.56 C197.31,354.25 197.43,353.04 197.64,350.95 L198.6,344.41 C198.75,343.4 198.85,342.1 198.9,340.53 C198.93,339.94 199.13,339.61 199.49,339.53 C199.66,339.49 199.78,339.49 199.84,339.52 C199.89,339.54 199.97,339.58 200.07,339.66 C200.22,339.76 200.76,340.18 201.68,340.91 C203.41,342.12 205.13,343.33 206.86,344.54 C207.98,345.35 208.51,346.06 208.44,346.66 L197.48,419.5 C194.6,438.67 191.7,457.84 188.77,477.01 C187.36,486.3 186.41,491.74 185.93,493.31 L183.73,498.47 C183.46,498.98 183.17,499.49 182.88,499.99 L175.1,499.59 C174.22,499.35 173.49,498.94 172.92,498.35 C172.46,497.89 171.85,497.07 171.07,495.91 C170.08,494.44 168.03,491.19 164.9,486.13 C124.06,420.23 83.22,354.33 42.39,288.42 C41.35,287.03 40.65,286.14 40.29,285.77 C40.04,285.51 39.66,285.17 39.15,284.76 C38.85,284.51 38.42,284.16 37.86,283.71 C37.35,283.31 36.64,282.74 35.73,282.02 C34.73,281.23 33.28,280.09 31.38,278.58 C14.34,265.12 4.42,248.9 1.59,229.93 C-0.1,218.58 2.05,208.11 8.04,198.54 L9.93,195.52 L4.34,184.46 C0.97,176.43 -0.43,168.49 0.12,160.66 C0.67,152.83 3.12,146.01 7.47,140.19 C9.64,137.29 11.6,135.17 13.36,133.83 C14.46,132.99 15.64,132.26 16.9,131.66 L13.27,120.53 C10.63,109.37 11.38,98.15 15.52,86.88 C19.66,75.62 26.74,65.57 36.75,56.75 C47.26,47.49 61.91,39.05 80.68,31.43 C90.09,27.62 94.87,23.15 95.03,18.02 L94.85,13.84 C94.78,10.7 95.8,7.95 97.89,5.6 C99.98,3.24 102.91,1.56 106.68,0.53 C111.73,-0.72 116.66,0.23 121.47,3.39 L121.47,3.39 z"/>   <path fill="#FF69B4" d="M1088.27,327.57 L1088.29,327.6 C1086.86,328.35 1085.06,329.13 1082.89,329.93 C1080.72,330.73 1078.98,331.26 1077.66,331.52 C1077.07,331.66 1076.65,332.03 1076.39,332.62 C1076.14,333.21 1076.12,333.89 1076.33,334.64 C1076.57,335.49 1076.72,336.11 1076.77,336.49 C1076.81,336.77 1076.85,337.22 1076.9,337.85 C1076.93,338.24 1076.97,338.78 1077.02,339.49 C1077.07,340.14 1077.13,341.04 1077.21,342.22 C1077.3,343.49 1077.43,345.35 1077.59,347.79 C1077.93,350.97 1078.89,352.3 1080.47,351.8 C1082.41,351.3 1084.27,349.35 1086.05,345.95 C1086.73,344.64 1087.28,343.37 1087.71,342.13 C1088.09,341.04 1088.48,339.68 1088.88,338.05 C1089.34,336.19 1089.97,333.38 1090.76,329.6 C1090.9,328.79 1090.65,328 1090.01,327.23 C1089.82,327.03 1089.69,326.92 1089.63,326.9 C1089.59,326.89 1089.53,326.9 1089.45,326.94 C1089.34,326.98 1088.95,327.19 1088.27,327.57 L1088.27,327.57 zM1024.51,296.22 C1024.4,296.87 1024.43,297.61 1024.58,298.45 C1024.75,299.67 1024.92,300.88 1025.09,302.1 C1025.38,304.08 1025.68,305.53 1026.01,306.45 C1026.28,307.21 1026.68,307.97 1027.21,308.72 C1027.84,309.62 1029.03,311.01 1030.78,312.91 C1031.77,314 1032.42,314.75 1032.71,315.16 C1032.92,315.48 1033.15,315.88 1033.4,316.36 C1033.72,317.02 1034.51,318.75 1035.75,321.54 C1036.36,322.78 1036.94,323.34 1037.49,323.23 C1037.87,323.15 1038.43,322.71 1039.17,321.93 C1039.91,321.14 1040.32,320.54 1040.4,320.14 C1040.47,319.77 1040.48,319.52 1040.42,319.39 C1040.39,319.29 1040.3,319.15 1040.15,318.96 C1039.95,318.7 1039.17,317.72 1037.81,316.05 C1033.53,310.79 1030.07,304.78 1027.43,298.02 C1027.24,297.55 1026.97,297.01 1026.62,296.41 C1026.04,295.25 1025.55,294.78 1025.16,294.99 C1024.84,295.17 1024.62,295.58 1024.51,296.22 L1024.51,296.22 zM844.12,327.77 L844.11,327.76 L842.33,328.62 C841.05,329.11 840.07,329.48 839.4,329.74 C838.78,329.98 838.3,330.16 837.96,330.28 C837.59,330.43 837.3,330.53 837.1,330.61 C836.77,330.73 836.53,330.82 836.39,330.86 C836.18,330.92 835.85,331 835.41,331.07 C834.38,331.25 833.66,331.49 833.24,331.79 C832.87,332.06 832.64,332.44 832.57,332.92 C832.48,333.47 832.57,334.31 832.82,335.44 C832.99,336.17 833.09,336.72 833.13,337.08 C833.16,337.34 833.2,337.77 833.24,338.37 C833.27,338.73 833.3,339.25 833.35,339.93 C833.4,340.57 833.45,341.44 833.53,342.53 C833.61,343.75 833.73,345.52 833.89,347.85 C834.25,350.34 834.91,351.71 835.88,351.97 C836.5,352.14 837.37,351.78 838.47,350.89 C839.58,349.99 840.59,348.83 841.53,347.4 C843.97,343.52 845.74,337.76 846.83,330.12 C846.93,328.69 846.84,327.8 846.57,327.46 C846.23,327.05 845.41,327.15 844.12,327.77 L844.12,327.77 zM771.42,257.45 C771.43,257.69 771.51,258.16 771.66,258.86 C771.73,260.96 771.81,263.07 771.88,265.17 C772.03,268.07 772.42,272.54 773.06,278.57 C773.7,284.6 774.27,289.28 774.78,292.59 C776.78,305.73 779.02,315.78 781.51,322.74 C782.47,325.41 784,327.59 786.11,329.27 C786.33,329.46 786.59,329.72 786.89,330.05 C787.2,330.4 787.55,330.6 787.96,330.64 C788.36,330.69 788.72,330.57 789.03,330.29 C789.09,330.24 789.14,330.19 789.17,330.14 C789.19,330.11 789.22,330.05 789.27,329.96 C789.35,329.83 789.61,329.34 790.07,328.5 C790.81,327.25 792.92,324.61 796.39,320.58 C796.7,320.2 796.84,319.82 796.79,319.43 C796.77,319.3 796.71,319.17 796.62,319.04 C796.56,318.95 796.43,318.78 796.23,318.53 C795.95,318.18 794.86,316.84 792.98,314.52 C784.3,303.83 778.06,286.7 774.26,263.12 L774.25,263.08 C774.09,262.07 773.8,260.54 773.39,258.51 C773.3,257.96 773.25,257.33 773.25,256.62 C773.23,256.16 773.11,255.77 772.89,255.43 C772.67,255.09 772.42,254.92 772.14,254.92 C771.61,254.93 771.37,255.77 771.42,257.45 L771.42,257.45 zM838.78,174.6 L838.63,177 L836.91,187.89 C836.48,190.61 836.13,193.13 835.85,195.47 C835.61,197.58 835.36,199.99 835.13,202.68 C834.87,205.65 834.56,209.68 834.19,214.78 L833.72,221.36 L833.3,239.01 C833.3,241.21 833.31,242.47 833.32,242.81 C833.33,243.05 833.35,243.22 833.38,243.31 C833.42,243.45 833.59,243.63 833.88,243.86 C834.41,244.28 834.95,243.54 835.51,241.64 C836.5,237.51 837.72,230.08 839.15,219.36 C840.59,208.64 841.64,199.14 842.31,190.86 L843.52,175.91 C843.49,175.63 843.37,175.33 843.17,175 C842.96,174.66 842.73,174.39 842.46,174.18 C841.76,173.66 841.02,173.45 840.25,173.54 C839.48,173.63 838.99,173.99 838.78,174.6 L838.78,174.6 zM773.47,169.67 C773.27,169.86 773.12,170.08 773.02,170.31 C772.9,170.61 772.95,170.9 773.18,171.17 C773.41,171.45 773.72,171.3 774.12,170.73 C774.29,170.49 774.35,170.24 774.32,169.97 C774.28,169.71 774.15,169.53 773.94,169.44 C773.84,169.4 773.68,169.47 773.47,169.67 L773.47,169.67 zM672.18,189.54 C672.1,189.95 672.16,190.92 672.37,192.46 C672.58,194 672.81,195.16 673.05,195.96 C673.61,197.62 674.38,199.19 675.34,200.64 C676.22,201.97 677.44,203.47 678.99,205.16 C680.7,207.01 683.2,209.49 686.51,212.61 L687.59,213.9 C687.88,214.25 688.25,214.45 688.7,214.49 C689.15,214.53 689.5,214.4 689.75,214.1 C690.29,213.45 690.22,212.45 689.54,211.11 C689.31,210.71 689.16,210.46 689.08,210.37 C689.02,210.31 688.94,210.25 688.83,210.18 C688.67,210.08 688.12,209.77 687.15,209.24 C684.85,207.87 682.98,206.4 681.53,204.82 C680.16,203.34 679.01,201.58 678.07,199.56 C677.08,197.42 676.22,194.72 675.47,191.45 C675.27,190.64 675.12,189.98 675.04,189.46 C674.87,188.61 674.58,188.07 674.15,187.85 C673.82,187.67 673.44,187.77 673,188.14 C672.57,188.51 672.3,188.98 672.18,189.54 L672.18,189.54 zM706.25,233.94 C706.2,234.09 706.24,234.25 706.38,234.41 C706.57,234.65 706.77,234.65 706.96,234.41 C707.03,234.33 707.07,234.26 707.09,234.19 C707.12,234.08 707.11,233.96 707.04,233.83 C706.97,233.69 706.89,233.6 706.77,233.56 C706.68,233.52 706.58,233.54 706.47,233.62 C706.36,233.7 706.29,233.8 706.25,233.94 L706.25,233.94 zM624.08,247.02 C623.98,247.57 623.94,248.34 623.95,249.33 C623.96,250.44 624.06,252.15 624.23,254.47 C624.47,257.7 624.61,259.58 624.64,260.11 C624.67,260.49 624.68,260.78 624.69,261 C624.7,261.3 624.69,261.98 624.67,263.03 C624.7,263.96 624.85,264.75 625.13,265.41 C625.41,266.06 625.73,266.4 626.1,266.4 C626.36,266.41 626.55,266.37 626.67,266.29 C626.77,266.23 626.9,266.11 627.07,265.92 C627.29,265.68 627.82,265.04 628.67,264 C629.73,262.78 631.51,261.35 634.03,259.7 C634.2,259.58 634.43,259.34 634.71,258.98 C635,258.63 635.16,258.38 635.2,258.25 C635.27,258.02 635.24,257.78 635.13,257.52 C635.02,257.3 634.83,257.01 634.53,256.63 C634.2,256.2 633.61,255.52 632.77,254.57 L629.39,250.07 C628.63,249.06 628.19,248.47 628.06,248.3 C627.98,248.18 627.91,248.08 627.86,248.01 C627.79,247.91 627.63,247.67 627.39,247.3 C626.16,245.4 625.27,244.79 624.74,245.47 C624.41,245.88 624.19,246.4 624.08,247.02 L624.08,247.02 zM484.13,208.06 C483.95,208.35 483.31,209.49 482.21,211.48 C481.36,213.01 479.91,215.29 477.87,218.32 C474.94,222.66 471.77,226.87 468.34,230.93 L466.17,233.52 L471.86,245.05 C473.89,249.76 476.31,256.29 479.13,264.63 C481.95,272.97 483.99,279.68 485.27,284.76 C485.98,287.83 486.6,289.3 487.13,289.15 C487.45,289.06 487.68,288.78 487.82,288.32 C487.95,287.89 488.03,287.23 488.05,286.34 C488.08,285.37 488.06,283.93 487.98,282.03 C487.88,279.72 487.83,278.19 487.82,277.45 C487.81,276.92 487.82,276.17 487.82,275.17 C487.83,274.57 487.84,273.73 487.85,272.65 C487.87,271.63 487.88,270.25 487.91,268.49 C487.93,266.55 487.97,263.73 488.01,260.03 C488.04,257.83 488.03,255.91 488,254.25 C487.97,252.79 487.92,251.14 487.84,249.3 C487.75,247.22 487.59,244.22 487.37,240.32 L487.47,232.64 L486.87,221.27 L486.77,216.86 L486.08,209.84 C486.03,209.44 485.89,209.02 485.65,208.57 C485.41,208.13 485.17,207.85 484.93,207.74 C484.67,207.62 484.5,207.6 484.41,207.67 C484.34,207.72 484.25,207.85 484.13,208.06 L484.13,208.06 zM869.94,78 C874.64,81.83 878.14,86.27 880.45,91.32 C885.13,101.55 884.77,111.27 879.36,120.48 C878.07,122.53 876.79,124.58 875.51,126.64 L884.08,129.48 C892.08,133.27 898.18,140.01 902.39,149.68 L904.32,154.12 C905.81,152.22 907.29,150.67 908.77,149.46 C915.65,143.82 923.19,141.99 931.4,143.96 C939.6,145.93 946.3,151.18 951.51,159.71 L951.53,159.75 C952.34,161.09 953.09,162.5 953.76,163.97 C954.91,162.28 955.79,160.99 956.4,160.1 C956.95,159.29 957.38,158.66 957.7,158.2 C958.05,157.7 958.32,157.3 958.52,157.02 C958.86,156.55 959.15,156.16 959.4,155.86 C959.75,155.43 960.71,154.41 962.25,152.78 C971.99,142.58 983.39,138.9 996.47,141.76 C1004.43,143.5 1011.28,148.57 1017.02,156.97 L1017.05,157.01 L1019.88,161.15 C1020.44,159.08 1020.87,157.5 1021.16,156.42 C1021.43,155.42 1021.64,154.65 1021.79,154.09 C1021.96,153.48 1022.1,153 1022.19,152.66 C1022.36,152.1 1022.5,151.65 1022.63,151.32 C1022.81,150.85 1023.29,149.79 1024.08,148.14 C1026.59,142.95 1029.91,138.85 1034.05,135.82 C1038.19,132.8 1042.76,131.15 1047.75,130.87 C1051.14,130.67 1054.14,130.85 1056.75,131.38 C1059.25,131.89 1061.62,132.77 1063.86,134.02 C1066.2,135.32 1068.62,137.17 1071.12,139.55 C1078.29,146.39 1082.13,155.69 1082.63,167.45 C1082.73,169.93 1082.76,171.9 1082.71,173.37 C1082.67,174.62 1082.55,175.95 1082.38,177.36 C1082.17,179 1081.79,181.45 1081.23,184.71 C1078.91,198.24 1077.47,214.76 1076.92,234.27 C1076.76,239.75 1076.92,242.84 1077.38,243.53 C1077.51,243.73 1077.68,243.8 1077.88,243.76 C1078.08,243.72 1078.26,243.58 1078.42,243.32 C1079.52,241.56 1081.26,231.4 1083.65,212.86 C1085.68,197.08 1087.03,181.28 1087.7,165.47 C1087.88,161.2 1088.15,157.8 1088.5,155.27 C1088.82,152.99 1089.28,150.93 1089.87,149.08 C1090.53,147.05 1091.52,144.8 1092.85,142.35 C1096.98,134.72 1102.78,129.89 1110.25,127.87 C1117.72,125.85 1124.9,127.18 1131.8,131.84 C1142.94,139.38 1149.16,152.52 1150.47,171.25 L1152.4,199 C1153.57,212.49 1154.66,228.6 1155.67,247.34 C1156.64,265.45 1156.82,284.13 1156.22,303.39 C1155.63,322.3 1153.46,339.06 1149.72,353.67 C1139,395.5 1118.06,416.61 1086.87,416.99 C1074.65,417.14 1064.26,414.18 1055.72,408.11 C1045.22,400.66 1037.95,389.93 1033.88,375.93 C1032.32,370.56 1031.26,365.37 1030.71,360.36 C1030.5,358.46 1030.28,356.57 1030.07,354.68 L1024.08,358.62 C1021.52,359.89 1019.02,360.64 1016.6,360.86 C1014.3,361.08 1011.8,360.84 1009.1,360.16 C1006.25,359.45 1002.81,358.14 998.81,356.23 C993.96,353.93 989.72,351.33 986.08,348.43 C982.53,345.59 979.39,342.34 976.66,338.68 C973.87,334.93 971.37,330.56 969.17,325.58 C968.33,323.67 967.84,322.57 967.7,322.28 C967.6,322.08 967.52,321.95 967.46,321.88 C967.37,321.78 967.17,321.71 966.85,321.67 C966.59,321.63 966.37,321.71 966.19,321.92 C966.03,322.1 965.86,322.42 965.68,322.87 C965.47,323.39 965.18,324.24 964.8,325.42 C963.25,330.31 960.57,334.54 956.77,338.11 C952.98,341.69 948.63,344.06 943.73,345.23 C934.49,347.43 926.12,345.69 918.64,340 C916.93,338.7 915.24,337.01 913.57,334.93 L909.84,330.28 L909.22,337.67 C905.69,360.14 899.23,378.06 889.83,391.43 C880.43,404.8 868.56,412.95 854.23,415.88 C847.58,417.23 840.95,417.49 834.33,416.65 C827.7,415.82 821.85,413.97 816.76,411.12 C803.54,403.72 794.62,391.95 790,375.82 C789.56,374.29 789.12,372.75 788.68,371.22 L783.22,375.2 C778.51,377.89 772.85,378.59 766.24,377.32 C759.64,376.04 753.23,373 747.01,368.19 C733.47,357.71 723.63,341.22 717.49,318.69 C717,316.79 716.68,315.57 716.51,315.02 C716.37,314.59 716.24,314.29 716.13,314.14 C715.99,313.94 715.77,313.85 715.46,313.85 C715.15,313.86 714.95,313.91 714.86,314.01 C714.79,314.07 714.7,314.21 714.59,314.43 C714.43,314.73 713.86,315.9 712.89,317.93 C708.48,327.08 702.57,334.66 695.16,340.67 C687.75,346.67 679.56,350.5 670.6,352.14 C656.28,354.77 643.94,351.44 633.59,342.17 C631.8,340.56 630.71,339.56 630.34,339.17 C630.07,338.89 629.78,338.55 629.47,338.14 C629.28,337.9 629.03,337.57 628.72,337.15 C628.44,336.76 628.05,336.22 627.56,335.54 C627.02,334.8 626.24,333.72 625.23,332.3 L620.16,336.64 C612.2,341.99 603.79,342.97 594.93,339.59 C586.06,336.21 579.15,329.36 574.19,319.05 C569.17,308.61 565.39,292.36 562.85,270.31 C562.6,268.13 562.44,266.61 562.37,265.77 C562.32,265.14 562.27,264.33 562.22,263.32 C562.19,262.78 562.16,262.08 562.12,261.22 C562.08,260.42 562.03,259.37 561.97,258.05 C561.91,256.66 561.83,254.78 561.73,252.42 L561.17,244.81 C561.13,240.61 561.09,236.4 561.05,232.2 L560.83,227.65 C560.79,226.9 560.79,226.19 560.82,225.5 C560.86,224.78 560.78,224.21 560.59,223.78 C560.41,223.35 560.15,223.15 559.82,223.18 C559.46,223.22 559.15,224.12 558.91,225.89 L555.06,247.59 C554.41,251.77 553.99,254.74 553.78,256.5 C553.61,257.85 553.45,259.52 553.27,261.5 C553.19,262.51 553.08,263.77 552.96,265.27 C552.85,266.69 552.71,268.5 552.54,270.69 C552.36,272.99 552.12,275.99 551.84,279.68 C551.71,281.33 551.61,282.59 551.55,283.46 C551.48,284.25 551.44,284.87 551.4,285.34 C551.36,285.84 551.33,286.24 551.31,286.54 C551.28,287.04 551.25,287.49 551.23,287.9 C551.21,288.48 551.16,290.12 551.09,292.83 C550.94,295.22 550.8,297.62 550.65,300.01 L550.47,305.61 C550.3,310.77 549.76,315.23 548.86,318.98 C547.99,322.62 546.73,325.8 545.08,328.51 C543.39,331.31 541.19,333.77 538.47,335.9 C532.88,340.28 526.05,342.23 517.98,341.77 L513.27,341.5 L514.05,348.51 C514.08,353.71 513.06,358.44 511,362.72 C508.94,367 506.05,370.36 502.32,372.81 C496.6,376.57 490.4,377.49 483.72,375.59 C469.11,371.41 457.58,359.49 449.13,339.81 L446.39,333.44 L443.92,339.44 C441.46,344.13 438.17,347.91 434.03,350.8 C429.9,353.68 425.36,355.35 420.42,355.82 C415.48,356.29 410.65,355.5 405.95,353.46 C401.24,351.41 397.16,348.32 393.7,344.17 C387.01,336.16 383.66,325.68 383.67,312.73 C383.67,288.17 383.71,263.6 383.76,239.04 C383.88,235.08 383.97,231.88 384.04,229.43 C384.1,227.14 384.15,225.16 384.19,223.48 C384.22,221.68 384.25,219.95 384.28,218.27 C384.31,215.25 384.34,210.9 384.35,205.22 C384.36,202.06 384.36,197.81 384.36,192.48 C384.36,187.5 384.36,180.86 384.36,172.58 C384.36,163.66 384.35,151.33 384.34,135.6 C384.34,131.64 384.34,128.4 384.35,125.88 C384.36,123.48 384.37,121.49 384.38,119.91 C384.4,118.26 384.43,116.89 384.46,115.79 C384.53,113.58 384.66,111.86 384.86,110.65 C385.12,109.09 385.76,107.05 386.79,104.53 C389.52,97.82 393.87,92.74 399.84,89.28 C405.81,85.82 412.44,84.55 419.72,85.47 C427.91,86.51 434.62,90.77 439.87,98.27 C445.11,105.78 447.9,115.07 448.24,126.17 L448.28,139.87 L448.6,156.68 C448.64,158.27 448.64,160.13 448.62,162.28 C448.63,162.99 448.9,163.41 449.42,163.54 C449.76,163.63 450.1,163.38 450.46,162.79 C450.8,162.24 451.19,161.32 451.66,160.03 C452.16,158.62 452.83,156.5 453.67,153.67 C455.07,148.97 456.05,145.06 456.59,141.96 C457.07,139.2 457.35,136.36 457.42,133.44 C457.49,130.17 457.33,125.85 456.93,120.48 C456.34,112.65 458.28,105.75 462.74,99.79 C467.2,93.83 472.78,90.71 479.49,90.41 C485.27,90.16 490.33,91.95 494.66,95.79 C498.99,99.62 501.89,104.86 503.36,111.52 C504.61,117.18 505.2,123.35 505.11,130.01 C505.09,131.88 505.07,133.75 505.05,135.61 C506.77,135.6 508.08,135.6 508.98,135.59 C509.81,135.59 510.45,135.59 510.92,135.59 C511.43,135.59 511.83,135.6 512.12,135.61 C512.6,135.62 512.99,135.65 513.29,135.7 C513.72,135.76 514.76,136.04 516.4,136.51 C521.68,138.05 526.32,140.94 530.33,145.19 C531.3,146.21 532.22,147.29 533.09,148.42 C534.05,147.01 534.79,145.93 535.29,145.19 C535.76,144.52 536.12,143.98 536.39,143.6 C536.68,143.18 536.91,142.85 537.08,142.61 C537.37,142.21 537.63,141.87 537.85,141.61 C538.18,141.22 539.08,140.27 540.56,138.74 C546.72,132.4 554.19,129.04 562.97,128.67 L567.98,128.45 C567.8,126.61 567.8,124.83 567.99,123.12 C569.26,113.64 572.75,105.73 578.44,99.39 C584.14,93.04 590.6,89.91 597.81,90 C604.46,90.07 610.37,92.64 615.52,97.7 C620.68,102.76 624.31,109.55 626.42,118.07 C628.56,126.76 628.66,135.97 626.7,145.69 C626.55,146.44 626.28,147.44 625.88,148.71 C625.77,149.09 625.75,149.45 625.83,149.81 C625.9,150.17 626.05,150.41 626.26,150.55 C626.7,150.82 627.29,150.47 628.03,149.48 C629.98,147.13 632.32,144.72 635.06,142.24 C637.8,139.76 640.36,137.75 642.73,136.21 C653.31,129.33 664.01,126.54 674.83,127.84 C685.65,129.14 695.22,134.36 703.55,143.49 L708.66,150.15 C708.78,150.32 708.9,150.49 709.02,150.66 L708.91,150.36 C709.54,151.07 710.07,151.21 710.51,150.77 C710.71,150.56 710.81,149.95 710.8,148.94 L713.38,132.62 C714.53,126.95 716.02,122.17 717.86,118.28 C719.65,114.49 721.86,111.36 724.48,108.91 C727.17,106.4 730.42,104.48 734.24,103.16 C741.38,100.69 748.52,101.28 755.64,104.93 C762.76,108.59 768.06,114.37 771.54,122.28 C772.99,125.6 774.04,128.91 774.67,132.21 C775.27,135.38 775.56,138.82 775.53,142.56 C775.51,146.47 775.13,151.07 774.42,156.37 C773.52,162.97 773.37,166.55 773.96,167.1 C774.4,167.52 774.79,167.35 775.12,166.61 C775.78,163.67 776.45,160.74 777.13,157.8 C780.23,144.39 787.03,135.83 797.54,132.12 C800.81,130.96 805.36,130.59 811.16,131 L811.12,130.99 L815.16,131.27 C815.51,128.79 815.77,126.9 815.96,125.6 C816.13,124.41 816.26,123.47 816.36,122.8 C816.46,122.07 816.55,121.49 816.62,121.07 C816.73,120.37 816.83,119.79 816.93,119.33 C817.08,118.68 817.52,117.08 818.25,114.52 C821.59,102.84 827.33,91.37 835.48,80.11 C840.88,72.64 847.55,69.6 855.5,70.97 C860.43,71.82 865.24,74.16 869.94,78 L869.94,78 zM176.13,136.5 C176.2,135.93 176.13,136.25 177.93,127.33 L178.47,124.67 C178.9,122.49 179.47,120.35 180.15,118.27 L180.69,116.62 C181.02,115.61 181.28,114.83 181.47,114.26 C181.67,113.64 181.83,113.15 181.96,112.8 C182.16,112.22 182.33,111.75 182.49,111.38 C182.71,110.86 183.32,109.63 184.31,107.69 C187.53,101.39 191.96,96.55 197.59,93.17 C203.22,89.79 209.33,88.32 215.92,88.75 C221.22,89.1 226.07,90.87 230.48,94.05 C234.88,97.24 238.33,101.45 240.82,106.71 C241.23,107.57 241.61,108.43 241.95,109.3 C245.58,118.47 245.7,130.01 242.32,143.93 C240.09,153.13 238.02,167.18 236.1,186.1 C234.19,205.02 233.23,220.92 233.23,233.79 C233.22,238.43 233.22,241.96 233.22,244.39 C233.22,246.61 233.23,248.35 233.23,249.61 C233.23,250.98 233.24,252.06 233.24,252.83 C233.26,254.12 233.28,255.17 233.31,255.98 C233.33,256.47 233.37,257.04 233.41,257.67 C233.45,258.26 233.5,259.01 233.57,259.93 C233.64,260.94 233.75,262.38 233.89,264.23 C234.77,275.95 235.86,281.79 237.17,281.76 C238.29,281.73 240.4,276.43 243.48,265.87 C246.73,254.72 250.06,238.94 253.48,218.54 C256.89,198.14 259.92,175.92 262.57,151.88 C263.25,145.7 263.81,140.62 264.25,136.65 C264.67,132.86 265.02,129.71 265.31,127.21 C265.61,124.6 265.86,122.43 266.07,120.71 C266.49,117.18 266.86,114.58 267.16,112.89 C267.54,110.73 268.15,108.43 269,105.99 C271.64,98.33 276.05,92.56 282.2,88.69 C288.36,84.81 295.08,83.58 302.38,84.99 C311.56,86.76 318.77,91.58 324.02,99.44 C329.27,107.31 331.67,116.9 331.24,128.21 L331.02,143.51 C330.86,147.77 330.69,152.02 330.53,156.28 L329.4,185.59 C329.21,190.67 329,195.75 328.78,200.83 C328.68,203.04 328.61,204.72 328.55,205.89 C328.5,206.96 328.46,207.8 328.43,208.41 C328.4,209.08 328.38,209.62 328.36,210.03 C328.33,210.7 328.31,211.33 328.3,211.92 C328.29,212.27 328.28,212.71 328.27,213.24 C328.26,213.73 328.25,214.38 328.24,215.2 C328.23,216.1 328.21,217.39 328.18,219.07 L327.6,234.9 L327.51,247.49 L327.26,258.29 C326.98,269.85 327.06,281.23 327.49,292.42 C327.92,303.6 328.6,312.5 329.53,319.12 L331.56,331.42 C333,340.19 331.68,348.17 327.59,355.37 C323.5,362.57 317.6,367.28 309.9,369.5 C302.69,371.57 296.09,370.82 290.08,367.23 C284.07,363.65 279.18,357.56 275.41,348.97 C274.49,346.88 273.81,345.25 273.37,344.09 C273.01,343.1 272.65,342.04 272.32,340.91 C271.92,339.56 271.34,337.44 270.59,334.54 L270.58,334.48 L269.19,329.09 L261.98,337.6 C252.19,347.53 240.96,352.31 228.28,351.94 C221.8,351.75 215.87,350.44 210.48,348.01 L210.42,347.98 C208.97,347.33 207.51,346.68 206.06,346.02 C189.41,340.49 177.13,318.99 173.17,288.42 C168.71,253.99 168.06,217.27 171.17,176.23 L176.13,136.5 L176.13,136.5 z"/>   <path fill="#000000" d="M1131.34,156.55 C1132.35,158.29 1133.13,160.03 1133.69,161.77 C1134.21,163.37 1134.62,165.23 1134.93,167.33 C1135.26,169.61 1135.56,172.56 1135.81,176.21 L1140.35,241.29 C1140.63,245.36 1140.91,251.7 1141.19,260.31 C1141.46,268.91 1141.61,275.79 1141.64,280.95 C1141.74,300.08 1140.86,316.57 1139,330.4 C1137.17,344 1134.32,355.52 1130.46,364.97 C1126.54,374.58 1121.41,382.37 1115.08,388.35 C1106.07,396.85 1094.68,400.23 1080.92,398.47 C1069.02,396.96 1060.04,390.69 1053.97,379.66 C1049.21,371.02 1046.99,360.19 1047.32,347.17 C1047.37,345.24 1047.46,343.79 1047.61,342.83 C1047.74,341.98 1047.94,341.27 1048.21,340.71 C1048.51,340.08 1049,339.45 1049.67,338.81 C1051.39,337.31 1053.57,336.7 1056.22,336.95 C1058.87,337.21 1060.65,338.21 1061.55,339.96 C1061.92,340.77 1062.17,341.43 1062.28,341.95 C1062.37,342.35 1062.44,342.92 1062.49,343.63 C1062.56,344.55 1062.66,346.54 1062.79,349.6 C1063.03,355.31 1064.31,360.18 1066.63,364.24 C1068.94,368.29 1071.9,370.82 1075.5,371.83 C1081.04,373.38 1086.34,372.41 1091.41,368.93 C1094.67,366.69 1097.44,363.64 1099.7,359.79 C1101.91,356.03 1103.77,351.33 1105.26,345.7 C1106.78,339.94 1108,332.92 1108.92,324.64 C1109.41,320.23 1109.77,314.92 1110,308.71 C1110.24,302.5 1110.29,296.76 1110.17,291.49 C1109.95,285.96 1109.74,280.44 1109.53,274.92 C1109.48,273.86 1109.47,272.27 1109.47,270.13 C1109.47,267.99 1109.49,266.56 1109.53,265.86 C1109.54,265.43 1109.47,265.05 1109.31,264.73 C1109.16,264.41 1108.97,264.25 1108.74,264.25 C1108.53,264.24 1108.4,264.3 1108.33,264.44 C1108.28,264.53 1108.22,264.72 1108.13,265.02 C1108,265.45 1107.55,267.08 1106.77,269.92 C1101.66,288.54 1094.87,301.3 1086.38,308.18 C1080.64,312.84 1074.11,314.56 1066.77,313.34 C1052.26,310.94 1042.13,295.81 1036.36,267.94 C1033.71,255.11 1032.34,240.23 1032.26,223.3 C1032.19,207.58 1033.05,192.81 1034.86,178.97 C1035.52,173.85 1036.2,169.72 1036.89,166.58 C1037.55,163.59 1038.28,161.17 1039.08,159.32 C1039.93,157.36 1040.96,155.81 1042.16,154.67 C1044.42,152.62 1047.02,151.42 1049.94,151.07 C1052.86,150.73 1055.65,151.31 1058.3,152.82 C1063.61,155.84 1066.7,160.6 1067.58,167.1 C1067.66,167.87 1067.72,168.79 1067.76,169.87 L1067.76,170.07 C1067.79,172.07 1067.79,173.34 1067.76,173.87 C1067.73,174.25 1067.68,174.75 1067.59,175.36 C1067.54,175.73 1067.46,176.24 1067.36,176.89 C1067.27,177.48 1067.14,178.31 1066.97,179.38 C1066.79,180.54 1066.52,182.23 1066.17,184.43 C1064.66,193.96 1063.52,205.27 1062.74,218.39 C1061.97,231.5 1061.82,242.22 1062.27,250.55 C1062.58,256.1 1062.89,260.53 1063.2,263.83 C1063.49,266.86 1063.83,269.49 1064.23,271.72 C1064.66,274.15 1065.25,276.58 1065.99,279 C1067.43,283.68 1069.24,287.01 1071.43,289.02 C1073.61,291.03 1075.97,291.52 1078.51,290.51 C1083.26,288.29 1087.5,280.64 1091.24,267.56 C1093.76,258.74 1096.07,247.99 1098.15,235.3 C1100.23,222.61 1101.8,209.54 1102.87,196.08 L1104.7,172.91 C1104.9,167.28 1105.1,163.39 1105.31,161.25 C1105.48,159.46 1105.72,158.04 1106.03,156.98 C1106.41,155.71 1107.1,154.32 1108.12,152.82 C1111.09,148.59 1114.95,146.85 1119.7,147.61 C1124.45,148.37 1128.33,151.35 1131.34,156.55 L1131.34,156.55 zM994.98,161.85 C1003.84,164.29 1009.87,174.14 1013.08,191.4 C1013.91,195.89 1014.39,200.33 1014.52,204.72 C1014.64,208.71 1014.51,213.48 1014.12,219.02 C1013.7,225.12 1012.87,233.58 1011.63,244.41 C1010.53,254.06 1009.74,263.13 1009.27,271.63 C1008.8,280.13 1008.7,286.98 1008.97,292.18 C1009.29,298.41 1009.81,303.55 1010.52,307.6 C1011.2,311.46 1012.12,314.74 1013.28,317.45 C1014.5,320.31 1016.14,322.85 1018.18,325.08 L1021.05,328.11 C1022.86,330.67 1023.32,333.64 1022.42,337.01 C1020.91,342.03 1017.6,343.64 1012.51,341.83 C1005.96,339.51 1000.66,336.78 996.6,333.65 C992.75,330.68 989.58,327.02 987.1,322.66 C984.48,318.07 982.31,312.15 980.61,304.91 C979.71,301.08 979.07,297.55 978.69,294.34 C978.35,291.41 978.15,288.15 978.09,284.56 C978.02,280.62 978.12,275.39 978.37,268.87 C978.56,264.09 978.75,260.39 978.93,257.78 C979.09,255.68 979.32,253.1 979.63,250.05 C979.77,248.63 979.95,246.94 980.16,244.97 C980.37,243.07 980.62,240.78 980.92,238.08 C981.23,235.27 981.6,231.79 982.04,227.64 C982.41,224.17 982.77,220.69 983.12,217.21 L983.58,210.17 C983.9,205.4 984.09,202.02 984.16,200.05 C984.22,198.39 984.22,196.98 984.15,195.84 C984.07,194.48 983.86,192.83 983.51,190.89 L983.5,190.84 L982.48,185.02 C980.68,186.53 979.17,188.06 977.95,189.61 C976.31,191.77 974.64,195.43 972.93,200.59 C971.23,205.7 969.47,212.38 967.64,220.64 C965.79,228.99 963.84,239.1 961.78,250.99 C960.82,256.52 960.11,260.78 959.63,263.76 C959.24,266.16 958.8,269.04 958.3,272.39 C958.07,273.93 957.81,275.75 957.5,277.85 C957.2,279.88 956.84,282.32 956.43,285.17 C956,288.13 955.46,291.77 954.81,296.08 L951.66,317.13 C950.85,320.48 949.14,323.12 946.55,325.03 C943.96,326.95 940.8,327.88 937.06,327.84 C931.18,327.77 926.74,324.74 923.76,318.75 C922.8,316.73 922.17,314.84 921.86,313.07 C921.6,311.55 921.48,309.59 921.5,307.18 C921.51,304.38 921.74,299.73 922.16,293.25 C922.25,291.96 922.3,291 922.31,290.38 C922.32,289.94 922.32,289.2 922.32,288.17 C922.32,287.55 922.33,286.65 922.33,285.49 C922.33,284.46 922.33,282.97 922.33,281.03 C922.33,278.94 922.33,275.9 922.33,271.9 C922.33,266.88 922.34,263.05 922.34,260.41 C922.34,258.03 922.34,256.14 922.34,254.75 C922.33,253.26 922.33,252.09 922.33,251.25 C922.32,249.86 922.3,248.72 922.27,247.84 C922.25,247.3 922.23,246.69 922.2,246 C922.17,245.37 922.12,244.55 922.07,243.55 C922.01,242.45 921.92,240.9 921.8,238.89 C921.71,236.29 921.62,233.69 921.53,231.09 C921.5,230.31 921.44,229.41 921.35,228.38 L921.33,228.38 L919.77,210.29 C918.82,201.61 917.41,192.43 915.54,182.74 C913.86,174.1 915.64,168.22 920.88,165.11 C924.16,163.29 927.52,163.05 930.96,164.38 C934.39,165.72 937.35,168.43 939.83,172.52 C941.32,174.96 942.59,177.66 943.65,180.59 C944.66,183.39 945.57,186.68 946.39,190.45 C947.24,194.39 948.06,199.27 948.82,205.07 L950.56,218.22 C950.57,219.06 950.59,219.63 950.62,219.93 C950.64,220.17 950.69,220.35 950.75,220.47 C950.82,220.62 950.96,220.74 951.17,220.85 C951.71,221.14 952.17,220.33 952.56,218.41 C956.47,200.78 961.78,186.67 968.5,176.09 C976.13,164.06 984.96,159.31 994.98,161.85 L994.98,161.85 zM880.04,149.03 C882.66,150.39 884.79,152.22 886.44,154.51 C888.05,156.74 889.29,159.53 890.18,162.86 C891.09,166.29 891.68,170.5 891.94,175.5 C892.15,179.55 892.29,182.17 892.37,183.36 C892.42,184.2 892.5,185.35 892.61,186.81 C892.68,187.7 892.77,188.94 892.89,190.52 C892.99,191.92 893.15,193.94 893.35,196.59 C893.56,199.41 893.87,203.52 894.28,208.92 C895.33,222.82 896.12,234.9 896.67,245.16 C897.19,255.02 897.54,264.03 897.69,272.2 C897.86,280.71 897.83,289.04 897.61,297.2 C897.19,313.11 895.95,326.95 893.88,338.74 C891.84,350.39 888.96,360.32 885.23,368.51 C881.46,376.81 876.73,383.52 871.03,388.66 C865.85,393.34 859.58,396.44 852.24,397.97 C844.89,399.5 837.68,399.21 830.59,397.08 C824.8,395.35 819.79,392.11 815.53,387.37 C811.28,382.63 808.18,376.82 806.24,369.95 C804.78,364.8 803.85,359.38 803.45,353.68 C803.05,347.98 803.31,343.88 804.21,341.38 C805,339.43 806.34,338.09 808.23,337.38 C810.13,336.67 812.27,336.69 814.65,337.46 C815.84,337.89 816.7,338.39 817.21,338.94 C817.65,339.43 817.98,340.1 818.2,340.97 C818.45,341.97 818.62,343.59 818.72,345.83 C818.89,349.55 819.22,352.72 819.7,355.35 C820.16,357.88 820.81,360.11 821.64,362.04 C822.51,364.04 823.65,365.87 825.07,367.53 C827.42,370.26 830.46,371.89 834.19,372.4 C837.92,372.92 841.65,372.21 845.37,370.28 C856.16,364.68 862.75,349.97 865.14,326.16 C865.56,321.96 865.84,318.65 865.98,316.23 C866.11,314.17 866.19,311.95 866.23,309.57 C866.28,306.75 866.29,302.38 866.26,296.44 C866.24,293.45 866.23,291.18 866.22,289.6 C866.22,288.15 866.21,287.01 866.21,286.19 C866.2,285.28 866.2,284.56 866.19,284.01 C866.18,283.1 866.17,282.25 866.15,281.46 C866.14,280.99 866.12,280.4 866.1,279.68 C866.08,279.03 866.05,278.15 866.02,277.05 C865.98,275.84 865.92,274.11 865.85,271.86 C865.79,269.88 865.75,268.62 865.73,268.08 C865.71,267.67 865.69,267.34 865.68,267.11 C865.66,266.81 865.61,266.41 865.55,265.89 C865.55,265.52 865.56,265.15 865.56,264.78 C865.56,264.43 865.49,264.12 865.36,263.85 C865.23,263.58 865.09,263.46 864.93,263.49 C864.57,263.56 864.29,264.22 864.11,265.49 C863.9,266.78 863.06,269.74 861.59,274.37 C860.12,279 858.89,282.55 857.9,285.01 C850.15,304.26 840.07,313.84 827.66,313.74 C818.01,313.67 810.08,308.86 803.87,299.31 C797.16,288.99 792.57,272.71 790.12,250.46 L789.05,236.97 C788.69,232.37 788.53,226.36 788.59,218.93 C788.64,211.5 788.87,205.28 789.28,200.27 C789.65,195.67 790.02,191.06 790.38,186.46 C791.94,171.15 793.89,161.49 796.22,157.48 C797.86,154.78 800.15,152.89 803.07,151.82 C805.99,150.75 808.99,150.69 812.08,151.66 C819.1,154.03 823.04,159.68 823.91,168.62 C824.05,170.35 824.11,171.58 824.1,172.31 C824.08,172.88 824.01,173.6 823.9,174.45 C823.75,175.56 823.33,178.18 822.66,182.32 C820.69,194.32 819.38,208.09 818.72,223.63 C818.07,239.18 818.24,252.07 819.25,262.3 C820.86,278.58 824.34,287.98 829.7,290.53 C833.32,291.99 836.69,290.36 839.81,285.65 C846.99,274.83 852.92,250.66 857.6,213.14 C858.25,207.91 858.93,201.25 859.64,193.15 C860.35,185.05 860.78,178.97 860.95,174.91 L861.35,169.2 L861.61,161.87 C861.92,156.21 863.95,152.07 867.69,149.45 C871.44,146.83 875.56,146.69 880.04,149.03 L880.04,149.03 zM754.8,127.08 C758.11,130.62 759.99,135.23 760.44,140.89 C760.6,142.9 760.67,144.24 760.66,144.91 C760.65,145.4 760.6,146.05 760.52,146.88 C760.47,147.35 760.4,148 760.31,148.81 C760.23,149.56 760.11,150.58 759.96,151.88 C759.8,153.27 759.58,155.23 759.28,157.76 C758.85,161.5 758.49,164.86 758.22,167.83 C757.97,170.53 757.73,173.47 757.51,176.67 C757.26,180.19 756.97,184.83 756.64,190.6 L756.36,195.51 C758.42,195.6 759.99,195.66 761.08,195.71 C762.07,195.75 762.85,195.78 763.42,195.81 C764.04,195.84 764.53,195.86 764.89,195.88 C765.49,195.91 766.02,195.94 766.48,195.98 C767.12,196.03 768.85,196.2 771.67,196.49 C773.92,196.72 775.68,197.1 776.94,197.64 C778.14,198.15 779.04,198.85 779.64,199.74 C780.29,200.69 780.68,201.97 780.81,203.58 C780.96,208.1 779,210.77 774.93,211.59 C773.89,211.77 771.84,211.85 768.79,211.82 C765.74,211.79 763.09,211.66 760.82,211.45 C759.3,211.31 757.78,211.17 756.26,211.03 C756.15,213.09 756.06,214.67 756.01,215.77 C755.95,216.77 755.91,217.58 755.88,218.19 C755.85,218.85 755.83,219.4 755.81,219.85 C755.79,220.59 755.78,221.41 755.77,222.32 C755.77,222.86 755.78,223.6 755.78,224.51 C755.79,225.36 755.8,226.51 755.81,227.96 C755.83,229.56 755.85,231.87 755.88,234.9 C756.3,272.86 759.63,302.84 765.89,324.84 C767.02,328.81 768.15,332.11 769.28,334.74 C770.37,337.27 771.54,339.39 772.79,341.09 C774.09,342.87 775.59,344.35 777.28,345.53 C780.44,347.74 781.44,351.03 780.27,355.42 C779.1,359.23 775.21,360.39 768.62,358.87 C760.69,357.05 753.53,351.68 747.12,342.77 C740.71,333.86 735.93,322.64 732.78,309.11 C731.68,304.36 730.77,299.92 730.08,295.77 C729.43,291.91 728.85,287.74 728.36,283.26 C727.82,278.47 727.29,272.55 726.75,265.52 C726.5,262.24 726.36,260.34 726.32,259.82 C726.29,259.46 726.27,259.19 726.26,259.02 C726.25,258.77 726.24,258.35 726.23,257.73 L725.71,248.77 C725.64,244.45 725.56,240.12 725.48,235.8 L725.13,229.26 L725.02,224.02 C724.94,220.68 724.87,217.33 724.79,213.98 L724.78,212.18 L719.94,213.6 L714.7,214.5 C710.54,215.21 708.01,213.9 707.12,210.57 C706.15,206.68 706.77,203.56 708.99,201.2 C709.5,200.7 710.18,200.29 711.04,199.95 C711.8,199.66 712.89,199.34 714.31,199.01 C715.92,198.64 718.47,198.13 721.96,197.48 L725.6,196.8 C725.52,191.21 725.67,185.73 726.05,180.36 C726.15,177.9 726.25,175.43 726.34,172.97 L726.8,167.18 C727.31,160.57 727.83,155.01 728.35,150.5 C728.84,146.17 729.39,142.46 729.98,139.39 C730.6,136.19 731.33,133.42 732.17,131.07 C733.82,126.46 736.75,123.6 740.93,122.48 C741.62,122.32 742.31,122.21 743.02,122.15 C747.58,121.9 751.51,123.54 754.8,127.08 L754.8,127.08 zM683.91,151.21 C688.59,153.56 692.53,156.86 695.71,161.11 C701.19,168.41 704.11,176.56 704.49,185.56 C704.51,188.27 703.64,190.38 701.88,191.86 C700.11,193.35 698.07,193.71 695.74,192.95 C694.91,192.6 694.29,192.19 693.88,191.71 C693.53,191.3 693.22,190.7 692.95,189.93 C692.64,189.04 692.27,187.56 691.83,185.51 C690.35,178.59 688,173.58 684.76,170.47 C681.52,167.36 677.71,166.45 673.32,167.74 C669.45,168.88 666.1,171.1 663.26,174.41 C660.42,177.72 658.58,181.54 657.73,185.87 C657.41,187.55 657.21,188.86 657.14,189.82 C657.08,190.63 657.09,191.51 657.15,192.48 C657.23,193.63 657.45,195.47 657.81,198.01 C659,206.29 663.19,214.2 670.38,221.73 L682.78,233.91 C686.79,237.85 690.13,241.58 692.78,245.08 C695.34,248.47 697.46,251.88 699.14,255.32 C700.88,258.88 702.27,262.73 703.3,266.88 C706.67,280.42 706.34,292.85 702.33,304.14 C699.68,311.59 695.66,317.9 690.27,323.07 C684.89,328.24 678.69,331.73 671.68,333.53 C659.3,336.72 649.17,333.65 641.3,324.32 C633.63,315.23 631.66,304.02 635.38,290.7 C637.35,283.68 639.72,279.47 642.5,278.07 C643.88,277.46 645.25,277.45 646.61,278.04 C647.97,278.63 648.98,279.67 649.62,281.15 C650.18,282.5 650.51,283.62 650.6,284.49 C650.67,285.24 650.61,286.08 650.4,286.99 C650.15,288.04 649.61,289.63 648.77,291.77 C647.41,295.23 646.75,298.87 646.79,302.68 C646.83,306.49 647.56,309.46 648.98,311.59 C651.73,315.48 655.69,316.18 660.87,313.7 C663.83,312.27 666.55,309.78 669.03,306.22 C671.51,302.66 673.05,299.04 673.66,295.38 C673.99,293.42 674.18,291.96 674.24,290.99 C674.28,290.18 674.27,289.32 674.2,288.42 C674.12,287.33 673.89,285.51 673.5,282.98 C673.03,279.89 672.22,276.99 671.05,274.29 C669.95,271.72 668.42,269.04 666.46,266.24 C664.39,263.28 661.59,259.84 658.06,255.91 L652.04,249.45 C647.44,244.52 643.77,240.01 641.02,235.93 C638.41,232.07 636.33,228.16 634.76,224.2 C633.11,220.02 631.84,215.28 630.95,209.99 C630.22,205.66 629.88,201.03 629.95,196.11 C630.01,191.18 630.47,186.94 631.33,183.4 C633.57,174.12 638.05,166.24 644.77,159.73 C651.5,153.22 659.11,149.41 667.61,148.28 C668.43,148.17 669.19,148.09 669.88,148.04 C674.57,147.81 679.25,148.86 683.91,151.21 L683.91,151.21 zM608.32,178.66 C609.25,180.38 609.87,182.06 610.18,183.68 C610.44,185.07 610.57,186.91 610.58,189.19 C610.58,191.85 610.41,196.27 610.06,202.46 C609.74,207.99 609.49,214.17 609.3,221 C609.1,227.83 609.01,233.76 609.02,238.79 C609.04,247.85 609.28,255.97 609.74,263.15 C610.18,270.09 610.86,276.64 611.77,282.79 C612.71,289.16 613.98,295.57 615.57,302.01 L617.58,310.11 C618.47,317.21 615.41,321.46 608.41,322.87 C604.21,323.61 600.27,322.61 596.61,319.87 C592.96,317.14 590.09,313.03 588.02,307.57 C586.01,302.29 584.14,294.91 582.4,285.45 C580.66,275.98 579.71,268.07 579.56,261.72 C579.46,260.43 579.37,259.14 579.27,257.85 L579.03,250.95 L578.61,245.52 C578.34,242.04 578.22,237.11 578.27,230.75 C578.32,224.39 578.5,218.63 578.82,213.47 L579.08,202.7 C579.1,201.9 579.12,201.29 579.15,200.87 C579.17,200.54 579.2,200.14 579.24,199.68 C579.29,199.1 579.4,197.97 579.56,196.29 L579.76,191.02 C579.93,186.65 580.16,183.45 580.44,181.43 C580.69,179.65 581.04,178.24 581.51,177.18 C582.04,175.98 582.9,174.85 584.08,173.81 C586.61,171.66 589.52,170.51 592.81,170.35 C599.83,170.01 605,172.78 608.32,178.66 L608.32,178.66 zM576.5,152.85 C578.09,154.68 578.74,157.1 578.46,160.1 C578.17,163.1 577.06,165.38 575.15,166.92 C574.24,167.59 573.47,168.05 572.83,168.28 C572.26,168.48 571.63,168.57 570.93,168.57 C570.13,168.56 568.95,168.41 567.39,168.12 C565.47,167.76 564.06,167.64 563.17,167.76 C562.4,167.86 561.71,168.17 561.1,168.67 C560.38,169.25 559.47,170.39 558.35,172.09 C556.03,175.62 553.53,182.43 550.86,192.51 C548.18,202.6 545.45,215.47 542.67,231.14 C541.6,237.18 540.77,242.22 540.16,246.26 C539.61,249.97 539.15,253.53 538.76,256.95 C538.35,260.69 537.94,265.03 537.55,269.98 C537.35,272.36 537.2,274.24 537.09,275.6 C536.99,276.86 536.9,277.88 536.84,278.67 C536.77,279.5 536.72,280.19 536.67,280.73 C536.6,281.69 536.54,282.58 536.5,283.39 C536.44,284.5 536.32,287.14 536.14,291.31 C535.96,293.53 535.78,295.76 535.6,297.98 L535.46,305.71 C535.38,309.72 534.98,312.92 534.24,315.28 C533.54,317.53 532.48,319.28 531.06,320.54 C529.55,321.87 527.48,322.81 524.82,323.34 C519.42,324.29 514.96,322.67 511.44,318.49 C507.91,314.31 505.96,308.31 505.59,300.52 C505.42,282.81 505.23,265.1 505.03,247.39 C504.94,239.14 504.68,230.83 504.27,222.48 C504.01,217.26 503.79,213.43 503.6,211 C503.45,209.04 503.24,206.87 502.97,204.51 C502.64,201.57 501.97,196.17 500.96,188.3 C500.68,186.05 500.49,184.65 500.41,184.1 C500.35,183.71 500.28,183.23 500.18,182.67 C500.12,182.33 500.04,181.86 499.93,181.27 C499.84,180.72 499.7,179.97 499.53,179.02 C499.35,177.98 499.08,176.46 498.74,174.47 C497.85,169.32 498.48,165 500.64,161.5 C502.8,158.01 506.01,156.1 510.27,155.78 C514.88,155.61 518.87,157.92 522.23,162.72 C526.87,169.34 529.73,180.68 530.83,196.75 C530.9,197.79 530.97,198.84 531.04,199.89 C531.22,201.82 531.28,203.16 531.23,203.94 C531.18,204.58 531.23,205.16 531.38,205.69 C531.54,206.21 531.76,206.55 532.05,206.71 C532.11,206.75 532.16,206.76 532.21,206.75 C532.29,206.73 532.35,206.66 532.39,206.55 C532.42,206.47 532.46,206.3 532.52,206.05 C532.6,205.69 532.91,204.31 533.44,201.91 C535.53,192.48 537.67,184.59 539.86,178.23 C542.07,171.81 544.21,166.67 546.28,162.8 C548.26,159.09 550.36,156.2 552.57,154.14 C554.88,151.98 557.53,150.52 560.53,149.77 C567.49,148.01 572.82,149.04 576.5,152.85 L576.5,152.85 zM425.42,108.47 C430.7,112.62 433.34,120.09 433.36,130.88 C433.37,138.88 433.37,146.88 433.36,154.88 C433.35,158.35 433.35,161 433.35,162.82 C433.35,164.5 433.34,165.81 433.34,166.75 C433.34,167.79 433.34,168.61 433.35,169.22 C433.35,170.22 433.36,171.09 433.38,171.82 C433.39,172.26 433.4,172.78 433.42,173.4 C433.44,173.97 433.46,174.72 433.49,175.64 C433.53,176.66 433.58,178.1 433.65,179.98 C433.55,184.54 433.45,189.1 433.35,193.67 L433.36,217.7 C433.29,219.72 433.51,220.68 434.03,220.6 C434.73,220.48 436.98,218.29 440.78,214.04 C444.57,209.79 447.68,205.96 450.1,202.57 C463.03,184.43 471.05,164.49 474.14,142.74 C474.25,141.97 474.32,141.49 474.34,141.29 C474.35,141.16 474.37,140.99 474.39,140.78 C474.41,140.49 474.48,139.49 474.61,137.78 C474.92,133.78 474.9,129.77 474.57,125.75 C474.31,122.56 474.22,120.17 474.31,118.58 C474.38,117.16 474.61,116 475,115.1 C475.42,114.1 476.18,113.13 477.25,112.22 C478.58,111.19 480.16,110.74 481.98,110.86 C483.8,110.98 485.31,111.63 486.49,112.81 C487.25,113.62 487.85,114.6 488.29,115.76 C488.71,116.84 489.05,118.23 489.32,119.94 C489.61,121.78 489.85,124.28 490.05,127.44 C490.79,139.27 489.16,152.23 485.16,166.31 C481.15,180.4 475.48,193.13 468.15,204.52 C461.69,214.56 453.81,223.46 444.51,231.21 L451.72,241.63 C454.56,246.28 457.22,251.54 459.7,257.42 C462.11,263.12 464.5,269.76 466.87,277.32 C469.31,285.13 471.89,294.42 474.61,305.2 C475.7,309.53 477.18,314.42 479.05,319.88 C480.92,325.34 482.43,329.19 483.58,331.42 C484.62,333.43 485.56,334.99 486.42,336.11 C487.2,337.11 488.07,338 489.05,338.76 C490.14,339.61 491.63,340.52 493.53,341.49 C494.88,342.19 495.87,342.8 496.48,343.32 C497.02,343.78 497.45,344.3 497.77,344.9 C498.13,345.58 498.48,346.61 498.82,347.98 C499.22,349.9 499.07,351.75 498.36,353.52 C497.65,355.3 496.55,356.6 495.04,357.44 C491.7,359.18 487.13,358.16 481.36,354.37 C477.36,351.74 473.89,348.24 470.93,343.86 C468.13,339.71 465.49,334.34 463,327.74 C460.38,320.78 457.64,311.67 454.77,300.38 C452.39,291.03 450.28,283.45 448.45,277.64 C446.73,272.18 445.02,267.57 443.33,263.81 C441.54,259.8 439.51,256.21 437.25,253.03 C436.19,251.54 435.46,250.54 435.05,250.04 C434.71,249.63 434.44,249.37 434.26,249.27 C434.04,249.16 433.83,249.24 433.63,249.51 C433.5,249.68 433.42,249.84 433.4,249.98 C433.39,250.08 433.38,250.25 433.38,250.51 C433.38,250.88 433.38,252.26 433.4,254.66 C433.29,257.09 433.18,259.51 433.06,261.93 L433.1,266.09 C432.94,274.2 432.79,282.31 432.63,290.41 L432.77,321 C432.78,323.86 432.58,326.15 432.15,327.89 C431.76,329.51 431.13,330.9 430.27,332.05 C429.34,333.3 427.98,334.48 426.2,335.6 C422.32,337.92 418.18,338.31 413.75,336.78 C409.33,335.24 405.99,332.23 403.73,327.76 C402.85,326.02 402.22,324.38 401.83,322.86 C401.49,321.5 401.24,319.89 401.09,318.02 C400.92,315.93 400.83,312.89 400.82,308.91 C400.78,297.25 400.79,285.02 400.85,272.21 C400.92,259.4 401.01,250.33 401.13,244.98 C401.23,240.57 401.31,237.2 401.36,234.86 C401.41,232.72 401.45,231.03 401.48,229.79 C401.51,228.44 401.53,227.34 401.54,226.5 C401.57,225.1 401.58,223.75 401.59,222.43 C401.59,221.63 401.59,220.61 401.59,219.37 C401.59,218.24 401.59,216.71 401.59,214.77 C401.59,212.66 401.59,209.62 401.59,205.65 C401.58,176.82 401.58,148 401.59,119.17 C401.71,117.07 401.97,115.38 402.37,114.12 C402.74,112.96 403.29,111.94 404.01,111.07 C404.8,110.12 405.97,109.17 407.51,108.21 C410.44,106.39 413.53,105.51 416.78,105.56 C420.04,105.62 422.92,106.59 425.42,108.47 L425.42,108.47 zM314.3,115.91 C314.98,117.55 315.47,119.26 315.76,121.06 C316.02,122.68 316.19,124.71 316.28,127.17 C316.37,129.89 316.38,133.82 316.29,138.97 C316.25,141.27 316.22,142.67 316.21,143.17 C316.19,143.52 316.17,143.91 316.14,144.34 C316.1,144.96 315.94,146.97 315.66,150.36 L315.41,163.44 L314.86,171.87 C314.85,171.98 314.81,173.22 314.73,175.59 C314.65,177.95 314.56,180.78 314.45,184.06 C314.34,187.35 314.25,190.17 314.17,192.52 C314.1,194.87 314.06,196.1 314.06,196.2 L313.54,204.52 L313.34,217.28 C313.32,218.02 313.31,218.51 313.3,218.75 C313.29,218.92 313.27,219.16 313.24,219.48 C313.21,219.93 313.07,221.55 312.84,224.33 C312.74,225.53 312.69,226.37 312.67,226.88 C312.66,227.24 312.66,227.81 312.65,228.6 C312.65,229.07 312.65,229.75 312.65,230.63 C312.65,231.44 312.64,232.56 312.64,234.01 C312.64,235.6 312.64,237.9 312.64,240.93 L312.05,257.13 C311.86,262.51 311.79,268.5 311.86,275.12 C311.93,281.74 312.1,286.93 312.37,290.7 C312.49,294.61 312.61,298.51 312.75,302.42 C312.9,306.66 313.34,311.81 314.07,317.87 C314.79,323.94 315.56,329.04 316.38,333.17 C318.26,342.7 315.45,348.79 307.96,351.44 C298.5,354.79 291.57,347.55 287.16,329.72 C283.23,313.82 280.99,294.76 280.42,272.53 C280.38,270.92 280.35,269.92 280.33,269.54 C280.32,269.26 280.31,269.02 280.29,268.82 C280.27,268.55 280.22,268 280.14,267.18 C280.08,266.31 280.04,265.81 280.03,265.67 C280.02,265.58 280,265.51 279.98,265.48 C279.95,265.43 279.86,265.37 279.7,265.3 C279.45,265.2 279.28,265.23 279.17,265.4 C279.1,265.53 279,265.8 278.87,266.22 C278.71,266.78 278.28,268.37 277.6,270.99 C273.46,286.84 268.53,299.82 262.81,309.94 C257.09,320.05 250.82,326.85 244.01,330.33 C239.14,332.81 233.89,333.88 228.25,333.53 C222.61,333.17 217.49,331.46 212.9,328.38 C206.75,324.27 201.29,316.5 196.5,305.06 C194.48,300.23 192.77,294.95 191.39,289.21 C190.03,283.61 188.9,277.31 188.01,270.31 C187.1,263.15 186.39,254.92 185.88,245.61 C184.97,228.98 185.27,210.78 186.77,191 C188.28,171.22 190.76,152.94 194.21,136.18 C195.55,129.68 196.86,124.78 198.13,121.47 C199.28,118.47 200.64,116.12 202.2,114.44 C203.93,112.58 206.32,111.13 209.38,110.08 C214.85,108.2 219.66,108.88 223.83,112.14 C225.95,113.79 227.5,115.84 228.48,118.27 C229.44,120.66 229.9,123.5 229.86,126.8 C229.82,130.15 229.26,134.12 228.17,138.69 C226.63,145.17 225.06,154.33 223.45,166.14 C221.84,177.96 220.65,189.15 219.88,199.72 C219.71,202.04 219.58,203.82 219.49,205.04 C219.42,206.17 219.36,207.04 219.31,207.65 C219.27,208.34 219.23,208.87 219.2,209.25 C219.16,209.88 219.13,210.36 219.11,210.7 C219.09,211.19 219.05,212.22 219,213.79 L218.97,214.59 L219,214.46 L218.5,222.22 C218.4,226.79 218.29,231.36 218.18,235.93 C218.08,239.93 218.1,243.91 218.24,247.87 C218.29,251.09 218.35,254.32 218.41,257.54 C218.55,264.47 219.16,271.49 220.24,278.59 C221.32,285.68 222.62,291.27 224.15,295.34 C227.76,304.94 232.61,309.45 238.69,308.87 C244.86,307.94 250.68,299.9 256.15,284.75 C264.68,261.09 272.27,220.19 278.92,162.05 C279.87,153.76 280.63,147.12 281.2,142.14 C281.73,137.45 282.17,133.64 282.51,130.72 C282.88,127.63 283.18,125.15 283.43,123.27 C283.89,119.67 284.3,117.14 284.64,115.67 C285.1,113.73 285.98,111.9 287.28,110.16 C290.86,105.58 295.64,103.93 301.64,105.2 C307.64,106.47 311.86,110.04 314.3,115.91 L314.3,115.91 zM611.73,123.36 C613.14,127.88 613.49,132.84 612.8,138.24 C612.14,143.3 610.67,147.46 608.37,150.72 C606.07,153.98 603.33,155.8 600.16,156.19 C596.05,156.56 592.57,154.93 589.73,151.27 C586.89,147.62 585.16,142.54 584.55,136.04 C584.02,130.36 584.86,125.06 587.08,120.14 C589.29,115.21 592.21,112.13 595.82,110.89 C597.74,110.29 599.51,110.21 601.15,110.66 C605.99,112 609.52,116.24 611.73,123.36 L611.73,123.36 zM854.38,91.25 L854.71,91.32 C857.63,92.04 860.47,93.68 863.25,96.27 C866.05,98.87 867.77,101.48 868.43,104.11 C868.72,105.41 868.84,106.37 868.77,106.98 C868.72,107.47 868.54,108.03 868.23,108.66 C867.85,109.44 866.94,110.92 865.52,113.12 C861.84,118.81 858.98,123.81 856.95,128.11 C855.02,132.18 853.61,136.1 852.71,139.85 C851.77,143.82 851.28,148.09 851.25,152.66 C851.16,155.32 849.87,156.48 847.38,156.15 C843.98,155.57 840.8,153.6 837.84,150.23 C834.88,146.87 833.19,143.31 832.76,139.54 C831.49,126.68 836.73,111.6 848.46,94.3 C849.21,93.19 849.84,92.41 850.36,91.96 C850.81,91.56 851.31,91.3 851.84,91.19 C852.45,91.06 853.29,91.08 854.38,91.25 L854.38,91.25 z"/>   <path fill="#000000" d="M390.94,426.68 L390.93,426.67 L392.31,426.67 C385.89,438.85 379.48,451.03 373.07,463.2 C372.96,464.03 373.38,464.48 374.34,464.55 L390.73,464.49 C391.77,464.49 392.36,464.83 392.5,465.51 C392.43,467.4 392.35,468.48 392.25,468.76 C392.18,468.96 392.05,469.09 391.84,469.15 C391.55,469.23 390.45,469.27 388.53,469.27 L363.88,469.24 L383.12,432.8 C383.13,432.43 382.95,432.1 382.6,431.81 C382.25,431.52 381.89,431.4 381.51,431.46 C381.16,431.55 380.81,431.64 380.46,431.73 C379.88,431.83 378.84,431.91 377.32,431.96 C375.8,432.02 374.13,432.03 372.31,432 C370.49,431.98 368.9,431.92 367.54,431.83 C366.17,431.74 365.33,431.63 365,431.51 C363.99,431.12 363.58,430.32 363.77,429.13 C363.94,428.06 364.17,427.4 364.47,427.15 C364.7,426.95 365.11,426.82 365.7,426.76 C366.47,426.68 368.47,426.64 371.7,426.64 C378.11,426.66 384.53,426.67 390.94,426.68 L390.94,426.68 zM410.55,428.67 C415.55,436.78 420.55,444.88 425.54,452.99 C429.06,447.34 431.74,443.05 433.58,440.11 C435.26,437.41 436.57,435.32 437.49,433.84 C438.51,432.22 439.29,430.98 439.82,430.14 C440.71,428.74 441.32,427.83 441.64,427.4 C442.09,426.79 442.56,426.5 443.06,426.53 C443.48,426.55 443.78,426.69 443.96,426.95 C444.13,427.17 444.24,427.55 444.3,428.06 C444.37,428.64 444.4,429.57 444.38,430.84 L444.37,449.29 C444.37,453.37 444.37,456.47 444.37,458.6 C444.37,460.54 444.37,462.05 444.36,463.13 C444.36,464.3 444.36,465.19 444.36,465.81 C444.35,466.82 444.34,467.49 444.33,467.82 C444.3,468.29 444.22,468.61 444.07,468.78 C443.99,468.88 443.76,468.96 443.4,469.03 C443.04,469.09 442.62,469.13 442.15,469.13 C441.68,469.13 441.27,469.09 440.91,469.03 C440.55,468.96 440.32,468.88 440.24,468.78 C440.09,468.61 440.01,468.3 439.99,467.87 C439.97,467.56 439.96,466.94 439.96,466 C439.95,465.43 439.95,464.61 439.95,463.52 C439.95,462.52 439.95,461.12 439.95,459.33 C439.94,457.36 439.94,454.49 439.94,450.71 C439.94,448.68 439.94,447.13 439.94,446.07 C439.94,445.1 439.94,444.35 439.93,443.81 C439.93,443.23 439.93,442.78 439.92,442.47 C439.91,441.97 439.89,441.63 439.86,441.46 C439.81,441.23 439.64,441.05 439.34,440.93 C439.03,440.82 438.71,440.99 438.37,441.46 C438.13,441.8 437.67,442.52 437,443.64 C436.59,444.32 436,445.31 435.22,446.61 C434.51,447.8 433.51,449.47 432.23,451.64 C430.82,454 428.77,457.45 426.08,461.99 L425.65,462.72 L412.64,441.16 C412.08,440.87 411.64,441.11 411.32,441.87 C411.28,441.96 411.25,443.12 411.21,445.35 C411.18,447.58 411.16,450.33 411.14,453.6 C411.13,456.86 411.13,459.84 411.15,462.54 C411.17,465.23 411.19,466.98 411.23,467.77 C411.24,468.41 411.18,468.8 411.05,468.95 C410.95,469.06 410.74,469.12 410.44,469.14 C410.05,469.17 409.02,469.13 407.37,469.03 C407.06,468.87 406.88,468.56 406.83,468.09 C406.8,467.76 406.78,467.08 406.77,466.05 C406.76,465.43 406.76,464.52 406.75,463.33 C406.75,462.23 406.75,460.7 406.75,458.73 C406.75,456.58 406.75,453.43 406.75,449.29 C406.75,444.59 406.75,441.02 406.75,438.57 C406.75,436.35 406.75,434.61 406.75,433.36 C406.75,432 406.76,430.97 406.76,430.27 C406.76,429.1 406.78,428.33 406.8,427.95 C406.82,427.42 406.92,427.07 407.1,426.9 C408.1,425.97 409.25,426.56 410.55,428.67 L410.55,428.67 zM474.82,426.59 C475.35,426.64 476.49,426.86 478.23,427.24 C480,427.63 481.4,428.14 482.44,428.77 C483.42,429.36 484.19,430.13 484.76,431.07 C485.37,432.07 485.82,433.4 486.11,435.04 C487.02,440.58 485.96,444.73 482.94,447.48 C482.39,447.99 481.8,448.45 481.18,448.88 C480.45,449.35 479.67,449.76 478.84,450.12 L488.63,467.82 C488.82,468.64 488.54,469.1 487.79,469.19 C486.98,469.29 486.2,469.28 485.42,469.16 C484.65,469.05 484.13,468.86 483.86,468.61 C483.67,468.44 483.47,468.17 483.24,467.8 C483.09,467.55 482.78,467.02 482.33,466.23 C482.05,465.76 481.66,465.07 481.13,464.16 C480.65,463.32 479.98,462.15 479.12,460.65 C478.18,459 476.81,456.6 475,453.44 C474.36,452.37 473.83,451.65 473.44,451.29 C473.11,450.99 472.72,450.79 472.28,450.7 C471.75,450.59 470.85,450.58 469.6,450.69 C468.97,450.74 468.54,450.91 468.3,451.19 C468.09,451.44 467.95,451.86 467.88,452.43 C467.79,453.1 467.77,454.26 467.81,455.91 C467.86,458.17 467.87,460.79 467.84,463.78 C467.82,466.77 467.77,468.34 467.7,468.49 C467.47,469.01 466.32,469.25 464.25,469.19 C463.7,469.16 463.35,469.05 463.22,468.87 C463.11,468.73 463.04,468.47 463,468.08 C462.96,467.59 462.94,466.37 462.94,464.42 L462.96,426.63 C465.47,426.6 467.38,426.58 468.7,426.56 C469.9,426.55 470.84,426.54 471.51,426.54 C472.25,426.53 472.83,426.53 473.24,426.53 C473.91,426.54 474.44,426.56 474.82,426.59 L474.82,426.59 zM469.16,431.46 C469,431.51 468.72,431.7 468.31,432.02 C468.03,432.23 467.87,432.45 467.83,432.66 C467.8,432.81 467.78,433.1 467.77,433.53 C467.77,433.78 467.76,434.16 467.76,434.65 C467.76,435.09 467.76,435.72 467.76,436.53 C467.75,437.41 467.75,438.7 467.75,440.39 C467.75,443.04 467.76,444.57 467.78,444.98 C467.79,445.26 467.82,445.47 467.86,445.58 C467.92,445.74 468.15,445.96 468.54,446.23 C469.23,446.69 470.77,446.77 473.17,446.45 C475.57,446.13 477.25,445.63 478.19,444.94 C480.11,443.43 481.23,441.59 481.54,439.42 C481.86,437.24 481.29,435.31 479.83,433.62 C479.58,433.35 479.24,433.08 478.8,432.8 C478.1,432.4 477.64,432.17 477.41,432.11 C477.25,432.06 477.02,432.02 476.73,431.99 C476.3,431.94 474.79,431.82 472.18,431.63 C470.79,431.49 469.95,431.42 469.66,431.41 C469.45,431.41 469.28,431.42 469.16,431.46 L469.16,431.46 zM507.61,463.19 C507.55,463.49 507.6,463.76 507.77,464.01 C507.93,464.25 508.16,464.41 508.47,464.48 C508.52,464.5 509.28,464.51 510.74,464.51 C512.2,464.52 514.01,464.52 516.15,464.52 C518.3,464.52 520.24,464.51 521.99,464.51 C523.73,464.5 524.83,464.49 525.29,464.47 C526.32,464.48 526.91,464.83 527.05,465.52 C526.99,467.4 526.91,468.49 526.81,468.77 C526.74,468.97 526.6,469.1 526.4,469.16 C526.1,469.24 525,469.28 523.08,469.28 L498.6,469.24 L517.63,433.14 C517.95,431.92 517.26,431.41 515.58,431.6 C513.26,431.81 510.5,431.9 507.31,431.88 C504.12,431.86 502.1,431.73 501.26,431.5 C500.97,431.42 500.58,431.4 500.08,431.43 C499.22,431.48 498.76,431.15 498.7,430.44 C498.82,428.82 498.91,427.85 498.97,427.52 C499.02,427.28 499.08,427.12 499.17,427.02 C499.28,426.9 499.6,426.8 500.13,426.71 L526.11,426.68 L526.09,426.68 L527.04,426.68 C520.56,438.85 514.08,451.02 507.61,463.19 L507.61,463.19 zM545.02,426.85 C545.37,427.03 545.57,427.29 545.62,427.64 C545.66,427.89 545.69,428.39 545.7,429.13 C545.71,429.58 545.71,430.24 545.72,431.1 C545.72,431.88 545.72,432.99 545.73,434.42 C545.73,435.98 545.73,438.25 545.74,441.24 L545.75,444.56 C545.75,448.4 545.76,451.37 545.77,453.46 C545.77,455.39 545.78,456.91 545.79,458.01 C545.79,459.21 545.8,460.13 545.81,460.78 C545.83,461.91 545.87,462.66 545.93,463.05 C546.01,463.59 546.29,463.99 546.76,464.27 C546.92,464.37 548.7,464.43 552.1,464.45 C555.51,464.48 558.4,464.45 560.8,464.38 C561.56,464.39 562.03,464.47 562.2,464.61 C562.33,464.72 562.41,464.94 562.44,465.25 C562.48,465.67 562.47,466.78 562.4,468.56 C562.25,468.86 562.03,469.03 561.72,469.07 C561.5,469.1 561.07,469.12 560.41,469.13 C560.01,469.14 559.43,469.14 558.67,469.14 C557.97,469.15 556.99,469.15 555.74,469.15 C554.36,469.15 552.35,469.15 549.71,469.15 C547.96,469.15 546.63,469.15 545.72,469.15 C544.89,469.15 544.25,469.14 543.79,469.14 C543.28,469.13 542.9,469.13 542.64,469.12 C542.2,469.1 541.91,469.07 541.77,469.01 C541.57,468.94 541.42,468.65 541.32,468.16 L541.28,431.32 C541.27,429.74 541.29,428.71 541.33,428.23 C541.36,427.84 541.43,427.56 541.52,427.39 C541.65,427.16 541.92,426.94 542.34,426.74 C542.67,426.58 543.1,426.51 543.65,426.53 C544.2,426.56 544.65,426.66 545.02,426.85 L545.02,426.85 zM578.79,428.08 C578.81,428.4 578.82,429.07 578.83,430.08 C578.83,430.7 578.84,431.59 578.84,432.76 C578.84,433.82 578.84,435.33 578.84,437.26 C578.84,439.38 578.84,442.47 578.84,446.54 C578.84,451.23 578.84,454.79 578.84,457.23 C578.84,459.46 578.84,461.2 578.84,462.44 C578.84,463.79 578.83,464.82 578.83,465.52 C578.82,466.69 578.81,467.46 578.8,467.83 C578.77,468.36 578.68,468.72 578.52,468.89 C578.43,468.98 578.2,469.06 577.84,469.13 C577.47,469.21 577.04,469.25 576.56,469.26 C576.09,469.28 575.66,469.26 575.3,469.21 C574.93,469.17 574.71,469.1 574.63,469.01 C574.53,468.9 574.47,468.79 574.45,468.68 C574.44,468.6 574.44,468.44 574.43,468.21 C574.43,467.89 574.43,466.65 574.43,464.51 L574.45,427.74 C574.63,427.21 575.21,426.87 576.2,426.71 C577.18,426.56 577.92,426.69 578.42,427.11 C578.63,427.29 578.76,427.61 578.79,428.08 L578.79,428.08 zM627.61,429.9 C627.63,431.82 627.64,434.9 627.64,439.16 C627.65,443.42 627.64,447.91 627.62,452.62 C627.61,457.33 627.59,461.22 627.56,464.29 C627.53,467.35 627.5,468.91 627.48,468.98 C627.32,469.34 627.07,469.55 626.73,469.62 C626.38,469.68 626.05,469.58 625.73,469.31 C625.59,469.19 624.75,468.17 623.22,466.25 C621.69,464.33 619.75,461.88 617.41,458.89 C612.18,452.21 608.09,446.93 605.15,443.03 C604.51,442.33 604.09,441.87 603.87,441.66 C603.7,441.49 603.55,441.38 603.45,441.34 C603.31,441.28 603.15,441.3 602.96,441.39 C602.67,441.52 602.5,441.79 602.46,442.21 C602.42,442.5 602.4,443.1 602.4,444 C602.39,444.55 602.39,445.35 602.38,446.4 C602.38,447.36 602.38,448.71 602.38,450.44 C602.38,452.34 602.37,455.11 602.36,458.75 L602.34,468.66 C602.25,468.89 602.14,469.03 602.04,469.06 C601.96,469.08 601.81,469.1 601.59,469.1 C601.28,469.1 600.11,469.07 598.06,469 C597.78,468.85 597.63,468.62 597.58,468.31 C597.56,468.09 597.54,467.66 597.53,467 C597.52,466.61 597.52,466.04 597.52,465.28 C597.51,464.58 597.51,463.61 597.51,462.37 C597.51,461 597.51,459.01 597.51,456.39 C597.51,450.17 597.51,445.44 597.51,442.2 C597.51,439.21 597.51,436.91 597.52,435.29 C597.52,433.5 597.52,432.14 597.53,431.2 C597.54,429.66 597.56,428.64 597.6,428.14 C597.65,427.44 597.83,426.99 598.15,426.79 C598.64,426.48 599.16,426.73 599.71,427.54 L620.42,454.15 C620.58,454.34 620.76,454.62 620.95,455 C621.41,455.94 621.9,456.14 622.41,455.59 C622.57,455.41 622.67,455.04 622.7,454.49 C622.71,454.1 622.72,453.29 622.73,452.08 C622.73,451.34 622.73,450.27 622.73,448.86 C622.73,447.57 622.73,445.75 622.73,443.43 C622.73,440.88 622.72,437.16 622.71,432.27 C622.7,430.42 622.75,429.14 622.86,428.44 C622.95,427.84 623.12,427.41 623.36,427.15 C623.64,426.84 624.17,426.65 624.94,426.56 C626.75,426.37 627.64,427.48 627.61,429.9 L627.61,429.9 zM674.5,467.84 C674.56,468.37 674.48,468.76 674.24,469 C672.09,469.13 670.84,469.18 670.5,469.15 C670.26,469.12 670.08,469.05 669.97,468.93 C669.81,468.76 669.53,468.08 669.13,466.9 C668.4,464.95 667.83,463.47 667.44,462.46 C667.07,461.53 666.78,460.82 666.56,460.3 C666.32,459.74 666.11,459.32 665.93,459.03 C665.64,458.55 665.29,458.24 664.88,458.09 C664.3,457.88 662.33,457.79 658.98,457.82 C657.31,457.83 656.02,457.84 655.12,457.85 C654.29,457.86 653.64,457.87 653.16,457.88 C652.65,457.89 652.25,457.9 651.96,457.91 C651.48,457.93 651.14,457.96 650.95,458.01 C650.69,458.08 650.38,458.33 650.02,458.76 C649.86,458.96 649.43,459.94 648.75,461.7 C648.06,463.47 647.28,465.6 646.4,468.08 C646.01,469.12 644.59,469.52 642.16,469.28 C641.84,469.25 641.61,469.16 641.45,469 C641.24,468.79 641.19,468.5 641.28,468.14 C641.34,467.89 641.51,467.39 641.79,466.63 C641.96,466.18 642.2,465.52 642.53,464.65 C642.82,463.86 643.24,462.74 643.79,461.29 C644.38,459.72 645.25,457.42 646.39,454.4 L657.65,424.59 L666.3,446.78 C669.03,453.8 671.77,460.82 674.5,467.84 L674.5,467.84 zM657.1,439.63 C656.92,439.92 656.67,440.47 656.34,441.29 C655.94,442.31 655.11,444.6 653.84,448.16 C653.04,450.25 652.58,451.49 652.46,451.9 C652.38,452.19 652.35,452.41 652.38,452.54 C652.42,452.71 652.68,452.94 653.17,453.22 C653.58,453.46 654.35,453.51 655.49,453.38 C655.64,453.37 655.91,453.39 656.28,453.44 C658.17,453.48 659.27,453.5 659.57,453.51 C659.78,453.51 659.94,453.51 660.04,453.5 C660.19,453.49 660.47,453.45 660.88,453.37 C661.12,453.33 661.41,453.36 661.77,453.45 C662.2,453.55 662.57,453.44 662.89,453.11 C663.18,452.8 663.31,452.51 663.28,452.26 C663.25,452.08 663.15,451.75 662.99,451.26 C662.88,450.96 662.73,450.54 662.53,449.98 C662.34,449.47 662.07,448.76 661.73,447.83 C661.36,446.83 660.81,445.36 660.08,443.43 L659.96,443.1 C659.27,441.27 658.86,440.2 658.73,439.88 C658.63,439.65 658.55,439.49 658.49,439.41 C658.4,439.3 658.22,439.23 657.94,439.18 C657.61,439.12 657.33,439.27 657.1,439.63 L657.1,439.63 zM714.45,444.7 C714.78,445.43 714.83,446.23 714.6,447.1 C714.05,448.95 712.83,449.67 710.92,449.24 C710.1,449.05 709.47,448.6 709.03,447.89 C708.6,447.19 708.48,446.4 708.66,445.53 C709.15,443.25 710.55,442.49 712.87,443.25 C713.6,443.48 714.13,443.97 714.45,444.7 L714.45,444.7 zM756.66,427.42 C756.7,427.53 756.73,427.73 756.74,428.03 C756.75,428.46 756.76,430.05 756.76,432.83 C756.76,435.66 756.76,438.48 756.75,441.31 C756.75,442.03 756.88,442.67 757.13,443.22 C757.38,443.77 757.66,444.02 757.97,443.97 L772.61,427.96 C773.2,427.35 773.66,426.97 774,426.81 C774.27,426.68 774.6,426.63 774.99,426.65 C775.47,426.67 776.37,426.83 777.69,427.13 C777.99,427.19 778.18,427.28 778.26,427.39 C778.44,427.6 778.48,427.84 778.38,428.09 C778.3,428.3 778.09,428.6 777.76,429 C777.38,429.47 776.61,430.31 775.47,431.52 L770.06,437.55 L770.06,437.56 L761.42,447.2 C767.17,453.85 772.91,460.5 778.66,467.16 C779.32,468.11 779.36,468.76 778.78,469.09 C778.62,469.18 778.32,469.25 777.87,469.29 C777.42,469.33 776.92,469.34 776.36,469.31 C775.8,469.29 775.3,469.23 774.86,469.16 C774.42,469.08 774.12,468.98 773.98,468.88 C773.59,468.6 773.23,468.27 772.89,467.9 C772.64,467.64 772.19,467.12 771.53,466.36 C771.13,465.9 770.55,465.22 769.79,464.34 C769.12,463.56 768.15,462.43 766.87,460.95 C765.51,459.36 763.51,457.03 760.88,453.98 C759.45,452.44 758.6,451.54 758.32,451.27 C758.11,451.08 757.97,450.97 757.87,450.94 C757.75,450.91 757.58,451.04 757.37,451.35 C757.11,451.72 756.95,452.07 756.87,452.41 C756.8,452.7 756.76,453.09 756.76,453.57 C756.75,454.15 756.79,455.17 756.87,456.63 L756.79,463.6 C756.81,466.45 756.78,468.09 756.72,468.52 C756.67,468.82 756.56,469.02 756.4,469.1 C756.17,469.23 755.29,469.27 753.76,469.22 C753.05,469.2 752.65,469.11 752.54,468.94 C752.47,468.83 752.42,468.58 752.4,468.21 C752.36,467.68 752.35,465.66 752.36,462.14 L752.4,427.64 C752.56,427.15 753.05,426.83 753.87,426.67 C754.69,426.51 755.42,426.59 756.06,426.92 C756.41,427.1 756.61,427.27 756.66,427.42 L756.66,427.42 zM818.51,457.03 C819.38,459.22 820.06,460.93 820.54,462.16 C821.07,463.49 821.47,464.5 821.74,465.19 C822.19,466.34 822.48,467.1 822.62,467.48 C822.8,468.01 822.86,468.39 822.79,468.62 C822.75,468.74 822.69,468.84 822.61,468.92 C820.38,469.1 819.07,469.14 818.69,469.04 C818.42,468.96 818.19,468.78 818.01,468.49 C817.75,468.07 817.1,466.43 816.05,463.58 C814.98,460.68 814.28,459 813.95,458.57 C813.71,458.26 813.38,458.06 812.95,457.97 C812.69,457.91 812.33,457.87 811.86,457.84 C811.43,457.81 810.83,457.79 810.07,457.78 C809.24,457.76 808.02,457.76 806.42,457.75 C802.75,457.75 800.54,457.78 799.8,457.85 C799.25,457.91 798.85,458.02 798.6,458.19 C798.26,458.43 797.83,459.14 797.29,460.34 C797.16,460.67 797.06,460.91 797.01,461.06 C796.97,461.17 796.91,461.34 796.82,461.59 C796.7,461.94 796.25,463.23 795.49,465.47 L794.12,468.83 C794.02,468.93 793.77,469.02 793.39,469.1 C793,469.17 792.54,469.22 792.02,469.24 C791.5,469.26 791.03,469.25 790.59,469.2 C790.16,469.16 789.86,469.09 789.69,469 C789.33,468.8 789.25,468.37 789.44,467.69 C789.58,467.22 789.92,466.24 790.48,464.77 C790.81,463.87 791.31,462.57 791.96,460.86 C792.57,459.29 793.41,457.09 794.5,454.27 C795.69,451.17 797.43,446.65 799.73,440.7 C801.74,435.47 803.76,430.23 805.79,424.99 L814.33,446.51 C816.17,451.12 817.56,454.63 818.51,457.03 L818.51,457.03 zM805.19,439.05 C805.16,439.11 805.12,439.22 805.05,439.39 C804.96,439.64 804.61,440.56 804.01,442.16 C803.22,444.28 802.62,445.89 802.21,447 C801.83,448.01 801.54,448.8 801.33,449.36 C801.11,449.97 800.94,450.43 800.83,450.76 C800.64,451.29 800.53,451.66 800.51,451.86 C800.47,452.14 800.6,452.45 800.92,452.8 C801.23,453.15 801.55,453.38 801.89,453.49 C802.18,453.59 802.59,453.64 803.11,453.64 C803.71,453.65 804.73,453.59 806.17,453.47 C806.6,453.46 807.1,453.5 807.68,453.58 C808.02,453.62 808.63,453.52 809.5,453.27 C809.65,453.24 809.93,453.2 810.33,453.17 C810.98,453.11 811.38,452.91 811.52,452.55 C811.57,452.42 811.55,452.24 811.48,452.01 C811.43,451.85 811.32,451.53 811.14,451.04 C811.03,450.75 810.87,450.32 810.66,449.76 C810.46,449.24 810.19,448.51 809.85,447.59 C809.47,446.57 808.91,445.09 808.18,443.14 C808.02,442.72 807.85,442.29 807.65,441.83 C806.63,439.4 805.87,438.39 805.38,438.81 C805.29,438.88 805.23,438.96 805.19,439.05 L805.19,439.05 zM813.98,413.65 L813.87,413.93 C813.84,413.99 813.76,414.11 813.65,414.29 C813.49,414.55 812.89,415.52 811.83,417.2 C810.34,419.79 809.32,421.49 808.78,422.3 C808.33,422.96 807.95,423.42 807.63,423.68 C807.23,424 806.68,424.18 805.97,424.24 C805.4,424.28 804.91,424.18 804.49,423.95 C804.07,423.71 803.87,423.42 803.91,423.09 L808.02,415.48 C808.84,413.96 809.33,413.08 809.5,412.85 C809.61,412.69 809.72,412.58 809.84,412.53 C810,412.45 810.5,412.39 811.33,412.35 L813.07,412.34 C813.86,412.44 814.17,412.87 813.98,413.65 L813.98,413.65 zM832.93,428.08 L843.76,458.55 L843.92,458.12 L843.94,458.06 L855.45,427.44 C855.84,426.96 856.55,426.66 857.57,426.54 C858.59,426.42 859.28,426.55 859.65,426.94 C859.94,427.25 860.1,427.54 860.1,427.81 C860.11,428.02 860.05,428.34 859.91,428.78 C859.74,429.34 859.28,430.61 858.52,432.6 L844.74,468.96 C843.89,469.91 843.12,469.77 842.41,468.53 C842.37,468.45 841.71,466.67 840.43,463.19 C839.15,459.71 837.59,455.45 835.76,450.42 C833.92,445.39 832.29,440.92 830.88,437.01 C829.46,433.1 828.62,430.78 828.38,430.07 C828.32,429.91 828.17,429.59 827.93,429.11 C827.41,428.03 827.67,427.24 828.71,426.74 C829.43,426.39 830.22,426.35 831.08,426.62 C831.93,426.89 832.55,427.38 832.93,428.08 L832.93,428.08 zM890.22,446.32 C892.07,451 893.48,454.55 894.43,457 C895.31,459.23 895.99,460.96 896.47,462.2 C897,463.55 897.4,464.58 897.67,465.29 C898.11,466.46 898.39,467.24 898.5,467.63 C898.65,468.18 898.58,468.61 898.28,468.92 C896.11,469.05 894.86,469.09 894.51,469.05 C894.27,469.02 894.08,468.94 893.96,468.8 C893.79,468.61 893.46,467.84 892.97,466.51 C892.29,464.64 891.75,463.21 891.37,462.23 C891.03,461.34 890.74,460.65 890.51,460.15 C890.27,459.61 890.04,459.21 889.84,458.93 C889.5,458.46 889.03,458.16 888.44,458.02 C888.08,457.94 887.58,457.88 886.93,457.84 C886.34,457.8 885.52,457.78 884.47,457.77 C883.32,457.76 881.65,457.76 879.46,457.78 C877.44,457.79 876.25,457.81 875.91,457.84 C875.67,457.86 875.48,457.9 875.33,457.96 C875.12,458.04 874.63,458.37 873.85,458.94 C873.66,459.24 873.16,460.46 872.36,462.6 C871.56,464.74 870.97,466.43 870.58,467.68 C870.4,468.23 870.19,468.6 869.96,468.79 C869.77,468.95 869.48,469.06 869.1,469.12 C868.65,469.19 867.83,469.22 866.64,469.2 C865.99,469.16 865.58,468.93 865.4,468.51 C865.3,468.29 865.26,468.12 865.27,468.01 C865.27,467.93 865.3,467.81 865.35,467.66 C865.42,467.47 865.64,466.96 866,466.14 C871.21,452.29 876.43,438.44 881.65,424.59 C884.5,431.83 887.36,439.08 890.22,446.32 L890.22,446.32 zM881.07,439.58 C880.94,439.74 880.78,440.02 880.6,440.43 C880.38,440.91 880,441.88 879.46,443.32 C878.78,445.13 878.25,446.52 877.88,447.5 C877.54,448.41 877.27,449.13 877.08,449.65 C876.87,450.22 876.71,450.66 876.61,450.97 C876.42,451.51 876.32,451.89 876.3,452.1 C876.27,452.4 876.44,452.74 876.8,453.12 C877.12,453.45 877.59,453.55 878.21,453.4 C878.24,453.39 878.29,453.39 878.34,453.4 C878.37,453.4 878.45,453.41 878.56,453.42 C878.71,453.45 879.3,453.53 880.33,453.67 C882.03,453.69 883.31,453.68 884.19,453.63 C885,453.59 885.62,453.51 886.05,453.4 C886.52,453.28 886.85,453.09 887.05,452.84 C887.23,452.6 887.28,452.26 887.17,451.8 C887.09,451.43 886.88,450.82 886.55,449.96 C886.15,448.91 885.28,446.79 883.94,443.6 C883.85,443.39 883.77,443.17 883.69,442.95 C882.96,441.04 882.54,439.94 882.41,439.65 C882.33,439.45 882.26,439.32 882.21,439.26 C882.14,439.18 881.99,439.16 881.75,439.2 C881.46,439.25 881.24,439.38 881.07,439.58 L881.07,439.58 zM937.97,443.95 C938.14,444.16 938.25,444.47 938.31,444.88 C938.37,445.36 938.39,446.21 938.35,447.44 C938.26,448.82 937.06,449.45 934.75,449.33 C934.12,449.27 933.58,448.89 933.12,448.21 C932.67,447.52 932.47,446.78 932.53,445.99 C932.61,444.89 933.08,444.07 933.94,443.53 C934.8,443 935.77,442.92 936.86,443.3 C937.4,443.49 937.78,443.7 937.97,443.95 L937.97,443.95 zM332.5,444.17 C332.66,444.38 332.78,444.69 332.83,445.1 C332.9,445.58 332.91,446.44 332.88,447.66 C332.78,449.04 331.58,449.67 329.28,449.55 C328.65,449.49 328.1,449.11 327.65,448.43 C327.19,447.74 326.99,447 327.05,446.21 C327.14,445.11 327.61,444.29 328.47,443.76 C329.32,443.22 330.3,443.14 331.38,443.52 C331.93,443.71 332.3,443.93 332.5,444.17 L332.5,444.17 z"/>  </g> </svg>