<svg xmlns="http://www.w3.org/2000/svg" xml:space="preserve" shape-rendering="geometricPrecision" text-rendering="geometricPrecision" image-rendering="optimizeQuality" fill-rule="evenodd" clip-rule="evenodd" xmlns:xlink="http://www.w3.org/1999/xlink" viewBox="0 0 312.4 277.48">  <g id="Layer_1">   <metadata id="FutureCorpID_Layer"/>    <path fill="#FF007F" d="M255.7,38.84 C255.84,38.91 255.95,39.03 256.04,39.19 C256.14,39.36 256.24,39.63 256.33,39.99 C256.38,40.24 256.33,40.54 256.17,40.9 C256.02,41.25 255.83,41.48 255.62,41.57 C254.76,41.91 254.07,41.8 253.55,41.23 C253.36,41 253.24,40.79 253.19,40.61 C253.14,40.44 253.13,40.27 253.16,40.08 C253.2,39.88 253.3,39.61 253.47,39.28 C253.71,38.84 254.24,38.65 255.06,38.68 C255.34,38.7 255.55,38.75 255.7,38.84 L255.7,38.84 zM250.69,39.64 C250.84,39.79 250.97,39.92 251.08,40.03 L251.24,40.2 C251.35,40.35 251.37,40.51 251.31,40.69 C251.25,40.86 251.11,41.07 250.89,41.31 C250.66,41.57 250.3,41.9 249.81,42.31 C249.1,42.91 248.37,43.6 247.62,44.38 C246.88,45.15 246.39,45.73 246.15,46.12 C245.91,46.59 245.86,47.11 246.02,47.67 C246.17,48.23 246.47,48.64 246.92,48.89 C247.31,49.11 247.66,49.24 247.97,49.27 C248.26,49.29 248.56,49.24 248.85,49.11 C249.17,48.96 249.52,48.71 249.93,48.35 L253.62,44.71 C254.02,44.32 254.31,44.06 254.51,43.94 C254.69,43.83 254.84,43.78 254.98,43.8 C255.13,43.81 255.33,43.92 255.55,44.11 C255.93,44.41 256.12,44.67 256.13,44.91 C256.13,45.1 256.02,45.36 255.78,45.66 C255.51,46.03 254.91,46.65 254.01,47.54 C252.51,49 251.51,49.94 251.01,50.38 C250.62,50.73 250.29,50.97 250.03,51.12 C249.72,51.3 249.28,51.43 248.73,51.52 C247.04,51.74 245.78,51.4 244.94,50.49 C243.64,49.02 243.25,47.49 243.76,45.91 C244.19,44.74 245.15,43.47 246.66,42.11 C247.06,41.74 247.37,41.46 247.59,41.27 C247.78,41.09 247.93,40.95 248.04,40.85 C248.16,40.74 248.25,40.66 248.32,40.6 C248.43,40.49 248.51,40.41 248.57,40.34 C248.66,40.25 248.84,40.03 249.12,39.69 C249.54,39.19 249.88,38.98 250.13,39.08 L250.3,39.24 C250.41,39.35 250.54,39.48 250.69,39.64 L250.69,39.64 zM237.09,28.37 C237.38,28.64 237.53,28.86 237.54,29.02 C237.55,29.13 237.53,29.33 237.46,29.61 C237.43,29.78 237.37,30.03 237.29,30.35 C237.22,30.64 237.11,31.05 236.98,31.59 C236.83,32.16 236.62,33.01 236.33,34.12 C236.1,34.83 236.03,35.25 236.11,35.39 C236.25,35.61 236.52,35.68 236.9,35.6 C237.87,35.06 238.84,34.52 239.82,33.99 C240.54,33.59 241.07,33.32 241.42,33.16 C241.72,33.03 241.97,32.94 242.15,32.91 C242.36,32.87 242.56,32.9 242.74,32.98 C242.87,33.03 243.04,33.17 243.26,33.39 C243.46,33.58 243.73,33.73 244.07,33.84 C244.21,33.87 244.36,33.9 244.51,33.92 L233.8,39.93 C233.23,40.14 232.94,39.98 232.93,39.46 C232.94,39.1 232.97,38.8 233.01,38.55 C233.04,38.37 233.11,38.05 233.21,37.58 C233.27,37.3 233.36,36.9 233.47,36.37 C233.58,35.88 233.73,35.2 233.92,34.33 C234.13,33.38 234.43,31.99 234.83,30.16 C235,29.4 235.11,28.89 235.19,28.61 C235.25,28.38 235.3,28.21 235.36,28.1 C235.42,27.96 235.51,27.83 235.62,27.72 C235.85,27.51 236.34,27.72 237.09,28.37 L237.09,28.37 zM210.37,23.83 L210.35,23.83 L212.91,24.91 C213.86,25.31 214.48,25.59 214.79,25.75 C215.04,25.88 215.22,26 215.33,26.12 C215.46,26.26 215.56,26.48 215.63,26.78 C215.68,27.01 215.63,27.25 215.48,27.5 C215.33,27.74 215.15,27.88 214.95,27.9 C214.51,27.94 214.1,27.88 213.73,27.71 C212.73,27.28 211.96,26.95 211.42,26.71 C210.93,26.5 210.54,26.33 210.26,26.2 C209.95,26.07 209.72,25.97 209.56,25.89 C209.28,25.77 209.09,25.68 209,25.62 C208.86,25.54 208.76,25.42 208.69,25.26 C208.62,25.11 208.61,24.91 208.63,24.65 C208.66,24.39 208.72,24.2 208.82,24.07 C208.94,23.9 209.15,23.79 209.45,23.75 C209.75,23.7 210.06,23.73 210.37,23.83 L210.37,23.83 zM213.04,19.79 C213.46,19.97 213.92,20.18 214.41,20.41 C214.91,20.64 215.33,20.84 215.67,21.01 C216.01,21.18 216.2,21.29 216.23,21.33 C216.47,21.62 216.55,21.95 216.48,22.3 C216.41,22.66 216.22,22.91 215.9,23.05 C215.69,23.15 215.51,23.18 215.35,23.17 C215.23,23.15 215.05,23.1 214.82,23.01 C214.53,22.9 213.94,22.64 213.03,22.23 C211.99,21.76 211.36,21.46 211.13,21.32 C210.95,21.21 210.83,21.11 210.77,21.01 C210.7,20.88 210.68,20.6 210.7,20.18 C210.77,19.47 211.27,19.23 212.18,19.46 C212.34,19.51 212.63,19.62 213.04,19.79 L213.04,19.79 zM217.37,16.86 C218.68,17.48 219.36,17.82 219.42,17.89 C219.66,18.14 219.74,18.45 219.67,18.83 C219.6,19.2 219.41,19.45 219.11,19.58 C218.61,19.8 217.85,19.63 216.82,19.09 C215.84,18.65 214.87,18.21 213.9,17.77 C212.84,17.28 212.43,16.69 212.67,15.98 C212.9,15.29 213.44,15.11 214.28,15.42 C215.04,15.76 216.07,16.24 217.37,16.86 L217.37,16.86 zM196.87,8.69 C197.29,8.84 197.55,8.94 197.66,8.99 C197.74,9.04 197.8,9.08 197.84,9.14 C197.89,9.2 197.96,9.35 198.03,9.58 L198.42,14.3 C198.48,14.67 198.53,14.94 198.57,15.11 C198.61,15.26 198.65,15.37 198.7,15.45 C198.75,15.54 198.83,15.6 198.93,15.65 C199.06,15.71 199.16,15.73 199.21,15.71 C199.26,15.7 199.32,15.66 199.39,15.59 C199.49,15.5 199.76,15.24 200.19,14.81 C200.25,14.74 200.32,14.68 200.38,14.61 L202.87,12.08 C203.49,11.46 204.09,11.23 204.68,11.4 C205.12,11.52 205.47,11.7 205.73,11.95 C205.83,12.05 205.92,12.16 206.01,12.27 C203.27,15.11 200.53,17.95 197.8,20.79 C197.46,21 197.21,20.99 197.04,20.73 C196.94,20.57 196.86,20.37 196.82,20.11 C196.79,19.92 196.75,19.56 196.69,19.01 C196.65,18.68 196.59,18.19 196.52,17.56 C196.46,16.99 196.37,16.18 196.26,15.12 C196.13,13.98 195.95,12.31 195.7,10.11 C195.58,9.09 195.65,8.55 195.91,8.48 C196.04,8.45 196.12,8.44 196.17,8.44 C196.2,8.44 196.25,8.45 196.3,8.47 C196.37,8.49 196.56,8.56 196.87,8.69 L196.87,8.69 zM171.25,12.92 C171.34,12.93 171.5,12.96 171.72,12.99 C171.86,13 172.06,13.03 172.32,13.06 C172.55,13.1 172.89,13.14 173.31,13.2 C173.78,13.26 174.45,13.35 175.35,13.46 C176.22,13.61 176.65,14 176.64,14.65 C176.64,14.99 176.58,15.25 176.46,15.42 C176.34,15.59 176.17,15.7 175.93,15.76 C175.68,15.82 175.33,15.82 174.88,15.77 C173.99,15.63 173.1,15.49 172.22,15.36 C171.41,15.24 170.83,15.15 170.47,15.07 C170.16,15 169.92,14.92 169.75,14.84 C169.56,14.74 169.4,14.6 169.27,14.42 C169.05,14.1 169.05,13.73 169.26,13.31 C169.49,12.84 169.95,12.66 170.62,12.79 L170.73,12.81 C170.95,12.86 171.12,12.9 171.25,12.92 L171.25,12.92 zM173.32,8.27 C173.7,8.33 174.01,8.38 174.24,8.42 C174.49,8.46 174.68,8.5 174.83,8.52 C175.11,8.58 175.3,8.62 175.41,8.66 C175.55,8.72 175.66,8.82 175.74,8.98 C176.15,9.78 176.04,10.32 175.39,10.58 C175.24,10.65 175.1,10.68 174.98,10.68 C174.9,10.68 174.75,10.67 174.53,10.66 C174.41,10.64 174.23,10.63 173.99,10.6 C173.78,10.58 173.48,10.55 173.11,10.51 C172.69,10.47 172.11,10.41 171.34,10.33 C170.9,10.29 170.61,10.25 170.47,10.22 C170.36,10.19 170.27,10.16 170.21,10.11 C170.13,10.06 170.04,9.94 169.94,9.77 C169.83,9.58 169.79,9.35 169.8,9.08 C169.81,8.81 169.87,8.58 169.99,8.38 C170.25,8 170.81,7.87 171.66,8.01 L171.7,8 C172.38,8.11 172.92,8.2 173.32,8.27 L173.32,8.27 zM174.54,3.92 C175.07,3.99 175.49,4.04 175.79,4.08 C176.12,4.12 176.37,4.16 176.54,4.18 C176.83,4.22 177.02,4.25 177.12,4.28 C177.27,4.32 177.42,4.42 177.57,4.57 C177.77,4.77 177.85,5.05 177.82,5.43 C177.78,5.8 177.65,6.04 177.41,6.17 C177.17,6.3 176.97,6.38 176.82,6.39 C176.71,6.4 176.55,6.4 176.32,6.38 C176.03,6.35 175.22,6.25 173.91,6.08 C173.32,6 172.86,5.94 172.52,5.89 C172.21,5.85 171.96,5.81 171.78,5.78 C171.58,5.75 171.42,5.73 171.31,5.71 C171.1,5.67 170.95,5.63 170.86,5.59 C170.74,5.53 170.61,5.38 170.46,5.14 C170.25,4.78 170.26,4.41 170.5,4.02 C170.75,3.65 171.23,3.51 171.94,3.59 C173.09,3.74 173.95,3.84 174.54,3.92 L174.54,3.92 zM173.96,0.73 C174.17,0.97 174.39,1.1 174.61,1.12 C174.88,1.15 175.04,1.16 175.1,1.16 C175.14,1.15 175.19,1.14 175.24,1.12 C175.32,1.09 175.57,0.96 175.99,0.75 C176.5,0.52 176.86,0.59 177.08,0.96 C177.27,1.26 177.39,1.48 177.42,1.61 C177.45,1.72 177.44,1.82 177.38,1.89 C177.31,1.97 177.15,2.07 176.89,2.18 C176.36,2.38 175.83,2.59 175.3,2.8 C174.88,2.91 174.51,2.95 174.2,2.91 C173.91,2.88 173.61,2.79 173.32,2.62 C172.99,2.45 172.61,2.16 172.16,1.76 C171.79,1.4 171.66,1.07 171.76,0.79 C171.8,0.69 171.97,0.53 172.27,0.33 C172.57,0.12 172.79,0.02 172.92,0 C173.18,-0.02 173.53,0.22 173.96,0.73 L173.96,0.73 zM161.93,2.73 C162.56,2.94 162.82,3.51 162.71,4.44 L162.58,12.83 L162.51,13.27 C162.48,13.59 162.46,13.79 162.44,13.86 C162.43,13.9 162.42,13.94 162.4,13.97 C162.38,14 162.3,14.04 162.19,14.09 C161.99,14.18 161.8,14.18 161.6,14.09 C161.41,14.01 161.2,13.83 160.95,13.57 C160.68,13.29 160.32,12.84 159.88,12.24 C159.59,11.85 159.4,11.61 159.31,11.5 C159.24,11.42 159.15,11.32 159.03,11.2 C158.95,11.12 158.85,11.02 158.71,10.89 C158.58,10.76 158.41,10.59 158.19,10.38 C157.95,10.14 157.59,9.79 157.13,9.34 C156.81,9.02 156.46,8.72 156.09,8.43 C156.01,8.37 155.91,8.36 155.81,8.4 C155.71,8.44 155.64,8.53 155.59,8.66 C155.57,8.71 155.56,8.75 155.55,8.78 C155.55,8.81 155.55,8.85 155.55,8.91 C155.55,9 155.55,9.32 155.55,9.88 C155.52,10.64 155.48,11.39 155.45,12.15 C155.56,12.87 155.47,13.42 155.2,13.77 C155.03,13.99 154.78,14.12 154.44,14.15 C154.11,14.17 153.82,14.09 153.59,13.91 C153.43,13.78 153.33,13.63 153.3,13.44 C153.27,13.3 153.26,13.05 153.25,12.69 C153.25,12.5 153.25,12.25 153.25,11.93 C153.25,11.64 153.26,11.26 153.26,10.79 C153.27,10.29 153.28,9.62 153.29,8.79 C153.31,7.63 153.32,6.74 153.33,6.13 C153.34,5.58 153.34,5.15 153.35,4.84 C153.36,4.5 153.36,4.25 153.37,4.07 C153.38,3.78 153.39,3.58 153.41,3.47 C153.43,3.32 153.52,3.17 153.68,3 C153.97,2.71 154.24,2.73 154.5,3.09 C154.55,3.16 154.58,3.2 154.6,3.22 C154.61,3.24 154.63,3.26 154.66,3.28 C154.7,3.32 154.83,3.45 155.07,3.68 C155.3,3.91 155.45,4.07 155.53,4.16 C155.58,4.22 155.66,4.32 155.77,4.45 C155.84,4.53 155.93,4.64 156.04,4.78 C156.15,4.92 156.3,5.1 156.49,5.34 C156.7,5.6 157.01,5.98 157.41,6.48 C157.78,6.93 158.26,7.41 158.88,7.93 C159.5,8.45 159.89,8.71 160.05,8.7 C160.31,8.7 160.44,8.37 160.44,7.7 L160.42,3.33 C160.44,3.12 160.49,2.97 160.57,2.87 C160.65,2.79 160.76,2.74 160.92,2.71 C161.09,2.67 161.36,2.67 161.72,2.69 C161.79,2.69 161.86,2.7 161.93,2.73 L161.93,2.73 zM145.77,4.11 C146.03,7.15 146.29,10.19 146.56,13.23 C146.55,13.74 146.53,14.07 146.5,14.22 C146.47,14.35 146.42,14.44 146.34,14.5 C146.25,14.58 146.04,14.66 145.72,14.74 C145.59,14.77 145.37,14.75 145.04,14.69 C144.71,14.62 144.5,14.55 144.4,14.48 C144.27,14.37 144.17,14.24 144.12,14.1 C144.08,13.98 144.04,13.8 144.01,13.55 C143.98,13.24 143.92,12.62 143.86,11.69 C143.74,10.05 143.65,8.81 143.59,7.95 C143.53,7.18 143.49,6.57 143.46,6.13 C143.42,5.66 143.4,5.3 143.38,5.05 C143.36,4.64 143.34,4.36 143.35,4.22 C143.35,4.01 143.4,3.81 143.5,3.63 C143.69,3.24 144.06,3.05 144.61,3.07 C145.39,3.12 145.77,3.47 145.77,4.11 L145.77,4.11 zM129.38,7.68 L130.67,14.37 L132.26,14.18 C133.59,13.76 134.36,12.79 134.56,11.27 C134.68,10.13 134.15,9.09 132.97,8.15 C132.85,8.05 132.72,7.96 132.59,7.89 C131.95,7.54 131.24,7.41 130.47,7.48 C130.11,7.51 129.74,7.58 129.38,7.68 L129.38,7.68 zM131.39,5.09 C132.18,5.21 132.87,5.42 133.45,5.73 C134,6.03 134.56,6.46 135.12,7 C135.69,7.54 136.06,8.01 136.23,8.41 C136.79,9.75 136.85,11.19 136.42,12.71 C135.99,14.23 135.24,15.25 134.17,15.78 C133.56,16.06 132.31,16.39 130.41,16.79 C129.91,16.89 129.42,17 128.92,17.1 L126.78,5.66 C127.58,5.51 128.19,5.39 128.61,5.31 C128.99,5.24 129.29,5.19 129.5,5.15 C129.73,5.11 129.92,5.07 130.04,5.05 C130.25,5.02 130.41,5 130.52,4.99 C130.67,4.99 130.96,5.02 131.39,5.09 L131.39,5.09 zM119.54,13.97 C119.49,14.21 119.41,14.39 119.29,14.5 C119.19,14.59 119.03,14.67 118.8,14.76 C118.51,14.87 117.95,15.05 117.1,15.29 C116.01,15.61 115.33,15.8 115.05,15.87 C114.84,15.92 114.69,15.95 114.58,15.96 C114.45,15.97 114.28,15.95 114.07,15.89 C113.83,15.82 113.66,15.65 113.55,15.36 C113.45,15.08 113.45,14.78 113.54,14.45 C113.61,14.22 113.71,14.05 113.83,13.96 C113.93,13.88 114.1,13.8 114.33,13.71 C114.62,13.61 115.26,13.42 116.25,13.14 L117.53,12.73 C118.02,12.58 118.48,12.58 118.89,12.73 C119.45,12.93 119.66,13.34 119.54,13.97 L119.54,13.97 zM119.68,9.12 C119.74,9.73 119.37,10.14 118.59,10.35 L113.54,11.87 C112.58,12.04 112.06,11.72 111.98,10.9 C111.96,10.69 112.04,10.46 112.21,10.2 C112.38,9.95 112.57,9.77 112.79,9.67 L117.79,8.1 C118.19,7.97 118.5,7.94 118.72,8 C119.31,8.18 119.63,8.55 119.68,9.12 L119.68,9.12 zM121.55,17 C121.82,17.07 122.01,17.25 122.15,17.51 C122.29,17.78 122.32,18.06 122.24,18.34 C122.1,18.84 121.44,19.25 120.23,19.57 L117.6,20.28 C116.99,20.49 116.53,20.62 116.22,20.67 C115.94,20.72 115.72,20.71 115.55,20.65 C115.36,20.58 115.19,20.42 115.04,20.18 C114.93,19.98 114.88,19.72 114.91,19.42 C114.93,19.12 115.01,18.89 115.15,18.72 C115.21,18.65 115.29,18.59 115.4,18.55 C115.47,18.52 115.61,18.48 115.83,18.41 C115.96,18.37 116.15,18.32 116.4,18.24 C116.63,18.17 116.95,18.08 117.36,17.96 C117.81,17.83 118.47,17.63 119.33,17.38 C120.02,17.18 120.47,17.05 120.69,17 C120.86,16.95 121,16.93 121.1,16.93 C121.22,16.92 121.37,16.94 121.55,17 L121.55,17 zM105.23,13.15 C105.38,13.25 105.49,13.36 105.57,13.49 C105.63,13.59 105.7,13.75 105.77,13.97 C105.85,14.23 105.99,14.71 106.18,15.42 C106.24,15.66 106.29,15.84 106.33,15.94 C106.36,16.02 106.41,16.14 106.47,16.31 C106.52,16.41 106.57,16.56 106.65,16.74 C106.72,16.92 106.82,17.16 106.95,17.47 C107.08,17.81 107.28,18.3 107.54,18.95 C108.3,20.82 108.3,22.29 107.55,23.34 C107.15,23.86 106.59,24.27 105.89,24.57 C105.19,24.88 104.54,24.98 103.94,24.88 C103.74,24.84 103.61,24.81 103.55,24.79 C103.51,24.78 103.45,24.76 103.38,24.72 C103.28,24.68 102.91,24.5 102.27,24.21 C101.65,23.92 101.28,23.54 101.17,23.09 C101.09,22.71 101.25,22.43 101.68,22.23 C101.98,22.07 102.19,21.98 102.31,21.95 C102.41,21.93 102.53,21.94 102.67,21.96 C102.85,21.99 103.28,22.09 103.96,22.26 C104.67,22.43 105.23,22.33 105.63,21.94 C105.8,21.79 105.9,21.62 105.93,21.44 C105.96,21.29 105.94,21.09 105.87,20.85 C105.8,20.57 105.64,20.14 105.4,19.56 C105.11,18.89 104.89,18.36 104.73,17.98 C104.58,17.62 104.46,17.34 104.37,17.12 C104.27,16.9 104.2,16.72 104.14,16.59 C104.03,16.36 103.94,16.19 103.88,16.11 C103.79,15.99 103.64,15.9 103.41,15.83 C103.29,15.8 103.21,15.78 103.17,15.78 C103.15,15.78 103.11,15.78 103.06,15.79 C102.99,15.8 102.73,15.84 102.29,15.92 C102.05,15.95 101.82,15.95 101.61,15.9 C101.39,15.85 101.25,15.78 101.17,15.68 C100.99,15.45 100.9,15.19 100.89,14.89 C100.89,14.59 100.96,14.33 101.13,14.1 C101.26,13.95 101.35,13.85 101.41,13.81 C101.44,13.79 101.5,13.76 101.58,13.72 C101.69,13.67 102.1,13.5 102.81,13.21 C103.43,12.95 103.84,12.8 104.04,12.75 C104.19,12.72 104.32,12.71 104.44,12.74 C104.59,12.78 104.85,12.91 105.23,13.15 L105.23,13.15 zM82.87,25.2 C83.01,25.31 83.1,25.44 83.14,25.6 C83.19,25.78 83.2,26.03 83.17,26.34 C83.15,26.52 83.09,26.66 82.99,26.77 C82.89,26.87 82.74,26.96 82.54,27.04 C82.32,27.12 82,27.21 81.56,27.31 C81.4,27.35 81.15,27.45 80.82,27.61 C80.49,27.77 80.27,27.89 80.18,27.98 C79.82,28.32 79.72,28.66 79.86,28.99 C79.94,29.16 80.08,29.29 80.28,29.36 C80.47,29.42 80.73,29.45 81.08,29.44 C81.45,29.43 81.96,29.37 82.63,29.27 C83.48,29.14 84.2,29.13 84.81,29.24 C85.39,29.35 85.9,29.57 86.33,29.91 C86.78,30.26 87.17,30.76 87.51,31.41 C87.88,32.17 87.88,32.95 87.53,33.76 C87.17,34.56 86.49,35.27 85.5,35.88 C85.03,36.17 84.15,36.42 82.88,36.61 C82.51,36.64 82.19,36.57 81.93,36.41 C81.66,36.24 81.52,36.02 81.49,35.73 C81.46,35.15 81.62,34.75 82,34.54 L83.58,34.21 C84.21,34.08 84.71,33.83 85.08,33.45 C85.46,33.07 85.58,32.69 85.45,32.31 C85.32,31.94 85.05,31.68 84.63,31.53 C84.21,31.38 83.73,31.38 83.2,31.52 C82.46,31.72 81.7,31.81 80.92,31.78 C80.14,31.76 79.56,31.63 79.16,31.39 C77.81,30.55 77.32,29.36 77.7,27.83 C77.97,26.93 78.68,26.14 79.83,25.44 C80.24,25.2 80.68,25.03 81.14,24.92 C81.6,24.8 81.95,24.79 82.19,24.86 C82.5,24.97 82.73,25.08 82.87,25.2 L82.87,25.2 zM65.39,32.43 C66.05,32.65 66.18,33.14 65.76,33.88 L65.58,34.15 C65.48,34.29 65.37,34.45 65.24,34.64 C65.1,34.82 64.98,34.99 64.87,35.14 C64.76,35.29 64.68,35.39 64.63,35.45 C64.59,35.5 64.56,35.55 64.52,35.61 C64.36,35.91 64.1,35.95 63.74,35.74 C63.6,35.66 63.51,35.45 63.47,35.12 C63.4,34.85 63.42,34.42 63.5,33.82 C63.58,33.22 63.68,32.84 63.79,32.69 C63.89,32.55 64.09,32.45 64.38,32.4 C64.67,32.34 64.97,32.34 65.27,32.4 C65.31,32.41 65.35,32.42 65.39,32.43 L65.39,32.43 zM66.6,36.49 C66.87,36.6 67.64,36.95 68.9,37.53 C69.55,37.83 70.44,38.24 71.58,38.76 C72.72,39.29 73.62,39.7 74.27,39.99 C75.15,40.4 75.66,40.63 75.81,40.69 C75.91,40.74 75.98,40.77 76.04,40.79 C76.11,40.83 76.27,40.88 76.51,40.97 C77.07,41.18 77.25,41.51 77.05,41.95 C76.67,42.75 75.82,42.93 74.5,42.49 C74.25,42.41 74.08,42.35 73.99,42.31 C73.93,42.29 73.84,42.25 73.73,42.2 C73.66,42.17 73.56,42.12 73.44,42.06 C73.32,42.01 73.16,41.94 72.95,41.84 C72.73,41.74 72.4,41.59 71.97,41.39 L68.87,40.16 C68.88,40.86 68.96,41.53 69.12,42.19 C69.46,43.45 69.79,44.7 70.13,45.96 C70.27,46.51 70.34,46.9 70.34,47.15 C70.33,47.36 70.28,47.54 70.18,47.7 C70.06,47.88 69.81,48.1 69.43,48.37 C69.07,48.61 68.72,48.54 68.4,48.18 C68.33,48.09 68.27,48.01 68.24,47.94 C68.22,47.88 68.2,47.8 68.18,47.7 C68.15,47.58 68.11,47.34 68.06,46.99 L65.54,37.27 C65.53,36.88 65.58,36.64 65.71,36.54 C65.9,36.41 66.05,36.35 66.17,36.36 C66.26,36.37 66.41,36.41 66.6,36.49 L66.6,36.49 zM56.88,45.64 C57.04,45.73 57.23,45.88 57.45,46.09 C57.7,46.32 58.06,46.71 58.54,47.24 C58.73,47.46 58.86,47.6 58.93,47.67 C58.98,47.72 59.06,47.78 59.16,47.87 C59.22,47.92 59.3,48 59.42,48.09 C59.52,48.18 59.66,48.29 59.84,48.45 C60.04,48.62 60.33,48.86 60.71,49.18 L63.92,52.15 C64.38,52.61 64.48,52.9 64.23,53.04 C64.1,53.11 63.92,53.17 63.71,53.21 C63.51,53.25 63.25,53.28 62.92,53.31 C62.58,53.33 62.1,53.35 61.51,53.37 C60.5,53.39 59.73,53.41 59.21,53.43 C58.73,53.44 58.35,53.45 58.09,53.46 C57.8,53.47 57.57,53.47 57.42,53.48 C57.16,53.49 56.99,53.5 56.89,53.51 C56.74,53.52 56.56,53.57 56.34,53.65 C55.9,53.81 55.81,54.07 56.08,54.45 C57.2,55.49 58.31,56.52 59.43,57.55 C59.58,57.71 59.66,57.93 59.68,58.21 C59.69,58.48 59.63,58.7 59.49,58.84 C59.12,59.2 58.85,59.41 58.66,59.45 C58.52,59.48 58.35,59.44 58.15,59.32 C57.91,59.18 57.44,58.8 56.74,58.18 C55.3,56.91 54.21,55.94 53.46,55.28 C52.78,54.68 52.25,54.21 51.87,53.87 C51.46,53.5 51.15,53.22 50.94,53.03 C50.59,52.71 50.36,52.49 50.26,52.37 C50.13,52.2 50.12,52.01 50.23,51.79 C50.29,51.69 50.37,51.61 50.48,51.57 C50.57,51.52 50.7,51.49 50.88,51.47 C51.08,51.45 51.39,51.43 51.8,51.42 C53.93,51.32 56.05,51.22 58.18,51.12 C58.49,51.03 58.63,50.88 58.6,50.67 C58.58,50.44 58.28,50.09 57.72,49.61 L55.46,47.36 C55.17,46.87 55.08,46.5 55.21,46.22 C55.44,45.74 55.8,45.49 56.29,45.49 C56.5,45.49 56.7,45.54 56.88,45.64 L56.88,45.64 zM44.28,69.6 C46.31,70.7 47.43,71.83 47.64,72.97 C47.88,74.57 47.53,75.88 46.57,76.91 C45.26,78.26 43.85,78.77 42.32,78.42 C42,78.34 41.68,78.24 41.34,78.09 C41.04,77.97 40.67,77.79 40.23,77.55 C39.75,77.3 39.07,76.92 38.21,76.43 L36.78,75.42 C36.64,75.33 36.55,75.27 36.5,75.24 C36.47,75.22 36.43,75.2 36.37,75.18 C36.29,75.14 36,75 35.51,74.77 C35.18,74.61 34.96,74.46 34.84,74.32 C34.73,74.2 34.68,74.06 34.7,73.9 C34.72,73.72 34.82,73.49 35,73.19 C35.21,72.88 35.36,72.68 35.43,72.6 C35.49,72.54 35.55,72.51 35.61,72.49 C35.69,72.47 35.86,72.47 36.1,72.5 C36.21,72.51 36.28,72.53 36.33,72.55 C36.37,72.57 36.43,72.61 36.51,72.66 C36.63,72.73 37.06,73.01 37.82,73.49 C38.77,74.1 39.5,74.56 40.01,74.88 C40.48,75.17 40.84,75.39 41.09,75.53 C41.36,75.69 41.55,75.8 41.66,75.84 C43.04,76.37 44.12,76.21 44.89,75.37 C45.23,74.97 45.4,74.5 45.38,73.96 C45.37,73.43 45.18,72.99 44.82,72.66 C44.63,72.49 44.5,72.38 44.44,72.34 C44.4,72.3 44.33,72.26 44.25,72.21 C44.14,72.14 43.73,71.9 43.03,71.49 C42.24,70.99 41.45,70.5 40.66,70.01 L38.84,68.88 C38.14,68.17 38.2,67.52 39.04,66.93 C39.38,66.69 39.86,66.79 40.48,67.23 C41.74,68.12 43.01,68.91 44.28,69.6 L44.28,69.6 zM163.38,38.45 C164.36,38.48 165.81,38.65 167.74,38.96 L169.82,39.17 C169.84,39.17 170.12,39.21 170.66,39.29 C171.21,39.37 171.87,39.46 172.64,39.57 C173.41,39.68 174.07,39.77 174.62,39.85 C175.17,39.93 175.45,39.97 175.46,39.97 C176.23,40.1 176.73,40.19 176.96,40.24 C177.12,40.28 177.35,40.34 177.63,40.42 C177.81,40.46 178.05,40.53 178.37,40.62 C178.65,40.7 179.05,40.81 179.57,40.96 C180.13,41.12 180.94,41.35 182.01,41.66 L186.92,42.81 C188.27,43.13 189.27,43.39 189.91,43.6 C190.42,43.76 191,43.98 191.64,44.25 C192.45,44.59 193.99,45.27 196.27,46.31 L203.68,49.67 C204.63,50.13 205.7,50.68 206.91,51.33 C208.12,51.98 209.05,52.51 209.71,52.92 C210.47,53.45 211.23,53.98 211.99,54.5 C212.85,55.05 213.71,55.61 214.57,56.16 C215.31,56.64 216.22,57.27 217.28,58.03 C218.34,58.8 219.18,59.43 219.8,59.93 C220.12,60.17 220.44,60.41 220.76,60.65 C221.41,61.24 222.07,61.82 222.73,62.41 C222.98,62.63 223.15,62.77 223.23,62.83 C223.28,62.88 223.36,62.95 223.47,63.03 C223.53,63.08 223.62,63.15 223.74,63.24 C223.84,63.32 223.99,63.44 224.18,63.59 C224.38,63.75 224.68,63.98 225.08,64.29 C225.81,64.93 226.55,65.57 227.29,66.21 L227.42,66.32 C227.77,66.58 228.11,66.84 228.45,67.1 C229.21,67.69 229.44,68.17 229.12,68.54 C229.06,68.61 228.94,68.66 228.78,68.7 C228.62,68.74 228.41,68.78 228.12,68.8 C227.82,68.83 227.4,68.86 226.86,68.88 L223.8,68.78 C223.67,68.75 223.58,68.72 223.52,68.69 C223.49,68.66 223.43,68.62 223.35,68.55 C223.24,68.44 222.82,68.06 222.1,67.4 L217.85,63.68 C215.59,61.94 213.01,60.14 210.13,58.29 L208.61,57.24 C207.69,56.7 206.77,56.17 205.86,55.63 L204.42,54.73 C203.97,54.45 203.65,54.27 203.46,54.17 C203.32,54.1 203.1,53.99 202.8,53.85 C202.61,53.76 202.35,53.64 202.01,53.48 C201.69,53.34 201.26,53.14 200.69,52.88 C200.08,52.6 199.19,52.19 198.01,51.65 C197.03,51.17 196.05,50.69 195.07,50.21 C194.28,49.83 193.21,49.38 191.88,48.87 C190.54,48.35 189.41,47.96 188.48,47.68 L186.02,46.79 C185.78,46.7 185.62,46.66 185.55,46.64 C185.49,46.62 185.42,46.61 185.33,46.59 C185.19,46.57 184.72,46.5 183.9,46.38 L179.35,45.24 C177.66,44.81 175.59,44.34 173.13,43.82 C170.67,43.3 169.17,43 168.61,42.94 C167.03,42.76 164.69,42.63 161.58,42.53 C158.48,42.43 156.01,42.41 154.17,42.48 C152.67,42.5 151.17,42.52 149.68,42.55 C148.99,42.56 148.53,42.57 148.29,42.59 C148.12,42.6 147.88,42.62 147.57,42.66 C147.38,42.67 147.14,42.7 146.82,42.74 C146.53,42.77 146.13,42.82 145.62,42.88 C145.08,42.94 144.3,43.03 143.29,43.14 C141.95,43.29 141.07,43.4 140.66,43.45 C140.35,43.5 140.02,43.55 139.69,43.62 C139.25,43.7 138.25,43.92 136.71,44.26 C134.77,44.69 133.47,44.98 132.78,45.15 C132.25,45.28 131.73,45.41 131.25,45.54 C130.64,45.71 129.56,46.02 128.02,46.48 L122.24,48.19 C121.55,48.43 121.13,48.58 120.97,48.64 C120.87,48.68 120.75,48.73 120.61,48.79 C120.53,48.83 120.43,48.88 120.29,48.95 C120.17,49.01 120,49.09 119.78,49.2 C119.55,49.32 119.21,49.49 118.76,49.71 L116.83,50.5 C115.66,51.04 114.49,51.58 113.32,52.12 C112.53,52.48 111.91,52.77 111.43,52.99 C110.98,53.2 110.61,53.37 110.32,53.51 C110.01,53.65 109.75,53.77 109.54,53.88 C109.14,54.08 108.76,54.28 108.4,54.48 C107.94,54.75 106.95,55.37 105.44,56.33 L103.68,57.53 L101.39,58.82 C101.05,59.01 100.7,59.24 100.35,59.48 C100.05,59.7 99.64,60 99.15,60.39 C98.57,60.83 97.65,61.56 96.37,62.57 L90.49,67.21 C89.76,67.9 89.28,68.32 89.04,68.48 C88.87,68.59 88.68,68.68 88.48,68.72 C88.22,68.78 87.62,68.83 86.69,68.88 L82.99,68.88 C83.24,68.35 83.52,67.89 83.85,67.52 L83.91,67.45 L91.72,60.86 C93.09,59.81 94.33,58.91 95.45,58.17 L98.41,55.98 C98.87,55.63 99.23,55.37 99.47,55.18 C99.7,55.02 99.88,54.88 100.01,54.79 C100.15,54.68 100.27,54.59 100.37,54.53 C100.53,54.42 100.69,54.31 100.86,54.21 C100.97,54.15 101.11,54.07 101.28,53.98 C101.43,53.89 101.65,53.78 101.92,53.63 C102.21,53.47 102.64,53.24 103.2,52.94 L106.65,50.99 C108.51,49.95 110.91,48.76 113.87,47.42 C116.83,46.08 119.21,45.11 120.99,44.5 C122.69,43.92 124.38,43.35 126.08,42.78 C127.31,42.45 128.09,42.24 128.42,42.15 C128.66,42.09 128.88,42.03 129.07,41.99 C129.33,41.93 129.83,41.81 130.58,41.63 L132.73,41.04 L134.88,40.61 C135.95,40.4 137.03,40.2 138.1,39.99 C139.5,39.72 140.9,39.46 142.3,39.2 C143.28,39.11 144.26,39.01 145.24,38.91 C146.16,38.81 146.7,38.76 146.86,38.74 C146.98,38.73 147.09,38.72 147.18,38.72 C147.32,38.7 147.7,38.68 148.34,38.64 L150.79,38.42 C151.5,38.36 152.39,38.32 153.45,38.3 C154.45,38.29 155.72,38.29 157.24,38.31 C158.83,38.33 160.88,38.38 163.38,38.45 L163.38,38.45 zM261.84,51.81 L261.83,52.15 C261.82,52.25 261.81,52.38 261.79,52.56 C261.77,52.71 261.74,52.93 261.71,53.22 C261.67,53.53 261.61,53.99 261.53,54.58 L260.84,60.04 C261.83,59.33 262.59,58.8 263.11,58.43 C263.58,58.09 263.95,57.83 264.21,57.65 C264.5,57.44 264.72,57.29 264.87,57.19 C265.12,57.01 265.29,56.9 265.39,56.84 C265.52,56.76 265.67,56.71 265.84,56.7 C266.19,56.66 266.47,56.81 266.69,57.13 C266.9,57.46 266.96,57.82 266.85,58.22 C266.77,58.51 266.5,58.8 266.05,59.11 L258.81,65 C258.47,65.16 258.25,65.09 258.16,64.76 C258.12,64.64 258.11,64.49 258.12,64.32 C258.13,64.2 258.15,63.95 258.19,63.59 C258.21,63.37 258.24,63.06 258.28,62.64 C258.32,62.24 258.37,61.7 258.44,61.03 C258.52,60.28 258.63,59.18 258.77,57.74 C258.77,57.1 258.77,56.73 258.76,56.62 C258.76,56.54 258.75,56.49 258.73,56.45 C258.72,56.41 258.65,56.35 258.55,56.27 C258.46,56.21 258.36,56.2 258.25,56.23 C258.16,56.26 258.03,56.32 257.87,56.43 C257.67,56.56 257.35,56.79 256.89,57.14 C256.36,57.6 255.83,58.06 255.3,58.52 C254.97,58.81 254.71,59 254.51,59.09 C254.35,59.17 254.18,59.2 254.01,59.18 C253.82,59.16 253.56,59.06 253.23,58.9 C253.05,58.79 252.92,58.59 252.85,58.28 C252.79,57.97 252.82,57.68 252.93,57.43 C253.01,57.26 253.1,57.13 253.19,57.03 C253.27,56.95 253.4,56.85 253.57,56.71 C253.79,56.55 254.28,56.2 255.03,55.67 L256.6,54.4 L258.37,53.22 C258.63,53.05 258.8,52.93 258.86,52.87 C258.91,52.84 258.98,52.78 259.06,52.71 C259.17,52.6 259.55,52.23 260.21,51.59 C260.96,50.9 261.43,50.79 261.65,51.25 C261.77,51.52 261.84,51.7 261.84,51.81 L261.84,51.81 zM272.44,65.09 C272.69,65.39 272.81,65.64 272.81,65.86 C272.8,66.4 272.32,66.94 271.37,67.47 C270.88,67.75 270.45,68 270.09,68.22 C269.77,68.42 269.42,68.65 269.04,68.91 C268.61,69.19 268.01,69.61 267.24,70.15 C266.23,70.86 265.47,71.35 264.97,71.64 C264.51,71.89 264.14,72.05 263.86,72.09 C263.55,72.14 263.26,72.07 263,71.89 C262.52,71.54 262.36,71.06 262.53,70.47 C262.57,70.32 262.69,70.18 262.88,70.04 C263.02,69.94 263.3,69.76 263.73,69.48 C263.98,69.32 264.36,69.08 264.85,68.77 C265.3,68.48 265.94,68.08 266.76,67.57 C267.65,67 268.95,66.18 270.67,65.1 C271.15,64.78 271.52,64.63 271.77,64.65 C271.97,64.66 272.19,64.81 272.44,65.09 L272.44,65.09 zM269.24,77.63 C269.46,77.9 269.58,78.21 269.6,78.55 C269.61,78.74 269.6,78.88 269.57,78.96 C269.55,79.03 269.51,79.09 269.44,79.15 C269.37,79.23 269.22,79.34 269,79.49 C268.57,79.83 268.2,79.95 267.9,79.86 C267.64,79.78 267.42,79.58 267.23,79.26 C267.04,78.93 266.97,78.61 267,78.29 C267.02,78.16 267.04,78.08 267.06,78.05 C267.08,78.03 267.12,78 267.17,77.97 C267.25,77.92 267.54,77.77 268.04,77.51 C268.27,77.4 268.4,77.33 268.43,77.31 C268.46,77.3 268.48,77.29 268.49,77.29 C268.5,77.28 268.53,77.28 268.57,77.27 C268.8,77.24 269.03,77.36 269.24,77.63 L269.24,77.63 zM77.64,82.12 L80.67,89.04 C81.83,89.02 82.99,89 84.15,88.99 L89.61,88.94 C90.24,88.97 92.12,88.98 95.26,88.99 C98.41,89 101.78,89 105.38,89 C107.17,89 108.95,89 110.73,89.02 C110.95,89.02 111.28,89.01 111.71,88.99 C112.41,88.95 112.88,88.99 113.12,89.1 C113.32,89.19 113.5,89.36 113.67,89.63 C113.89,89.96 114.28,90.75 114.83,91.99 C115.46,93.21 116.09,94.44 116.72,95.66 L117.69,97.89 C118.28,99.06 118.87,100.23 119.45,101.4 L123.47,109.46 L125.85,113.76 L126.28,115 C126.94,116.4 127.61,117.8 128.27,119.19 L129.82,122.02 L132.27,126.91 L133.28,129.25 L134.51,131.58 C134.78,132.1 134.99,132.49 135.13,132.76 C135.26,133.01 135.36,133.2 135.43,133.34 C135.51,133.49 135.57,133.61 135.62,133.7 C135.7,133.85 135.77,133.98 135.83,134.08 C135.91,134.23 136.14,134.62 136.52,135.25 L138.72,139.62 C139.13,140.45 139.39,140.96 139.48,141.14 C139.54,141.26 139.6,141.4 139.67,141.55 C139.72,141.64 139.77,141.76 139.84,141.91 C139.9,142.05 139.99,142.23 140.1,142.47 C140.22,142.73 140.4,143.11 140.62,143.6 C141.04,144.51 141.3,145.07 141.4,145.27 C141.47,145.42 141.55,145.58 141.65,145.76 C141.71,145.87 141.79,146.01 141.88,146.2 C141.98,146.36 142.1,146.6 142.26,146.89 C142.44,147.21 142.69,147.68 143.02,148.29 C144.09,150.43 145.16,152.56 146.24,154.7 C146.64,155.49 146.95,156.1 147.16,156.52 C147.36,156.9 147.51,157.2 147.62,157.42 C147.75,157.66 147.84,157.85 147.92,158 C148.04,158.24 148.14,158.45 148.24,158.65 C148.29,158.77 148.36,158.92 148.45,159.09 C148.52,159.25 148.62,159.47 148.75,159.74 C148.89,160.03 149.09,160.45 149.35,161 C149.88,162.09 150.41,163.19 150.94,164.28 L155.08,173.31 C155.41,173.9 155.79,174.45 156.24,174.98 L198.93,89.11 C198.96,89.04 199,88.97 199.04,88.9 L231.41,88.97 L234.8,82.12 C234.89,81.87 234.94,81.7 234.95,81.6 C234.96,81.51 234.95,81.44 234.93,81.39 C234.89,81.32 234.81,81.25 234.69,81.16 C234.54,81.05 234.12,80.99 233.46,80.98 C232.98,80.97 232,80.97 230.51,80.97 C229.62,80.97 228.31,80.97 226.58,80.98 C225,80.99 222.79,81 219.93,81.01 C216.81,81.02 212.26,81.04 206.27,81.06 L194.72,81.1 C194.48,81.18 194.28,81.34 194.1,81.57 C193.94,81.77 193.74,82.1 193.51,82.56 C193.23,83.1 192.75,84.09 192.07,85.53 C191.75,86.21 191.55,86.63 191.47,86.8 C191.41,86.92 191.33,87.07 191.23,87.25 C191.18,87.36 191.1,87.5 190.99,87.69 C190.9,87.87 190.77,88.11 190.61,88.41 C190.43,88.74 190.16,89.22 189.82,89.86 C189.32,90.9 188.82,91.95 188.31,92.99 C186.91,95.86 185.5,98.73 184.08,101.6 L181.14,107.16 L179.25,111.3 L175.98,117.53 C174.77,119.97 173.56,122.4 172.35,124.84 C171.83,125.9 171.31,126.96 170.79,128.03 L169.33,131.05 L168.78,132.31 L166.07,137.46 C165.85,137.88 165.71,138.15 165.66,138.25 C165.62,138.32 165.58,138.42 165.53,138.52 C165.46,138.68 165.22,139.2 164.82,140.08 L162.17,145.13 C161.82,145.85 161.47,146.58 161.12,147.3 C160.9,147.75 160.73,148.1 160.61,148.34 C160.5,148.56 160.42,148.73 160.36,148.84 C160.29,148.97 160.24,149.08 160.21,149.15 C160.15,149.27 160.11,149.35 160.08,149.41 C160.05,149.49 160,149.62 159.93,149.81 C159.24,151.61 158.26,153.77 156.99,156.27 L156.54,157.14 C156.44,157.38 156.34,157.6 156.24,157.82 L118.27,81.21 L78.27,80.92 C77.53,81.12 77.32,81.53 77.64,82.12 L77.64,82.12 zM68.87,74.31 C69.26,74.39 69.59,74.45 69.85,74.47 C70.06,74.48 70.36,74.49 70.74,74.49 C71.22,74.49 72.28,74.47 73.9,74.44 L82.92,74.57 L88.17,74.47 L90.75,74.56 C92.8,74.52 94.86,74.48 96.92,74.45 L116.59,74.42 C117.43,74.42 118.31,74.4 119.23,74.36 C120.16,74.33 120.84,74.28 121.28,74.24 C121.3,74.24 121.35,74.23 121.45,74.22 C121.54,74.21 121.65,74.2 121.77,74.19 C121.89,74.18 122,74.16 122.1,74.16 C122.19,74.15 122.25,74.14 122.27,74.14 L123.15,75.6 L123.57,76.58 L129.2,88.57 C129.51,89.15 129.76,89.6 129.93,89.92 C130.08,90.2 130.21,90.44 130.31,90.62 C130.41,90.81 130.5,90.99 130.58,91.13 C130.7,91.37 130.85,91.67 131.03,92.03 C131.14,92.25 131.28,92.55 131.47,92.94 C131.64,93.29 131.87,93.77 132.17,94.38 C132.49,95.05 132.97,96.02 133.6,97.29 L134.88,99.87 C136.09,102.29 137.3,104.72 138.51,107.14 C139.03,108.22 139.54,109.3 140.06,110.37 C140.46,111.21 140.74,111.78 140.9,112.08 C141.02,112.31 141.16,112.58 141.33,112.88 C141.55,113.28 142.08,114.23 142.93,115.72 C143.19,116.18 143.35,116.47 143.42,116.6 C143.46,116.68 143.52,116.8 143.59,116.93 C143.63,117.02 143.69,117.13 143.76,117.28 C143.82,117.41 143.91,117.6 144.03,117.83 C144.15,118.09 144.34,118.47 144.58,118.96 L145.62,121.01 L146.92,123.81 C148.25,126.68 149.33,128.78 150.15,130.11 C150.33,130.39 150.45,130.6 150.52,130.74 C150.57,130.83 150.65,130.99 150.75,131.22 C150.81,131.35 150.9,131.54 151.02,131.79 C151.12,132.02 151.27,132.33 151.45,132.75 C151.66,133.2 151.96,133.85 152.35,134.71 C152.5,135.04 152.6,135.25 152.65,135.35 C152.68,135.41 152.73,135.5 152.79,135.62 C152.83,135.69 152.88,135.78 152.94,135.91 C153.01,136.02 153.09,136.18 153.19,136.37 C153.31,136.59 153.48,136.91 153.71,137.33 L155.33,140.73 C155.51,141.1 155.65,141.37 155.76,141.53 C155.86,141.68 155.95,141.78 156.04,141.84 C156.14,141.9 156.26,141.91 156.4,141.89 C156.51,141.87 156.62,141.81 156.74,141.71 L156.74,141.71 L160.75,133.26 C161.2,132.49 161.64,131.67 162.08,130.81 C162.5,129.99 162.97,129.05 163.47,127.99 C164,126.87 164.64,125.5 165.38,123.86 L165.86,122.95 C166.18,122.35 166.56,121.62 167.01,120.76 C167.46,119.91 167.85,119.17 168.17,118.56 C168.48,117.96 168.65,117.65 168.66,117.63 C168.91,117.17 169.11,116.82 169.25,116.57 C169.37,116.35 169.47,116.17 169.54,116.03 C169.62,115.89 169.69,115.77 169.74,115.68 C169.82,115.52 169.91,115.35 169.99,115.18 C170.04,115.07 170.1,114.94 170.18,114.76 C170.25,114.61 170.35,114.4 170.47,114.12 C170.61,113.83 170.8,113.4 171.06,112.85 C171.15,112.65 171.21,112.52 171.24,112.46 C171.26,112.41 171.29,112.35 171.34,112.27 C171.4,112.16 171.61,111.76 171.99,111.06 L173.31,108.27 L174.73,105.56 C175.62,103.67 176.51,101.78 177.4,99.89 L179.19,96.66 L186.05,82.69 C186.68,81.31 187.32,79.94 187.96,78.57 C189.1,76.14 189.92,74.76 190.42,74.44 C190.58,74.35 190.69,74.3 190.74,74.29 C190.78,74.28 190.82,74.27 190.88,74.27 C190.97,74.27 191.28,74.27 191.8,74.29 C192.47,74.31 193.51,74.32 194.9,74.32 C196.3,74.33 197.82,74.33 199.46,74.32 C201.1,74.31 202.58,74.3 203.91,74.28 C205.23,74.26 206.17,74.24 206.72,74.22 C207.28,74.19 207.71,74.18 208.01,74.19 C208.22,74.19 208.58,74.19 209.08,74.21 C209.39,74.21 209.82,74.22 210.39,74.24 C210.92,74.25 211.65,74.27 212.58,74.29 C213.6,74.32 215.1,74.35 217.06,74.4 C219.77,74.45 222.48,74.51 225.19,74.56 L233.97,74.44 C235.07,74.44 235.92,74.44 236.5,74.45 C237.03,74.45 237.46,74.45 237.76,74.45 C238.09,74.45 238.36,74.45 238.56,74.45 C238.89,74.45 239.19,74.44 239.46,74.44 C239.63,74.43 239.83,74.43 240.07,74.42 C240.3,74.41 240.6,74.4 240.97,74.38 C241.37,74.37 241.95,74.34 242.71,74.31 L245.51,74.18 C245.81,74.14 246.1,74.1 246.4,74.05 L243.82,79.4 L242.57,81.61 C242.08,82.55 241.63,83.38 241.22,84.12 C240.99,84.52 240.86,84.77 240.81,84.88 C240.77,84.95 240.73,85.04 240.69,85.15 C240.63,85.3 240.44,85.84 240.11,86.75 C240.04,86.94 239.94,87.19 239.79,87.49 C239.68,87.74 239.49,88.14 239.22,88.7 C238.89,89.38 238.2,90.79 237.17,92.92 L236.06,95.17 C235.92,95.38 235.76,95.52 235.6,95.6 C235.46,95.66 235.26,95.7 235,95.73 C234.69,95.75 234.13,95.76 233.32,95.76 L230.85,95.96 C230.5,95.99 230.26,96 230.12,96 C230.03,96 229.89,95.99 229.7,95.98 C229.58,95.98 229.42,95.97 229.2,95.96 C229.01,95.94 228.74,95.93 228.39,95.91 C228.01,95.89 227.45,95.85 226.72,95.81 C226.09,95.78 225.67,95.76 225.49,95.76 C225.36,95.75 225.18,95.76 224.96,95.76 C224.83,95.77 224.64,95.77 224.4,95.78 C224.18,95.79 223.88,95.8 223.48,95.81 C223.06,95.83 222.44,95.85 221.62,95.88 C221.6,95.88 221.17,95.89 220.33,95.89 C219.5,95.89 218.5,95.89 217.32,95.9 C216.14,95.9 215.13,95.9 214.27,95.9 C213.41,95.91 212.95,95.91 212.88,95.91 C212.12,95.9 211.65,95.89 211.46,95.89 C211.32,95.88 211.15,95.88 210.95,95.87 C210.83,95.86 210.66,95.85 210.45,95.84 C210.25,95.83 209.98,95.82 209.65,95.8 C209.27,95.78 208.73,95.75 208.02,95.71 C206.98,95.65 206.17,95.63 205.61,95.63 C205.09,95.63 204.68,95.65 204.37,95.7 C204.04,95.76 203.78,95.85 203.58,95.98 C203.36,96.14 203.22,96.26 203.16,96.34 C203.11,96.4 203.05,96.5 202.97,96.63 C202.92,96.72 202.86,96.84 202.77,97 C202.7,97.14 202.59,97.34 202.45,97.59 C202.3,97.88 202.09,98.29 201.8,98.83 C201.11,100.14 200.42,101.46 199.73,102.78 L197.99,105.95 L196.91,108.35 L195.57,110.86 L193.41,115.38 C193.06,116.11 192.79,116.68 192.6,117.07 C192.43,117.42 192.29,117.7 192.18,117.91 C192.07,118.14 191.98,118.33 191.9,118.48 C191.78,118.73 191.64,118.98 191.5,119.25 C191.41,119.41 191.29,119.62 191.15,119.88 C191.02,120.12 190.84,120.45 190.61,120.86 C190.35,121.31 189.99,121.96 189.52,122.81 C189.22,123.34 188.74,124.28 188.08,125.62 C187.42,126.97 187.03,127.82 186.89,128.17 C186.67,128.73 186.5,129.16 186.38,129.47 C186.27,129.74 186.18,129.97 186.11,130.14 C186.03,130.33 185.96,130.5 185.9,130.64 C185.79,130.88 185.65,131.18 185.46,131.55 C185.35,131.77 185.2,132.07 184.99,132.46 C184.81,132.82 184.55,133.31 184.23,133.93 C183.87,134.62 183.35,135.62 182.67,136.92 L180.9,140.56 C180.04,142.1 179.18,143.63 178.33,145.17 L170.36,160.87 C169.79,162.09 169.21,163.31 168.63,164.52 L165.87,170 L163.77,174.46 L160.6,180.55 C160.09,181.67 159.58,182.78 159.06,183.89 C158.76,184.54 158.57,184.95 158.51,185.1 C158.46,185.21 158.41,185.34 158.35,185.5 C158.31,185.59 158.26,185.72 158.2,185.89 C158.15,186.03 158.07,186.24 157.98,186.5 C157.87,186.79 157.72,187.21 157.52,187.75 C157.29,188.38 157.12,188.8 157.01,189.02 C156.93,189.2 156.84,189.32 156.76,189.38 C156.66,189.46 156.52,189.49 156.33,189.48 C156.12,189.47 155.99,189.44 155.91,189.4 C155.84,189.37 155.78,189.32 155.73,189.24 C155.66,189.14 155.54,188.94 155.38,188.63 C155.04,187.82 154.71,187 154.37,186.19 L150.1,177.7 L148.95,175.25 L144.7,167.04 C144.48,166.62 144.35,166.35 144.3,166.25 C144.26,166.17 144.22,166.07 144.17,165.95 C144.14,165.88 144.09,165.78 144.04,165.65 C144,165.54 143.93,165.38 143.84,165.17 C143.75,164.95 143.62,164.62 143.44,164.19 C143.17,163.55 142.71,162.56 142.05,161.24 C141.39,159.92 140.66,158.53 139.88,157.08 C139.87,157.05 139.65,156.63 139.23,155.8 C138.81,154.97 138.3,153.98 137.7,152.82 C137.11,151.66 136.6,150.66 136.18,149.84 C135.76,149.02 135.55,148.6 135.54,148.57 L132.99,142.9 L129.01,135.42 C128.77,134.95 128.61,134.66 128.56,134.54 C128.52,134.46 128.48,134.36 128.43,134.24 C128.4,134.16 128.36,134.06 128.31,133.93 C128.26,133.81 128.2,133.64 128.12,133.43 C128.04,133.21 127.91,132.87 127.74,132.44 C127.54,131.91 127.39,131.55 127.3,131.37 C127.23,131.23 127.13,131.04 126.98,130.78 C126.9,130.63 126.77,130.42 126.62,130.16 C126.47,129.91 126.27,129.57 126.02,129.14 C125.74,128.67 125.35,128 124.83,127.13 C124.59,126.71 124.44,126.45 124.38,126.34 C124.34,126.26 124.29,126.15 124.23,126.02 C124.2,125.94 124.15,125.83 124.09,125.69 C124.03,125.56 123.95,125.38 123.86,125.15 C123.75,124.91 123.59,124.54 123.39,124.07 C123.37,124.04 123.15,123.57 122.71,122.65 C122.27,121.73 121.74,120.61 121.12,119.31 C120.49,118 119.95,116.87 119.5,115.92 C119.05,114.99 118.81,114.49 118.78,114.42 L116.67,109.98 L110.26,97.61 C109.89,96.91 109.65,96.47 109.53,96.29 C109.43,96.15 109.33,96.05 109.23,95.99 C109.11,95.91 108.85,95.85 108.46,95.79 L85.99,95.83 L84.07,95.88 L80.59,95.8 C79.85,95.78 79.29,95.77 78.9,95.76 C78.55,95.75 78.27,95.75 78.08,95.74 C77.86,95.74 77.7,95.73 77.59,95.72 C77.39,95.71 77.26,95.69 77.18,95.66 C77.07,95.62 76.9,95.46 76.68,95.18 C76.59,95.07 76.52,94.95 76.45,94.81 C76.41,94.72 76.32,94.54 76.2,94.27 C76.13,94.11 76.02,93.87 75.88,93.56 C75.75,93.28 75.57,92.89 75.34,92.38 C75.09,91.82 74.72,91.01 74.23,89.94 C73.85,89.1 73.58,88.53 73.44,88.24 C73.32,88.01 73.19,87.76 73.03,87.46 C72.82,87.08 72.3,86.16 71.47,84.7 L70.06,81.88 L68.23,78.69 C68.12,78.5 68.05,78.37 68.01,78.3 C67.99,78.26 67.95,78.18 67.91,78.08 C67.84,77.94 67.59,77.43 67.17,76.55 C67.02,76.23 66.86,75.92 66.68,75.61 C66.29,74.91 66.31,74.43 66.73,74.19 C66.88,74.1 67.03,74.05 67.18,74.03 C67.3,74.02 67.47,74.03 67.68,74.06 C67.92,74.1 68.32,74.18 68.87,74.31 L68.87,74.31 zM94.08,103.48 C95.61,103.48 97.84,103.48 100.78,103.48 C102.22,103.48 103.14,103.49 103.54,103.5 C103.85,103.51 104.08,103.54 104.23,103.57 C104.41,103.61 104.59,103.71 104.76,103.87 C104.8,103.91 104.84,103.96 104.87,104.01 C104.88,104.04 104.92,104.11 104.97,104.21 C105,104.27 105.04,104.36 105.1,104.47 C105.15,104.58 105.22,104.73 105.31,104.92 C105.41,105.13 105.55,105.43 105.74,105.83 C105.77,105.88 105.98,106.32 106.39,107.15 C106.8,108 107.3,109.01 107.87,110.18 C108.45,111.36 108.94,112.36 109.35,113.19 C109.75,114.02 109.96,114.44 109.98,114.47 L111.72,117.74 C112.35,119.08 112.98,120.42 113.62,121.77 C114.7,123.94 115.79,126.11 116.88,128.28 L118.1,130.89 C118.44,131.61 118.7,132.17 118.89,132.57 C119.07,132.94 119.21,133.23 119.32,133.45 C119.43,133.69 119.53,133.88 119.6,134.02 C119.72,134.27 119.82,134.48 119.91,134.64 C120.02,134.85 120.28,135.28 120.66,135.93 L124.44,143.76 C124.72,144.45 124.92,144.92 125.05,145.19 C125.14,145.39 125.28,145.65 125.45,146 C125.55,146.18 125.68,146.43 125.84,146.74 C126,147.03 126.2,147.41 126.45,147.89 C126.72,148.4 127.09,149.1 127.56,149.99 C127.83,150.53 128.1,151.08 128.37,151.62 C128.59,152.08 128.74,152.37 128.81,152.48 C128.85,152.57 128.91,152.67 128.99,152.8 C129.04,152.88 129.1,152.99 129.19,153.13 C129.26,153.25 129.37,153.43 129.51,153.65 C129.66,153.9 129.87,154.25 130.16,154.72 C130.36,155.04 130.48,155.25 130.53,155.34 C130.56,155.41 130.61,155.5 130.66,155.62 C130.69,155.69 130.73,155.78 130.78,155.91 C130.84,156.02 130.9,156.18 130.99,156.38 C131.08,156.6 131.22,156.92 131.4,157.34 C132.52,159.61 133.64,161.87 134.75,164.13 C135.03,164.7 135.24,165.13 135.38,165.43 C135.52,165.71 135.63,165.93 135.71,166.1 C135.8,166.28 135.87,166.44 135.93,166.56 C136.04,166.77 136.16,167 136.3,167.26 C136.38,167.42 136.49,167.63 136.64,167.9 C136.77,168.14 136.95,168.48 137.18,168.9 C137.43,169.36 137.79,170.04 138.26,170.92 L140.27,175.07 C141.22,176.87 142.17,178.68 143.12,180.48 C143.27,180.79 143.37,180.98 143.42,181.07 C143.45,181.14 143.48,181.23 143.53,181.35 C143.56,181.43 143.6,181.53 143.65,181.66 C143.7,181.77 143.76,181.94 143.85,182.15 C143.94,182.38 144.07,182.72 144.25,183.16 C144.43,183.62 144.55,183.91 144.61,184.05 C144.66,184.14 144.72,184.28 144.81,184.45 C144.86,184.55 144.94,184.7 145.04,184.88 C145.13,185.05 145.25,185.29 145.41,185.6 C145.58,185.93 145.84,186.41 146.17,187.05 C146.58,187.88 147,188.71 147.41,189.54 L148.74,192.06 C148.84,192.26 148.97,192.53 149.12,192.85 C149.34,193.32 149.47,193.62 149.52,193.72 C149.56,193.8 149.61,193.88 149.66,193.98 C149.74,194.12 150.01,194.57 150.47,195.35 L153.22,200.87 L146.46,201.02 C146.23,200.97 146.03,200.88 145.87,200.73 C145.74,200.61 145.58,200.4 145.39,200.12 C145.17,199.78 144.81,199.17 144.31,198.29 L140.85,191.07 L139.46,188.36 C138.84,187.15 138.37,186.21 138.04,185.55 C137.74,184.95 137.49,184.44 137.29,184.03 C137.07,183.57 136.86,183.12 136.66,182.68 C136.1,181.69 135.55,180.7 135,179.7 C133.99,177.85 133.06,175.99 132.23,174.12 C131.55,172.75 130.86,171.38 130.19,170.01 L127.94,165.43 C127.75,164.98 127.63,164.69 127.57,164.57 C127.53,164.49 127.48,164.38 127.41,164.25 C127.37,164.17 127.32,164.06 127.24,163.92 C127.18,163.8 127.08,163.62 126.97,163.4 C126.84,163.15 126.65,162.8 126.4,162.33 L122.54,154.36 L120.98,151.55 C120.69,151.01 120.5,150.66 120.41,150.5 C120.36,150.38 120.28,150.22 120.18,150.01 C120.12,149.88 120.04,149.7 119.94,149.48 C119.85,149.27 119.72,148.98 119.55,148.61 C119.37,148.2 119.1,147.61 118.75,146.84 C118.52,146.34 118.29,145.84 118.04,145.35 C117.82,144.91 117.55,144.38 117.23,143.78 C116.88,143.13 116.41,142.25 115.81,141.16 C115.5,140.49 115.18,139.82 114.86,139.15 C114.34,138.2 113.83,137.26 113.32,136.31 L112.15,133.66 C111.88,133.04 111.71,132.67 111.64,132.52 C111.59,132.42 111.52,132.29 111.45,132.15 C111.4,132.06 111.33,131.94 111.25,131.79 C111.18,131.66 111.07,131.47 110.94,131.23 C110.79,130.97 110.58,130.59 110.3,130.09 C110.24,129.97 110.19,129.89 110.17,129.84 C110.15,129.8 110.13,129.75 110.09,129.67 C110.04,129.56 109.85,129.15 109.52,128.44 L101.41,112.24 C101.09,111.45 100.88,110.97 100.78,110.8 C100.71,110.67 100.63,110.58 100.53,110.53 C100.41,110.46 100.1,110.38 99.61,110.3 C98.87,110.19 97.91,110.14 96.73,110.14 C95.56,110.13 94.5,110.18 93.54,110.28 L93.53,110.29 L91.76,110.48 L137.28,201.35 L129.79,201.24 C129.33,200.41 129.05,199.9 128.95,199.72 C128.88,199.59 128.81,199.45 128.73,199.29 C128.69,199.19 128.63,199.06 128.55,198.9 C128.48,198.75 128.38,198.55 128.26,198.29 C128.13,198 127.94,197.59 127.69,197.06 C126.72,194.99 125.71,192.99 124.66,191.06 L122.76,187.32 C122.07,186.04 121.37,184.76 120.68,183.48 L119.47,180.94 C119.38,180.75 119.31,180.62 119.28,180.56 C119.25,180.51 119.21,180.44 119.16,180.35 C119.08,180.22 118.79,179.74 118.3,178.91 C118.13,178.62 118.02,178.43 117.97,178.33 C117.94,178.26 117.89,178.15 117.82,178.01 C117.78,177.93 117.73,177.81 117.66,177.65 C117.6,177.52 117.51,177.32 117.4,177.06 C117.28,176.78 117.1,176.38 116.86,175.86 L114.22,170.53 C113.15,168.38 112.08,166.24 111.01,164.1 C110.52,163.03 110.15,162.22 109.9,161.66 C109.66,161.14 109.48,160.74 109.34,160.45 C109.2,160.13 109.08,159.88 109,159.7 C108.86,159.4 108.73,159.15 108.63,158.94 C108.56,158.82 108.48,158.68 108.39,158.51 C108.31,158.36 108.2,158.16 108.06,157.92 C107.91,157.65 107.69,157.27 107.41,156.77 C106.69,155.26 105.97,153.76 105.24,152.25 C104.72,151.27 104.2,150.28 103.67,149.29 L102.6,146.93 L100.77,143.61 C100.46,143.05 100.27,142.7 100.2,142.56 C100.15,142.46 100.09,142.34 100.02,142.19 C99.98,142.1 99.92,141.98 99.85,141.83 C99.78,141.68 99.69,141.49 99.58,141.24 C99.45,140.97 99.27,140.58 99.03,140.06 L97.82,137.81 L96.12,133.99 L94.97,131.79 L94.24,130.22 C94.16,130.07 94.11,129.96 94.07,129.89 C94.05,129.85 94.01,129.78 93.96,129.69 C93.88,129.55 93.61,129.07 93.13,128.23 L91.88,125.76 C91.61,125.29 91.35,124.82 91.09,124.35 C90.95,124.11 90.87,123.94 90.82,123.85 C90.79,123.78 90.75,123.69 90.7,123.56 C90.67,123.48 90.63,123.37 90.57,123.23 C90.52,123.09 90.45,122.91 90.35,122.68 C90.25,122.42 90.1,122.05 89.91,121.56 C89.77,121.21 89.67,120.97 89.61,120.84 C89.57,120.74 89.49,120.59 89.39,120.39 C89.33,120.26 89.24,120.09 89.13,119.86 C89.03,119.66 88.88,119.37 88.69,119 C88.49,118.6 88.19,118.01 87.81,117.23 C87.04,115.68 86.28,114.13 85.52,112.57 C85.07,111.77 84.63,110.97 84.19,110.17 C83.83,109.46 83.47,108.75 83.11,108.03 C82.93,107.66 82.75,107.34 82.59,107.06 C82.45,106.82 82.28,106.54 82.09,106.24 C81.87,105.89 81.55,105.4 81.12,104.76 C80.71,104.12 80.68,103.66 81.02,103.4 C81.24,103.23 82.2,103.15 83.91,103.16 C84.1,103.16 84.23,103.17 84.29,103.17 L84.51,103.2 C84.65,103.21 85.16,103.27 86.02,103.37 C86.51,103.43 86.95,103.46 87.34,103.47 C87.62,103.47 88.13,103.47 88.87,103.48 C89.32,103.48 89.96,103.48 90.81,103.48 C91.59,103.48 92.68,103.48 94.08,103.48 L94.08,103.48 zM68.16,90.86 C68.59,91.71 68.87,92.34 69.02,92.73 C69.14,93.06 69.21,93.34 69.21,93.55 C69.22,93.8 69.14,94.05 68.98,94.31 C68.77,94.66 68.53,95.08 68.27,95.58 C68.03,96.02 67.72,96.64 67.32,97.43 C66.86,98.33 66.15,99.76 65.19,101.71 C64.86,102.37 64.65,102.81 64.56,103.02 C64.5,103.17 64.42,103.36 64.34,103.59 C64.3,103.71 64.24,103.89 64.16,104.1 C64.09,104.29 64,104.56 63.89,104.89 C63.76,105.24 63.59,105.73 63.38,106.36 L62.32,108.99 C61.93,109.96 61.67,110.63 61.54,111 C61.45,111.28 61.35,111.59 61.26,111.93 C61.15,112.36 60.93,113.26 60.6,114.62 C59.9,117.56 59.2,120.5 58.5,123.44 L57.7,128.18 C57.61,128.52 57.55,128.74 57.54,128.84 C57.52,128.91 57.51,129.01 57.5,129.13 C57.49,129.21 57.48,129.31 57.46,129.44 C57.45,129.57 57.43,129.74 57.41,129.96 C57.39,130.2 57.35,130.54 57.31,131 C57.12,132.92 56.94,134.85 56.75,136.77 C56.55,140.06 56.55,143.09 56.77,145.85 C56.86,146.96 56.91,148.12 56.94,149.34 C56.95,149.95 56.96,150.33 56.97,150.48 C56.97,150.59 56.98,150.72 57,150.87 C57.01,150.97 57.02,151.1 57.04,151.27 C57.05,151.42 57.08,151.63 57.1,151.9 C57.14,152.19 57.18,152.61 57.24,153.17 C57.28,153.68 57.33,154.2 57.37,154.71 C57.4,155.01 57.42,155.22 57.44,155.35 C57.46,155.44 57.48,155.59 57.52,155.79 C57.55,155.91 57.58,156.09 57.63,156.31 C57.67,156.52 57.72,156.81 57.8,157.18 C57.88,157.58 57.99,158.17 58.15,158.95 C58.38,160.39 58.62,161.82 58.86,163.25 C58.97,163.89 59.04,164.28 59.07,164.44 C59.1,164.55 59.13,164.69 59.18,164.86 C59.21,164.96 59.26,165.1 59.31,165.28 C59.36,165.44 59.43,165.67 59.52,165.96 C59.61,166.27 59.75,166.73 59.94,167.33 L60.57,169.91 C60.89,171.2 61.69,173.58 62.98,177.04 L63.73,179.34 C63.83,179.64 63.9,179.84 63.93,179.93 C63.96,179.99 64,180.08 64.06,180.2 C64.09,180.26 64.14,180.36 64.2,180.48 C64.25,180.6 64.33,180.75 64.43,180.95 C64.54,181.17 64.7,181.49 64.91,181.91 C65.51,183.28 66.11,184.65 66.71,186.02 C67.13,186.97 67.56,187.87 68.01,188.71 C68.41,189.47 68.91,190.36 69.51,191.37 C70.18,192.49 71.14,194.04 72.39,196.03 C72.66,196.46 72.82,196.73 72.89,196.82 C72.94,196.89 72.99,196.97 73.06,197.05 C73.16,197.17 73.48,197.57 74.04,198.25 C74.4,198.73 74.77,199.22 75.14,199.71 L76,200.78 L77.26,202.6 L77.75,203.27 C78.33,204.05 78.51,204.52 78.29,204.67 C78.2,204.73 78.14,204.77 78.11,204.78 C78.09,204.78 78.05,204.79 78,204.79 C77.93,204.79 77.68,204.79 77.25,204.79 L75.3,204.93 C74.89,204.95 74.6,204.95 74.45,204.92 C74.32,204.9 74.21,204.86 74.12,204.79 C74,204.71 73.85,204.53 73.66,204.27 L72.74,203.26 C72.3,202.77 71.68,202 70.88,200.93 C70.07,199.86 69.54,199.09 69.26,198.62 C68.78,197.81 68.41,197.18 68.16,196.75 C67.93,196.36 67.75,196.05 67.62,195.83 C67.48,195.58 67.37,195.39 67.29,195.25 C67.15,195.02 67.04,194.82 66.96,194.67 C66.83,194.44 66.54,193.88 66.06,192.98 C65.42,191.86 64.79,190.73 64.16,189.61 C63.49,188.43 62.6,186.56 61.49,184.02 C60.37,181.48 59.6,179.56 59.16,178.27 C58.89,177.39 58.62,176.52 58.35,175.65 L57.38,172.87 C57.11,172.11 56.95,171.64 56.89,171.44 C56.85,171.3 56.8,171.11 56.74,170.89 C56.71,170.76 56.66,170.57 56.6,170.33 C56.55,170.11 56.48,169.81 56.39,169.43 C56.29,169.01 56.14,168.39 55.95,167.59 C55.9,167.41 55.87,167.3 55.86,167.24 C55.85,167.2 55.83,167.15 55.81,167.08 C55.78,166.98 55.66,166.62 55.46,166 C55.35,165.67 55.28,165.43 55.24,165.27 C55.22,165.16 55.18,164.98 55.13,164.74 C55.11,164.59 55.06,164.37 55.01,164.09 C54.97,163.84 54.9,163.48 54.81,163.02 C54.72,162.52 54.58,161.78 54.41,160.82 L54,158.88 C53.81,157.99 53.67,157.3 53.57,156.82 C53.48,156.38 53.41,156.04 53.36,155.78 C53.31,155.49 53.27,155.25 53.24,155.07 C53.19,154.75 53.15,154.42 53.13,154.06 C53.11,153.84 53.1,153.56 53.08,153.2 C53.06,152.87 53.05,152.43 53.02,151.86 C53,151.24 52.96,150.35 52.92,149.17 C52.86,147.62 52.8,146.07 52.73,144.51 C52.81,142.37 52.81,140.17 52.72,137.93 C52.7,137.27 52.69,136.75 52.71,136.37 C52.72,136.07 52.75,135.65 52.8,135.1 C52.82,134.82 52.85,134.47 52.89,134.04 C52.93,133.64 52.98,133.12 53.04,132.49 C53.1,131.83 53.18,130.97 53.28,129.9 C53.33,129.19 53.38,128.48 53.43,127.77 C53.51,126.76 53.64,125.71 53.83,124.62 C54.02,123.58 54.26,122.43 54.58,121.16 C54.9,119.85 55.33,118.3 55.84,116.54 C56.12,115.53 56.39,114.52 56.67,113.51 C57.01,112.27 57.29,111.26 57.51,110.47 C57.72,109.73 57.9,109.1 58.05,108.6 C58.2,108.07 58.34,107.62 58.46,107.24 C58.69,106.49 58.93,105.78 59.19,105.11 C59.32,104.78 59.47,104.39 59.65,103.95 C59.82,103.54 60.03,103.03 60.28,102.44 C60.54,101.81 60.88,101.01 61.3,100.04 C61.95,98.67 62.6,97.3 63.25,95.93 C63.6,95.19 63.81,94.75 63.88,94.61 C63.93,94.51 63.97,94.42 64.02,94.34 C64.09,94.22 64.29,93.88 64.64,93.31 C64.82,93 64.94,92.8 64.99,92.72 C65.02,92.66 65.06,92.59 65.11,92.5 C65.17,92.37 65.4,91.92 65.79,91.15 C65.92,90.88 66.01,90.72 66.06,90.64 C66.09,90.59 66.14,90.51 66.21,90.42 C66.3,90.29 66.65,89.82 67.24,89.03 C67.55,89.63 67.86,90.24 68.16,90.86 L68.16,90.86 zM93.61,225.88 C93.69,226 93.76,226.18 93.79,226.43 C93.84,226.76 93.88,227.58 93.92,228.89 C93.94,229.39 93.95,229.77 93.95,230.03 C93.96,230.27 93.96,230.46 93.97,230.59 C93.97,230.73 93.97,230.84 93.97,230.92 C93.97,231.05 93.96,231.14 93.94,231.2 C93.91,231.28 93.8,231.4 93.61,231.58 C93.51,231.67 93.23,231.75 92.79,231.8 C92.47,231.84 91.82,231.9 90.83,231.98 C90.25,232.03 89.42,232.1 88.33,232.19 C87.35,232.27 85.97,232.39 84.17,232.54 C82.24,232.69 79.46,232.92 75.84,233.22 L72.75,233.48 C72.66,232.31 72.59,231.42 72.54,230.81 C72.49,230.25 72.46,229.81 72.43,229.5 C72.41,229.17 72.39,228.91 72.38,228.73 C72.36,228.43 72.35,228.23 72.35,228.12 C72.35,227.96 72.4,227.77 72.5,227.56 C72.58,227.39 72.72,227.26 72.93,227.17 C73.12,227.08 73.39,227.02 73.76,226.97 C74.15,226.92 74.73,226.88 75.49,226.85 L84.52,226.24 L90.1,225.6 L91.22,225.44 C91.9,225.35 92.4,225.34 92.74,225.41 C93.21,225.58 93.5,225.73 93.61,225.88 L93.61,225.88 zM90.75,238.35 C90.94,238.52 91.05,238.63 91.07,238.67 C91.09,238.7 91.11,238.74 91.12,238.78 C91.13,238.84 91.16,239.06 91.2,239.42 C91.34,240.48 91.49,241.54 91.63,242.61 C91.67,243.04 91.67,243.37 91.63,243.59 C91.59,243.79 91.5,243.93 91.38,244.04 C91.24,244.15 91.02,244.22 90.71,244.27 C85.61,244.78 80.51,245.3 75.41,245.82 C75.09,245.84 74.86,245.84 74.72,245.84 C74.6,245.83 74.5,245.82 74.44,245.79 C74.36,245.77 74.28,245.71 74.21,245.63 C74.04,245.45 73.94,245.29 73.9,245.14 C73.87,245.03 73.85,244.84 73.83,244.58 C73.82,244.44 73.81,244.25 73.79,244.01 C73.78,243.79 73.76,243.5 73.74,243.13 C73.72,242.74 73.7,242.21 73.66,241.55 C73.63,240.96 73.63,240.54 73.65,240.31 C73.66,240.11 73.7,239.97 73.76,239.87 C73.82,239.76 73.95,239.68 74.14,239.63 C74.51,239.55 74.97,239.53 75.52,239.58 L90.34,238.22 C90.51,238.25 90.65,238.29 90.75,238.35 L90.75,238.35 zM95.64,251.07 C95.88,251.19 96.03,251.31 96.09,251.41 C96.15,251.5 96.19,251.63 96.21,251.81 C96.24,252.05 96.28,252.6 96.33,253.46 C96.4,254.86 96.43,255.71 96.43,256.03 C96.43,256.27 96.41,256.44 96.38,256.54 C96.34,256.67 96.2,256.81 95.97,256.96 C95.81,257.06 95.54,257.14 95.16,257.19 C94.9,257.23 94.36,257.29 93.54,257.38 C93.05,257.44 92.34,257.51 91.4,257.61 C90.55,257.71 89.34,257.84 87.78,258 C86.08,258.19 83.59,258.45 80.33,258.8 C79.56,258.89 78.97,258.95 78.57,258.99 C78.21,259.03 77.93,259.06 77.71,259.08 C77.49,259.11 77.31,259.13 77.19,259.14 C76.99,259.16 76.85,259.18 76.75,259.19 C76.62,259.21 76.39,259.25 76.06,259.3 C75.54,259.38 75.22,259.19 75.1,258.74 C75.09,258.69 75.06,258.44 75.01,257.99 C74.97,257.54 74.92,257 74.86,256.38 C74.8,255.76 74.75,255.21 74.72,254.73 C74.68,254.26 74.66,253.98 74.66,253.91 C74.69,253.27 74.93,252.9 75.39,252.8 C76.14,252.78 76.88,252.76 77.63,252.74 L87.16,252.02 L89.79,251.65 C90.49,251.58 90.92,251.54 91.08,251.53 C91.19,251.51 91.31,251.5 91.45,251.48 C91.54,251.46 91.65,251.44 91.79,251.42 C91.93,251.4 92.11,251.37 92.33,251.33 C92.58,251.29 92.94,251.23 93.41,251.16 C93.95,251.07 94.35,251.01 94.61,250.99 C94.85,250.96 95.03,250.96 95.18,250.97 C95.34,250.98 95.49,251.01 95.64,251.07 L95.64,251.07 zM48.16,242.43 C48.04,242.93 47.94,243.31 47.87,243.58 C47.81,243.82 47.76,244.02 47.72,244.16 C47.68,244.32 47.64,244.45 47.61,244.55 C47.57,244.72 47.51,244.9 47.45,245.1 C47.42,245.21 47.37,245.37 47.31,245.56 C47.25,245.73 47.18,245.97 47.08,246.28 C46.98,246.61 46.82,247.09 46.62,247.71 L43.87,257.43 L43.63,259.14 C43.6,259.39 43.57,259.55 43.56,259.63 C43.55,259.68 43.53,259.76 43.5,259.85 C43.47,259.99 43.35,260.48 43.13,261.32 L42.72,262.95 C42.5,263.4 42.06,263.63 41.4,263.64 C41.19,263.63 41.03,263.59 40.91,263.53 C40.81,263.47 40.71,263.37 40.59,263.24 C40.45,263.07 40.23,262.76 39.93,262.3 C33.85,253.07 27.76,243.84 21.68,234.6 C22.16,234.41 22.46,234.29 22.59,234.26 C22.68,234.23 22.8,234.2 22.94,234.17 C23.03,234.16 23.16,234.13 23.31,234.11 C23.46,234.08 23.66,234.05 23.91,234.01 C24.19,233.96 24.59,233.89 25.12,233.81 L27.31,233.37 C27.7,233.3 28.03,233.32 28.28,233.42 C28.51,233.5 28.74,233.68 28.96,233.94 C29.21,234.23 29.51,234.69 29.87,235.34 C30.57,236.63 31.27,237.81 31.96,238.9 L35.76,244.87 C36.25,245.75 36.54,246.26 36.62,246.42 C36.68,246.53 36.73,246.62 36.77,246.7 C36.83,246.82 36.98,247.13 37.23,247.64 C37.32,247.83 37.41,248 37.49,248.15 C38.25,249.41 38.85,250 39.3,249.92 C39.66,249.85 39.93,249.51 40.1,248.91 C41.81,242.78 43.53,236.65 45.25,230.53 L51.97,229.92 L49.49,238.1 C48.97,239.57 48.53,241.02 48.16,242.43 L48.16,242.43 zM149.56,223.39 C152.07,228.94 154.58,234.49 157.09,240.04 C157.38,240.59 157.69,240.88 158,240.91 C158.41,240.95 158.84,240.44 159.29,239.4 C161.66,233.91 164.03,228.43 166.39,222.94 C168.69,222.97 170.99,223 173.29,223.03 L159.03,254.56 C158.9,254.72 158.8,254.82 158.72,254.87 C158.65,254.91 158.56,254.93 158.45,254.94 C158.31,254.96 158.03,254.95 157.62,254.93 C157.4,254.92 157.23,254.86 157.11,254.76 C157.01,254.69 156.9,254.55 156.79,254.35 C156.65,254.11 156.42,253.65 156.1,252.96 C155.73,252.16 155.51,251.67 155.44,251.5 C155.38,251.37 155.33,251.24 155.28,251.08 C155.25,250.99 155.21,250.87 155.16,250.72 C155.11,250.58 155.04,250.38 154.96,250.14 C154.88,249.87 154.75,249.48 154.59,248.98 C154.49,248.68 154.42,248.48 154.38,248.38 C154.35,248.3 154.3,248.2 154.23,248.05 C154.19,247.97 154.14,247.84 154.06,247.69 C154,247.54 153.9,247.34 153.78,247.08 C153.65,246.8 153.46,246.39 153.21,245.85 C152.92,245.19 152.64,244.53 152.36,243.88 C151.64,242.45 150.91,241.03 150.19,239.6 C150.18,239.58 149.98,239.14 149.59,238.27 C149.19,237.39 148.71,236.33 148.15,235.1 C147.59,233.86 147.11,232.81 146.71,231.93 C146.32,231.06 146.12,230.62 146.11,230.58 C145.87,230.03 145.72,229.69 145.66,229.55 C145.62,229.46 145.56,229.34 145.49,229.2 C145.45,229.12 145.39,229 145.32,228.86 C145.25,228.72 145.16,228.54 145.04,228.3 C144.91,228.04 144.72,227.66 144.47,227.17 C144.1,226.31 143.74,225.44 143.37,224.58 L142.47,222.81 L148.27,222.84 C148.88,222.75 149.31,222.94 149.56,223.39 L149.56,223.39 zM139.03,203.65 C139.32,203.66 139.72,203.67 140.24,203.69 C140.8,203.71 141.62,203.73 142.7,203.77 C145.79,203.86 149.46,203.83 153.73,203.67 L156.31,203.77 L159.14,203.71 L162.34,203.79 L168.26,203.68 C169.53,203.65 170.63,203.65 171.55,203.66 C172.33,203.68 173.29,203.71 174.43,203.76 C175.77,203.81 178.04,203.92 181.23,204.09 C181.94,204.12 182.41,204.14 182.62,204.15 C182.78,204.15 182.99,204.16 183.26,204.16 C183.43,204.16 183.66,204.16 183.96,204.17 C184.23,204.17 184.61,204.17 185.09,204.17 C185.62,204.18 186.39,204.18 187.41,204.19 C188.11,204.19 188.92,204.21 189.84,204.24 C190.73,204.28 191.79,204.33 193.03,204.39 C194.32,204.46 195.92,204.56 197.83,204.67 C198.78,204.76 199.73,204.85 200.68,204.94 L205.55,205.17 L209.92,205.58 L214.61,205.78 L219.48,206.31 L223.47,206.41 C224.38,206.43 224.95,206.45 225.18,206.47 C225.34,206.48 225.55,206.5 225.81,206.54 C225.96,206.56 226.17,206.59 226.44,206.62 C226.68,206.66 227.02,206.71 227.46,206.77 C227.93,206.83 228.62,206.93 229.53,207.06 C229.81,207.1 230,207.12 230.09,207.13 C230.15,207.14 230.24,207.15 230.36,207.15 C230.53,207.17 231.13,207.21 232.17,207.27 L235.55,207.6 C235.58,207.6 235.92,207.64 236.57,207.7 C237.23,207.77 238,207.84 238.91,207.94 C239.81,208.03 240.58,208.1 241.21,208.17 C241.85,208.23 242.17,208.27 242.18,208.27 C242.72,208.34 243.06,208.39 243.21,208.4 C243.31,208.42 243.45,208.43 243.63,208.45 C243.74,208.46 243.88,208.47 244.07,208.49 C244.25,208.5 244.49,208.53 244.8,208.55 C245.14,208.58 245.63,208.63 246.28,208.68 C249.64,209.14 253.01,209.6 256.37,210.06 L263.01,210.7 L265.08,210.95 C266.13,211.08 266.77,211.16 266.99,211.19 C267.15,211.21 267.31,211.24 267.49,211.28 C267.6,211.3 267.74,211.33 267.92,211.37 C268.08,211.4 268.31,211.45 268.59,211.51 C268.9,211.58 269.34,211.67 269.92,211.8 C270.8,211.99 271.35,212.1 271.55,212.14 C271.7,212.16 271.87,212.19 272.06,212.21 C272.18,212.23 272.34,212.25 272.54,212.27 C272.72,212.29 272.98,212.32 273.3,212.36 C273.65,212.4 274.17,212.46 274.84,212.53 C276.16,212.72 277.49,212.9 278.81,213.08 C280,213.24 281.18,213.43 282.33,213.64 C282.85,213.73 283.17,213.79 283.31,213.81 C283.4,213.83 283.52,213.85 283.67,213.87 C283.76,213.88 283.88,213.9 284.03,213.92 C284.17,213.94 284.37,213.96 284.62,214 C284.9,214.03 285.29,214.09 285.81,214.16 L289.06,214.77 C291.23,215.1 293.39,215.43 295.56,215.76 L298.05,216.32 L311.14,218.9 C311.46,218.96 311.64,218.99 311.7,219.01 C311.73,219.01 311.76,219.02 311.78,219.03 C311.81,219.04 311.87,219.08 311.95,219.13 C312.21,219.28 312.36,219.59 312.39,220.06 C312.43,220.53 312.33,220.88 312.09,221.11 C311.83,221.38 311.37,221.43 310.71,221.27 C310.18,221.2 309.65,221.14 309.12,221.07 C307.83,220.76 306.55,220.46 305.26,220.16 L302.29,219.53 C301.39,219.34 300.76,219.21 300.41,219.14 C300.15,219.09 299.78,219.02 299.31,218.94 C299.04,218.89 298.67,218.83 298.21,218.75 C297.77,218.68 297.19,218.58 296.46,218.46 C295.68,218.32 294.58,218.13 293.17,217.88 L289.21,217.17 C288.49,217.04 287.93,216.95 287.51,216.87 C287.12,216.8 286.8,216.75 286.56,216.71 C286.3,216.67 286.08,216.63 285.92,216.6 C285.61,216.56 285.35,216.52 285.14,216.5 C284.85,216.48 284.28,216.45 283.43,216.42 C283.15,216.4 282.94,216.39 282.81,216.37 C282.71,216.36 282.56,216.34 282.34,216.3 C282.21,216.28 282.02,216.25 281.78,216.21 C281.55,216.18 281.24,216.13 280.85,216.06 C280.41,215.99 279.77,215.89 278.94,215.76 L273.37,214.88 C272.73,214.81 272.27,214.75 271.99,214.7 C271.79,214.67 271.49,214.61 271.09,214.53 C270.86,214.49 270.55,214.42 270.15,214.34 C269.79,214.26 269.29,214.16 268.66,214.03 C267.99,213.89 267.04,213.69 265.82,213.44 C265.47,213.36 265.24,213.32 265.11,213.3 C265.02,213.29 264.87,213.27 264.68,213.25 C264.57,213.23 264.4,213.22 264.19,213.19 C264,213.17 263.73,213.14 263.38,213.1 C263,213.06 262.45,213 261.72,212.92 L259.61,212.59 L255.04,212.14 C254.52,212.08 254.12,212.04 253.85,212.01 C253.6,211.99 253.4,211.97 253.26,211.95 C253.1,211.93 252.97,211.92 252.88,211.91 C252.72,211.9 252.58,211.89 252.45,211.88 C252.26,211.86 251.75,211.84 250.9,211.79 C250.23,211.76 249.8,211.73 249.64,211.71 C249.52,211.7 249.38,211.68 249.21,211.65 C249.1,211.64 248.96,211.62 248.78,211.58 C248.61,211.56 248.39,211.52 248.09,211.47 C247.78,211.41 247.31,211.33 246.71,211.23 C244.6,210.97 242.49,210.71 240.39,210.44 L232.91,209.7 C232.05,209.65 231.35,209.61 230.81,209.56 C230.35,209.52 229.83,209.46 229.24,209.39 C228.54,209.3 227.41,209.15 225.84,208.94 C224.81,208.8 224.09,208.71 223.68,208.67 C223.37,208.64 223.01,208.62 222.63,208.61 C222.14,208.58 221.13,208.56 219.6,208.53 C217.97,208.49 216.63,208.45 215.56,208.41 C214.58,208.37 213.65,208.32 212.77,208.25 C211.81,208.18 210.72,208.08 209.5,207.96 L190.44,206.62 C188.54,206.62 186.64,206.62 184.74,206.62 C183.96,206.61 183.49,206.61 183.32,206.6 C183.21,206.6 183.07,206.59 182.92,206.58 C182.83,206.57 182.71,206.56 182.56,206.54 C182.42,206.53 182.23,206.51 181.99,206.48 C181.72,206.45 181.34,206.41 180.84,206.36 C180.27,206.3 179.9,206.27 179.72,206.26 C179.59,206.26 179.41,206.25 179.17,206.25 C179.02,206.25 178.82,206.25 178.56,206.24 C178.32,206.24 177.98,206.24 177.55,206.24 C177.07,206.24 176.39,206.23 175.49,206.23 L170.83,206.12 L165.97,206.11 C164.55,206.07 163.12,206.03 161.7,205.99 L155.36,206.11 L142.29,206.08 L139.93,205.99 C139.71,205.98 139.55,205.97 139.46,205.98 C139.39,205.98 139.28,205.98 139.14,205.98 C139.05,205.99 138.92,205.99 138.76,206 C138.61,206 138.4,206.01 138.13,206.02 C137.83,206.03 137.4,206.05 136.84,206.07 C135.88,206.08 134.92,206.09 133.97,206.11 C133.31,206.11 132.89,206.12 132.72,206.13 C132.6,206.14 132.45,206.15 132.27,206.17 C132.15,206.18 132,206.2 131.81,206.22 C131.63,206.24 131.38,206.26 131.06,206.3 C130.71,206.34 130.21,206.39 129.55,206.46 C129.01,206.52 128.59,206.57 128.29,206.6 C128.02,206.62 127.8,206.64 127.63,206.66 C127.45,206.68 127.28,206.69 127.14,206.7 C126.91,206.71 126.61,206.72 126.25,206.73 C126.03,206.73 125.73,206.73 125.35,206.73 C125,206.73 124.52,206.74 123.9,206.74 C123.22,206.74 122.24,206.74 120.95,206.74 C120.01,206.74 119.41,206.75 119.14,206.76 C118.96,206.77 118.72,206.79 118.41,206.81 C118.23,206.83 117.97,206.85 117.64,206.88 C117.34,206.91 116.93,206.95 116.4,207.01 C115.82,207.06 114.97,207.14 113.87,207.25 C112.62,207.34 111.37,207.42 110.12,207.51 L105.4,207.84 C104.36,207.83 103.69,207.84 103.38,207.85 C103.17,207.86 102.87,207.87 102.49,207.9 C102.27,207.92 101.95,207.94 101.54,207.97 C101.17,208 100.64,208.03 99.97,208.08 C99.24,208.14 98.18,208.22 96.79,208.32 C91.82,208.67 86.85,209.03 81.88,209.39 L80.47,209.61 C77.72,209.9 74.97,210.19 72.22,210.49 L68.43,210.9 C67.51,210.96 66.91,211.01 66.65,211.03 C66.45,211.05 66.24,211.08 66.02,211.12 C65.72,211.17 64.97,211.3 63.77,211.52 C63.19,211.63 62.82,211.69 62.68,211.71 C62.57,211.73 62.44,211.74 62.28,211.76 C62.19,211.77 62.05,211.78 61.89,211.79 C61.73,211.8 61.51,211.82 61.24,211.84 C60.95,211.86 60.51,211.89 59.95,211.93 L57.32,212.33 L53.61,212.68 C53.21,212.72 52.94,212.75 52.81,212.77 C52.72,212.78 52.59,212.81 52.41,212.84 C52.31,212.86 52.16,212.88 51.97,212.92 C51.8,212.95 51.56,212.99 51.24,213.05 C50.91,213.11 50.41,213.2 49.76,213.32 C48.86,213.43 47.96,213.53 47.05,213.64 C46.47,213.71 46.02,213.76 45.7,213.8 C45.42,213.83 45.19,213.86 45.02,213.88 C44.83,213.91 44.67,213.93 44.55,213.94 C44.34,213.97 44.12,214.01 43.88,214.04 C43.73,214.07 43.54,214.1 43.3,214.14 C43.08,214.18 42.78,214.23 42.4,214.29 C41.98,214.36 41.38,214.46 40.59,214.6 C39.71,214.75 39.17,214.84 38.96,214.87 C38.82,214.89 38.65,214.91 38.45,214.94 C38.33,214.95 38.17,214.97 37.96,215 C37.77,215.02 37.51,215.05 37.19,215.09 C36.83,215.14 36.31,215.2 35.62,215.28 C34.97,215.36 34.58,215.41 34.43,215.43 C34.33,215.45 34.22,215.47 34.09,215.49 C33.91,215.53 33.33,215.65 32.33,215.86 L28.92,216.31 L26.52,216.74 L24.26,217.02 C24.25,217.02 23.93,217.08 23.32,217.18 C22.71,217.28 21.97,217.41 21.11,217.56 C20.24,217.71 19.5,217.83 18.88,217.94 C18.26,218.04 17.94,218.1 17.91,218.11 C16.84,218.34 15.78,218.57 14.72,218.8 C12.83,219.14 10.94,219.47 9.05,219.81 L2.89,221.22 C2.16,221.39 1.64,221.49 1.32,221.53 C1.05,221.57 0.85,221.56 0.72,221.53 C0.57,221.49 0.46,221.39 0.39,221.23 C0.04,220.22 -0.08,219.63 0.05,219.44 C0.2,219.23 0.29,219.1 0.33,219.07 C0.36,219.05 0.4,219.03 0.44,219.02 C0.51,219 0.73,218.97 1.12,218.92 C1.85,218.81 2.36,218.73 2.66,218.67 C2.88,218.63 3.15,218.57 3.46,218.5 C3.86,218.4 4.79,218.17 6.24,217.8 C6.6,217.7 6.86,217.64 7,217.61 C7.11,217.59 7.27,217.56 7.49,217.53 C7.62,217.5 7.81,217.47 8.06,217.43 C8.28,217.39 8.59,217.34 9,217.27 C9.44,217.19 10.08,217.08 10.92,216.94 L17.17,215.86 C17.84,215.7 18.35,215.58 18.7,215.49 C19.02,215.42 19.28,215.36 19.47,215.32 C19.67,215.27 19.84,215.23 19.97,215.2 C20.18,215.16 20.4,215.12 20.61,215.09 C20.74,215.07 20.9,215.05 21.11,215.03 C21.29,215 21.55,214.97 21.86,214.94 C22.21,214.9 22.71,214.84 23.36,214.76 L42.77,211.75 L45.09,211.48 C45.74,211.4 46.14,211.35 46.29,211.33 C46.39,211.31 46.52,211.29 46.67,211.26 C46.75,211.24 46.87,211.21 47.02,211.18 C47.16,211.15 47.35,211.11 47.59,211.06 C47.85,211 48.24,210.92 48.74,210.81 C50.71,210.38 53.32,210.08 56.57,209.89 C57.87,209.82 60.24,209.53 63.69,209.03 C64.26,208.94 64.71,208.88 65.02,208.84 C65.3,208.79 65.53,208.76 65.7,208.74 C65.89,208.71 66.05,208.69 66.18,208.68 C66.39,208.65 66.64,208.63 66.92,208.6 C67.08,208.59 67.31,208.57 67.6,208.55 C67.85,208.53 68.21,208.5 68.67,208.47 C69.17,208.43 69.9,208.38 70.84,208.31 C71.95,208.18 73.06,208.04 74.17,207.91 C75.32,207.82 76.48,207.73 77.63,207.65 L82.33,207.06 C82.91,206.99 83.35,206.93 83.66,206.89 C83.95,206.85 84.18,206.82 84.36,206.8 C84.55,206.78 84.72,206.76 84.86,206.74 C85.1,206.72 85.39,206.69 85.75,206.67 C85.96,206.65 86.25,206.63 86.62,206.61 C86.96,206.58 87.43,206.55 88.02,206.51 C88.67,206.47 89.61,206.41 90.86,206.33 C91.75,206.24 92.64,206.16 93.53,206.07 L96.94,205.85 L99.42,205.54 C99.72,205.5 99.94,205.48 100.06,205.48 C100.14,205.47 100.28,205.47 100.46,205.47 C100.58,205.47 100.73,205.47 100.94,205.47 C101.13,205.47 101.39,205.47 101.73,205.47 C102.09,205.47 102.63,205.47 103.33,205.47 C103.76,205.47 104.03,205.46 104.15,205.46 C104.23,205.46 104.34,205.45 104.47,205.44 C104.55,205.43 104.66,205.42 104.8,205.41 C104.93,205.4 105.11,205.38 105.33,205.36 C105.58,205.33 105.95,205.3 106.42,205.25 L111.34,205.01 L114.05,204.78 C116.77,204.55 119.62,204.43 122.61,204.41 C123.67,204.41 124.4,204.4 124.8,204.39 C125.1,204.38 125.45,204.36 125.84,204.34 C126.36,204.31 127.53,204.23 129.36,204.1 C130.34,204.07 131.33,204.05 132.31,204.02 C133.41,203.93 134.51,203.84 135.6,203.76 C136.63,203.68 137.27,203.64 137.54,203.63 C137.73,203.63 137.98,203.63 138.28,203.63 C138.46,203.64 138.71,203.64 139.03,203.65 L139.03,203.65 zM204.03,217.63 C203.79,218.89 204.27,219.66 205.47,219.95 C206.62,220.17 207.41,219.71 207.84,218.56 C208.05,217.95 208.04,217.42 207.79,216.97 C207.55,216.51 207.12,216.2 206.5,216.05 C205.91,215.93 205.39,216.01 204.93,216.31 C204.47,216.6 204.17,217.04 204.03,217.63 L204.03,217.63 zM209.68,215.46 C210.73,216.58 210.68,218.12 209.52,220.06 C209.19,220.63 208.86,221.06 208.55,221.37 C208.26,221.66 207.93,221.87 207.58,222.01 C207.21,222.16 206.75,222.25 206.19,222.28 C204.43,222.31 203.22,221.72 202.56,220.52 C202.22,219.9 201.99,219.39 201.86,218.98 C201.74,218.62 201.69,218.25 201.68,217.9 C201.68,217.5 201.74,217.01 201.87,216.42 C202,215.94 202.25,215.48 202.63,215.04 C203.01,214.59 203.41,214.28 203.84,214.09 C204.7,213.76 205.61,213.66 206.57,213.79 C207.71,213.95 208.75,214.51 209.68,215.46 L209.68,215.46 zM232,103.23 L231.32,105.19 C231.2,105.42 231.13,105.57 231.09,105.64 C231.06,105.68 231.02,105.74 230.97,105.81 C230.9,105.92 230.64,106.28 230.19,106.9 C230.08,107.06 230.01,107.16 229.98,107.22 C229.95,107.26 229.92,107.32 229.88,107.41 C229.82,107.52 229.6,107.94 229.24,108.66 C228.81,109.39 228.39,110.12 227.96,110.85 C227.79,111.14 227.68,111.34 227.63,111.43 C227.59,111.5 227.54,111.6 227.48,111.74 C227.44,111.82 227.39,111.93 227.32,112.08 C227.26,112.21 227.17,112.39 227.06,112.64 C226.94,112.9 226.76,113.28 226.53,113.78 L220.33,125.98 C219.26,128.21 218.19,130.44 217.12,132.67 C216.71,133.42 216.3,134.16 215.89,134.91 L214.55,137.79 L213.61,139.55 L212.49,141.92 C211.65,143.56 210.8,145.19 209.95,146.82 L208.89,149.11 L207.7,151.29 L204.36,158.09 C203.9,158.96 203.44,159.84 202.98,160.71 L198.66,169.48 L197.58,171.48 C197.31,172.1 197.03,172.73 196.76,173.36 L194.26,178.08 L191.34,183.91 C190.45,185.69 189.77,187.05 189.3,187.97 C188.86,188.83 188.53,189.49 188.29,189.96 C188.03,190.47 187.83,190.87 187.69,191.15 C187.46,191.61 187.29,191.94 187.2,192.14 C187.06,192.42 186.88,192.86 186.63,193.47 C186.5,193.81 186.4,194.05 186.34,194.17 C186.3,194.26 186.23,194.39 186.14,194.57 C186.08,194.68 186,194.83 185.9,195.02 C185.81,195.2 185.68,195.45 185.51,195.77 C185.32,196.12 185.05,196.64 184.7,197.31 C184.5,197.7 184.36,197.96 184.3,198.09 C184.26,198.19 184.19,198.33 184.11,198.51 C184.06,198.62 183.99,198.78 183.9,198.99 C183.82,199.18 183.7,199.44 183.56,199.76 C183.4,200.13 183.16,200.66 182.86,201.36 C180.33,201.28 177.8,201.21 175.27,201.14 C175.44,200.58 175.66,200.07 175.93,199.61 C176.07,199.4 176.21,199.19 176.35,198.99 C176.53,198.71 176.64,198.53 176.7,198.44 C176.73,198.37 176.78,198.28 176.84,198.16 C176.88,198.08 176.93,197.98 177,197.84 C177.06,197.72 177.14,197.54 177.25,197.33 C177.37,197.09 177.54,196.74 177.77,196.28 L181.46,189.08 C181.73,188.48 181.9,188.11 181.97,187.96 C182.02,187.85 182.09,187.71 182.18,187.55 C182.23,187.45 182.31,187.32 182.4,187.15 C182.49,186.99 182.61,186.77 182.76,186.5 C182.93,186.19 183.17,185.75 183.5,185.18 L184.74,182.57 L185.7,180.8 C185.84,180.56 185.92,180.39 185.96,180.31 C185.99,180.26 186.02,180.17 186.07,180.07 C186.13,179.91 186.36,179.36 186.74,178.41 C187.41,176.76 188.8,173.98 190.91,170.08 C191.64,168.58 192.37,167.09 193.11,165.59 C194.03,163.73 194.96,161.88 195.89,160.02 C196.38,159.2 196.84,158.28 197.27,157.29 L198.56,154.97 C199.21,153.62 199.87,152.27 200.53,150.92 L202.17,147.55 C202.47,146.85 202.66,146.43 202.73,146.28 C202.78,146.17 202.84,146.06 202.91,145.94 C202.95,145.86 203,145.76 203.07,145.63 C203.14,145.52 203.22,145.36 203.34,145.16 C203.46,144.95 203.63,144.63 203.87,144.22 C204.21,143.6 204.45,143.17 204.57,142.93 C204.66,142.75 204.79,142.48 204.97,142.11 C205.07,141.89 205.22,141.57 205.42,141.16 C205.59,140.79 205.84,140.26 206.17,139.57 C206.52,138.83 207.03,137.75 207.69,136.34 C207.96,135.77 208.14,135.41 208.22,135.25 C208.28,135.14 208.36,134.98 208.47,134.79 C208.53,134.68 208.62,134.52 208.74,134.31 C208.84,134.12 208.99,133.86 209.18,133.52 C209.38,133.16 209.68,132.62 210.07,131.92 C210.3,131.51 210.45,131.24 210.52,131.11 C210.57,131.01 210.64,130.88 210.72,130.7 C210.77,130.59 210.85,130.44 210.94,130.24 C211.02,130.06 211.14,129.81 211.29,129.48 C211.46,129.13 211.7,128.62 212.01,127.95 L213.04,125.88 L213.68,124.34 L214.83,122.03 C215.16,121.37 215.41,120.87 215.58,120.52 C215.74,120.2 215.86,119.95 215.96,119.76 C216.05,119.56 216.13,119.41 216.19,119.29 C216.3,119.09 216.39,118.91 216.48,118.74 C216.53,118.65 216.6,118.52 216.69,118.38 C216.76,118.25 216.86,118.07 216.99,117.84 C217.13,117.6 217.33,117.25 217.6,116.8 C217.99,116.12 218.47,115.22 219.05,114.08 C219.63,112.94 220.02,112.12 220.24,111.6 L220.25,111.58 L220.83,110.2 C219.14,110.17 217.86,110.14 216.98,110.12 C216.17,110.1 215.55,110.09 215.1,110.08 C214.62,110.07 214.25,110.06 213.99,110.06 C213.57,110.06 213.28,110.06 213.13,110.07 C212.93,110.09 212.73,110.18 212.55,110.34 C212.35,110.55 212.21,110.7 212.14,110.8 C212.09,110.87 212.02,110.99 211.92,111.15 C211.86,111.26 211.78,111.4 211.68,111.59 C211.58,111.76 211.45,112 211.28,112.31 C211.09,112.65 210.82,113.14 210.46,113.78 L209.65,115.17 C209.44,115.55 209.3,115.79 209.25,115.91 C209.21,115.99 209.16,116.1 209.1,116.25 C209.06,116.33 209.01,116.46 208.95,116.61 C208.89,116.76 208.81,116.96 208.7,117.22 C208.59,117.5 208.42,117.91 208.21,118.45 C207.9,119.2 207.66,119.77 207.48,120.14 C207.34,120.45 207.15,120.81 206.92,121.23 C206.63,121.76 206.03,122.82 205.13,124.4 C203.59,127.11 202.64,128.95 202.29,129.91 C202.14,130.32 202.02,130.61 201.95,130.77 C201.89,130.88 201.81,131.06 201.68,131.31 C201.61,131.45 201.5,131.66 201.37,131.93 C201.24,132.18 201.06,132.52 200.83,132.96 C200.58,133.45 200.22,134.15 199.75,135.08 L198.63,137.31 C197.99,138.57 197.36,139.91 196.74,141.34 C196.58,141.7 196.13,142.62 195.4,144.09 C194.68,145.55 193.9,147.09 193.08,148.71 C191.95,150.94 190.82,153.16 189.69,155.39 L186.66,161.07 C186.31,161.81 186.11,162.24 186.05,162.37 C186,162.46 185.96,162.54 185.93,162.6 C185.88,162.7 185.75,162.94 185.54,163.32 L184,166.63 C183.38,167.82 182.76,169.01 182.15,170.21 L177.15,179.98 C176.15,181.92 175,184.24 173.68,186.94 L172.76,188.96 L171.39,191.72 L170.55,193.72 C170.09,194.58 169.63,195.45 169.17,196.31 L167.46,199.99 C167.29,200.34 167.14,200.57 167,200.68 C166.89,200.77 166.73,200.83 166.53,200.86 C166.28,200.91 165.78,200.94 165.02,200.96 C164.23,200.98 163.64,201 163.23,201.01 C162.85,201.02 162.56,201.03 162.36,201.03 C162.13,201.04 161.95,201.04 161.83,201.05 C161.64,201.05 161.5,201.06 161.43,201.06 C161.33,201.06 161.23,201.08 161.12,201.1 C160.35,201.23 159.85,201.1 159.62,200.71 C159.56,200.62 159.55,200.5 159.59,200.36 C159.62,200.23 159.69,200.05 159.8,199.82 C159.93,199.56 160.16,199.14 160.49,198.55 C161.09,197.5 161.65,196.44 162.19,195.38 C162.81,194.16 163.43,192.93 164.05,191.69 L164.65,190.51 C166.51,186.88 168.37,183.24 170.23,179.6 C170.49,179.01 170.7,178.56 170.83,178.25 C170.96,177.97 171.06,177.74 171.14,177.59 C171.21,177.41 171.28,177.28 171.32,177.18 C171.39,177.02 171.46,176.89 171.5,176.79 C171.57,176.66 171.74,176.35 172.01,175.87 C172.62,174.64 173.23,173.41 173.85,172.18 C175.29,169.3 176.72,166.41 178.15,163.52 C179.43,160.91 180.29,159.17 180.71,158.31 C181.04,157.62 181.32,157.07 181.53,156.65 C181.79,156.13 182.14,155.47 182.58,154.67 C183.36,153.06 184.14,151.45 184.92,149.84 L185.9,147.99 L188.99,141.57 L192.09,135.4 C192.89,133.79 193.78,131.82 194.77,129.47 C194.91,129.13 195.01,128.91 195.06,128.8 C195.1,128.72 195.15,128.62 195.23,128.49 C195.27,128.4 195.34,128.29 195.42,128.14 C195.49,128.01 195.6,127.83 195.73,127.59 C195.88,127.33 196.1,126.95 196.38,126.45 L200.36,118.73 C200.68,118.07 201,117.4 201.32,116.73 L202.89,113.4 C202.91,113.37 203.06,113.08 203.34,112.53 C203.63,111.97 203.97,111.32 204.37,110.55 C204.77,109.79 205.11,109.13 205.39,108.59 C205.67,108.06 205.82,107.78 205.83,107.75 L207.2,104.99 C207.51,104.36 207.77,103.93 207.99,103.7 C208.18,103.5 208.39,103.37 208.63,103.31 C208.91,103.24 209.35,103.24 209.96,103.31 C212.15,103.37 214.35,103.42 216.54,103.46 C218.28,103.5 219.75,103.52 220.97,103.52 C222.16,103.51 223.17,103.5 223.99,103.47 C224.84,103.44 225.54,103.4 226.11,103.34 C226.64,103.28 227,103.24 227.19,103.24 C227.32,103.23 227.52,103.23 227.8,103.23 C227.96,103.23 228.19,103.22 228.49,103.23 C228.63,103.23 228.8,103.23 228.99,103.23 L229.65,103.23 C230.19,103.23 230.97,103.23 232,103.23 L232,103.23 zM250.9,99.88 C251.43,101.04 251.88,102.03 252.25,102.85 C252.62,103.68 252.83,104.19 252.9,104.38 L256.5,115.56 C256.87,116.84 257.11,117.72 257.23,118.2 C257.32,118.56 257.41,118.98 257.51,119.44 C257.55,119.67 257.61,119.96 257.67,120.29 C257.73,120.61 257.8,121.01 257.89,121.49 C257.98,121.99 258.1,122.65 258.24,123.45 C258.37,124.31 258.5,125.18 258.63,126.05 C258.76,126.9 258.85,127.54 258.92,127.99 C258.99,128.4 259.03,128.71 259.07,128.95 C259.11,129.2 259.14,129.39 259.16,129.54 C259.19,129.77 259.22,129.97 259.24,130.11 C259.27,130.33 259.32,130.83 259.4,131.63 C259.51,132.31 259.61,132.99 259.72,133.68 C259.85,134.56 259.93,136.46 259.95,139.35 C259.97,142.24 259.92,145.46 259.81,149.01 C259.8,149.37 259.79,149.6 259.79,149.69 C259.78,149.76 259.77,149.85 259.76,149.96 C259.74,150.11 259.66,150.65 259.53,151.57 L259.35,153.93 C259.31,154.34 259.13,155.45 258.81,157.26 C258.49,159.07 258.23,160.4 258.04,161.26 C258.04,161.29 257.91,161.85 257.65,162.94 C257.39,164.03 257.09,165.34 256.73,166.87 C256.37,168.39 256.07,169.69 255.81,170.77 L255.43,172.39 L254.32,175.25 L252.86,179.32 L251.65,182.22 C251.43,182.78 251.22,183.33 251,183.89 C250.64,184.8 249.97,186.25 248.98,188.26 C247.98,190.27 247.21,191.74 246.66,192.67 C246.39,193.12 246.22,193.41 246.15,193.53 C246.11,193.61 246.05,193.72 245.98,193.86 C245.94,193.94 245.88,194.05 245.81,194.2 C245.78,194.25 245.73,194.33 245.68,194.44 C245.63,194.54 245.57,194.64 245.52,194.74 C245.39,194.99 245.2,195.36 244.96,195.84 C244.78,196.18 244.66,196.41 244.6,196.51 C244.56,196.58 244.5,196.67 244.42,196.78 C244.37,196.85 244.31,196.95 244.22,197.07 C244.14,197.19 244.04,197.34 243.9,197.54 C243.75,197.76 243.53,198.08 243.24,198.5 L241.5,201.01 C241.01,201.65 240.72,202.04 240.62,202.17 C240.55,202.27 240.47,202.38 240.39,202.49 C240.35,202.57 240.28,202.66 240.21,202.78 C240.13,202.89 240.04,203.04 239.92,203.22 C239.78,203.43 239.59,203.72 239.33,204.11 C239.04,204.55 238.79,204.83 238.6,204.94 C238.44,205.03 238.23,205.09 237.96,205.1 C237.62,205.11 236.91,205.07 235.84,204.97 C235.45,204.93 235.09,204.91 234.76,204.92 C234.54,204.91 234.37,204.85 234.25,204.74 C234.12,204.62 234.08,204.48 234.11,204.3 C234.12,204.2 234.16,204.1 234.23,204.01 C234.27,203.94 234.36,203.81 234.5,203.63 C234.59,203.52 234.71,203.36 234.88,203.15 C235.03,202.95 235.23,202.68 235.5,202.33 C235.79,201.95 236.22,201.4 236.79,200.67 C236.8,200.65 236.96,200.42 237.28,199.98 C237.59,199.54 237.97,199.01 238.4,198.39 C238.84,197.78 239.21,197.25 239.52,196.82 L239.99,196.16 C240.37,195.48 240.59,195.08 240.65,194.97 C240.69,194.9 240.73,194.84 240.75,194.8 C240.78,194.75 240.84,194.66 240.93,194.52 C241.65,193.46 242.09,192.78 242.27,192.48 C242.4,192.27 242.54,192.01 242.7,191.71 C242.8,191.54 242.92,191.3 243.06,191.01 C243.2,190.74 243.39,190.38 243.61,189.93 C243.86,189.43 244.21,188.74 244.67,187.84 L245.97,185.43 C246.99,183.54 247.96,181.17 248.88,178.32 C249.02,177.9 249.11,177.62 249.16,177.48 C249.2,177.39 249.25,177.26 249.32,177.09 C249.36,176.98 249.42,176.83 249.5,176.64 C249.57,176.47 249.67,176.23 249.8,175.92 C249.94,175.58 250.15,175.09 250.41,174.44 C250.5,174.24 250.55,174.09 250.58,174.02 C250.6,173.96 250.62,173.88 250.66,173.76 C250.68,173.7 250.71,173.6 250.75,173.47 C250.78,173.36 250.83,173.2 250.89,172.99 C250.96,172.76 251.05,172.43 251.18,172 C251.45,171.26 251.71,170.53 251.98,169.8 C252.14,169.31 252.39,168.46 252.73,167.24 C253.07,166.02 253.29,165.13 253.41,164.59 C253.64,163.51 253.79,162.75 253.87,162.33 C253.93,162.01 253.99,161.59 254.07,161.08 C254.11,160.8 254.17,160.44 254.23,160 C254.29,159.6 254.37,159.06 254.47,158.38 C254.57,157.67 254.71,156.71 254.89,155.5 L255.24,153.42 L255.6,150.59 C255.73,149.54 255.8,148.9 255.82,148.68 C255.83,148.52 255.84,148.35 255.84,148.16 C255.84,148.05 255.83,147.91 255.82,147.72 C255.82,147.55 255.81,147.32 255.8,147.03 C255.78,146.7 255.76,146.24 255.73,145.63 C255.72,145.25 255.71,144.99 255.71,144.85 C255.71,144.76 255.72,144.6 255.73,144.4 C255.74,144.28 255.75,144.11 255.76,143.88 C255.78,143.68 255.8,143.39 255.82,143.02 C255.84,142.62 255.88,142.03 255.93,141.26 C255.96,140.83 255.97,140.55 255.97,140.43 C255.97,140.35 255.96,140.23 255.96,140.09 C255.95,140.01 255.94,139.88 255.93,139.73 C255.92,139.59 255.9,139.4 255.89,139.15 C255.86,138.87 255.83,138.48 255.79,137.96 L255.67,134.23 C255.63,132.99 255.41,130.93 255,128.05 C254.81,126.74 254.63,125.56 254.45,124.51 C254.26,123.47 254.11,122.73 254,122.29 C253.84,121.71 253.74,121.34 253.7,121.19 C253.67,121.07 253.64,120.93 253.6,120.74 C253.57,120.63 253.54,120.48 253.5,120.28 C253.46,120.08 253.4,119.83 253.34,119.53 C253.26,119.18 253.15,118.67 253.01,118 C252.89,117.43 252.81,117.07 252.77,116.94 C252.75,116.85 252.72,116.73 252.67,116.6 C252.65,116.52 252.61,116.42 252.56,116.28 C252.52,116.16 252.46,115.99 252.39,115.77 C252.3,115.54 252.18,115.19 252.03,114.74 C251.89,114.34 251.79,114.06 251.75,113.91 C251.72,113.81 251.67,113.65 251.62,113.44 C251.58,113.31 251.53,113.13 251.47,112.89 C251.41,112.68 251.33,112.38 251.22,111.99 C251.11,111.57 250.94,110.95 250.72,110.15 C250.6,109.7 250.52,109.41 250.48,109.28 C250.45,109.19 250.4,109.07 250.34,108.91 C250.3,108.82 250.25,108.69 250.18,108.52 C250.12,108.37 250.04,108.15 249.92,107.88 C249.8,107.58 249.63,107.15 249.4,106.58 C249.17,105.99 248.95,105.4 248.73,104.8 L246.07,98.86 L243.72,94.39 C243.55,94.07 243.46,93.8 243.44,93.57 C243.43,93.36 243.46,93.13 243.54,92.87 C243.63,92.59 243.81,92.17 244.09,91.64 C244.29,91.25 244.5,90.9 244.72,90.58 L245.58,89.26 L248.18,94.16 C248.81,95.41 249.71,97.31 250.9,99.88 L250.9,99.88 zM195.46,223.67 C196.25,223.74 196.85,223.79 197.26,223.83 C197.64,223.86 197.93,223.89 198.14,223.91 C198.37,223.93 198.55,223.95 198.67,223.97 C198.87,224 199,224.03 199.07,224.07 C199.17,224.13 199.26,224.33 199.35,224.66 C199.37,224.73 199.38,224.78 199.38,224.82 C199.38,224.85 199.37,224.9 199.37,224.97 C199.36,225.06 199.32,225.41 199.24,226.02 L198.72,233.21 C198.64,233.97 198.55,234.74 198.46,235.5 L197.92,244.32 C197.84,245.5 198.14,246.66 198.81,247.79 C199.74,249.39 200.94,250.39 202.4,250.79 C203.01,250.96 203.51,251.06 203.89,251.08 C204.74,251.09 205.69,250.85 206.75,250.36 C207.82,249.86 208.68,249.26 209.33,248.54 C209.7,248.13 209.98,247.67 210.18,247.19 C210.37,246.73 210.51,246.18 210.59,245.53 C210.68,244.85 210.73,243.97 210.74,242.88 C210.74,242.23 210.74,241.72 210.74,241.36 C210.74,241.04 210.74,240.78 210.75,240.58 C210.75,240.36 210.75,240.18 210.76,240.02 C210.76,239.77 210.78,239.47 210.8,239.12 C210.81,238.91 210.82,238.62 210.85,238.26 C210.87,237.93 210.9,237.48 210.94,236.9 C210.98,236.27 211.04,235.35 211.12,234.14 L211.4,230.16 C211.46,229.7 211.5,229.4 211.52,229.27 C211.53,229.18 211.54,229.07 211.55,228.92 C211.56,228.83 211.57,228.7 211.59,228.54 C211.6,228.4 211.62,228.19 211.64,227.93 C211.67,227.65 211.71,227.24 211.76,226.7 C211.82,226.04 211.89,225.61 211.96,225.42 C212.02,225.27 212.11,225.16 212.24,225.1 C212.4,225.02 212.76,224.95 213.32,224.9 C215.07,224.94 216.15,224.97 216.57,224.99 C216.89,225.01 217.11,225.03 217.24,225.06 C217.4,225.1 217.54,225.2 217.66,225.36 C217.74,225.48 217.78,225.59 217.79,225.69 C217.8,225.77 217.8,225.9 217.79,226.08 C217.77,226.33 217.71,227.06 217.61,228.27 C217.52,229.65 217.43,231.02 217.33,232.39 L216.4,243.29 C216.37,243.71 216.41,244.24 216.54,244.88 C216.58,245.1 216.59,245.25 216.59,245.32 C216.59,245.37 216.59,245.43 216.57,245.52 C216.55,245.64 216.47,246.08 216.33,246.82 C216.27,247.19 216.21,247.55 216.15,247.92 C215.73,250.35 214.34,252.46 211.96,254.26 C210.69,255.23 209.31,255.96 207.82,256.46 C207.63,256.52 207.49,256.56 207.42,256.57 C207.36,256.57 207.28,256.58 207.16,256.59 C207,256.59 206.41,256.62 205.38,256.65 L203.99,256.76 C202.05,256.91 199.87,256.3 197.45,254.93 C196.9,254.62 196.51,254.36 196.27,254.17 C196.09,254.01 195.89,253.81 195.7,253.57 C195.46,253.27 195.03,252.68 194.43,251.8 C193.87,250.98 193.47,250.36 193.23,249.93 C193.02,249.56 192.85,249.19 192.73,248.83 C192.58,248.41 192.42,247.82 192.26,247.05 C192.08,246.19 192,245.03 192.02,243.58 C192.04,242.13 192.15,240.69 192.35,239.27 C192.38,239.05 192.4,238.9 192.41,238.81 C192.41,238.75 192.42,238.64 192.42,238.51 C192.43,238.43 192.43,238.31 192.44,238.15 C192.44,238.01 192.45,237.82 192.45,237.57 C192.46,237.29 192.48,236.89 192.49,236.37 C192.57,234.02 192.82,230.8 193.26,226.71 C193.3,226.29 193.33,226.03 193.34,225.93 C193.34,225.86 193.34,225.78 193.34,225.68 C193.34,225.54 193.34,225.08 193.34,224.3 C193.33,224.01 193.39,223.83 193.49,223.74 C193.58,223.66 193.73,223.61 193.96,223.6 C194.22,223.58 194.72,223.6 195.46,223.67 L195.46,223.67 zM240.6,227.77 C240.96,228.05 241.26,228.38 241.52,228.76 L242.35,230.11 C243,231.04 243.65,231.97 244.3,232.91 C244.62,233.41 244.93,233.91 245.25,234.4 C245.4,234.64 245.5,234.79 245.54,234.85 C245.58,234.89 245.62,234.94 245.67,235 C245.75,235.09 246.02,235.38 246.48,235.88 L251.26,242.16 L253.3,245 C253.72,245.65 254.05,246.14 254.3,246.45 C254.53,246.73 254.74,246.92 254.92,247.02 C255.12,247.13 255.33,247.15 255.54,247.08 C255.73,247.02 255.87,246.94 255.95,246.84 C256.01,246.74 256.07,246.6 256.11,246.41 C256.16,246.19 256.21,245.8 256.27,245.23 C256.51,243.07 256.74,240.9 256.97,238.74 C257.1,237.82 257.23,236.9 257.36,235.98 C257.4,235.09 257.44,234.19 257.49,233.3 C257.56,232.72 257.62,232.27 257.66,231.97 C257.69,231.69 257.72,231.47 257.74,231.32 C257.76,231.15 257.78,231.02 257.79,230.93 C257.82,230.77 257.84,230.66 257.85,230.6 C257.88,230.51 257.95,230.37 258.06,230.17 C258.19,229.96 258.35,229.82 258.53,229.73 C258.69,229.65 258.9,229.61 259.16,229.61 C259.44,229.61 259.83,229.66 260.33,229.75 C261.13,229.78 261.94,229.82 262.75,229.86 C263.79,229.94 264.27,230.54 264.19,231.67 C264.07,232.28 263.94,232.89 263.82,233.51 C263.72,233.98 263.66,234.29 263.64,234.41 C263.63,234.5 263.61,234.62 263.59,234.76 C263.58,234.84 263.57,234.96 263.55,235.11 C263.53,235.24 263.51,235.43 263.47,235.68 C263.44,235.95 263.39,236.33 263.32,236.83 L262.24,244.75 C262.09,245.84 261.98,246.67 261.89,247.24 C261.82,247.76 261.76,248.17 261.72,248.47 C261.67,248.79 261.64,249.05 261.61,249.24 C261.57,249.56 261.54,249.83 261.52,250.07 C261.5,250.21 261.49,250.39 261.47,250.59 C261.46,250.77 261.44,251.02 261.42,251.32 C261.4,251.65 261.37,252.13 261.33,252.75 L260.87,256.74 C260.89,257.46 260.92,258.18 260.94,258.91 C260.94,259.41 260.84,259.96 260.65,260.55 C260.45,261.14 260.25,261.49 260.05,261.6 C259.8,261.74 259.49,261.8 259.09,261.78 C258.7,261.75 258.43,261.66 258.27,261.5 C258.21,261.45 258.17,261.41 258.16,261.38 C258.14,261.37 258.13,261.35 258.12,261.32 C258.09,261.27 258.02,261.12 257.9,260.84 C257.85,260.76 257.16,259.78 255.81,257.91 C254.47,256.03 252.85,253.79 250.97,251.18 C249.08,248.57 247.46,246.33 246.1,244.47 C244.75,242.61 244.04,241.65 243.98,241.59 C243.56,241.18 243.23,241.09 243,241.32 C242.89,241.44 242.81,241.65 242.76,241.96 C242.72,242.17 242.66,242.61 242.58,243.27 C242.53,243.67 242.46,244.25 242.37,245.02 C242.28,245.7 242.17,246.69 242.02,247.97 C241.85,249.35 241.61,251.37 241.3,254.03 C241.21,254.76 241.14,255.31 241.1,255.69 C241.06,256.05 241.02,256.32 241,256.5 C240.98,256.71 240.96,256.87 240.95,256.98 C240.93,257.16 240.91,257.29 240.91,257.35 C240.9,257.45 240.9,257.55 240.92,257.67 C241.03,258.77 240.69,259.32 239.88,259.31 C239.56,259.3 239.24,259.29 238.92,259.29 C238.26,259.23 237.76,259.18 237.41,259.15 C237.1,259.13 236.86,259.11 236.68,259.09 C236.49,259.07 236.34,259.06 236.24,259.05 C236.08,259.04 235.96,259.02 235.9,259.02 C235.81,259.01 235.71,258.99 235.6,258.96 C235.46,258.93 235.31,258.91 235.17,258.89 C234.75,258.84 234.59,258.57 234.69,258.07 L238.24,228.52 C238.38,227.58 238.84,227.17 239.63,227.29 C239.92,227.33 240.24,227.49 240.6,227.77 L240.6,227.77 zM286.42,233.6 L286.41,233.6 L291.46,234.33 L289.62,242.47 L288.91,246.88 C288.63,248.35 288.35,249.83 288.07,251.3 C287.97,251.83 287.89,252.28 287.84,252.66 C287.79,252.99 287.75,253.35 287.71,253.75 C287.67,254.2 287.62,254.83 287.55,255.65 L286.7,261.52 C286.51,262.5 286.37,263.46 286.27,264.4 C286.2,265.04 286.13,265.67 286.06,266.31 L279.76,264.71 C281.51,254.27 283.25,243.83 285,233.39 C285.47,233.46 285.95,233.53 286.42,233.6 L286.42,233.6 zM165.61,260.46 C165.74,260.47 165.92,260.48 166.14,260.49 C166.34,260.51 166.61,260.52 166.96,260.54 C167.34,260.57 167.88,260.6 168.59,260.65 L171.5,260.61 C171.68,260.62 171.81,260.62 171.87,260.62 C171.92,260.63 171.99,260.63 172.09,260.64 C172.23,260.66 172.73,260.71 173.61,260.81 L184.82,260.98 C185.49,260.99 185.94,261.01 186.18,261.02 C186.35,261.03 186.6,261.04 186.94,261.06 C187.14,261.08 187.43,261.1 187.8,261.12 C188.16,261.15 188.64,261.18 189.23,261.23 C189.89,261.27 190.86,261.34 192.14,261.43 C194.42,261.51 196.71,261.58 199,261.66 C200.18,261.75 201.36,261.83 202.55,261.92 L205.74,262.05 C206.26,262.07 206.6,262.09 206.77,262.1 C206.88,262.11 207.05,262.13 207.27,262.15 C207.4,262.17 207.58,262.19 207.82,262.21 C207.92,262.22 208.05,262.24 208.22,262.26 C208.39,262.28 208.56,262.3 208.73,262.32 C209.15,262.37 209.77,262.44 210.58,262.53 C212,262.65 213.42,262.76 214.85,262.88 L217.18,263.13 L222.18,263.42 C223.17,263.47 223.78,263.51 224.02,263.54 C224.19,263.55 224.4,263.58 224.65,263.61 C224.8,263.63 225.01,263.66 225.27,263.69 C225.5,263.73 225.83,263.77 226.26,263.83 C226.72,263.9 227.38,263.99 228.26,264.12 L231.94,264.43 L234.31,264.74 L236.23,264.79 C236.85,264.8 237.27,264.82 237.49,264.84 C237.66,264.86 237.87,264.9 238.13,264.94 C238.28,264.97 238.47,265.01 238.71,265.06 C238.93,265.1 239.23,265.16 239.59,265.23 C239.99,265.31 240.53,265.42 241.22,265.56 C241.7,265.66 242.03,265.72 242.19,265.74 C242.31,265.76 242.49,265.78 242.72,265.8 C242.86,265.82 243.05,265.84 243.31,265.86 C243.55,265.88 243.88,265.92 244.29,265.95 C244.75,266 245.41,266.06 246.29,266.14 C248.1,266.4 249.91,266.66 251.72,266.92 C254.29,267.16 256.86,267.41 259.43,267.66 C260.22,267.73 260.72,267.79 260.93,267.81 C261.07,267.83 261.26,267.86 261.49,267.9 C261.63,267.93 261.82,267.96 262.07,268.01 C262.29,268.05 262.6,268.1 263,268.17 C263.44,268.25 264.07,268.37 264.9,268.52 L269.71,269.24 C270.92,269.49 272.14,269.73 273.35,269.98 L277.88,270.55 C278.93,270.68 279.57,270.77 279.8,270.8 C279.97,270.83 280.15,270.86 280.35,270.9 C280.47,270.93 280.64,270.97 280.85,271.01 C281.03,271.05 281.29,271.11 281.62,271.19 C281.98,271.27 282.51,271.38 283.19,271.54 C283.88,271.69 285,271.91 286.55,272.19 C288.1,272.47 289.27,272.67 290.06,272.79 L292.62,273.05 C293.23,273.11 293.6,273.15 293.75,273.18 C293.86,273.2 293.98,273.22 294.13,273.26 C294.23,273.29 294.35,273.32 294.51,273.36 C294.65,273.4 294.86,273.46 295.11,273.53 C295.39,273.6 295.8,273.72 296.33,273.86 L299.55,274.47 C299.87,274.53 300.2,274.58 300.54,274.61 C300.64,274.63 300.72,274.64 300.76,274.66 C301.42,274.91 301.63,275.47 301.39,276.34 C301.28,276.69 301.17,276.9 301.06,276.99 C300.98,277.06 300.85,277.1 300.68,277.11 C300.46,277.12 299.97,277.09 299.22,277.01 C299,276.99 298.85,276.97 298.78,276.96 C298.72,276.95 298.64,276.93 298.53,276.91 C298.37,276.88 297.8,276.76 296.82,276.55 C294.81,276.13 293.26,275.8 292.17,275.58 C291.18,275.39 290.35,275.23 289.68,275.11 C288.95,274.98 288.23,274.86 287.54,274.76 C286.71,274.64 286.22,274.57 286.05,274.54 C285.93,274.52 285.8,274.5 285.67,274.47 C285.48,274.43 284.89,274.3 283.88,274.07 L278.49,273.19 C277.71,273.06 276.94,272.93 276.16,272.81 C275.49,272.76 274.81,272.71 274.13,272.65 C273.86,272.63 273.69,272.62 273.62,272.61 C273.56,272.6 273.49,272.58 273.41,272.56 C273.28,272.53 272.84,272.42 272.09,272.22 C271.92,272.18 271.8,272.15 271.74,272.14 C271.7,272.13 271.64,272.12 271.56,272.11 C271.44,272.1 271.03,272.04 270.32,271.95 C270.11,271.92 269.97,271.9 269.9,271.89 C269.86,271.88 269.79,271.86 269.71,271.84 C269.59,271.81 269.17,271.7 268.45,271.52 C267.88,271.37 267.33,271.25 266.82,271.16 C266.36,271.07 265.83,271 265.22,270.92 C264.54,270.84 263.59,270.74 262.38,270.62 L258.88,270 C258.66,269.96 258.51,269.93 258.43,269.93 C258.38,269.92 258.29,269.91 258.18,269.9 C258.02,269.89 257.44,269.84 256.44,269.77 L249.83,268.92 C248.46,268.75 247.08,268.58 245.7,268.41 L242.38,268 L240.42,267.66 C239.99,267.59 239.7,267.55 239.55,267.53 C239.45,267.52 239.29,267.51 239.08,267.5 C238.96,267.5 238.78,267.49 238.55,267.48 C238.46,267.48 238.33,267.47 238.17,267.47 C238,267.46 237.84,267.45 237.68,267.45 C237.27,267.43 236.67,267.41 235.89,267.38 L233.6,267.12 L231.83,266.99 L229.26,266.58 C228.82,266.51 228.52,266.47 228.34,266.45 C228.21,266.43 228.01,266.42 227.73,266.39 C227.56,266.38 227.32,266.36 227.01,266.34 C226.73,266.32 226.34,266.29 225.82,266.25 C225.27,266.2 224.45,266.14 223.39,266.06 L221.18,265.81 L216.93,265.54 C216.54,265.52 216.29,265.5 216.19,265.49 C216.11,265.48 216.01,265.47 215.88,265.46 C215.81,265.45 215.7,265.44 215.57,265.42 C215.44,265.41 215.26,265.38 215.05,265.36 C214.81,265.33 214.46,265.29 214,265.23 C213.03,265.17 212.07,265.11 211.1,265.05 C210.29,264.97 209.48,264.89 208.67,264.81 L198.96,264.1 L196.29,264.07 L193.93,263.9 C193.74,263.88 193.61,263.88 193.55,263.88 C193.5,263.88 193.43,263.88 193.34,263.88 C193.21,263.88 192.73,263.9 191.91,263.93 L187.61,263.72 L182.34,263.68 L174.36,263.21 C174.32,263.21 173.77,263.2 172.71,263.19 C171.63,263.17 170.32,263.15 168.78,263.13 C167.25,263.1 165.93,263.08 164.83,263.07 C163.74,263.05 163.17,263.04 163.12,263.04 L149.39,263.11 C147.87,263.16 146.36,263.21 144.84,263.26 C143.81,263.23 142.78,263.21 141.74,263.18 C141.06,263.17 140.41,263.17 139.81,263.18 C139.26,263.2 138.62,263.22 137.9,263.27 C137.1,263.31 135.99,263.39 134.58,263.5 L130.99,263.58 C130.28,263.64 129.58,263.69 128.87,263.74 C128.64,263.76 128.48,263.77 128.4,263.76 C128.34,263.77 128.25,263.76 128.13,263.76 C127.97,263.75 127.37,263.73 126.34,263.69 C126.15,263.68 125.62,263.69 124.74,263.71 C123.86,263.74 122.82,263.77 121.6,263.81 C120.39,263.86 119.26,263.9 118.21,263.95 C117.16,264 116.41,264.04 115.96,264.07 C114.13,264.21 112.3,264.36 110.47,264.5 L108.08,264.47 C107.85,264.47 107.68,264.47 107.56,264.48 C107.47,264.49 107.33,264.51 107.12,264.53 C106.99,264.55 106.81,264.57 106.58,264.59 C106.35,264.62 106.05,264.66 105.68,264.7 C105.25,264.75 104.64,264.82 103.83,264.92 L101.05,265.12 L98.98,265.36 C98.44,265.43 98.08,265.46 97.91,265.47 C97.79,265.48 97.62,265.49 97.4,265.5 C97.27,265.51 97.08,265.51 96.84,265.52 C96.62,265.53 96.32,265.54 95.93,265.55 C95.5,265.57 94.88,265.59 94.06,265.62 L90.64,265.89 C88.04,266.16 85.44,266.42 82.83,266.69 L80.78,266.8 C79.94,266.91 79.1,267.02 78.26,267.13 L75.96,267.31 C74.33,267.43 72.35,267.67 70.03,268.03 C66.88,268.51 64.46,268.84 62.77,269.01 L52.34,270.3 C51.92,270.38 51.49,270.47 51.06,270.55 C50.33,270.63 49.59,270.71 48.86,270.8 C48.82,270.8 48.43,270.86 47.68,270.98 C46.93,271.1 46.03,271.24 44.98,271.4 C43.94,271.57 43.05,271.71 42.31,271.83 C41.57,271.94 41.19,272.01 41.17,272.01 L39.96,272.31 C39.72,272.36 39.55,272.4 39.45,272.42 C39.38,272.43 39.26,272.44 39.11,272.46 C39.01,272.48 38.87,272.49 38.69,272.51 C38.62,272.52 38.52,272.53 38.39,272.55 C38.26,272.57 38.13,272.58 38.01,272.6 C37.68,272.63 37.22,272.69 36.6,272.76 C35.39,272.98 34.18,273.2 32.97,273.42 L29.92,273.86 C29.9,273.86 29.41,273.94 28.47,274.11 C27.51,274.28 26.36,274.49 25.02,274.73 C23.67,274.97 22.51,275.18 21.54,275.35 C20.57,275.53 20.07,275.62 20.03,275.62 C19.98,275.63 19.65,275.7 19.02,275.82 C18.4,275.95 17.65,276.09 16.8,276.26 C15.94,276.43 15.21,276.58 14.61,276.7 L13.71,276.88 C13.43,276.97 13.13,277.12 12.82,277.31 C12.44,277.53 12.08,277.53 11.76,277.33 C11.43,277.12 11.23,276.76 11.17,276.26 C11.13,275.73 11.15,275.34 11.22,275.1 C11.29,274.89 11.42,274.74 11.61,274.65 C11.83,274.54 12.19,274.48 12.71,274.45 C13.18,274.42 13.63,274.37 14.07,274.3 C14.45,274.24 14.94,274.15 15.53,274.03 C16.21,273.89 17.28,273.66 18.76,273.34 C19.87,273.12 20.99,272.91 22.11,272.7 L26.12,271.83 L37.68,270 C38.02,269.96 38.24,269.93 38.36,269.91 C38.44,269.9 38.56,269.88 38.71,269.85 C38.8,269.83 38.93,269.8 39.1,269.77 C39.16,269.76 39.26,269.74 39.39,269.72 C39.51,269.69 39.63,269.67 39.74,269.64 C40.04,269.59 40.48,269.5 41.05,269.38 L44.38,268.99 L47.46,268.46 L49.49,268.22 C50.12,268.11 50.75,268 51.38,267.89 C52.76,267.75 54.15,267.6 55.53,267.45 C56.13,267.39 56.5,267.34 56.65,267.32 C56.76,267.3 56.89,267.28 57.05,267.25 C57.15,267.23 57.28,267.2 57.45,267.17 C57.61,267.14 57.82,267.1 58.09,267.04 C58.39,266.98 58.83,266.9 59.39,266.78 C60.04,266.65 60.45,266.58 60.61,266.55 C60.72,266.53 60.86,266.51 61.02,266.5 C61.11,266.48 61.25,266.47 61.42,266.45 C61.58,266.43 61.79,266.41 62.06,266.38 C62.36,266.35 62.79,266.3 63.36,266.24 C64.24,266.14 64.92,266.07 65.38,266.02 C65.82,265.97 66.16,265.93 66.39,265.91 C66.65,265.88 66.87,265.86 67.03,265.84 C67.29,265.81 67.53,265.79 67.74,265.77 C67.87,265.76 68.03,265.75 68.22,265.74 C68.4,265.72 68.63,265.71 68.91,265.69 C69.23,265.67 69.68,265.63 70.28,265.59 L75.85,264.97 C76.62,264.92 77.39,264.87 78.16,264.81 C80.31,264.66 84.44,264.16 90.54,263.31 C91.7,263.15 92.48,263.05 92.86,263.01 C93.17,262.98 93.45,262.97 93.7,262.96 C94.03,262.96 94.59,262.98 95.4,263.02 C95.64,263.03 95.8,263.03 95.88,263.03 C95.94,263.02 96.02,263.02 96.12,263.01 C96.27,262.99 96.8,262.93 97.72,262.83 C98.42,262.75 99.15,262.68 99.9,262.63 C100.59,262.58 101.43,262.53 102.43,262.47 C103.52,262.41 105.05,262.34 107,262.24 L110.28,261.93 C110.81,261.88 111.16,261.85 111.32,261.84 C111.43,261.83 111.59,261.83 111.79,261.82 C111.91,261.82 112.09,261.81 112.31,261.81 C112.51,261.8 112.79,261.8 113.14,261.79 C113.53,261.78 114.1,261.76 114.85,261.74 L121.48,261.36 L125.43,261.19 C126.46,261.15 127.07,261.13 127.29,261.12 C127.44,261.12 127.6,261.12 127.77,261.13 C127.88,261.13 128.01,261.13 128.18,261.14 C128.34,261.15 128.56,261.16 128.83,261.17 C129.13,261.18 129.56,261.2 130.13,261.23 C130.67,261.25 131.02,261.26 131.17,261.26 C131.28,261.26 131.43,261.25 131.62,261.24 C131.73,261.23 131.89,261.22 132.09,261.21 C132.28,261.2 132.54,261.18 132.86,261.16 C133.22,261.13 133.75,261.1 134.43,261.05 C135.42,260.99 136.24,260.94 136.88,260.92 C137.43,260.9 138.07,260.89 138.79,260.88 C139.64,260.87 141.01,260.86 142.91,260.86 C143.68,260.86 144.19,260.86 144.42,260.85 C144.6,260.84 144.78,260.83 144.98,260.81 C145.24,260.79 145.86,260.72 146.84,260.61 C147.04,260.59 147.17,260.58 147.25,260.57 C147.3,260.57 147.39,260.57 147.5,260.57 C147.66,260.57 148.24,260.58 149.24,260.59 L151.71,260.54 L155.28,260.61 L163.02,260.47 C164.1,260.45 164.76,260.44 165.01,260.44 C165.19,260.45 165.39,260.45 165.61,260.46 L165.61,260.46 z"/>  </g> </svg>