<svg xmlns="http://www.w3.org/2000/svg" xml:space="preserve" shape-rendering="geometricPrecision" text-rendering="geometricPrecision" image-rendering="optimizeQuality" fill-rule="evenodd" clip-rule="evenodd" xmlns:xlink="http://www.w3.org/1999/xlink" viewBox="0 0 454.54 158.35">  <g id="Layer_1">   <metadata id="FutureCorpID_Layer"/>    <path fill="#000000" d="M21.97,41.79 L26.39,41.81 L23.45,34.8 L18.97,34.8 L21.97,41.79 L21.97,41.79 z"/>   <path fill="#000000" d="M57.56,34.97 L77.3,34.99 L74.39,41.55 L64.85,41.57 L54.81,64.76 L49.7,53.15 L57.56,34.97 L57.56,34.97 z"/>   <path fill="#000000" d="M15.51,34.75 L15.58,34.83 C15.56,34.86 15.54,34.89 15.51,34.9 C15.5,34.91 15.47,34.92 15.43,34.93 C15.39,34.95 15.3,34.98 15.15,35.02 C15.06,35.05 15,35.08 14.98,35.12 C14.95,35.16 14.95,35.22 14.97,35.29 C14.99,35.37 15.04,35.49 15.11,35.65 C15.12,35.66 15.23,35.9 15.45,36.37 C15.66,36.85 15.92,37.43 16.23,38.1 C16.53,38.77 16.79,39.35 17.01,39.82 C17.23,40.3 17.34,40.55 17.34,40.56 C17.36,40.59 17.45,40.79 17.61,41.16 C17.78,41.53 17.98,41.97 18.2,42.48 C18.43,42.99 18.63,43.44 18.8,43.81 C18.96,44.18 19.05,44.37 19.06,44.4 L44.51,100.81 C44.58,100.98 44.61,101.09 44.6,101.15 C44.6,101.2 44.57,101.27 44.54,101.35 C44.52,101.41 44.49,101.49 44.44,101.58 C44.4,101.68 44.35,101.8 44.28,101.96 C44.2,102.14 44.09,102.4 43.93,102.74 L38.9,113.97 C38.81,114.13 38.73,114.19 38.65,114.15 C38.63,114.14 38.61,114.11 38.59,114.07 C38.57,114.04 38.54,113.97 38.5,113.87 C38.47,113.81 38.43,113.72 38.37,113.6 C38.33,113.5 38.26,113.35 38.17,113.15 C38.08,112.94 37.94,112.63 37.76,112.23 C29.35,93.48 20.95,74.74 12.55,56 C10.07,50.49 7.6,44.98 5.13,39.47 C5.07,39.38 4.96,39.26 4.8,39.12 C4.69,39.02 4.47,38.82 4.15,38.54 C3.97,38.39 3.74,38.18 3.44,37.93 C3.17,37.69 2.8,37.37 2.33,36.96 C1.83,36.53 1.16,35.95 0.31,35.21 C0.17,35.09 0.09,35.02 0.05,34.98 C0.03,34.95 0.01,34.93 0,34.91 C-0,34.89 0,34.85 0.02,34.81 C0.03,34.77 0.08,34.75 0.17,34.75 C0.23,34.74 0.36,34.74 0.56,34.74 C0.68,34.74 0.86,34.74 1.09,34.74 C1.29,34.74 1.59,34.74 1.98,34.74 C2.4,34.74 3.01,34.74 3.82,34.74 L6.57,34.74 C9.55,34.74 12.53,34.75 15.51,34.75 L15.51,34.75 z"/>   <path fill="#000000" d="M312.25,42.68 C313.06,42.95 313.51,43.85 313.62,45.38 C313.64,45.65 313.65,45.88 313.66,46.07 C313.68,46.48 313.75,46.81 313.88,47.06 C314.01,47.29 314.19,47.48 314.45,47.62 C314.72,47.77 315.09,47.89 315.58,47.97 C316.1,48.06 316.5,48.09 316.77,48.05 C317,48.01 317.22,47.91 317.41,47.76 C317.63,47.58 317.9,47.26 318.23,46.79 C318.46,46.46 318.75,46.08 319.1,45.65 C319.46,45.21 319.69,44.94 319.82,44.84 C320.01,44.69 320.19,44.6 320.37,44.57 C320.53,44.54 320.71,44.55 320.92,44.61 C321.14,44.67 321.44,44.79 321.81,44.98 L323.68,45.93 C324.2,46.19 324.56,46.39 324.76,46.54 C324.93,46.67 325.05,46.8 325.11,46.93 C325.18,47.08 325.2,47.29 325.16,47.56 C325.14,47.69 325.09,47.82 325.03,47.98 C324.97,48.1 324.88,48.29 324.75,48.53 C324.6,48.82 324.31,49.36 323.89,50.13 C323.73,50.43 323.63,50.69 323.6,50.9 C323.57,51.1 323.59,51.29 323.65,51.47 C323.73,51.67 323.88,51.9 324.1,52.16 C324.4,52.51 324.7,52.77 325,52.93 C325.29,53.09 325.6,53.17 325.93,53.17 C326.28,53.17 326.67,53.09 327.1,52.93 C327.28,52.86 327.4,52.81 327.46,52.79 C327.5,52.77 327.57,52.74 327.65,52.71 C327.7,52.69 327.77,52.66 327.86,52.62 C327.95,52.58 328.07,52.53 328.21,52.47 C328.37,52.4 328.6,52.29 328.91,52.16 C329.51,51.9 329.94,51.76 330.2,51.73 C330.42,51.71 330.62,51.75 330.79,51.86 C330.99,51.99 331.26,52.28 331.58,52.74 C332.09,53.46 332.51,54.1 332.84,54.66 C333.17,55.22 333.35,55.59 333.38,55.78 C333.4,55.99 333.35,56.18 333.22,56.35 C333.11,56.49 332.91,56.67 332.62,56.87 C332.28,57.11 331.69,57.48 330.85,57.98 C330.38,58.26 330.05,58.5 329.85,58.7 C329.67,58.89 329.55,59.09 329.5,59.3 C329.45,59.52 329.47,59.82 329.57,60.17 C329.7,60.63 329.86,60.99 330.04,61.25 C330.21,61.5 330.42,61.69 330.66,61.81 C330.92,61.93 331.25,62 331.65,62.01 C331.92,62.01 332.09,62.02 332.17,62.02 C332.22,62.02 332.28,62.03 332.36,62.03 C332.41,62.04 332.47,62.04 332.56,62.05 C332.64,62.06 332.74,62.07 332.88,62.08 C333.02,62.09 333.24,62.11 333.52,62.13 C333.71,62.14 333.9,62.16 334.09,62.17 C334.59,62.21 334.96,62.29 335.18,62.41 C335.38,62.52 335.53,62.69 335.61,62.92 C335.7,63.18 335.74,63.59 335.73,64.15 L335.75,65.62 C335.76,66.4 335.7,66.93 335.57,67.21 C335.46,67.45 335.26,67.62 334.97,67.73 C334.63,67.86 333.97,67.95 332.99,68.02 C332.03,68.08 331.43,68.12 331.18,68.15 C331,68.17 330.86,68.2 330.76,68.23 C330.64,68.26 330.5,68.35 330.33,68.49 C330.02,68.78 329.79,69.24 329.65,69.88 C329.52,70.51 329.55,70.97 329.74,71.25 C329.84,71.38 329.91,71.47 329.96,71.51 C330,71.54 330.06,71.58 330.15,71.64 C330.2,71.67 330.28,71.72 330.38,71.78 C330.47,71.83 330.6,71.91 330.76,72.01 C330.94,72.11 331.2,72.27 331.55,72.48 C332.21,72.87 332.67,73.17 332.93,73.38 C333.16,73.55 333.32,73.72 333.4,73.87 C333.49,74.04 333.51,74.25 333.47,74.5 C333.44,74.61 333.34,74.82 333.18,75.12 C333.02,75.42 332.82,75.76 332.58,76.13 C332.35,76.5 332.12,76.83 331.91,77.12 C331.7,77.42 331.55,77.61 331.45,77.7 C330.73,78.33 329.75,78.36 328.5,77.78 L327.47,77.3 C327.05,77.1 326.67,76.99 326.33,76.96 C326,76.94 325.69,76.99 325.4,77.12 C325.09,77.25 324.77,77.48 324.44,77.8 C324.11,78.13 323.91,78.43 323.84,78.69 C323.78,78.92 323.8,79.19 323.89,79.5 C324,79.85 324.25,80.37 324.64,81.06 C325,81.69 325.23,82.14 325.35,82.4 C325.44,82.63 325.49,82.81 325.48,82.94 C325.47,83.1 325.39,83.27 325.22,83.43 C325.05,83.59 324.66,83.85 324.05,84.19 C323.44,84.53 322.75,84.89 321.98,85.25 C321.42,85.51 321.03,85.65 320.78,85.65 C320.58,85.65 320.37,85.58 320.18,85.43 C319.94,85.25 319.56,84.82 319.04,84.17 L318.46,83.44 C318.19,83.07 317.98,82.81 317.82,82.64 C317.68,82.5 317.54,82.39 317.4,82.33 C317.25,82.25 317.05,82.21 316.8,82.19 C316.45,82.17 316.07,82.21 315.65,82.31 C315.22,82.41 314.9,82.53 314.69,82.68 C314.44,82.86 314.25,83.06 314.14,83.28 C314.05,83.47 313.97,83.73 313.92,84.06 C313.85,84.45 313.79,85.08 313.73,85.97 C313.69,86.56 313.61,86.97 313.51,87.18 C313.41,87.37 313.26,87.5 313.05,87.57 C312.8,87.66 312.34,87.71 311.68,87.72 C310.41,87.75 309.54,87.75 309.06,87.74 C308.66,87.72 308.37,87.69 308.17,87.65 C307.94,87.59 307.76,87.47 307.61,87.31 C307.48,87.14 307.4,86.97 307.35,86.81 C307.31,86.68 307.28,86.5 307.25,86.26 C307.22,85.98 307.18,85.44 307.14,84.65 C307.11,84.11 307.02,83.69 306.88,83.38 C306.74,83.09 306.54,82.87 306.27,82.71 C305.99,82.53 305.58,82.4 305.05,82.31 C304.56,82.24 304.16,82.25 303.86,82.35 C303.6,82.44 303.33,82.61 303.06,82.86 C302.76,83.16 302.34,83.66 301.82,84.38 C301.34,85.04 300.97,85.46 300.72,85.63 C300.51,85.77 300.28,85.82 300.02,85.78 C299.71,85.73 299.18,85.5 298.43,85.1 L296.8,84.27 C296.3,84.01 295.95,83.79 295.77,83.62 C295.61,83.46 295.53,83.29 295.52,83.11 C295.5,82.9 295.59,82.6 295.76,82.21 L296.89,80.05 C297.07,79.72 297.15,79.41 297.12,79.12 C297.1,78.85 296.99,78.58 296.79,78.31 C296.57,78.04 296.25,77.75 295.81,77.45 C295.53,77.26 295.28,77.16 295.03,77.12 C294.81,77.09 294.55,77.11 294.25,77.18 C293.92,77.26 293.47,77.42 292.89,77.66 C292.07,78.01 291.44,78.22 291.02,78.3 C290.65,78.37 290.33,78.36 290.07,78.26 C289.78,78.15 289.48,77.91 289.17,77.52 C288.76,77 288.36,76.44 287.97,75.82 C287.58,75.2 287.36,74.79 287.32,74.57 C287.28,74.37 287.3,74.21 287.38,74.08 C287.44,73.97 287.56,73.84 287.73,73.7 C287.95,73.54 288.33,73.28 288.9,72.93 C289.58,72.51 290.07,72.18 290.38,71.95 C290.65,71.74 290.85,71.55 290.98,71.38 C291.12,71.18 291.22,70.95 291.26,70.68 C291.31,70.29 291.22,69.9 291,69.5 C290.78,69.1 290.49,68.82 290.13,68.65 C289.94,68.56 289.77,68.5 289.63,68.47 C289.51,68.44 289.36,68.42 289.16,68.4 C288.91,68.37 288.4,68.33 287.62,68.26 C287.05,68.22 286.59,68.13 286.24,68.01 C285.91,67.89 285.65,67.72 285.46,67.51 C285.27,67.29 285.14,67 285.08,66.65 C285.02,66.28 284.99,65.71 285,64.94 C285.01,64.18 285.04,63.68 285.11,63.45 C285.34,62.71 285.8,62.46 286.48,62.71 C286.57,62.75 286.63,62.78 286.66,62.79 C286.68,62.8 286.71,62.82 286.74,62.85 C286.79,62.89 286.97,63.02 287.28,63.25 C287.7,63.57 288.1,63.83 288.48,64.01 C288.83,64.18 289.22,64.32 289.67,64.45 C290.16,64.59 290.83,64.73 291.67,64.88 C292.18,64.97 292.52,65.06 292.67,65.15 C292.79,65.22 292.88,65.32 292.94,65.47 C293,65.64 293.06,66.02 293.11,66.59 C293.35,69.26 294.37,71.75 296.19,74.06 C297.98,76.32 300.33,78.04 303.24,79.22 C305.62,80.18 308.04,80.65 310.52,80.62 C313,80.6 315.4,80.08 317.7,79.07 C320.5,77.84 322.78,76.13 324.54,73.95 C326.31,71.76 327.32,69.39 327.58,66.82 C327.75,65.21 327.67,63.68 327.36,62.25 C326.63,58.96 324.85,56.14 322.01,53.78 C321.45,53.32 320.94,52.95 320.49,52.65 C319.54,52.04 318.6,51.53 317.66,51.14 C316.75,50.75 315.79,50.45 314.78,50.23 C313.73,50 312.57,49.85 311.3,49.77 C310.97,49.75 310.71,49.73 310.54,49.72 C310.38,49.71 310.25,49.7 310.16,49.69 C310.06,49.69 309.99,49.68 309.93,49.68 C309.84,49.67 309.76,49.66 309.7,49.66 C309.62,49.65 309.42,49.62 309.11,49.57 C308.48,47.55 307.84,45.53 307.21,43.51 C307.18,43.3 307.21,43.13 307.29,43.01 C307.37,42.9 307.5,42.81 307.68,42.74 C307.88,42.68 308.17,42.63 308.55,42.6 C310.32,42.46 311.56,42.49 312.25,42.68 L312.25,42.68 z"/>   <path fill="#000000" d="M52.54,70.55 C53,69.47 52.8,69.96 54,67.16 L64.83,42 L83.51,42.09 L51.12,114.37 L20.18,45.97 C19.87,45.69 16.29,42.59 16.12,42.46 C16.01,42.38 15.95,42.23 15.99,42.17 C16.05,42.08 15.79,42.08 18.49,42.09 C19.51,42.09 18.88,42.09 22.88,42.09 L24.86,42.09 C29.03,42.09 33.19,42.09 37.36,42.09 L51.19,73.67 C51.96,71.89 51.77,72.34 52.54,70.55 L52.54,70.55 zM415.84,0.74 C416.2,1.12 416.35,1.54 416.31,2.02 C416.23,2.9 415.8,3.48 414.99,3.79 C414.19,4.08 413.38,3.98 412.58,3.49 C412.24,3.26 412.01,2.91 411.9,2.46 C411.78,2.01 411.82,1.59 412.02,1.21 C412.24,0.8 412.58,0.48 413.04,0.25 C413.49,0.03 413.95,-0.04 414.43,0.03 C415.02,0.13 415.49,0.37 415.84,0.74 L415.84,0.74 zM436.05,4.46 C436.37,4.83 436.54,5.23 436.54,5.69 C436.5,6.39 436.11,6.95 435.36,7.36 C434.89,7.6 434.39,7.68 433.84,7.59 C433.3,7.5 432.84,7.26 432.47,6.88 C431.83,6.16 431.78,5.42 432.31,4.65 C432.9,3.85 433.72,3.54 434.78,3.73 C435.3,3.86 435.72,4.1 436.05,4.46 L436.05,4.46 zM401.69,11.74 C401.76,11.78 402.03,11.93 402.48,12.19 C404.5,13.37 406.75,14.05 409.23,14.26 C410.53,14.36 411.89,14.33 413.31,14.14 C414.98,13.93 416.53,13.46 417.96,12.76 C418.07,12.7 418.16,12.67 418.24,12.67 C418.32,12.67 418.37,12.7 418.39,12.75 C418.41,12.81 418.42,12.85 418.41,12.87 C418.41,12.88 418.4,12.89 418.38,12.92 C418.35,12.95 418.25,13.05 418.08,13.22 C417.34,14.05 416.73,15.07 416.22,16.29 C415.72,17.5 415.44,18.67 415.37,19.8 C415.24,21.88 415.52,23.7 416.21,25.25 C416.33,25.48 416.44,25.72 416.56,25.95 L417.01,26.85 L417.21,27.1 C417.27,27.18 417.3,27.26 417.29,27.35 C417.29,27.43 417.26,27.49 417.2,27.52 C417.15,27.54 417.12,27.54 417.09,27.53 C417.07,27.53 417.03,27.51 416.99,27.48 C416.92,27.45 416.66,27.3 416.21,27.05 C414.41,26.03 412.54,25.37 410.58,25.04 C408.34,24.66 406.13,24.73 403.96,25.24 C403.22,25.42 402.53,25.62 401.9,25.84 C401.27,26.06 400.85,26.26 400.63,26.42 C400.56,26.47 400.48,26.51 400.39,26.52 C400.3,26.53 400.23,26.52 400.18,26.49 C400.14,26.46 400.12,26.42 400.14,26.37 C400.15,26.33 400.19,26.27 400.25,26.18 C400.33,26.08 400.47,25.91 400.67,25.67 C401.2,25.04 401.68,24.28 402.11,23.36 C402.54,22.45 402.83,21.58 402.98,20.77 C403.32,18.96 403.28,17.18 402.86,15.42 C402.78,15.09 402.7,14.82 402.63,14.61 C402.56,14.43 402.48,14.22 402.36,13.99 C402.24,13.72 402.01,13.27 401.69,12.65 C401.58,12.43 401.51,12.3 401.49,12.26 C401.47,12.23 401.46,12.21 401.45,12.2 C401.44,12.18 401.41,12.14 401.36,12.09 C401.33,12.04 401.3,11.99 401.28,11.93 C401.26,11.88 401.25,11.84 401.26,11.8 C401.27,11.77 401.29,11.74 401.32,11.71 C401.35,11.68 401.39,11.67 401.42,11.66 L401.58,11.68 C401.61,11.69 401.64,11.71 401.69,11.74 L401.69,11.74 zM426.11,13.66 L426.2,13.71 C426.25,13.74 426.46,13.86 426.81,14.08 C427.43,14.45 428.16,14.85 429,15.27 C429.85,15.7 430.55,16.02 431.12,16.24 C435.99,18.14 441.01,18.69 446.15,17.88 C448.08,17.57 449.87,17.12 451.54,16.51 C452.54,16.14 453.33,15.8 453.92,15.49 C454.27,15.32 454.47,15.29 454.51,15.4 C454.54,15.46 454.55,15.51 454.54,15.55 C454.53,15.57 454.51,15.61 454.47,15.66 C454.41,15.72 454.28,15.87 454.06,16.11 C453.56,16.65 453,17.42 452.38,18.41 C451.77,19.41 451.28,20.35 450.92,21.21 C450.58,22.02 450.31,22.75 450.11,23.39 C449.92,24 449.77,24.63 449.66,25.27 C449.53,25.95 449.43,26.77 449.35,27.7 C449.3,28.22 449.29,28.7 449.3,29.15 C449.29,29.33 449.29,29.52 449.28,29.7 C449.28,29.79 449.28,29.85 449.28,29.88 C449.29,29.9 449.29,29.94 449.3,30 C449.31,30.07 449.35,30.35 449.41,30.83 L449.52,31.9 C449.58,32.55 449.74,33.33 450.01,34.26 C450.27,35.19 450.53,35.95 450.81,36.53 L451.51,37.99 C451.69,38.34 451.8,38.54 451.84,38.61 C451.86,38.65 451.88,38.69 451.91,38.72 C451.93,38.77 452.01,38.91 452.15,39.15 C452.28,39.37 452.39,39.6 452.5,39.84 C452.66,40.14 452.67,40.31 452.54,40.34 C452.48,40.36 452.45,40.36 452.43,40.36 C452.42,40.36 452.4,40.35 452.37,40.33 C452.33,40.31 452.2,40.23 451.98,40.08 C451.76,39.94 451.21,39.64 450.33,39.17 C449.44,38.7 448.84,38.38 448.52,38.23 C446.81,37.43 444.89,36.8 442.76,36.36 C440.64,35.92 438.54,35.7 436.47,35.73 C434.63,35.74 432.82,35.93 431.03,36.27 C429.81,36.51 428.53,36.86 427.19,37.32 C425.85,37.77 424.89,38.19 424.3,38.56 C424.07,38.69 423.92,38.7 423.84,38.57 C423.79,38.49 423.88,38.33 424.1,38.1 C425.46,36.64 426.6,34.82 427.51,32.66 C428.1,31.27 428.53,29.8 428.82,28.25 C429.24,25.97 429.22,23.67 428.75,21.36 C428.55,20.39 428.37,19.62 428.21,19.06 C428.07,18.57 427.89,18.08 427.68,17.6 C427.44,17.05 427.07,16.3 426.57,15.35 C426.31,14.87 426.16,14.58 426.12,14.5 C426.09,14.44 426.06,14.4 426.04,14.36 C426.01,14.32 425.93,14.2 425.8,14.02 C425.7,13.85 425.68,13.72 425.76,13.63 C425.8,13.59 425.88,13.59 426,13.62 C426.05,13.64 426.09,13.65 426.11,13.66 L426.11,13.66 zM439.99,47.29 C440.29,48.07 440.16,48.75 439.61,49.35 C439.29,49.68 438.88,49.88 438.36,49.97 C437.84,50.06 437.36,50.01 436.9,49.82 C435.88,49.35 435.49,48.64 435.72,47.69 C435.95,46.72 436.64,46.18 437.78,46.07 C437.85,46.07 437.92,46.07 437.99,46.07 C439.02,46.16 439.69,46.57 439.99,47.29 L439.99,47.29 zM425.39,83.72 L406.93,83.72 C406.93,79.71 406.93,75.7 406.93,71.69 L425.39,71.69 C425.39,75.7 425.39,79.71 425.39,83.72 L425.39,83.72 zM376.65,41.95 C377.08,41.96 377.59,41.99 378.18,42.02 L378.18,42.02 L380.63,42.1 C384.36,42.23 387.65,42.58 390.52,43.14 C393.36,43.7 395.76,44.44 397.72,45.38 C399.64,46.29 401.22,47.43 402.44,48.78 C403.69,50.16 404.62,51.81 405.23,53.74 C405.34,54.08 405.41,54.3 405.43,54.37 C405.44,54.43 405.46,54.49 405.48,54.56 C405.5,54.66 405.56,54.99 405.68,55.55 C405.74,55.87 405.84,56.2 405.97,56.53 L386.59,56.52 L385.5,55.33 C384.87,54.74 384.1,54.26 383.21,53.88 C382.33,53.5 381.29,53.21 380.08,52.99 C378.86,52.77 377.41,52.63 375.75,52.56 C374.17,52.49 372.48,52.52 370.69,52.65 C369.79,52.71 369.06,52.77 368.5,52.82 C367.99,52.87 367.53,52.93 367.12,52.99 C366.67,53.06 366.2,53.16 365.7,53.27 C362.78,53.96 361.35,55.03 361.42,56.5 C361.46,57 362.09,57.41 363.32,57.72 C364.72,58.08 366.93,58.33 369.95,58.46 L371.37,58.57 L376.39,58.75 L382.24,59.12 C387.65,59.45 392.08,60.08 395.53,60.99 C398.94,61.88 401.49,63.08 403.17,64.56 C404.89,66.07 405.76,67.92 405.8,70.12 C405.88,75.04 403.24,78.72 397.88,81.14 C396.54,81.75 395.09,82.27 393.54,82.7 C392.01,83.12 390.32,83.47 388.48,83.76 C386.61,84.05 384.5,84.28 382.16,84.45 C381.82,84.47 381.56,84.49 381.39,84.5 C381.23,84.52 381.1,84.52 381,84.53 C380.9,84.54 380.82,84.54 380.76,84.55 C380.65,84.56 380.56,84.56 380.47,84.56 C380.34,84.57 379.96,84.58 379.34,84.6 L377.77,84.68 C377.4,84.71 376.79,84.72 375.96,84.73 C375.13,84.74 374.21,84.74 373.22,84.73 C372.23,84.73 371.33,84.72 370.54,84.7 C369.74,84.69 369.19,84.67 368.88,84.64 C368.07,84.62 367.26,84.59 366.46,84.55 C364.01,84.45 361.64,84.22 359.36,83.87 C357.09,83.53 355.14,83.1 353.53,82.59 C349.9,81.43 347.15,79.8 345.3,77.69 C343.68,75.84 342.65,73.67 342.21,71.16 C342.16,70.86 342.14,70.54 342.16,70.2 L361.36,70.2 C361.54,70.42 361.68,70.6 361.78,70.72 C361.87,70.83 361.94,70.91 361.99,70.97 C362.05,71.04 362.09,71.09 362.13,71.13 C362.18,71.19 362.23,71.25 362.27,71.29 C362.34,71.35 362.51,71.48 362.78,71.7 C364.37,72.94 366.89,73.71 370.36,74.02 C371.18,74.1 372.38,74.13 373.98,74.14 C375.57,74.14 376.76,74.11 377.54,74.04 L378.96,73.92 C380.41,73.79 381.71,73.56 382.87,73.22 C384.03,72.89 384.91,72.49 385.5,72.03 C385.96,71.67 386.26,71.29 386.41,70.89 C386.56,70.49 386.53,70.15 386.32,69.87 C386.06,69.56 385.66,69.32 385.12,69.13 C384.63,68.96 383.93,68.81 383.05,68.68 C382.09,68.55 380.74,68.42 378.99,68.3 C378.14,68.24 377.19,68.19 376.12,68.14 C375.06,68.09 374.23,68.06 373.63,68.05 C371.51,67.94 369.4,67.83 367.29,67.71 C363.25,67.47 359.78,67.12 356.88,66.65 C354.02,66.19 351.6,65.6 349.64,64.89 C347.64,64.16 346.03,63.27 344.83,62.22 C343.01,60.65 342.08,58.67 342.05,56.3 C342.04,55.81 342.1,55.19 342.24,54.43 C342.38,53.68 342.54,53.06 342.73,52.57 C343.35,50.92 344.34,49.47 345.7,48.25 C347.04,47.03 348.77,46 350.89,45.15 C353.04,44.29 355.63,43.59 358.68,43.05 C359.96,42.83 361.45,42.62 363.13,42.44 C364.81,42.26 366.33,42.15 367.68,42.1 L372.58,41.93 C373.83,41.92 374.75,41.92 375.33,41.93 C375.84,41.93 376.28,41.94 376.65,41.95 L376.65,41.95 zM287.99,38.23 L288.13,38.24 C288.21,38.25 288.46,38.28 288.9,38.34 C289.01,38.36 289.08,38.37 289.11,38.37 C289.13,38.37 289.16,38.37 289.2,38.37 C289.25,38.38 289.44,38.38 289.77,38.39 C290.11,38.43 290.45,38.47 290.78,38.51 C291.09,38.52 291.39,38.55 291.69,38.57 C292.42,38.62 293.05,38.68 293.58,38.76 C293.68,38.77 293.74,38.78 293.77,38.78 C293.79,38.79 293.83,38.79 293.87,38.79 C293.93,38.79 294.15,38.79 294.54,38.79 L296.66,39.02 C296.93,39.05 297.2,39.07 297.48,39.09 C297.83,39.13 298.33,39.19 298.97,39.29 C299.61,39.38 300.01,39.45 300.15,39.49 C300.65,39.63 301.19,39.82 301.77,40.06 C302.47,40.35 303.1,40.73 303.66,41.2 C304.09,41.55 304.51,42.04 304.91,42.68 C305.32,43.31 305.58,43.87 305.7,44.35 C305.74,44.49 305.81,44.69 305.92,44.94 C305.94,45.01 305.96,45.06 305.96,45.08 C305.97,45.1 305.97,45.13 305.97,45.16 C305.98,45.21 306,45.39 306.03,45.71 C306.17,46.29 306.3,46.87 306.44,47.46 C306.48,47.69 306.52,47.93 306.56,48.17 C306.57,48.24 306.58,48.28 306.58,48.3 C306.59,48.31 306.59,48.33 306.6,48.35 C306.61,48.39 306.65,48.5 306.71,48.69 L306.85,49.41 C306.85,49.42 306.88,49.51 306.92,49.67 C306.96,49.84 307.01,50.05 307.07,50.28 C307.13,50.52 307.18,50.72 307.22,50.88 L307.28,51.14 C307.38,51.39 307.43,51.54 307.45,51.58 C307.46,51.61 307.47,51.64 307.47,51.66 C307.48,51.69 307.51,51.77 307.54,51.91 C307.57,52 307.59,52.05 307.6,52.08 C307.61,52.1 307.62,52.13 307.63,52.16 C307.66,52.22 307.74,52.39 307.88,52.7 L308.14,53.32 C308.31,53.75 308.63,54.33 309.09,55.06 C309.55,55.8 309.94,56.34 310.25,56.71 C310.46,56.95 310.62,57.14 310.73,57.26 C310.83,57.38 310.91,57.47 310.96,57.54 C311.03,57.61 311.08,57.67 311.12,57.72 C311.18,57.79 311.24,57.85 311.3,57.91 C311.38,57.99 311.63,58.21 312.03,58.58 L313.38,59.89 C314.14,60.55 314.89,61.2 315.64,61.85 C315.81,62 315.92,62.1 315.96,62.14 C315.99,62.16 316.03,62.2 316.07,62.24 C316.12,62.3 316.31,62.49 316.63,62.84 C316.75,62.96 316.85,63.06 316.93,63.13 C316.99,63.18 317.08,63.27 317.22,63.39 C317.31,63.46 317.43,63.56 317.59,63.7 C317.65,63.75 317.74,63.83 317.86,63.93 C317.98,64.03 318.09,64.13 318.21,64.22 C318.5,64.47 318.92,64.83 319.47,65.3 C319.82,65.6 320.13,65.91 320.37,66.22 C320.43,66.29 320.47,66.34 320.49,66.36 C320.51,66.37 320.53,66.39 320.56,66.4 C320.6,66.43 320.75,66.52 321,66.67 C321.1,66.73 321.25,66.86 321.47,67.06 C321.54,67.12 321.6,67.11 321.66,67.04 C321.67,67.02 321.68,67 321.68,67 C321.68,66.99 321.68,66.98 321.68,66.97 C321.68,66.95 321.68,66.88 321.68,66.76 C321.68,66.71 321.72,66.63 321.78,66.51 C321.82,66.44 321.87,66.19 321.93,65.75 C321.99,65.32 322.02,64.98 322.03,64.72 C322.04,64.42 322.04,64.24 322.03,64.15 C322.03,64.09 322.02,64.02 322,63.92 C321.99,63.86 321.98,63.77 321.96,63.67 C321.94,63.57 321.91,63.44 321.88,63.26 C321.84,63.07 321.79,62.8 321.72,62.44 C321.67,62.2 321.64,62.05 321.62,61.98 C321.61,61.94 321.59,61.88 321.56,61.81 C321.54,61.77 321.52,61.71 321.49,61.64 C321.46,61.58 321.42,61.49 321.37,61.36 C321.31,61.23 321.23,61.05 321.12,60.8 C320.96,60.45 320.86,60.23 320.81,60.14 C320.78,60.06 320.73,59.99 320.68,59.91 C320.61,59.81 320.42,59.56 320.12,59.16 L319.85,58.77 C319.55,58.34 319.12,57.86 318.55,57.33 C317.98,56.8 317.44,56.37 316.91,56.04 C316.55,55.81 316.28,55.64 316.09,55.54 C315.93,55.46 315.75,55.37 315.55,55.29 C315.29,55.18 314.82,55 314.13,54.74 C313.82,54.63 313.61,54.56 313.52,54.53 C313.45,54.51 313.36,54.49 313.24,54.48 C313.17,54.46 313.08,54.45 312.95,54.43 C312.84,54.41 312.68,54.39 312.49,54.36 C312.27,54.33 311.95,54.28 311.55,54.22 C311.07,54.15 310.63,53.97 310.23,53.67 C310.1,53.56 309.95,53.33 309.76,52.96 C309.57,52.6 309.45,52.29 309.4,52.05 C309.36,51.88 309.31,51.72 309.24,51.59 C309.19,51.47 309.18,51.35 309.2,51.24 C309.23,51.13 309.29,51.06 309.37,51.04 C309.41,51.03 309.5,51.03 309.63,51.05 C309.67,51.05 309.71,51.05 309.72,51.05 C309.74,51.05 309.76,51.05 309.79,51.04 C309.83,51.03 309.97,51.01 310.22,50.96 C310.47,50.91 310.63,50.89 310.7,50.89 C310.74,50.88 310.8,50.88 310.87,50.89 C310.98,50.9 311.33,50.93 311.92,50.99 L313.36,51.13 C313.75,51.21 314.18,51.32 314.65,51.45 C315.11,51.59 315.47,51.72 315.71,51.83 C315.95,51.91 316.18,52 316.41,52.08 L317.77,52.74 C318.64,53.21 319.42,53.74 320.12,54.33 C320.2,54.4 320.25,54.44 320.27,54.46 C320.29,54.47 320.31,54.48 320.33,54.5 C320.37,54.52 320.49,54.61 320.7,54.74 C320.81,54.81 320.87,54.86 320.9,54.88 C320.92,54.9 320.94,54.92 320.96,54.94 C321,54.98 321.11,55.12 321.31,55.36 C321.35,55.41 321.38,55.44 321.4,55.45 C321.41,55.47 321.43,55.48 321.45,55.51 C321.49,55.54 321.62,55.67 321.86,55.88 L322.53,56.64 C322.81,56.95 323.08,57.31 323.37,57.71 C323.67,58.15 323.91,58.53 324.1,58.85 C324.27,59.14 324.43,59.46 324.59,59.8 C324.76,60.18 324.97,60.68 325.21,61.31 C325.36,61.7 325.48,62.18 325.57,62.74 C325.66,63.29 325.71,63.81 325.72,64.29 C325.72,64.72 325.73,65.15 325.74,65.58 C325.74,65.97 325.74,66.23 325.74,66.34 C325.73,66.42 325.72,66.51 325.7,66.6 C325.67,66.74 325.59,67.1 325.46,67.68 C325.44,67.76 325.43,67.81 325.42,67.83 C325.42,67.85 325.42,67.87 325.41,67.89 C325.41,67.93 325.39,68.05 325.37,68.25 C325.35,68.36 325.33,68.44 325.32,68.49 C325.31,68.52 325.29,68.58 325.26,68.66 C325.24,68.71 325.21,68.78 325.17,68.87 C325.16,68.91 325.14,68.96 325.11,69.03 C325.08,69.11 325.06,69.17 325.04,69.23 C324.97,69.39 324.88,69.63 324.76,69.94 C324.5,70.6 324.15,71.29 323.7,72.01 C323.35,72.56 322.95,73.09 322.5,73.62 C322.21,73.96 321.98,74.22 321.83,74.38 C321.7,74.51 321.55,74.65 321.39,74.8 C321.19,74.97 320.85,75.26 320.36,75.66 C320.02,75.94 319.76,76.15 319.58,76.28 C319.43,76.39 319.25,76.51 319.04,76.63 C318.79,76.79 318.31,77.07 317.6,77.47 C317.18,77.71 316.61,77.97 315.88,78.24 C315.16,78.51 314.56,78.69 314.1,78.79 L313.43,78.93 C311.61,79.29 310,79.39 308.58,79.24 C306.77,79.04 305.47,78.79 304.67,78.49 L304.08,78.29 C303.68,78.15 303.22,77.96 302.71,77.73 C302.21,77.49 301.77,77.27 301.41,77.06 L300.76,76.68 C300.68,76.64 300.62,76.6 300.6,76.59 C300.58,76.57 300.55,76.55 300.52,76.52 C300.46,76.49 300.28,76.35 299.96,76.1 L298.69,75.14 C297.88,74.41 297.08,73.46 296.29,72.31 C296.08,72 295.95,71.81 295.91,71.73 C295.87,71.67 295.84,71.61 295.8,71.52 C295.77,71.47 295.74,71.4 295.7,71.32 C295.65,71.23 295.6,71.12 295.53,70.98 C295.46,70.83 295.35,70.6 295.21,70.3 C295.06,70 294.95,69.69 294.86,69.37 L294.69,68.88 C294.46,68.21 294.33,67.58 294.3,66.99 C294.29,66.89 294.29,66.82 294.29,66.79 C294.28,66.77 294.28,66.75 294.27,66.72 C294.26,66.67 294.23,66.52 294.17,66.25 C294.13,66.09 294.11,65.85 294.11,65.55 C294.11,65.24 294.13,65.07 294.16,65.04 C294.18,65.02 294.22,65.01 294.29,65.01 C294.34,65.01 294.44,65.01 294.58,65.01 C294.67,65.01 294.8,65.01 294.97,65.01 C295.14,65.01 295.36,65.01 295.63,65.01 C295.94,65 296.4,65 297,65 C297.29,65 297.46,65 297.51,65 L297.57,65.01 C297.59,65.02 297.61,65.04 297.64,65.07 C297.65,65.09 297.66,65.11 297.66,65.12 C297.66,65.13 297.66,65.15 297.66,65.18 C297.66,65.23 297.65,65.38 297.63,65.65 C297.63,65.72 297.64,65.77 297.64,65.79 C297.64,65.8 297.65,65.82 297.65,65.84 C297.66,65.87 297.7,65.98 297.76,66.17 L297.85,66.91 C297.88,67.07 297.9,67.18 297.91,67.25 C297.92,67.3 297.94,67.36 297.97,67.43 C298,67.53 298.08,67.78 298.21,68.18 C298.24,68.29 298.27,68.4 298.3,68.52 C298.32,68.6 298.34,68.66 298.35,68.68 C298.36,68.7 298.36,68.72 298.38,68.75 C298.4,68.79 298.46,68.93 298.58,69.16 L298.76,69.65 C298.84,69.86 298.89,70 298.92,70.04 C298.94,70.08 298.96,70.12 298.99,70.16 C299.03,70.22 299.17,70.42 299.4,70.74 C299.5,70.89 299.6,71.04 299.7,71.19 C300.39,72.19 301.38,73.11 302.68,73.95 C302.88,74.08 303.01,74.16 303.05,74.19 C303.09,74.21 303.12,74.23 303.17,74.25 C303.23,74.28 303.43,74.39 303.78,74.57 C304.25,74.81 304.56,74.96 304.7,75.03 C304.82,75.08 304.94,75.13 305.06,75.18 C305.23,75.24 305.63,75.37 306.24,75.56 C306.55,75.66 306.73,75.72 306.8,75.74 C306.84,75.75 306.89,75.76 306.95,75.77 C307.02,75.78 307.27,75.82 307.69,75.89 C308.23,75.98 308.64,76.05 308.92,76.08 C309.17,76.11 309.4,76.13 309.62,76.14 C309.86,76.14 310.17,76.13 310.53,76.11 C310.85,76.08 311.32,76.02 311.94,75.91 C312.57,75.8 312.98,75.72 313.18,75.65 L315.2,75 C315.35,74.97 315.51,74.93 315.67,74.91 C311.67,71.45 307.68,68 303.69,64.54 C302.85,63.97 301.91,63.62 300.88,63.48 C300.56,63.44 300.36,63.41 300.29,63.41 C300.23,63.4 300.16,63.4 300.08,63.39 C299.96,63.39 299.57,63.37 298.9,63.35 L297.53,63.24 L293.79,63.22 C293.26,63.19 292.73,63.15 292.19,63.11 L290.61,63.06 C289.14,63.02 287.86,62.54 286.76,61.64 C286.49,61.41 286.27,61.23 286.12,61.08 C286.01,60.96 285.86,60.81 285.69,60.61 C285.47,60.37 285.04,59.88 284.4,59.13 C283.82,58.45 283.23,57.77 282.65,57.08 L279.28,53.1 C279.23,53.04 279.2,53 279.19,52.98 C279.18,52.97 279.17,52.96 279.15,52.94 C279.14,52.91 279.07,52.82 278.97,52.67 C278.91,52.58 278.87,52.53 278.85,52.51 C278.84,52.49 278.82,52.47 278.79,52.45 C278.75,52.41 278.62,52.3 278.4,52.09 C278.06,51.77 277.95,51.24 278.07,50.51 C278.08,50.43 278.1,50.37 278.11,50.35 C278.12,50.34 278.13,50.32 278.15,50.29 C278.17,50.26 278.27,50.14 278.43,49.94 C278.57,49.76 278.74,49.58 278.93,49.4 L288.76,54.42 C288.94,54.53 289.05,54.6 289.09,54.62 C289.12,54.64 289.16,54.66 289.21,54.68 C289.27,54.71 289.48,54.81 289.84,54.97 C290.08,55.09 290.28,55.15 290.44,55.16 C290.58,55.17 290.73,55.15 290.89,55.09 C291.08,55.02 291.35,54.87 291.71,54.66 C292.31,54.29 292.95,53.75 293.63,53.03 C294.3,52.32 294.83,51.63 295.23,50.94 C295.41,50.63 295.58,50.26 295.75,49.82 C295.82,49.67 295.9,49.53 295.97,49.38 C296.01,49.31 296.03,49.26 296.04,49.24 C296.04,49.22 296.05,49.2 296.06,49.17 C296.07,49.12 296.11,48.97 296.18,48.7 C296.22,48.59 296.26,48.47 296.29,48.36 C296.34,48.07 296.39,47.78 296.43,47.49 C296.44,47.46 296.44,47.44 296.45,47.42 C296.45,47.41 296.45,47.4 296.46,47.38 C296.46,47.36 296.49,47.26 296.54,47.1 C296.72,46.39 296.38,45.81 295.52,45.34 C295.44,45.3 295.35,45.25 295.27,45.2 L294.81,44.96 C294.36,44.72 293.97,44.53 293.62,44.37 L290.79,42.9 C289.6,42.28 288.68,41.8 288.03,41.46 C287.43,41.15 286.98,40.91 286.67,40.74 C286.35,40.57 286.15,40.45 286.07,40.39 C285.63,40.07 285.41,39.71 285.41,39.33 C285.4,38.94 285.6,38.6 286.02,38.32 C286.07,38.29 286.14,38.27 286.24,38.25 C286.33,38.24 286.46,38.23 286.64,38.23 C286.84,38.22 287.14,38.22 287.56,38.22 C287.8,38.22 287.94,38.22 287.99,38.23 L287.99,38.23 zM263.59,46 C265.99,47.53 267.83,49.44 269.11,51.74 C270.38,54.05 270.95,56.47 270.8,59 C270.75,59.83 270.67,60.55 270.55,61.16 C270.13,63.28 269.23,65.24 267.83,67.03 C266.43,68.82 264.64,70.31 262.47,71.49 L260.73,72.37 L270.7,83.49 C270.73,83.54 270.74,83.6 270.73,83.65 C270.72,83.69 270.66,83.71 270.55,83.71 C270.48,83.72 270.32,83.72 270.07,83.72 C269.92,83.72 269.71,83.72 269.42,83.72 C269.16,83.73 268.79,83.73 268.32,83.73 C267.81,83.73 267.06,83.73 266.07,83.73 C261.11,83.73 256.15,83.73 251.2,83.73 L242.53,74.03 C242.44,73.96 242.36,73.93 242.29,73.92 C242.24,73.91 242.14,73.91 242.01,73.9 C241.93,73.9 241.81,73.9 241.65,73.9 C241.51,73.9 241.31,73.9 241.05,73.9 C240.77,73.9 240.35,73.9 239.81,73.9 L226.28,73.9 C226.28,77.17 226.28,80.45 226.28,83.72 L207.82,83.72 L207.82,43 L253.63,43.02 C257.32,43.14 260.64,44.13 263.59,46 L263.59,46 zM226.26,55.12 L226.26,61.74 L248.91,61.74 C249.64,61.68 250.29,61.45 250.88,61.03 C251.47,60.62 251.89,60.1 252.14,59.47 C252.47,58.58 252.38,57.72 251.87,56.9 C251.64,56.53 251.4,56.24 251.14,56.03 C250.37,55.41 249.43,55.11 248.33,55.11 L226.26,55.12 L226.26,55.12 zM176.88,52.83 L158.66,52.84 C158.66,54.59 158.66,56.35 158.66,58.11 C165.76,58.1 172.85,58.1 179.94,58.09 C181.04,57.98 181.81,57.43 182.25,56.43 C182.38,56.12 182.45,55.86 182.48,55.64 C182.5,55.44 182.49,55.23 182.44,55.03 C182.39,54.81 182.28,54.56 182.12,54.26 C181.99,54.03 181.81,53.81 181.58,53.6 C181.24,53.3 180.93,53.1 180.64,53 C180.39,52.92 180.06,52.87 179.65,52.84 C179.15,52.81 178.22,52.81 176.88,52.83 L176.88,52.83 zM181.3,68.63 L158.66,68.65 L158.66,73.98 C166.65,73.98 174.63,73.98 182.62,73.98 C183.08,73.95 183.46,73.91 183.76,73.84 C184.04,73.77 184.28,73.67 184.5,73.55 C184.73,73.42 184.95,73.23 185.17,72.99 C185.9,72.16 186.07,71.3 185.7,70.41 C185.53,70.04 185.27,69.7 184.94,69.4 C184.65,69.16 184.36,68.98 184.07,68.87 C183.81,68.77 183.49,68.7 183.11,68.66 C182.69,68.62 182.09,68.61 181.3,68.63 L181.3,68.63 zM187.98,43.19 C188.65,43.27 189.28,43.38 189.89,43.51 C190.55,43.66 191.3,43.88 192.12,44.16 C194.67,45.02 196.65,46.39 198.06,48.27 C198.63,49.03 199.07,49.87 199.37,50.77 C200.04,52.76 200.05,54.79 199.42,56.86 C198.77,58.96 197.42,60.73 195.37,62.17 C195.31,62.22 195.19,62.3 195.01,62.43 C194.83,62.55 194.71,62.64 194.65,62.68 C195.04,62.82 195.34,62.92 195.55,62.99 C195.73,63.06 195.88,63.11 195.99,63.15 C196.1,63.19 196.2,63.22 196.26,63.25 C196.38,63.29 196.47,63.33 196.55,63.36 C196.66,63.41 196.94,63.55 197.4,63.79 C200.48,65.37 202.35,67.64 203.01,70.6 C203.23,71.61 203.3,72.66 203.2,73.76 C203.11,74.87 202.87,75.84 202.49,76.68 C201.24,79.5 198.8,81.52 195.19,82.73 C193.27,83.38 191.22,83.7 189.03,83.7 L140.22,83.73 L140.22,43 L185.36,43.03 C186.39,43.06 187.26,43.11 187.98,43.19 L187.98,43.19 zM106.98,100.47 L128.24,100.46 C128.3,100.48 128.35,100.5 128.38,100.54 C128.4,100.57 128.41,100.61 128.4,100.65 C128.39,100.68 128.32,100.77 128.19,100.91 C128.09,101.02 127.9,101.22 127.63,101.51 C127.49,101.65 127.33,101.82 127.13,102.03 C126.94,102.23 126.7,102.49 126.4,102.79 C126.1,103.11 125.72,103.52 125.25,104 L114.91,114.89 C114.77,114.98 114.64,115.03 114.53,115.04 C114.45,115.05 114.29,115.06 114.06,115.06 C113.93,115.06 113.73,115.06 113.47,115.06 C113.23,115.06 112.9,115.06 112.47,115.06 C112.01,115.06 111.32,115.06 110.43,115.06 L91.47,115.06 L91.46,40.61 C91.44,40.42 91.42,40.29 91.4,40.23 C91.38,40.19 91.36,40.13 91.32,40.08 C91.27,39.99 91.12,39.77 90.86,39.41 L90.05,38.19 C89.2,36.92 88.36,35.66 87.5,34.39 C93.82,34.39 100.13,34.39 106.45,34.39 L106.98,34.39 L106.98,49.56 C106.98,66.46 106.98,83.35 106.98,100.25 L106.98,100.47 L106.98,100.47 zM428.23,95.69 L428.25,95.77 C428.26,95.82 428.26,96.03 428.27,96.4 C428.27,96.61 428.26,96.76 428.25,96.85 C428.24,96.93 428.22,96.98 428.19,97.02 C428.15,97.06 428.09,97.09 428,97.1 L402.67,97.11 L402.67,104.44 C406.99,104.44 411.31,104.45 415.63,104.45 L425.38,104.45 C425.46,104.48 425.52,104.5 425.53,104.52 C425.54,104.54 425.54,104.57 425.55,104.62 C425.55,104.68 425.55,104.93 425.56,105.37 C425.56,105.56 425.56,105.68 425.54,105.74 C425.53,105.79 425.5,105.82 425.46,105.84 C425.41,105.86 425.31,105.87 425.15,105.87 L402.67,105.87 L402.67,113.56 L428.98,113.58 C429.05,113.6 429.1,113.62 429.13,113.66 C429.15,113.68 429.16,113.72 429.16,113.78 C429.17,113.85 429.17,113.99 429.17,114.2 C429.17,114.63 429.16,114.88 429.14,114.94 C429.13,114.99 429.1,115.02 429.06,115.03 C429.01,115.05 428.8,115.06 428.43,115.06 L399.39,115.05 L399.39,95.62 L428.08,95.63 C428.17,95.65 428.22,95.67 428.23,95.69 L428.23,95.69 zM378.37,97.47 C378.63,97.58 378.89,97.69 379.15,97.79 L379.56,97.94 C379.76,98.02 379.85,98.12 379.84,98.23 C379.83,98.28 379.81,98.31 379.8,98.33 C379.79,98.34 379.77,98.35 379.75,98.36 C379.71,98.38 379.56,98.44 379.31,98.56 C379.13,98.64 378.81,98.8 378.37,99.03 C378.22,99.1 378.1,99.15 378,99.16 C377.92,99.18 377.83,99.17 377.74,99.15 C377.64,99.13 377.49,99.07 377.29,98.98 C376.24,98.53 374.91,98.13 373.3,97.77 C371.69,97.41 370.23,97.19 368.93,97.11 C368.47,97.07 368,97.04 367.54,97 C366.86,96.95 365.77,96.94 364.26,96.95 C362.76,96.97 361.62,97.01 360.85,97.07 C360.65,97.08 360.44,97.1 360.24,97.12 C359.39,97.17 358.39,97.29 357.23,97.49 C356.06,97.7 354.97,97.93 353.97,98.2 C351.44,98.87 349.4,99.78 347.86,100.91 C346.31,102.05 345.44,103.3 345.23,104.65 C344.86,107.05 346.35,109.11 349.68,110.84 C352.55,112.32 356.27,113.24 360.87,113.59 C362.69,113.73 364.61,113.76 366.65,113.7 L368.37,113.59 C371.37,113.39 373.91,112.92 375.98,112.19 C376.18,112.12 376.38,112.04 376.58,111.97 L376.59,105.45 C376.61,105.39 376.64,105.35 376.69,105.34 C376.73,105.32 376.79,105.31 376.89,105.31 C377,105.3 377.26,105.3 377.65,105.3 C377.86,105.3 378.05,105.3 378.22,105.3 L378.63,105.3 C378.84,105.3 379,105.3 379.11,105.3 C379.24,105.3 379.33,105.3 379.4,105.3 C379.51,105.3 379.58,105.31 379.62,105.32 C379.67,105.33 379.72,105.37 379.76,105.45 C379.77,107.86 379.77,110.27 379.78,112.69 L377.5,113.51 C375.38,114.16 372.76,114.64 369.63,114.95 C369.37,114.98 369.2,114.99 369.13,115 C369.08,115 369.02,115.01 368.94,115.01 C368.89,115.01 368.82,115.02 368.73,115.02 C368.7,115.02 368.65,115.03 368.59,115.03 C368.52,115.03 368.46,115.04 368.41,115.04 C368.26,115.05 368.04,115.06 367.75,115.08 L365.49,115.2 C364.13,115.22 362.72,115.18 361.26,115.08 L359.05,114.93 C357.43,114.75 356.01,114.55 354.77,114.33 C353.58,114.11 352.49,113.86 351.48,113.57 C350.43,113.27 349.4,112.9 348.39,112.47 C346.33,111.59 344.75,110.57 343.63,109.41 C342.52,108.24 341.93,106.99 341.87,105.66 C341.81,104.23 342.23,102.95 343.14,101.83 C344.55,100.07 346.91,98.63 350.2,97.5 C353.24,96.46 356.8,95.82 360.87,95.58 C363.51,95.43 366.19,95.45 368.92,95.64 C372.65,95.91 375.8,96.52 378.37,97.47 L378.37,97.47 zM312.85,95.63 C312.92,95.64 313,95.68 313.07,95.73 C313.16,95.79 313.33,95.94 313.57,96.18 L325.14,107.5 C327.65,109.96 330.16,112.42 332.66,114.87 C332.69,114.93 332.66,114.98 332.57,115.02 C332.54,115.04 332.5,115.05 332.43,115.05 C332.38,115.05 332.28,115.05 332.12,115.05 C332.03,115.05 331.9,115.05 331.72,115.05 C331.56,115.05 331.33,115.05 331.05,115.05 C330.73,115.05 330.27,115.05 329.66,115.05 C329.44,115.05 329.31,115.04 329.26,115.03 C329.22,115.03 329.19,115.01 329.16,114.99 C329.11,114.96 329.01,114.86 328.84,114.69 C328.47,114.33 327.71,113.59 326.57,112.46 C325.43,111.33 324.56,110.47 323.97,109.87 C323.87,109.78 323.79,109.72 323.73,109.69 C323.68,109.67 323.62,109.65 323.54,109.65 C323.44,109.64 323.23,109.64 322.92,109.64 L299.03,109.62 L298.96,109.61 C297.18,111.39 295.39,113.18 293.61,114.96 C293.52,115.01 293.44,115.04 293.37,115.04 C293.32,115.05 293.23,115.05 293.1,115.05 C293.01,115.05 292.9,115.05 292.74,115.06 C292.6,115.06 292.4,115.06 292.15,115.06 C291.87,115.06 291.46,115.05 290.93,115.05 C290.54,115.05 290.32,115.05 290.26,115.05 C290.22,115.05 290.19,115.05 290.18,115.05 C290.15,115.04 290.12,115.03 290.08,115 C290,114.94 290.07,114.8 290.29,114.57 C290.47,114.42 291.09,113.82 292.17,112.78 C293.24,111.73 294.27,110.73 295.25,109.77 L309.62,95.74 C309.74,95.67 309.84,95.63 309.92,95.62 C309.98,95.6 310.08,95.6 310.2,95.6 C310.36,95.59 310.72,95.6 311.27,95.62 C311.61,95.61 311.94,95.6 312.27,95.59 C312.56,95.59 312.75,95.6 312.85,95.63 L312.85,95.63 zM300.5,108.24 L300.59,108.29 C307.59,108.3 314.59,108.3 321.6,108.3 C321.96,108.31 322.16,108.29 322.19,108.25 C322.22,108.21 322.19,108.16 322.12,108.08 C322.08,108.03 321.97,107.92 321.8,107.76 C321.7,107.66 321.56,107.51 321.36,107.32 C321.19,107.15 320.94,106.9 320.62,106.58 C320.27,106.24 319.76,105.73 319.08,105.07 L316.43,102.46 C314.73,100.77 313.02,99.09 311.31,97.41 L300.47,108.18 C300.46,108.2 300.47,108.22 300.5,108.24 L300.5,108.24 zM250.38,97.12 L250.38,107.3 C255.36,107.3 260.33,107.29 265.31,107.28 C267.14,107.19 268.82,106.99 270.34,106.68 C273.3,106.07 275.19,105.09 276.01,103.76 C276.48,102.99 276.59,102.21 276.36,101.4 C276.12,100.59 275.58,99.9 274.73,99.34 C274.56,99.23 274.38,99.12 274.2,99.02 C272.62,98.15 270.38,97.58 267.5,97.3 C267.09,97.26 266.77,97.23 266.54,97.21 C266.33,97.19 266.14,97.18 265.99,97.17 C265.83,97.16 265.67,97.15 265.51,97.15 C265.25,97.14 264.84,97.13 264.29,97.13 C263.96,97.13 263.48,97.13 262.87,97.13 C262.31,97.12 261.53,97.12 260.52,97.12 C259.42,97.12 257.82,97.12 255.72,97.12 L250.38,97.12 L250.38,97.12 zM269.55,96.03 C272.64,96.43 275.05,97.09 276.8,98.03 C278.54,98.96 279.54,100.12 279.81,101.51 C279.91,102.06 279.87,102.66 279.7,103.3 C279.28,104.8 277.84,106.02 275.38,106.96 C274,107.49 272.59,107.87 271.14,108.08 L269.98,108.26 C273.46,110.45 276.94,112.65 280.42,114.84 C280.46,114.89 280.48,114.94 280.47,114.97 C280.46,115 280.44,115.03 280.41,115.04 C280.39,115.04 280.36,115.05 280.31,115.05 C280.25,115.05 280.09,115.05 279.85,115.05 L277.22,115.05 C277,115.03 276.85,115.01 276.79,114.98 C276.74,114.97 276.68,114.94 276.59,114.89 C276.55,114.86 276.48,114.82 276.39,114.76 C276.3,114.71 276.19,114.64 276.05,114.55 C275.89,114.45 275.66,114.3 275.36,114.11 L266.78,108.72 C266.65,108.67 266.51,108.64 266.34,108.63 C266.2,108.62 265.98,108.63 265.7,108.64 C265.35,108.65 264.7,108.68 263.73,108.74 C263.32,108.76 263.01,108.78 262.79,108.78 C262.64,108.78 262.38,108.79 262.01,108.79 C261.78,108.79 261.46,108.79 261.04,108.79 C260.64,108.79 260.11,108.79 259.43,108.79 C258.68,108.79 257.58,108.79 256.14,108.79 L250.4,108.79 L250.38,114.83 C250.36,114.92 250.32,114.98 250.28,115 C250.25,115.02 250.19,115.04 250.11,115.04 C250.01,115.05 249.75,115.05 249.33,115.05 C248.86,115.05 248.49,115.05 248.25,115.05 C248.02,115.05 247.84,115.05 247.72,115.05 C247.58,115.05 247.48,115.05 247.41,115.05 C247.29,115.05 247.21,115.04 247.17,115.03 C247.11,115.02 247.07,114.98 247.05,114.9 C247.04,108.47 247.04,102.04 247.04,95.62 L264.89,95.63 C266.7,95.73 268.25,95.86 269.55,96.03 L269.55,96.03 zM212.81,95.62 L213.02,95.62 C213.14,95.63 213.24,95.63 213.32,95.64 C213.44,95.66 213.54,95.69 213.62,95.74 C213.68,95.77 213.74,95.82 213.81,95.88 C213.87,95.94 213.96,96.02 214.06,96.12 C214.18,96.23 214.34,96.39 214.56,96.6 L225.75,107.54 L225.75,107.54 L232.73,114.37 C232.88,114.52 233.04,114.68 233.2,114.83 C233.26,114.98 233.14,115.06 232.83,115.07 C232.21,115.07 231.74,115.07 231.42,115.07 C231.13,115.07 230.9,115.07 230.73,115.07 C230.55,115.07 230.41,115.07 230.32,115.07 C230.16,115.07 230.06,115.07 230.01,115.07 C229.93,115.06 229.88,115.06 229.83,115.04 C229.77,115.02 229.62,114.9 229.39,114.68 C229.2,114.51 228.88,114.2 228.43,113.75 C228.23,113.55 227.98,113.31 227.69,113.02 C227.41,112.74 227.07,112.41 226.68,112.02 C226.27,111.61 225.77,111.11 225.18,110.53 C224.74,110.09 224.48,109.85 224.4,109.78 C224.34,109.74 224.27,109.71 224.21,109.69 C224.11,109.67 223.81,109.66 223.31,109.65 L199.76,109.65 C199.62,109.67 199.53,109.69 199.48,109.72 C199.45,109.74 199.4,109.78 199.33,109.84 C199.29,109.88 199.24,109.93 199.16,110 C199.1,110.07 199.01,110.16 198.89,110.27 C198.76,110.4 198.57,110.59 198.33,110.83 L194.16,114.98 C194.06,115.03 193.96,115.05 193.86,115.07 C193.79,115.07 193.66,115.08 193.49,115.08 C193.27,115.08 192.77,115.08 191.97,115.07 C191.35,115.06 190.99,115.06 190.9,115.06 C190.83,115.06 190.79,115.06 190.76,115.05 C190.73,115.05 190.71,115.04 190.7,115.03 C190.68,115.02 190.67,114.99 190.66,114.96 C190.65,114.93 190.66,114.9 190.66,114.87 C190.67,114.83 190.71,114.78 190.77,114.7 C190.83,114.63 190.93,114.53 191.06,114.4 C191.21,114.25 191.45,114.01 191.78,113.69 C197.97,107.65 204.17,101.61 210.36,95.57 L211.58,95.63 C212,95.62 212.32,95.62 212.54,95.62 L212.81,95.62 L212.81,95.62 zM201.12,108.2 L201.18,108.27 C201.2,108.29 201.26,108.3 201.36,108.3 C201.43,108.3 201.57,108.3 201.79,108.3 C201.92,108.3 202.11,108.3 202.37,108.3 C202.6,108.3 202.92,108.3 203.34,108.3 C203.8,108.3 204.46,108.3 205.34,108.3 C211.11,108.3 216.88,108.3 222.65,108.3 C222.71,108.29 222.75,108.26 222.76,108.21 C222.78,108.16 222.79,108.13 222.78,108.12 C222.78,108.11 222.76,108.09 222.74,108.07 C222.71,108.04 222.59,107.93 222.38,107.75 L217.01,102.45 C215.3,100.76 213.59,99.08 211.89,97.39 L201.11,108.12 C201.1,108.14 201.1,108.17 201.12,108.2 L201.12,108.2 zM167.09,95.63 C169.94,95.8 172.61,96.24 175.08,96.96 C176.05,97.25 176.99,97.58 177.88,97.96 C178.07,98.04 178.17,98.11 178.18,98.18 C178.19,98.22 178.17,98.26 178.12,98.3 C178.09,98.33 178.01,98.37 177.91,98.43 C177.78,98.49 177.51,98.62 177.11,98.8 L176.7,99.01 C176.53,99.1 176.4,99.14 176.31,99.16 C176.23,99.17 176.15,99.16 176.06,99.14 C175.96,99.12 175.77,99.05 175.5,98.95 C174.28,98.47 173.05,98.09 171.81,97.8 C170.6,97.52 169.31,97.31 167.94,97.17 C166.53,97.03 164.94,96.95 163.19,96.95 C161.68,96.94 160.23,96.99 158.84,97.09 L158.69,97.1 C156.49,97.25 154.32,97.63 152.19,98.22 C150.05,98.82 148.31,99.54 146.96,100.39 C144.79,101.75 143.61,103.33 143.42,105.12 C143.35,106.11 143.73,107.14 144.57,108.21 C145.59,109.51 147.21,110.61 149.44,111.51 C151.67,112.41 154.34,113.05 157.44,113.42 C159.69,113.69 162.18,113.79 164.91,113.7 L166.57,113.6 C168.99,113.44 171.52,112.99 174.14,112.24 L174.84,112.04 L174.86,105.6 C174.88,105.49 174.91,105.43 174.95,105.39 C174.98,105.36 175.04,105.34 175.11,105.32 C175.2,105.31 175.35,105.3 175.58,105.3 C176.08,105.29 176.58,105.29 177.09,105.29 C177.59,105.3 177.85,105.3 177.88,105.3 C178,105.34 178.05,105.48 178.04,105.72 L178.04,112.73 L175.77,113.52 C173.31,114.26 170.5,114.75 167.35,115.01 C166.89,115.03 166.42,115.05 165.96,115.08 L163.6,115.2 C162.18,115.21 160.8,115.17 159.46,115.08 L157.36,114.93 C153.56,114.59 150.25,113.86 147.41,112.76 C144.56,111.65 142.54,110.29 141.33,108.67 C140.32,107.33 139.95,105.93 140.21,104.46 C140.47,103 141.33,101.67 142.79,100.48 C145.62,98.17 150.02,96.64 156,95.88 C157.16,95.73 158.67,95.61 160.53,95.51 C162.43,95.4 164.26,95.42 166.03,95.57 C166.38,95.59 166.74,95.61 167.09,95.63 L167.09,95.63 zM49.96,123.37 L440.72,123.37 L440.72,127.62 L49.96,127.62 L49.96,123.37 L49.96,123.37 zM64.15,152.58 C64.15,152.58 64.15,152.58 64.15,152.59 C64.15,154.97 62.2,156.8 58.69,157.7 C56.97,158.13 54.9,158.35 52.45,158.35 C49.62,158.35 47.05,158.03 44.71,157.39 L44.71,152.45 C47.06,153.6 49.91,154.3 52.26,154.3 C54.09,154.3 55.06,153.86 55.06,153.04 C55.06,152.74 54.94,152.48 54.71,152.27 C54.46,152.05 54.08,151.83 53.59,151.65 C53.09,151.46 52.17,151.19 50.84,150.85 C46.5,149.73 44.34,147.93 44.34,145.44 C44.34,143.7 45.32,142.32 47.31,141.27 C49.28,140.22 51.95,139.69 55.27,139.69 C56.92,139.69 58.48,139.78 60.02,139.96 C60.66,140.03 61.56,140.17 62.72,140.39 L62.72,144.98 C60.45,144.14 58.23,143.73 56.04,143.73 C54.2,143.73 53.03,144.22 53.03,145 C53.03,145.38 53.26,145.69 53.71,145.95 C54.15,146.19 55.11,146.52 56.49,146.89 C59.27,147.65 61.25,148.48 62.42,149.39 C63.57,150.28 64.15,151.35 64.15,152.58 L64.15,152.58 zM67.44,158.04 L67.44,140 L84.21,140 L84.21,144.25 L75.55,144.25 L75.55,146.88 L83.68,146.88 L83.68,151.13 L75.55,151.13 L75.55,153.78 L84.83,153.78 L84.83,158.04 L67.44,158.04 L67.44,158.04 zM102.63,158.04 L100.63,154.15 C99.82,152.58 98.55,151.69 97.1,151.69 L96.77,151.69 L96.77,158.04 L88.66,158.04 L88.66,140 L99.44,140 C105,140 108.38,140.89 109.77,142.73 C110.24,143.36 110.48,144.1 110.48,144.95 C110.48,147.46 108.35,149.15 104.25,149.9 L104.25,149.95 C105.39,150.19 106.33,150.56 107.1,151.1 C107.85,151.62 108.53,152.4 109.13,153.44 L111.78,158.04 L102.63,158.04 L102.63,158.04 zM101.86,145.72 C101.86,145.12 101.58,144.64 101.04,144.28 C100.49,143.93 99.63,143.76 98.44,143.76 L96.77,143.76 L96.77,147.88 L98.24,147.88 C99.34,147.88 100.22,147.68 100.87,147.27 C101.53,146.85 101.86,146.34 101.86,145.72 L101.86,145.72 zM130.24,158.04 L121.13,158.04 L112.44,140 L121.17,140 L125.27,151.11 C125.6,152.02 125.79,152.69 125.83,153.12 L126.01,153.12 C126.09,152.53 126.28,151.83 126.57,151.02 L130.6,140 L139.05,140 L130.24,158.04 L130.24,158.04 zM141.9,158.04 L141.9,140 L150.01,140 L150.01,158.04 L141.9,158.04 L141.9,158.04 zM174.02,152.58 C174.02,152.58 174.02,152.58 174.02,152.59 C174.02,154.97 172.06,156.8 168.55,157.7 C166.84,158.13 164.76,158.35 162.32,158.35 C159.49,158.35 156.91,158.03 154.58,157.39 L154.58,152.45 C156.92,153.6 159.77,154.3 162.13,154.3 C163.95,154.3 164.93,153.86 164.93,153.04 C164.93,152.74 164.81,152.48 164.57,152.27 C164.32,152.05 163.95,151.83 163.46,151.65 C162.95,151.46 162.04,151.19 160.7,150.85 C156.37,149.73 154.2,147.93 154.2,145.44 C154.2,143.7 155.19,142.32 157.17,141.27 C159.14,140.22 161.81,139.69 165.13,139.69 C166.79,139.69 168.35,139.78 169.89,139.96 C170.52,140.03 171.42,140.17 172.59,140.39 L172.59,144.98 C170.31,144.14 168.09,143.73 165.9,143.73 C164.06,143.73 162.9,144.22 162.9,145 C162.9,145.38 163.12,145.69 163.58,145.95 C164.02,146.19 164.98,146.52 166.36,146.89 C169.13,147.65 171.11,148.48 172.28,149.39 C173.44,150.28 174.02,151.35 174.02,152.58 L174.02,152.58 zM205.64,158.06 L204.06,156.83 C202.37,157.71 199.07,158.35 196.2,158.35 C196.19,158.35 196.18,158.35 196.17,158.35 C193.12,158.35 190.75,157.9 189.04,157.01 C187.34,156.13 186.49,154.87 186.49,153.26 C186.49,152.32 187,151.42 188.03,150.55 C189.06,149.68 190.61,148.9 192.72,148.2 C190.94,146.88 190.04,145.54 190.04,144.22 C190.04,142.88 190.82,141.8 192.4,140.95 C193.95,140.11 195.99,139.69 198.52,139.69 C200.91,139.69 202.84,140.07 204.31,140.83 C205.76,141.57 206.49,142.58 206.49,143.82 C206.49,144.82 206.05,145.69 205.19,146.4 C204.33,147.12 202.96,147.77 201.08,148.35 L204.91,151.25 C205.47,150.5 205.75,149.48 205.75,148.2 L211.88,148.2 C211.87,149.42 211.62,150.51 211.11,151.48 C210.61,152.44 209.77,153.32 208.61,154.12 L214,158.06 L205.64,158.06 L205.64,158.06 zM200.31,144.1 C200.31,143.73 200.12,143.43 199.73,143.18 C199.34,142.92 198.87,142.79 198.34,142.79 C197.06,142.79 196.27,143.28 196.27,144.07 C196.27,144.62 196.65,145.04 198.22,146.24 C198.99,145.92 199.54,145.59 199.86,145.25 C200.16,144.91 200.31,144.53 200.31,144.1 L200.31,144.1 zM195.54,150.39 C195.03,150.54 194.59,150.84 194.22,151.27 C193.86,151.69 193.68,152.15 193.68,152.65 C193.68,153.36 194.03,153.93 194.75,154.37 C195.45,154.81 196.31,155.02 197.37,155.02 C198.6,155.02 199.82,154.74 200.69,154.27 L195.54,150.39 L195.54,150.39 zM252.48,148.79 C252.48,152.48 250.14,155.34 245.85,156.89 C243.74,157.65 241.29,158.04 238.49,158.04 L227.09,158.04 L227.09,140 L238.24,140 C247.73,140 252.48,142.93 252.48,148.79 L252.48,148.79 zM243.86,148.84 C243.86,147.04 242.75,145.6 240.78,144.83 C239.79,144.44 238.63,144.25 237.31,144.25 L235.2,144.25 L235.2,153.78 L237.47,153.78 C239.42,153.78 240.97,153.34 242.13,152.44 C243.28,151.55 243.86,150.34 243.86,148.84 L243.86,148.84 zM256.27,158.04 L256.27,140 L273.04,140 L273.04,144.25 L264.39,144.25 L264.39,146.88 L272.52,146.88 L272.52,151.13 L264.39,151.13 L264.39,153.78 L273.67,153.78 L273.67,158.04 L256.27,158.04 L256.27,158.04 zM291.19,144.25 L291.19,158.04 L283.04,158.04 L283.04,144.25 L275.5,144.25 L275.5,140 L298.81,140 L298.81,144.25 L291.19,144.25 L291.19,144.25 zM318.93,158.04 L317.74,154.71 L309.7,154.71 L308.43,158.04 L299.66,158.04 L308.93,140 L319,140 L327.73,158.04 L318.93,158.04 L318.93,158.04 zM313.82,143.92 L313.63,143.92 C313.61,144.1 313.54,144.38 313.37,144.91 C312.61,146.89 311.85,148.87 311.09,150.85 L316.24,150.85 L314.38,145.94 C314.09,145.2 313.91,144.53 313.82,143.92 L313.82,143.92 zM330.89,158.04 L330.89,140 L339,140 L339,158.04 L330.89,158.04 L330.89,158.04 zM344.3,158.04 L344.3,140 L352.41,140 L352.41,153.78 L361.69,153.78 L361.69,158.04 L344.3,158.04 L344.3,158.04 zM365.11,158.04 L365.11,140 L373.22,140 L373.22,158.04 L365.11,158.04 L365.11,158.04 zM397.33,158.04 L387.83,149.33 C387.02,148.58 386.43,147.99 385.99,147.47 L385.91,147.47 C385.99,148.36 386.03,149.36 386.03,150.46 L386.03,158.04 L378.51,158.04 L378.51,140 L386.18,140 L395.29,148.27 C395.73,148.7 395.62,148.59 396.07,149.01 L396.66,149.59 C396.81,149.76 396.91,149.89 396.98,150 L397.05,150 C396.98,149.63 396.94,148.99 396.94,148.08 L396.94,140 L404.45,140 L404.45,158.04 L397.33,158.04 L397.33,158.04 zM433.34,156.85 C432.35,157.23 430.87,157.57 428.79,157.89 C426.79,158.19 424.85,158.35 423.02,158.35 C418.31,158.35 414.67,157.56 412.1,155.98 C409.53,154.4 408.24,152.19 408.25,149.33 C408.25,147.42 408.9,145.72 410.2,144.23 C412.78,141.27 417.57,139.7 423.98,139.7 C426.33,139.7 428.83,139.92 431.48,140.36 L431.48,145.1 C430.2,144.72 429.03,144.46 427.91,144.31 C426.77,144.17 425.52,144.1 424.17,144.1 C421.95,144.1 420.18,144.54 418.85,145.44 C417.53,146.33 416.86,147.56 416.86,149.13 C416.86,150.64 417.42,151.82 418.54,152.66 C419.65,153.51 421.19,153.93 423.17,153.93 C424.06,153.93 424.77,153.9 425.22,153.83 L425.22,151.25 L420.06,151.25 L420.06,147.14 L433.34,147.14 L433.34,156.85 L433.34,156.85 z"/>  </g> </svg>