<svg xmlns="http://www.w3.org/2000/svg" xml:space="preserve" shape-rendering="geometricPrecision" text-rendering="geometricPrecision" image-rendering="optimizeQuality" fill-rule="evenodd" clip-rule="evenodd" xmlns:xlink="http://www.w3.org/1999/xlink" viewBox="0 0 858.54 777.49">  <g id="Layer_1">   <metadata id="FutureCorpID_Layer"/>    <path fill="#000000" d="M0,0 L858.54,0 L858.54,777.49 L0,777.49 L0,0 L0,0 z"/>   <path fill="#FFFFFF" d="M496.32,285 C498.57,288.27 499.83,293.84 500.1,301.7 C500.37,309.56 499.52,316.19 497.55,321.57 C496.82,323.57 495.98,325.17 495.03,326.36 C494.13,327.49 493.04,328.38 491.76,329.04 C490.41,329.73 488.69,330.23 486.6,330.56 L480.85,331.32 L480.91,290.33 C481.01,288.42 481.2,286.91 481.48,285.82 C481.75,284.8 482.14,283.99 482.65,283.4 C483.19,282.77 483.96,282.28 484.94,281.96 C489.99,280.53 493.79,281.55 496.32,285 L496.32,285 zM436.39,277.58 C436.25,277.59 436.16,277.6 436.1,277.63 C436.01,277.66 435.9,277.8 435.74,278.03 C435.69,278.11 435.66,278.28 435.65,278.57 C435.63,278.85 435.63,279.18 435.65,279.54 C435.67,279.9 435.71,280.22 435.75,280.5 C435.8,280.77 435.86,280.94 435.91,280.99 C436.14,281.22 436.29,281.35 436.38,281.39 C436.44,281.42 436.53,281.45 436.66,281.47 C436.83,281.49 437.47,281.57 438.58,281.69 C440.74,281.94 442.36,282.34 443.45,282.89 C444.45,283.4 445.2,284.13 445.7,285.09 C446.26,286.13 446.63,287.67 446.83,289.72 L446.99,371.04 C447,374.69 446.94,377.44 446.82,379.29 C446.71,380.97 446.51,382.28 446.23,383.21 C445.91,384.25 445.41,385.06 444.73,385.66 C443.69,386.58 441.45,387.21 438.02,387.55 C437.19,387.65 436.59,387.79 436.25,387.96 C435.94,388.1 435.74,388.32 435.63,388.59 C435.51,388.9 435.48,389.4 435.54,390.09 C435.6,390.72 435.7,391.12 435.85,391.27 C435.96,391.39 436.16,391.47 436.46,391.51 C436.84,391.56 437.82,391.57 439.38,391.54 L459.46,391.16 L488,391.73 C493.52,391.84 498.22,391.77 502.1,391.52 C505.75,391.29 509.16,390.85 512.35,390.21 C515.74,389.53 519.36,388.52 523.19,387.19 C526.69,385.98 530.1,384.02 533.42,381.32 C537.93,377.64 540.83,372.81 542.13,366.84 C543.43,360.86 542.76,355.43 540.11,350.53 C537.57,345.86 533.41,341.94 527.63,338.8 C521.84,335.65 514.97,333.54 507,332.48 C505.57,332.29 504.14,332.11 502.71,331.93 C502.11,331.98 501.61,331.96 501.22,331.88 C500.82,331.8 500.63,331.67 500.64,331.49 C500.64,331.45 500.69,331.42 500.78,331.39 C500.85,331.37 500.99,331.34 501.2,331.3 C501.5,331.23 502.64,330.97 504.64,330.53 C513.11,328.65 520.18,325.07 525.85,319.79 C531.52,314.51 534.35,308.89 534.34,302.91 C534.2,297 531.85,291.98 527.29,287.87 C522.74,283.75 516.36,280.87 508.15,279.23 L508.09,279.21 C505.32,278.65 502.73,278.26 500.32,278.02 C498.12,277.81 495.64,277.68 492.88,277.64 C489.84,277.59 485.79,277.64 480.73,277.79 C475.14,277.95 468.42,278.02 460.56,277.98 C452.7,277.95 447.22,277.84 444.14,277.64 C442.52,277.54 440.68,277.5 438.63,277.53 C437.34,277.55 436.59,277.57 436.39,277.58 L436.39,277.58 zM485.02,334.03 C485.44,334.08 486.77,334.26 489,334.59 C491.69,334.98 494.13,335.68 496.33,336.7 C503.59,340.08 507.43,347.19 507.84,358.02 C508.12,365.46 507.23,371.81 505.18,377.08 C502.11,384.94 495.97,388.23 486.76,386.92 C484.75,386.59 483.34,385.86 482.55,384.73 C481.86,383.75 481.38,382.17 481.14,380.01 C480.85,377.52 480.76,373.28 480.88,367.28 L480.92,334.06 C482.72,334 483.81,333.97 484.19,333.98 C484.45,333.98 484.73,334 485.02,334.03 L485.02,334.03 zM567.74,292.64 C560.43,300 555.45,308.99 552.82,319.63 C550.19,330.26 550.24,341.15 552.96,352.3 C555.72,363.59 561.24,372.78 569.5,379.86 C577.77,386.95 588.14,391.38 600.62,393.18 C618.2,395.7 633.45,393.07 646.37,385.3 C656.89,378.97 664.53,370.29 669.29,359.27 C674.05,348.25 675.45,336.02 673.47,322.57 C672.01,312.6 668.34,303.83 662.49,296.24 C657.66,289.98 651.24,285.03 643.21,281.37 C634.63,277.46 624.99,275.42 614.3,275.27 L614.26,275.26 C595,275.04 579.5,280.84 567.74,292.64 L567.74,292.64 zM630.21,291.48 C634.82,299.31 637.72,309.39 638.94,321.75 C639.23,324.75 639.42,327.23 639.5,329.18 C639.58,330.91 639.6,332.72 639.56,334.62 C639.52,336.77 639.4,339.73 639.2,343.49 C638.52,355.96 636.28,366.33 632.47,374.61 C628.65,382.88 623.81,387.86 617.94,389.53 C612.71,391.03 607.83,390.11 603.28,386.79 C597.94,382.89 593.77,376.51 590.75,367.65 C587.73,358.78 586.16,348.35 586.05,336.34 C585.9,320.48 587.82,307.41 591.82,297.15 C595.82,286.88 601.3,280.92 608.26,279.27 C609.92,278.92 611.82,278.82 613.96,278.98 C620.24,279.57 625.66,283.73 630.21,291.48 L630.21,291.48 zM744.13,277.83 C743.73,278.27 743.52,278.79 743.5,279.38 C743.48,279.96 743.57,280.36 743.75,280.61 C743.91,280.82 744.19,280.99 744.6,281.13 C745.08,281.29 745.96,281.48 747.26,281.7 C749.75,282.11 751.7,282.9 753.13,284.05 C754.52,285.18 755.47,286.72 755.99,288.66 C756.52,290.65 756.61,293.18 756.26,296.24 C756.02,298.34 755.47,300.71 754.6,303.33 C753.76,305.85 752.57,308.82 751.03,312.23 C749.43,315.78 747.31,320.11 744.68,325.22 C743.81,326.9 742.94,328.59 742.07,330.27 L718.9,286.28 C718.58,285.11 718.55,284.23 718.81,283.63 C719.04,283.09 719.56,282.67 720.36,282.4 C721.24,282.09 722.63,281.89 724.54,281.79 C726.15,281.71 727.08,281.66 727.35,281.64 C727.54,281.63 727.69,281.61 727.81,281.6 C727.97,281.57 728.35,281.5 728.94,281.38 C729.22,281.33 729.56,281.3 729.96,281.28 C731.38,281.21 731.89,280.25 731.48,278.39 C731.29,277.55 730.42,277.25 728.87,277.5 C728.42,277.54 725.6,277.58 720.4,277.61 C715.21,277.64 709.05,277.65 701.93,277.65 C694.8,277.64 688.65,277.63 683.46,277.6 C678.27,277.56 675.46,277.52 675.02,277.48 C674.36,277.38 673.9,277.36 673.65,277.4 C673.44,277.43 673.28,277.53 673.17,277.68 C673.03,277.86 672.9,278.23 672.77,278.78 C672.62,279.41 672.6,279.87 672.69,280.18 C672.77,280.44 672.95,280.69 673.25,280.92 C673.59,281.2 674.26,281.58 675.24,282.08 C676.65,282.79 677.8,283.69 678.67,284.77 C679.36,285.62 680.29,287.05 681.46,289.04 C682.01,289.99 682.69,291.18 683.49,292.61 C684.26,293.98 685.21,295.7 686.34,297.76 C687.52,299.9 689,302.61 690.79,305.89 L711.62,344.13 C711.9,344.89 712.09,346.12 712.2,347.84 C712.3,349.39 712.36,351.68 712.38,354.7 C712.4,358.07 712.37,363.26 712.3,370.27 C712.23,376.09 711.99,380.01 711.58,382.02 C711.23,383.69 710.63,384.9 709.77,385.63 C708.73,386.51 706.69,387.15 703.65,387.55 C702.64,387.69 701.91,387.86 701.44,388.07 C701.02,388.26 700.74,388.52 700.6,388.85 C700.46,389.2 700.46,389.7 700.61,390.34 C700.81,391.21 701.81,391.61 703.61,391.56 C721.19,391.54 738.78,391.52 756.36,391.49 C756.91,391.29 757.27,390.89 757.44,390.27 C757.61,389.66 757.53,389.08 757.18,388.54 C756.97,388.21 756.79,388.01 756.66,387.94 C756.57,387.9 756.41,387.85 756.18,387.81 C755.85,387.76 754.72,387.61 752.79,387.36 C750.25,386.99 748.53,386.22 747.65,385.03 C746.9,384.04 746.4,382.38 746.13,380.07 C745.82,377.3 745.67,372.07 745.69,364.37 L745.77,336.04 C745.78,334.25 745.83,333.06 745.94,332.48 C746.02,332.04 746.17,331.55 746.4,331.01 C746.7,330.29 747.56,328.53 748.97,325.74 C751.26,321.22 753.16,317.47 754.68,314.48 C756.14,311.62 757.36,309.21 758.35,307.28 C759.39,305.26 760.26,303.57 760.98,302.2 C762.5,299.29 763.7,297.09 764.6,295.59 C765.72,293.7 767.18,291.59 768.97,289.26 C770.96,286.66 773.64,284.1 777.01,281.56 C777.59,281.09 777.96,280.73 778.12,280.46 C778.25,280.24 778.31,280 778.29,279.72 C778.26,279.38 778.11,278.8 777.82,277.98 C777.61,277.78 777.31,277.66 776.94,277.63 C776.67,277.61 776.14,277.6 775.35,277.59 C774.86,277.58 774.16,277.58 773.24,277.57 C772.39,277.57 771.21,277.57 769.7,277.56 C768.03,277.56 765.6,277.55 762.41,277.54 C759.32,277.53 756.98,277.53 755.36,277.52 C753.89,277.52 752.74,277.52 751.92,277.51 C751.02,277.51 750.33,277.5 749.85,277.5 C749.04,277.49 748.46,277.48 748.1,277.47 C747.58,277.45 746.7,277.36 745.47,277.22 C744.98,277.18 744.53,277.39 744.13,277.83 L744.13,277.83 zM617.4,439.35 C616.64,440.03 615.44,440.96 613.78,442.13 C612.13,443.3 610.71,444.24 609.51,444.96 C608.65,445.55 608.06,445.81 607.71,445.75 C607.44,445.69 607.46,445.39 607.79,444.84 C608.08,444.4 608.33,444.08 608.54,443.88 C608.69,443.74 608.96,443.5 609.35,443.18 C609.59,442.98 609.94,442.69 610.39,442.33 C610.81,441.99 611.39,441.52 612.13,440.92 C612.95,440.26 614.14,439.3 615.7,438.03 C616.56,437.49 617.36,437.07 618.11,436.76 C618.87,436.46 619.31,436.37 619.45,436.51 C619.77,436.88 619.08,437.83 617.4,439.35 L617.4,439.35 zM512.12,438.39 L495.16,452.27 L492.9,453.83 C492.57,453.98 492.36,454 492.24,453.87 C492.16,453.78 492.13,453.64 492.17,453.45 C492.3,452.79 493.4,451.38 495.48,449.2 C497.55,447.03 499.63,445.12 501.71,443.48 C504.08,441.6 506.26,440.15 508.25,439.12 L508.29,439.1 C509.75,438.35 511.23,437.67 512.75,437.04 L512.25,437.85 C512.37,437.97 512.33,438.15 512.12,438.39 L512.12,438.39 zM383.05,404.34 C382.5,404.74 381.68,405.57 380.57,406.85 C378.88,408.79 376.51,411.48 373.46,414.91 C370.4,418.34 367.24,421.87 363.97,425.49 C360.71,429.12 357.96,432.16 355.73,434.61 C353.5,437.05 352.2,438.45 351.85,438.79 C350.41,440.17 348.03,441.99 344.73,444.25 C341.43,446.51 337.78,448.81 333.79,451.15 L326.72,454.78 C325.48,455.3 324.22,455.78 322.94,456.23 C324.39,454.07 325.85,452.23 327.33,450.71 C328.22,449.78 329.17,448.9 330.17,448.08 C331.07,447.32 332.2,446.46 333.56,445.48 C335.04,444.41 337.14,442.94 339.84,441.09 C340.91,440.35 341.58,439.74 341.87,439.25 C342.11,438.83 342.15,438.37 341.99,437.87 C341.8,437.3 341.25,436.48 340.35,435.4 C339.8,434.81 339.31,434.43 338.88,434.28 C338.51,434.15 338.05,434.12 337.48,434.19 C336.81,434.26 335.66,434.53 334.04,434.97 C332.67,435.32 331.66,435.5 330.99,435.52 C330.44,435.53 329.86,435.45 329.27,435.27 C328.55,435.05 327.39,434.56 325.79,433.8 C323.31,432.62 321.47,431.84 320.26,431.44 C319.2,431.09 318.3,430.92 317.58,430.94 C316.76,430.96 315.88,431.23 314.95,431.76 C314.15,432.26 313.76,432.97 313.78,433.88 C313.8,434.78 314.23,435.68 315.06,436.55 L316.76,438.26 C316.99,438.82 316.57,439.43 315.49,440.1 L313.28,441.65 C308.99,444.66 305.8,446.86 303.69,448.25 C301.85,449.46 300.26,450.44 298.93,451.19 C297.41,452.05 295.69,452.89 293.78,453.72 C290.59,455.1 287.23,456.02 283.71,456.47 C282.19,456.74 281.22,456.53 280.8,455.85 C280.37,455.16 280.84,453.73 282.21,451.56 C282.67,450.8 282.99,450.3 283.18,450.06 C283.33,449.87 283.47,449.75 283.6,449.7 C283.76,449.65 283.99,449.68 284.3,449.8 C284.43,449.85 284.71,450.08 285.12,450.5 C285.56,450.9 286.11,451.09 286.8,451.08 C287.45,451.07 288.28,450.88 289.3,450.51 C290.37,450.12 291.77,449.47 293.5,448.58 C297.32,446.58 300.44,444.33 302.85,441.81 C305.26,439.3 306.25,437.27 305.81,435.73 C305.35,434.29 304.45,433.12 303.12,432.22 C301.78,431.32 300.39,430.95 298.95,431.11 C295.06,431.67 291.1,433.32 287.05,436.05 C283,438.79 279.63,442.1 276.95,445.99 C274.7,449.27 273.53,452.5 273.44,455.68 C273.36,458.86 274.37,461.23 276.47,462.79 C279.16,464.51 283.6,464.16 289.79,461.73 C295.98,459.31 302.99,455.16 310.85,449.31 L319.31,442.33 C319.62,442.09 319.87,441.95 320.08,441.92 C320.24,441.89 320.46,441.91 320.72,441.98 C321.03,442.07 321.62,442.3 322.48,442.66 C322.74,442.75 322.91,442.8 323,442.83 C323.06,442.84 323.14,442.86 323.25,442.89 C323.41,442.92 323.98,443.04 324.95,443.24 C325.49,443.38 325.73,443.55 325.67,443.76 C325.65,443.83 325.61,443.91 325.53,443.97 C325.48,444.02 325.37,444.11 325.21,444.24 C324.98,444.43 324.09,445.14 322.56,446.37 C316.63,451.12 314.32,455.83 315.64,460.51 C316.15,461.95 317.12,462.99 318.55,463.63 C319.97,464.28 321.55,464.39 323.28,463.97 C325.32,463.41 327.75,462.3 330.56,460.62 C330.66,460.56 330.91,460.41 331.3,460.18 C331.69,459.94 332.14,459.68 332.64,459.38 C333.14,459.08 333.59,458.81 333.98,458.58 C334.37,458.35 334.62,458.2 334.73,458.14 C333.12,460 331.9,461.43 331.06,462.41 C330.3,463.31 329.7,464.01 329.26,464.52 C328.79,465.08 328.41,465.52 328.15,465.84 C327.7,466.38 327.34,466.84 327.05,467.22 C326.65,467.76 325.7,469.17 324.19,471.45 C317.35,481.74 316.16,489.4 320.61,494.42 C322.14,495.97 324.31,496.14 327.13,494.94 C329.94,493.73 333.13,491.26 336.7,487.53 C338.86,485.26 340.9,482.7 342.81,479.85 C344.72,477 345.9,474.77 346.36,473.14 C347.26,469.7 347.1,466.69 345.9,464.13 C345.57,463.31 345.82,462.84 346.65,462.71 C346.97,462.66 347.83,462.28 349.22,461.57 C350.6,460.86 352.2,459.98 354,458.95 C355.81,457.91 357.4,456.96 358.77,456.09 C360.14,455.21 360.98,454.62 361.28,454.32 C361.59,454.01 361.81,453.94 361.95,454.12 C362.07,454.27 362.14,454.42 362.17,454.58 C362.19,454.7 362.19,454.89 362.17,455.13 C362.15,455.43 362.08,456 361.96,456.84 C361.74,459.9 363.09,462.07 366.02,463.38 C370.48,465.19 376.05,462.83 382.74,456.29 L385.84,452.92 L389.6,452.73 C393.48,451.85 397.87,449.46 402.78,445.57 L404.87,443.9 C405.49,443.41 406.08,442.87 406.66,442.27 C407.32,441.65 408.17,441.63 409.21,442.22 C409.94,442.57 411.02,442.88 412.47,443.17 C413.03,443.3 413.28,443.56 413.21,443.94 C413.17,444.12 412.91,444.34 412.41,444.6 C411.61,445.03 410.27,446.17 408.38,448.02 C406.49,449.87 405.24,451.26 404.62,452.21 C403.07,454.74 402.52,457.13 402.96,459.38 C403.41,461.64 404.74,463.13 406.94,463.87 C408.49,464.3 410.24,464.21 412.19,463.6 C414.02,463.02 416.25,461.91 418.87,460.27 C421.63,458.53 425.19,455.98 429.52,452.62 C430.34,451.98 430.85,451.58 431.05,451.42 C431.18,451.31 431.34,451.17 431.53,451.01 C431.79,450.78 432.68,450 434.2,448.66 L437.18,446.16 L437.27,446.14 C437.47,446.3 437.13,446.82 436.25,447.71 L431.14,453.81 C429.76,455.36 428.89,456.39 428.51,456.9 C428.21,457.31 428.04,457.64 428.01,457.87 C427.96,458.17 428.13,458.51 428.49,458.91 C430.27,460.86 432.32,460.94 434.62,459.15 C439.23,455.55 443.86,451.97 448.49,448.41 L448.57,448.38 C448.62,448.41 448.61,448.51 448.54,448.68 C448.48,448.86 448.4,449.02 448.3,449.17 C447.94,449.56 447.58,449.95 447.21,450.34 C446.19,451.52 445.01,453.04 443.69,454.91 C442.37,456.77 441.68,457.89 441.62,458.24 C441.38,459.61 441.76,460.61 442.77,461.23 C443.68,461.74 444.37,462 444.85,462.01 C445.23,462.02 445.68,461.89 446.2,461.62 C446.83,461.28 448.01,460.47 449.74,459.18 L464.9,447.91 C463.33,449.81 462.06,451.61 461.09,453.3 C459.53,456.13 459.25,458.75 460.24,461.15 C461.23,463.55 463.14,464.87 465.96,465.1 C467.06,465.14 468.15,464.98 469.24,464.61 C470.24,464.28 471.4,463.71 472.72,462.92 C474.14,462.06 476.01,460.79 478.3,459.09 C478.98,458.61 479.42,458.27 479.61,458.07 C480.01,457.67 480.34,457.55 480.6,457.7 C480.71,457.77 480.74,458.06 480.67,458.57 C480.56,459.45 480.81,460.39 481.41,461.41 C482,462.42 482.75,463.16 483.65,463.64 C485.39,464.56 488.28,463.56 492.32,460.65 C493.91,459.51 494.93,458.75 495.4,458.38 C495.75,458.1 496.11,457.8 496.47,457.45 C496.96,457 498.08,455.9 499.83,454.16 C500.19,453.82 500.43,453.79 500.53,454.07 C500.37,455.5 500.21,456.92 500.05,458.34 C499.94,459.91 500.25,461.2 500.98,462.21 C501.71,463.22 502.64,463.65 503.77,463.48 C505.03,463.29 507.65,461.79 511.63,458.99 C515.61,456.2 520.12,452.67 525.17,448.41 C525.85,447.83 526.53,447.25 527.21,446.67 C527.79,446.3 528.1,446.13 528.13,446.16 C528.15,446.19 528.16,446.21 528.14,446.25 C528.12,446.27 528.09,446.31 528.04,446.37 C527.96,446.46 527.66,446.79 527.14,447.36 C526.88,447.73 526.61,448.09 526.35,448.46 C525.85,449.1 525.5,449.54 525.28,449.79 C525.12,449.96 524.87,450.22 524.52,450.58 C524.3,450.79 524,451.1 523.61,451.49 C523.24,451.86 522.74,452.36 522.1,453.01 C521.39,453.71 520.36,454.75 519.01,456.1 C517.54,457.64 517.08,459.02 517.61,460.24 C517.91,460.94 518.51,461.44 519.39,461.72 C520.28,462.01 521.11,461.98 521.89,461.63 C522.36,461.4 522.78,461.15 523.17,460.88 C523.44,460.69 523.95,460.33 524.68,459.79 C525.13,459.46 525.77,458.99 526.62,458.37 C527.4,457.79 528.48,456.99 529.86,455.97 C531.38,454.85 533.6,453.22 536.52,451.06 L539.62,448.54 C539.95,448.38 540.13,448.33 540.18,448.39 C540.2,448.41 540.18,448.46 540.13,448.55 C540.09,448.6 540,448.73 539.87,448.91 C539.69,449.17 538.98,450.18 537.75,451.94 C535.08,455.76 534.76,459.29 536.81,462.51 C539.29,465.96 543.18,466.1 548.48,462.93 L556.49,457.24 L559.26,455.09 C559.13,457.16 559.41,458.9 560.11,460.33 L560.24,460.59 C563.65,466.76 573.96,464.32 591.18,453.27 L594.28,451.28 C594.41,451.26 594.48,451.36 594.47,451.58 C594.46,451.71 594.45,451.8 594.44,451.86 C594.43,451.9 594.42,451.97 594.4,452.06 C594.37,452.19 594.26,452.67 594.06,453.51 C593.7,455.42 593.81,457.26 594.39,459 C594.96,460.75 595.88,462.05 597.15,462.9 C599.64,464.41 603.59,464.18 609.02,462.22 C614.45,460.25 620.79,456.74 628.02,451.7 C631.24,449.46 634.67,446.79 638.31,443.68 C641.96,440.57 643.86,438.69 644.04,438.05 C644.17,437.56 644.12,437.1 643.88,436.66 C643.65,436.23 643.31,435.99 642.87,435.93 C642.55,435.89 642.08,436.15 641.48,436.69 C639.03,438.57 635.01,441.31 629.42,444.92 C623.82,448.53 619.85,450.93 617.51,452.13 C612.93,454.47 608.47,455.9 604.11,456.43 C603.81,456.47 603.5,456.54 603.18,456.63 C602.7,456.77 602.25,456.7 601.84,456.42 C601.43,456.14 601.21,455.76 601.19,455.27 C601.17,454.95 601.27,454.49 601.48,453.88 C601.69,453.28 601.97,452.66 602.32,452.02 C602.67,451.38 603.02,450.85 603.37,450.44 C603.72,450.03 603.99,449.82 604.19,449.8 C604.55,449.78 605.08,450.06 605.76,450.64 C606.95,451.6 609.92,450.8 614.68,448.22 C618.07,446.39 620.93,444.25 623.27,441.79 C625.6,439.34 626.62,437.42 626.31,436.03 C626.04,434.82 625.36,433.75 624.26,432.8 C623.17,431.86 621.96,431.3 620.63,431.13 C616.27,430.8 610.6,433.34 603.63,438.76 C599.05,442.32 594.22,445.64 589.13,448.73 C584.04,451.81 579.9,453.93 576.7,455.08 C575.02,455.68 573.19,456.11 571.22,456.36 L566.79,456.91 C567.01,455.32 567.37,453.89 567.89,452.63 L567.99,452.37 C569.17,449.72 571.2,446.98 574.09,444.18 C576.98,441.37 579.83,439.35 582.66,438.13 C583.97,437.56 585.07,437.18 585.98,436.97 C586.88,436.76 587.38,436.78 587.48,437.01 C587.59,437.26 587.51,437.57 587.22,437.92 C586.96,438.24 586.48,438.65 585.79,439.15 C585.06,439.69 583.95,440.42 582.47,441.35 C581.42,442.01 580.81,442.4 580.63,442.53 C580.5,442.63 580.42,442.7 580.38,442.76 C580.33,442.84 580.32,443.02 580.36,443.29 C580.43,443.78 580.74,444.18 581.3,444.47 C581.85,444.77 582.55,444.9 583.37,444.87 C588.71,444.68 592.71,442.53 595.36,438.44 C596.78,436 596.46,434 594.38,432.43 C592.6,431.19 589.56,431.11 585.25,432.17 C580.95,433.24 576.62,435.15 572.26,437.92 C570.8,438.85 569.86,439.48 569.44,439.79 C569.15,440.02 568.8,440.32 568.4,440.69 C567.86,441.19 566.3,442.69 563.73,445.19 C561.94,446.93 559.05,449.1 555.06,451.7 C551.06,454.29 548.13,455.92 546.25,456.59 C545.05,456.97 544.34,457.04 544.09,456.8 C543.7,456.41 543.62,455.67 543.86,454.6 C544.11,453.53 544.56,452.61 545.21,451.85 L559.07,435.68 C557.6,434.9 556.04,434.35 554.39,434.02 C553.57,433.87 552.98,433.85 552.61,433.95 C552.33,434.03 551.97,434.21 551.54,434.51 C550.96,434.9 549.6,435.94 547.44,437.62 C545.38,439.24 542.96,441.02 540.2,442.98 C537.43,444.94 535.98,445.9 535.84,445.85 C535.81,445.84 535.8,445.82 535.79,445.78 C535.75,445.66 535.79,445.51 535.9,445.34 C535.98,445.21 536.16,444.96 536.43,444.59 C536.59,444.37 536.83,444.04 537.15,443.61 C537.43,443.22 537.84,442.67 538.36,441.96 C538.93,441.18 539.76,440.05 540.86,438.57 C541.06,438.28 541.27,437.98 541.5,437.65 C541.73,437.32 541.87,437.1 541.93,437.01 L541.9,437.01 C542.82,435.21 542.03,433.98 539.53,433.32 C538.37,433.06 537.18,433.58 535.98,434.88 C535.76,435.1 534.5,436.04 532.18,437.68 C529.87,439.32 527.11,441.25 523.9,443.47 C520.68,445.68 517.85,447.61 515.41,449.25 C512.96,450.89 511.53,451.81 511.12,452.02 C510.21,452.48 509.66,452.76 509.47,452.85 C509.33,452.91 509.23,452.95 509.17,452.96 C509.09,452.97 509,452.93 508.91,452.84 C508.74,452.68 508.78,452.35 509.03,451.87 C509.26,451.43 509.71,450.78 510.37,449.91 C511.09,448.97 512.22,447.57 513.77,445.71 C515.4,443.76 516.65,442.26 517.52,441.22 C518.32,440.25 518.95,439.5 519.4,438.95 C519.89,438.35 520.27,437.89 520.53,437.57 C520.97,437.02 521.25,436.63 521.38,436.41 C521.55,436.11 521.56,435.74 521.41,435.3 C521.27,434.88 520.78,434.36 519.95,433.75 C519.12,433.14 518.47,432.82 518,432.79 L516.88,432.85 C516.62,432.85 516.46,432.84 516.39,432.81 C516.34,432.8 516.28,432.76 516.21,432.7 C516.1,432.62 515.74,432.32 515.12,431.79 C513.75,430.7 511.18,430.94 507.4,432.5 C503.63,434.06 499.38,436.64 494.65,440.24 C488.53,444.91 484.12,448.21 481.44,450.15 C479.14,451.82 477.26,453.09 475.81,453.97 C474.13,454.98 472.36,455.86 470.51,456.59 C468.93,457.13 468.12,457.06 468.06,456.41 C468.02,455.93 468.2,455.27 468.62,454.4 C469.04,453.53 469.54,452.77 470.13,452.12 C473.27,448.62 475.66,445.96 477.3,444.13 C478.79,442.46 479.95,441.17 480.78,440.24 C481.68,439.23 482.36,438.46 482.82,437.93 C483.59,437.05 484.08,436.45 484.29,436.13 C484.58,435.69 484.59,435.23 484.3,434.77 C483.99,434.29 483.33,433.74 482.32,433.14 C481.31,432.53 480.6,432.25 480.19,432.3 C479.78,432.35 479.36,432.51 478.94,432.78 C478.64,432.96 478.07,433.35 477.24,433.94 C476.73,434.3 475.99,434.82 475.03,435.5 C474.16,436.13 472.92,437.01 471.33,438.14 C469.59,439.38 467.06,441.19 463.73,443.57 C461.96,444.73 460.95,445.4 460.68,445.57 C460.49,445.69 460.37,445.77 460.3,445.8 C460.21,445.85 460.14,445.87 460.08,445.85 C459.97,445.81 459.93,445.72 459.98,445.59 C460.02,445.47 460.14,445.28 460.32,445.02 C460.53,444.72 460.91,444.23 461.44,443.56 C462.66,442 463.67,440.64 464.46,439.48 C465.26,438.31 465.69,437.58 465.75,437.28 C465.86,436.7 465.59,436.13 464.93,435.55 C464.27,434.98 463.55,434.71 462.79,434.73 C462.22,434.74 461.76,434.84 461.42,435.01 C461.18,435.13 460.76,435.39 460.16,435.78 C459.8,436.01 459.28,436.36 458.6,436.81 C457.98,437.22 457.11,437.81 455.98,438.56 C454.75,439.38 452.96,440.58 450.61,442.15 C449.44,442.94 448.64,443.46 448.21,443.73 C447.85,443.96 447.59,444.11 447.44,444.18 C447.25,444.27 447.13,444.28 447.06,444.21 C447.01,444.16 447,444.1 447.03,444.03 C447.05,443.98 447.11,443.89 447.2,443.74 C447.33,443.54 447.84,442.75 448.73,441.39 C449.66,439.95 450.28,438.85 450.6,438.07 C450.89,437.37 451.02,436.77 450.97,436.27 C450.92,435.72 450.65,435.14 450.15,434.55 C449.71,434.03 449.2,433.65 448.6,433.42 C448.01,433.19 447.47,433.15 447,433.32 C446.72,433.41 446.54,433.49 446.47,433.54 C446.42,433.58 446.35,433.64 446.26,433.73 C446.14,433.86 445.73,434.32 445.02,435.13 C443.39,436.91 437.2,441.23 426.46,448.09 C421.98,450.95 418.57,452.9 416.21,453.95 L416.09,454.01 C414.32,454.8 412.51,455.47 410.63,456.04 C411.98,454.23 412.79,453.16 413.05,452.83 C413.23,452.6 413.41,452.39 413.59,452.2 C413.84,451.93 414.61,451.17 415.89,449.93 C416.87,448.97 417.81,448.13 418.72,447.39 C419.52,446.74 420.52,445.99 421.71,445.14 C423.06,444.17 425.1,442.75 427.84,440.87 C428.85,440.17 429.49,439.66 429.74,439.32 C429.94,439.04 430.01,438.75 429.95,438.44 C429.87,438.07 429.52,437.44 428.89,436.55 C428.22,435.5 427.64,434.81 427.16,434.49 C426.74,434.22 426.24,434.09 425.64,434.11 C424.94,434.13 423.76,434.37 422.1,434.83 C420.12,435.34 418.9,435.59 418.43,435.59 C418.1,435.58 417.7,435.5 417.23,435.34 C416.95,435.24 416.56,435.08 416.08,434.88 C415.63,434.69 415.01,434.43 414.23,434.08 C413.37,433.7 412.12,433.15 410.49,432.43 C406.65,430.73 403.86,430.67 402.12,432.24 C401.7,432.62 401.53,433.18 401.6,433.92 C401.67,434.66 401.97,435.42 402.49,436.19 C403.02,436.99 403.51,437.51 403.98,437.74 C404.34,437.92 404.56,438.15 404.64,438.45 C404.72,438.74 404.63,439 404.38,439.23 C404.11,439.48 403.41,439.98 402.29,440.73 C401.17,441.48 399.87,442.32 398.39,443.25 C396.91,444.17 395.59,444.98 394.41,445.67 C393.23,446.36 392.46,446.78 392.1,446.93 C390.77,447.44 390.03,447.52 389.86,447.16 C389.82,447.07 389.81,447 389.83,446.94 C389.84,446.9 389.88,446.82 389.94,446.72 C390.03,446.57 390.36,446.01 390.94,445.04 C394.17,439.31 394.77,435.35 392.75,433.17 C392.13,432.55 391.69,432.16 391.44,432 C391.24,431.88 391.02,431.81 390.79,431.79 C390.5,431.77 389.92,431.84 389.07,431.99 C388.88,432.02 388.75,432.03 388.67,432.03 C388.61,432.03 388.52,432.03 388.4,432.02 C388.23,432 387.58,431.95 386.48,431.85 C383.45,431.72 378.49,434.47 371.62,440.1 C369.24,442.05 367.67,443.28 366.93,443.8 C366.4,444.17 365.65,444.64 364.67,445.23 C364.09,445.59 363.26,446.08 362.19,446.71 C361.22,447.28 359.86,448.08 358.12,449.1 C356.23,450.21 353.46,451.83 349.83,453.95 C347.88,455.14 346.8,455.64 346.58,455.44 C346.5,455.36 346.71,455.04 347.22,454.46 C347.58,454.05 348.36,453.2 349.55,451.91 C350.25,451.14 351.28,450.04 352.62,448.59 C353.84,447.27 355.55,445.41 357.76,443.02 C360.16,440.43 363.61,436.68 368.12,431.78 L389.48,408.55 C390.76,406.41 390.06,404.95 387.37,404.18 C386.05,403.85 385.09,403.72 384.49,403.77 C383.99,403.82 383.51,404.01 383.05,404.34 L383.05,404.34 zM388.09,438.16 C388.06,438.25 387.99,438.41 387.87,438.65 C387.71,438.99 387.15,440.12 386.18,442.05 C385.77,442.81 385.32,443.45 384.83,443.97 C384.33,444.49 383.94,444.73 383.64,444.71 C383.43,444.69 383.23,444.58 383.04,444.35 C382.85,444.13 382.72,443.87 382.65,443.55 C382.52,443.02 383.1,442.01 384.39,440.52 C385.67,439.03 386.74,438.14 387.59,437.83 C387.76,437.76 387.89,437.77 387.98,437.85 C388.09,437.94 388.12,438.04 388.09,438.16 L388.09,438.16 zM378.44,446.96 C378.57,447.2 378.66,447.37 378.7,447.44 C378.74,447.5 378.79,447.58 378.86,447.68 C378.96,447.83 379.33,448.35 379.95,449.24 C380.18,449.59 380.22,449.97 380.05,450.39 C379.89,450.77 379.54,451.24 378.99,451.8 C378.4,452.41 377.47,453.23 376.19,454.28 C374.9,455.34 373.95,456.09 373.34,456.52 C372.81,456.89 372.35,457.16 371.95,457.33 C371.48,457.54 370.91,457.68 370.24,457.78 C369.97,457.82 369.78,457.74 369.69,457.54 C369.51,457.17 369.52,456.7 369.7,456.12 C369.86,455.62 370.2,454.9 370.71,453.94 C371.3,452.86 372.34,451.08 373.82,448.61 C375.11,446.47 376.13,445.34 376.88,445.22 C377.35,445.14 377.87,445.72 378.44,446.96 L378.44,446.96 zM342.15,463.05 L342.16,463.08 C343.43,464.73 342.57,467.87 339.6,472.49 C335.32,479.16 330.89,483.98 326.32,486.96 C325.52,487.44 324.95,487.5 324.59,487.14 C324.4,486.96 324.3,486.82 324.3,486.74 C324.3,486.68 324.32,486.59 324.37,486.46 C324.44,486.28 324.73,485.6 325.24,484.43 C327.05,480.31 329.67,475.8 333.11,470.89 C336.56,465.98 339,463.29 340.45,462.8 C341.22,462.54 341.79,462.62 342.15,463.05 L342.15,463.05 zM299.08,436.92 C299.02,437.16 298.88,437.39 298.66,437.62 L295.92,440.15 C294.78,440.99 293.91,441.63 293.31,442.07 C292.76,442.47 292.33,442.79 292.02,443.01 C291.68,443.26 291.42,443.45 291.22,443.59 C290.9,443.82 290.64,444 290.43,444.12 C290.14,444.3 289.43,444.69 288.29,445.28 C287.51,445.71 287.06,445.88 286.92,445.78 C286.83,445.71 286.82,445.58 286.89,445.37 C286.97,445.17 287.11,444.94 287.32,444.69 C288.36,443.54 290.12,441.99 292.61,440.03 C295.11,438.07 296.79,436.92 297.65,436.58 C298.36,436.32 298.79,436.26 298.95,436.39 C299.09,436.51 299.13,436.68 299.08,436.92 L299.08,436.92 zM238.81,408.2 C233.52,410.6 229,413.65 225.24,417.33 C221.49,421.02 219.48,424.37 219.21,427.38 C218.99,431.75 221.03,434.62 225.3,435.99 C230.42,437.4 236.42,434.24 243.28,426.5 L245.58,423.9 C246,423.22 246.06,422.72 245.74,422.42 C245.58,422.26 245.37,422.21 245.1,422.25 C244.87,422.29 244.53,422.41 244.09,422.63 C243.6,422.86 242.84,423.29 241.79,423.89 C239.25,424.98 236.7,426.07 234.16,427.16 C231.39,428.35 229.38,429.18 228.13,429.66 C227.02,430.09 226.22,430.35 225.71,430.45 C225.15,430.56 224.81,430.49 224.7,430.24 C224.52,429.81 225.07,429.01 226.36,427.84 C227.65,426.67 229.47,425.32 231.82,423.79 C236.97,420.44 241.85,417.88 246.46,416.11 C259.05,411.28 270.65,410.23 281.26,412.98 C285.94,414.18 287.26,416.6 285.22,420.22 C283.36,423.29 279.83,426.37 274.62,429.45 C269.42,432.54 263.67,434.96 257.36,436.73 C255.71,437.07 254.07,437.41 252.42,437.75 C251.2,437.91 250.62,437.71 250.7,437.16 L251.51,436.12 C251.67,435.9 251.82,435.68 251.97,435.45 L267.37,418.63 C268.26,417.56 268.78,416.88 268.93,416.58 C269.05,416.36 269.08,416.15 269.02,415.97 C268.95,415.73 268.6,415.25 267.97,414.55 C267.28,414.13 266.4,414.12 265.32,414.51 C264.28,414.89 262.97,415.68 261.4,416.87 C259.76,418.11 257.69,419.9 255.19,422.24 C249.01,428.03 243.16,434.18 237.64,440.7 C232.12,447.23 228.58,452.17 227.03,455.55 C225.51,458.85 225.78,461.76 227.83,464.26 C228.39,464.95 229,465.6 229.65,466.21 L248.1,440.02 C249.04,441.18 250.02,442.12 251.05,442.84 L251.27,442.99 C253.98,444.77 257.92,444.96 263.08,443.55 C268.25,442.15 273.57,439.43 279.07,435.4 C281.53,433.59 283.75,431.56 285.74,429.31 C287.73,427.06 289.04,425.1 289.66,423.43 C290.95,419.74 290.46,416.15 288.2,412.65 C285.93,409.15 282.32,406.44 277.38,404.53 C272.18,402.52 266.19,401.83 259.41,402.48 C252.63,403.12 245.77,405.03 238.81,408.2 L238.81,408.2 zM240.05,277.59 C239.8,277.66 239.6,277.81 239.43,278.02 C239.22,278.3 238.93,278.9 238.56,279.84 L203.55,368.58 C201.74,373.17 200.15,376.69 198.77,379.14 C197.5,381.39 196.2,383.15 194.88,384.42 C193.43,385.8 191.68,386.85 189.61,387.58 C188.5,388.05 188.08,388.98 188.37,390.35 C188.46,390.79 188.64,391.1 188.93,391.27 C189.17,391.42 189.56,391.51 190.09,391.55 C190.7,391.6 191.73,391.59 193.19,391.52 L221.87,391.52 C222.25,391.39 222.55,391.11 222.77,390.69 C223,390.27 223.07,389.84 223,389.4 C222.91,388.84 222.76,388.47 222.54,388.27 C222.35,388.11 222.05,387.97 221.62,387.87 C221.09,387.74 219.98,387.56 218.31,387.34 C215.39,386.95 213.16,386.2 211.62,385.09 C210.15,384.03 209.17,382.54 208.66,380.62 C208.12,378.6 208.07,375.9 208.5,372.51 C208.72,370.75 208.99,369.24 209.31,367.98 C209.58,366.93 209.98,365.6 210.53,364 C211.18,362.07 212.4,358.67 214.18,353.79 L216.04,348.71 C226.83,348.71 237.62,348.71 248.41,348.71 C251.65,357.65 254.88,366.59 258.1,375.53 C258.96,377.9 259.47,379.82 259.63,381.27 C259.78,382.65 259.64,383.76 259.22,384.59 C258.77,385.46 257.95,386.12 256.76,386.57 C256.13,386.78 255.71,386.91 255.49,386.96 C255.33,387 255.1,387.04 254.8,387.09 C254.36,387.15 252.79,387.38 250.08,387.77 C248.79,388.03 248.18,388.79 248.24,390.04 C248.29,391.08 249.18,391.58 250.91,391.55 C257.95,391.43 264.99,391.31 272.02,391.19 C273.62,391.16 274.84,391.14 275.69,391.14 C276.48,391.13 277.1,391.12 277.58,391.12 C278.1,391.12 278.53,391.12 278.9,391.12 C279.49,391.12 280.18,391.13 280.97,391.15 C281.44,391.17 282.08,391.18 282.89,391.21 C283.63,391.23 284.64,391.26 285.93,391.31 C287.34,391.35 289.38,391.42 292.06,391.5 C299.96,391.74 310.02,391.67 322.23,391.29 C324.36,391.23 325.86,391.19 326.74,391.19 C327.36,391.19 328.34,391.21 329.69,391.23 C330.51,391.24 331.67,391.26 333.18,391.29 C334.56,391.31 336.49,391.35 338.97,391.39 C341.67,391.44 345.61,391.51 350.8,391.6 C356.69,391.71 361.51,391.68 365.26,391.51 C368.73,391.35 371.88,391.04 374.72,390.6 C377.8,390.12 381.08,389.37 384.57,388.37 C395.75,385.15 405,379.79 412.33,372.28 C423.17,361.17 428.06,346.96 427,329.65 C426.73,325.31 426.29,321.56 425.67,318.38 C425.08,315.35 424.26,312.54 423.22,309.94 C422.13,307.22 420.67,304.44 418.83,301.6 C408.37,285.5 388.46,277.56 359.08,277.77 L334.12,277.94 C328.43,277.98 324.3,278 321.74,277.99 C319.53,277.98 317.68,277.96 316.18,277.9 C314.45,277.85 312.51,277.74 310.36,277.58 C307.5,277.38 305.89,277.61 305.52,278.26 C305.2,278.82 305.12,279.4 305.28,280 C305.44,280.6 305.78,281.03 306.31,281.3 C306.73,281.5 307.61,281.65 308.94,281.72 C310.83,281.91 312.28,282.27 313.28,282.78 C314.21,283.26 314.93,283.95 315.43,284.87 C315.97,285.85 316.35,287.27 316.58,289.14 C316.73,290.37 316.81,291.53 316.83,292.6 C316.85,293.35 316.86,294.77 316.86,296.83 C316.87,298.08 316.87,299.89 316.87,302.26 C316.87,304.46 316.87,307.49 316.87,311.38 C316.87,315.65 316.87,321.89 316.86,330.09 C316.84,346.17 316.81,362.26 316.78,378.34 C316.66,380.22 316.46,381.7 316.16,382.78 C315.88,383.8 315.48,384.6 314.97,385.2 C314.42,385.84 313.65,386.33 312.66,386.68 C311.21,387.19 309.64,387.52 307.96,387.68 C306.27,387.83 304.99,387.76 304.11,387.48 C302.69,386.95 301.01,385.48 299.06,383.08 C298.45,382.29 297.94,381.42 297.53,380.48 C297.23,379.82 296.71,378.53 295.94,376.62 C295.48,375.46 294.82,373.78 293.95,371.58 C293.15,369.55 292.03,366.73 290.6,363.1 C289.04,359.12 286.76,353.32 283.76,345.68 L272.07,315.89 L272.08,315.9 L257.25,278.36 C256.45,277.93 255.95,277.69 255.75,277.63 C255.61,277.58 255.44,277.55 255.22,277.54 C254.92,277.52 253.89,277.52 252.11,277.53 C250.32,277.53 248.96,277.54 248.03,277.54 C247.18,277.55 246.51,277.55 246.02,277.55 C245.5,277.55 245.1,277.56 244.81,277.56 C244.34,277.56 243.99,277.56 243.75,277.55 C243.42,277.55 242.78,277.53 241.85,277.5 C240.95,277.47 240.35,277.5 240.05,277.59 L240.05,277.59 zM371.42,282.41 C373.93,283.17 376.18,284.32 378.18,285.87 C388.11,293.55 392.82,310.99 392.32,338.19 C392.1,350.09 390.69,359.96 388.09,367.79 C385.5,375.62 381.84,381.01 377.14,383.94 C371.99,387.15 366.2,388.47 359.75,387.92 C356.54,387.64 354.35,386.95 353.18,385.84 C352.18,384.89 351.49,383.33 351.11,381.13 C350.65,378.54 350.43,373.79 350.45,366.86 L350.63,293.55 C350.77,290.67 350.98,288.53 351.26,287.12 C351.52,285.85 351.88,284.86 352.36,284.14 C352.9,283.33 353.73,282.66 354.85,282.11 C356.53,281.36 359.02,281.01 362.32,281.07 C365.62,281.13 368.65,281.57 371.42,282.41 L371.42,282.41 zM236.68,316.57 L236.68,316.59 L247.07,344.87 L217.76,344.71 L232.83,306.07 L236.68,316.57 L236.68,316.57 zM145.12,283.75 C145.42,284.09 145.71,284.44 145.98,284.82 C148.45,288.48 149.72,294.98 149.8,304.34 C149.86,310.09 149.25,315.11 148,319.37 C146.74,323.64 145.03,326.58 142.85,328.19 C141.96,328.81 141.2,329.25 140.57,329.52 C140.03,329.75 139.39,329.94 138.64,330.09 C137.77,330.27 136.36,330.47 134.41,330.69 C133.05,330.85 131.7,331 130.35,331.16 L130.49,291.8 C130.59,289.67 130.77,287.98 131.01,286.73 C131.24,285.57 131.55,284.64 131.96,283.96 C132.38,283.23 132.97,282.67 133.72,282.29 C135.57,281.43 137.64,281.14 139.93,281.43 C142.21,281.72 143.94,282.5 145.12,283.75 L145.12,283.75 zM85.46,277.95 C85.17,278.17 85.02,278.65 84.99,279.38 C84.97,279.97 85.08,280.41 85.3,280.7 C85.5,280.95 85.84,281.15 86.33,281.3 C86.87,281.47 87.77,281.62 89.01,281.76 C91.84,282.08 93.74,282.8 94.71,283.92 C95.51,284.85 96.06,286.42 96.35,288.64 C96.7,291.29 96.87,296.42 96.85,304.01 C96.8,326.74 96.77,349.47 96.75,372.2 C96.75,377.16 96.53,380.57 96.09,382.42 C95.72,383.98 95.08,385.11 94.16,385.81 C93.08,386.64 91.05,387.23 88.09,387.57 C87.13,387.69 86.44,387.83 86,388.01 C85.59,388.17 85.32,388.39 85.16,388.67 C85,388.98 84.94,389.43 85.01,390.02 C85.12,391.07 86.01,391.58 87.69,391.55 C94.36,391.44 101.02,391.32 107.68,391.19 C115.11,391.31 122.54,391.43 129.97,391.57 C133.85,391.63 137.73,391.7 141.6,391.75 C145.11,391.81 148.9,391.67 152.99,391.33 C157.07,391 160.41,390.57 163.01,390.03 C180.68,386.4 190.36,377.83 192.07,364.34 C192.94,357.51 191.17,351.45 186.77,346.16 C180.85,339.02 170.54,334.43 155.83,332.39 C153.85,332.11 151.86,331.83 149.88,331.55 L159.98,328.91 C167.19,326.41 172.98,322.79 177.34,318.06 C181.71,313.34 183.86,308.32 183.82,303 C183.72,292.94 177.66,285.72 165.61,281.33 C163.4,280.53 160.86,279.84 157.99,279.25 L157.92,279.25 C154.97,278.67 152.27,278.25 149.81,278.01 C147.56,277.78 145.1,277.65 142.43,277.61 C139.52,277.57 135.78,277.63 131.19,277.8 C126.22,277.98 120.06,278.05 112.7,278.02 C105.34,277.98 98.26,277.85 91.46,277.62 C89.07,277.54 87.5,277.53 86.74,277.6 C86.12,277.65 85.7,277.76 85.46,277.95 L85.46,277.95 zM134.22,334.07 C135.03,334.13 135.66,334.18 136.12,334.22 C136.62,334.26 137.01,334.3 137.29,334.33 C137.76,334.37 138.15,334.42 138.46,334.47 C138.89,334.54 139.95,334.78 141.64,335.18 C143.05,335.52 144.38,335.95 145.63,336.47 L145.66,336.48 C150.38,338.48 153.72,342.16 155.69,347.51 C157.66,352.87 158.12,359.58 157.09,367.65 C156.48,372.42 155.47,376.23 154.06,379.07 C152.69,381.82 150.88,383.84 148.61,385.15 C146.27,386.49 143.29,387.15 139.68,387.12 C136.15,387.09 133.82,386.52 132.69,385.41 C131.77,384.5 131.15,382.84 130.82,380.45 C130.42,377.52 130.24,371.51 130.29,362.43 C130.34,352.87 130.37,343.32 130.37,333.76 C132.06,333.9 133.34,334 134.22,334.07 L134.22,334.07 z"/>  </g> </svg>