<svg xmlns="http://www.w3.org/2000/svg" xml:space="preserve" shape-rendering="geometricPrecision" text-rendering="geometricPrecision" image-rendering="optimizeQuality" fill-rule="evenodd" clip-rule="evenodd" xmlns:xlink="http://www.w3.org/1999/xlink" viewBox="0 0 737.6 292.77">  <g id="Layer_1">   <metadata id="FutureCorpID_Layer"/>    <path fill="#11100E" d="M-0,292.77 L737.6,292.77 L737.6,0 L-0,0 L-0,292.77 L-0,292.77 zM252.76,120.95 L239.9,120.95 L239.9,147.29 L232.4,147.29 L232.4,120.95 L219.54,120.95 L219.54,147.29 L212.04,147.29 L212.04,120.95 L199.18,120.95 L199.18,147.29 L199.07,147.29 L199.07,160.15 L252.56,160.15 L252.56,159.95 L252.76,159.95 L252.76,120.95 L252.76,120.95 zM198.89,177.03 L252.38,177.03 L252.38,164.17 L198.89,164.17 L198.89,177.03 L198.89,177.03 zM364.99,121.15 L364.99,132.97 L326.27,115.82 L321.06,127.58 L324.27,129 L324.27,175.42 L337.13,175.42 L337.13,134.7 L364.99,147.04 L364.99,174.82 L377.85,174.82 L377.85,121.15 L364.99,121.15 L364.99,121.15 zM519.82,133.85 L540.42,133.85 L540.42,161.8 L519.82,161.8 L519.82,133.85 L519.82,133.85 zM554.09,120.1 L540.42,120.1 L540.42,120.19 L519.82,120.19 L519.82,120.17 L506.15,120.17 L506.15,120.19 L499.39,120.19 L499.39,133.85 L506.15,133.85 L506.15,161.8 L498.79,161.8 L498.79,175.46 L554.05,175.46 L554.05,175.45 L554.09,175.45 L554.09,120.1 L554.09,120.1 zM439.42,120.78 L385.97,120.78 L385.97,133.34 L406.54,133.34 L406.54,174.82 L419.4,174.82 L419.4,133.34 L439.42,133.34 L439.42,120.78 L439.42,120.78 zM274.54,147.17 L274.54,134.43 L302.84,134.43 L302.84,147.17 L274.54,147.17 L274.54,147.17 zM317.31,147.17 L315.97,147.17 L315.97,123.72 C315.97,122.52 315,121.55 313.8,121.55 L302.84,121.55 L302.84,121.57 L274.54,121.57 L274.54,121.55 L263.71,121.55 C262.44,121.55 261.41,122.58 261.41,123.85 L261.41,176.3 L274.54,176.3 L274.54,162.31 L302.84,162.31 L302.84,176.3 L315.97,176.3 L315.97,162.31 L317.31,162.31 L317.31,147.17 L317.31,147.17 zM493.91,133.78 L493.91,120.92 L444.46,120.92 L444.46,121.12 L444.27,121.12 L444.27,143.15 L440.02,143.48 L441.01,156.3 L444.27,156.05 L444.27,174.61 L457.13,174.61 L457.13,174.5 L493.91,174.5 L493.91,161.64 L457.13,161.64 L457.13,155.05 L483.9,152.98 L482.91,140.16 L457.13,142.15 L457.13,133.78 L493.91,133.78 L493.91,133.78 zM356.75,86.41 L368.9,86.41 L368.9,75.99 L356.75,75.99 L356.75,86.41 L356.75,86.41 zM388.88,87.17 L398.44,87.17 L398.44,73.64 L388.88,73.64 L388.88,87.17 L388.88,87.17 zM433.76,73.53 L433.48,73.53 L423.15,78.62 L433.76,78.62 L433.76,85.02 L408.97,85.02 L408.97,78.63 L408.91,78.51 L419.01,73.53 L408.97,73.53 L408.97,67.13 L433.76,67.13 L433.76,73.53 L433.76,73.53 zM408.97,93.48 L433.76,93.48 L433.76,87.65 L408.97,87.65 L408.97,93.48 L408.97,93.48 zM404.78,93.34 L404.76,93.34 L404.76,93.51 L379.13,93.51 L379.13,87.17 L382.54,87.17 L382.54,73.64 L379.41,73.64 L379.41,67.3 L382.54,67.3 L382.54,67.28 L388.88,67.28 L388.88,67.3 L404.76,67.3 L404.76,67.66 L404.78,67.66 L404.78,93.34 L404.78,93.34 zM375.13,93.35 L374.87,93.35 L374.87,93.35 L350.68,93.35 L350.68,93.34 L350.52,93.34 L350.52,69.04 L375.12,69.04 L375.12,69.22 L375.13,69.22 L375.13,93.35 L375.13,93.35 zM346.53,73.41 L346.53,86.61 L340.56,86.61 L340.56,73.97 L337.28,74.28 L337.28,86.09 L331.32,86.09 L331.32,74.84 L327.7,75.18 L327.7,86.09 L321.74,86.09 L321.74,75.74 L321.13,75.79 L320.57,69.85 L347.42,67.34 L347.98,73.28 L346.53,73.41 L346.53,73.41 zM321.69,94.22 L321.69,88.25 L346.5,88.25 L346.5,94.22 L321.69,94.22 L321.69,94.22 zM310.14,101.76 L442.84,101.76 L442.84,60.21 L310.14,60.21 L310.14,101.76 L310.14,101.76 zM341.21,201.97 C341.76,205.92 342.76,208.98 344.23,211.14 C345.69,209.01 346.62,205.78 347.02,201.45 L341.43,201.45 L341.21,201.97 L341.21,201.97 zM337.65,205.43 C339.13,202.73 340.46,199.45 341.63,195.58 L343.48,196.12 C343.04,197.37 342.59,198.57 342.13,199.72 L351.6,199.72 L351.6,201.45 L348.86,201.45 C348.44,206.51 347.31,210.25 345.46,212.69 C346.97,214.3 349.13,215.59 351.95,216.55 C351.5,216.98 351.01,217.59 350.48,218.37 C347.79,217.09 345.71,215.67 344.24,214.11 C342.65,215.74 340.27,217.28 337.09,218.75 C336.72,218.2 336.26,217.65 335.71,217.09 C338.98,215.72 341.41,214.23 343,212.62 C341.56,210.61 340.57,207.92 340.03,204.55 C339.63,205.37 339.23,206.16 338.82,206.91 C338.43,206.34 338.04,205.85 337.65,205.43 L337.65,205.43 zM329.93,205.06 L335.78,205.06 L335.78,199.21 L329.48,199.21 L329.48,197.57 L337.61,197.57 L337.61,207.96 L335.78,207.96 L335.78,206.7 L331.75,206.7 L331.75,214.44 C333.66,213.54 335.61,212.52 337.61,211.4 C337.71,212.15 337.84,212.78 337.98,213.29 C335.95,214.31 333.87,215.42 331.73,216.62 C331.15,217.02 330.7,217.39 330.37,217.72 L329.11,216.1 C329.66,215.6 329.93,214.9 329.93,214 L329.93,205.06 L329.93,205.06 zM363.09,212.34 L371.4,212.34 L371.4,208.97 L363.09,208.97 L363.09,212.34 L363.09,212.34 zM361.29,207.37 L373.2,207.37 L373.2,214.89 L371.4,214.89 L371.4,213.93 L363.09,213.93 L363.09,214.89 L361.29,214.89 L361.29,207.37 L361.29,207.37 zM359.23,203.77 L366.65,203.77 L366.65,200.59 L362.67,200.59 C362.25,201.59 361.8,202.5 361.31,203.32 C360.91,203.06 360.37,202.78 359.7,202.48 C360.84,200.64 361.69,198.59 362.25,196.33 L364.03,196.73 C363.79,197.52 363.55,198.28 363.29,199 L366.65,199 L366.65,195.67 L368.47,195.67 L368.47,199 L374.47,199 L374.47,200.59 L368.47,200.59 L368.47,203.77 L375.61,203.77 L375.61,205.36 L359.23,205.36 L359.23,203.77 L359.23,203.77 zM355.42,196.09 C356.21,197.06 357.3,198.54 358.69,200.52 L357.03,201.69 C355.77,199.71 354.73,198.18 353.92,197.1 L355.42,196.09 L355.42,196.09 zM368.01,216.41 L375.8,216.22 C375.63,216.74 375.41,217.35 375.14,218.07 L367.4,218.12 L361.83,218.01 C359.17,217.95 357.32,217.03 356.26,215.24 C355.62,215.83 354.68,216.88 353.45,218.37 L352.49,216.43 C353.87,215.1 354.87,214.14 355.49,213.56 L355.49,205.69 L352.7,205.69 L352.7,203.96 L357.29,203.96 L357.29,213.96 C358.25,215.51 359.88,216.3 362.18,216.33 L368.01,216.41 L368.01,216.41 zM381.37,205.71 L394.94,205.71 L394.94,204.26 L381.37,204.26 L381.37,205.71 L381.37,205.71 zM381.37,203.04 L394.94,203.04 L394.94,201.64 L381.37,201.64 L381.37,203.04 L381.37,203.04 zM381.32,212.41 L385.14,212.41 C385.2,211.88 385.24,211.28 385.25,210.63 L386.92,210.63 C386.88,211.27 386.83,211.86 386.75,212.41 L394.4,212.41 C394.4,213.4 394.37,214.49 394.3,215.66 C394.2,217.52 393.15,218.44 391.15,218.44 L388.32,218.44 C388.24,217.91 388.13,217.35 387.99,216.76 C388.9,216.84 389.93,216.88 391.08,216.88 C392.03,216.88 392.53,216.42 392.58,215.49 C392.63,215.04 392.66,214.45 392.7,213.72 L386.49,213.72 C385.89,216.42 383.79,218.13 380.2,218.86 C379.96,218.47 379.61,217.98 379.15,217.37 C382.39,216.91 384.29,215.7 384.86,213.72 L381.32,213.72 L381.32,212.41 L381.32,212.41 zM377.02,197.45 L383.87,197.45 L383.87,195.84 L385.51,195.84 L385.51,197.45 L390.8,197.45 L390.8,195.84 L392.44,195.84 L392.44,197.45 L399.3,197.45 L399.3,198.81 L392.44,198.81 L392.44,199.96 L390.8,199.96 L390.8,198.81 L385.51,198.81 L385.51,199.96 L383.87,199.96 L383.87,198.81 L377.02,198.81 L377.02,197.45 L377.02,197.45 zM377.25,208.59 L383.36,208.59 C383.92,208.08 384.43,207.54 384.88,206.98 L381.37,206.98 L381.37,207.56 L379.82,207.56 L379.82,200.35 L396.49,200.35 L396.49,207.56 L394.94,207.56 L394.94,206.98 L386.82,206.98 C386.4,207.54 385.95,208.08 385.46,208.59 L399.09,208.59 L399.09,209.95 L393.94,209.95 C395.48,211.06 397.48,211.98 399.93,212.73 C399.52,213.28 399.17,213.79 398.87,214.25 C396.08,213.13 393.77,211.7 391.95,209.95 L384.11,209.95 C382.25,211.65 380.02,213.15 377.41,214.44 C377.13,214 376.79,213.54 376.38,213.04 C378.43,212.15 380.22,211.12 381.77,209.95 L377.25,209.95 L377.25,208.59 L377.25,208.59 zM405.66,207.77 L412.14,207.77 L412.14,206.06 L405.66,206.06 L405.66,207.77 L405.66,207.77 zM405.66,204.71 L412.14,204.71 L412.14,203.04 L405.66,203.04 L405.66,204.71 L405.66,204.71 zM405.66,201.69 L412.14,201.69 L412.14,200.03 L405.66,200.03 L405.66,201.69 L405.66,201.69 zM411.58,196.35 L412.96,195.51 C413.7,196.32 414.3,197.12 414.77,197.9 L413.69,198.57 L422.65,198.57 L422.65,200.03 L413.78,200.03 L413.78,201.69 L421.62,201.69 L421.62,203.04 L413.78,203.04 L413.78,204.71 L421.62,204.71 L421.62,206.06 L413.78,206.06 L413.78,207.77 L422.72,207.77 L422.72,209.22 L405.66,209.22 L405.66,210.11 L404.02,210.11 L404.02,201.78 C403.22,202.72 402.4,203.56 401.57,204.31 C401.32,203.86 400.94,203.34 400.44,202.76 C402.7,200.88 404.62,198.55 406.18,195.79 L407.79,196.51 C407.35,197.23 406.91,197.92 406.46,198.57 L413.08,198.57 C412.66,197.86 412.16,197.12 411.58,196.35 L411.58,196.35 zM401.21,211.31 L411.3,211.31 L411.3,209.71 L412.94,209.71 L412.94,211.31 L423,211.31 L423,212.8 L414.77,212.8 C417.5,214.73 420.53,216.03 423.87,216.71 C423.45,217.37 423.08,217.94 422.77,218.44 C418.96,217.34 415.69,215.6 412.94,213.21 L412.94,218.7 L411.3,218.7 L411.3,213.19 C408.46,215.56 405.19,217.33 401.47,218.49 C401.14,218.01 400.78,217.51 400.37,217.02 C403.73,216.2 406.74,214.79 409.41,212.8 L401.21,212.8 L401.21,211.31 L401.21,211.31 zM737.6,292.77 L-0,292.77 L-0,0 L737.6,0 L737.6,292.77 L737.6,292.77 zM737.6,292.77 L-0,292.77 L-0,0 L737.6,0 L737.6,292.77 L737.6,292.77 z"/>  </g> </svg>