<svg xmlns="http://www.w3.org/2000/svg" xml:space="preserve" shape-rendering="geometricPrecision" text-rendering="geometricPrecision" image-rendering="optimizeQuality" fill-rule="evenodd" clip-rule="evenodd" xmlns:xlink="http://www.w3.org/1999/xlink" viewBox="0.01 0 2248.49 727.98">  <g id="Layer_1">   <metadata id="FutureCorpID_Layer"/>    <path fill="#000000" d="M2194.68,163.3 C2198.37,164.08 2201.97,165.23 2205.47,166.77 C2209.38,168.47 2214.21,171.14 2219.95,174.76 C2226.14,178.66 2231.44,184.2 2235.85,191.39 C2240.25,198.58 2242.92,206.04 2243.84,213.76 C2246.08,232.49 2240.89,242.5 2228.27,243.79 C2226.69,243.9 2223.85,243.97 2219.73,243.99 L2219.76,243.81 C2215.55,243.8 2213.07,243.79 2212.31,243.78 C2211.77,243.77 2211.29,243.75 2210.87,243.72 C2210.27,243.67 2208.6,243.51 2205.87,243.22 L2203.64,220.34 C2199.98,205.78 2192.41,197.34 2180.94,195.02 C2170.69,193.17 2162.47,194.44 2156.27,198.82 C2151.99,201.85 2148.67,204.84 2146.31,207.78 C2144.17,210.45 2142.37,213.62 2140.93,217.26 C2139.35,221.27 2137.84,226.76 2136.4,233.74 C2133.77,246.49 2133.06,262.06 2134.29,280.46 C2134.67,286.21 2135.91,292.45 2138,299.15 C2140.1,305.87 2142.38,310.9 2144.85,314.26 C2159.03,333.56 2179.31,336.33 2205.68,322.57 C2210.84,319.88 2215.94,316.67 2221,312.96 C2222.66,311.82 2224.24,311.41 2225.75,311.72 C2227.18,312.02 2228.69,313 2230.3,314.66 C2231.97,316.41 2233.94,319.12 2236.19,322.79 L2241.87,332.88 C2242.34,334.04 2242.78,335.22 2243.18,336.41 L2230.4,347.2 C2208.11,362.2 2183.86,368.1 2157.66,364.88 C2138.7,362.55 2123.65,354.4 2112.5,340.43 C2097.75,321.94 2090.47,297.95 2090.67,268.47 C2090.74,258.07 2090.93,250.31 2091.24,245.19 C2091.51,240.75 2091.96,236.78 2092.57,233.29 C2093.28,229.25 2094.51,224.32 2096.27,218.5 C2099.9,206.53 2106.27,195.5 2115.39,185.4 C2131.07,168.02 2152.16,160.04 2178.65,161.46 C2185.22,161.82 2190.57,162.43 2194.68,163.3 L2194.68,163.3 zM2016.69,170.32 C2026.64,175.9 2034.78,183.39 2041.12,192.8 C2046.64,200.98 2050.38,209.96 2052.37,219.73 L2052.38,219.84 C2053.52,225.66 2054.17,229.28 2054.34,230.69 C2054.47,231.69 2054.55,232.91 2054.58,234.36 C2054.61,235.23 2054.62,236.42 2054.63,237.94 C2054.64,239.34 2054.65,241.25 2054.65,243.68 C2054.66,246.34 2054.66,250.22 2054.67,255.29 C2054.68,260.83 2054.67,264.09 2054.63,265.07 C2054.6,265.77 2054.54,266.38 2054.45,266.91 C2054.32,267.66 2053.82,269.7 2052.95,273.02 C2052.56,274.47 2052.12,275.92 2051.63,277.37 L1936.91,277.33 C1939.04,286.7 1941.17,296.08 1943.29,305.46 C1946.72,314.83 1952.57,321.75 1960.86,326.21 C1969.14,330.67 1978.96,332.17 1990.31,330.71 C1996.42,329.93 2001.1,329.15 2004.37,328.39 C2007.13,327.74 2010.03,326.87 2013.07,325.77 C2016.67,324.46 2022.26,322.16 2029.85,318.85 L2029.95,318.81 L2038.47,315.07 L2047.64,332.96 C2049.05,337.05 2049.55,340.05 2049.14,341.96 C2048.79,343.58 2047.7,345.1 2045.87,346.53 C2043.71,348.23 2039.35,350.61 2032.79,353.68 C2016.28,361.41 1998.29,365.49 1978.83,365.92 C1959.37,366.34 1944.02,363.01 1932.77,355.91 C1925.44,351.29 1919.22,345.73 1914.1,339.23 C1911.07,335.39 1907.98,329.84 1904.82,322.58 C1901.67,315.32 1899.66,309.18 1898.79,304.17 C1897.08,294.25 1895.93,286.78 1895.34,281.77 C1894.83,277.46 1894.54,273.4 1894.46,269.58 C1894.35,265.14 1894.54,259.2 1895.01,251.76 C1896.52,227.82 1902.42,208.22 1912.73,192.96 C1920.09,182.05 1930.21,173.58 1943.07,167.54 C1953.25,162.75 1965.62,160.65 1980.19,161.23 C1994.75,161.81 2006.92,164.84 2016.69,170.32 L2016.69,170.32 zM1964.79,194.87 C1956,197.92 1949.48,204.44 1945.24,214.43 C1942.35,221.24 1940.3,228.31 1939.09,235.64 L1937.43,245.74 L2015.95,245.74 L2011.86,222.25 C2009.38,213.81 2006.25,207.77 2002.46,204.11 C1991.4,193.42 1978.85,190.35 1964.79,194.87 L1964.79,194.87 zM1804.88,71.44 C1806.9,71.48 1808.48,71.51 1809.61,71.54 C1810.85,71.57 1811.83,71.6 1812.53,71.62 C1813.7,71.66 1814.65,71.7 1815.4,71.76 C1816.45,71.85 1818.98,72.15 1823,72.69 C1827.5,73.28 1831.08,75.61 1833.74,79.68 L1833.69,79.65 C1834.99,81.8 1835.87,84.26 1836.34,87.02 C1836.74,89.36 1837.01,92.78 1837.16,97.27 C1837.33,102.57 1837.42,111.96 1837.42,125.44 C1837.44,188.83 1837.49,252.22 1837.56,315.6 C1838.08,319.3 1839.01,322.06 1840.37,323.91 C1841.61,325.61 1843.41,326.81 1845.77,327.53 C1848.33,328.3 1852.02,328.63 1856.84,328.53 C1859.49,328.48 1861.91,328.66 1864.08,329.08 C1866.26,329.51 1867.53,330.03 1867.91,330.66 C1869.25,332.89 1869.96,340.43 1870.05,353.28 C1869.99,355.5 1869.78,357.1 1869.4,358.09 C1869.06,358.98 1868.52,359.6 1867.76,359.94 C1866.93,360.31 1865.61,360.44 1863.81,360.32 L1854.93,361.39 C1837.61,363.47 1824.77,362.74 1816.41,359.2 C1805.94,354.77 1799.64,346.88 1797.51,335.51 C1796.64,330.89 1796.13,325.44 1795.99,319.18 C1795.89,314.65 1795.83,306.09 1795.8,293.5 C1795.78,286.34 1795.77,276.32 1795.77,263.45 C1795.77,251.57 1795.77,235.31 1795.77,214.66 C1795.78,192.44 1795.79,161.23 1795.8,121.02 C1795.81,113.83 1795.81,108.35 1795.81,104.57 C1795.81,101.2 1795.81,98.49 1795.8,96.44 C1795.8,94.3 1795.8,92.61 1795.8,91.38 C1795.79,89.33 1795.77,87.62 1795.74,86.23 C1795.72,85.39 1795.7,84.4 1795.67,83.25 C1795.65,82.22 1795.6,80.85 1795.55,79.14 C1795.49,77.29 1795.41,74.65 1795.31,71.23 C1799.5,71.32 1802.69,71.39 1804.88,71.44 L1804.88,71.44 zM1702.78,71.29 L1702.72,71.35 C1707.23,71.98 1712.35,72.32 1718.08,72.36 C1727.11,72.43 1733.03,76.2 1735.85,83.67 C1736.54,85.89 1736.99,88.59 1737.2,91.77 C1737.36,94.34 1737.47,98.47 1737.52,104.17 C1737.54,106.78 1737.56,110.01 1737.57,113.85 C1737.57,117.56 1737.57,122.11 1737.57,127.51 C1737.56,133.11 1737.56,140.08 1737.57,148.4 L1737.64,312.91 C1737.99,317.32 1738.44,320.76 1738.99,323.23 C1739.48,325.38 1740.19,327.5 1741.13,329.57 C1742.21,331.95 1743.99,335.14 1746.49,339.16 C1748.81,343.24 1746.93,349.05 1740.83,356.59 C1738.54,359.42 1736.59,361.28 1734.96,362.19 C1733.53,362.98 1731.94,363.31 1730.19,363.16 C1728.19,362.99 1725.31,362.11 1721.53,360.51 C1715.84,358.09 1711,354.35 1707.03,349.29 L1700.66,341.17 L1689.68,351.49 C1681.89,357.35 1672.77,361.49 1662.34,363.93 C1651.89,366.36 1641.68,366.72 1631.7,365.01 C1621.11,362.99 1612.11,358.34 1604.71,351.07 C1600.84,347.26 1597.63,343.51 1595.08,339.8 C1592.7,336.34 1590.55,332.44 1588.64,328.11 C1586.59,323.47 1584.53,317.64 1582.43,310.59 C1578.92,298.78 1577.18,283.9 1577.21,265.94 C1577.24,247.98 1579.05,233.44 1582.62,222.32 C1587.57,206.95 1593.92,195.03 1601.67,186.56 C1610.57,176.84 1621.54,169.77 1634.58,165.34 C1641.28,163.2 1649.65,162.55 1659.68,163.39 C1669.72,164.23 1678.55,166.33 1686.19,169.68 L1686.35,169.75 C1690.01,171.36 1693.56,173.22 1696.99,175.34 L1696.23,70.38 C1698.41,70.68 1700.6,70.99 1702.78,71.29 L1702.78,71.29 zM1640.01,204.22 C1632.22,210.65 1626.56,220.78 1623.04,234.61 C1619.9,246.92 1618.93,261.04 1620.11,276.96 C1621.29,292.87 1624.19,304.74 1628.79,312.58 C1632.25,318.47 1635.95,322.87 1639.89,325.77 C1643.73,328.6 1647.98,330.19 1652.64,330.54 C1657.42,330.9 1662.91,329.96 1669.11,327.73 C1677.79,324.43 1685.78,318.48 1693.08,309.9 C1694.27,308.37 1695.06,306.94 1695.47,305.6 C1695.82,304.49 1696.05,302.99 1696.16,301.1 C1696.31,298.85 1696.37,294.84 1696.37,289.05 L1696.34,227.71 C1696.56,224.52 1696.52,221.22 1696.2,217.79 C1695.88,214.36 1695.42,212.28 1694.83,211.54 C1693.28,209.6 1689.94,207.35 1684.81,204.77 C1679.68,202.2 1674.55,200.2 1669.43,198.8 C1668.7,198.6 1667.97,198.41 1667.23,198.23 L1667.08,198.18 C1656.82,195.78 1647.8,197.8 1640.01,204.22 L1640.01,204.22 zM1482.04,163.37 C1489.05,164.22 1495.25,165.79 1500.64,168.09 C1506.24,170.47 1511.41,173.82 1516.15,178.14 C1524.89,186.46 1530.13,198.29 1531.86,213.64 C1532.25,217.08 1532.47,219.94 1532.52,222.21 C1532.56,223.81 1532.58,226.67 1532.58,230.81 C1532.58,233.31 1532.58,236.91 1532.57,241.62 C1532.56,245.94 1532.55,251.97 1532.53,259.72 C1532.51,268.2 1532.49,280.57 1532.46,296.82 C1532.44,304.63 1532.7,311.07 1533.24,316.15 C1533.75,321.01 1534.55,325.07 1535.64,328.32 C1536.78,331.72 1538.34,334.55 1540.32,336.83 C1541.99,338.75 1542.95,340.64 1543.21,342.5 C1543.46,344.27 1543.11,346.21 1542.16,348.34 C1541.16,350.59 1539.36,353.33 1536.77,356.55 C1534.45,359.32 1532.39,361.19 1530.57,362.13 C1528.94,362.98 1527.12,363.31 1525.12,363.12 C1522.9,362.91 1519.85,361.98 1515.99,360.33 C1510.22,357.69 1505.48,353.83 1501.79,348.76 C1500.01,346.31 1498.42,343.72 1497.04,340.98 L1476.91,355.1 C1460.96,364.73 1443.65,367.9 1424.97,364.62 C1409.59,361.91 1398.07,354.87 1390.43,343.49 C1379.67,327.49 1376.59,309.41 1381.19,289.25 C1385.78,269.11 1397.41,255.71 1416.08,249.08 C1422.66,246.74 1428.07,245.08 1432.33,244.1 C1436.11,243.23 1439.99,242.64 1443.97,242.34 C1448.46,241.99 1454.43,241.91 1461.9,242.1 C1466.74,242.31 1471.59,242.53 1476.44,242.74 C1481.94,242.82 1487.44,242.91 1492.94,242.99 L1490.06,216.73 C1487.55,207.45 1481.88,201.27 1473.07,198.19 C1464.25,195.11 1452.92,195.34 1439.05,198.88 L1404.66,209.53 C1402.47,210.14 1400.81,210.44 1399.67,210.41 C1398.65,210.38 1397.78,210.1 1397.05,209.56 C1396.23,208.95 1395.36,207.83 1394.43,206.21 C1394.04,205.67 1393.66,205.14 1393.27,204.61 C1392.14,202.96 1391.42,201.81 1391.13,201.17 C1390.91,200.7 1390.68,200.05 1390.44,199.22 C1390.1,198.08 1389.22,194.7 1387.79,189.07 C1386.73,185.22 1386.43,182.68 1386.91,181.45 C1387.27,180.49 1388.24,179.6 1389.83,178.79 C1391.86,177.74 1397.04,175.85 1405.36,173.1 L1406.03,172.88 L1406.13,172.85 C1423.68,167.05 1440.27,163.73 1455.89,162.88 C1466.05,162.33 1474.77,162.49 1482.04,163.37 L1482.04,163.37 zM1449.94,272.42 C1445.51,272.9 1441.82,273.8 1438.86,275.13 C1435.59,276.6 1432.42,278.97 1429.37,282.26 C1424.71,287.49 1421.99,293.79 1421.22,301.17 C1420.44,308.54 1421.8,315.15 1425.29,320.99 C1432.47,332.3 1444.03,335.26 1459.95,329.87 C1466.18,327.76 1472.14,324.81 1477.84,321.03 C1483.54,317.24 1487.56,313.59 1489.9,310.08 C1490.81,308.54 1491.41,306.83 1491.7,304.93 C1491.96,303.26 1492.06,300.98 1492,298.11 C1491.94,294.85 1491.65,289.71 1491.12,282.71 C1490.9,279.75 1490.86,276.77 1491,273.77 C1488.25,273.05 1486.5,272.64 1485.75,272.52 C1485.23,272.44 1484.54,272.38 1483.68,272.34 C1483.17,272.31 1482.46,272.29 1481.54,272.26 C1480.71,272.23 1479.55,272.2 1478.07,272.16 C1476.45,272.12 1474.1,272.06 1471.02,271.99 L1471.13,272.06 C1461.91,271.78 1454.85,271.9 1449.94,272.42 L1449.94,272.42 zM1332.11,91.79 C1332.59,91.82 1332.93,91.84 1333.13,91.84 C1333.26,91.85 1333.47,91.85 1333.76,91.85 C1334.18,91.85 1335.69,91.86 1338.31,91.87 C1340.61,91.92 1342.09,92.04 1342.77,92.21 C1343.29,92.35 1343.73,92.61 1344.09,92.97 C1344.54,93.45 1345.25,94.6 1346.23,96.43 C1346.31,97.05 1345.95,98.08 1345.15,99.53 C1344.59,100.55 1343.38,102.62 1341.53,105.75 C1340.41,107.63 1338.77,110.38 1336.61,113.99 C1334.63,117.3 1331.85,121.94 1328.27,127.92 C1324.36,134.46 1318.65,143.99 1311.13,156.54 L1275.56,215.94 L1291.08,221.9 C1300.49,227.4 1309.01,238.99 1316.64,256.66 C1322.54,272.27 1328.44,287.88 1334.36,303.48 L1339.9,318.1 C1340.93,321.48 1342.79,325.7 1345.47,330.79 C1348.16,335.87 1350.58,339.74 1352.75,342.41 C1354.98,345.16 1357.31,347.8 1359.74,350.34 L1347.96,358.59 C1341.84,361.81 1335.09,363.32 1327.72,363.11 C1320.35,362.91 1314.81,361.06 1311.09,357.57 C1309.42,355.9 1307.82,353.68 1306.27,350.9 C1304.83,348.3 1303.24,344.87 1301.51,340.59 C1299.66,336.02 1297.37,329.79 1294.64,321.9 L1276.86,274.4 C1274.17,267.92 1271.36,262.58 1268.41,258.38 C1265.56,254.33 1262.37,251.03 1258.83,248.47 C1255.15,245.81 1250.81,243.74 1245.8,242.27 C1243.32,241.61 1241.53,241.24 1240.41,241.15 C1239.63,241.08 1238.34,241.04 1236.55,241.04 C1235.47,241.03 1233.92,241.04 1231.91,241.04 C1230.08,241.05 1227.51,241.07 1224.22,241.09 C1220.61,241.12 1215.35,241.16 1208.45,241.22 L1208.29,358.44 C1207.96,359.86 1207.2,360.74 1206.01,361.08 C1205.1,361.33 1203.39,361.51 1200.87,361.61 C1199.58,361.67 1197.87,361.71 1195.74,361.75 C1193.73,361.79 1191.11,361.82 1187.9,361.86 C1184.49,361.89 1179.99,361.93 1174.39,361.97 C1170.31,361.66 1167.82,361.28 1166.92,360.83 C1166.24,360.5 1165.79,359.9 1165.57,359.04 C1165.28,357.91 1165.13,354.82 1165.13,349.78 C1165.19,264.46 1165.25,179.14 1165.28,93.81 C1165.54,92.91 1166.33,92.28 1167.68,91.93 C1168.84,91.63 1170.76,91.42 1173.46,91.31 C1176.57,91.18 1182.01,91.14 1189.77,91.18 C1196.34,91.22 1200.75,91.35 1202.98,91.58 C1204.82,91.77 1206.14,92.1 1206.93,92.57 C1207.89,93.14 1208.56,94.27 1208.94,95.98 C1208.8,98.2 1208.66,100.43 1208.52,102.66 C1208.5,115.88 1208.48,129.09 1208.47,142.31 L1208.53,142.23 L1208.44,201.96 C1213.04,203.08 1215.75,203.71 1216.57,203.88 C1217.14,203.99 1217.65,204.07 1218.1,204.1 C1218.73,204.15 1220.44,204.17 1223.23,204.16 C1228.53,204.02 1232.29,203.4 1234.52,202.29 C1236.33,201.39 1238.13,199.77 1239.95,197.43 C1242.19,194.53 1245.98,188.38 1251.34,178.97 L1280.38,130.23 C1282.16,127.23 1283.52,124.93 1284.45,123.35 C1285.31,121.88 1285.97,120.75 1286.45,119.94 C1286.97,119.04 1287.39,118.33 1287.69,117.81 C1288.19,116.94 1288.61,116.21 1288.95,115.6 C1289.44,114.74 1290.67,112.51 1292.64,108.93 C1298.15,98.91 1304.56,93.22 1311.86,91.86 C1314.45,91.42 1316.47,91.16 1317.91,91.06 C1319.1,90.99 1320.47,90.98 1322.03,91.05 C1323.93,91.13 1327.29,91.38 1332.11,91.79 L1332.11,91.79 z"/>   <path fill="#00278C" d="M589.36,0.02 C589.22,33.9 589.08,67.78 588.93,101.66 C588.47,211.82 588.01,321.99 587.55,432.15 L460.37,430.97 L460.36,0.02 L589.36,0.02 L589.36,0.02 zM433.89,0.05 L433.85,276.52 L310.9,276.51 C310.82,184.36 310.74,92.21 310.67,0.06 C350.63,0.06 390.59,0.06 430.55,0.06 L430.59,0.04 L433.89,0.05 L433.89,0.05 zM129.58,0.04 L129.23,156.8 C129.18,176.39 129.13,195.98 129.09,215.56 C86.06,215.56 43.03,215.56 0.01,215.56 C0.14,143.72 0.27,71.88 0.41,0.04 L129.58,0.04 L129.58,0.04 zM279.28,1.92 L279.3,1.91 C279.64,107.24 279.99,212.56 280.33,317.89 L280.89,491.12 C239.13,491.11 197.38,491.11 155.63,491.11 C155.64,327.4 155.65,163.7 155.65,0 L279.28,0.01 C279.28,0.65 279.28,1.29 279.28,1.92 L279.28,1.92 zM128.14,247.46 L128.15,615.77 L2.35,615.76 C2.18,492.99 2,370.23 1.82,247.46 C43.04,247.46 84.26,247.46 125.49,247.46 L128.14,247.46 L128.14,247.46 zM278.84,523.08 L278.84,523.9 C278.94,591.93 279.04,659.95 279.13,727.98 L157.23,727.98 C157.24,659.68 157.24,591.38 157.24,523.07 L278.84,523.08 L278.84,523.08 zM431.8,307.56 L431.89,307.56 C431.9,447.71 431.91,587.84 431.91,727.98 L310.92,727.98 L310.9,307.42 C351.2,307.47 391.5,307.52 431.8,307.56 L431.8,307.56 z"/>   <path fill="#00278C" d="M840.61,491.5 L840.63,491.52 C848.28,496.32 853.73,503.57 857,513.28 C860.27,522.98 860.71,533.39 858.31,544.49 C854.14,563.83 842.12,575.28 822.27,578.84 C820.71,579.09 818.88,579.26 816.79,579.37 C814.82,579.47 812.35,579.51 809.39,579.51 C806.23,579.51 802.05,579.45 796.85,579.33 C795.35,579.34 794.29,579.58 793.69,580.06 C793.17,580.47 792.82,581.18 792.63,582.19 C792.41,583.36 792.34,585.37 792.41,588.24 C792.47,590.44 792.51,593.57 792.52,597.64 C792.53,601.71 792.52,605.89 792.49,610.18 C792.46,614.47 792.41,618 792.35,620.78 C792.29,623.55 792.22,625 792.16,625.13 C791.93,625.57 791.71,625.84 791.5,625.96 C791.34,626.05 791.07,626.12 790.71,626.16 C790.24,626.22 789.12,626.29 787.35,626.38 L783.28,627 L769.48,626.21 C767.27,626.39 765.78,626.26 765,625.83 C764.35,625.47 763.9,624.76 763.66,623.72 C763.37,622.48 763.23,620.08 763.23,616.52 C763.28,572.77 763.3,529.03 763.3,485.29 C775.96,484.21 788.64,483.67 801.33,483.66 C818.91,483.65 832,486.26 840.61,491.5 L840.61,491.5 zM792.27,508.32 L792.52,555.41 C792.81,555.99 793.06,556.33 793.29,556.42 C793.45,556.48 793.75,556.52 794.18,556.54 C794.79,556.57 797.1,556.61 801.1,556.65 C805.92,556.7 809.76,556.46 812.64,555.93 C815.32,555.44 817.59,554.61 819.46,553.44 C821.48,552.18 823.38,550.3 825.15,547.82 C828.05,543.32 829.38,537.78 829.14,531.21 C828.89,524.64 827.16,519.32 823.95,515.24 C823.53,514.72 823.13,514.23 822.74,513.77 L822.76,513.76 C821.2,512.06 819.58,510.8 817.89,509.99 C816.34,509.24 814.44,508.72 812.19,508.43 C809.73,508.11 806.32,508 801.97,508.1 L792.27,508.32 L792.27,508.32 zM906.99,523.92 C905.06,528.36 903.68,534.54 902.84,542.46 C901.99,550.39 901.92,557.73 902.63,564.51 C903.4,571.78 904.16,577.14 904.92,580.56 C905.57,583.51 906.45,586.09 907.55,588.29 C908.82,590.85 910.92,593.91 913.85,597.48 C918.95,603.35 926.68,605.58 937.06,604.2 C941.02,603.48 944.75,601.21 948.25,597.39 C951.76,593.57 954.34,588.93 956.01,583.47 C958.75,574.45 959.91,563.69 959.49,551.17 C959.07,538.66 957.24,529.03 953.99,522.31 C949.82,513.68 944.23,508.6 937.22,507.06 C923.53,504.33 913.45,509.95 906.99,523.92 L906.99,523.92 zM980.56,507.94 C986.72,518.89 990.12,532.92 990.75,550.01 C991.39,567.11 989.04,582.06 983.71,594.87 C977.24,610.41 966.64,620.75 951.88,625.89 C946.82,627.52 940.19,628.33 931.99,628.31 C923.79,628.29 916.93,627.44 911.4,625.75 C903.35,623.29 896.66,619.55 891.33,614.53 C886.12,609.64 881.95,603.31 878.82,595.54 C875.61,587.58 873.32,577.71 871.96,565.92 C871,557.67 871.53,546.84 873.55,533.43 C876.15,516.07 883.04,502.9 894.19,493.89 C904.17,485.85 917.12,481.94 933.05,482.19 L932.63,482.12 C954.77,482.6 970.75,491.21 980.56,507.94 L980.56,507.94 zM1042.19,483.74 C1043.84,483.76 1046.09,483.78 1048.93,483.81 C1052.04,483.84 1056.54,483.9 1062.43,483.98 C1073.32,484.12 1082.56,485.55 1090.15,488.24 L1090.21,488.25 C1116.44,498.04 1127.25,526.72 1122.65,574.31 C1119.55,606.19 1102.57,623.52 1071.68,626.32 C1067.06,626.74 1064.27,626.98 1063.29,627.03 C1062.61,627.06 1061.87,627.08 1061.07,627.07 C1059.95,627.06 1056.38,626.95 1050.36,626.75 L1013.87,626.18 C1013.83,578.94 1013.8,531.71 1013.76,484.47 C1018.24,484.3 1021.68,484.16 1024.07,484.07 C1026.25,483.99 1027.99,483.92 1029.29,483.88 C1030.72,483.83 1031.9,483.79 1032.84,483.77 C1034.39,483.73 1036.07,483.71 1037.87,483.72 C1038.96,483.72 1040.4,483.73 1042.19,483.74 L1042.19,483.74 zM1043.12,602.43 L1068.73,602.43 C1077.61,601.26 1084.1,595.39 1088.19,584.8 C1091.96,575.08 1093.49,563.34 1092.78,549.58 C1092.08,535.82 1089.46,525.72 1084.94,519.27 C1084.28,518.33 1083.65,517.49 1083.05,516.76 L1083.03,516.77 C1078.35,511.28 1071.78,508.66 1063.34,508.91 L1048.25,508.01 C1046.54,507.84 1044.83,507.67 1043.11,507.5 L1043.12,602.43 L1043.12,602.43 zM1164.44,484.08 C1165.13,484.2 1166.37,484.67 1168.13,485.49 C1170.18,486.6 1171.73,487.9 1172.77,489.39 C1173.73,490.76 1174.44,492.52 1174.9,494.68 C1175.38,497.01 1175.67,500.26 1175.77,504.42 C1175.92,511.79 1175.98,519.41 1175.93,527.29 L1175.78,527.31 L1175.77,600.19 L1232.49,599.62 L1230.39,614.41 C1228.98,618.88 1227.07,621.86 1224.66,623.37 C1222.64,624.63 1219.47,625.48 1215.13,625.9 C1209.92,626.42 1200.04,626.56 1185.5,626.32 C1180,626.37 1174.5,626.4 1169,626.42 C1163.15,626.43 1158.62,625.89 1155.39,624.79 C1152.34,623.76 1150.07,622.13 1148.58,619.9 C1146.99,617.53 1146.08,614.18 1145.84,609.83 C1145.81,567.94 1145.78,526.05 1145.74,484.16 C1149.76,484.09 1152.82,484.04 1154.92,484.01 C1156.84,483.98 1158.34,483.96 1159.41,483.95 C1160.59,483.94 1161.49,483.94 1162.12,483.94 C1163.17,483.95 1163.94,484 1164.44,484.08 L1164.44,484.08 zM1310.72,484.17 C1312.92,484.32 1314.46,484.61 1315.35,485.05 C1316.48,485.61 1317.36,487 1318,489.21 L1333.22,535.8 L1333.2,535.8 C1342.75,565.23 1352.31,594.65 1361.87,624.08 L1347.97,627.05 C1343.81,627.37 1340.48,627.22 1337.98,626.61 C1335.64,626.04 1333.7,624.98 1332.17,623.43 C1330.54,621.78 1329.16,619.35 1328.02,616.12 C1327.49,614.62 1327.16,613.66 1327.03,613.26 C1326.94,612.98 1326.83,612.61 1326.69,612.15 C1326.5,611.51 1325.84,609.27 1324.72,605.42 L1320.75,594.44 C1311.76,594.43 1304.93,594.42 1300.25,594.42 C1295.96,594.41 1292.63,594.41 1290.26,594.41 C1287.67,594.42 1285.69,594.42 1284.33,594.43 C1282.08,594.45 1280.56,594.49 1279.78,594.55 C1278.68,594.64 1277.67,594.99 1276.77,595.59 C1275.96,596.13 1275.27,597.03 1274.68,598.3 C1274.19,599.35 1273.56,601.08 1272.79,603.49 C1271.86,606.39 1270.2,611.97 1267.82,620.24 C1267.18,622.46 1266.78,623.76 1266.63,624.12 C1266.52,624.38 1266.39,624.59 1266.24,624.73 C1266.02,624.94 1265.27,625.41 1263.98,626.12 C1262.53,626.94 1259.36,627.27 1254.46,627.13 C1249.56,626.99 1244.82,626.42 1240.26,625.44 C1238.3,624.95 1237.46,623.79 1237.74,621.94 L1280.95,491.17 C1282,488 1282.75,486.08 1283.19,485.4 C1283.53,484.9 1283.98,484.57 1284.54,484.4 C1285.31,484.17 1287.32,484.04 1290.6,484.02 C1301.2,483.94 1307.91,483.99 1310.72,484.17 L1310.72,484.17 zM1284.04,570.38 C1284.32,570.57 1284.8,570.69 1285.48,570.75 C1286.32,570.82 1287.96,570.83 1290.42,570.77 C1297.45,570.76 1304.48,570.75 1311.51,570.75 C1312.3,570.57 1312.8,570.34 1312.99,570.07 C1313.16,569.84 1313.21,569.48 1313.14,569 C1313.05,568.43 1312.73,567.36 1312.18,565.79 L1302.45,531.4 L1302.5,531.3 C1301.24,526.9 1299.99,522.51 1298.74,518.11 L1283.4,568.98 C1283.48,569.68 1283.7,570.15 1284.04,570.38 L1284.04,570.38 zM1405.14,484.53 C1405.6,484.82 1405.92,485.32 1406.08,486.04 C1406.29,486.91 1406.37,488.59 1406.33,491.09 C1406.21,499.31 1406.2,509.11 1406.32,520.5 C1406.43,531.89 1406.59,537.89 1406.8,538.49 C1407.17,539.53 1407.73,540.12 1408.48,540.28 C1409.02,540.39 1410.1,540.46 1411.72,540.49 C1412.7,540.51 1414.13,540.53 1416.01,540.54 C1417.73,540.54 1420.14,540.55 1423.23,540.56 C1426.63,540.56 1431.58,540.56 1438.1,540.56 C1443.24,540.56 1446.25,540.56 1447.13,540.57 C1447.76,540.57 1448.22,540.57 1448.52,540.58 C1448.93,540.59 1449.6,540.62 1450.52,540.68 C1451.65,540.72 1452.46,540.57 1452.95,540.23 C1453.38,539.92 1453.68,539.38 1453.84,538.61 C1454.02,537.75 1454.07,536.34 1454,534.38 C1453.96,522.23 1453.95,512.74 1453.95,505.91 C1453.96,499.41 1453.99,494.6 1454.04,491.5 C1454.09,488.22 1454.17,486.47 1454.28,486.23 C1454.67,485.38 1455.2,484.83 1455.87,484.57 C1456.41,484.36 1457.31,484.22 1458.55,484.14 C1460.08,484.05 1463.27,484 1468.12,484 C1473.06,484 1475.92,484 1476.71,484.01 C1477.26,484.02 1477.67,484.04 1477.94,484.06 C1478.32,484.1 1479.02,484.24 1480.04,484.47 C1483.14,485.3 1484.3,488.78 1483.52,494.93 C1483.42,495.66 1483.35,502.02 1483.3,514.01 C1483.25,526.01 1483.23,540.3 1483.25,556.89 C1483.26,573.48 1483.29,587.75 1483.36,599.7 C1483.43,611.65 1483.51,617.96 1483.6,618.62 C1483.94,620.8 1483.99,622.42 1483.74,623.48 C1483.51,624.44 1483,625.13 1482.19,625.56 C1481.32,626.04 1479.88,626.29 1477.9,626.33 C1475.95,626.32 1474.5,626.38 1473.54,626.51 C1469.67,626.45 1466.73,626.41 1464.71,626.38 C1462.87,626.35 1461.44,626.33 1460.42,626.31 C1459.3,626.28 1458.45,626.26 1457.86,626.24 C1456.89,626.2 1456.24,626.14 1455.9,626.06 C1455.42,625.95 1454.97,625.52 1454.55,624.79 C1454.26,624.27 1454.09,623.44 1454.05,622.28 C1454.02,621.47 1454,619.81 1453.99,617.32 C1453.99,615.81 1453.99,613.62 1453.99,610.73 C1453.98,608.08 1453.98,604.37 1453.99,599.62 C1453.99,594.4 1454,586.79 1454.01,576.77 C1454.02,572.61 1454,570.09 1453.94,569.21 C1453.89,568.56 1453.79,568.09 1453.65,567.81 C1453.45,567.44 1452.86,567 1451.88,566.52 C1451.52,566.34 1450.92,566.24 1450.08,566.22 C1449.49,566.2 1448.28,566.19 1446.46,566.18 C1445.37,566.18 1443.76,566.18 1441.66,566.18 C1439.73,566.18 1437.03,566.18 1433.56,566.18 C1429.75,566.18 1424.2,566.17 1416.9,566.17 C1412.67,566.17 1410.22,566.18 1409.56,566.2 C1409.1,566.22 1408.78,566.26 1408.59,566.32 C1408.32,566.4 1407.94,566.72 1407.45,567.28 C1406.87,567.94 1406.54,568.87 1406.46,570.07 C1406.4,570.91 1406.36,572.61 1406.34,575.16 C1406.33,576.7 1406.32,578.94 1406.32,581.88 C1406.32,584.55 1406.32,588.33 1406.32,593.22 C1406.32,598.54 1406.33,606.31 1406.34,616.52 C1406.38,617.93 1406.47,619.65 1406.62,621.68 C1406.65,623.36 1406.49,624.48 1406.14,625.06 C1405.85,625.54 1405.32,625.86 1404.55,626.02 C1403.63,626.21 1401.85,626.26 1399.21,626.16 C1399.02,626.16 1398.83,626.16 1398.66,626.18 C1398.54,626.2 1398.32,626.22 1397.98,626.27 C1397.52,626.33 1395.75,626.56 1392.66,626.96 C1391.08,627.13 1390.1,627.22 1389.74,627.22 C1389.49,627.22 1389.19,627.2 1388.86,627.16 C1388.38,627.09 1386.8,626.82 1384.11,626.34 C1383.49,626.23 1382.65,626.2 1381.6,626.24 C1380.22,626.3 1379.23,626.19 1378.62,625.9 C1378.08,625.65 1377.7,625.2 1377.47,624.56 C1377.22,623.83 1377.1,622.63 1377.11,620.96 C1377.13,617.11 1377.15,608.55 1377.17,595.29 C1377.18,582.04 1377.18,567.19 1377.17,550.74 C1377.17,534.29 1377.15,520.1 1377.12,508.16 C1377.09,496.23 1377.06,489.34 1377.02,487.51 C1377.05,486.31 1377.3,485.48 1377.76,485.03 C1378.16,484.64 1378.85,484.37 1379.82,484.23 C1380.96,484.05 1383.01,483.97 1385.97,483.97 L1401.87,483.98 C1403.5,484.01 1404.59,484.19 1405.14,484.53 L1405.14,484.53 zM1519.95,483.55 C1522.77,483.96 1525.13,485.07 1527.04,486.88 C1529.1,488.83 1530.98,491.99 1532.69,496.34 L1549.45,539.24 C1550.44,542.7 1551.28,546.21 1551.98,549.75 L1554.2,544.18 L1554.22,544.34 L1577.8,485.09 C1578.29,484.57 1578.97,484.24 1579.84,484.11 C1580.54,484 1581.72,483.95 1583.36,483.95 C1585.42,483.95 1589.86,484.04 1596.68,484.24 C1599.63,484.68 1601.59,485.03 1602.56,485.29 C1603.34,485.5 1603.91,485.75 1604.27,486.05 C1604.7,486.41 1605.05,487.08 1605.31,488.06 C1605.5,488.75 1605.28,489.95 1604.67,491.67 C1604.2,492.97 1603.23,495.38 1601.77,498.92 C1601.01,500.74 1600,503.16 1598.74,506.16 C1597.55,509 1595.99,512.7 1594.07,517.26 C1592.04,522.08 1589.33,528.47 1585.96,536.43 C1581.89,546.03 1578.8,553.34 1576.68,558.35 C1574.74,562.94 1573.23,566.51 1572.16,569.07 C1570.99,571.86 1570.1,574.01 1569.48,575.52 C1568.47,578.02 1567.8,579.84 1567.48,580.98 C1567.02,582.59 1566.72,585.33 1566.59,589.19 C1566.31,594.31 1566.16,597.4 1566.14,598.47 C1566.13,599.22 1566.14,600.02 1566.18,600.87 C1566.23,602.07 1566.47,605.92 1566.91,612.4 C1567.14,615.91 1567.21,618.61 1567.1,620.5 C1567,622.25 1566.74,623.57 1566.33,624.45 C1565.89,625.39 1565.2,625.98 1564.26,626.2 L1560.19,626.4 C1554.85,626.99 1549.79,626.94 1544.99,626.25 L1540.46,626.35 C1539.27,626.34 1538.4,626.03 1537.86,625.42 C1537.44,624.96 1537.2,624.41 1537.14,623.77 C1537.1,623.31 1537.08,622.43 1537.07,621.1 C1537.07,620.3 1537.08,619.14 1537.08,617.62 C1537.09,616.22 1537.1,614.27 1537.12,611.75 C1537.15,609 1537.18,604.98 1537.21,599.69 C1537.24,596.02 1537.25,593.15 1537.23,591.09 C1537.22,589.19 1537.19,587.66 1537.15,586.48 C1537.1,585.22 1537.02,584.15 1536.91,583.28 C1536.73,581.77 1536.34,580.15 1535.73,578.43 C1535.38,577.44 1534.88,576.15 1534.24,574.58 C1533.64,573.13 1532.81,571.19 1531.77,568.76 C1530.64,566.14 1529.05,562.44 1527.02,557.67 L1503.24,501.92 L1497.05,488.51 C1500.48,486.61 1503.99,485.27 1507.56,484.47 C1512.78,483.41 1516.91,483.11 1519.95,483.55 L1519.95,483.55 zM1743.97,488.87 C1761.65,495.64 1771.88,511.17 1774.68,535.48 C1775.56,543.18 1776.08,548.89 1776.24,552.59 C1776.37,555.68 1776.33,558.79 1776.12,561.94 C1775.87,565.72 1775.18,571.62 1774.07,579.65 C1771.04,601.45 1760.66,615.62 1742.93,622.15 C1738.21,623.89 1733.76,625.1 1729.58,625.79 C1725.83,626.41 1721.41,626.79 1716.33,626.91 C1710.67,627.05 1702.64,626.91 1692.23,626.5 C1689.02,626.37 1686.94,626.3 1686,626.28 C1685.34,626.27 1684.44,626.26 1683.28,626.25 C1682.59,626.25 1681.62,626.25 1680.38,626.25 C1679.22,626.25 1677.64,626.25 1675.63,626.25 C1673.41,626.25 1670.19,626.26 1665.96,626.26 C1665.92,578.72 1665.87,531.18 1665.82,483.64 L1710.18,483.93 C1724.35,484.02 1735.61,485.67 1743.97,488.87 L1743.97,488.87 zM1706.14,602.55 C1706.89,602.54 1707.5,602.54 1707.96,602.55 C1708.61,602.55 1710.11,602.58 1712.46,602.62 C1717.43,602.71 1721.49,602.34 1724.63,601.5 C1727.55,600.72 1730.11,599.42 1732.29,597.61 C1734.63,595.68 1736.9,592.85 1739.1,589.12 C1743.73,580.9 1745.92,569.28 1745.67,554.28 C1745.43,539.27 1742.86,527.81 1737.96,519.89 C1737.1,518.57 1736.2,517.38 1735.24,516.32 L1735.31,516.28 C1730.43,511.17 1723.42,508.73 1714.28,508.95 L1700.07,507.76 L1694.94,507.11 L1694.92,602.66 C1701.34,602.59 1705.08,602.56 1706.14,602.55 L1706.14,602.55 zM1813.25,489.6 C1814.04,491.12 1814.59,492.37 1814.91,493.33 C1815.14,494.02 1815.51,495.23 1816.01,496.98 C1816.32,498.04 1816.75,499.56 1817.31,501.55 C1817.83,503.39 1818.55,505.94 1819.47,509.2 C1820.48,512.78 1821.95,518 1823.88,524.87 C1828.32,540.65 1831.54,552.19 1833.54,559.49 C1835.3,565.88 1836.66,571.02 1837.63,574.9 C1838.74,579.32 1839.71,583.58 1840.53,587.67 C1841.39,590.86 1842.17,592.66 1842.88,593.07 C1843.37,593.36 1843.94,592.69 1844.57,591.05 L1844.58,591.1 L1870.52,488.11 C1870.91,486.55 1871.37,485.5 1871.9,484.97 C1872.35,484.53 1873.01,484.23 1873.89,484.09 C1874.94,483.92 1876.88,483.9 1879.7,484.02 C1883.25,484 1886.8,483.99 1890.35,483.97 C1897.16,484.43 1899.98,486.66 1898.83,490.68 C1885.6,536.66 1872.36,582.65 1859.11,628.63 C1856.18,627.09 1853.51,626.32 1851.1,626.33 L1850.39,626.32 L1845.91,626.72 C1835.49,627.66 1828.16,626.68 1823.94,623.8 C1822.09,622.41 1820.9,621.25 1820.37,620.33 C1819.99,619.65 1819.55,618.52 1819.04,616.94 C1818.76,616.05 1818.39,614.83 1817.94,613.28 C1817.52,611.83 1816.97,609.89 1816.28,607.44 C1815.53,604.8 1814.49,601.14 1813.15,596.46 C1803.04,561.11 1792.91,525.78 1782.77,490.44 C1782.42,489.5 1782.06,488.59 1781.71,487.71 C1785.92,485.95 1790.28,484.68 1794.8,483.88 C1804.12,482.22 1810.27,484.13 1813.25,489.6 L1813.25,489.6 zM2003.35,485 C2004.1,485.27 2004.57,485.54 2004.76,485.82 C2004.91,486.03 2005.02,486.38 2005.07,486.85 C2005.13,487.46 2005.16,488.87 2005.16,491.1 C2005.18,497.05 2005.04,501.33 2004.75,503.94 C2004.49,506.26 2004.05,507.92 2003.42,508.91 C2002.71,510.03 2001.54,510.61 1999.91,510.66 L1950.35,510.44 C1948.87,510.47 1947.82,510.72 1947.22,511.21 C1946.69,511.64 1946.33,512.37 1946.13,513.39 C1945.91,514.56 1945.84,516.55 1945.92,519.35 C1945.94,520.2 1945.95,521.38 1945.96,522.9 C1945.96,527.05 1945.97,530.21 1945.98,532.38 C1945.99,534.35 1946,535.89 1946.03,536.99 C1946.06,538.18 1946.09,539.09 1946.15,539.71 C1946.23,540.74 1946.41,541.41 1946.69,541.73 C1947.08,542.17 1948.59,542.4 1951.22,542.4 C1951.85,542.38 1953.76,542.36 1956.96,542.35 C1960.15,542.33 1963.92,542.31 1968.27,542.3 C1972.62,542.29 1976.59,542.29 1980.19,542.29 C1983.78,542.29 1986.21,542.29 1987.47,542.31 C1989.77,542.27 1991.39,542.56 1992.33,543.17 C1993.15,543.71 1993.73,544.64 1994.05,545.96 C1994.42,547.48 1994.58,550.1 1994.54,553.81 C1994.48,559.08 1994.27,562.47 1993.9,563.98 C1993.6,565.18 1993.06,566 1992.27,566.42 C1991.29,566.95 1989.1,567.18 1985.72,567.1 C1983.47,567.05 1980.29,567.02 1976.15,567 C1972.01,566.99 1967.77,566.99 1963.41,567.02 C1959.04,567.04 1955.44,567.08 1952.6,567.14 C1949.76,567.2 1948.25,567.27 1948.08,567.33 C1947.3,567.64 1946.78,568 1946.53,568.41 C1946.31,568.75 1946.17,569.27 1946.09,569.98 C1945.99,570.84 1945.95,572.51 1945.97,575.01 L1946.08,598.69 C1946.4,599.65 1946.77,600.21 1947.18,600.35 C1947.48,600.45 1948.05,600.52 1948.91,600.55 C1949.42,600.57 1950.17,600.59 1951.16,600.6 C1952.06,600.6 1953.32,600.61 1954.95,600.61 C1956.72,600.62 1959.32,600.62 1962.73,600.62 C1978.64,600.62 1994.55,600.63 2010.45,600.63 L2006.96,616.5 C2005.8,619.67 2004.2,621.95 2002.17,623.32 C2000.37,624.55 1997.78,625.39 1994.42,625.85 C1990.64,626.37 1984.76,626.53 1976.78,626.34 L1949.45,626.38 C1941.73,626.4 1936.18,626.29 1932.83,626.08 C1929.91,625.89 1927.67,625.57 1926.09,625.13 C1924.28,624.62 1922.72,623.75 1921.41,622.52 C1919.59,620.86 1918.33,619.24 1917.63,617.66 C1917.04,616.32 1916.62,614.52 1916.37,612.26 C1916.09,609.62 1915.94,605.16 1915.94,598.86 L1915.91,484.92 C1945.05,484.94 1974.2,484.97 2003.35,485 L2003.35,485 zM2075.56,483.83 C2094.87,483.92 2108.82,488.08 2117.41,496.33 C2124.13,503.1 2127.92,512.11 2128.79,523.37 C2129.66,534.62 2127.31,544.15 2121.72,551.97 C2118.76,555.85 2114.99,559.47 2110.41,562.83 C2109.89,563.24 2109.47,563.68 2109.14,564.14 C2108.81,564.61 2108.64,564.99 2108.65,565.29 L2112.53,570.03 C2113.2,570.93 2113.77,571.9 2114.26,572.94 C2114.6,573.68 2115.21,575.1 2116.11,577.2 C2116.66,578.48 2117.44,580.32 2118.47,582.74 C2119.43,585.01 2120.75,588.12 2122.42,592.07 C2124.27,596.44 2126.97,602.82 2130.52,611.21 L2134.7,621.11 L2125.38,625.56 C2114.15,629.22 2106.53,627.91 2102.51,621.62 C2100.9,618.95 2099.88,617.14 2099.44,616.18 C2099.14,615.5 2098.73,614.47 2098.23,613.09 C2097.93,612.26 2097.51,611.08 2096.98,609.55 C2096.48,608.15 2095.81,606.2 2094.94,603.71 C2093.99,600.98 2092.61,597 2090.79,591.78 C2089.18,587.16 2087.57,583.57 2085.97,581.02 C2084.48,578.62 2082.79,576.8 2080.91,575.54 C2078.9,574.2 2076.37,573.32 2073.32,572.9 C2069.63,572.39 2067.44,572.1 2066.77,572.03 C2066.3,571.98 2065.87,571.96 2065.48,571.96 C2064.92,571.95 2063.35,572.02 2060.78,572.15 L2060.72,623.58 C2060.45,624.58 2059.57,625.32 2058.09,625.78 C2056.74,626.2 2054.63,626.47 2051.77,626.6 C2048.67,626.73 2044.04,626.72 2037.88,626.55 C2035.55,626.44 2033.92,626.2 2032.97,625.82 C2032.14,625.5 2031.57,624.98 2031.25,624.26 C2030.87,623.43 2030.68,622.03 2030.68,620.05 L2030.74,485.17 C2034.64,484.87 2037.62,484.64 2039.7,484.49 C2041.6,484.35 2043.13,484.24 2044.26,484.16 C2045.51,484.08 2046.56,484.01 2047.4,483.97 C2048.79,483.89 2050.34,483.85 2052.03,483.83 C2053.06,483.81 2054.43,483.81 2056.14,483.8 C2057.71,483.8 2059.86,483.79 2062.59,483.8 C2065.58,483.8 2069.9,483.81 2075.56,483.83 L2075.56,483.83 zM2060.53,513.36 C2060.57,522.78 2060.58,532.2 2060.56,541.62 C2060.55,544.33 2060.57,545.99 2060.6,546.61 C2060.63,547.08 2060.69,547.42 2060.79,547.62 C2060.92,547.88 2061.27,548.15 2061.86,548.41 C2062.63,548.76 2065.79,548.88 2071.33,548.77 C2076.88,548.66 2080.92,548.39 2083.43,547.97 C2090.14,546.69 2094.63,542.5 2096.9,535.4 C2099.48,525.83 2097.74,518.14 2091.66,512.31 L2091.64,512.31 C2087.3,508.52 2078.15,506.79 2064.2,507.14 C2061.74,507.29 2060.52,509.36 2060.53,513.36 L2060.53,513.36 zM2060.09,444.11 C2064.12,446.57 2068.77,449.6 2074.04,453.2 C2074.75,453.65 2075.2,453.88 2075.39,453.89 C2075.53,453.89 2075.72,453.83 2075.95,453.7 C2076.27,453.52 2077.41,452.75 2079.37,451.4 L2079.34,451.39 C2082.91,449.08 2085.63,447.32 2087.49,446.12 C2089.19,445.02 2090.52,444.16 2091.48,443.55 C2092.52,442.89 2093.32,442.38 2093.89,442.04 C2094.83,441.47 2095.52,441.1 2095.97,440.93 C2096.62,440.68 2097.79,440.59 2099.51,440.65 C2101.85,440.83 2104.39,442.29 2107.14,445.04 C2109.89,447.8 2111.18,450.17 2110.99,452.15 C2110.92,452.89 2110.35,453.91 2109.26,455.2 C2108.31,456.33 2106.71,457.98 2104.47,460.17 C2101.9,462.66 2097.55,466.73 2091.4,472.36 C2086.04,477.27 2077.42,478.49 2065.54,476 C2063.96,475.62 2062.68,475.1 2061.69,474.43 C2060.91,473.91 2059.85,473.01 2058.51,471.75 C2056.82,470.16 2053.21,466.55 2047.68,460.94 C2047.45,460.72 2047.28,460.56 2047.16,460.47 C2047.09,460.4 2046.95,460.29 2046.76,460.14 C2046.5,459.92 2045.51,459.13 2043.8,457.75 C2040.6,455.04 2039.81,451.75 2041.43,447.89 C2042.35,445.93 2044.06,444.08 2046.58,442.31 C2049.1,440.54 2051.07,439.81 2052.51,440.11 C2053.52,440.32 2056.04,441.66 2060.09,444.11 L2060.09,444.11 zM2243.07,487.24 C2243.61,488.49 2243.82,491.33 2243.69,495.76 C2243.56,500.18 2243.18,503.6 2242.53,505.99 C2242.13,507.86 2241.75,509.07 2241.4,509.6 C2241.11,510.03 2240.69,510.32 2240.12,510.45 C2239.42,510.62 2237.93,510.66 2235.67,510.56 L2191.49,510.52 C2189.02,510.45 2187.3,510.52 2186.35,510.74 C2185.54,510.92 2184.95,511.26 2184.59,511.77 C2184.16,512.37 2183.85,513.48 2183.68,515.11 C2183.66,515.34 2183.65,515.51 2183.65,515.64 C2183.66,515.73 2183.67,515.89 2183.7,516.11 C2183.73,516.42 2183.87,517.6 2184.11,519.64 C2184.14,520.13 2184.16,520.62 2184.18,521.11 L2184.31,521.12 L2183.5,538.73 C2183.64,541.19 2185.72,542.39 2189.72,542.33 L2229.19,542.58 C2231.01,543.24 2232.27,546.68 2232.97,552.89 C2233.07,554.63 2232.9,557.14 2232.45,560.43 C2231.99,563.71 2231.55,565.61 2231.13,566.11 C2230.73,566.58 2230.15,566.85 2229.38,566.92 C2228.84,566.97 2227.74,567 2226.1,567.02 C2225.11,567.03 2223.67,567.03 2221.77,567.04 C2220.04,567.04 2217.6,567.05 2214.46,567.05 C2211.03,567.05 2206.03,567.05 2199.44,567.05 C2194.88,567.05 2192.23,567.05 2191.51,567.05 C2191.01,567.05 2190.65,567.04 2190.42,567.04 C2190.1,567.03 2189.56,567.01 2188.81,566.96 C2187.07,566.92 2185.83,567.17 2185.1,567.7 C2184.46,568.17 2184.02,568.99 2183.79,570.15 C2183.52,571.47 2183.42,573.67 2183.48,576.77 C2183.59,581.5 2183.66,585.1 2183.69,587.57 C2183.72,589.82 2183.75,591.57 2183.78,592.82 C2183.8,594.19 2183.82,595.23 2183.84,595.94 C2183.87,597.12 2183.9,597.91 2183.94,598.3 C2184,598.85 2184.2,599.28 2184.55,599.57 C2185.17,600.1 2185.9,600.4 2186.74,600.48 C2187.32,600.53 2188.47,600.57 2190.19,600.59 C2191.23,600.6 2192.74,600.6 2194.72,600.61 C2196.52,600.61 2199.06,600.62 2202.34,600.62 C2205.91,600.62 2211.13,600.62 2217.99,600.62 L2248.5,600.61 L2245.33,615.42 C2244.04,619.08 2242.61,621.58 2241.04,622.91 C2239.73,624.03 2237.82,624.83 2235.29,625.31 C2232.29,625.89 2226.83,626.27 2218.9,626.45 L2187.07,626.28 C2183.92,626.33 2180.77,626.37 2177.61,626.4 C2166.18,626.51 2159.09,624 2156.36,618.89 C2155.36,616.81 2154.76,615.14 2154.54,613.89 C2154.37,612.94 2154.26,611.54 2154.23,609.71 C2154.19,607.3 2154.23,601.29 2154.38,591.66 L2153.86,573.1 L2154.38,551.77 L2153.9,529.94 C2154.07,523.69 2154.24,517.44 2154.4,511.2 C2154.47,508.25 2154.51,506.45 2154.5,505.78 C2154.5,505.32 2154.48,504.77 2154.45,504.16 C2154.4,503.29 2154.25,500.4 2154,495.48 C2153.8,491.79 2153.79,488.26 2153.96,484.91 L2236.43,484.68 C2239.85,484.05 2242.06,484.91 2243.07,487.24 L2243.07,487.24 z"/>  </g> </svg>