<svg xmlns="http://www.w3.org/2000/svg" xml:space="preserve" shape-rendering="geometricPrecision" text-rendering="geometricPrecision" image-rendering="optimizeQuality" fill-rule="evenodd" clip-rule="evenodd" xmlns:xlink="http://www.w3.org/1999/xlink" viewBox="0 0 746.73 746.79">  <g id="Layer_1">   <metadata id="FutureCorpID_Layer"/>    <path fill="#007FFF" d="M367.67,0.39 C363.16,0.45 358.66,0.51 354.15,0.58 C353.31,0.59 352.77,0.61 352.52,0.62 C352.35,0.64 352.12,0.66 351.82,0.69 C351.4,0.74 349.91,0.92 347.36,1.24 L340.6,1.41 L317.46,4.33 L304.63,6.37 L284.03,10.93 C267.23,15.15 253.37,19.47 242.45,23.91 L235.94,26.3 C233.81,27.08 232.44,27.6 231.83,27.85 C231.4,28.03 230.81,28.28 230.07,28.61 C229.62,28.81 228.99,29.09 228.19,29.45 C227.44,29.78 226.42,30.24 225.12,30.83 C223.69,31.47 221.62,32.41 218.89,33.64 L209.5,37.87 L199.16,43.03 L196.35,44.65 C194.49,45.73 192.23,47.03 189.59,48.55 C186.94,50.07 184.68,51.38 182.78,52.47 C180.9,53.56 179.93,54.12 179.87,54.15 C172.24,58.67 165.01,63.49 158.19,68.6 L153.38,71.68 L145.99,77.43 C143.35,79.48 140.7,81.54 138.06,83.59 L118.74,100.36 C112.9,106.04 107.7,111.23 103.15,115.92 C98.59,120.62 95.25,124.24 93.13,126.78 C88.86,131.89 84.59,137 80.34,142.12 C77.27,146.07 74.2,150.03 71.14,153.99 C70.09,155.66 69.44,156.68 69.19,157.05 C69.02,157.32 68.81,157.61 68.57,157.94 C68.24,158.41 67.11,159.95 65.18,162.57 C60.72,168.65 54.66,178.51 46.99,192.18 L41.06,202.74 C40.02,204.81 39.22,206.39 38.67,207.5 C38.17,208.5 37.77,209.3 37.47,209.89 C37.15,210.54 36.88,211.08 36.68,211.5 C36.34,212.2 36,212.93 35.66,213.69 C35.45,214.14 35.18,214.75 34.85,215.49 C34.55,216.17 34.14,217.1 33.63,218.28 C33.06,219.56 32.24,221.42 31.18,223.85 C30.33,225.77 29.69,227.23 29.24,228.25 C28.83,229.18 28.51,229.91 28.27,230.45 C28.02,231.04 27.81,231.52 27.66,231.88 C27.4,232.49 27.16,233.07 26.94,233.64 C26.81,233.98 26.65,234.41 26.45,234.94 C26.27,235.43 26.03,236.08 25.73,236.9 C25.4,237.8 24.93,239.1 24.31,240.79 L22.2,246.09 C20.03,251.53 17.55,259.13 14.76,268.91 C11.98,278.68 9.78,287.47 8.17,295.28 C7.44,298.82 6.71,302.36 5.99,305.9 C4.65,314.88 3.3,323.87 1.95,332.86 C1.72,334.69 1.55,336.08 1.43,337.04 C1.33,337.92 1.24,338.61 1.18,339.1 C1.12,339.64 1.07,340.05 1.04,340.35 C0.98,340.85 0.94,341.23 0.92,341.5 C0.9,341.89 0.88,342.72 0.87,344 L0.39,351.35 C0.22,353.99 0.1,358.7 0.04,365.46 C-0.02,372.22 -0.01,377.35 0.07,380.84 L0.35,393.44 C0.45,398.03 0.6,401.48 0.78,403.81 C0.93,405.65 1.18,407.9 1.52,410.57 C1.69,411.84 1.89,413.37 2.14,415.16 C2.38,416.88 2.68,418.99 3.04,421.49 C3.42,424.09 3.89,427.36 4.47,431.29 L6.3,443.7 C8.35,452.42 10.4,461.13 12.45,469.85 C13.27,472.81 13.9,475.07 14.33,476.62 C14.73,478.05 15.04,479.17 15.27,479.99 C15.52,480.89 15.72,481.61 15.88,482.14 C16.13,483.03 16.38,483.83 16.61,484.56 C16.76,485 16.93,485.54 17.15,486.19 C17.35,486.79 17.62,487.58 17.96,488.57 C18.33,489.66 18.86,491.21 19.55,493.24 C21.5,498.98 22.97,503.17 23.95,505.82 C24.76,508 25.65,510.25 26.62,512.57 C27.81,515.41 29.88,520.17 32.83,526.85 C34.91,531.57 36.64,535.36 38.01,538.22 C39.21,540.71 40.51,543.28 41.92,545.91 C43.54,548.93 45.89,553.14 48.96,558.54 C54.89,568.95 61.59,579.41 69.05,589.92 C72.18,594.33 74.87,598 77.09,600.91 C79.07,603.5 81.22,606.18 83.53,608.95 C86.14,612.06 89.72,616.24 94.27,621.49 L98.85,626.76 C99.45,627.45 100.86,628.92 103.08,631.17 C105.31,633.42 107.85,635.95 110.7,638.76 C113.56,641.57 116.09,644.03 118.29,646.13 C120.5,648.24 121.89,649.52 122.45,649.98 L129.95,656.52 C154.67,678.1 181.74,695.91 211.16,709.94 C220.03,714.17 230.1,718.44 241.36,722.74 L247.02,725.04 C247.08,725.06 247.89,725.33 249.48,725.87 C251.06,726.4 252.97,727.04 255.19,727.78 C257.42,728.53 259.34,729.17 260.96,729.71 C262.58,730.25 263.44,730.54 263.54,730.57 L284.96,736.3 C288.8,737.16 291.74,737.81 293.79,738.27 C295.66,738.68 297.14,739.01 298.25,739.25 C299.45,739.51 300.44,739.72 301.22,739.88 C302.51,740.14 303.86,740.39 305.25,740.62 C306.1,740.76 307.21,740.94 308.58,741.16 C309.83,741.35 311.54,741.62 313.7,741.95 C316.07,742.31 319.49,742.84 323.96,743.53 C331.49,744.7 338.55,745.47 345.16,745.83 C347.17,745.95 348.71,746.04 349.77,746.1 C350.75,746.17 351.51,746.22 352.06,746.25 C352.66,746.29 353.14,746.32 353.5,746.34 C354.09,746.37 354.61,746.39 355.05,746.4 C355.69,746.41 357.41,746.42 360.2,746.42 C364.13,746.54 368.05,746.67 371.97,746.79 C372,746.79 373.12,746.76 375.33,746.7 C377.53,746.64 380.19,746.57 383.3,746.48 C386.4,746.4 389.07,746.32 391.28,746.26 C393.5,746.2 394.63,746.17 394.68,746.16 C407.78,745.32 418.68,744.21 427.4,742.82 L440.46,740.75 C446.84,739.74 455.25,737.89 465.71,735.2 C476.17,732.52 484.4,730.09 490.41,727.92 L512.7,719.87 C516.91,718.18 521.75,716.1 527.23,713.62 C532.71,711.14 537.25,708.99 540.84,707.15 C542.75,706.17 544.21,705.43 545.23,704.91 C546.14,704.44 546.87,704.07 547.41,703.79 C548,703.49 548.47,703.25 548.82,703.06 C549.42,702.75 549.98,702.44 550.51,702.14 C550.84,701.95 551.25,701.72 551.74,701.42 C552.19,701.16 552.79,700.8 553.57,700.35 C554.4,699.85 555.6,699.14 557.17,698.2 L563.25,694.88 C568.52,691.56 573.79,688.23 579.06,684.91 L593.38,674.84 C601.71,668.99 610.52,661.86 619.8,653.46 L630.87,643.44 C634.99,639.33 638.19,636.13 640.45,633.84 C642.55,631.73 644.2,630.04 645.41,628.77 C646.72,627.41 647.74,626.3 648.49,625.45 L657.71,614.97 C660.46,611.84 663.87,607.66 667.92,602.43 C671.97,597.19 675.19,592.83 677.58,589.34 L681.93,583.38 L690.33,570.26 C691.9,567.82 692.85,566.31 693.21,565.74 C693.45,565.34 693.74,564.86 694.05,564.31 C694.24,563.97 694.5,563.52 694.82,562.95 C695.11,562.43 695.51,561.7 696.03,560.77 C696.59,559.76 697.41,558.3 698.48,556.38 L701.8,550.8 C702.78,549.15 704.31,546.24 706.38,542.06 C708.45,537.88 710.09,534.43 711.28,531.7 C714,525.49 716.72,519.28 719.44,513.06 L721.98,506.18 L723.93,501.66 C724.86,499.52 726.37,495.07 728.49,488.31 C730.6,481.54 732.41,475.37 733.92,469.79 C734.6,467.25 735.01,465.7 735.15,465.15 C735.25,464.77 735.34,464.34 735.45,463.88 C735.59,463.21 736.04,461.07 736.79,457.43 L738.52,450.29 C738.85,448.96 739.05,448.12 739.12,447.75 C739.17,447.49 739.23,447.15 739.3,446.73 C739.4,446.12 739.75,444.02 740.33,440.4 L742.76,425.19 C743.65,418.9 744.23,414.63 744.51,412.36 C744.73,410.57 744.91,408.85 745.05,407.18 C745.22,405.07 745.47,401.31 745.79,395.89 C745.91,390.92 746.03,385.94 746.15,380.97 C746.34,378.55 746.54,376.12 746.73,373.7 L746.25,368.1 L745.92,353.15 C745.87,351.15 745.83,349.61 745.8,348.52 C745.77,347.53 745.74,346.73 745.71,346.12 C745.68,345.45 745.65,344.87 745.62,344.38 C745.56,343.56 745.46,342.56 745.32,341.37 C745.23,340.66 745.11,339.67 744.95,338.42 C744.8,337.28 744.59,335.71 744.33,333.69 C744.04,331.49 743.6,328.3 743.02,324.12 L740.5,306.01 C740.21,303.91 739.23,299.37 737.56,292.37 C735.89,285.36 734.27,278.98 732.72,273.21 L730.93,266.56 C729.58,261.55 727.1,254.24 723.5,244.63 C719.89,235.02 716.52,226.75 713.39,219.83 C710.87,214.26 709.14,210.49 708.17,208.51 C707.43,206.99 706.6,205.36 705.66,203.61 C705.19,202.74 704.62,201.69 703.95,200.47 C703.31,199.32 702.51,197.88 701.55,196.16 C700.55,194.35 699.25,192.03 697.67,189.19 C695.9,186.01 694.81,184.09 694.42,183.42 C694.15,182.94 693.84,182.42 693.49,181.87 C693.29,181.53 693.01,181.09 692.66,180.53 C692.34,180.01 691.9,179.32 691.34,178.43 C690.73,177.47 689.85,176.07 688.69,174.24 C686.7,171.09 684.7,167.94 682.7,164.79 L671.96,149.72 C669.91,147.05 667.87,144.39 665.82,141.72 C664.74,140.3 663.99,139.34 663.56,138.83 C663.27,138.47 662.8,137.92 662.16,137.19 C661.77,136.74 661.23,136.12 660.52,135.31 C659.88,134.58 658.97,133.54 657.79,132.2 C656.52,130.75 654.66,128.64 652.23,125.87 L649.19,122.27 C648.64,121.61 647.26,120.15 645.07,117.88 C642.88,115.62 640.36,113.06 637.53,110.21 C634.7,107.36 632.19,104.86 629.99,102.71 C627.81,100.56 626.43,99.25 625.87,98.77 L603.31,79.61 C600.83,77.71 598.34,75.83 595.84,73.95 C589.86,69.45 582.64,64.48 574.19,59.05 C566.72,54.25 558.79,49.54 550.41,44.94 C542.03,40.33 535.14,36.89 529.75,34.63 L520.99,30.73 C511.44,26.48 502.19,22.92 493.22,20.06 L479.04,15.52 C476.1,14.7 473.85,14.07 472.3,13.64 C470.88,13.25 469.76,12.93 468.94,12.71 C468.04,12.46 467.33,12.26 466.79,12.12 C465.9,11.88 465.07,11.67 464.32,11.49 C463.86,11.38 463.29,11.24 462.61,11.09 C461.98,10.94 461.14,10.75 460.09,10.52 C458.95,10.26 457.3,9.89 455.15,9.4 C452.32,8.76 450.17,8.27 448.68,7.94 C447.33,7.63 446.26,7.39 445.49,7.21 C444.65,7.02 443.98,6.88 443.5,6.77 C442.69,6.6 442.02,6.47 441.46,6.37 C440.68,6.24 438.68,5.96 435.47,5.53 C435.29,5.51 434.35,5.38 432.66,5.13 C430.96,4.88 428.97,4.59 426.67,4.26 C424.38,3.92 422.41,3.63 420.76,3.39 C419.11,3.15 418.23,3.02 418.12,3 C408.9,1.47 397.9,0.67 385.1,0.62 C381.48,0.6 378.73,0.5 376.85,0.31 C375.03,0.12 373.92,0.02 373.52,0 C373.23,0 372.92,0 372.57,0.02 C372.07,0.04 370.43,0.16 367.67,0.39 L367.67,0.39 z"/>   <path fill="#000000" d="M388.07,27.95 L388.16,27.97 C394.4,28.42 399.5,28.81 403.46,29.14 C407.19,29.46 410.38,29.76 413.03,30.04 C415.85,30.35 418.42,30.67 420.76,31.02 C427.57,32.04 432.55,32.83 435.68,33.38 C438.26,33.84 440.87,34.36 443.51,34.94 C446.72,35.65 451.92,36.89 459.11,38.67 C461.15,39.18 462.71,39.56 463.79,39.83 C464.78,40.08 465.56,40.27 466.14,40.42 C466.76,40.58 467.27,40.71 467.66,40.81 C468.3,40.98 468.91,41.15 469.5,41.34 C469.86,41.45 470.31,41.59 470.86,41.77 C471.36,41.93 472.04,42.15 472.89,42.42 C473.83,42.73 475.17,43.17 476.93,43.74 C484.71,46.26 490.13,48.07 493.22,49.16 C495.67,50.04 498.16,50.98 500.67,52.01 C503.83,53.29 509.48,55.72 517.63,59.29 C521.25,60.87 524.13,62.19 526.27,63.23 C528.06,64.11 530.09,65.17 532.35,66.4 C535.05,67.87 539.51,70.36 545.73,73.88 C547.27,74.76 548.45,75.42 549.27,75.88 C550.02,76.3 550.6,76.63 551.01,76.86 C551.46,77.12 551.82,77.32 552.07,77.47 C552.49,77.71 552.82,77.9 553.05,78.04 C553.38,78.24 554.1,78.69 555.2,79.4 C557.05,80.53 558.9,81.65 560.75,82.78 C562.89,84.1 566.62,86.66 571.94,90.47 C577.26,94.27 581.19,97.19 583.73,99.21 L589.84,103.88 C591.86,105.43 593.95,107.24 596.11,109.33 L599.77,112.21 C601.65,113.69 602.91,114.73 603.58,115.33 C604.04,115.76 604.74,116.43 605.68,117.34 C606.25,117.9 607.05,118.69 608.09,119.71 C609.03,120.63 610.35,121.94 612.06,123.63 C613.92,125.46 616.62,128.14 620.17,131.65 C621.72,133.18 622.91,134.36 623.74,135.18 C624.5,135.93 625.1,136.53 625.54,136.97 C626.03,137.46 626.42,137.86 626.74,138.18 C627.25,138.72 627.78,139.29 628.32,139.89 C628.65,140.26 629.08,140.75 629.61,141.35 C630.09,141.9 630.75,142.66 631.59,143.62 C632.5,144.67 633.82,146.19 635.55,148.17 C638.95,152.08 641.55,155.15 643.35,157.38 C644.86,159.24 646.48,161.36 648.23,163.72 C650.32,166.56 653.76,171.36 658.55,178.12 C662.56,183.8 667.1,190.99 672.16,199.7 C677.23,208.41 681.3,216.04 684.39,222.58 C695.65,246.46 703.86,269.45 709.02,291.57 C710.96,299.88 712.22,305.5 712.81,308.43 C713.27,310.7 713.69,313.07 714.07,315.54 C714.26,316.77 714.48,318.23 714.72,319.91 C714.95,321.52 715.23,323.49 715.55,325.84 C715.89,328.3 716.32,331.45 716.83,335.28 C716.95,336.16 717.07,337.31 717.2,338.75 C717.31,340.01 717.45,341.84 717.63,344.26 C717.84,347.03 718.17,351.62 718.61,358.02 C718.94,362.65 719.07,368.68 719.02,376.12 C718.97,383.55 718.76,388.69 718.4,391.53 C718.17,393.3 718.02,394.58 717.96,395.39 C717.91,396.01 717.86,396.81 717.82,397.79 C717.77,399.07 717.67,402.1 717.52,406.89 L715.98,418.72 C715.56,421.93 715.31,423.81 715.24,424.36 C715.19,424.75 715.13,425.08 715.09,425.35 C715.02,425.74 714.82,426.71 714.49,428.27 C714.22,430.06 713.94,431.86 713.65,433.65 C712.74,439.37 711.08,447.08 708.66,456.79 C706.24,466.5 704.08,474.13 702.19,479.68 C697.06,494.78 691.78,508.25 686.35,520.11 C683,527.42 679.21,534.71 674.96,541.99 C671.78,547.43 668.61,552.88 665.45,558.32 C662.95,562.32 659.66,567.21 655.59,572.99 C651.52,578.78 648.5,582.88 646.52,585.29 L634.71,599.74 C632.81,602.06 631.54,603.58 630.88,604.29 C630.42,604.79 629.74,605.5 628.84,606.42 C628.3,606.97 627.53,607.75 626.54,608.75 C625.63,609.67 624.37,610.94 622.74,612.57 C620.97,614.35 618.39,616.94 615,620.35 C613.33,622.03 612.04,623.32 611.15,624.21 C610.33,625.03 609.68,625.68 609.2,626.16 C608.67,626.69 608.23,627.12 607.88,627.46 C607.3,628.02 606.67,628.59 606.01,629.18 C605.61,629.54 605.08,630 604.41,630.58 C603.81,631.1 602.98,631.82 601.94,632.72 C600.79,633.71 599.14,635.14 596.97,637.01 C596.15,637.75 595.33,638.49 594.51,639.24 L592.6,640.75 C591.34,641.75 589.82,642.96 588.03,644.37 C586.25,645.78 584.71,647 583.43,648.01 C582.15,649.02 581.49,649.55 581.43,649.59 L572.34,656.01 C569.6,657.94 566.86,659.88 564.12,661.82 C549.49,671.08 537.41,678.07 527.88,682.79 C514.09,689.62 499.61,695.6 484.42,700.72 C463.88,707.66 443.08,712.64 422.01,715.66 C416.96,716.38 412.81,716.93 409.57,717.31 C406.56,717.66 403.86,717.92 401.47,718.07 C398.9,718.24 396.27,718.33 393.57,718.33 C393.03,718.33 392.66,718.34 392.44,718.35 C392.29,718.37 392.06,718.39 391.74,718.42 C391.29,718.47 389.65,718.64 386.82,718.95 C383.4,719.31 378.46,719.45 372,719.36 C365.53,719.27 359.57,718.99 354.11,718.52 L343.3,717.87 C338.05,717.55 330.65,716.65 321.09,715.17 C311.54,713.69 304.63,712.38 300.37,711.24 L295.41,710.09 C281.82,706.93 268.38,703.01 255.1,698.31 C250.37,696.63 243.83,693.97 235.47,690.33 C231.01,688.38 226.55,686.43 222.1,684.47 L207.33,676.7 L195.7,670.09 C189.49,666.56 182.11,661.73 173.58,655.6 L167.98,651.81 C166.83,651.04 164.01,648.86 159.49,645.27 C154.98,641.68 151.97,639.22 150.47,637.9 C147.74,635.5 145.12,633.28 142.62,631.24 C142,630.72 139.35,628.17 134.69,623.58 C130.03,618.98 124.96,613.93 119.48,608.43 L106.75,594 C104.36,590.91 101.97,587.83 99.58,584.74 C97.94,582.63 96.29,580.52 94.65,578.41 C91.47,573.78 88.31,569.14 85.15,564.49 C74.73,549.12 65.73,532.8 58.15,515.52 C55.25,508.93 53.03,503.72 51.47,499.91 C50.1,496.53 48.86,493.31 47.78,490.24 C46.55,486.77 45.14,482.43 43.55,477.22 C42.28,473.09 41.28,469.71 40.53,467.08 C39.84,464.64 39.24,462.43 38.73,460.44 C38.18,458.29 37.64,456 37.1,453.58 C35.79,447.67 34.47,441.75 33.15,435.84 L30,414.52 C29.59,411.71 29.34,409.95 29.26,409.22 C29.2,408.71 29.14,408.06 29.09,407.26 C29.06,406.79 29.02,406.13 28.97,405.28 C28.93,404.51 28.87,403.45 28.8,402.08 C28.72,400.6 28.61,398.43 28.46,395.6 C28.18,392.6 27.92,389.6 27.66,386.6 C27.34,382.73 27.22,377.69 27.31,371.51 C27.4,365.32 27.66,359.74 28.1,354.78 C28.32,351.08 28.54,347.37 28.77,343.67 C28.95,340.81 29.16,338.28 29.4,336.09 C29.62,334.13 29.91,331.94 30.28,329.5 C30.69,326.77 31.32,322.91 32.17,317.94 C32.51,315.55 32.84,313.16 33.19,310.77 C33.36,309.53 33.49,308.73 33.56,308.36 C33.61,308.11 33.69,307.75 33.8,307.3 C33.87,307.03 33.97,306.65 34.09,306.16 C34.2,305.71 34.36,305.09 34.56,304.29 C34.78,303.42 35.1,302.16 35.53,300.5 L37.69,290.63 C39.39,282.92 41.88,274.14 45.17,264.28 C48.46,254.42 51.66,246.07 54.78,239.24 L58.22,230.97 C61.44,223.2 66.2,213.89 72.5,203.04 L75.44,197.46 C76.1,196.22 78.25,192.8 81.89,187.21 C85.53,181.61 88.18,177.66 89.85,175.35 L97.71,164.42 C99.67,162.09 101.32,160 102.68,158.15 C104.98,155.01 108.25,151.05 112.48,146.26 C116.7,141.47 120.61,137.3 124.21,133.77 L141.24,117.01 L156.88,103.59 L171.36,92.8 C174.66,90.48 177.96,88.17 181.28,85.87 C186.65,82.14 193.87,77.69 202.95,72.53 C212.04,67.38 219.16,63.67 224.32,61.4 C225.93,60.7 227.16,60.16 228.01,59.79 C228.79,59.44 229.4,59.18 229.85,58.99 C230.33,58.77 230.72,58.6 231.01,58.48 C231.48,58.27 231.91,58.08 232.28,57.91 C232.81,57.67 234.27,57 236.66,55.9 C243.19,52.89 251.38,49.72 261.22,46.4 C271.06,43.08 280.59,40.26 289.82,37.94 L297.24,36.37 L305.29,34.49 C307.23,34.04 309.21,33.64 311.23,33.29 C313.03,32.97 315.29,32.61 318.01,32.22 C321.05,31.77 325.53,31.14 331.44,30.33 C334.74,29.88 337.35,29.55 339.27,29.34 C340.86,29.16 342.71,28.99 344.81,28.83 C347.36,28.62 351.82,28.32 358.17,27.9 C361.95,27.65 367.14,27.54 373.76,27.55 C380.38,27.57 385.15,27.7 388.07,27.95 L388.07,27.95 z"/>   <path fill="#007FFF" d="M553.38,235 C554.61,235.01 556.33,235.03 558.54,235.06 C560.97,235.09 564.51,235.14 569.16,235.2 C570.75,235.39 571.85,235.68 572.47,236.06 C573.23,236.55 573.74,237.48 574,238.87 C574.26,240.25 574.12,241.3 573.58,242.01 C573.2,242.51 572.83,242.85 572.48,243.04 C572.17,243.2 571.77,243.31 571.27,243.38 C570.7,243.45 569.74,243.47 568.41,243.45 C562.94,243.59 557.47,243.73 551.99,243.86 C549.92,243.91 548.63,243.91 548.13,243.86 C547.74,243.83 547.48,243.75 547.33,243.63 C547.13,243.48 546.98,243.07 546.88,242.41 C546.85,242.22 546.82,241.78 546.81,241.1 C546.8,240.42 546.8,239.66 546.81,238.82 C546.82,237.98 546.84,237.25 546.87,236.65 C546.9,236.05 546.94,235.71 546.97,235.64 C547.14,235.27 547.49,235.06 548.02,235.02 C548.4,234.98 549.16,234.97 550.32,234.97 C551.02,234.97 552.04,234.98 553.38,235 L553.38,235 zM496.66,196.7 L496.66,318.91 L547.53,318.96 L546.65,289.49 L556.98,298.43 C563.44,304.76 569.77,310.16 575.97,314.63 C577.66,315.84 579.71,316.77 582.14,317.39 C584.4,317.98 587.29,318.39 590.81,318.64 C594.56,318.9 599.59,319 605.89,318.95 C607.4,318.94 611.01,318.93 616.74,318.93 C619.6,318.93 622.66,318.93 625.91,318.93 L636.26,318.94 C643.55,318.95 649.94,318.96 655.42,318.97 C660.9,318.99 664.21,319.01 665.35,319.02 L663.69,273.1 C642.92,272.71 622.14,272.31 601.36,271.92 L602.65,270.67 L602.52,270.15 C604.78,268.83 607.18,266.81 609.72,264.1 C612.26,261.39 614.4,258.55 616.16,255.59 C617.31,253.65 618,252.43 618.26,251.91 C618.44,251.53 618.6,251.13 618.72,250.71 C618.89,250.15 619.22,248.72 619.71,246.42 L620.65,243.04 C621.16,241.2 621.45,239.59 621.52,238.2 C621.58,236.97 621.5,235.57 621.28,234.01 C621.03,232.23 620.51,229.65 619.72,226.28 C618.63,221.6 616.21,217.02 612.47,212.53 C606.65,205.56 599.44,200.84 590.82,198.35 C589.02,197.83 587.41,197.48 586,197.28 C584.82,197.12 583.28,197 581.36,196.92 C579.04,196.82 574.84,196.75 568.76,196.73 C549.1,196.64 529.44,196.62 509.79,196.67 L496.66,196.7 L496.66,196.7 zM179.89,196.85 C178.87,197.08 177.81,197.44 176.72,197.93 C175.44,198.5 173.55,199.51 171.07,200.95 C163.44,205.39 157.94,212.39 154.55,221.96 L153.4,228.3 C153,230.55 152.77,232.2 152.71,233.23 C152.67,234.07 152.71,234.95 152.84,235.89 C152.99,237.03 153.4,239.02 154.07,241.86 C154.46,243.41 155.15,245.02 156.11,246.68 C157.02,248.23 158.3,250.05 159.96,252.15 C161.73,254.39 164.24,257.32 167.47,260.92 C169.06,262.76 170.66,264.61 172.27,266.44 L175.83,270.52 C175.96,270.81 175.93,271.09 175.75,271.36 C175.52,271.71 174.85,271.91 173.74,271.96 C172.96,271.99 171.32,272.01 168.85,272.02 C167.35,272.02 165.16,272.02 162.29,272.01 C159.66,272.01 155.96,272 151.21,271.99 C146.01,271.98 138.42,271.96 128.44,271.93 C112.89,271.89 97.35,271.85 81.8,271.8 L81.82,318.75 L102.43,318.84 L111.07,318.5 L126.91,318.89 C130.86,318.99 134.87,319.04 138.94,319.04 C142.74,319.04 147.15,319 152.2,318.94 C157.61,318.87 164.62,318.75 173.24,318.58 C180.95,318.44 188.65,318.29 196.35,318.15 C202.74,317.69 207.15,317.25 209.59,316.82 C211.59,316.47 213.31,315.96 214.73,315.3 C216.46,314.5 218.76,312.94 221.65,310.63 C228.17,305.39 232.56,298.8 234.8,290.85 C237.04,282.9 236.48,275.91 233.14,269.88 C232.32,268.4 231.7,267.36 231.28,266.76 C230.98,266.33 230.48,265.65 229.77,264.71 C229.34,264.15 228.73,263.34 227.93,262.3 C227.21,261.35 226.18,260.02 224.87,258.3 C223.43,256.43 221.34,253.7 218.59,250.11 C217.38,248.53 216.62,247.53 216.3,247.11 C216.08,246.81 215.79,246.42 215.45,245.94 C215.24,245.65 214.95,245.25 214.57,244.74 C214.23,244.26 213.76,243.61 213.17,242.8 C212.52,241.89 211.56,240.58 210.32,238.85 C227.64,238.64 244.96,238.43 262.29,238.22 C262.29,265.12 262.29,292.01 262.28,318.91 C278.52,318.92 294.75,318.94 310.99,318.95 C311.01,292.38 311.03,265.8 311.04,239.23 L311.04,238.29 C316.51,238.29 321.98,238.29 327.45,238.29 L363.09,238.29 L363.09,195.6 L211.19,195.59 L184.82,196.24 C182.72,196.37 181.08,196.58 179.89,196.85 L179.89,196.85 zM380.59,205.19 L380.57,205.22 C367.4,243.13 354.24,281.04 341.08,318.95 L387.36,318.8 C388.17,318.69 388.77,318.51 389.15,318.27 C389.48,318.05 389.75,317.72 389.97,317.27 C390.22,316.76 390.48,315.89 390.77,314.66 L392.84,308.34 C393.25,306.19 393.69,304.86 394.15,304.36 C394.49,303.98 395.08,303.73 395.92,303.62 C397,303.46 399.79,303.42 404.27,303.51 L434.66,304.06 C435.22,304.21 435.64,304.52 435.92,305 C436.14,305.37 436.42,306.04 436.76,307.02 C437.2,308.28 438.19,311.38 439.73,316.3 C440.15,317.33 440.55,318.05 440.93,318.45 C441.26,318.8 441.68,319.04 442.2,319.18 C442.79,319.33 443.76,319.4 445.1,319.38 C452.02,319.42 460.29,319.43 469.9,319.4 C474.26,319.39 477.8,319.37 480.52,319.35 C483.24,319.32 484.68,319.3 484.84,319.27 C486.95,318.81 487.75,317.63 487.24,315.74 C487.21,315.65 487.19,315.57 487.17,315.52 C487.16,315.49 487.13,315.43 487.1,315.34 C487.04,315.23 486.85,314.79 486.51,314.04 C475.85,283.15 465.19,252.26 454.53,221.37 L448.02,202.5 C447.58,201.08 447.23,200.07 446.97,199.48 C446.75,198.98 446.52,198.57 446.27,198.27 C445.98,197.92 445.53,197.56 444.93,197.19 C444.47,196.91 443.57,196.75 442.21,196.71 C441.25,196.67 439.29,196.65 436.31,196.64 C434.52,196.63 431.9,196.63 428.46,196.62 C425.31,196.62 420.88,196.61 415.19,196.6 C408.96,196.6 399.87,196.59 387.92,196.58 L387.98,196.58 L383.59,196.57 L380.59,205.19 L380.59,205.19 zM415.72,245.77 C415.79,245.94 416.03,246.6 416.45,247.73 C416.65,248.15 416.86,248.56 417.07,248.97 C418.15,252.42 419.22,255.87 420.3,259.32 C420.48,259.94 420.88,260.82 421.5,261.96 C421.96,262.89 421.84,263.52 421.15,263.85 C420.9,263.97 420.3,263.89 419.33,263.62 C419.04,263.55 417.92,263.5 415.96,263.49 C414,263.48 412.18,263.5 410.5,263.55 C409.89,263.56 409.5,263.47 409.32,263.27 C409.11,263.04 409.35,262.18 410.04,260.7 C410.18,260.39 410.34,259.76 410.52,258.79 C411.15,257.01 411.63,255.65 411.96,254.72 C412.26,253.87 412.49,253.21 412.66,252.73 C412.84,252.21 412.98,251.81 413.08,251.54 C413.25,251.08 413.37,250.75 413.45,250.55 C413.56,250.27 413.76,249.83 414.05,249.24 C414.15,249.02 414.25,248.79 414.34,248.57 C414.52,248 414.67,247.37 414.79,246.7 C414.94,245.94 415.13,245.54 415.38,245.5 C415.5,245.48 415.58,245.49 415.61,245.54 C415.64,245.58 415.68,245.66 415.72,245.77 L415.72,245.77 z"/>   <path fill="#FFFFFF" d="M546.62,328.56 C546.5,328.75 546.37,328.94 546.24,329.13 L546.05,329.42 L546.09,329.44 C545.56,330.45 545.12,330.84 544.77,330.63 C544.59,330.53 544.33,330.06 543.99,329.24 C543.55,328.26 542.76,327.54 541.6,327.09 C540.44,326.64 539.49,326.67 538.75,327.19 C537.28,328.23 537.04,329.94 538.01,332.33 L539.72,337.28 C540.79,340.39 542.37,341.94 544.46,341.93 C545.96,341.91 546.95,341.85 547.45,341.73 C547.85,341.63 548.17,341.45 548.42,341.19 C548.74,340.86 549.15,340.15 549.67,339.05 C549.8,338.74 549.9,338.5 549.96,338.34 C550,338.22 550.07,338.02 550.17,337.73 C550.31,337.32 550.82,335.81 551.7,333.18 C552.32,331.69 552.68,330.69 552.78,330.17 C552.87,329.75 552.85,329.39 552.73,329.08 C552.58,328.7 552.14,328.15 551.41,327.43 C550.73,326.81 549.9,326.61 548.92,326.85 C547.94,327.08 547.17,327.65 546.62,328.56 L546.62,328.56 zM514.45,369.88 L514.53,369.94 L514.67,371.02 C514.77,371.74 514.88,372.61 515.01,373.63 C515.14,374.65 515.25,375.53 515.35,376.26 L515.49,377.38 C515.57,378.57 515.72,379.55 515.92,380.33 C516.23,381.93 515.92,382.83 515.01,383.03 C514.44,383.15 513.93,383.07 513.46,382.8 C513,382.53 512.74,382.14 512.67,381.64 C512.6,381.1 512.64,380.11 512.8,378.68 C512.97,377.26 513.21,375.72 513.53,374.07 C513.57,373.87 513.61,373.27 513.66,372.24 C513.67,372.13 513.7,371.96 513.75,371.71 C513.8,371.47 513.86,371.2 513.93,370.92 C514,370.64 514.07,370.4 514.13,370.2 C514.19,370 514.24,369.88 514.27,369.84 L514.34,369.78 C514.39,369.78 514.42,369.82 514.45,369.88 L514.45,369.88 zM497.52,407.51 C497.57,409.78 499.16,410.88 502.28,410.83 C504.38,410.8 505.6,410.77 505.94,410.74 C506.17,410.71 506.36,410.67 506.49,410.61 C506.67,410.51 507.04,410.17 507.6,409.56 C508.17,408.87 508.51,408.4 508.62,408.17 C508.69,408.01 508.76,407.77 508.82,407.45 C508.91,407 509.17,405.38 509.59,402.59 C509.82,401.07 510.02,400.19 510.2,399.97 C510.32,399.8 510.53,399.7 510.85,399.65 C511.29,399.57 512.98,399.52 515.9,399.5 C516.8,399.53 517.44,399.63 517.8,399.81 C518.12,399.96 518.35,400.22 518.48,400.59 C518.64,401 518.74,401.74 518.77,402.78 C519.04,405.45 519.4,407.32 519.87,408.41 C520.28,409.36 520.88,410.02 521.68,410.37 C522.59,410.78 524.08,410.92 526.16,410.8 C532.69,410.8 537.65,410.8 541.06,410.8 C544.17,410.8 546.58,410.8 548.31,410.8 C550.19,410.8 551.62,410.8 552.6,410.79 C554.24,410.79 555.32,410.77 555.86,410.75 C556.63,410.72 557.21,410.59 557.61,410.36 C558.43,409.91 558.98,409.42 559.26,408.89 C559.5,408.45 559.65,407.81 559.73,406.97 C559.82,405.97 559.84,404.14 559.78,401.49 C559.72,398.65 559.61,396.77 559.46,395.86 C559.33,395.12 559.11,394.57 558.81,394.23 C558.43,393.8 557.64,393.42 556.43,393.1 C556.04,393.01 555.77,392.96 555.63,392.95 C555.53,392.95 555.39,392.96 555.2,392.99 C554.93,393.02 553.96,393.16 552.28,393.41 L547.26,393.03 C545.97,392.97 545.23,392.94 545.04,392.92 C544.9,392.91 544.8,392.89 544.75,392.86 C544.68,392.82 544.6,392.68 544.52,392.44 C544.39,392.06 544.36,391.72 544.45,391.43 C544.51,391.22 544.66,390.84 544.9,390.29 C545.04,389.96 545.26,389.48 545.54,388.85 C545.8,388.27 546.16,387.47 546.63,386.43 C547.15,385.29 547.89,383.63 548.88,381.45 C551.1,376.53 552.78,372.78 553.94,370.2 C554.99,367.84 555.81,366 556.39,364.68 C557.03,363.24 557.51,362.12 557.84,361.33 C558.38,360.02 558.73,359.02 558.89,358.34 C559.11,357.37 559.16,355.45 559.05,352.56 L559.29,343.29 C553.82,343.3 549.66,343.3 546.8,343.3 C544.2,343.31 542.17,343.31 540.72,343.31 C539.14,343.32 537.94,343.33 537.11,343.34 C535.74,343.36 534.81,343.39 534.32,343.44 C533.64,343.52 532.99,343.81 532.38,344.31 C531.8,344.78 531.43,345.3 531.27,345.86 C531.13,346.3 531.04,347.01 530.99,347.99 C530.93,349.21 530.9,351.85 530.9,355.9 C530.9,359.51 532.93,361.26 536.99,361.14 C539.18,361.08 540.78,361.05 541.77,361.07 C542.65,361.08 543.29,361.12 543.68,361.19 C544.11,361.27 544.34,361.41 544.38,361.61 C544.42,361.84 544.43,362 544.41,362.08 C544.4,362.14 544.36,362.23 544.31,362.35 C544.23,362.52 543.92,363.15 543.38,364.23 L531.19,391.42 C530.46,392.89 530.06,394.24 529.99,395.46 C529.95,396 529.8,396.32 529.55,396.41 C529.41,396.46 529.26,396.04 529.08,395.14 C528.96,394.5 528.72,393.15 528.37,391.08 C528.16,389.82 527.85,387.99 527.44,385.57 C527.06,383.32 526.54,380.22 525.88,376.26 C525.14,371.89 524.07,365.5 522.66,357.11 C522.24,354.62 521.92,352.73 521.71,351.43 C521.5,350.24 521.35,349.32 521.23,348.67 C521.11,347.94 521.01,347.39 520.93,347.01 C520.81,346.38 520.7,345.94 520.61,345.69 C520.48,345.34 520.12,344.88 519.53,344.32 C518.5,343.43 515.87,343.07 511.64,343.25 C509.22,343.47 507.73,345.28 507.18,348.68 L497.52,407.51 L497.52,407.51 zM561.29,410.92 L584.53,410.63 C585.39,410.45 586.05,410.02 586.51,409.36 C586.95,408.72 587.26,407.81 587.43,406.61 C587.62,405.34 587.69,403.6 587.64,401.4 C587.6,399.73 587.56,398.05 587.52,396.38 C587.05,393.79 585.51,392.5 582.92,392.5 C580.27,392.51 577.61,392.52 574.96,392.54 C574.24,392.55 573.77,392.45 573.55,392.26 C573.37,392.09 573.25,391.79 573.19,391.35 C573.11,390.81 573.07,389.63 573.07,387.82 L573.12,354.99 L573.06,355.04 C573.06,353.08 573.06,351.6 573.05,350.57 C573.05,349.64 573.04,348.91 573.03,348.39 C573.03,347.82 573.01,347.38 573,347.07 C572.97,346.56 572.91,346.18 572.82,345.94 C572.69,345.59 572.19,344.97 571.33,344.07 C570.82,343.56 569.05,343.28 566.02,343.24 C562.86,343.31 561.28,345.53 561.29,349.92 L561.29,410.92 L561.29,410.92 zM590.29,344.57 C589.89,345.07 589.66,345.49 589.59,345.83 C589.55,346.08 589.52,346.51 589.51,347.15 C589.5,347.53 589.49,348.08 589.49,348.8 C589.49,349.46 589.48,350.38 589.48,351.56 C589.48,352.86 589.48,354.75 589.48,357.23 C589.5,374.25 589.51,391.27 589.53,408.29 C589.88,410.01 591.42,410.85 594.15,410.8 C596.31,410.77 597.61,410.73 598.03,410.69 C598.34,410.67 598.57,410.62 598.72,410.56 C598.93,410.48 599.26,410.21 599.7,409.76 C600.19,409.26 600.47,408.39 600.55,407.16 C600.6,406.29 600.64,404.51 600.65,401.83 C600.66,400.22 600.67,397.86 600.68,394.76 C600.68,391.94 600.69,387.96 600.69,382.83 C600.7,377.22 600.7,369.05 600.71,358.29 C600.71,355.74 600.71,353.76 600.7,352.35 C600.7,351.05 600.69,350.03 600.68,349.27 C600.67,348.46 600.65,347.83 600.63,347.37 C600.6,346.58 600.52,346.01 600.39,345.68 C600.23,345.22 599.65,344.63 598.68,343.9 C598.37,343.69 598.07,343.54 597.77,343.45 L597.7,343.44 C596.57,343.09 595.17,343.04 593.5,343.29 C591.84,343.55 590.77,343.97 590.29,344.57 L590.29,344.57 zM604.01,376.02 C603.81,391.77 606.5,402.4 612.07,407.91 C614.55,410.28 617.23,411.5 620.09,411.57 C622.96,411.65 625.52,410.56 627.79,408.32 C629.36,406.65 630.81,404.04 632.14,400.49 C633.46,396.94 634.22,393.65 634.4,390.61 C634.41,389.44 634.29,388.57 634.06,387.98 C633.86,387.49 633.51,387 632.99,386.51 C632.38,385.92 631.22,385.04 629.51,383.87 C627.31,382.35 625.67,382.57 624.6,384.53 C624.18,386.45 623.76,388.36 623.32,390.27 C622.68,393.12 621.41,394.32 619.52,393.87 C618.47,393.63 617.64,392.91 617.01,391.72 C616.41,390.58 615.96,388.92 615.65,386.72 C615.32,384.43 615.12,381.37 615.06,377.52 C614.98,372.15 615.42,367.88 616.4,364.7 C617.37,361.52 618.68,360.03 620.35,360.21 C621.8,360.37 622.95,362.04 623.79,365.22 C624.37,367.22 625.14,368.34 626.11,368.58 C626.75,368.74 627.81,368.47 629.29,367.77 C630.76,367.08 631.91,366.31 632.74,365.46 C633.38,364.73 633.78,363.93 633.93,363.04 C634.07,362.23 634.02,361.2 633.8,359.97 C633.55,358.62 633.03,356.76 632.22,354.39 C629.58,346.56 625.46,342.69 619.86,342.77 C609.56,343.52 604.27,354.6 604.01,376.02 L604.01,376.02 zM636.95,343.55 L636.98,410.79 L661.56,410.74 C663.07,410.31 663.9,408.77 664.04,406.12 C664.03,403.77 664.02,401.42 664.01,399.07 C664.05,397.42 664.05,396.44 664.01,396.14 C663.98,395.93 663.91,395.75 663.8,395.58 C663.64,395.35 663.03,394.7 661.97,393.64 L653.71,393.12 C653.42,393.13 652.78,393.24 651.81,393.45 C650.96,393.6 650.21,393.49 649.56,393.11 C648.91,392.73 648.55,392.21 648.5,391.54 L648.54,387.35 C648.52,386.12 648.54,385.31 648.6,384.93 C648.64,384.63 648.73,384.42 648.86,384.3 C649.03,384.16 649.38,384.07 649.92,384.03 L656.93,384.1 C658.84,384.12 660.24,383.85 661.13,383.28 C661.94,382.76 662.5,381.91 662.8,380.72 C663.14,379.41 663.23,377.4 663.08,374.68 C662.88,371.07 662.04,368.95 660.56,368.33 C660.25,368.2 659.95,368.12 659.69,368.11 C659.5,368.09 659.15,368.09 658.63,368.09 C658.32,368.09 657.87,368.1 657.28,368.11 C656.74,368.11 655.98,368.12 655.01,368.14 C653.95,368.15 652.4,368.18 650.36,368.21 C649.09,368.19 648.48,366.77 648.51,363.94 C648.58,362.83 648.7,362.11 648.88,361.78 C649.02,361.51 649.26,361.32 649.61,361.23 C650.03,361.11 650.92,361.06 652.28,361.07 L654.16,361.09 C657.9,361.12 660.08,361.12 660.69,361.08 C661.13,361.06 661.45,361 661.65,360.92 C661.93,360.79 662.37,360.34 662.99,359.56 C664.02,358.24 664.37,354.53 664.04,348.43 C663.95,346.7 663.76,344.97 663.47,343.24 L636.95,343.55 L636.95,343.55 zM485.88,343.3 C484.93,343.41 484.3,343.55 483.99,343.71 C483.32,344.09 482.84,344.52 482.56,345.03 C482.32,345.46 482.12,346.09 481.96,346.94 C481.76,347.94 481.53,349.76 481.25,352.41 C480.45,359.9 479.94,364.73 479.71,366.89 C479.52,368.6 479.38,369.81 479.29,370.51 C479.18,371.4 479.07,372.04 478.95,372.46 C478.89,372.7 478.83,373.15 478.77,373.8 C478.74,374.17 478.7,374.35 478.65,374.36 C478.42,374.4 478.34,373.57 478.4,371.88 L475.32,346.38 C474.8,344.24 473,343.19 469.92,343.25 C467.19,343.24 465.38,343.26 464.51,343.32 C463.81,343.38 463.28,343.48 462.94,343.63 C462.5,343.81 462.08,344.22 461.65,344.84 C461.29,345.37 461.09,346.36 461.03,347.8 C461,348.82 460.97,350.9 460.96,354.05 C460.95,355.95 460.95,358.71 460.95,362.35 C460.94,365.67 460.94,370.34 460.94,376.37 C460.94,382.95 460.95,392.56 460.97,405.19 C460.98,406.94 461.16,408.2 461.53,409 C461.87,409.73 462.41,410.23 463.16,410.5 C464,410.81 465.29,410.91 467.05,410.8 C469.68,410.55 470.98,408.8 470.96,405.56 L470.86,385.95 C470.85,383.7 470.92,382.56 471.08,382.53 C471.31,382.5 471.4,383.32 471.33,385.01 C471.33,385.11 471.34,385.18 471.34,385.24 C471.35,385.28 471.36,385.35 471.38,385.44 C471.41,385.58 471.51,386.08 471.68,386.94 C472.4,393.3 473.13,399.65 473.85,406.01 C474.18,408.29 475.16,409.79 476.8,410.51 C478.06,411.07 479.32,411.1 480.59,410.6 C481.85,410.1 482.7,409.24 483.13,408.02 L485.87,387.37 C485.89,387.22 485.88,386.8 485.84,386.09 C485.8,385.39 485.95,384.98 486.28,384.86 C486.54,384.76 486.73,385.27 486.85,386.39 C486.89,387.6 486.8,389.61 486.59,392.42 C486.62,395.79 486.65,398.38 486.67,400.19 C486.69,401.85 486.71,403.15 486.72,404.09 C486.74,405.11 486.76,405.9 486.78,406.45 C486.81,407.39 486.86,408.03 486.94,408.38 C487.05,408.88 487.44,409.41 488.1,409.97 C488.53,410.33 489.25,410.59 490.27,410.75 C491.29,410.92 492.33,410.94 493.39,410.82 C495.3,410.61 496.22,409.02 496.17,406.07 L496.19,364.85 L496.26,364.85 C496.26,360.56 496.25,357.3 496.25,355.06 C496.24,353.02 496.23,351.43 496.22,350.3 C496.21,349.06 496.2,348.12 496.18,347.47 C496.15,346.39 496.08,345.66 495.98,345.29 C495.83,344.75 495.28,344.23 494.32,343.73 C493.99,343.56 493.35,343.42 492.38,343.31 C491.41,343.2 490.33,343.15 489.12,343.15 C487.91,343.15 486.83,343.2 485.88,343.3 L485.88,343.3 zM434.01,346.13 C430.96,349.08 428.74,353.65 427.36,359.84 C426.06,365.63 425.53,372.37 425.75,380.04 C425.98,387.71 426.9,393.91 428.53,398.64 C431.69,407.87 436.73,412.05 443.67,411.2 C447.65,410.55 450.8,408.24 453.12,404.28 C456.26,398.92 458.04,390.37 458.47,378.63 C458.64,374.15 458.35,369.41 457.63,364.42 C456.9,359.43 455.94,355.6 454.75,352.93 C452.33,347.51 449.01,344.23 444.79,343.1 L444.7,343.06 C440.63,342.16 437.07,343.18 434.01,346.13 L434.01,346.13 zM445.49,362.61 C446.8,365.07 447.36,371.2 447.18,381.02 C447.06,387.74 446.03,391.79 444.11,393.19 C443.21,393.75 442.28,393.92 441.33,393.68 C440.37,393.45 439.62,392.87 439.09,391.95 C438.47,390.76 438.01,389.32 437.71,387.65 C437.42,386.07 437.23,384.08 437.14,381.67 C437.05,379.11 437.06,375.73 437.18,371.52 C437.31,367.06 437.91,363.98 438.98,362.29 L439,362.24 C439.86,361 441.03,359.94 442.52,359.07 C443.72,360.11 444.65,361.19 445.31,362.3 L445.49,362.61 L445.49,362.61 zM411.19,362.66 C412.1,364.27 412.68,367.52 412.94,372.39 C413.21,377.27 413.05,382.15 412.46,387.01 C411.93,391.36 410.45,393.37 408.01,393.04 C407.32,392.95 406.87,392.15 406.67,390.64 C406.64,390.19 406.62,388.57 406.61,385.77 C406.61,382.97 406.61,379.74 406.63,376.08 C406.65,372.41 406.68,369.29 406.72,366.71 C406.75,364.13 406.78,362.78 406.82,362.65 C407.05,361.78 407.35,361.27 407.7,361.13 C408.19,360.94 408.81,361.01 409.54,361.33 C410.28,361.65 410.83,362.1 411.19,362.66 L411.19,362.66 zM401.2,410.66 C402.45,410.68 403.71,410.7 404.96,410.71 C407.93,410.75 410.37,410.48 412.27,409.91 C414.06,409.38 415.59,408.51 416.85,407.33 C418.19,406.07 419.38,404.29 420.43,401.98 C423,396.33 424.24,387.89 424.18,376.65 C424.11,365.41 422.77,356.99 420.14,351.39 C419.48,349.98 418.69,348.74 417.78,347.65 C416.58,346.23 415.46,345.23 414.4,344.65 C413.48,344.13 412.33,343.77 410.98,343.57 C409.43,343.34 407.05,343.24 403.85,343.28 L395.1,343.07 L395.12,411.74 C397.14,411.11 399.04,410.76 400.83,410.68 L401.2,410.66 L401.2,410.66 zM351.86,343.36 L351.68,410.59 L376.07,410.66 C376.88,410.42 377.47,410.05 377.84,409.53 C378.17,409.06 378.41,408.38 378.55,407.48 C378.7,406.47 378.78,404.91 378.78,402.8 C378.78,400.34 378.78,398.92 378.78,398.53 C378.77,398.26 378.77,398.06 378.77,397.93 C378.76,397.76 378.73,397.46 378.69,397.04 C378.48,395.08 377.71,393.83 376.39,393.29 C375.97,393.12 375.61,393.03 375.3,393 C375.08,392.99 374.69,392.98 374.11,392.98 C373.77,392.98 373.27,392.98 372.61,392.99 C372.01,392.99 371.17,393 370.1,393.01 C368.92,393.02 367.2,393.03 364.94,393.06 C364.15,393.04 363.66,392.96 363.46,392.82 C363.31,392.71 363.21,392.5 363.16,392.2 C363.1,391.8 363.07,390.83 363.07,389.26 C363.07,387.15 363.09,385.82 363.13,385.29 C363.16,384.88 363.22,384.59 363.31,384.41 C363.43,384.19 363.74,383.97 364.23,383.78 L373.8,383.66 C374.98,383.6 375.81,383.34 376.3,382.9 C376.72,382.51 377.03,381.86 377.21,380.95 C377.42,379.91 377.55,378.11 377.59,375.57 C377.62,373.44 377.56,371.92 377.41,371.01 C377.27,370.22 377.03,369.61 376.68,369.19 C376.27,368.7 375.55,368.29 374.53,367.94 C374.21,367.85 373.95,367.8 373.76,367.79 C373.62,367.78 373.38,367.78 373.03,367.78 C372.54,367.79 370.69,367.83 367.48,367.91 L364.13,367.65 C363.33,367.41 362.97,365.7 363.06,362.51 C363.19,360.84 364.33,360.32 366.51,360.94 C366.75,361 367.18,361.07 367.81,361.13 C373.39,361.53 376.7,360.94 377.75,359.36 C378.11,358.8 378.34,358.29 378.42,357.84 C378.49,357.49 378.53,356.94 378.56,356.18 C378.59,355.17 378.61,352.6 378.62,348.46 C378.51,346.52 378.24,345.23 377.82,344.61 C377.47,344.09 376.87,343.74 376.01,343.55 C374.96,343.32 372.85,343.21 369.67,343.23 L351.86,343.36 L351.86,343.36 zM334.96,344.25 C334.43,344.8 334.01,345.65 333.71,346.81 C333.4,348.05 333.16,349.84 333.01,352.19 C332.94,353.2 332.88,353.92 332.84,354.34 C332.81,354.63 332.75,355.1 332.66,355.75 C332.61,356.14 332.54,356.7 332.44,357.42 C332.36,358.06 332.23,358.99 332.07,360.19 C331.9,361.48 331.65,363.37 331.32,365.85 C331.32,365.89 331.28,366.19 331.21,366.75 C331.14,367.31 331.06,367.96 330.96,368.72 C330.87,369.47 330.79,370.11 330.72,370.64 L330.62,371.43 C330.56,371.52 330.48,371.58 330.37,371.6 C330.26,371.63 330.16,371.62 330.05,371.57 C329.84,371.47 329.75,370.95 329.8,370.02 L329.43,366.7 C329.18,364.5 328.88,361.85 328.53,358.75 C328.18,355.65 327.87,352.99 327.62,350.77 C327.36,348.56 327.23,347.42 327.22,347.36 C326.9,345.96 326.55,345 326.17,344.48 C325.84,344.04 325.36,343.73 324.74,343.56 C324,343.35 322.71,343.25 320.86,343.25 C318.17,343.25 316.51,343.27 315.88,343.31 C315.41,343.35 315.07,343.41 314.84,343.5 C314.53,343.63 314.14,343.97 313.66,344.54 C313.21,345.07 312.93,345.64 312.82,346.26 C312.73,346.74 312.68,347.54 312.65,348.67 C312.61,350.13 312.61,353.69 312.63,359.37 C312.69,375.44 312.76,391.51 312.84,407.58 C313.61,410.12 315.47,411.18 318.4,410.75 C321.05,410.19 322.34,408.32 322.27,405.13 C322.27,396.4 322.27,390.55 322.28,387.57 C322.29,385.1 322.31,383.39 322.33,382.44 C322.35,381.31 322.4,380.74 322.48,380.75 C322.67,380.78 322.78,381.39 322.79,382.6 C322.8,382.86 322.92,383.38 323.14,384.17 L325.38,406.24 C326.05,409.7 327.98,411.22 331.18,410.8 C332.09,410.68 332.81,410.41 333.33,409.97 C333.81,409.56 334.2,408.96 334.5,408.16 C334.82,407.3 335.08,406.07 335.28,404.47 L337.95,383 C338.07,382.98 338.15,383.18 338.18,383.58 C338.21,383.92 338.23,384.54 338.23,385.43 C338.24,386.52 338.24,388.73 338.23,392.04 C338.23,394.95 338.23,397.24 338.24,398.91 C338.25,400.46 338.25,401.71 338.26,402.64 C338.27,403.63 338.28,404.42 338.29,405 C338.31,406.05 338.35,406.79 338.4,407.21 C338.47,407.78 338.68,408.38 339.03,408.99 C339.92,410.54 341.4,411.02 343.47,410.43 C344.06,410.39 344.65,410.36 345.24,410.32 C347.22,410.19 348.16,408.62 348.07,405.62 L348.07,370.01 C348.07,364.88 348.07,360.97 348.07,358.3 C348.07,355.85 348.07,353.95 348.07,352.59 C348.06,351.11 348.06,349.98 348.06,349.21 C348.05,347.92 348.03,347.06 348.01,346.63 C347.98,346.02 347.86,345.52 347.64,345.14 C347.25,344.44 346.75,343.96 346.15,343.71 C345.63,343.49 344.86,343.35 343.82,343.28 C342.6,343.2 340.45,343.2 337.36,343.26 C336.33,343.34 335.53,343.67 334.96,344.25 L334.96,344.25 zM289.89,344.08 C289.48,344.41 289.14,344.99 288.87,345.81 C288.55,346.79 288.16,348.67 287.71,351.44 L278.71,406.65 C278.72,407.87 278.82,408.74 279.01,409.26 C279.18,409.73 279.47,410.05 279.87,410.22 C280.31,410.41 281.05,410.47 282.06,410.4 C282.51,410.38 283.2,410.42 284.13,410.53 C287.1,410.68 288.94,409.72 289.68,407.65 C289.86,407.13 289.98,406.03 290.02,404.36 C290.12,403.23 290.28,402.23 290.51,401.36 C290.73,400.49 290.96,399.97 291.19,399.81 C291.29,399.74 291.69,399.69 292.4,399.64 C293.1,399.59 293.94,399.56 294.9,399.56 C295.87,399.55 296.71,399.57 297.45,399.6 C298.18,399.64 298.61,399.69 298.74,399.75 C299.04,399.89 299.22,400.05 299.28,400.23 C299.33,400.35 299.38,400.59 299.44,400.95 C299.53,401.46 299.82,403.38 300.32,406.72 C300.69,409.26 302.1,410.51 304.55,410.47 C307.29,410.42 308.89,410.38 309.32,410.34 C309.63,410.32 309.86,410.27 310,410.2 C310.21,410.09 310.59,409.71 311.12,409.03 C311.58,408.46 311.75,407.54 311.62,406.28 C311.53,405.39 311.26,403.58 310.82,400.87 C310.55,399.23 310.16,396.85 309.63,393.71 C309.15,390.84 308.48,386.81 307.6,381.62 C306.64,375.95 305.24,367.67 303.4,356.78 L303.39,356.74 C302.53,351.65 301.98,348.51 301.74,347.3 C301.55,346.39 301.39,345.74 301.25,345.37 C301.06,344.87 300.7,344.41 300.17,343.99 C299.48,343.43 296.9,343.21 292.45,343.34 C291.23,343.43 290.38,343.67 289.89,344.08 L289.89,344.08 zM295.14,370.92 C295.44,372.23 295.6,373.15 295.61,373.68 C295.65,374.05 295.75,374.81 295.93,375.95 C296.1,377.08 296.29,378.24 296.49,379.43 C296.75,381.52 296.44,382.62 295.57,382.73 C293.96,382.94 293.19,382.29 293.25,380.77 C293.25,380.64 293.36,380.15 293.57,379.29 C293.83,378.03 294.07,376.52 294.31,374.75 C294.55,373 294.67,371.82 294.67,371.24 C294.68,370.8 294.72,370.55 294.78,370.48 C294.8,370.46 294.83,370.45 294.86,370.46 C294.94,370.48 295.03,370.64 295.14,370.92 L295.14,370.92 zM249.45,352.76 C246.17,360 244.86,369.86 245.53,382.35 C245.86,388.67 246.82,394.14 248.39,398.76 C249.97,403.39 251.96,406.6 254.36,408.39 C259.36,411.91 264.22,412.14 268.97,409.09 C271.14,407.63 273.03,405.79 274.66,403.57 C276.28,401.36 277.27,399.27 277.61,397.32 C277.69,396.74 277.76,395.34 277.81,393.11 C277.86,390.89 277.88,388.37 277.87,385.55 C277.86,382.73 277.82,380.28 277.75,378.2 C277.69,376.12 277.61,374.9 277.52,374.54 C277.32,373.74 277.02,373.14 276.59,372.75 C276.21,372.38 275.66,372.13 274.95,372 C274.19,371.85 273.09,371.8 271.66,371.86 C267.69,371.84 265.28,371.86 264.42,371.91 C263.78,371.96 263.32,372.05 263.05,372.19 C262.68,372.37 262.28,372.92 261.84,373.82 C261.42,374.87 261.21,376.88 261.19,379.87 C261.18,382.85 261.38,384.71 261.79,385.46 C262.73,387.15 264.16,387.93 266.06,387.78 C267.37,387.72 267.78,388.6 267.31,390.43 C266.81,392.05 265.54,393.17 263.49,393.79 C261.42,394.31 259.81,393.37 258.68,390.97 C256.9,387.22 256.23,380.85 256.67,371.88 C256.82,368.71 257.29,366.04 258.08,363.88 C258.86,361.71 259.81,360.49 260.9,360.21 C262.68,359.75 263.93,360.21 264.65,361.57 L265.71,363.78 C266.25,364.85 266.75,365.56 267.21,365.91 C267.62,366.22 268.11,366.35 268.69,366.31 C269.36,366.26 270.38,365.96 271.75,365.4 C271.98,365.31 272.55,365.12 273.46,364.82 C274.62,364.4 275.47,363.87 275.99,363.22 C276.49,362.62 276.76,361.85 276.82,360.9 C276.88,359.9 276.69,358.58 276.26,356.95 C275.31,353.29 274.3,350.49 273.22,348.53 C272.22,346.71 271.01,345.34 269.6,344.42 C268.08,343.44 266.07,342.81 263.56,342.54 C257.44,342.12 252.74,345.53 249.45,352.76 L249.45,352.76 zM201.44,343.45 L201.43,358.84 C201.43,369.31 201.43,377.28 201.43,382.73 C201.43,387.73 201.43,391.6 201.43,394.36 C201.43,397.37 201.44,399.67 201.45,401.24 C201.46,403.85 201.49,405.58 201.53,406.44 C201.59,407.66 201.83,408.54 202.25,409.11 C202.79,409.76 203.18,410.14 203.41,410.25 C203.58,410.33 203.84,410.38 204.18,410.41 C204.66,410.44 206.25,410.45 208.95,410.44 C209.88,410.46 210.44,410.45 210.63,410.41 C210.76,410.39 210.89,410.33 211,410.25 C211.16,410.13 211.58,409.72 212.26,409.01 C212.53,408.49 212.71,407.89 212.77,407.19 C212.82,406.64 212.85,405.73 212.84,404.48 C212.84,402.89 212.77,399.36 212.65,393.88 C212.6,391.43 212.74,389.55 213.08,388.24 L213.11,386.16 C213.12,385.68 213.2,385.41 213.34,385.36 C213.67,385.25 213.97,385.49 214.24,386.07 C214.46,386.56 214.76,387.46 215.13,388.78 C215.56,390.35 216.32,393.34 217.4,397.74 C217.93,399.9 218.35,401.59 218.65,402.82 C218.94,403.98 219.17,404.9 219.34,405.58 C219.53,406.31 219.68,406.89 219.79,407.32 C220.01,408.09 220.18,408.62 220.32,408.92 C220.52,409.32 220.9,409.7 221.47,410.05 C221.77,410.23 221.97,410.33 222.08,410.36 C222.15,410.38 222.27,410.39 222.42,410.4 C222.64,410.41 223.42,410.42 224.79,410.42 C226.17,410.5 226.97,410.55 227.21,410.55 C227.37,410.56 227.51,410.56 227.62,410.56 C227.77,410.55 228.14,410.52 228.73,410.45 C230.09,410.38 231.05,409.64 231.62,408.2 C231.82,407.7 231.87,407.14 231.75,406.52 C231.68,406.07 231.47,405.23 231.15,403.97 C230.96,403.23 230.68,402.16 230.32,400.78 C229.98,399.5 229.52,397.73 228.92,395.47 C228.26,393 227.32,389.46 226.09,384.83 L224.54,381.32 C224.55,381.1 224.58,380.94 224.62,380.84 C224.66,380.76 224.73,380.64 224.83,380.48 C224.98,380.24 225.55,379.36 226.54,377.85 C228.82,374.2 230.02,369.32 230.16,363.2 C230.3,357.09 229.32,352.21 227.21,348.56 C226.12,346.78 224.96,345.54 223.72,344.83 C222.63,344.21 221.16,343.79 219.3,343.57 C217.17,343.31 213.71,343.23 208.94,343.31 L201.44,343.45 L201.44,343.45 zM188.68,343.23 C187.33,343.23 185.43,343.24 182.98,343.25 C180.31,343.26 176.41,343.28 171.28,343.3 C171.29,365.66 171.29,388.03 171.3,410.39 L196.17,410.26 C197.81,409.84 198.62,408.28 198.62,405.61 L198.59,398.12 C198.48,395.18 197.65,393.49 196.09,393.06 C195.71,392.95 195.44,392.89 195.26,392.87 C195.13,392.86 194.94,392.86 194.68,392.86 C194.33,392.87 193.27,392.91 191.51,392.97 C189.72,392.98 188.36,392.98 187.43,392.98 C186.57,392.98 185.91,392.97 185.44,392.97 C184.93,392.97 184.54,392.96 184.27,392.95 C183.82,392.94 183.53,392.9 183.39,392.85 C183.19,392.78 183.07,392.5 183.03,392.02 L183,386.28 C183.03,386.12 183.04,385.71 183.05,385.04 C183.08,384.43 183.18,384.04 183.34,383.88 C183.48,383.75 183.72,383.67 184.08,383.63 C184.54,383.58 185.61,383.57 187.29,383.61 C188.99,383.61 190.28,383.61 191.17,383.61 C191.98,383.61 192.61,383.6 193.06,383.6 C193.55,383.59 193.93,383.59 194.19,383.58 C194.62,383.56 194.93,383.53 195.1,383.47 C195.35,383.39 195.69,383.1 196.11,382.58 C196.54,382.07 196.81,381.56 196.92,381.07 C197.01,380.68 197.07,380.08 197.11,379.26 C197.15,378.23 197.17,375.92 197.16,372.33 C197.04,370.66 196.78,369.52 196.38,368.92 C196.04,368.41 195.49,368.06 194.71,367.88 C193.79,367.67 192.1,367.58 189.64,367.63 C186.44,367.68 184.6,367.69 184.12,367.66 C183.77,367.64 183.54,367.58 183.41,367.49 C183.24,367.36 183.06,366.88 182.87,366.02 C182.55,364.7 182.5,363.52 182.74,362.46 C182.97,361.41 183.41,360.81 184.06,360.66 C184.2,360.63 184.31,360.61 184.41,360.61 C184.48,360.61 184.61,360.61 184.8,360.61 C185.06,360.61 186.04,360.62 187.75,360.63 C191.5,360.67 193.84,360.66 194.78,360.6 C195.51,360.55 196.03,360.45 196.35,360.3 C196.77,360.1 197.19,359.58 197.62,358.75 C197.89,358.23 198.05,357.77 198.11,357.39 C198.14,357.11 198.17,356.64 198.18,355.99 C198.19,355.1 198.19,352.49 198.16,348.15 C198.07,346.55 198,345.61 197.95,345.34 C197.92,345.15 197.85,344.99 197.76,344.86 C197.64,344.68 197.16,344.25 196.35,343.55 C195.85,343.37 195.29,343.27 194.66,343.25 C194.22,343.23 193.35,343.22 192.07,343.22 C191.29,343.22 190.16,343.22 188.68,343.23 L188.68,343.23 zM153.04,342.73 L152.99,342.74 C145.73,344.32 141.89,350.63 141.47,361.66 C141.11,371.21 144.6,378.28 151.93,382.88 L154.33,384.24 C156.68,385.57 157.93,387.72 158.08,390.69 C158.04,392.19 157.77,393.48 157.25,394.55 C156.72,395.62 156.12,396.15 155.43,396.13 C153.66,396.09 152.54,394.57 152.06,391.59 C151.83,390.1 151.6,389 151.37,388.31 C151.17,387.69 150.92,387.21 150.61,386.85 C150.27,386.44 149.73,386.07 149.01,385.74 C148.51,385.51 147.66,385.53 146.45,385.8 C146.37,385.81 146.3,385.82 146.24,385.83 C146.2,385.83 146.12,385.84 146.01,385.85 C145.85,385.86 145.24,385.89 144.18,385.95 C141.26,386.21 140.11,388.29 140.73,392.19 C141.27,395.61 141.75,398.18 142.18,399.89 C142.56,401.41 143,402.67 143.49,403.69 C144.05,404.83 144.84,406 145.88,407.18 C148.65,410.18 151.86,411.53 155.51,411.23 C159.15,410.93 162.26,409.06 164.82,405.62 C167.68,401.6 169.13,395.99 169.17,388.78 C169.21,381.57 167.83,376.03 165.02,372.15 C164.2,371.06 163.44,370.19 162.73,369.55 C162.13,369 161.36,368.42 160.44,367.82 C159.36,367.11 157.6,366.05 155.17,364.65 C153.13,363.48 152.11,361.98 152.09,360.13 C152.08,359.28 152.32,358.51 152.83,357.82 C153.33,357.12 153.86,356.82 154.43,356.91 C155.55,357.08 156.38,358.78 156.92,362 C157.29,363.94 158.5,364.9 160.57,364.9 C162.84,364.85 164.46,364.66 165.42,364.33 C166.27,364.05 166.86,363.58 167.18,362.93 C167.56,362.19 167.7,360.97 167.62,359.27 C167.16,352.27 165.03,347.33 161.25,344.45 C160.14,343.69 158.82,343.16 157.29,342.83 C155.75,342.51 154.33,342.47 153.04,342.73 L153.04,342.73 zM124.3,370.12 C124.42,370.35 124.49,370.61 124.51,370.91 C124.51,371.01 124.49,371.5 124.45,372.37 C124.45,372.5 124.55,373.02 124.75,373.93 L125.94,381.28 C125.9,382.47 125.07,382.96 123.47,382.74 C123.03,382.68 122.75,382.5 122.62,382.21 C122.51,381.96 122.47,381.55 122.5,380.97 C122.53,380.29 122.67,379.09 122.93,377.37 C123.18,374.87 123.44,372.38 123.69,369.88 C123.75,369.81 123.82,369.78 123.89,369.78 C124.04,369.79 124.17,369.9 124.3,370.12 L124.3,370.12 zM121.23,343.43 C120.44,343.52 119.95,343.62 119.76,343.74 C119.13,344.12 118.65,344.57 118.33,345.08 C118.04,345.53 117.8,346.15 117.6,346.94 C117.37,347.82 117.12,349.2 116.86,351.07 C116.85,351.16 116.71,351.94 116.45,353.42 C116.19,354.9 115.89,356.66 115.53,358.71 C115.17,360.75 114.86,362.51 114.6,363.98 C114.34,365.45 114.2,366.22 114.18,366.29 L111.82,382.16 L110.07,391.2 C109.47,394.3 109.11,396.6 108.97,398.09 C108.73,399.73 108.52,400.57 108.33,400.6 C108.26,400.61 108.2,400.48 108.18,400.23 C108.15,400 108.14,399.61 108.14,399.06 C108.14,398.43 108.14,397.37 108.15,395.88 C108.17,393.38 106.61,392.11 103.47,392.08 C101.2,392.06 99.87,392.05 99.46,392.06 C99.17,392.06 98.91,392.08 98.68,392.1 C98.34,392.14 97.43,392.28 95.92,392.53 C94.55,392.7 93.93,391.79 94.06,389.79 C94.09,389.11 94.09,387.55 94.08,385.1 C94.02,376.57 93.98,370.08 93.95,365.64 C93.92,361.58 93.9,358.42 93.88,356.18 C93.86,353.72 93.84,351.85 93.82,350.57 C93.79,348.44 93.75,347.04 93.69,346.34 C93.6,345.36 93.29,344.67 92.75,344.26 C92.19,343.83 91.84,343.58 91.69,343.51 C91.59,343.47 91.45,343.44 91.29,343.42 C91.07,343.4 90.28,343.38 88.93,343.36 C86.93,343.33 85.6,343.37 84.95,343.46 C84.42,343.54 84.02,343.68 83.75,343.9 C83.42,344.17 83.08,344.75 82.73,345.64 C82.51,346.37 82.38,347.5 82.34,349.05 C82.32,350.14 82.3,352.34 82.3,355.66 C82.29,357.67 82.29,360.59 82.29,364.42 C82.29,367.93 82.28,372.86 82.28,379.2 C82.28,386.14 82.28,396.26 82.28,409.57 L82.28,410.53 L104.4,410.36 L106.59,409.89 C107.03,409.81 107.32,409.78 107.44,409.78 C107.54,409.78 107.66,409.8 107.81,409.83 C108.04,409.87 108.82,410.04 110.17,410.35 C110.49,410.4 110.99,410.44 111.67,410.46 C112.35,410.48 113.09,410.48 113.87,410.47 C114.65,410.45 115.32,410.42 115.88,410.37 C116.44,410.33 116.78,410.27 116.9,410.21 C117.83,409.06 118.36,408.36 118.51,408.11 C118.61,407.93 118.69,407.74 118.73,407.52 C118.8,407.22 118.91,406.23 119.06,404.55 C119.21,403.29 119.44,402.19 119.76,401.26 C120.07,400.33 120.4,399.76 120.74,399.56 C121.32,399.22 122.02,399.17 122.84,399.43 C123.41,399.62 124.63,399.65 126.5,399.54 C127.15,399.52 127.61,399.59 127.87,399.75 C128.09,399.88 128.27,400.12 128.39,400.47 C128.54,400.88 128.7,401.65 128.86,402.78 C129.26,405.58 129.5,407.2 129.59,407.65 C129.66,407.96 129.73,408.2 129.81,408.35 C129.93,408.57 130.32,409 130.98,409.62 C131.54,410.08 131.91,410.35 132.09,410.41 C132.22,410.46 132.4,410.49 132.65,410.5 C132.99,410.51 134.21,410.49 136.32,410.44 C137.39,410.43 138.18,410.37 138.67,410.25 C139.11,410.14 139.46,409.96 139.73,409.71 C140.05,409.41 140.36,408.92 140.68,408.21 C140.93,407.67 140.96,406.7 140.77,405.31 C140.64,404.32 140.32,402.32 139.82,399.29 C139.52,397.46 139.07,394.79 138.48,391.29 C137.94,388.08 137.18,383.57 136.2,377.77 C135.13,371.43 133.57,362.18 131.51,350 C131.22,348.29 130.95,347.03 130.7,346.22 C130.48,345.49 130.23,344.94 129.93,344.56 C129.6,344.13 129.13,343.79 128.51,343.56 C128.24,343.45 127.68,343.37 126.83,343.32 C125.98,343.27 125.04,343.25 123.99,343.27 C122.94,343.29 122.02,343.35 121.23,343.43 L121.23,343.43 zM217.76,359.68 L217.97,359.94 C218.63,360.78 218.88,362.89 218.7,366.28 C218.54,368.14 217.44,369.09 215.42,369.14 C214.08,369.17 213.32,368.96 213.12,368.5 C213.08,368.41 213.05,367.94 213.03,367.1 C213.01,366.27 213.01,365.28 213.02,364.14 C213.04,363.01 213.06,362.02 213.1,361.19 C213.14,360.36 213.18,359.9 213.23,359.82 C213.38,359.52 213.66,359.33 214.07,359.24 C214.72,359.1 215.44,359.07 216.23,359.17 C217.03,359.26 217.54,359.43 217.76,359.68 L217.76,359.68 z"/>   <path fill="#007FFF" d="M291.32,489.66 C291.58,493.38 290.66,496.84 288.56,500.06 C286.47,503.28 283.79,505.34 280.52,506.24 C276.21,507.35 272.35,507.22 268.94,505.85 C265.53,504.49 262.97,502.04 261.26,498.51 C258.94,493.75 258.71,488.89 260.55,483.91 C262.03,480.19 264.4,477.47 267.65,475.78 C270.91,474.09 274.58,473.65 278.69,474.47 C286.33,476.16 290.54,481.23 291.32,489.66 L291.32,489.66 zM154.24,468.38 C154.59,468.39 154.81,468.4 154.92,468.4 C154.93,482.57 154.93,496.74 154.94,510.92 L127.73,511.62 L127.76,467.75 L153.55,468.38 C153.67,468.37 153.9,468.38 154.24,468.38 L154.24,468.38 zM89.16,548.17 C90.25,548.15 92.29,548.13 95.27,548.13 C97.07,548.12 99.68,548.12 103.1,548.12 C106.18,548.12 110.57,548.13 116.25,548.13 C122.41,548.13 131.4,548.14 143.23,548.15 L168.14,547.69 L174.05,547.75 C175.7,547.77 176.99,547.67 177.93,547.46 C178.73,547.28 179.56,546.96 180.4,546.5 C181.38,545.97 182.81,545.02 184.66,543.66 C186.2,542.46 188.04,540.62 190.2,538.12 C192.35,535.62 194.12,533.26 195.52,531.03 C200.4,523.26 203.3,515.9 204.23,508.95 C204.57,506.42 204.93,504.07 205.29,501.89 C206.72,493.45 206.59,484.42 204.92,474.8 C204.63,472.91 204.34,471.01 204.03,469.12 C203.38,465.11 201.82,460.52 199.34,455.35 C196.86,450.17 194.1,445.76 191.07,442.12 C189.23,439.91 187.12,437.81 184.73,435.82 C182.33,433.83 180.45,432.6 179.1,432.14 C177.35,431.58 175.66,430.89 174.05,430.05 C173.19,429.63 171.99,429.31 170.45,429.1 C169.03,428.91 167.07,428.77 164.58,428.68 C161.89,428.59 158.05,428.55 153.08,428.55 C130.07,428.55 107.06,428.55 84.05,428.54 L84.15,548.54 C85.95,548.32 87.61,548.2 89.16,548.17 L89.16,548.17 zM252.16,434.95 C245.2,437.82 239.34,441.79 234.6,446.89 C231.58,450.12 229.06,453.32 227.05,456.47 C225.12,459.49 223.46,462.76 222.07,466.27 C220.62,469.96 219.34,474.29 218.24,479.27 C216.21,488.41 216.43,497.78 218.89,507.39 C221.36,517.01 225.66,525.31 231.8,532.29 C234.49,535.35 236.87,537.79 238.95,539.6 C240.85,541.26 242.85,542.72 244.97,543.98 C247.28,545.36 250.21,546.77 253.76,548.23 C260.02,550.81 268.95,551.87 280.54,551.42 C295.03,550.86 307.42,544.66 317.73,532.82 C325.79,523.57 330.64,512.96 332.29,501 C335.01,481.36 330.18,464.21 317.79,449.55 C310.59,441.03 301.53,435.39 290.61,432.63 C286,431.46 280.48,430.81 274.03,430.68 L273.99,430.7 C266.4,430.67 259.12,432.09 252.16,434.95 L252.16,434.95 zM582.08,429.03 C580.24,429.35 577.26,430.11 573.13,431.3 C569.18,432.45 565.32,434.7 561.56,438.08 C557.8,441.45 554.93,445.21 552.97,449.36 C551.79,451.87 550.94,454.06 550.43,455.94 C549.97,457.64 549.69,459.44 549.58,461.31 C549.46,463.38 549.54,466.01 549.82,469.22 C550.07,472.04 550.8,474.79 552.02,477.46 C553.16,479.99 554.87,482.76 557.13,485.77 C559.53,488.97 562.88,492.86 567.18,497.46 L571.88,503.34 C572.36,504.05 572.82,504.76 573.27,505.47 L502.33,505.05 C493.7,480.07 485.08,455.08 476.45,430.1 L446.18,430.17 C445.34,430.43 444.52,431.12 443.72,432.24 C442.92,433.36 442.31,434.66 441.9,436.16 L428.34,475.06 C427.77,476.38 427.16,477.69 426.51,478.97 C426.34,476.62 425.92,474.48 425.25,472.56 L425.14,472.23 L418.57,454.47 C417.39,450.94 416.27,447.84 415.22,445.17 C414.19,442.27 413.15,439.38 412.11,436.5 C411.34,434.39 410.61,433.04 409.93,432.47 C409.38,432.01 408.56,431.72 407.46,431.57 C406.07,431.4 403.02,431.36 398.31,431.48 L377.58,431.52 L336.01,553.38 L381.3,553.25 C382.26,553.03 383,552.57 383.52,551.87 C383.95,551.29 384.44,550.3 384.99,548.9 C385.66,547.21 386.8,543.87 388.43,538.88 C389.33,536.13 389.89,534.44 390.12,533.81 C390.28,533.37 390.48,532.85 390.72,532.26 C390.87,531.91 391.07,531.43 391.32,530.82 C391.56,530.26 391.88,529.5 392.29,528.53 C392.74,527.47 393.4,525.93 394.25,523.91 C397.77,533.74 401.28,543.57 404.79,553.39 C419.91,553.37 435.04,553.35 450.16,553.33 C453.57,543.41 456.97,533.5 460.38,523.58 C460.58,523.27 460.75,523.14 460.88,523.19 C461.02,523.23 461.12,523.31 461.16,523.41 C461.2,523.49 461.23,523.63 461.28,523.84 C461.33,524.11 461.47,524.88 461.68,526.14 L462.82,528.79 L465.23,535.77 C467.6,542.64 469.21,546.93 470.05,548.67 C470.71,550.02 471.39,550.93 472.09,551.4 C472.99,552.01 474.8,552.32 477.53,552.33 C478.37,552.28 479.21,552.23 480.04,552.19 L573.16,552.49 C573.23,552.49 574.13,552.47 575.87,552.44 C577.62,552.4 579.7,552.36 582.13,552.31 C584.55,552.26 586.63,552.22 588.36,552.18 C590.1,552.15 590.99,552.13 591.04,552.13 L598.64,551.26 L603.59,551.01 C607.81,550.8 612.3,548.89 617.06,545.28 C621.83,541.67 625.7,537.24 628.69,532.01 C629.99,529.73 630.95,527.58 631.57,525.58 C632.15,523.71 632.53,521.69 632.71,519.52 C632.9,517.2 632.88,514.34 632.65,510.95 C632.51,508.97 632.21,507.29 631.74,505.91 C631.33,504.68 630.68,503.36 629.82,501.95 C628.84,500.35 627.26,498.15 625.08,495.33 C623.89,493.71 622.69,492.09 621.49,490.48 L615.97,483.86 L612.38,479.02 C611.3,477.57 610.37,476.47 609.57,475.7 C608.93,475.01 608.69,474.52 608.84,474.24 C608.98,473.95 609.1,473.79 609.19,473.75 C609.25,473.72 609.36,473.7 609.52,473.69 C609.75,473.68 610.59,473.67 612.06,473.67 L663.72,473.69 L663.72,428.78 C642.28,428.75 620.84,428.72 599.4,428.68 L599.39,428.64 C593.29,428.49 589.13,428.46 586.93,428.54 C585.17,428.61 583.55,428.77 582.08,429.03 L582.08,429.03 z"/>  </g> </svg>