<svg xmlns="http://www.w3.org/2000/svg" xml:space="preserve" shape-rendering="geometricPrecision" text-rendering="geometricPrecision" image-rendering="optimizeQuality" fill-rule="evenodd" clip-rule="evenodd" xmlns:xlink="http://www.w3.org/1999/xlink" viewBox="0 0 2275.14 1153.63">  <g id="Layer_1">   <metadata id="FutureCorpID_Layer"/>    <path fill="#111111" d="M613.34,9.42 C610.23,12.1 607.18,14.86 597.37,23.9 C592.38,28.49 586.02,34.5 578.26,41.94 C571.1,48.81 561.25,58.27 548.72,70.34 C535.16,83.4 515.9,101.96 490.95,126.03 L324.29,286.76 C227.97,194.99 131.64,103.22 35.32,11.44 L22.48,0 L22.37,23.83 C22.24,52.11 22.18,71.05 22.18,89.18 C22.17,104.72 22.17,126.56 22.16,154.69 C22.16,188.71 22.15,223.89 22.12,289.24 L22.01,596.66 L0,596.66 L0.16,1153.04 L137.1,1153.04 C137.31,1153.04 137,1153.56 141.12,1146.25 L215.24,1014.97 L308.32,1153.18 L463.54,1153.04 L290.18,899.68 C288.58,897.33 286.97,894.98 285.38,892.63 C341.23,792.27 396.04,693.76 450.02,596.66 L300.22,596.66 L126.94,904.51 L125.92,730.59 C125.76,702.95 125.74,681.94 125.85,667.55 L126.4,596.66 L155.03,596.66 L158.13,343.72 C158.36,324.91 158.38,323 158.45,320.16 C158.48,318.7 158.52,317.73 158.56,317.23 L158.79,314.36 C167.25,322.03 174.95,329.18 182.24,336.15 L323.23,470.86 C361.83,433.94 400.44,397.03 439.04,360.11 C446.07,353.39 451.43,348.27 455.11,344.76 C458.49,341.54 461.12,339.03 462.99,337.25 C465.04,335.28 466.65,333.79 467.82,332.76 L490.14,313.22 C490.45,319.71 490.6,324.56 490.65,329.15 C490.68,331.82 490.7,335.7 490.71,340.8 C490.73,345.45 490.74,352.01 490.74,360.48 C490.75,369.72 490.75,383.2 490.75,400.94 C490.75,441.47 490.75,472.3 490.76,493.41 C490.77,512.71 490.78,527.71 490.79,538.4 C490.81,550.06 490.83,558.94 490.86,565.02 C490.91,575.13 490.95,581.74 490.99,584.98 L491.12,596.66 L625.74,596.66 L624.57,516.91 C624.36,502.08 624.25,481.65 624.25,454.89 C624.25,425.78 624.23,383.28 624.19,327.38 C624.1,222.65 624.02,114.46 623.94,0.11 C624.28,-0.03 623.94,0.3 622.03,1.94 L613.34,9.42 L613.34,9.42 zM806.45,913.14 L806.23,913.55 C824.18,948.79 842.13,984.02 860.08,1019.26 C806.29,1019.25 752.5,1019.24 698.72,1019.23 C725.76,966.23 752.81,913.22 779.86,860.22 C788.72,877.86 797.59,895.5 806.45,913.14 L806.45,913.14 zM1947.55,29.1 C1944.16,35.38 1941.35,40.61 1939.13,44.79 C1936.7,49.36 1934.47,53.6 1932.43,57.52 C1929.06,64.01 1924.32,73.31 1918.22,85.43 C1914.53,92.75 1909.37,103.03 1902.73,116.29 C1896.6,128.51 1888.15,145.39 1877.37,166.93 C1865.55,190.56 1848.23,224.9 1825.42,269.95 C1771.27,376.92 1711.8,485.24 1646.03,596.66 L1583.37,656.45 C1525.22,711.94 1469.61,767.32 1416.49,822.67 L1393.41,846.71 C1390.18,849.18 1386.82,851.52 1383.34,853.73 L1252.5,727.27 C1244.65,719.68 1235.1,710.59 1223.84,700 C1212.58,689.4 1202.88,680.27 1194.74,672.6 C1186.6,664.94 1182.35,660.92 1181.98,660.56 C1160.47,639.36 1138.96,618.17 1117.46,596.97 L997.41,400.3 C995.62,397.93 993.79,395.58 991.93,393.25 L1026.93,367.56 C1085.34,316.16 1108.32,251.85 1095.86,174.62 C1088.22,127.31 1065.96,87.54 1029.08,55.3 C992.2,23.05 949.39,5.73 900.66,3.31 L662.39,3.15 L662.75,596.66 L760.95,596.69 L760.38,597.91 C671.53,785.88 581.34,970.15 489.82,1150.72 L488.73,1152.87 L1068.09,1152.87 C977.74,972.9 886.82,788.1 794.45,596.66 L795.18,553.17 C795.57,529.66 795.82,501.36 795.95,468.27 C796.07,435.18 796.35,406.1 796.78,381.02 L797.67,329.72 L798.04,329.42 C798.61,328.95 799.24,329.66 801.76,333.64 C803.18,335.89 806.13,340.7 810.6,348.08 C813.29,352.53 817.23,359.05 822.4,367.62 C827.1,375.42 833.75,386.45 842.34,400.71 C851.7,416.25 865.37,438.94 883.34,468.78 C899.75,496 912.23,516.71 920.79,530.88 C928.62,543.86 934.72,553.93 939.07,561.08 C943.84,568.91 947.46,574.88 949.95,579 L960.62,596.66 L1000.59,596.83 C1013.94,596.88 1027.76,596.89 1042.22,596.84 L1097.63,596.66 L1097.85,601.48 C1097.93,603.08 1097.98,604.67 1098.09,609.39 C1098.15,611.77 1098.19,615.24 1098.22,619.79 C1098.25,623.95 1098.27,629.8 1098.28,637.33 C1098.29,645.56 1098.31,657.57 1098.34,673.38 L1099.27,1146.55 L1099.4,1153.04 L1150.05,1152.93 C1165.23,1152.9 1177.01,1152.86 1185.41,1152.82 C1193.08,1152.78 1198.92,1152.78 1202.94,1152.8 L1225.57,1152.95 L1226.03,1137.83 C1226.15,1133.88 1226.22,1125.68 1226.25,1113.23 C1226.27,1105.71 1226.29,1094.75 1226.3,1080.33 C1226.31,1067.1 1226.32,1048.57 1226.32,1024.72 C1226.33,998.62 1226.34,960.52 1226.35,910.4 C1226.36,895.85 1226.37,887.47 1226.39,885.26 C1226.41,883.7 1226.44,882.65 1226.49,882.1 C1226.56,881.32 1226.83,880.57 1227.3,879.85 C1227.71,879.22 1228.2,879.11 1228.77,879.51 C1229.17,879.8 1229.95,880.51 1231.13,881.63 C1232.79,883.23 1239.12,889.47 1250.11,900.34 C1294.77,942.86 1339.43,985.38 1384.09,1027.9 C1434.15,980.55 1484.2,933.2 1534.25,885.85 C1536.23,884.56 1538.03,882.95 1539.66,881.01 C1540.45,880.07 1541,879.64 1541.31,879.73 C1541.85,879.87 1542.16,881.65 1542.24,885.07 C1542.29,887.48 1542.33,892.58 1542.35,900.36 C1542.36,905.06 1542.36,911.93 1542.36,920.97 C1542.37,929.21 1542.37,940.83 1542.37,955.84 C1542.37,972.21 1542.37,996.11 1542.37,1027.55 C1542.37,1052.93 1542.37,1072.23 1542.38,1085.46 C1542.38,1097.57 1542.39,1106.96 1542.4,1113.65 C1542.42,1120.96 1542.46,1126.52 1542.53,1130.34 L1542.93,1153.04 L1550.89,1152.79 C1553.06,1152.72 1555.26,1152.72 1560.8,1152.78 C1563.67,1152.81 1567.84,1152.83 1573.32,1152.84 C1578.36,1152.86 1585.39,1152.87 1594.4,1152.89 L1670.06,1153.04 L1670.14,1146.66 C1670.15,1145.13 1670.18,1143.6 1670.28,1139.14 C1670.34,1136.51 1670.38,1131.09 1670.4,1122.89 C1670.41,1117.94 1670.42,1110.72 1670.42,1101.24 C1670.43,1092.64 1670.43,1080.44 1670.43,1064.64 C1670.44,1047.41 1670.46,1022.5 1670.5,989.42 L1671.03,596.66 L1893.58,597.51 C1894.17,597.7 1894.51,597.94 1894.58,598.2 C1894.82,599.02 1894.38,599.75 1893.28,600.38 C1892.33,600.93 1890.59,601.58 1888.08,602.33 C1885.19,603.2 1880.15,604.53 1872.94,606.32 C1857.79,610.83 1838.45,622.67 1814.9,641.82 C1791.35,660.98 1772.16,680.55 1757.33,700.54 C1733.38,732.82 1716.65,771.63 1707.16,816.95 C1699.52,853.4 1700.5,891.99 1710.1,932.72 C1719.69,973.45 1735.95,1008.28 1758.86,1037.2 C1783.7,1068.54 1805.79,1090.12 1825.13,1101.94 C1851.34,1117.96 1874.24,1129.81 1893.82,1137.47 C1911.96,1144.57 1930.22,1149.3 1948.6,1151.65 C1968.45,1154.18 1991.94,1154.29 2019.09,1151.96 C2046.86,1149.57 2075.73,1141.38 2105.72,1127.38 C2135.71,1113.38 2161.12,1096.26 2181.94,1076.04 C2206.17,1052.5 2225.28,1027.89 2239.28,1002.21 L2238.87,1002.08 C2274.33,937.44 2283.79,871.53 2267.25,804.35 C2256.86,762.15 2237.58,723.21 2209.4,687.52 C2199.3,675.19 2185.04,661.59 2166.6,646.73 C2148.17,631.87 2131.71,620.74 2117.24,613.34 C2109.03,609.13 2100.51,605.92 2091.7,603.69 C2084.67,601.74 2081.29,599.94 2081.55,598.27 C2081.64,597.65 2083.31,597.26 2087.07,596.98 C2090.03,596.76 2095.36,596.67 2103.98,596.69 L2263.06,597.09 C2170.56,413.03 2078.06,228.98 1985.56,44.92 L1963.13,0.29 C1956.44,12.63 1951.25,22.23 1947.55,29.1 L1947.55,29.1 zM1264.56,2.72 L1264.5,3.1 C1253.04,3.21 1235.4,3.25 1211.58,3.22 C1187.77,3.19 1169.04,3.11 1155.39,2.97 L1136.44,3.3 L1136.47,10.06 C1136.5,14.13 1136.47,22.72 1136.39,35.84 C1136.18,73.36 1136.12,97.26 1136.21,107.56 L1136.44,133.44 L1142.58,133.58 C1143.64,133.6 1144.68,133.62 1148.11,133.69 C1150.1,133.73 1154.21,133.75 1160.43,133.75 C1164.19,133.75 1169.67,133.74 1176.88,133.73 C1183.46,133.72 1192.72,133.7 1204.68,133.67 C1217.73,133.64 1236.78,133.59 1261.83,133.54 C1300.55,133.46 1328.29,134.06 1345.05,135.35 C1359.32,136.45 1371.32,138.41 1381.06,141.23 C1392.51,144.55 1405.8,150.71 1420.93,159.72 C1468.26,187.89 1495.11,229.14 1501.46,283.45 C1507.82,337.77 1491.14,383.84 1451.43,421.66 C1418.63,452.9 1375.13,468.95 1320.92,469.8 C1302.1,469.57 1283.27,469.38 1264.45,469.25 C1230.98,469.01 1206.33,468.91 1190.49,468.94 C1176.2,468.96 1165.75,469.08 1159.12,469.28 L1136.44,469.98 L1136.4,475.38 C1136.37,479.1 1136.33,482.45 1136.28,485.64 C1136.4,496.75 1136.45,514.01 1136.43,537.42 C1136.41,560.83 1136.33,576.13 1136.19,583.32 L1136.44,597.11 L1142.75,597.13 C1145.84,597.14 1149.02,597.14 1155.45,597.12 C1231.32,596.94 1307.18,596.73 1383.05,596.47 C1420.45,593.17 1458.03,579.24 1495.8,554.71 C1533.57,530.17 1564.38,499.57 1588.23,462.91 C1628.64,400.78 1643.22,331.28 1631.98,254.41 C1622.33,188.42 1591.36,131.58 1539.06,83.88 C1486.77,36.19 1426.55,9.67 1358.4,4.34 C1337.94,2.74 1306.66,2.19 1264.56,2.72 L1264.56,2.72 zM897.64,136.55 C906.91,137.29 914.53,138.81 920.51,141.11 C927.45,143.78 934.91,148.65 942.86,155.72 L942.89,155.79 C957.19,169.08 964.9,186.02 966.02,206.59 C967.15,227.16 961.3,244.4 948.49,258.3 C939.89,267.3 932.16,273.49 925.28,276.85 C919.38,279.74 912.04,281.67 903.27,282.64 C893.05,283.77 876.42,284 853.39,283.34 C849.07,283.21 846.15,283.15 844.63,283.15 C843.57,283.14 841.97,283.16 839.84,283.18 C836.82,283.22 825.88,283.38 807.03,283.67 C800.79,283.43 797.28,281.4 796.48,277.57 C796.42,235.89 796.36,194.21 796.31,152.54 C796.03,143.64 797.22,138.47 799.88,137.02 C814.97,136.75 830.07,136.45 845.17,136.1 C869.4,135.53 886.89,135.68 897.64,136.55 L897.64,136.55 zM1989.96,350.87 L1989.95,350.85 L2044.9,460.75 L1878.31,460.73 C1906.46,405.99 1934.62,351.24 1962.77,296.49 C1971.83,314.62 1980.9,332.74 1989.96,350.87 L1989.96,350.87 zM2148.95,864.15 C2148.95,952.9 2077,1024.85 1988.25,1024.85 C1899.49,1024.85 1827.54,952.9 1827.54,864.15 C1827.54,775.39 1899.49,703.44 1988.25,703.44 C2077,703.44 2148.95,775.39 2148.95,864.15 L2148.95,864.15 z"/>  </g> </svg>