<svg width="28" height="14" viewBox="0 0 28 14" fill="none" xmlns="http://www.w3.org/2000/svg">
<path d="M27.815 6.55361L21.4515 0.221352C21.2229 -0.0442611 20.8212 -0.0752246 20.5543 0.152296C20.2873 0.379762 20.2562 0.779514 20.4849 1.04513C20.5062 1.06989 20.5294 1.09301 20.5543 1.11418L25.8296 6.36995H6C5.64858 6.36995 5 6.65026 5 7C5 7.34974 5.64858 7.63642 6 7.63642H25.8296L20.5543 12.8858C20.2873 13.1133 20.2562 13.513 20.4849 13.7786C20.7135 14.0443 21.1152 14.0752 21.3821 13.8477C21.407 13.8265 21.4302 13.8034 21.4515 13.7786L27.815 7.44639C28.0617 7.1995 28.0617 6.80061 27.815 6.55361Z" fill="#FE580C"/>
</svg>
