<svg width="29" height="31" viewBox="0 0 29 31" fill="none" xmlns="http://www.w3.org/2000/svg">
<g clip-path="url(#clip0_38_5)">
<path d="M14.5064 8.53712C10.3895 8.53712 7.06872 11.6432 7.06872 15.494C7.06872 19.3447 10.3895 22.4508 14.5064 22.4508C18.6234 22.4508 21.9442 19.3447 21.9442 15.494C21.9442 11.6432 18.6234 8.53712 14.5064 8.53712ZM14.5064 20.0168C11.846 20.0168 9.67095 17.9885 9.67095 15.494C9.67095 12.9994 11.8395 10.9711 14.5064 10.9711C17.1734 10.9711 19.3419 12.9994 19.3419 15.494C19.3419 17.9885 17.1669 20.0168 14.5064 20.0168ZM23.9832 8.25255C23.9832 9.15469 23.2064 9.8752 22.2484 9.8752C21.2839 9.8752 20.5136 9.14864 20.5136 8.25255C20.5136 7.35645 21.2904 6.62989 22.2484 6.62989C23.2064 6.62989 23.9832 7.35645 23.9832 8.25255ZM28.9093 9.89942C28.7993 7.72579 28.2685 5.8004 26.566 4.21407C24.8701 2.62774 22.8116 2.13126 20.4877 2.02227C18.0926 1.89512 10.9138 1.89512 8.51872 2.02227C6.20131 2.1252 4.14283 2.62169 2.44037 4.20801C0.737919 5.79434 0.213588 7.71973 0.0970703 9.89337C-0.0388672 12.1336 -0.0388672 18.8482 0.0970703 21.0885C0.207115 23.2621 0.737919 25.1875 2.44037 26.7738C4.14283 28.3602 6.19484 28.8566 8.51872 28.9656C10.9138 29.0928 18.0926 29.0928 20.4877 28.9656C22.8116 28.8627 24.8701 28.3662 26.566 26.7738C28.262 25.1875 28.7928 23.2621 28.9093 21.0885C29.0453 18.8482 29.0453 12.1397 28.9093 9.89942ZM25.8152 23.4922C25.3102 24.6789 24.3328 25.5932 23.0576 26.0715C21.148 26.7799 16.6167 26.6164 14.5064 26.6164C12.3962 26.6164 7.85845 26.7738 5.95533 26.0715C4.68658 25.5992 3.70912 24.685 3.19774 23.4922C2.44037 21.7061 2.61515 17.4678 2.61515 15.494C2.61515 13.5201 2.44685 9.27579 3.19774 7.49571C3.70265 6.30899 4.68011 5.39473 5.95533 4.91641C7.86493 4.20801 12.3962 4.37149 14.5064 4.37149C16.6167 4.37149 21.1544 4.21407 23.0576 4.91641C24.3263 5.38868 25.3038 6.30294 25.8152 7.49571C26.5725 9.28184 26.3977 13.5201 26.3977 15.494C26.3977 17.4678 26.5725 21.7121 25.8152 23.4922Z" fill="white" fill-opacity="0.98"/>
</g>
<defs>
<clipPath id="clip0_38_5">
<rect width="29" height="31" fill="white"/>
</clipPath>
</defs>
</svg>
