<svg width="14" height="19" viewBox="0 0 14 19" fill="none" xmlns="http://www.w3.org/2000/svg">
<path d="M7.86406 18.5731C9.73437 16.1845 14 10.3953 14 7.14349C14 3.19969 10.8646 0 7 0C3.13542 0 0 3.19969 0 7.14349C0 10.3953 4.26562 16.1845 6.13594 18.5731C6.58437 19.1423 7.41562 19.1423 7.86406 18.5731ZM7 4.76232C7.61884 4.76232 8.21233 5.0132 8.64992 5.45975C9.0875 5.9063 9.33333 6.51196 9.33333 7.14349C9.33333 7.77501 9.0875 8.38067 8.64992 8.82722C8.21233 9.27378 7.61884 9.52465 7 9.52465C6.38116 9.52465 5.78767 9.27378 5.35008 8.82722C4.9125 8.38067 4.66667 7.77501 4.66667 7.14349C4.66667 6.51196 4.9125 5.9063 5.35008 5.45975C5.78767 5.0132 6.38116 4.76232 7 4.76232Z" fill="white"/>
</svg>
