<svg width="21" height="13" viewBox="0 0 21 13" fill="none" xmlns="http://www.w3.org/2000/svg">
<path d="M1.96875 0C0.881836 0 0 0.727865 0 1.625C0 2.1362 0.291211 2.61693 0.7875 2.925L9.7125 8.45C10.1801 8.73776 10.8199 8.73776 11.2875 8.45L20.2125 2.925C20.7088 2.61693 21 2.1362 21 1.625C21 0.727865 20.1182 0 19.0312 0H1.96875ZM0 3.79167V10.8333C0 12.0284 1.17715 13 2.625 13H18.375C19.8229 13 21 12.0284 21 10.8333V3.79167L12.075 9.31667C11.1398 9.89557 9.86016 9.89557 8.925 9.31667L0 3.79167Z" fill="white"/>
</svg>
