<svg width="22" height="14" viewBox="0 0 22 14" fill="none" xmlns="http://www.w3.org/2000/svg">
<path d="M2.0625 0C0.923828 0 0 0.783854 0 1.75C0 2.30052 0.305078 2.81823 0.825 3.15L10.175 9.1C10.6648 9.4099 11.3352 9.4099 11.825 9.1L21.175 3.15C21.6949 2.81823 22 2.30052 22 1.75C22 0.783854 21.0762 0 19.9375 0H2.0625ZM0 4.08333V11.6667C0 12.9536 1.2332 14 2.75 14H19.25C20.7668 14 22 12.9536 22 11.6667V4.08333L12.65 10.0333C11.6703 10.6568 10.3297 10.6568 9.35 10.0333L0 4.08333Z" fill="#FF5558"/>
</svg>
