<svg width="18" height="19" viewBox="0 0 18 19" fill="none" xmlns="http://www.w3.org/2000/svg">
<g clip-path="url(#clip0_159_12)">
<path d="M8.03203 2.24076C7.94358 1.66961 7.43918 1.25159 6.85486 1.26237L4.20461 1.31009C3.68021 1.32104 3.22918 1.67502 3.10444 2.1753C1.39005 9.05134 5.66222 16.0384 12.6455 17.7795C13.1535 17.9062 13.6834 17.6811 13.9394 17.2313L15.2267 14.9544C15.5107 14.4525 15.3719 13.8186 14.9003 13.4737L12.4677 11.6864C12.0548 11.3827 11.4887 11.3803 11.0805 11.6829L9.59847 12.7688C7.84207 11.3479 6.62815 9.36249 6.17605 7.17149L7.84688 6.39838C8.3112 6.18352 8.57414 5.69408 8.49515 5.19319L8.03134 2.24354L8.03203 2.24076Z" fill="white"/>
</g>
<defs>
<clipPath id="clip0_159_12">
<rect width="14.8944" height="14.6658" fill="white" transform="translate(3.54785 0.396698) rotate(14)"/>
</clipPath>
</defs>
</svg>
