<svg width="20" height="20" viewBox="0 0 20 20" fill="none" xmlns="http://www.w3.org/2000/svg">
<g clip-path="url(#clip0_159_12)">
<path d="M8.74206 2.00557C8.64858 1.37928 8.10434 0.922642 7.4719 0.936774L4.6034 0.999622C4.0358 1.01371 3.54626 1.40387 3.40929 1.95325C1.52663 9.50419 6.12265 17.1533 13.6736 19.0359C14.223 19.1729 14.7973 18.9238 15.0762 18.4293L16.4784 15.9261C16.7878 15.3743 16.6401 14.6794 16.131 14.3028L13.5053 12.3514C13.0596 12.0198 12.447 12.0195 12.0039 12.3531L10.3957 13.5504C8.50043 11.9983 7.19448 9.82484 6.71385 7.42275L8.52522 6.5679C9.02859 6.33032 9.31511 5.79229 9.2316 5.24305L8.74129 2.00862L8.74206 2.00557Z" fill="#FF5558"/>
</g>
<defs>
<clipPath id="clip0_159_12">
<rect width="16.1052" height="16.1052" fill="white" transform="translate(3.89624) rotate(14)"/>
</clipPath>
</defs>
</svg>
